G04 #@! TF.GenerationSoftware,KiCad,Pcbnew,8.0.6*
G04 #@! TF.CreationDate,2024-11-24T22:49:27+01:00*
G04 #@! TF.ProjectId,cbm_ultipet_v1,63626d5f-756c-4746-9970-65745f76312e,rev?*
G04 #@! TF.SameCoordinates,Original*
G04 #@! TF.FileFunction,Paste,Top*
G04 #@! TF.FilePolarity,Positive*
%FSLAX46Y46*%
G04 Gerber Fmt 4.6, Leading zero omitted, Abs format (unit mm)*
G04 Created by KiCad (PCBNEW 8.0.6) date 2024-11-24 22:49:27*
%MOMM*%
%LPD*%
G01*
G04 APERTURE LIST*
G04 Aperture macros list*
%AMRoundRect*
0 Rectangle with rounded corners*
0 $1 Rounding radius*
0 $2 $3 $4 $5 $6 $7 $8 $9 X,Y pos of 4 corners*
0 Add a 4 corners polygon primitive as box body*
4,1,4,$2,$3,$4,$5,$6,$7,$8,$9,$2,$3,0*
0 Add four circle primitives for the rounded corners*
1,1,$1+$1,$2,$3*
1,1,$1+$1,$4,$5*
1,1,$1+$1,$6,$7*
1,1,$1+$1,$8,$9*
0 Add four rect primitives between the rounded corners*
20,1,$1+$1,$2,$3,$4,$5,0*
20,1,$1+$1,$4,$5,$6,$7,0*
20,1,$1+$1,$6,$7,$8,$9,0*
20,1,$1+$1,$8,$9,$2,$3,0*%
G04 Aperture macros list end*
%ADD10R,1.100000X1.000000*%
%ADD11R,1.910000X0.610000*%
%ADD12R,2.410000X3.100000*%
%ADD13R,2.235000X1.219000*%
%ADD14R,2.200000X3.600000*%
%ADD15R,1.000000X1.100000*%
%ADD16R,1.300000X1.500000*%
%ADD17R,1.500000X1.300000*%
%ADD18R,0.700000X0.510000*%
%ADD19R,1.200000X1.500000*%
%ADD20R,1.500000X1.200000*%
%ADD21RoundRect,0.150000X0.150000X-0.825000X0.150000X0.825000X-0.150000X0.825000X-0.150000X-0.825000X0*%
%ADD22R,0.660400X2.032000*%
%ADD23R,0.600000X2.200000*%
%ADD24RoundRect,0.358140X0.835660X4.721860X-0.835660X4.721860X-0.835660X-4.721860X0.835660X-4.721860X0*%
%ADD25RoundRect,0.062500X0.062500X-0.662500X0.062500X0.662500X-0.062500X0.662500X-0.062500X-0.662500X0*%
%ADD26RoundRect,0.062500X0.662500X-0.062500X0.662500X0.062500X-0.662500X0.062500X-0.662500X-0.062500X0*%
%ADD27RoundRect,0.100000X-0.637500X-0.100000X0.637500X-0.100000X0.637500X0.100000X-0.637500X0.100000X0*%
%ADD28R,1.270000X0.635000*%
%ADD29R,1.500000X0.270000*%
%ADD30R,0.270000X1.500000*%
%ADD31RoundRect,0.358140X-4.721860X0.835660X-4.721860X-0.835660X4.721860X-0.835660X4.721860X0.835660X0*%
%ADD32RoundRect,0.150000X0.512500X0.150000X-0.512500X0.150000X-0.512500X-0.150000X0.512500X-0.150000X0*%
%ADD33R,0.250000X1.000000*%
%ADD34R,0.900000X0.800000*%
G04 APERTURE END LIST*
D10*
X313355000Y-169285000D03*
X315055000Y-169285000D03*
D11*
X364095000Y-180975000D03*
X364095000Y-179705000D03*
X364095000Y-178435000D03*
X364095000Y-177165000D03*
X358535000Y-177165000D03*
X358535000Y-178435000D03*
X358535000Y-179705000D03*
X358535000Y-180975000D03*
D12*
X361315000Y-179070000D03*
D10*
X241093210Y-135144172D03*
X239393210Y-135144172D03*
D13*
X372821000Y-61824000D03*
X372821000Y-64135000D03*
X372821000Y-66446000D03*
D14*
X379019000Y-64135000D03*
D15*
X326947000Y-183893000D03*
X326947000Y-182193000D03*
D10*
X222004390Y-91440000D03*
X220304390Y-91440000D03*
D15*
X271780000Y-179285000D03*
X271780000Y-177585000D03*
D16*
X272902491Y-95002215D03*
X274802491Y-95002215D03*
D10*
X315305000Y-173990000D03*
X313605000Y-173990000D03*
D15*
X344170000Y-135040000D03*
X344170000Y-136740000D03*
X332490504Y-103422340D03*
X332490504Y-105122340D03*
D17*
X368935000Y-65720000D03*
X368935000Y-63820000D03*
D15*
X351155000Y-180135000D03*
X351155000Y-178435000D03*
X350520000Y-104992852D03*
X350520000Y-103292852D03*
D18*
X70221000Y-169038000D03*
X70221000Y-169988000D03*
X70221000Y-170938000D03*
X72541000Y-170938000D03*
X72541000Y-169038000D03*
D19*
X206375000Y-62409654D03*
X206375000Y-59509654D03*
D15*
X323189000Y-154123000D03*
X323189000Y-152423000D03*
D20*
X259113340Y-83408800D03*
X256213340Y-83408800D03*
D15*
X346710000Y-202350000D03*
X346710000Y-204050000D03*
D10*
X208555000Y-91785000D03*
X206855000Y-91785000D03*
D15*
X267235711Y-139016191D03*
X267235711Y-137316191D03*
D10*
X203415000Y-67945000D03*
X201715000Y-67945000D03*
D21*
X379349000Y-131380000D03*
X380619000Y-131380000D03*
X381889000Y-131380000D03*
X383159000Y-131380000D03*
X384429000Y-131380000D03*
X385699000Y-131380000D03*
X386969000Y-131380000D03*
X388239000Y-131380000D03*
X388239000Y-126430000D03*
X386969000Y-126430000D03*
X385699000Y-126430000D03*
X384429000Y-126430000D03*
X383159000Y-126430000D03*
X381889000Y-126430000D03*
X380619000Y-126430000D03*
X379349000Y-126430000D03*
D20*
X259133000Y-68168800D03*
X256233000Y-68168800D03*
D15*
X261620000Y-156425000D03*
X261620000Y-154725000D03*
X269100166Y-179285000D03*
X269100166Y-177585000D03*
D22*
X341630000Y-132816600D03*
X340360000Y-132816600D03*
X339090000Y-132816600D03*
X337820000Y-132816600D03*
X336550000Y-132816600D03*
X335280000Y-132816600D03*
X334010000Y-132816600D03*
X334010000Y-138963400D03*
X335280000Y-138963400D03*
X336550000Y-138963400D03*
X337820000Y-138963400D03*
X339090000Y-138963400D03*
X340360000Y-138963400D03*
X341630000Y-138963400D03*
D20*
X259133000Y-79598800D03*
X256233000Y-79598800D03*
D10*
X354469868Y-148923456D03*
X356169868Y-148923456D03*
D23*
X245110000Y-154940000D03*
X246380000Y-154940000D03*
X247650000Y-154940000D03*
X248920000Y-154940000D03*
X248920000Y-149740000D03*
X247650000Y-149740000D03*
X246380000Y-149740000D03*
X245110000Y-149740000D03*
D24*
X144841565Y-48598750D03*
X140879165Y-48598750D03*
X136916765Y-48598750D03*
X132954365Y-48598750D03*
X128991965Y-48598750D03*
X125029565Y-48598750D03*
D23*
X293370000Y-138496000D03*
X294640000Y-138496000D03*
X295910000Y-138496000D03*
X297180000Y-138496000D03*
X298450000Y-138496000D03*
X299720000Y-138496000D03*
X300990000Y-138496000D03*
X302260000Y-138496000D03*
X303530000Y-138496000D03*
X304800000Y-138496000D03*
X306070000Y-138496000D03*
X307340000Y-138496000D03*
X308610000Y-138496000D03*
X309880000Y-138496000D03*
X311150000Y-138496000D03*
X312420000Y-138496000D03*
X312420000Y-125664000D03*
X311150000Y-125664000D03*
X309880000Y-125664000D03*
X308610000Y-125664000D03*
X307340000Y-125664000D03*
X306070000Y-125664000D03*
X304800000Y-125664000D03*
X303530000Y-125664000D03*
X302260000Y-125664000D03*
X300990000Y-125664000D03*
X299720000Y-125664000D03*
X298450000Y-125664000D03*
X297180000Y-125664000D03*
X295910000Y-125664000D03*
X294640000Y-125664000D03*
X293370000Y-125664000D03*
D22*
X365125000Y-99184262D03*
X363855000Y-99184262D03*
X362585000Y-99184262D03*
X361315000Y-99184262D03*
X360045000Y-99184262D03*
X358775000Y-99184262D03*
X357505000Y-99184262D03*
X356235000Y-99184262D03*
X354965000Y-99184262D03*
X353695000Y-99184262D03*
X353695000Y-109242662D03*
X354965000Y-109242662D03*
X356235000Y-109242662D03*
X357505000Y-109242662D03*
X358775000Y-109242662D03*
X360045000Y-109242662D03*
X361315000Y-109242662D03*
X362585000Y-109242662D03*
X363855000Y-109242662D03*
X365125000Y-109242662D03*
D10*
X294855000Y-198120000D03*
X293155000Y-198120000D03*
X314317475Y-180285256D03*
X312617475Y-180285256D03*
D15*
X350940000Y-162980000D03*
X350940000Y-164680000D03*
D25*
X211610000Y-89560000D03*
X212110000Y-89560000D03*
X212610000Y-89560000D03*
X213110000Y-89560000D03*
X213610000Y-89560000D03*
X214110000Y-89560000D03*
X214610000Y-89560000D03*
X215110000Y-89560000D03*
D26*
X216560000Y-88110000D03*
X216560000Y-87610000D03*
X216560000Y-87110000D03*
X216560000Y-86610000D03*
X216560000Y-86110000D03*
X216560000Y-85610000D03*
X216560000Y-85110000D03*
X216560000Y-84610000D03*
D25*
X215110000Y-83160000D03*
X214610000Y-83160000D03*
X214110000Y-83160000D03*
X213610000Y-83160000D03*
X213110000Y-83160000D03*
X212610000Y-83160000D03*
X212110000Y-83160000D03*
X211610000Y-83160000D03*
D26*
X210160000Y-84610000D03*
X210160000Y-85110000D03*
X210160000Y-85610000D03*
X210160000Y-86110000D03*
X210160000Y-86610000D03*
X210160000Y-87110000D03*
X210160000Y-87610000D03*
X210160000Y-88110000D03*
D27*
X145727500Y-180590000D03*
X145727500Y-181240000D03*
X145727500Y-181890000D03*
X145727500Y-182540000D03*
X145727500Y-183190000D03*
X145727500Y-183840000D03*
X145727500Y-184490000D03*
X145727500Y-185140000D03*
X145727500Y-185790000D03*
X145727500Y-186440000D03*
X151452500Y-186440000D03*
X151452500Y-185790000D03*
X151452500Y-185140000D03*
X151452500Y-184490000D03*
X151452500Y-183840000D03*
X151452500Y-183190000D03*
X151452500Y-182540000D03*
X151452500Y-181890000D03*
X151452500Y-181240000D03*
X151452500Y-180590000D03*
D22*
X285750000Y-187426600D03*
X284480000Y-187426600D03*
X283210000Y-187426600D03*
X281940000Y-187426600D03*
X280670000Y-187426600D03*
X279400000Y-187426600D03*
X278130000Y-187426600D03*
X278130000Y-193573400D03*
X279400000Y-193573400D03*
X280670000Y-193573400D03*
X281940000Y-193573400D03*
X283210000Y-193573400D03*
X284480000Y-193573400D03*
X285750000Y-193573400D03*
D15*
X328947000Y-182193000D03*
X328947000Y-183893000D03*
D17*
X349885000Y-141285000D03*
X349885000Y-139385000D03*
D28*
X362174250Y-163101750D03*
X362174250Y-164371750D03*
X362174250Y-165641750D03*
X364714250Y-165641750D03*
X364714250Y-164371750D03*
X364714250Y-163101750D03*
D20*
X259133000Y-71882000D03*
X256233000Y-71882000D03*
D17*
X353695000Y-178120000D03*
X353695000Y-180020000D03*
D15*
X359410000Y-162980000D03*
X359410000Y-164680000D03*
X368300000Y-103422923D03*
X368300000Y-105122923D03*
D10*
X342060000Y-182880000D03*
X340360000Y-182880000D03*
D15*
X366395000Y-65620000D03*
X366395000Y-63920000D03*
D29*
X318198519Y-159511791D03*
X318198519Y-160011791D03*
X318198519Y-160511791D03*
X318198519Y-161011791D03*
X318198519Y-161511791D03*
X318198519Y-162011791D03*
X318198519Y-162511791D03*
X318198519Y-163011791D03*
X318198519Y-163511791D03*
X318198519Y-164011791D03*
X318198519Y-164511791D03*
X318198519Y-165011791D03*
X318198519Y-165511791D03*
X318198519Y-166011791D03*
X318198519Y-166511791D03*
X318198519Y-167011791D03*
X318198519Y-167511791D03*
X318198519Y-168011791D03*
X318198519Y-168511791D03*
X318198519Y-169011791D03*
X318198519Y-169511791D03*
X318198519Y-170011791D03*
X318198519Y-170511791D03*
X318198519Y-171011791D03*
X318198519Y-171511791D03*
X318198519Y-172011791D03*
X318198519Y-172511791D03*
X318198519Y-173011791D03*
X318198519Y-173511791D03*
X318198519Y-174011791D03*
X318198519Y-174511791D03*
X318198519Y-175011791D03*
X318198519Y-175511791D03*
X318198519Y-176011791D03*
X318198519Y-176511791D03*
X318198519Y-177011791D03*
D30*
X320198519Y-179011791D03*
X320698519Y-179011791D03*
X321198519Y-179011791D03*
X321698519Y-179011791D03*
X322198519Y-179011791D03*
X322698519Y-179011791D03*
X323198519Y-179011791D03*
X323698519Y-179011791D03*
X324198519Y-179011791D03*
X324698519Y-179011791D03*
X325198519Y-179011791D03*
X325698519Y-179011791D03*
X326198519Y-179011791D03*
X326698519Y-179011791D03*
X327198519Y-179011791D03*
X327698519Y-179011791D03*
X328198519Y-179011791D03*
X328698519Y-179011791D03*
X329198519Y-179011791D03*
X329698519Y-179011791D03*
X330198519Y-179011791D03*
X330698519Y-179011791D03*
X331198519Y-179011791D03*
X331698519Y-179011791D03*
X332198519Y-179011791D03*
X332698519Y-179011791D03*
X333198519Y-179011791D03*
X333698519Y-179011791D03*
X334198519Y-179011791D03*
X334698519Y-179011791D03*
X335198519Y-179011791D03*
X335698519Y-179011791D03*
X336198519Y-179011791D03*
X336698519Y-179011791D03*
X337198519Y-179011791D03*
X337698519Y-179011791D03*
D29*
X339698519Y-177011791D03*
X339698519Y-176511791D03*
X339698519Y-176011791D03*
X339698519Y-175511791D03*
X339698519Y-175011791D03*
X339698519Y-174511791D03*
X339698519Y-174011791D03*
X339698519Y-173511791D03*
X339698519Y-173011791D03*
X339698519Y-172511791D03*
X339698519Y-172011791D03*
X339698519Y-171511791D03*
X339698519Y-171011791D03*
X339698519Y-170511791D03*
X339698519Y-170011791D03*
X339698519Y-169511791D03*
X339698519Y-169011791D03*
X339698519Y-168511791D03*
X339698519Y-168011791D03*
X339698519Y-167511791D03*
X339698519Y-167011791D03*
X339698519Y-166511791D03*
X339698519Y-166011791D03*
X339698519Y-165511791D03*
X339698519Y-165011791D03*
X339698519Y-164511791D03*
X339698519Y-164011791D03*
X339698519Y-163511791D03*
X339698519Y-163011791D03*
X339698519Y-162511791D03*
X339698519Y-162011791D03*
X339698519Y-161511791D03*
X339698519Y-161011791D03*
X339698519Y-160511791D03*
X339698519Y-160011791D03*
X339698519Y-159511791D03*
D30*
X337698519Y-157511791D03*
X337198519Y-157511791D03*
X336698519Y-157511791D03*
X336198519Y-157511791D03*
X335698519Y-157511791D03*
X335198519Y-157511791D03*
X334698519Y-157511791D03*
X334198519Y-157511791D03*
X333698519Y-157511791D03*
X333198519Y-157511791D03*
X332698519Y-157511791D03*
X332198519Y-157511791D03*
X331698519Y-157511791D03*
X331198519Y-157511791D03*
X330698519Y-157511791D03*
X330198519Y-157511791D03*
X329698519Y-157511791D03*
X329198519Y-157511791D03*
X328698519Y-157511791D03*
X328198519Y-157511791D03*
X327698519Y-157511791D03*
X327198519Y-157511791D03*
X326698519Y-157511791D03*
X326198519Y-157511791D03*
X325698519Y-157511791D03*
X325198519Y-157511791D03*
X324698519Y-157511791D03*
X324198519Y-157511791D03*
X323698519Y-157511791D03*
X323198519Y-157511791D03*
X322698519Y-157511791D03*
X322198519Y-157511791D03*
X321698519Y-157511791D03*
X321198519Y-157511791D03*
X320698519Y-157511791D03*
X320198519Y-157511791D03*
D10*
X247248106Y-135001468D03*
X248948106Y-135001468D03*
D16*
X370267411Y-99152863D03*
X372167411Y-99152863D03*
D15*
X344170000Y-124040000D03*
X344170000Y-122340000D03*
D16*
X256860000Y-171450000D03*
X258760000Y-171450000D03*
D22*
X328930000Y-99110800D03*
X327660000Y-99110800D03*
X326390000Y-99110800D03*
X325120000Y-99110800D03*
X323850000Y-99110800D03*
X322580000Y-99110800D03*
X321310000Y-99110800D03*
X320040000Y-99110800D03*
X318770000Y-99110800D03*
X317500000Y-99110800D03*
X316230000Y-99110800D03*
X314960000Y-99110800D03*
X314960000Y-109169200D03*
X316230000Y-109169200D03*
X317500000Y-109169200D03*
X318770000Y-109169200D03*
X320040000Y-109169200D03*
X321310000Y-109169200D03*
X322580000Y-109169200D03*
X323850000Y-109169200D03*
X325120000Y-109169200D03*
X326390000Y-109169200D03*
X327660000Y-109169200D03*
X328930000Y-109169200D03*
D10*
X343587114Y-156210000D03*
X341887114Y-156210000D03*
D21*
X380619000Y-102297000D03*
X381889000Y-102297000D03*
X383159000Y-102297000D03*
X384429000Y-102297000D03*
X385699000Y-102297000D03*
X386969000Y-102297000D03*
X388239000Y-102297000D03*
X389509000Y-102297000D03*
X389509000Y-97347000D03*
X388239000Y-97347000D03*
X386969000Y-97347000D03*
X385699000Y-97347000D03*
X384429000Y-97347000D03*
X383159000Y-97347000D03*
X381889000Y-97347000D03*
X380619000Y-97347000D03*
D22*
X290195000Y-99110800D03*
X288925000Y-99110800D03*
X287655000Y-99110800D03*
X286385000Y-99110800D03*
X285115000Y-99110800D03*
X283845000Y-99110800D03*
X282575000Y-99110800D03*
X281305000Y-99110800D03*
X280035000Y-99110800D03*
X278765000Y-99110800D03*
X278765000Y-109169200D03*
X280035000Y-109169200D03*
X281305000Y-109169200D03*
X282575000Y-109169200D03*
X283845000Y-109169200D03*
X285115000Y-109169200D03*
X286385000Y-109169200D03*
X287655000Y-109169200D03*
X288925000Y-109169200D03*
X290195000Y-109169200D03*
D31*
X21620877Y-83081015D03*
X21620877Y-87043415D03*
X21620877Y-91005815D03*
X21620877Y-94968215D03*
X21620877Y-98930615D03*
X21620877Y-102893015D03*
X21620877Y-106855415D03*
X21620877Y-110817815D03*
X21620877Y-114780215D03*
X21620877Y-118742615D03*
X21620877Y-122705015D03*
X21620877Y-126667415D03*
D15*
X320040000Y-198733012D03*
X320040000Y-200433012D03*
X261620000Y-164680000D03*
X261620000Y-162980000D03*
D17*
X67310000Y-201996000D03*
X67310000Y-203896000D03*
D10*
X208055000Y-80785000D03*
X206355000Y-80785000D03*
X315380000Y-154059211D03*
X317080000Y-154059211D03*
X279400000Y-198120000D03*
X277700000Y-198120000D03*
D15*
X312420000Y-103007445D03*
X312420000Y-104707445D03*
X367665000Y-68365000D03*
X367665000Y-70065000D03*
X347980000Y-162980000D03*
X347980000Y-164680000D03*
D10*
X229655000Y-94435729D03*
X231355000Y-94435729D03*
X344055000Y-161535000D03*
X342355000Y-161535000D03*
D22*
X270510000Y-140837539D03*
X271780000Y-140837539D03*
X273050000Y-140837539D03*
X274320000Y-140837539D03*
X275590000Y-140837539D03*
X276860000Y-140837539D03*
X278130000Y-140837539D03*
X279400000Y-140837539D03*
X279400000Y-134690739D03*
X278130000Y-134690739D03*
X276860000Y-134690739D03*
X275590000Y-134690739D03*
X274320000Y-134690739D03*
X273050000Y-134690739D03*
X271780000Y-134690739D03*
X270510000Y-134690739D03*
D15*
X241300000Y-152400000D03*
X241300000Y-150700000D03*
D32*
X305985860Y-191833223D03*
X305985860Y-190883223D03*
X305985860Y-189933223D03*
X303710860Y-189933223D03*
X303710860Y-191833223D03*
D10*
X315055000Y-167285000D03*
X313355000Y-167285000D03*
D16*
X110810000Y-89063175D03*
X112710000Y-89063175D03*
D15*
X276860000Y-149655000D03*
X276860000Y-147955000D03*
D20*
X259133000Y-75819000D03*
X256233000Y-75819000D03*
D13*
X353771000Y-139696146D03*
X353771000Y-142007146D03*
X353771000Y-144318146D03*
D14*
X359969000Y-142007146D03*
D15*
X254635000Y-156425000D03*
X254635000Y-154725000D03*
X377063000Y-128055000D03*
X377063000Y-129755000D03*
D10*
X342060000Y-180340000D03*
X340360000Y-180340000D03*
D24*
X83442950Y-48596750D03*
X79480550Y-48596750D03*
X75518150Y-48596750D03*
X71555750Y-48596750D03*
X67593350Y-48596750D03*
X63630950Y-48596750D03*
X59668550Y-48596750D03*
X55706150Y-48596750D03*
X51743750Y-48596750D03*
X47781350Y-48596750D03*
X43818950Y-48596750D03*
X39856550Y-48596750D03*
D10*
X314341674Y-182880000D03*
X312641674Y-182880000D03*
D15*
X247015000Y-93550000D03*
X247015000Y-95250000D03*
D22*
X347345000Y-99110800D03*
X346075000Y-99110800D03*
X344805000Y-99110800D03*
X343535000Y-99110800D03*
X342265000Y-99110800D03*
X340995000Y-99110800D03*
X339725000Y-99110800D03*
X338455000Y-99110800D03*
X337185000Y-99110800D03*
X335915000Y-99110800D03*
X335915000Y-109169200D03*
X337185000Y-109169200D03*
X338455000Y-109169200D03*
X339725000Y-109169200D03*
X340995000Y-109169200D03*
X342265000Y-109169200D03*
X343535000Y-109169200D03*
X344805000Y-109169200D03*
X346075000Y-109169200D03*
X347345000Y-109169200D03*
D15*
X154659735Y-180292688D03*
X154659735Y-181992688D03*
D10*
X221830000Y-81280000D03*
X220130000Y-81280000D03*
X357505000Y-125730000D03*
X355805000Y-125730000D03*
D17*
X354965000Y-162880000D03*
X354965000Y-164780000D03*
D15*
X289560000Y-191770000D03*
X289560000Y-190070000D03*
X378372000Y-98806000D03*
X378372000Y-100506000D03*
D10*
X342605000Y-171285000D03*
X344305000Y-171285000D03*
D15*
X293388692Y-102870000D03*
X293388692Y-104570000D03*
D22*
X250190000Y-99644200D03*
X251460000Y-99644200D03*
X252730000Y-99644200D03*
X254000000Y-99644200D03*
X255270000Y-99644200D03*
X256540000Y-99644200D03*
X257810000Y-99644200D03*
X259080000Y-99644200D03*
X260350000Y-99644200D03*
X261620000Y-99644200D03*
X261620000Y-89585800D03*
X260350000Y-89585800D03*
X259080000Y-89585800D03*
X257810000Y-89585800D03*
X256540000Y-89585800D03*
X255270000Y-89585800D03*
X254000000Y-89585800D03*
X252730000Y-89585800D03*
X251460000Y-89585800D03*
X250190000Y-89585800D03*
D15*
X316230000Y-132080000D03*
X316230000Y-130380000D03*
D16*
X220665000Y-95885000D03*
X222565000Y-95885000D03*
D10*
X343564439Y-153670000D03*
X341864439Y-153670000D03*
D15*
X321947000Y-182193000D03*
X321947000Y-183893000D03*
D10*
X344305000Y-168535000D03*
X342605000Y-168535000D03*
D23*
X342900000Y-192974000D03*
X341630000Y-192974000D03*
X340360000Y-192974000D03*
X339090000Y-192974000D03*
X337820000Y-192974000D03*
X336550000Y-192974000D03*
X335280000Y-192974000D03*
X334010000Y-192974000D03*
X332740000Y-192974000D03*
X331470000Y-192974000D03*
X330200000Y-192974000D03*
X328930000Y-192974000D03*
X327660000Y-192974000D03*
X326390000Y-192974000D03*
X325120000Y-192974000D03*
X323850000Y-192974000D03*
X323850000Y-205806000D03*
X325120000Y-205806000D03*
X326390000Y-205806000D03*
X327660000Y-205806000D03*
X328930000Y-205806000D03*
X330200000Y-205806000D03*
X331470000Y-205806000D03*
X332740000Y-205806000D03*
X334010000Y-205806000D03*
X335280000Y-205806000D03*
X336550000Y-205806000D03*
X337820000Y-205806000D03*
X339090000Y-205806000D03*
X340360000Y-205806000D03*
X341630000Y-205806000D03*
X342900000Y-205806000D03*
D10*
X217385000Y-67945000D03*
X215685000Y-67945000D03*
D15*
X332467000Y-154123000D03*
X332467000Y-152423000D03*
D10*
X315810000Y-160655000D03*
X314110000Y-160655000D03*
X316814612Y-156771714D03*
X315114612Y-156771714D03*
D15*
X290110704Y-132080000D03*
X290110704Y-130380000D03*
D19*
X214630000Y-62410000D03*
X214630000Y-59510000D03*
D10*
X255358166Y-135222015D03*
X257058166Y-135222015D03*
D15*
X274121198Y-149655000D03*
X274121198Y-147955000D03*
X328041000Y-152423000D03*
X328041000Y-154123000D03*
D33*
X258810000Y-161716900D03*
X258310000Y-161716900D03*
X257810000Y-161716900D03*
X257310000Y-161716900D03*
X256810000Y-161716900D03*
X256810000Y-165943100D03*
X257310000Y-165943100D03*
X257810000Y-165943100D03*
X258310000Y-165943100D03*
X258810000Y-165943100D03*
D22*
X309245000Y-99110800D03*
X307975000Y-99110800D03*
X306705000Y-99110800D03*
X305435000Y-99110800D03*
X304165000Y-99110800D03*
X302895000Y-99110800D03*
X301625000Y-99110800D03*
X300355000Y-99110800D03*
X299085000Y-99110800D03*
X297815000Y-99110800D03*
X297815000Y-109169200D03*
X299085000Y-109169200D03*
X300355000Y-109169200D03*
X301625000Y-109169200D03*
X302895000Y-109169200D03*
X304165000Y-109169200D03*
X305435000Y-109169200D03*
X306705000Y-109169200D03*
X307975000Y-109169200D03*
X309245000Y-109169200D03*
D34*
X385080000Y-54295000D03*
X385080000Y-56195000D03*
X387080000Y-55245000D03*
D10*
X354557322Y-134620000D03*
X356257322Y-134620000D03*
D22*
X341630000Y-120116600D03*
X340360000Y-120116600D03*
X339090000Y-120116600D03*
X337820000Y-120116600D03*
X336550000Y-120116600D03*
X335280000Y-120116600D03*
X334010000Y-120116600D03*
X334010000Y-126263400D03*
X335280000Y-126263400D03*
X336550000Y-126263400D03*
X337820000Y-126263400D03*
X339090000Y-126263400D03*
X340360000Y-126263400D03*
X341630000Y-126263400D03*
D15*
X326009000Y-154139000D03*
X326009000Y-152439000D03*
X333629000Y-183857000D03*
X333629000Y-182157000D03*
M02*
