G04 #@! TF.GenerationSoftware,KiCad,Pcbnew,8.0.3*
G04 #@! TF.CreationDate,2024-06-16T18:13:09+02:00*
G04 #@! TF.ProjectId,cbm_ultipet_v1,63626d5f-756c-4746-9970-65745f76312e,rev?*
G04 #@! TF.SameCoordinates,Original*
G04 #@! TF.FileFunction,Profile,NP*
%FSLAX46Y46*%
G04 Gerber Fmt 4.6, Leading zero omitted, Abs format (unit mm)*
G04 Created by KiCad (PCBNEW 8.0.3) date 2024-06-16 18:13:09*
%MOMM*%
%LPD*%
G01*
G04 APERTURE LIST*
G04 #@! TA.AperFunction,Profile*
%ADD10C,0.100000*%
G04 #@! TD*
G04 #@! TA.AperFunction,Profile*
%ADD11C,0.050000*%
G04 #@! TD*
G04 #@! TA.AperFunction,Profile*
%ADD12C,0.127000*%
G04 #@! TD*
G04 APERTURE END LIST*
D10*
X368617500Y-41910000D02*
X405765000Y-41910000D01*
X297815000Y-41910000D02*
X297815000Y-60960000D01*
X160337500Y-53657500D02*
X160337500Y-41910000D01*
D11*
X26670000Y-130238310D02*
X26670000Y-141605000D01*
D10*
X405765000Y-221675689D02*
X15875000Y-221675689D01*
D11*
X15875000Y-141605000D02*
X15875000Y-221615000D01*
D10*
X160337500Y-41910000D02*
X297815000Y-41910000D01*
X365125000Y-60960000D02*
X368617500Y-60960000D01*
X405765000Y-41910000D02*
X405765000Y-221615000D01*
D11*
X15847482Y-53657500D02*
X15847482Y-67945000D01*
D10*
X87050000Y-53657500D02*
X121480000Y-53657500D01*
D11*
X26670000Y-141605000D02*
X15875000Y-141605000D01*
D10*
X301307500Y-60960000D02*
X301307500Y-49847500D01*
X148394000Y-53657500D02*
X160337500Y-53657500D01*
X362915200Y-49845000D02*
X365125000Y-49845000D01*
D11*
X26670000Y-79502000D02*
X26670000Y-67945000D01*
X26670000Y-67945000D02*
X15852890Y-67945000D01*
D10*
X365125000Y-49847500D02*
X365125000Y-60960000D01*
X301307500Y-49847500D02*
X303530000Y-49847500D01*
X368617500Y-60932004D02*
X368617500Y-41910000D01*
X297815000Y-60960000D02*
X301307500Y-60960000D01*
X15875000Y-53657500D02*
X36249500Y-53657500D01*
D11*
X291039828Y-61001408D02*
X288939828Y-61001408D01*
X288939828Y-63001408D01*
X291039828Y-63001408D01*
X291039828Y-61001408D01*
X291089828Y-50001408D02*
X288989828Y-50001408D01*
X288989828Y-52001408D01*
X291089828Y-52001408D01*
X291089828Y-50001408D01*
D12*
X121473565Y-44153750D02*
X121473565Y-53678750D01*
X138262965Y-42883750D02*
X122743565Y-42883750D01*
X138262965Y-42883750D02*
X138262965Y-52408750D01*
X139532965Y-42883750D02*
X139532965Y-52408750D01*
X147127565Y-42883750D02*
X139532965Y-42883750D01*
X148397565Y-53678750D02*
X148397565Y-44153750D01*
X121473565Y-44153750D02*
G75*
G02*
X122743565Y-42883750I1270000J0D01*
G01*
X138897965Y-53043750D02*
G75*
G02*
X138262965Y-52408750I-1J634999D01*
G01*
X139532965Y-52408750D02*
G75*
G02*
X138897965Y-53043750I-634999J-1D01*
G01*
X147127565Y-42883750D02*
G75*
G02*
X148397565Y-44153750I1J-1269999D01*
G01*
D11*
X362915200Y-49822100D02*
X303530000Y-49822100D01*
D12*
X15905877Y-80744215D02*
X15905877Y-84427215D01*
X15905877Y-84427215D02*
X25430877Y-84427215D01*
X15905877Y-85697215D02*
X15905877Y-120088815D01*
X15905877Y-85697215D02*
X25430877Y-85697215D01*
X15905877Y-120088815D02*
X25430877Y-120088815D01*
X15905877Y-121358815D02*
X15905877Y-129004215D01*
X15905877Y-121358815D02*
X25430877Y-121358815D01*
X17175877Y-130274215D02*
X26700877Y-130274215D01*
X26700877Y-79474215D02*
X17175877Y-79474215D01*
X15905877Y-80744215D02*
G75*
G02*
X17175877Y-79474215I1269999J1D01*
G01*
X17175877Y-130274215D02*
G75*
G02*
X15905877Y-129004215I0J1270000D01*
G01*
X25430877Y-84427215D02*
G75*
G02*
X26065877Y-85062215I1J-634999D01*
G01*
X25430877Y-120088815D02*
G75*
G02*
X26065877Y-120723815I0J-635000D01*
G01*
X26065877Y-85062215D02*
G75*
G02*
X25430877Y-85697215I-634999J-1D01*
G01*
X26065877Y-120723815D02*
G75*
G02*
X25430877Y-121358815I-635000J0D01*
G01*
X36249750Y-44151750D02*
X36249750Y-53676750D01*
X49127550Y-42881750D02*
X37519750Y-42881750D01*
X49127550Y-42881750D02*
X49127550Y-52406750D01*
X50397550Y-42881750D02*
X50397550Y-52406750D01*
X76864350Y-42881750D02*
X50397550Y-42881750D01*
X76864350Y-42881750D02*
X76864350Y-52406750D01*
X78134350Y-42881750D02*
X78134350Y-52406750D01*
X85779750Y-42881750D02*
X78134350Y-42881750D01*
X87049750Y-53676750D02*
X87049750Y-44151750D01*
X36249750Y-44151750D02*
G75*
G02*
X37519750Y-42881750I1270000J0D01*
G01*
X49762550Y-53041750D02*
G75*
G02*
X49127550Y-52406750I0J635000D01*
G01*
X50397550Y-52406750D02*
G75*
G02*
X49762550Y-53041750I-635000J0D01*
G01*
X77499350Y-53041750D02*
G75*
G02*
X76864350Y-52406750I-1J634999D01*
G01*
X78134350Y-52406750D02*
G75*
G02*
X77499350Y-53041750I-634999J-1D01*
G01*
X85779750Y-42881750D02*
G75*
G02*
X87049750Y-44151750I1J-1269999D01*
G01*
M02*
