M48
; DRILL file {KiCad 8.0.3} date 2024-06-16T18:13:15+0200
; FORMAT={-:-/ absolute / metric / decimal}
; #@! TF.CreationDate,2024-06-16T18:13:15+02:00
; #@! TF.GenerationSoftware,Kicad,Pcbnew,8.0.3
; #@! TF.FileFunction,Plated,1,4,PTH
FMAT,2
METRIC
; #@! TA.AperFunction,Plated,PTH,ViaDrill
T1C0.300
; #@! TA.AperFunction,Plated,PTH,ViaDrill
T2C0.500
; #@! TA.AperFunction,Plated,PTH,ComponentDrill
T3C0.800
; #@! TA.AperFunction,Plated,PTH,ComponentDrill
T4C0.813
; #@! TA.AperFunction,Plated,PTH,ComponentDrill
T5C0.900
; #@! TA.AperFunction,Plated,PTH,ComponentDrill
T6C0.914
; #@! TA.AperFunction,Plated,PTH,ComponentDrill
T7C1.000
; #@! TA.AperFunction,Plated,PTH,ComponentDrill
T8C1.016
; #@! TA.AperFunction,Plated,PTH,ComponentDrill
T9C1.118
; #@! TA.AperFunction,Plated,PTH,ComponentDrill
T10C1.194
; #@! TA.AperFunction,Plated,PTH,ComponentDrill
T11C1.321
; #@! TA.AperFunction,Plated,PTH,ComponentDrill
T12C1.397
; #@! TA.AperFunction,Plated,PTH,ComponentDrill
T13C1.499
; #@! TA.AperFunction,Plated,PTH,ComponentDrill
T14C2.311
; #@! TA.AperFunction,Plated,PTH,ViaDrill
T15C2.500
; #@! TA.AperFunction,Plated,PTH,ViaDrill
T16C2.600
; #@! TA.AperFunction,Plated,PTH,ComponentDrill
T17C3.302
; #@! TA.AperFunction,Plated,PTH,ComponentDrill
T18C4.000
%
G90
G05
T1
X27.94Y-83.185
X27.94Y-85.725
X30.48Y-83.185
X32.479Y-144.239
X35.56Y-170.18
X36.195Y-156.21
X36.83Y-169.545
X37.465Y-74.295
X37.465Y-90.17
X37.465Y-159.385
X40.64Y-121.92
X41.275Y-96.52
X41.275Y-101.6
X41.91Y-98.425
X42.545Y-64.135
X42.545Y-110.49
X42.545Y-128.27
X43.18Y-120.015
X43.808Y-172.078
X43.815Y-90.17
X43.815Y-101.6
X44.45Y-104.14
X44.45Y-123.19
X45.085Y-63.5
X45.085Y-88.9
X46.355Y-79.375
X46.355Y-88.265
X47.625Y-64.77
X47.942Y-186.69
X47.942Y-189.23
X48.895Y-203.2
X49.53Y-134.62
X49.53Y-181.61
X49.53Y-193.04
X49.847Y-205.105
X50.165Y-88.9
X50.165Y-159.385
X50.165Y-184.15
X50.165Y-190.5
X50.8Y-187.642
X50.8Y-204.153
X50.8Y-206.058
X51.066Y-192.898
X51.117Y-207.645
X51.435Y-88.265
X51.435Y-201.295
X51.752Y-190.5
X52.07Y-64.135
X52.07Y-92.075
X52.07Y-137.16
X52.705Y-95.885
X52.705Y-139.7
X53.34Y-96.52
X53.34Y-142.24
X53.902Y-99.133
X53.975Y-78.105
X53.975Y-143.51
X54.61Y-64.77
X54.61Y-146.05
X54.683Y-100.892
X55.245Y-103.505
X55.245Y-147.32
X55.245Y-195.897
X55.88Y-106.68
X55.88Y-194.31
X55.914Y-206.976
X56.409Y-195.152
X56.515Y-64.77
X56.515Y-79.375
X56.515Y-86.995
X56.515Y-147.955
X56.515Y-206.375
X56.997Y-195.766
X57.15Y-119.38
X57.15Y-142.875
X57.15Y-204.267
X57.363Y-197.08
X57.785Y-86.995
X57.785Y-95.25
X57.785Y-113.03
X58.42Y-107.95
X58.42Y-149.86
X58.42Y-180.34
X58.503Y-79.375
X59.055Y-73.025
X59.055Y-102.87
X59.055Y-125.73
X59.055Y-144.78
X59.372Y-207.01
X59.69Y-105.41
X59.69Y-121.92
X59.69Y-196.215
X59.69Y-211.772
X60.2Y-195.517
X60.262Y-170.372
X60.325Y-73.66
X60.398Y-87.703
X60.642Y-171.132
X60.96Y-195.897
X61.277Y-171.767
X61.595Y-73.66
X61.595Y-147.955
X62.23Y-64.77
X63.5Y-209.867
X63.572Y-195.807
X63.817Y-176.53
X64.453Y-196.532
X64.453Y-206.692
X64.453Y-210.502
X64.77Y-62.865
X64.77Y-178.435
X64.872Y-195.897
X65.722Y-195.897
X66.04Y-72.39
X66.04Y-79.375
X66.04Y-179.07
X66.04Y-181.61
X66.675Y-184.15
X66.675Y-195.897
X66.675Y-204.47
X67.31Y-68.58
X67.945Y-194.31
X67.945Y-207.01
X68.58Y-64.77
X69.215Y-194.945
X69.215Y-207.01
X70.802Y-198.12
X71.12Y-64.135
X71.12Y-69.215
X71.12Y-71.755
X72.707Y-201.93
X72.707Y-210.502
X73.025Y-158.75
X73.66Y-156.21
X74.295Y-132.08
X74.295Y-162.56
X74.295Y-185.42
X74.93Y-105.41
X74.93Y-107.95
X74.93Y-110.49
X76.835Y-90.17
X77.47Y-58.42
X79.375Y-90.17
X79.375Y-166.737
X79.375Y-179.07
X80.01Y-59.69
X80.645Y-110.49
X80.645Y-137.16
X81.28Y-88.265
X81.28Y-91.372
X81.915Y-149.86
X82.233Y-175.577
X82.487Y-214.293
X82.55Y-62.865
X82.55Y-95.25
X82.55Y-193.04
X83.01Y-213.692
X83.502Y-214.63
X83.82Y-93.98
X84.138Y-212.09
X84.455Y-163.83
X85.09Y-63.5
X85.09Y-80.645
X85.09Y-110.49
X85.725Y-165.735
X86.36Y-86.36
X86.36Y-170.815
X86.995Y-142.875
X87.63Y-60.96
X87.63Y-95.885
X87.63Y-97.79
X88.265Y-172.72
X88.265Y-189.23
X88.9Y-78.74
X88.9Y-100.33
X88.9Y-170.815
X88.9Y-203.835
X89.852Y-204.787
X90.17Y-64.135
X90.17Y-79.01
X90.17Y-143.51
X90.17Y-179.07
X90.487Y-204.153
X90.805Y-166.37
X90.805Y-190.5
X91.44Y-81.28
X91.44Y-171.45
X91.96Y-196.735
X93.761Y-198.552
X93.98Y-79.375
X93.98Y-81.01
X94.615Y-95.25
X94.615Y-189.865
X95.25Y-68.58
X95.25Y-102.87
X95.885Y-93.345
X95.885Y-147.955
X95.885Y-196.735
X96.09Y-212.148
X96.52Y-113.03
X96.52Y-189.23
X97.155Y-128.27
X97.155Y-189.865
X97.773Y-79.385
X97.79Y-97.79
X97.79Y-106.68
X97.79Y-118.11
X97.79Y-190.5
X98.425Y-115.57
X99.06Y-135.89
X99.06Y-143.51
X99.06Y-190.5
X99.56Y-188.11
X100.33Y-78.74
X100.33Y-97.79
X100.33Y-191.135
X101.22Y-206.39
X101.6Y-97.79
X102.235Y-78.105
X102.235Y-93.98
X102.87Y-91.44
X103.505Y-115.57
X104.14Y-180.975
X104.775Y-118.11
X104.775Y-178.435
X105.41Y-86.36
X105.41Y-92.71
X105.41Y-165.1
X105.41Y-212.09
X106.045Y-169.545
X106.68Y-86.995
X106.68Y-191.77
X106.885Y-210.878
X107.055Y-216.762
X107.315Y-203.2
X107.632Y-189.23
X107.632Y-191.77
X108.585Y-67.31
X108.902Y-189.865
X108.902Y-191.77
X109.22Y-204.47
X109.855Y-60.96
X109.855Y-142.875
X110.49Y-113.03
X111.125Y-83.82
X111.125Y-151.13
X111.76Y-121.92
X112.21Y-149.892
X112.395Y-80.645
X112.395Y-146.685
X113.03Y-144.78
X113.235Y-208.973
X113.665Y-175.895
X113.665Y-183.515
X114.935Y-73.025
X116.205Y-72.39
X116.205Y-91.44
X116.84Y-172.72
X117.475Y-62.865
X117.475Y-124.46
X118.11Y-57.15
X118.11Y-90.805
X118.11Y-95.885
X118.11Y-172.085
X118.11Y-185.42
X118.745Y-66.675
X118.745Y-84.455
X118.745Y-86.36
X118.745Y-90.17
X118.745Y-97.79
X118.745Y-151.765
X118.745Y-152.718
X119.38Y-85.09
X120.015Y-74.93
X120.015Y-115.57
X120.015Y-135.89
X120.22Y-197.543
X120.332Y-60.96
X120.65Y-86.36
X120.65Y-118.11
X120.855Y-192.463
X121.285Y-120.65
X121.92Y-123.19
X122.125Y-210.243
X122.555Y-81.915
X122.555Y-110.49
X122.555Y-190.5
X123.19Y-81.28
X123.19Y-125.73
X123.825Y-71.755
X123.825Y-77.47
X123.825Y-80.645
X123.825Y-127.635
X123.825Y-176.53
X124.03Y-210.243
X124.03Y-214.688
X124.46Y-110.49
X124.46Y-173.99
X125.095Y-71.12
X125.095Y-129.54
X125.3Y-196.273
X125.412Y-54.61
X125.73Y-132.08
X126.365Y-72.39
X126.365Y-105.41
X127.635Y-73.66
X127.635Y-83.82
X127.635Y-102.87
X127.635Y-151.765
X127.635Y-171.45
X127.635Y-191.062
X128.27Y-107.315
X128.905Y-54.61
X128.905Y-80.01
X129.222Y-214.63
X129.54Y-74.295
X130.175Y-167.64
X130.81Y-170.18
X130.81Y-172.72
X130.81Y-182.88
X131.445Y-145.415
X132.08Y-168.275
X132.715Y-80.01
X132.715Y-86.36
X132.715Y-170.815
X132.757Y-189.865
X133.275Y-54.685
X133.35Y-128.27
X134.62Y-118.745
X134.62Y-127.0
X135.46Y-210.243
X135.817Y-80.083
X135.89Y-135.89
X135.89Y-146.685
X137.16Y-117.475
X138.0Y-205.163
X138.43Y-86.36
X138.43Y-147.955
X138.43Y-185.42
X139.065Y-165.1
X139.7Y-162.56
X139.926Y-91.005
X140.97Y-72.39
X140.97Y-156.21
X140.97Y-163.83
X141.152Y-60.143
X141.605Y-166.37
X141.72Y-106.045
X142.24Y-174.308
X142.24Y-176.847
X142.24Y-186.487
X142.41Y-187.556
X142.821Y-157.426
X142.875Y-87.63
X143.207Y-181.292
X143.207Y-183.005
X143.51Y-86.36
X143.51Y-150.495
X143.51Y-198.755
X143.524Y-184.91
X143.827Y-180.657
X144.145Y-198.12
X144.287Y-197.343
X144.35Y-210.878
X144.78Y-191.77
X144.888Y-196.742
X146.05Y-133.985
X146.05Y-150.495
X146.89Y-213.418
X147.085Y-183.581
X147.633Y-185.14
X147.817Y-184.012
X148.063Y-173.263
X148.272Y-170.18
X148.907Y-168.91
X149.177Y-183.515
X149.225Y-144.78
X149.225Y-175.26
X150.227Y-170.337
X150.495Y-158.75
X151.765Y-145.415
X151.765Y-152.4
X151.851Y-107.315
X152.4Y-68.58
X153.103Y-86.364
X153.352Y-181.927
X153.352Y-192.323
X153.67Y-81.915
X153.67Y-147.32
X153.67Y-154.305
X153.733Y-181.167
X154.002Y-191.452
X154.012Y-115.57
X154.305Y-139.7
X154.305Y-142.24
X154.305Y-163.512
X154.623Y-178.752
X154.623Y-183.197
X154.94Y-107.95
X154.94Y-110.49
X154.94Y-113.665
X154.998Y-157.569
X155.46Y-162.56
X155.575Y-105.41
X155.892Y-65.405
X156.21Y-74.295
X156.225Y-153.551
X156.845Y-165.1
X156.845Y-80.01
X156.845Y-152.082
X157.177Y-167.64
X157.48Y-135.89
X157.48Y-144.145
X157.48Y-196.215
X157.699Y-107.315
X157.797Y-184.15
X158.433Y-195.678
X158.75Y-97.79
X158.75Y-99.695
X158.75Y-105.41
X158.75Y-121.92
X158.75Y-134.62
X160.02Y-78.105
X160.02Y-97.155
X160.655Y-99.695
X160.655Y-178.435
X160.67Y-140.428
X161.29Y-95.25
X161.29Y-205.105
X162.56Y-88.265
X162.56Y-168.91
X163.195Y-166.37
X163.195Y-186.055
X163.83Y-179.387
X164.48Y-164.389
X164.782Y-178.435
X165.1Y-79.375
X165.622Y-123.246
X165.735Y-139.7
X165.735Y-146.05
X165.927Y-186.357
X166.35Y-157.48
X166.672Y-128.27
X167.005Y-87.63
X167.005Y-98.425
X167.005Y-105.41
X167.005Y-109.855
X167.005Y-118.11
X167.005Y-136.525
X167.308Y-122.112
X167.322Y-126.047
X168.133Y-124.953
X168.275Y-95.567
X168.275Y-102.87
X168.275Y-109.855
X168.275Y-147.32
X168.543Y-148.044
X168.91Y-120.015
X169.545Y-97.79
X169.545Y-100.965
X169.545Y-109.855
X169.545Y-121.92
X170.18Y-144.78
X170.295Y-170.18
X170.815Y-109.855
X170.815Y-152.4
X171.38Y-194.511
X172.085Y-144.145
X172.085Y-146.05
X172.085Y-195.262
X172.085Y-201.93
X172.085Y-207.01
X172.085Y-210.185
X172.72Y-202.565
X172.72Y-215.168
X173.01Y-212.215
X173.355Y-60.96
X173.99Y-149.225
X174.625Y-121.92
X174.625Y-124.46
X174.625Y-127.0
X174.625Y-132.08
X174.625Y-145.415
X174.82Y-88.915
X175.26Y-100.33
X175.26Y-127.635
X175.26Y-142.875
X175.26Y-160.02
X175.895Y-88.265
X175.895Y-116.84
X175.895Y-129.54
X175.895Y-144.145
X176.03Y-105.56
X176.53Y-97.79
X176.53Y-119.38
X176.53Y-130.175
X177.165Y-107.95
X177.165Y-120.015
X177.233Y-137.16
X177.8Y-91.44
X177.8Y-156.845
X178.362Y-120.088
X178.435Y-86.36
X178.435Y-92.71
X178.752Y-144.145
X178.997Y-120.723
X180.657Y-86.36
X180.975Y-80.01
X180.975Y-186.69
X181.588Y-93.651
X181.61Y-132.08
X181.61Y-151.13
X181.61Y-187.642
X181.61Y-121.92
X181.885Y-122.798
X182.245Y-88.9
X182.245Y-102.87
X182.547Y-127.153
X182.562Y-107.95
X182.88Y-79.375
X182.88Y-144.145
X183.197Y-97.79
X183.432Y-110.044
X183.515Y-86.995
X183.588Y-99.768
X184.15Y-100.33
X184.15Y-130.81
X184.15Y-146.685
X184.77Y-128.39
X184.785Y-105.41
X184.785Y-129.54
X184.785Y-142.24
X184.785Y-203.835
X184.785Y-205.105
X184.785Y-207.01
X184.785Y-209.55
X185.42Y-203.315
X185.42Y-205.74
X185.42Y-212.725
X185.42Y-215.9
X186.055Y-73.025
X186.055Y-79.375
X186.055Y-88.265
X186.055Y-163.195
X187.325Y-116.205
X187.96Y-70.485
X188.595Y-145.415
X188.873Y-199.39
X189.23Y-125.73
X189.23Y-152.4
X189.23Y-201.93
X189.582Y-110.49
X189.865Y-80.01
X189.865Y-91.44
X189.865Y-93.98
X190.432Y-102.87
X190.5Y-95.25
X190.5Y-186.69
X191.135Y-88.265
X191.77Y-99.695
X191.77Y-186.055
X191.77Y-191.673
X192.332Y-121.212
X192.405Y-79.375
X192.405Y-137.16
X192.405Y-146.685
X192.722Y-93.345
X193.04Y-91.44
X193.04Y-163.195
X193.04Y-171.45
X193.04Y-184.785
X193.04Y-192.405
X194.31Y-169.545
X194.31Y-183.515
X194.31Y-193.04
X194.945Y-73.66
X194.945Y-152.063
X195.438Y-203.693
X195.56Y-141.996
X195.58Y-98.425
X195.897Y-102.235
X196.215Y-78.74
X196.215Y-87.63
X196.547Y-110.49
X196.85Y-170.18
X197.485Y-97.79
X197.485Y-145.415
X197.553Y-102.87
X198.12Y-67.945
X198.12Y-121.217
X198.12Y-123.19
X198.438Y-100.012
X198.755Y-109.855
X198.755Y-127.0
X199.39Y-135.89
X200.025Y-147.701
X201.295Y-203.835
X203.2Y-77.47
X203.2Y-85.725
X203.504Y-89.839
X203.835Y-74.295
X204.47Y-86.677
X204.47Y-129.54
X204.787Y-119.697
X205.105Y-72.072
X205.105Y-100.33
X205.74Y-78.74
X205.74Y-107.315
X205.74Y-123.825
X205.74Y-132.08
X206.058Y-88.265
X207.01Y-77.47
X207.01Y-85.09
X207.562Y-71.522
X207.645Y-76.835
X207.645Y-84.455
X207.645Y-100.965
X207.645Y-158.75
X207.676Y-160.686
X208.28Y-204.47
X208.915Y-78.422
X209.55Y-82.55
X210.185Y-207.659
X211.455Y-171.132
X211.507Y-84.455
X211.709Y-147.447
X211.772Y-167.957
X212.009Y-185.339
X212.09Y-80.01
X212.359Y-139.86
X213.271Y-168.543
X213.995Y-105.41
X213.995Y-132.08
X214.63Y-77.47
X214.63Y-93.98
X214.63Y-117.475
X214.63Y-123.19
X214.63Y-124.46
X214.63Y-129.54
X214.699Y-85.74
X215.265Y-80.01
X215.265Y-145.415
X215.265Y-147.955
X215.567Y-144.477
X215.9Y-78.105
X215.9Y-78.958
X215.9Y-162.56
X216.218Y-168.275
X216.535Y-90.17
X216.535Y-130.81
X217.17Y-97.155
X217.805Y-83.185
X217.805Y-100.33
X217.805Y-130.175
X217.805Y-142.875
X218.44Y-58.42
X218.44Y-85.09
X219.075Y-84.455
X219.71Y-85.725
X219.71Y-132.715
X220.345Y-84.455
X220.345Y-132.08
X220.345Y-157.48
X220.907Y-100.257
X220.98Y-93.98
X221.267Y-86.36
X221.615Y-127.635
X222.25Y-73.025
X222.25Y-122.823
X222.567Y-71.12
X222.567Y-119.697
X222.567Y-151.13
X222.885Y-109.537
X223.52Y-151.765
X223.837Y-74.295
X223.837Y-79.692
X225.251Y-102.235
X225.901Y-103.029
X227.948Y-100.965
X228.6Y-111.125
X228.6Y-145.415
X228.6Y-151.765
X229.235Y-111.76
X229.235Y-129.54
X229.235Y-130.81
X229.235Y-147.32
X229.87Y-80.01
X229.87Y-112.265
X229.87Y-127.635
X229.87Y-146.05
X230.505Y-74.93
X230.505Y-84.455
X230.505Y-133.35
X231.14Y-88.265
X231.14Y-112.395
X231.14Y-126.365
X231.14Y-137.795
X231.14Y-157.48
X231.775Y-111.76
X232.41Y-111.125
X232.41Y-120.015
X232.41Y-132.715
X232.41Y-143.51
X233.045Y-110.49
X233.045Y-120.65
X233.045Y-131.328
X233.045Y-132.08
X233.045Y-148.59
X233.68Y-109.855
X233.68Y-147.32
X234.224Y-135.421
X234.315Y-109.22
X234.315Y-146.05
X234.95Y-78.74
X234.95Y-108.585
X234.95Y-131.127
X235.331Y-65.647
X235.585Y-107.95
X235.585Y-125.095
X236.008Y-65.132
X236.22Y-107.315
X236.22Y-157.48
X236.734Y-70.607
X236.734Y-77.833
X236.855Y-106.68
X237.49Y-63.5
X237.49Y-106.045
X238.125Y-105.41
X238.76Y-114.935
X239.077Y-164.465
X239.077Y-188.595
X239.395Y-66.04
X239.395Y-115.57
X239.957Y-88.827
X240.03Y-100.965
X240.03Y-119.38
X241.3Y-100.965
X241.3Y-119.38
X241.3Y-147.32
X241.935Y-65.536
X241.935Y-123.19
X242.048Y-101.042
X242.837Y-101.035
X243.205Y-118.11
X243.84Y-100.965
X243.84Y-120.65
X243.84Y-164.465
X244.475Y-65.132
X244.475Y-101.6
X244.475Y-118.745
X245.11Y-148.021
X246.38Y-88.265
X246.38Y-147.118
X246.38Y-153.035
X247.015Y-189.547
X247.65Y-151.765
X247.65Y-158.75
X247.65Y-186.69
X248.27Y-184.785
X248.285Y-167.64
X248.92Y-80.01
X248.92Y-137.795
X248.92Y-148.021
X249.555Y-158.75
X249.628Y-175.822
X250.19Y-73.66
X250.19Y-167.005
X250.19Y-177.165
X250.825Y-168.275
X251.46Y-102.235
X251.46Y-137.16
X251.46Y-167.64
X251.46Y-186.69
X251.812Y-184.785
X252.095Y-102.87
X252.095Y-144.145
X252.725Y-103.51
X252.73Y-66.04
X252.73Y-70.485
X252.73Y-102.235
X252.73Y-178.435
X252.803Y-187.252
X253.365Y-78.105
X253.996Y-65.539
X254.0Y-102.235
X254.0Y-160.655
X254.0Y-161.925
X254.0Y-180.34
X254.567Y-169.545
X254.635Y-147.252
X255.27Y-73.66
X255.27Y-81.28
X255.27Y-102.235
X255.27Y-190.5
X255.905Y-80.01
X255.905Y-83.82
X256.54Y-146.05
X256.54Y-160.02
X256.54Y-167.005
X257.175Y-158.75
X257.175Y-163.195
X257.175Y-168.275
X257.175Y-208.28
X257.507Y-204.47
X257.81Y-87.63
X257.862Y-167.64
X258.445Y-97.155
X259.08Y-86.995
X259.08Y-169.545
X259.715Y-164.465
X260.326Y-102.792
X260.694Y-152.223
X260.985Y-172.72
X260.985Y-199.39
X262.015Y-143.75
X262.255Y-167.005
X262.89Y-71.12
X262.89Y-137.16
X262.89Y-160.02
X262.89Y-172.72
X264.014Y-150.497
X264.16Y-137.795
X265.395Y-163.195
X265.43Y-132.08
X265.43Y-144.145
X265.43Y-187.325
X265.948Y-144.78
X266.7Y-144.78
X266.7Y-181.61
X267.245Y-98.493
X267.335Y-172.085
X267.335Y-172.72
X267.335Y-200.025
X267.954Y-80.255
X267.97Y-135.255
X267.97Y-165.735
X267.97Y-174.625
X268.605Y-130.175
X268.605Y-135.89
X268.605Y-139.7
X268.605Y-160.655
X268.605Y-175.26
X268.605Y-176.53
X269.061Y-155.964
X269.24Y-168.275
X269.347Y-201.798
X269.875Y-175.895
X269.875Y-186.69
X269.948Y-208.842
X270.026Y-152.223
X270.51Y-144.78
X270.51Y-164.465
X270.51Y-173.99
X270.96Y-162.147
X271.145Y-90.805
X271.145Y-148.59
X271.145Y-187.325
X271.145Y-205.105
X271.184Y-93.457
X271.78Y-131.127
X271.78Y-146.685
X273.05Y-137.092
X273.05Y-146.05
X273.826Y-176.725
X274.32Y-128.27
X274.32Y-142.875
X275.59Y-138.498
X275.59Y-142.875
X276.225Y-199.39
X276.86Y-127.635
X276.86Y-137.795
X277.495Y-79.375
X278.13Y-144.78
X278.13Y-150.495
X278.13Y-189.865
X278.13Y-191.452
X278.152Y-143.977
X278.433Y-176.085
X278.765Y-118.745
X279.397Y-184.167
X279.4Y-70.485
X279.4Y-142.875
X279.4Y-189.865
X280.035Y-123.19
X280.67Y-144.145
X280.67Y-189.865
X280.67Y-191.135
X281.305Y-121.92
X281.305Y-132.08
X281.94Y-144.78
X281.94Y-179.07
X282.575Y-68.897
X282.575Y-122.555
X282.892Y-54.927
X283.21Y-149.225
X283.21Y-180.34
X283.21Y-190.5
X283.21Y-198.755
X283.527Y-51.752
X283.845Y-135.255
X284.48Y-78.105
X284.48Y-152.4
X284.48Y-189.865
X284.597Y-183.517
X285.115Y-121.285
X285.75Y-85.725
X285.75Y-179.07
X285.75Y-191.135
X286.385Y-120.65
X287.02Y-151.765
X287.02Y-182.88
X287.02Y-199.39
X287.655Y-120.015
X288.29Y-123.825
X288.29Y-130.175
X288.29Y-132.08
X288.29Y-153.035
X288.29Y-189.865
X288.925Y-118.11
X288.925Y-147.32
X288.998Y-89.608
X289.347Y-92.288
X289.56Y-90.17
X289.56Y-124.46
X289.56Y-180.975
X290.195Y-125.095
X290.195Y-127.635
X290.195Y-200.025
X290.265Y-92.64
X290.83Y-79.107
X290.83Y-115.57
X290.83Y-142.24
X290.83Y-143.51
X290.903Y-123.263
X291.465Y-90.805
X291.465Y-135.255
X292.1Y-89.535
X292.1Y-93.345
X292.1Y-190.5
X292.168Y-127.635
X292.735Y-93.98
X293.37Y-122.555
X293.37Y-140.335
X293.37Y-173.355
X294.005Y-140.97
X294.64Y-76.835
X294.64Y-90.17
X294.64Y-142.792
X294.64Y-146.05
X294.64Y-171.45
X294.64Y-186.69
X295.275Y-121.92
X295.275Y-141.605
X295.275Y-146.685
X295.275Y-172.085
X295.91Y-79.107
X295.91Y-91.367
X295.91Y-120.015
X295.91Y-121.285
X295.91Y-146.05
X295.91Y-158.115
X296.545Y-144.145
X297.107Y-92.002
X297.18Y-79.107
X297.18Y-122.555
X297.18Y-145.415
X297.18Y-160.655
X297.815Y-118.11
X297.815Y-120.015
X297.815Y-154.94
X297.815Y-159.385
X297.829Y-117.343
X298.45Y-77.2
X298.45Y-92.075
X298.45Y-119.38
X298.45Y-120.65
X298.45Y-169.545
X298.45Y-170.815
X299.012Y-93.907
X299.085Y-97.155
X299.085Y-173.355
X299.72Y-77.146
X299.72Y-119.38
X299.72Y-180.975
X300.355Y-97.155
X300.355Y-164.465
X300.355Y-167.005
X300.97Y-184.582
X300.99Y-77.47
X300.99Y-179.138
X301.063Y-117.475
X301.542Y-177.375
X301.625Y-92.989
X301.625Y-97.155
X301.625Y-149.225
X301.625Y-163.83
X301.625Y-167.64
X301.954Y-78.74
X302.01Y-186.055
X302.26Y-90.58
X302.26Y-120.015
X302.26Y-167.005
X302.26Y-177.8
X302.26Y-203.835
X302.895Y-97.155
X302.895Y-182.88
X303.53Y-74.93
X303.53Y-130.81
X303.53Y-180.34
X303.549Y-205.721
X304.165Y-97.155
X304.165Y-120.015
X304.165Y-165.735
X304.269Y-177.108
X304.715Y-117.404
X304.8Y-151.765
X304.8Y-156.845
X304.8Y-161.925
X304.8Y-173.99
X305.435Y-97.155
X305.435Y-120.015
X306.037Y-57.418
X306.07Y-76.835
X306.07Y-130.81
X306.07Y-183.515
X306.705Y-97.155
X306.705Y-119.38
X306.705Y-154.305
X306.705Y-161.29
X306.705Y-179.705
X307.34Y-169.545
X307.972Y-187.312
X307.975Y-97.355
X307.975Y-116.84
X307.975Y-120.015
X307.975Y-143.51
X307.975Y-168.275
X307.975Y-176.53
X308.61Y-78.74
X308.61Y-149.86
X308.61Y-163.195
X308.995Y-175.937
X309.245Y-120.65
X309.245Y-152.4
X309.245Y-162.56
X309.807Y-175.968
X309.88Y-144.78
X310.515Y-121.285
X310.515Y-153.67
X310.515Y-165.735
X310.515Y-201.93
X311.15Y-76.2
X311.15Y-155.575
X311.15Y-175.26
X311.15Y-176.53
X311.15Y-201.295
X311.467Y-84.455
X311.779Y-171.933
X311.785Y-121.92
X311.785Y-153.035
X311.785Y-161.29
X311.785Y-167.005
X311.785Y-170.18
X311.785Y-172.72
X311.785Y-173.99
X311.825Y-171.182
X312.42Y-149.86
X312.42Y-161.925
X312.42Y-163.195
X312.42Y-165.1
X312.42Y-167.64
X313.051Y-162.473
X313.055Y-80.01
X313.055Y-144.78
X313.055Y-163.83
X313.055Y-165.735
X313.055Y-168.275
X313.69Y-84.455
X313.993Y-158.95
X314.96Y-74.295
X314.96Y-142.24
X315.115Y-158.115
X316.23Y-74.295
X316.23Y-127.635
X316.23Y-133.35
X316.23Y-202.565
X316.644Y-94.348
X316.865Y-71.755
X316.865Y-78.105
X317.427Y-92.637
X317.5Y-76.835
X317.5Y-97.155
X317.655Y-158.115
X317.912Y-179.216
X318.135Y-90.187
X318.135Y-90.94
X318.438Y-71.755
X318.77Y-97.155
X319.228Y-73.869
X319.405Y-75.565
X319.707Y-73.167
X320.04Y-76.835
X320.04Y-78.74
X320.04Y-90.187
X320.04Y-97.155
X320.04Y-140.335
X320.04Y-151.765
X320.04Y-164.465
X320.413Y-169.206
X320.602Y-182.065
X320.675Y-141.605
X321.31Y-75.565
X321.31Y-97.155
X321.31Y-116.84
X321.31Y-131.445
X321.31Y-149.225
X321.74Y-184.582
X321.945Y-72.39
X321.945Y-74.93
X321.945Y-165.1
X321.945Y-172.085
X322.349Y-181.713
X322.58Y-73.66
X322.58Y-90.805
X322.58Y-97.155
X322.58Y-121.92
X322.58Y-142.875
X322.58Y-161.29
X322.58Y-175.26
X322.701Y-183.008
X323.07Y-181.43
X323.215Y-78.74
X323.215Y-92.637
X323.215Y-94.347
X323.215Y-140.97
X323.262Y-183.645
X323.722Y-153.512
X323.85Y-72.39
X323.85Y-97.155
X323.85Y-121.285
X323.85Y-201.93
X324.485Y-79.375
X324.485Y-147.955
X324.511Y-173.527
X324.772Y-161.29
X324.859Y-149.528
X324.974Y-73.236
X325.12Y-97.155
X325.12Y-120.65
X325.12Y-177.165
X325.12Y-201.295
X325.327Y-175.688
X325.755Y-76.2
X325.755Y-80.01
X325.755Y-121.285
X326.39Y-73.66
X326.39Y-97.155
X326.39Y-202.565
X326.906Y-159.385
X327.025Y-75.565
X327.025Y-122.555
X327.025Y-131.445
X327.587Y-76.127
X327.66Y-74.29
X327.66Y-153.035
X328.295Y-127.635
X328.295Y-145.415
X328.368Y-76.908
X328.93Y-94.615
X328.93Y-177.165
X328.93Y-73.025
X328.993Y-143.756
X329.232Y-71.422
X329.349Y-152.172
X329.549Y-181.084
X329.565Y-76.2
X329.565Y-89.535
X330.2Y-130.81
X330.835Y-75.565
X330.835Y-123.19
X331.049Y-154.305
X331.152Y-72.072
X331.47Y-112.395
X331.47Y-161.29
X332.105Y-177.165
X332.667Y-89.535
X332.74Y-76.2
X332.74Y-120.65
X332.74Y-128.905
X332.74Y-184.163
X332.802Y-145.022
X333.266Y-132.436
X333.375Y-73.66
X333.375Y-159.385
X333.375Y-175.26
X333.663Y-182.188
X333.849Y-147.94
X334.01Y-73.025
X334.01Y-80.645
X334.01Y-84.455
X334.01Y-92.075
X334.01Y-128.27
X334.049Y-150.495
X334.125Y-172.209
X334.402Y-163.957
X334.559Y-184.141
X334.645Y-72.39
X334.645Y-130.175
X335.28Y-73.543
X335.28Y-74.295
X335.28Y-124.46
X335.842Y-129.467
X335.842Y-185.347
X335.915Y-76.2
X335.915Y-114.3
X335.915Y-147.32
X335.915Y-163.83
X335.915Y-174.128
X335.988Y-144.218
X336.55Y-118.11
X337.16Y-151.522
X337.185Y-71.755
X337.185Y-90.17
X337.185Y-97.155
X337.185Y-113.03
X337.185Y-128.27
X337.185Y-146.685
X337.349Y-149.86
X337.485Y-168.002
X337.519Y-185.055
X337.82Y-73.025
X337.82Y-107.315
X337.82Y-123.19
X337.82Y-123.942
X337.82Y-135.255
X337.82Y-164.465
X338.072Y-184.41
X338.126Y-90.805
X338.455Y-94.615
X338.455Y-114.935
X338.772Y-72.317
X338.862Y-184.724
X339.09Y-92.11
X339.09Y-116.84
X339.09Y-118.11
X339.09Y-130.175
X339.09Y-148.59
X339.67Y-141.66
X339.725Y-89.535
X339.725Y-96.52
X339.725Y-107.315
X339.725Y-135.89
X340.36Y-78.105
X340.36Y-90.17
X340.36Y-122.555
X340.36Y-179.07
X340.36Y-184.15
X340.995Y-115.57
X341.252Y-163.497
X341.463Y-74.295
X341.63Y-92.11
X341.63Y-117.475
X341.63Y-130.81
X341.63Y-158.115
X341.823Y-176.888
X341.902Y-165.162
X342.265Y-90.805
X342.265Y-95.25
X342.265Y-179.07
X342.338Y-168.202
X342.477Y-76.791
X342.637Y-164.622
X342.832Y-166.272
X342.9Y-117.475
X342.973Y-97.228
X343.064Y-163.621
X343.495Y-167.509
X343.535Y-116.205
X343.535Y-157.48
X343.853Y-72.708
X343.866Y-166.338
X343.929Y-158.557
X344.17Y-117.475
X344.17Y-120.65
X344.17Y-125.73
X344.17Y-133.35
X344.17Y-142.875
X344.488Y-76.835
X344.7Y-161.565
X344.805Y-90.17
X344.805Y-94.615
X344.805Y-131.445
X344.998Y-160.769
X345.44Y-113.03
X345.44Y-128.905
X345.527Y-151.432
X346.075Y-78.105
X346.075Y-147.32
X346.346Y-159.47
X346.392Y-190.5
X346.71Y-76.2
X346.71Y-96.52
X346.71Y-116.84
X347.345Y-113.665
X347.345Y-123.19
X347.345Y-130.81
X347.345Y-147.955
X347.98Y-76.2
X347.98Y-92.71
X347.98Y-146.685
X348.615Y-113.03
X348.615Y-125.73
X348.615Y-142.555
X348.615Y-145.415
X349.25Y-76.835
X349.25Y-133.985
X349.468Y-121.92
X350.202Y-175.577
X350.52Y-75.565
X350.52Y-93.98
X350.52Y-117.475
X350.52Y-184.15
X351.155Y-208.915
X351.79Y-76.2
X351.79Y-120.65
X352.425Y-134.62
X352.743Y-194.945
X353.06Y-117.475
X353.06Y-127.635
X353.695Y-85.09
X353.695Y-114.935
X353.695Y-125.095
X353.695Y-181.61
X354.33Y-75.565
X354.965Y-106.68
X355.6Y-116.84
X356.235Y-114.935
X357.505Y-157.548
X357.505Y-194.31
X358.14Y-146.685
X358.775Y-114.935
X358.775Y-125.73
X359.41Y-71.755
X361.315Y-114.935
X361.315Y-188.595
X363.22Y-156.21
X363.855Y-73.025
X363.855Y-114.935
X363.855Y-156.845
X364.49Y-143.51
X364.49Y-155.575
X365.125Y-138.43
X365.125Y-147.32
X365.76Y-147.955
X365.76Y-174.625
X366.395Y-116.205
X366.395Y-142.24
X366.395Y-144.78
X366.395Y-179.705
X367.03Y-118.11
X367.03Y-191.135
X368.3Y-112.395
X369.57Y-193.675
X371.475Y-173.672
X372.745Y-96.52
X372.745Y-118.11
X373.38Y-116.84
X374.65Y-93.98
X374.65Y-115.887
X374.65Y-131.812
X375.602Y-173.672
X375.92Y-101.6
X375.92Y-132.715
X375.92Y-156.21
X377.19Y-143.51
X378.46Y-96.52
X378.46Y-102.235
X378.46Y-138.43
X379.73Y-153.67
X380.79Y-138.41
X381.0Y-104.775
X381.317Y-173.672
X382.27Y-106.045
X383.54Y-118.11
X384.81Y-156.21
X386.715Y-154.305
X388.62Y-106.68
X388.822Y-179.757
X388.938Y-183.567
X389.149Y-182.281
X389.255Y-104.775
X389.89Y-111.76
X389.89Y-113.665
X390.207Y-114.617
X390.207Y-183.885
X390.525Y-116.205
X390.74Y-111.76
X391.16Y-111.125
X392.147Y-156.81
X392.43Y-109.855
X393.7Y-152.4
X395.59Y-158.115
X395.605Y-179.123
X395.605Y-184.838
X395.922Y-157.162
X396.24Y-156.21
X396.255Y-182.757
X397.51Y-181.98
X398.145Y-157.48
T2
X34.29Y-167.957
X37.465Y-145.732
X40.005Y-86.995
X44.45Y-174.625
X45.085Y-124.46
X48.26Y-157.162
X48.26Y-161.29
X48.26Y-198.438
X48.578Y-191.77
X56.515Y-203.517
X62.865Y-88.9
X65.405Y-86.36
X66.675Y-139.7
X67.31Y-78.74
X67.31Y-83.82
X67.31Y-203.2
X69.85Y-86.36
X69.85Y-166.37
X73.025Y-86.36
X75.565Y-86.36
X76.2Y-79.375
X77.47Y-167.64
X78.105Y-88.9
X80.01Y-215.9
X82.55Y-92.71
X83.82Y-165.1
X92.71Y-196.215
X93.027Y-191.77
X93.735Y-89.535
X99.06Y-83.185
X100.165Y-204.632
X100.965Y-84.455
X101.6Y-92.075
X101.6Y-142.24
X102.235Y-138.43
X102.235Y-160.02
X104.775Y-196.85
X107.768Y-204.19
X108.125Y-192.69
X108.125Y-196.85
X108.585Y-83.185
X108.585Y-88.9
X114.935Y-88.9
X115.57Y-147.955
X117.475Y-192.087
X121.285Y-82.55
X127.0Y-88.9
X128.27Y-139.7
X128.905Y-161.29
X130.175Y-149.225
X130.175Y-194.31
X131.445Y-80.01
X131.65Y-201.353
X133.35Y-92.71
X134.62Y-74.295
X136.366Y-57.944
X137.16Y-55.245
X138.43Y-92.71
X139.905Y-201.353
X140.579Y-54.537
X140.97Y-88.9
X140.97Y-140.335
X141.605Y-160.972
X143.51Y-81.28
X144.145Y-186.373
X144.463Y-156.845
X145.415Y-54.61
X145.62Y-212.148
X147.955Y-79.375
X147.955Y-149.225
X150.495Y-156.845
X153.344Y-134.709
X153.377Y-140.997
X154.305Y-80.645
X155.575Y-201.612
X155.892Y-180.137
X156.21Y-60.325
X156.528Y-196.982
X160.02Y-193.357
X162.243Y-171.45
X162.56Y-149.225
X163.195Y-62.865
X163.195Y-203.517
X163.195Y-205.74
X166.458Y-135.235
X166.485Y-133.35
X168.593Y-149.225
X169.545Y-165.1
X169.545Y-172.72
X170.18Y-90.17
X170.93Y-148.517
X171.767Y-171.45
X172.085Y-158.75
X174.942Y-193.04
X177.165Y-134.62
X177.8Y-80.645
X177.8Y-141.49
X180.34Y-118.745
X181.61Y-119.212
X181.61Y-202.565
X183.515Y-165.1
X184.785Y-80.713
X185.57Y-109.923
X187.96Y-92.595
X189.299Y-174.625
X190.5Y-141.605
X190.5Y-203.2
X190.514Y-122.494
X201.93Y-69.85
X201.93Y-92.71
X202.565Y-200.875
X204.362Y-81.28
X204.558Y-69.215
X205.105Y-200.025
X205.22Y-83.82
X208.915Y-206.375
X209.55Y-167.755
X217.17Y-206.294
X217.385Y-65.62
X217.805Y-139.065
X223.52Y-123.825
X225.742Y-97.79
X227.33Y-121.92
X230.614Y-97.899
X231.14Y-121.92
X234.424Y-94.089
X235.585Y-161.925
X238.76Y-123.825
X238.76Y-132.08
X238.76Y-145.415
X239.395Y-87.63
X240.03Y-121.92
X241.935Y-133.35
X243.84Y-178.435
X244.475Y-93.98
X245.11Y-97.155
X245.11Y-132.08
X246.38Y-116.84
X247.65Y-161.925
X248.92Y-133.35
X250.825Y-158.75
X250.893Y-145.415
X251.46Y-85.09
X254.0Y-132.08
X254.0Y-188.595
X254.635Y-210.185
X255.27Y-158.75
X257.175Y-133.35
X258.762Y-191.77
X260.985Y-85.725
X264.795Y-194.31
X269.24Y-180.907
X269.875Y-91.44
X271.145Y-95.25
X271.145Y-99.695
X273.685Y-79.692
X274.955Y-194.31
X277.178Y-73.66
X277.495Y-80.962
X277.7Y-206.375
X278.13Y-75.565
X278.13Y-121.92
X278.13Y-130.175
X280.035Y-95.25
X282.892Y-79.057
X291.465Y-198.12
X292.735Y-201.295
X293.37Y-95.885
X293.37Y-194.31
X294.005Y-115.57
X294.64Y-99.06
X297.815Y-95.885
X301.896Y-191.691
X307.315Y-189.928
X309.245Y-115.57
X312.42Y-178.435
X313.055Y-194.31
X313.106Y-98.425
X314.325Y-205.74
X315.902Y-176.858
X318.135Y-127.635
X318.77Y-194.31
X320.04Y-160.655
X320.296Y-171.829
X321.945Y-173.815
X322.16Y-169.125
X322.284Y-167.375
X323.742Y-168.125
X323.749Y-159.385
X324.505Y-163.775
X327.249Y-161.505
X327.726Y-173.566
X328.589Y-163.083
X328.716Y-161.29
X328.93Y-166.688
X329.103Y-175.26
X329.35Y-169.965
X330.2Y-99.06
X330.835Y-111.125
X332.74Y-97.79
X334.164Y-168.41
X335.086Y-177.165
X335.757Y-159.385
X335.903Y-168.287
X335.915Y-95.617
X335.915Y-171.4
X337.82Y-160.02
X337.82Y-174.562
X344.805Y-165.295
X346.075Y-171.45
X347.345Y-165.735
X347.98Y-111.125
X350.52Y-99.06
X350.52Y-111.125
X350.52Y-144.78
X352.425Y-167.005
X356.235Y-68.263
X364.49Y-189.865
X365.125Y-96.52
X365.125Y-128.27
X366.395Y-111.125
X370.205Y-95.25
X371.792Y-159.067
X377.19Y-107.95
X378.46Y-159.067
X382.905Y-55.88
X382.905Y-153.035
X384.175Y-181.345
X384.81Y-92.71
X387.35Y-107.95
X387.35Y-110.49
X389.89Y-170.815
X390.051Y-180.642
X390.842Y-185.472
X393.065Y-155.257
T3
X142.25Y-70.485
X144.79Y-70.485
X147.33Y-70.485
X149.87Y-70.485
X152.41Y-70.485
X154.95Y-70.485
X160.005Y-158.745
X160.005Y-161.285
X160.005Y-163.825
X160.005Y-166.365
X160.005Y-168.905
X160.005Y-171.445
X160.005Y-173.985
X167.625Y-158.745
X167.625Y-161.285
X167.625Y-163.825
X167.625Y-166.365
X167.625Y-168.905
X167.625Y-171.445
X167.625Y-173.985
X225.481Y-197.011
X228.021Y-191.931
X247.65Y-126.682
X247.65Y-129.222
X250.19Y-126.682
X250.19Y-129.222
X252.73Y-126.682
X252.73Y-129.222
X255.27Y-126.682
X255.27Y-129.222
X257.81Y-126.682
X257.81Y-129.222
X260.35Y-126.682
X260.35Y-129.222
X266.078Y-63.896
X266.078Y-71.516
X268.618Y-63.896
X268.618Y-71.516
X271.158Y-63.896
X271.158Y-71.516
X273.698Y-63.896
X273.698Y-71.516
X278.99Y-51.501
X278.99Y-53.501
X278.99Y-55.501
X278.99Y-57.501
X278.99Y-59.501
X278.99Y-61.501
X280.658Y-65.903
X280.658Y-73.523
X283.198Y-65.903
X283.198Y-73.523
X285.738Y-65.903
X285.738Y-73.523
X288.278Y-65.903
X288.278Y-73.523
T4
X34.29Y-78.74
X34.29Y-81.28
X37.52Y-140.549
X37.52Y-143.089
X39.1Y-165.096
X39.1Y-167.636
X39.242Y-172.078
X39.242Y-174.618
X39.384Y-158.152
X39.384Y-160.692
X39.526Y-179.04
X39.526Y-181.58
X39.526Y-186.43
X39.526Y-188.97
X39.676Y-151.477
X39.676Y-154.017
X40.005Y-67.31
X40.005Y-71.12
X40.005Y-76.2
X40.005Y-83.82
X42.545Y-67.31
X42.545Y-71.12
X42.545Y-76.2
X42.545Y-83.82
X45.085Y-67.31
X45.085Y-71.12
X45.085Y-76.2
X45.085Y-83.82
X45.72Y-149.86
X45.72Y-152.4
X45.72Y-154.94
X45.72Y-157.48
X45.72Y-160.02
X45.72Y-162.56
X45.72Y-165.1
X45.72Y-167.64
X45.72Y-176.53
X45.72Y-179.07
X45.72Y-181.61
X45.72Y-184.15
X45.72Y-186.69
X45.72Y-189.23
X45.72Y-191.77
X45.72Y-194.31
X46.99Y-92.71
X46.99Y-95.25
X46.99Y-97.79
X46.99Y-100.33
X46.99Y-102.87
X46.99Y-105.41
X46.99Y-107.95
X46.99Y-110.49
X46.99Y-113.03
X46.99Y-115.57
X46.99Y-118.11
X46.99Y-120.65
X46.99Y-123.19
X46.99Y-125.73
X46.99Y-128.27
X46.99Y-130.81
X46.99Y-133.35
X46.99Y-135.89
X46.99Y-138.43
X46.99Y-140.97
X47.625Y-67.31
X47.625Y-71.12
X47.625Y-76.2
X47.625Y-83.82
X48.26Y-146.05
X48.322Y-172.085
X50.165Y-67.31
X50.165Y-71.12
X50.165Y-76.2
X50.165Y-83.82
X50.8Y-146.05
X50.862Y-172.085
X52.705Y-67.31
X52.705Y-71.12
X52.705Y-76.2
X52.705Y-83.82
X53.34Y-88.9
X53.34Y-149.86
X53.34Y-152.4
X53.34Y-154.94
X53.34Y-157.48
X53.34Y-160.02
X53.34Y-162.56
X53.34Y-165.1
X53.34Y-167.64
X53.34Y-176.53
X53.34Y-179.07
X53.34Y-181.61
X53.34Y-184.15
X53.34Y-186.69
X53.34Y-189.23
X53.34Y-191.77
X53.34Y-194.31
X55.245Y-67.31
X55.245Y-71.12
X55.245Y-76.2
X55.245Y-83.82
X55.88Y-88.9
X57.785Y-67.31
X57.785Y-71.12
X57.785Y-76.2
X57.785Y-83.82
X60.325Y-67.31
X60.325Y-71.12
X60.325Y-76.2
X60.325Y-83.82
X62.23Y-92.71
X62.23Y-95.25
X62.23Y-97.79
X62.23Y-100.33
X62.23Y-102.87
X62.23Y-105.41
X62.23Y-107.95
X62.23Y-110.49
X62.23Y-113.03
X62.23Y-115.57
X62.23Y-118.11
X62.23Y-120.65
X62.23Y-123.19
X62.23Y-125.73
X62.23Y-128.27
X62.23Y-130.81
X62.23Y-133.35
X62.23Y-135.89
X62.23Y-138.43
X62.23Y-140.97
X62.23Y-173.99
X62.23Y-189.23
X62.865Y-76.2
X62.865Y-83.82
X63.5Y-168.91
X65.405Y-149.68
X65.405Y-154.76
X66.04Y-168.91
X69.85Y-78.74
X69.85Y-81.28
X69.85Y-173.99
X69.85Y-189.23
X70.44Y-92.71
X70.44Y-95.25
X70.44Y-97.79
X70.44Y-100.33
X70.44Y-102.87
X70.44Y-105.41
X70.44Y-107.95
X70.44Y-110.49
X72.997Y-88.9
X73.66Y-76.2
X73.66Y-83.82
X74.93Y-66.675
X74.93Y-70.485
X75.537Y-88.9
X76.2Y-76.2
X76.2Y-83.82
X77.47Y-66.675
X77.47Y-70.485
X77.47Y-172.72
X77.47Y-175.26
X77.47Y-177.8
X77.47Y-180.34
X77.47Y-182.88
X77.47Y-185.42
X77.47Y-187.96
X77.47Y-190.5
X78.06Y-92.71
X78.06Y-95.25
X78.06Y-97.79
X78.06Y-100.33
X78.06Y-102.87
X78.06Y-105.41
X78.06Y-107.95
X78.06Y-110.49
X78.74Y-76.2
X78.74Y-83.82
X80.01Y-66.675
X80.01Y-70.485
X81.28Y-76.2
X81.28Y-83.82
X81.28Y-167.64
X82.55Y-66.675
X82.55Y-70.485
X83.39Y-196.273
X83.39Y-198.813
X83.82Y-76.2
X83.82Y-83.82
X83.82Y-167.64
X85.09Y-66.675
X85.09Y-70.485
X85.09Y-113.03
X85.09Y-115.57
X85.09Y-118.11
X85.09Y-120.65
X85.09Y-123.19
X85.09Y-125.73
X85.09Y-128.27
X85.09Y-130.81
X85.09Y-133.35
X85.09Y-172.72
X85.09Y-175.26
X85.09Y-177.8
X85.09Y-180.34
X85.09Y-182.88
X85.09Y-185.42
X85.09Y-187.96
X85.09Y-190.5
X85.93Y-210.878
X85.93Y-213.418
X86.36Y-76.2
X86.36Y-83.82
X86.995Y-194.31
X86.995Y-201.93
X87.066Y-153.71
X87.066Y-156.25
X87.066Y-160.06
X87.066Y-162.6
X87.63Y-66.675
X87.63Y-70.485
X88.9Y-76.2
X88.9Y-83.82
X89.535Y-194.31
X89.535Y-201.93
X89.74Y-208.338
X89.74Y-215.958
X90.17Y-66.675
X90.17Y-70.485
X91.44Y-76.2
X91.44Y-83.82
X92.075Y-194.31
X92.075Y-201.93
X92.272Y-92.71
X92.272Y-95.25
X92.272Y-97.79
X92.272Y-100.33
X92.272Y-102.87
X92.272Y-105.41
X92.272Y-107.95
X92.272Y-110.49
X92.272Y-113.03
X92.272Y-115.57
X92.272Y-118.11
X92.272Y-120.65
X92.272Y-123.19
X92.272Y-125.73
X92.272Y-128.27
X92.272Y-130.81
X92.272Y-133.35
X92.272Y-135.89
X92.272Y-138.43
X92.272Y-140.97
X92.28Y-208.338
X92.28Y-215.958
X92.71Y-66.675
X92.71Y-70.485
X93.452Y-153.67
X93.452Y-156.21
X93.452Y-158.75
X93.452Y-161.29
X93.452Y-163.83
X93.452Y-166.37
X93.452Y-168.91
X93.452Y-171.45
X93.452Y-173.99
X93.452Y-176.53
X93.452Y-179.07
X93.452Y-181.61
X93.452Y-184.15
X93.452Y-186.69
X93.98Y-76.2
X93.98Y-83.82
X94.615Y-194.31
X94.615Y-201.93
X94.82Y-208.338
X94.82Y-215.958
X95.25Y-66.675
X95.25Y-70.485
X96.52Y-76.2
X96.52Y-83.82
X97.155Y-194.31
X97.155Y-201.93
X97.36Y-208.338
X97.36Y-215.958
X98.425Y-88.9
X99.695Y-194.31
X99.695Y-201.93
X99.834Y-148.108
X99.9Y-208.338
X99.9Y-215.958
X100.965Y-88.9
X102.235Y-72.39
X102.235Y-74.93
X102.235Y-194.31
X102.235Y-201.93
X102.374Y-148.108
X102.44Y-208.338
X102.44Y-215.958
X104.775Y-194.31
X104.775Y-201.93
X104.98Y-208.338
X104.98Y-215.958
X106.045Y-69.85
X106.045Y-77.47
X107.512Y-92.71
X107.512Y-95.25
X107.512Y-97.79
X107.512Y-100.33
X107.512Y-102.87
X107.512Y-105.41
X107.512Y-107.95
X107.512Y-110.49
X107.512Y-113.03
X107.512Y-115.57
X107.512Y-118.11
X107.512Y-120.65
X107.512Y-123.19
X107.512Y-125.73
X107.512Y-128.27
X107.512Y-130.81
X107.512Y-133.35
X107.512Y-135.89
X107.512Y-138.43
X107.512Y-140.97
X108.585Y-69.85
X108.585Y-77.47
X108.692Y-153.67
X108.692Y-156.21
X108.692Y-158.75
X108.692Y-161.29
X108.692Y-163.83
X108.692Y-166.37
X108.692Y-168.91
X108.692Y-171.45
X108.692Y-173.99
X108.692Y-176.53
X108.692Y-179.07
X108.692Y-181.61
X108.692Y-184.15
X108.692Y-186.69
X110.06Y-199.446
X110.06Y-207.066
X111.125Y-69.85
X111.125Y-77.47
X112.596Y-193.954
X112.609Y-212.148
X112.609Y-214.688
X113.665Y-69.85
X113.665Y-77.47
X113.79Y-199.448
X113.79Y-207.068
X113.866Y-192.049
X115.136Y-193.954
X115.496Y-92.71
X115.496Y-95.25
X115.496Y-97.79
X115.496Y-100.33
X115.496Y-102.87
X115.496Y-105.41
X115.496Y-107.95
X115.496Y-110.49
X115.496Y-113.03
X115.496Y-115.57
X115.496Y-118.11
X115.496Y-120.65
X115.496Y-123.19
X115.496Y-125.73
X115.496Y-128.27
X115.496Y-130.81
X115.496Y-133.35
X115.496Y-135.89
X115.496Y-138.43
X115.496Y-140.97
X115.893Y-153.67
X115.893Y-156.21
X115.893Y-160.02
X115.893Y-162.56
X116.205Y-69.85
X116.205Y-77.47
X117.203Y-199.448
X117.203Y-207.068
X117.203Y-212.148
X117.203Y-214.688
X118.745Y-69.85
X118.745Y-77.47
X120.65Y-153.67
X120.65Y-156.21
X120.65Y-158.75
X120.65Y-161.29
X120.65Y-163.83
X120.65Y-166.37
X120.65Y-168.91
X120.65Y-171.45
X120.65Y-173.99
X120.65Y-176.53
X120.65Y-179.07
X120.65Y-181.61
X120.65Y-184.15
X120.65Y-186.69
X121.285Y-69.85
X121.285Y-77.47
X121.285Y-88.9
X123.825Y-88.9
X126.498Y-148.26
X126.57Y-212.148
X126.57Y-214.688
X126.793Y-78.74
X126.793Y-81.28
X129.038Y-148.26
X130.736Y-92.71
X130.736Y-95.25
X130.736Y-97.79
X130.736Y-100.33
X130.736Y-102.87
X130.736Y-105.41
X130.736Y-107.95
X130.736Y-110.49
X130.736Y-113.03
X130.736Y-115.57
X130.736Y-118.11
X130.736Y-120.65
X130.736Y-123.19
X130.736Y-125.73
X130.736Y-128.27
X130.736Y-130.81
X130.736Y-133.35
X130.736Y-135.89
X130.736Y-138.43
X130.736Y-140.97
X130.81Y-76.2
X130.81Y-83.82
X131.65Y-208.338
X131.65Y-215.958
X133.35Y-76.2
X133.35Y-83.82
X134.19Y-199.448
X134.19Y-203.258
X134.19Y-208.338
X134.19Y-215.958
X135.89Y-76.2
X135.89Y-83.82
X135.89Y-153.67
X135.89Y-156.21
X135.89Y-158.75
X135.89Y-161.29
X135.89Y-163.83
X135.89Y-166.37
X135.89Y-168.91
X135.89Y-171.45
X135.89Y-173.99
X135.89Y-176.53
X135.89Y-179.07
X135.89Y-181.61
X135.89Y-184.15
X135.89Y-186.69
X136.73Y-208.338
X136.73Y-215.958
X138.43Y-76.2
X138.43Y-83.82
X139.27Y-208.338
X139.27Y-215.958
X140.97Y-76.2
X140.97Y-83.82
X141.81Y-199.448
X141.81Y-203.258
X141.81Y-208.338
X141.81Y-215.958
X142.24Y-56.515
X142.24Y-66.675
X143.51Y-76.2
X143.51Y-83.82
X144.35Y-208.338
X144.35Y-215.958
X144.78Y-88.265
X144.78Y-158.75
X144.78Y-161.29
X144.78Y-163.83
X144.78Y-166.37
X144.78Y-168.91
X144.78Y-171.45
X144.78Y-173.99
X144.78Y-176.53
X145.326Y-56.515
X145.326Y-66.675
X146.05Y-76.2
X146.05Y-83.82
X146.176Y-193.286
X146.176Y-195.826
X146.89Y-208.338
X146.89Y-215.958
X147.127Y-203.258
X147.32Y-88.265
X147.955Y-154.305
X148.59Y-56.515
X148.59Y-66.675
X148.59Y-92.71
X148.59Y-95.25
X148.59Y-97.79
X148.59Y-100.33
X148.59Y-102.87
X148.59Y-105.41
X148.59Y-107.95
X148.59Y-110.49
X148.59Y-113.03
X148.59Y-115.57
X148.59Y-118.11
X148.59Y-120.65
X148.59Y-123.19
X148.59Y-125.73
X148.59Y-128.27
X148.59Y-130.81
X148.59Y-133.35
X148.59Y-135.89
X148.59Y-138.43
X148.59Y-140.97
X149.106Y-193.286
X149.106Y-195.826
X149.159Y-203.258
X150.495Y-154.305
X151.13Y-78.74
X151.13Y-81.28
X151.717Y-215.958
X151.765Y-64.135
X152.045Y-193.379
X152.045Y-195.919
X152.4Y-158.75
X152.4Y-161.29
X152.4Y-163.83
X152.4Y-166.37
X152.4Y-168.91
X152.4Y-171.45
X152.4Y-173.99
X152.4Y-176.53
X153.24Y-200.718
X153.24Y-210.878
X154.305Y-64.135
X154.94Y-76.2
X154.94Y-83.82
X154.967Y-193.286
X154.967Y-195.826
X157.48Y-76.2
X157.48Y-83.82
X158.32Y-200.718
X158.32Y-203.258
X158.744Y-182.884
X158.744Y-185.424
X159.202Y-208.899
X159.337Y-215.958
X160.02Y-76.2
X160.02Y-83.82
X160.472Y-206.994
X161.742Y-208.899
X161.925Y-182.245
X161.925Y-189.865
X162.56Y-76.2
X162.56Y-83.82
X162.56Y-154.305
X163.83Y-92.71
X163.83Y-95.25
X163.83Y-97.79
X163.83Y-100.33
X163.83Y-102.87
X163.83Y-105.41
X163.83Y-107.95
X163.83Y-110.49
X163.83Y-113.03
X163.83Y-115.57
X163.83Y-118.11
X163.83Y-120.65
X163.83Y-123.19
X163.83Y-125.73
X163.83Y-128.27
X163.83Y-130.81
X163.83Y-133.35
X163.83Y-135.89
X163.83Y-138.43
X163.83Y-140.97
X164.465Y-182.245
X164.465Y-189.865
X165.1Y-76.2
X165.1Y-83.82
X165.1Y-154.305
X167.005Y-182.245
X167.005Y-189.865
X167.64Y-76.2
X167.64Y-83.82
X168.692Y-215.918
X168.717Y-206.969
X168.717Y-209.988
X168.717Y-212.895
X169.545Y-182.245
X169.545Y-189.865
X170.18Y-76.2
X170.18Y-83.82
X172.085Y-182.245
X172.085Y-189.865
X172.126Y-121.92
X172.126Y-124.46
X172.126Y-127.0
X172.126Y-129.54
X172.126Y-132.08
X172.126Y-134.62
X172.126Y-137.16
X172.126Y-139.7
X172.788Y-92.71
X172.788Y-95.25
X172.788Y-97.79
X172.788Y-100.33
X172.788Y-102.87
X172.788Y-105.41
X172.788Y-107.95
X172.788Y-110.49
X173.228Y-156.679
X174.51Y-175.805
X174.625Y-78.74
X174.625Y-81.28
X174.625Y-118.11
X174.625Y-182.245
X174.625Y-189.865
X175.26Y-156.679
X176.312Y-215.918
X176.337Y-206.969
X176.337Y-209.988
X176.337Y-212.895
X177.05Y-175.805
X177.165Y-118.11
X177.165Y-182.245
X177.165Y-189.865
X178.435Y-76.2
X178.435Y-83.82
X179.578Y-156.845
X179.746Y-121.92
X179.746Y-124.46
X179.746Y-127.0
X179.746Y-129.54
X179.746Y-132.08
X179.746Y-134.62
X179.746Y-137.16
X179.746Y-139.7
X179.773Y-95.25
X179.773Y-97.79
X179.773Y-100.33
X179.773Y-102.87
X179.773Y-105.41
X179.773Y-107.95
X179.773Y-110.49
X180.975Y-76.2
X180.975Y-83.82
X181.375Y-206.927
X181.375Y-209.946
X181.375Y-212.965
X181.468Y-215.892
X181.61Y-156.845
X182.313Y-91.44
X183.515Y-76.2
X183.515Y-83.82
X184.852Y-161.29
X184.852Y-167.64
X184.853Y-91.44
X186.055Y-76.2
X186.055Y-83.82
X186.884Y-161.29
X186.884Y-167.64
X187.325Y-121.92
X187.325Y-124.46
X187.325Y-127.0
X187.325Y-129.54
X187.325Y-132.08
X187.325Y-134.62
X187.325Y-137.16
X187.325Y-139.7
X187.393Y-95.25
X187.393Y-97.79
X187.393Y-100.33
X187.393Y-102.87
X187.393Y-105.41
X187.393Y-107.95
X187.393Y-110.49
X188.595Y-76.2
X188.595Y-83.82
X188.995Y-206.927
X188.995Y-209.946
X188.995Y-212.965
X189.088Y-215.892
X189.865Y-118.11
X190.581Y-147.518
X190.581Y-149.55
X191.068Y-165.1
X191.068Y-167.64
X191.135Y-76.2
X191.135Y-83.82
X192.405Y-118.11
X193.04Y-153.67
X193.04Y-161.29
X193.675Y-76.2
X193.675Y-83.82
X193.675Y-95.25
X193.675Y-97.79
X193.675Y-100.33
X193.675Y-102.87
X193.675Y-105.41
X193.675Y-107.95
X193.675Y-110.49
X194.31Y-165.062
X194.31Y-172.682
X194.945Y-121.92
X194.945Y-124.46
X194.945Y-127.0
X194.945Y-129.54
X194.945Y-132.08
X194.945Y-134.62
X194.945Y-137.16
X194.945Y-139.7
X196.215Y-76.2
X196.215Y-83.82
X196.233Y-91.44
X196.414Y-147.362
X196.414Y-149.394
X196.85Y-153.67
X196.85Y-161.29
X196.85Y-165.062
X196.85Y-172.682
X198.755Y-76.2
X198.755Y-83.82
X198.773Y-91.44
X199.39Y-165.062
X199.39Y-172.682
X200.66Y-52.977
X200.66Y-55.517
X200.66Y-58.057
X200.66Y-60.597
X200.66Y-63.137
X201.295Y-76.2
X201.295Y-83.82
X201.295Y-95.25
X201.295Y-97.79
X201.295Y-100.33
X201.295Y-102.87
X201.295Y-105.41
X201.295Y-107.95
X201.295Y-110.49
X201.93Y-142.24
X201.93Y-149.86
X201.93Y-152.4
X201.93Y-160.02
X201.93Y-165.062
X201.93Y-172.682
X201.931Y-121.92
X201.931Y-124.46
X201.931Y-127.0
X201.931Y-129.54
X201.931Y-132.08
X201.931Y-134.62
X201.931Y-137.16
X204.47Y-118.11
X204.47Y-165.062
X204.47Y-172.682
X205.74Y-142.24
X205.74Y-149.86
X205.74Y-152.4
X205.74Y-160.02
X207.01Y-118.11
X207.01Y-165.062
X207.01Y-172.682
X208.28Y-64.77
X208.28Y-72.39
X209.55Y-105.41
X209.55Y-107.95
X209.55Y-142.24
X209.55Y-149.86
X209.55Y-152.4
X209.55Y-160.02
X209.55Y-165.062
X209.55Y-172.682
X209.551Y-121.92
X209.551Y-124.46
X209.551Y-127.0
X209.551Y-129.54
X209.551Y-132.08
X209.551Y-134.62
X209.551Y-137.16
X210.82Y-97.79
X210.82Y-100.33
X210.82Y-102.87
X211.268Y-64.777
X211.268Y-72.397
X213.36Y-142.24
X213.36Y-149.86
X213.36Y-152.4
X213.36Y-160.02
X215.9Y-97.79
X215.9Y-100.33
X215.9Y-102.87
X217.17Y-105.41
X217.17Y-107.95
X218.44Y-153.67
X218.44Y-161.29
X219.656Y-147.32
X219.656Y-149.352
X219.71Y-141.231
X219.71Y-143.263
X220.98Y-52.977
X220.98Y-55.517
X220.98Y-58.057
X220.98Y-60.597
X220.98Y-63.137
X222.25Y-153.67
X222.25Y-161.29
X222.77Y-166.256
X222.77Y-173.876
X224.716Y-177.719
X224.716Y-185.339
X225.869Y-83.947
X225.869Y-88.773
X225.901Y-166.256
X225.901Y-173.876
X226.06Y-57.785
X226.06Y-60.325
X226.06Y-62.865
X226.06Y-65.405
X226.06Y-67.945
X226.06Y-70.485
X226.06Y-73.025
X226.06Y-75.565
X226.06Y-141.224
X226.06Y-143.256
X226.06Y-147.216
X226.06Y-149.248
X228.171Y-177.643
X228.171Y-185.263
X229.12Y-166.256
X229.12Y-173.876
X231.14Y-66.04
X231.14Y-69.215
X231.14Y-72.39
X231.224Y-176.147
X231.224Y-186.307
X232.295Y-166.256
X232.295Y-173.876
X233.68Y-66.04
X233.68Y-69.215
X233.68Y-72.39
X233.68Y-154.94
X233.68Y-160.02
X233.858Y-96.859
X233.858Y-104.479
X236.22Y-154.94
X236.22Y-160.02
X236.758Y-96.743
X236.758Y-104.363
X238.76Y-68.58
X238.76Y-72.39
X238.76Y-76.2
X238.76Y-80.01
X240.03Y-85.09
X242.57Y-85.09
X246.38Y-68.58
X246.38Y-72.39
X246.38Y-76.2
X246.38Y-80.01
X246.38Y-85.09
X248.92Y-85.09
X251.46Y-68.58
X251.46Y-72.197
X251.46Y-76.452
X254.0Y-68.58
X254.0Y-72.197
X254.0Y-76.452
X256.712Y-157.454
X258.445Y-175.26
X258.445Y-178.435
X259.252Y-157.454
X260.985Y-175.26
X260.985Y-178.435
X262.456Y-190.5
X263.726Y-188.595
X264.996Y-190.5
X265.309Y-85.027
X265.309Y-92.647
X266.236Y-74.719
X267.97Y-85.09
X267.97Y-92.71
X268.776Y-74.719
X272.097Y-74.612
X272.097Y-77.47
X274.32Y-156.845
X274.32Y-159.385
X274.32Y-161.925
X274.32Y-164.465
X274.32Y-167.005
X274.32Y-169.545
X274.32Y-202.478
X274.32Y-205.018
X274.32Y-207.558
X274.32Y-210.098
X274.637Y-74.612
X274.637Y-77.47
X276.86Y-154.305
X276.86Y-156.845
X276.86Y-159.385
X276.86Y-161.925
X276.86Y-164.465
X276.86Y-167.005
X276.86Y-169.545
X276.86Y-172.085
X277.221Y-67.897
X277.221Y-70.437
X279.4Y-154.305
X279.4Y-156.845
X279.4Y-169.545
X279.4Y-172.085
X281.94Y-154.305
X281.94Y-156.845
X281.94Y-169.545
X281.94Y-172.085
X281.94Y-202.478
X281.94Y-205.018
X281.94Y-207.558
X281.94Y-210.098
X284.48Y-154.305
X284.48Y-156.845
X284.48Y-169.545
X284.48Y-172.085
X287.02Y-154.305
X287.02Y-156.845
X287.02Y-169.545
X287.02Y-172.085
X288.925Y-138.43
X288.925Y-140.97
X289.56Y-154.305
X289.56Y-156.845
X289.56Y-159.385
X289.56Y-161.925
X289.56Y-164.465
X289.56Y-167.005
X289.56Y-169.545
X289.56Y-172.085
X290.195Y-202.478
X290.195Y-205.018
X290.195Y-207.558
X290.195Y-210.098
X292.1Y-156.845
X292.1Y-159.385
X292.1Y-161.925
X292.1Y-164.465
X292.1Y-167.005
X292.1Y-169.545
X292.106Y-65.964
X294.138Y-65.964
X294.64Y-189.865
X297.18Y-189.865
X297.699Y-65.633
X297.815Y-202.478
X297.815Y-205.018
X297.815Y-207.558
X297.815Y-210.098
X299.731Y-65.633
X306.07Y-208.243
X306.17Y-60.819
X306.267Y-63.526
X308.61Y-208.243
X311.25Y-60.819
X311.347Y-63.526
X337.185Y-212.725
X339.725Y-212.725
X343.535Y-212.725
X346.075Y-212.725
X354.965Y-188.595
X354.965Y-191.135
X354.965Y-200.025
X356.235Y-208.915
X356.235Y-212.725
X357.505Y-200.025
X359.41Y-134.62
X359.958Y-186.055
X359.958Y-193.675
X360.68Y-149.225
X360.68Y-151.765
X361.95Y-134.62
X362.498Y-186.055
X362.498Y-193.675
X363.855Y-200.025
X363.855Y-205.105
X363.855Y-208.915
X363.855Y-212.725
X365.038Y-186.055
X365.038Y-193.675
X366.29Y-65.269
X366.29Y-67.809
X366.395Y-200.025
X366.395Y-205.105
X367.578Y-186.055
X367.578Y-193.675
X370.205Y-177.8
X370.205Y-180.34
X370.205Y-205.105
X370.205Y-208.915
X370.205Y-212.725
X370.84Y-109.22
X370.84Y-111.76
X370.84Y-114.3
X370.84Y-116.84
X370.84Y-119.38
X370.84Y-121.92
X370.84Y-124.46
X370.84Y-127.0
X370.84Y-129.54
X372.745Y-200.025
X375.285Y-200.025
X375.92Y-114.3
X375.92Y-124.46
X375.92Y-146.05
X375.92Y-149.86
X375.92Y-153.67
X377.825Y-205.105
X377.825Y-208.915
X377.825Y-212.725
X378.46Y-114.3
X378.46Y-124.46
X378.46Y-146.05
X378.46Y-149.86
X378.46Y-153.67
X379.73Y-85.09
X381.0Y-51.435
X381.0Y-53.975
X381.0Y-114.3
X381.0Y-124.46
X382.27Y-85.09
X382.27Y-134.62
X382.27Y-149.86
X383.54Y-114.3
X383.54Y-124.46
X384.81Y-129.54
X387.35Y-129.54
X389.89Y-134.62
X389.89Y-149.86
X393.7Y-54.61
X393.7Y-57.15
T5
X391.16Y-189.49
X391.16Y-209.29
T6
X32.385Y-64.77
X32.385Y-67.31
X32.385Y-72.39
X32.385Y-74.93
X36.38Y-92.71
X36.38Y-95.25
X36.38Y-97.79
X36.38Y-100.33
X36.38Y-102.87
X36.38Y-105.41
X36.38Y-107.95
X36.38Y-110.49
X36.38Y-113.03
X36.38Y-115.57
X36.38Y-118.11
X36.38Y-120.65
X38.92Y-92.71
X38.92Y-95.25
X38.92Y-97.79
X38.92Y-100.33
X38.92Y-102.87
X38.92Y-105.41
X38.92Y-107.95
X38.92Y-110.49
X38.92Y-113.03
X38.92Y-115.57
X38.92Y-118.11
X38.92Y-120.65
X45.72Y-58.42
X45.72Y-60.96
X48.26Y-58.42
X48.26Y-60.96
X50.8Y-58.42
X50.8Y-60.96
X53.34Y-58.42
X53.34Y-60.96
X55.88Y-58.42
X55.88Y-60.96
X58.42Y-58.42
X58.42Y-60.96
X58.469Y-156.845
X58.469Y-159.385
X58.469Y-161.925
X58.469Y-164.465
X58.469Y-167.005
X60.96Y-58.42
X60.96Y-60.96
X63.5Y-58.42
X63.5Y-60.96
X66.04Y-58.42
X66.04Y-60.96
X68.58Y-58.42
X68.58Y-60.96
X69.882Y-115.57
X69.882Y-118.11
X69.882Y-120.65
X69.882Y-123.19
X69.882Y-125.73
X69.882Y-128.27
X69.882Y-130.81
X69.882Y-133.35
X69.882Y-135.89
X69.882Y-138.43
X69.882Y-140.97
X69.882Y-143.51
X69.882Y-146.05
X69.882Y-148.59
X69.882Y-151.13
X69.882Y-153.67
X69.882Y-156.21
X69.882Y-158.75
X69.882Y-163.83
X71.12Y-58.42
X71.12Y-60.96
X73.66Y-58.42
X73.66Y-60.96
X75.733Y-199.39
X75.733Y-201.93
X75.733Y-204.47
X75.733Y-207.01
X75.733Y-209.55
X77.47Y-115.57
X77.47Y-118.11
X77.47Y-120.65
X77.47Y-123.19
X77.47Y-125.73
X77.47Y-128.27
X77.47Y-130.81
X77.47Y-133.35
X77.47Y-135.89
X77.47Y-138.43
X77.47Y-140.97
X77.47Y-143.51
X77.47Y-146.05
X77.47Y-148.59
X77.47Y-151.13
X77.47Y-153.67
X77.47Y-156.21
X77.47Y-158.75
X77.47Y-163.83
X93.98Y-59.69
X96.52Y-59.69
X99.06Y-59.69
X122.76Y-194.368
X122.76Y-199.448
X122.76Y-204.528
X125.095Y-62.23
X125.095Y-67.31
X125.3Y-194.368
X125.3Y-199.448
X125.3Y-204.528
X127.635Y-62.23
X127.635Y-67.31
X127.84Y-194.368
X127.84Y-199.448
X127.84Y-204.528
X130.175Y-62.23
X130.175Y-67.31
X130.81Y-71.755
X132.715Y-62.23
X132.715Y-67.31
X132.757Y-194.368
X133.35Y-71.755
X133.35Y-88.295
X135.255Y-62.23
X135.255Y-67.31
X135.297Y-194.368
X135.89Y-71.755
X135.89Y-88.295
X137.795Y-62.23
X137.795Y-67.31
X137.837Y-194.368
X138.43Y-88.295
X141.08Y-154.226
X143.62Y-154.226
X155.159Y-88.059
X157.699Y-88.059
X160.239Y-88.059
X173.99Y-162.553
X173.99Y-168.695
X176.53Y-162.553
X176.53Y-168.695
X179.07Y-162.553
X179.07Y-168.695
X179.705Y-149.225
X182.245Y-149.225
X184.785Y-65.405
X184.785Y-67.945
X184.785Y-149.225
X187.325Y-65.405
X187.325Y-67.945
X189.865Y-65.405
X189.865Y-67.945
X205.468Y-102.87
X205.468Y-105.41
X207.327Y-54.679
X209.817Y-54.679
X211.823Y-54.679
X214.312Y-54.679
X220.19Y-135.255
X220.19Y-137.795
X225.425Y-135.255
X225.425Y-137.795
X228.6Y-154.94
X228.6Y-157.48
X228.6Y-160.02
X238.76Y-140.97
X241.3Y-140.97
X243.84Y-140.97
X246.38Y-140.97
X248.92Y-140.97
X251.46Y-140.97
X254.0Y-140.97
X255.27Y-182.88
X256.54Y-140.97
X257.81Y-182.88
X260.35Y-182.88
X262.89Y-182.88
X283.21Y-82.55
X283.21Y-87.63
X285.115Y-138.43
X285.115Y-140.97
X285.75Y-82.55
X285.75Y-87.63
X288.29Y-82.55
X288.29Y-87.63
X290.83Y-82.55
X290.83Y-87.63
X293.37Y-82.55
X293.37Y-87.63
X295.91Y-82.55
X295.91Y-87.63
X298.45Y-82.55
X298.45Y-87.63
X299.369Y-70.796
X300.99Y-82.55
X300.99Y-87.63
X301.909Y-70.796
X303.257Y-64.828
X303.257Y-67.368
X303.53Y-82.55
X303.53Y-87.63
X306.07Y-82.55
X306.07Y-87.63
X308.61Y-82.55
X308.61Y-87.63
X311.15Y-82.55
X311.15Y-87.63
X313.69Y-82.55
X313.69Y-87.63
X316.23Y-82.55
X316.23Y-87.63
X318.77Y-82.55
X318.77Y-87.63
X321.31Y-82.55
X321.31Y-87.63
X323.85Y-82.55
X323.85Y-87.63
X326.39Y-82.55
X326.39Y-87.63
X328.93Y-82.55
X328.93Y-87.63
X331.47Y-82.55
X331.47Y-87.63
X334.01Y-82.55
X334.01Y-87.63
X336.55Y-82.55
X336.55Y-87.63
X339.09Y-82.55
X339.09Y-87.63
X341.63Y-82.55
X341.63Y-87.63
X344.17Y-82.55
X344.17Y-87.63
X346.71Y-82.55
X346.71Y-87.63
X349.25Y-82.55
X349.25Y-87.63
X351.79Y-82.55
X351.79Y-87.63
X354.33Y-82.55
X354.33Y-87.63
X356.87Y-82.55
X356.87Y-87.63
X359.41Y-82.55
X359.41Y-87.63
X361.95Y-82.55
X361.95Y-87.63
X374.015Y-87.63
X374.015Y-90.17
X379.095Y-76.835
X379.095Y-79.375
X386.715Y-59.69
X386.715Y-62.23
X386.715Y-64.77
X386.715Y-67.31
X386.715Y-69.85
X386.715Y-72.39
X386.715Y-74.93
T7
X176.52Y-194.305
X176.52Y-196.845
X179.06Y-194.305
X179.06Y-196.845
X181.6Y-194.305
X181.6Y-196.845
X184.032Y-176.53
X184.032Y-179.07
X184.032Y-181.61
X184.032Y-184.15
X184.032Y-186.69
X184.14Y-194.305
X184.14Y-196.845
X186.572Y-176.53
X186.572Y-179.07
X186.572Y-181.61
X186.572Y-184.15
X186.572Y-186.69
X196.732Y-180.975
X196.732Y-183.515
X196.732Y-186.055
X196.732Y-188.595
X196.732Y-191.135
X199.272Y-180.975
X199.272Y-183.515
X199.272Y-186.055
X199.272Y-188.595
X199.272Y-191.135
X206.892Y-180.975
X206.892Y-183.515
X206.892Y-186.055
X206.892Y-188.595
X206.892Y-191.135
X209.433Y-180.975
X209.433Y-183.515
X209.433Y-186.055
X209.433Y-188.595
X209.433Y-191.135
X260.448Y-141.263
X260.448Y-145.887
X268.085Y-203.528
X304.8Y-197.603
X391.795Y-81.915
X394.335Y-79.375
X394.335Y-81.915
X394.335Y-84.455
X396.875Y-79.375
X396.875Y-81.915
X396.875Y-84.455
X401.955Y-79.375
X401.955Y-81.915
X401.955Y-84.455
T8
X19.988Y-148.168
X19.988Y-152.689
X26.169Y-188.932
X26.169Y-191.676
X26.169Y-194.419
X26.169Y-197.162
X28.709Y-187.561
X28.709Y-190.304
X28.709Y-193.047
X28.709Y-195.79
X28.709Y-198.534
X238.484Y-58.723
X239.627Y-56.183
X239.627Y-61.263
X240.77Y-58.723
X241.913Y-56.183
X241.913Y-61.263
X243.056Y-58.723
X244.199Y-56.183
X244.199Y-61.263
X245.342Y-58.723
X246.485Y-56.183
X246.485Y-61.263
X247.628Y-58.723
X248.771Y-56.183
X248.771Y-61.263
X282.608Y-44.149
X287.129Y-44.149
X314.173Y-55.156
X314.173Y-57.696
X314.173Y-60.236
X316.713Y-55.156
X316.713Y-57.696
X316.713Y-60.236
X319.253Y-55.156
X319.253Y-57.696
X319.253Y-60.236
X321.793Y-55.156
X321.793Y-57.696
X321.793Y-60.236
X324.333Y-55.156
X324.333Y-57.696
X324.333Y-60.236
X326.873Y-55.156
X326.873Y-57.696
X326.873Y-60.236
X329.413Y-55.156
X329.413Y-57.696
X329.413Y-60.236
X331.953Y-55.156
X331.953Y-57.696
X331.953Y-60.236
X334.493Y-55.156
X334.493Y-57.696
X334.493Y-60.236
X337.033Y-55.156
X337.033Y-57.696
X337.033Y-60.236
X339.573Y-55.156
X339.573Y-57.696
X339.573Y-60.236
X342.113Y-55.156
X342.113Y-57.696
X342.113Y-60.236
X344.653Y-55.156
X344.653Y-57.696
X344.653Y-60.236
X347.193Y-55.156
X347.193Y-57.696
X347.193Y-60.236
X349.733Y-55.156
X349.733Y-57.696
X349.733Y-60.236
X352.273Y-55.156
X352.273Y-57.696
X352.273Y-60.236
X367.665Y-138.43
X367.665Y-140.97
X367.665Y-143.51
X367.665Y-146.05
X367.665Y-148.59
X370.205Y-138.43
X370.205Y-140.97
X370.205Y-143.51
X370.205Y-146.05
X370.205Y-148.59
T9
X160.02Y-64.77
X160.02Y-67.31
X160.02Y-69.85
T10
X395.237Y-102.413
X395.237Y-105.181
X395.237Y-107.95
X395.237Y-110.719
X395.237Y-113.487
X395.237Y-134.163
X395.237Y-136.931
X395.237Y-139.7
X395.237Y-142.469
X395.237Y-145.237
X398.081Y-103.797
X398.081Y-106.566
X398.081Y-109.334
X398.081Y-112.103
X398.081Y-135.547
X398.081Y-138.316
X398.081Y-141.084
X398.081Y-143.853
T11
X173.452Y-54.48
X175.992Y-44.32
X175.992Y-57.02
X178.532Y-44.32
X181.072Y-54.48
X181.072Y-59.56
X183.612Y-44.32
X186.152Y-44.32
X186.152Y-57.02
X188.692Y-54.48
T12
X153.67Y-58.42
X168.91Y-58.42
T13
X22.477Y-146.923
X22.477Y-153.933
X281.363Y-46.639
X288.373Y-46.639
X375.92Y-161.29
X375.92Y-176.53
T14
X204.254Y-51.961
X217.386Y-51.961
T15
X294.398Y-71.703
X373.265Y-71.703
T16
X20.776Y-216.483
X401.395Y-46.684
T17
X27.439Y-180.525
X27.439Y-205.569
T18
X21.06Y-172.9
X23.746Y-213.69
X24.3Y-62.0
X29.85Y-173.0
X104.8Y-62.0
X196.1Y-62.0
X215.9Y-213.7
X216.17Y-172.937
X390.6Y-49.6
X397.8Y-50.15
X397.83Y-213.599
X401.16Y-172.9
X401.45Y-161.9
T3
X262.324Y-50.912G85X262.324Y-50.112
G05
X263.274Y-58.212G85X262.474Y-58.212
G05
X267.274Y-47.212G85X266.474Y-47.212
G05
X269.524Y-54.012G85X269.524Y-53.212
G05
X271.924Y-55.412G85X271.924Y-54.612
G05
T7
X391.049Y-66.105G85X391.049Y-68.105
G05
X395.149Y-62.305G85X393.149Y-62.305
G05
X397.149Y-66.105G85X397.149Y-68.105
G05
M30
