G04 #@! TF.GenerationSoftware,KiCad,Pcbnew,8.0.6*
G04 #@! TF.CreationDate,2024-11-17T22:41:33+01:00*
G04 #@! TF.ProjectId,cbm_ultipet_v1,63626d5f-756c-4746-9970-65745f76312e,rev?*
G04 #@! TF.SameCoordinates,Original*
G04 #@! TF.FileFunction,Legend,Bot*
G04 #@! TF.FilePolarity,Positive*
%FSLAX46Y46*%
G04 Gerber Fmt 4.6, Leading zero omitted, Abs format (unit mm)*
G04 Created by KiCad (PCBNEW 8.0.6) date 2024-11-17 22:41:33*
%MOMM*%
%LPD*%
G01*
G04 APERTURE LIST*
G04 Aperture macros list*
%AMRoundRect*
0 Rectangle with rounded corners*
0 $1 Rounding radius*
0 $2 $3 $4 $5 $6 $7 $8 $9 X,Y pos of 4 corners*
0 Add a 4 corners polygon primitive as box body*
4,1,4,$2,$3,$4,$5,$6,$7,$8,$9,$2,$3,0*
0 Add four circle primitives for the rounded corners*
1,1,$1+$1,$2,$3*
1,1,$1+$1,$4,$5*
1,1,$1+$1,$6,$7*
1,1,$1+$1,$8,$9*
0 Add four rect primitives between the rounded corners*
20,1,$1+$1,$2,$3,$4,$5,0*
20,1,$1+$1,$4,$5,$6,$7,0*
20,1,$1+$1,$6,$7,$8,$9,0*
20,1,$1+$1,$8,$9,$2,$3,0*%
%AMFreePoly0*
4,1,25,0.333266,0.742596,0.345389,0.732242,0.732242,0.345389,0.760749,0.289441,0.762000,0.273547,0.762000,-0.273547,0.742596,-0.333266,0.732242,-0.345389,0.345389,-0.732242,0.289441,-0.760749,0.273547,-0.762000,-0.273547,-0.762000,-0.333266,-0.742596,-0.345389,-0.732242,-0.732242,-0.345389,-0.760749,-0.289441,-0.762000,-0.273547,-0.762000,0.273547,-0.742596,0.333266,-0.732242,0.345389,
-0.345389,0.732242,-0.289441,0.760749,-0.273547,0.762000,0.273547,0.762000,0.333266,0.742596,0.333266,0.742596,$1*%
%AMFreePoly1*
4,1,25,0.391131,0.882296,0.403254,0.871942,0.871942,0.403254,0.900449,0.347306,0.901700,0.331412,0.901700,-0.331412,0.882296,-0.391131,0.871942,-0.403254,0.403254,-0.871942,0.347306,-0.900449,0.331412,-0.901700,-0.331412,-0.901700,-0.391131,-0.882296,-0.403254,-0.871942,-0.871942,-0.403254,-0.900449,-0.347306,-0.901700,-0.331412,-0.901700,0.331412,-0.882296,0.391131,-0.871942,0.403254,
-0.403254,0.871942,-0.347306,0.900449,-0.331412,0.901700,0.331412,0.901700,0.391131,0.882296,0.391131,0.882296,$1*%
%AMFreePoly2*
4,1,25,0.375350,0.844196,0.387473,0.833842,0.833842,0.387473,0.862349,0.331525,0.863600,0.315631,0.863600,-0.315631,0.844196,-0.375350,0.833842,-0.387473,0.387473,-0.833842,0.331525,-0.862349,0.315631,-0.863600,-0.315631,-0.863600,-0.375350,-0.844196,-0.387473,-0.833842,-0.833842,-0.387473,-0.862349,-0.331525,-0.863600,-0.315631,-0.863600,0.315631,-0.844196,0.375350,-0.833842,0.387473,
-0.387473,0.833842,-0.331525,0.862349,-0.315631,0.863600,0.315631,0.863600,0.375350,0.844196,0.375350,0.844196,$1*%
%AMFreePoly3*
4,1,25,0.322745,0.717196,0.334868,0.706842,0.706842,0.334868,0.735349,0.278920,0.736600,0.263026,0.736600,-0.263026,0.717196,-0.322745,0.706842,-0.334868,0.334868,-0.706842,0.278920,-0.735349,0.263026,-0.736600,-0.263026,-0.736600,-0.322745,-0.717196,-0.334868,-0.706842,-0.706842,-0.334868,-0.735349,-0.278920,-0.736600,-0.263026,-0.736600,0.263026,-0.717196,0.322745,-0.706842,0.334868,
-0.334868,0.706842,-0.278920,0.735349,-0.263026,0.736600,0.263026,0.736600,0.322745,0.717196,0.322745,0.717196,$1*%
%AMFreePoly4*
4,1,25,0.354308,0.793396,0.366431,0.783042,0.783042,0.366431,0.811549,0.310483,0.812800,0.294589,0.812800,-0.294589,0.793396,-0.354308,0.783042,-0.366431,0.366431,-0.783042,0.310483,-0.811549,0.294589,-0.812800,-0.294589,-0.812800,-0.354308,-0.793396,-0.366431,-0.783042,-0.783042,-0.366431,-0.811549,-0.310483,-0.812800,-0.294589,-0.812800,0.294589,-0.793396,0.354308,-0.783042,0.366431,
-0.366431,0.783042,-0.310483,0.811549,-0.294589,0.812800,0.294589,0.812800,0.354308,0.793396,0.354308,0.793396,$1*%
%AMFreePoly5*
4,1,25,0.349047,0.780696,0.361170,0.770342,0.770342,0.361170,0.798849,0.305222,0.800100,0.289328,0.800100,-0.289328,0.780696,-0.349047,0.770342,-0.361170,0.361170,-0.770342,0.305222,-0.798849,0.289328,-0.800100,-0.289328,-0.800100,-0.349047,-0.780696,-0.361170,-0.770342,-0.770342,-0.361170,-0.798849,-0.305222,-0.800100,-0.289328,-0.800100,0.289328,-0.780696,0.349047,-0.770342,0.361170,
-0.361170,0.770342,-0.305222,0.798849,-0.289328,0.800100,0.289328,0.800100,0.349047,0.780696,0.349047,0.780696,$1*%
%AMFreePoly6*
4,1,25,0.470039,1.072796,0.482162,1.062442,1.062442,0.482162,1.090949,0.426214,1.092200,0.410320,1.092200,-0.410320,1.072796,-0.470039,1.062442,-0.482162,0.482162,-1.062442,0.426214,-1.090949,0.410320,-1.092200,-0.410320,-1.092200,-0.470039,-1.072796,-0.482162,-1.062442,-1.062442,-0.482162,-1.090949,-0.426214,-1.092200,-0.410320,-1.092200,0.410320,-1.072796,0.470039,-1.062442,0.482162,
-0.482162,1.062442,-0.426214,1.090949,-0.410320,1.092200,0.410320,1.092200,0.470039,1.072796,0.470039,1.072796,$1*%
G04 Aperture macros list end*
%ADD10C,0.101600*%
%ADD11C,0.127000*%
%ADD12C,0.203200*%
%ADD13C,4.500000*%
%ADD14C,4.600000*%
%ADD15RoundRect,0.051000X0.800000X-0.800000X0.800000X0.800000X-0.800000X0.800000X-0.800000X-0.800000X0*%
%ADD16C,1.702000*%
%ADD17RoundRect,0.051000X-0.800000X-0.800000X0.800000X-0.800000X0.800000X0.800000X-0.800000X0.800000X0*%
%ADD18O,2.844800X1.524000*%
%ADD19C,6.102000*%
%ADD20O,3.048000X1.625600*%
%ADD21RoundRect,0.051000X0.750000X0.750000X-0.750000X0.750000X-0.750000X-0.750000X0.750000X-0.750000X0*%
%ADD22C,1.602000*%
%ADD23O,1.702000X1.702000*%
%ADD24O,1.524000X2.844800*%
%ADD25FreePoly0,270.000000*%
%ADD26C,1.803400*%
%ADD27FreePoly1,90.000000*%
%ADD28FreePoly0,0.000000*%
%ADD29C,3.150000*%
%ADD30FreePoly2,90.000000*%
%ADD31O,2.102000X1.302000*%
%ADD32FreePoly0,90.000000*%
%ADD33RoundRect,0.051000X0.800000X0.800000X-0.800000X0.800000X-0.800000X-0.800000X0.800000X-0.800000X0*%
%ADD34FreePoly0,180.000000*%
%ADD35FreePoly1,0.000000*%
%ADD36FreePoly2,270.000000*%
%ADD37C,2.362200*%
%ADD38RoundRect,0.051000X0.800000X-1.200000X0.800000X1.200000X-0.800000X1.200000X-0.800000X-1.200000X0*%
%ADD39O,1.702000X2.502000*%
%ADD40RoundRect,0.051000X-0.850000X-0.850000X0.850000X-0.850000X0.850000X0.850000X-0.850000X0.850000X0*%
%ADD41RoundRect,0.051000X-0.800000X0.800000X-0.800000X-0.800000X0.800000X-0.800000X0.800000X0.800000X0*%
%ADD42C,1.473200*%
%ADD43FreePoly3,270.000000*%
%ADD44FreePoly1,270.000000*%
%ADD45RoundRect,0.265000X-0.636000X-0.636000X0.636000X-0.636000X0.636000X0.636000X-0.636000X0.636000X0*%
%ADD46C,1.802000*%
%ADD47FreePoly3,0.000000*%
%ADD48FreePoly3,90.000000*%
%ADD49C,1.524000*%
%ADD50O,1.625600X3.048000*%
%ADD51RoundRect,0.388620X0.906780X4.792980X-0.906780X4.792980X-0.906780X-4.792980X0.906780X-4.792980X0*%
%ADD52O,1.802000X1.802000*%
%ADD53RoundRect,0.051000X0.850000X-0.850000X0.850000X0.850000X-0.850000X0.850000X-0.850000X-0.850000X0*%
%ADD54C,5.283200*%
%ADD55C,2.896000*%
%ADD56O,4.394200X2.298700*%
%ADD57O,2.451100X4.699000*%
%ADD58RoundRect,0.388620X-4.792980X0.906780X-4.792980X-0.906780X4.792980X-0.906780X4.792980X0.906780X0*%
%ADD59FreePoly4,270.000000*%
%ADD60O,2.603200X1.403200*%
%ADD61O,1.403200X2.603200*%
%ADD62C,1.625600*%
%ADD63C,3.530600*%
%ADD64O,2.203200X4.203200*%
%ADD65O,4.203200X2.203200*%
%ADD66RoundRect,0.051000X-1.200000X-0.800000X1.200000X-0.800000X1.200000X0.800000X-1.200000X0.800000X0*%
%ADD67O,2.502000X1.702000*%
%ADD68C,1.727200*%
%ADD69C,1.626000*%
%ADD70O,1.602000X2.102000*%
%ADD71C,3.404000*%
%ADD72O,3.556000X1.879600*%
%ADD73FreePoly4,0.000000*%
%ADD74FreePoly2,180.000000*%
%ADD75C,1.611200*%
%ADD76C,1.600200*%
%ADD77FreePoly5,90.000000*%
%ADD78FreePoly4,180.000000*%
%ADD79FreePoly6,180.000000*%
%ADD80C,2.184400*%
%ADD81C,2.082800*%
%ADD82C,1.981200*%
%ADD83C,4.013200*%
%ADD84O,1.302000X2.102000*%
%ADD85FreePoly4,90.000000*%
%ADD86RoundRect,0.101600X0.500000X-0.550000X0.500000X0.550000X-0.500000X0.550000X-0.500000X-0.550000X0*%
%ADD87RoundRect,0.101600X-0.500000X0.550000X-0.500000X-0.550000X0.500000X-0.550000X0.500000X0.550000X0*%
G04 APERTURE END LIST*
D10*
X124770519Y-54793046D02*
X125159986Y-54793046D01*
X125159986Y-55405065D02*
X125159986Y-54236665D01*
X125159986Y-54236665D02*
X124603605Y-54236665D01*
X26853774Y-82802824D02*
X26853774Y-83359205D01*
X27187603Y-82691548D02*
X26019203Y-83081014D01*
X26019203Y-83081014D02*
X27187603Y-83470481D01*
X27187603Y-126333586D02*
X26019203Y-126333586D01*
X26019203Y-126333586D02*
X27187603Y-127001243D01*
X27187603Y-127001243D02*
X26019203Y-127001243D01*
X330575449Y-157662319D02*
X330631088Y-157606681D01*
X330631088Y-157606681D02*
X330686726Y-157439767D01*
X330686726Y-157439767D02*
X330686726Y-157328491D01*
X330686726Y-157328491D02*
X330631088Y-157161576D01*
X330631088Y-157161576D02*
X330519811Y-157050300D01*
X330519811Y-157050300D02*
X330408535Y-156994662D01*
X330408535Y-156994662D02*
X330185983Y-156939024D01*
X330185983Y-156939024D02*
X330019068Y-156939024D01*
X330019068Y-156939024D02*
X329796516Y-156994662D01*
X329796516Y-156994662D02*
X329685240Y-157050300D01*
X329685240Y-157050300D02*
X329573964Y-157161576D01*
X329573964Y-157161576D02*
X329518326Y-157328491D01*
X329518326Y-157328491D02*
X329518326Y-157439767D01*
X329518326Y-157439767D02*
X329573964Y-157606681D01*
X329573964Y-157606681D02*
X329629602Y-157662319D01*
X330686726Y-158775081D02*
X330686726Y-158107424D01*
X330686726Y-158441252D02*
X329518326Y-158441252D01*
X329518326Y-158441252D02*
X329685240Y-158329976D01*
X329685240Y-158329976D02*
X329796516Y-158218700D01*
X329796516Y-158218700D02*
X329852154Y-158107424D01*
X329518326Y-159498376D02*
X329518326Y-159609653D01*
X329518326Y-159609653D02*
X329573964Y-159720929D01*
X329573964Y-159720929D02*
X329629602Y-159776567D01*
X329629602Y-159776567D02*
X329740878Y-159832205D01*
X329740878Y-159832205D02*
X329963430Y-159887843D01*
X329963430Y-159887843D02*
X330241621Y-159887843D01*
X330241621Y-159887843D02*
X330464173Y-159832205D01*
X330464173Y-159832205D02*
X330575449Y-159776567D01*
X330575449Y-159776567D02*
X330631088Y-159720929D01*
X330631088Y-159720929D02*
X330686726Y-159609653D01*
X330686726Y-159609653D02*
X330686726Y-159498376D01*
X330686726Y-159498376D02*
X330631088Y-159387100D01*
X330631088Y-159387100D02*
X330575449Y-159331462D01*
X330575449Y-159331462D02*
X330464173Y-159275824D01*
X330464173Y-159275824D02*
X330241621Y-159220186D01*
X330241621Y-159220186D02*
X329963430Y-159220186D01*
X329963430Y-159220186D02*
X329740878Y-159275824D01*
X329740878Y-159275824D02*
X329629602Y-159331462D01*
X329629602Y-159331462D02*
X329573964Y-159387100D01*
X329573964Y-159387100D02*
X329518326Y-159498376D01*
X330686726Y-160444224D02*
X330686726Y-160666776D01*
X330686726Y-160666776D02*
X330631088Y-160778053D01*
X330631088Y-160778053D02*
X330575449Y-160833691D01*
X330575449Y-160833691D02*
X330408535Y-160944967D01*
X330408535Y-160944967D02*
X330185983Y-161000605D01*
X330185983Y-161000605D02*
X329740878Y-161000605D01*
X329740878Y-161000605D02*
X329629602Y-160944967D01*
X329629602Y-160944967D02*
X329573964Y-160889329D01*
X329573964Y-160889329D02*
X329518326Y-160778053D01*
X329518326Y-160778053D02*
X329518326Y-160555500D01*
X329518326Y-160555500D02*
X329573964Y-160444224D01*
X329573964Y-160444224D02*
X329629602Y-160388586D01*
X329629602Y-160388586D02*
X329740878Y-160332948D01*
X329740878Y-160332948D02*
X330019068Y-160332948D01*
X330019068Y-160332948D02*
X330130345Y-160388586D01*
X330130345Y-160388586D02*
X330185983Y-160444224D01*
X330185983Y-160444224D02*
X330241621Y-160555500D01*
X330241621Y-160555500D02*
X330241621Y-160778053D01*
X330241621Y-160778053D02*
X330185983Y-160889329D01*
X330185983Y-160889329D02*
X330130345Y-160944967D01*
X330130345Y-160944967D02*
X330019068Y-161000605D01*
X329940449Y-176272689D02*
X329996088Y-176217051D01*
X329996088Y-176217051D02*
X330051726Y-176050137D01*
X330051726Y-176050137D02*
X330051726Y-175938861D01*
X330051726Y-175938861D02*
X329996088Y-175771946D01*
X329996088Y-175771946D02*
X329884811Y-175660670D01*
X329884811Y-175660670D02*
X329773535Y-175605032D01*
X329773535Y-175605032D02*
X329550983Y-175549394D01*
X329550983Y-175549394D02*
X329384068Y-175549394D01*
X329384068Y-175549394D02*
X329161516Y-175605032D01*
X329161516Y-175605032D02*
X329050240Y-175660670D01*
X329050240Y-175660670D02*
X328938964Y-175771946D01*
X328938964Y-175771946D02*
X328883326Y-175938861D01*
X328883326Y-175938861D02*
X328883326Y-176050137D01*
X328883326Y-176050137D02*
X328938964Y-176217051D01*
X328938964Y-176217051D02*
X328994602Y-176272689D01*
X330051726Y-177385451D02*
X330051726Y-176717794D01*
X330051726Y-177051622D02*
X328883326Y-177051622D01*
X328883326Y-177051622D02*
X329050240Y-176940346D01*
X329050240Y-176940346D02*
X329161516Y-176829070D01*
X329161516Y-176829070D02*
X329217154Y-176717794D01*
X328994602Y-177830556D02*
X328938964Y-177886194D01*
X328938964Y-177886194D02*
X328883326Y-177997470D01*
X328883326Y-177997470D02*
X328883326Y-178275661D01*
X328883326Y-178275661D02*
X328938964Y-178386937D01*
X328938964Y-178386937D02*
X328994602Y-178442575D01*
X328994602Y-178442575D02*
X329105878Y-178498213D01*
X329105878Y-178498213D02*
X329217154Y-178498213D01*
X329217154Y-178498213D02*
X329384068Y-178442575D01*
X329384068Y-178442575D02*
X330051726Y-177774918D01*
X330051726Y-177774918D02*
X330051726Y-178498213D01*
X328883326Y-178887680D02*
X328883326Y-179610975D01*
X328883326Y-179610975D02*
X329328430Y-179221508D01*
X329328430Y-179221508D02*
X329328430Y-179388423D01*
X329328430Y-179388423D02*
X329384068Y-179499699D01*
X329384068Y-179499699D02*
X329439707Y-179555337D01*
X329439707Y-179555337D02*
X329550983Y-179610975D01*
X329550983Y-179610975D02*
X329829173Y-179610975D01*
X329829173Y-179610975D02*
X329940449Y-179555337D01*
X329940449Y-179555337D02*
X329996088Y-179499699D01*
X329996088Y-179499699D02*
X330051726Y-179388423D01*
X330051726Y-179388423D02*
X330051726Y-179054594D01*
X330051726Y-179054594D02*
X329996088Y-178943318D01*
X329996088Y-178943318D02*
X329940449Y-178887680D01*
D11*
X121473565Y-44153750D02*
X121473565Y-53678750D01*
X121473565Y-53678750D02*
X121092565Y-53678750D01*
X147127565Y-42883750D02*
X122743565Y-42883750D01*
X148397565Y-53678750D02*
X148397565Y-44153750D01*
X148778565Y-53678750D02*
X148397565Y-53678750D01*
X121473565Y-44153750D02*
G75*
G02*
X122743565Y-42883750I1270000J0D01*
G01*
X147127565Y-42883750D02*
G75*
G02*
X148397565Y-44153750I1J-1269999D01*
G01*
X15905877Y-80744215D02*
X15905877Y-129004215D01*
X17175877Y-130274215D02*
X26700877Y-130274215D01*
X26700877Y-79093215D02*
X26700877Y-79474215D01*
X26700877Y-79474215D02*
X17175877Y-79474215D01*
X26700877Y-130274215D02*
X26700877Y-130655215D01*
X15905877Y-80744215D02*
G75*
G02*
X17175877Y-79474215I1269999J1D01*
G01*
X17175877Y-130274215D02*
G75*
G02*
X15905877Y-129004215I0J1270000D01*
G01*
X36249750Y-44151750D02*
X36249750Y-53676750D01*
X36249750Y-53676750D02*
X35868750Y-53676750D01*
X85779750Y-42881750D02*
X37519750Y-42881750D01*
X87049750Y-53676750D02*
X87049750Y-44151750D01*
X87430750Y-53676750D02*
X87049750Y-53676750D01*
X36249750Y-44151750D02*
G75*
G02*
X37519750Y-42881750I1270000J0D01*
G01*
X85779750Y-42881750D02*
G75*
G02*
X87049750Y-44151750I1J-1269999D01*
G01*
D12*
X366122000Y-137795000D02*
X366122000Y-139065000D01*
%LPC*%
D13*
X294397678Y-71702662D02*
X294397678Y-71703662D01*
D14*
X373264678Y-71702662D02*
X373264678Y-71703662D01*
D15*
X233299000Y-142048113D03*
D16*
X233299000Y-139548113D03*
D17*
X264351888Y-128524000D03*
D16*
X266851888Y-128524000D03*
D18*
X179772652Y-95250000D03*
X179772652Y-97790000D03*
X179772652Y-100330000D03*
X179772652Y-102870000D03*
X179772652Y-105410000D03*
X179772652Y-107950000D03*
X179772652Y-110490000D03*
X187392652Y-110490000D03*
X187392652Y-107950000D03*
X187392652Y-105410000D03*
X187392652Y-102870000D03*
X187392652Y-100330000D03*
X187392652Y-97790000D03*
X187392652Y-95250000D03*
D19*
X196100000Y-62000000D03*
D20*
X69882208Y-163830000D03*
X69882208Y-158750000D03*
X69882208Y-156210000D03*
X69882208Y-153670000D03*
X69882208Y-151130000D03*
X69882208Y-148590000D03*
X69882208Y-146050000D03*
X69882208Y-143510000D03*
X69882208Y-140970000D03*
X69882208Y-138430000D03*
X69882208Y-135890000D03*
X69882208Y-133350000D03*
X69882208Y-130810000D03*
X69882208Y-128270000D03*
X69882208Y-125730000D03*
X69882208Y-123190000D03*
X69882208Y-120650000D03*
X69882208Y-118110000D03*
X69882208Y-115570000D03*
D21*
X147330000Y-70485000D03*
D22*
X144790000Y-70485000D03*
X142250000Y-70485000D03*
D15*
X379095000Y-152400000D03*
D23*
X379095000Y-144780000D03*
D24*
X359958100Y-193675000D03*
X362498100Y-193675000D03*
X365038100Y-193675000D03*
X367578100Y-193675000D03*
X367578100Y-186055000D03*
X365038100Y-186055000D03*
X362498100Y-186055000D03*
X359958100Y-186055000D03*
D25*
X126746000Y-209804000D03*
X126746000Y-212344000D03*
D19*
X29850000Y-173000000D03*
D26*
X393700000Y-57150000D03*
D27*
X393700000Y-54610000D03*
D25*
X197485000Y-194310000D03*
X197485000Y-201930000D03*
D20*
X32385000Y-74930000D03*
X32385000Y-72390000D03*
D25*
X224155000Y-180340000D03*
X224155000Y-190500000D03*
X217170000Y-194310000D03*
X217170000Y-201930000D03*
D18*
X92272410Y-92710000D03*
X92272410Y-95250000D03*
X92272410Y-97790000D03*
X92272410Y-100330000D03*
X92272410Y-102870000D03*
X92272410Y-105410000D03*
X92272410Y-107950000D03*
X92272410Y-110490000D03*
X92272410Y-113030000D03*
X92272410Y-115570000D03*
X92272410Y-118110000D03*
X92272410Y-120650000D03*
X92272410Y-123190000D03*
X92272410Y-125730000D03*
X92272410Y-128270000D03*
X92272410Y-130810000D03*
X92272410Y-133350000D03*
X92272410Y-135890000D03*
X92272410Y-138430000D03*
X92272410Y-140970000D03*
X107512410Y-140970000D03*
X107512410Y-138430000D03*
X107512410Y-135890000D03*
X107512410Y-133350000D03*
X107512410Y-130810000D03*
X107512410Y-128270000D03*
X107512410Y-125730000D03*
X107512410Y-123190000D03*
X107512410Y-120650000D03*
X107512410Y-118110000D03*
X107512410Y-115570000D03*
X107512410Y-113030000D03*
X107512410Y-110490000D03*
X107512410Y-107950000D03*
X107512410Y-105410000D03*
X107512410Y-102870000D03*
X107512410Y-100330000D03*
X107512410Y-97790000D03*
X107512410Y-95250000D03*
X107512410Y-92710000D03*
D28*
X258445000Y-178435000D03*
X260985000Y-178435000D03*
D29*
X396659900Y-152146000D03*
X396659900Y-127254000D03*
D30*
X395237500Y-145237200D03*
X395237500Y-142468600D03*
X395237500Y-139700000D03*
X395237500Y-136931400D03*
X395237500Y-134162800D03*
X398081100Y-143852900D03*
X398081100Y-141084300D03*
X398081100Y-138315700D03*
X398081100Y-135547100D03*
D28*
X370205000Y-212725000D03*
X377825000Y-212725000D03*
D18*
X193675000Y-95250000D03*
X193675000Y-97790000D03*
X193675000Y-100330000D03*
X193675000Y-102870000D03*
X193675000Y-105410000D03*
X193675000Y-107950000D03*
X193675000Y-110490000D03*
X201295000Y-110490000D03*
X201295000Y-107950000D03*
X201295000Y-105410000D03*
X201295000Y-102870000D03*
X201295000Y-100330000D03*
X201295000Y-97790000D03*
X201295000Y-95250000D03*
D31*
X278989828Y-55501408D03*
X278989828Y-57501408D03*
X278989828Y-59501408D03*
X278989828Y-53501408D03*
X278989828Y-51501408D03*
X278989828Y-61501408D03*
D20*
X220190344Y-137795000D03*
X220190344Y-135255000D03*
D19*
X397830000Y-213598652D03*
D24*
X74930000Y-66675000D03*
X77470000Y-66675000D03*
X80010000Y-66675000D03*
X82550000Y-66675000D03*
X85090000Y-66675000D03*
X87630000Y-66675000D03*
X90170000Y-66675000D03*
X92710000Y-66675000D03*
X95250000Y-66675000D03*
D32*
X368935000Y-166370000D03*
X368935000Y-163830000D03*
D15*
X386080000Y-121920000D03*
D23*
X386080000Y-114300000D03*
D33*
X244830600Y-79623800D03*
D23*
X237210600Y-79623800D03*
D28*
X343535000Y-212725000D03*
X346075000Y-212725000D03*
D32*
X208280000Y-72390000D03*
X208280000Y-64770000D03*
D34*
X274637500Y-74612500D03*
X272097500Y-74612500D03*
X207010000Y-118110000D03*
X204470000Y-118110000D03*
D26*
X373380000Y-55880000D03*
D35*
X375920000Y-55880000D03*
D32*
X174625000Y-81280000D03*
X174625000Y-78740000D03*
D36*
X19988218Y-148167670D03*
X19988218Y-152688870D03*
D37*
X22477418Y-146923070D03*
X22477418Y-153933470D03*
D25*
X262255000Y-64516000D03*
X262255000Y-67056000D03*
X114935000Y-161290000D03*
X114935000Y-163830000D03*
D18*
X172787652Y-92710000D03*
X172787652Y-95250000D03*
X172787652Y-97790000D03*
X172787652Y-100330000D03*
X172787652Y-102870000D03*
X172787652Y-105410000D03*
X172787652Y-107950000D03*
X172787652Y-110490000D03*
D20*
X372745000Y-85090000D03*
X372745000Y-87630000D03*
D38*
X280658363Y-73523214D03*
D39*
X283198363Y-73523214D03*
X285738363Y-73523214D03*
X288278363Y-73523214D03*
X288278363Y-65903214D03*
X285738363Y-65903214D03*
X283198363Y-65903214D03*
X280658363Y-65903214D03*
D15*
X389255000Y-142240000D03*
D23*
X389255000Y-134620000D03*
D29*
X396659900Y-120396000D03*
X396659900Y-95504000D03*
D30*
X395237500Y-113487200D03*
X395237500Y-110718600D03*
X395237500Y-107950000D03*
X395237500Y-105181400D03*
X395237500Y-102412800D03*
X398081100Y-112102900D03*
X398081100Y-109334300D03*
X398081100Y-106565700D03*
X398081100Y-103797100D03*
D25*
X205740000Y-172720000D03*
X205740000Y-180340000D03*
D32*
X354965000Y-191135000D03*
X354965000Y-188595000D03*
D18*
X135763000Y-217551000D03*
X125603000Y-217551000D03*
D15*
X381000000Y-121920000D03*
D23*
X381000000Y-114300000D03*
D28*
X215900000Y-97790000D03*
X210820000Y-97790000D03*
D32*
X102235000Y-74930000D03*
X102235000Y-72390000D03*
D40*
X304800121Y-197602658D03*
D34*
X184852652Y-91440000D03*
X182312652Y-91440000D03*
D41*
X264955000Y-86360000D03*
D23*
X264955000Y-93980000D03*
D28*
X139700000Y-217805000D03*
X147320000Y-217805000D03*
D19*
X216170000Y-172937116D03*
D18*
X171398983Y-213537870D03*
X163778983Y-213537870D03*
D42*
X292989000Y-65532000D03*
D43*
X292989000Y-67564000D03*
D26*
X39099517Y-165095696D03*
D44*
X39099517Y-167635696D03*
D34*
X86360000Y-211455000D03*
X78740000Y-211455000D03*
D32*
X147555953Y-192947597D03*
X147555953Y-190407597D03*
X211268152Y-72397100D03*
X211268152Y-64777100D03*
D45*
X206257500Y-149860000D03*
D46*
X208797500Y-149860000D03*
X206257500Y-152400000D03*
X208797500Y-152400000D03*
X206257500Y-154940000D03*
X208797500Y-154940000D03*
X206257500Y-157480000D03*
X208797500Y-157480000D03*
X206257500Y-160020000D03*
X208797500Y-160020000D03*
D19*
X23746110Y-213689571D03*
D18*
X290195000Y-202478100D03*
X290195000Y-205018100D03*
X290195000Y-207558100D03*
X290195000Y-210098100D03*
X297815000Y-210098100D03*
X297815000Y-207558100D03*
X297815000Y-205018100D03*
X297815000Y-202478100D03*
D15*
X381000000Y-111760000D03*
D23*
X381000000Y-104140000D03*
D32*
X63500000Y-208280000D03*
X63500000Y-198120000D03*
D20*
X233680000Y-161290000D03*
X233680000Y-158750000D03*
X233680000Y-156210000D03*
X233680000Y-153670000D03*
D15*
X383540000Y-111760000D03*
D23*
X383540000Y-104140000D03*
D26*
X37519751Y-140548568D03*
D44*
X37519751Y-143088568D03*
D34*
X75536943Y-88900000D03*
X72996943Y-88900000D03*
D32*
X144625553Y-192947597D03*
X144625553Y-190407597D03*
D28*
X244695600Y-84678800D03*
X247235600Y-84678800D03*
D42*
X189484000Y-180975000D03*
D47*
X191516000Y-180975000D03*
D24*
X60325000Y-71120000D03*
X57785000Y-71120000D03*
X55245000Y-71120000D03*
X52705000Y-71120000D03*
X50165000Y-71120000D03*
X47625000Y-71120000D03*
X45085000Y-71120000D03*
X42545000Y-71120000D03*
X40005000Y-71120000D03*
D42*
X140335000Y-157226000D03*
D48*
X140335000Y-155194000D03*
D26*
X359410000Y-134620000D03*
D35*
X361950000Y-134620000D03*
D33*
X244830600Y-76123800D03*
D23*
X237210600Y-76123800D03*
D25*
X203878388Y-194310000D03*
X203878388Y-201930000D03*
D26*
X367705000Y-75015000D03*
D44*
X367705000Y-77555000D03*
D18*
X119380000Y-156210000D03*
X119380000Y-158750000D03*
X119380000Y-161290000D03*
X119380000Y-163830000D03*
X119380000Y-166370000D03*
X119380000Y-168910000D03*
X119380000Y-171450000D03*
X119380000Y-173990000D03*
X119380000Y-176530000D03*
X119380000Y-179070000D03*
X119380000Y-181610000D03*
X119380000Y-184150000D03*
X119380000Y-186690000D03*
X119380000Y-189230000D03*
X134620000Y-189230000D03*
X134620000Y-186690000D03*
X134620000Y-184150000D03*
X134620000Y-181610000D03*
X134620000Y-179070000D03*
X134620000Y-176530000D03*
X134620000Y-173990000D03*
X134620000Y-171450000D03*
X134620000Y-168910000D03*
X134620000Y-166370000D03*
X134620000Y-163830000D03*
X134620000Y-161290000D03*
X134620000Y-158750000D03*
X134620000Y-156210000D03*
D49*
X38735000Y-209550000D03*
X53975000Y-209550000D03*
X53975000Y-201930000D03*
X38735000Y-201930000D03*
D33*
X244830600Y-71623800D03*
D23*
X237210600Y-71623800D03*
D40*
X268085438Y-203527695D03*
D28*
X81280000Y-167640000D03*
X83820000Y-167640000D03*
D32*
X190500000Y-201930000D03*
X190500000Y-194310000D03*
D18*
X217170000Y-105410000D03*
X209550000Y-105410000D03*
D32*
X236757617Y-104363142D03*
X236757617Y-96743142D03*
D25*
X145325872Y-56515000D03*
X145325872Y-66675000D03*
D50*
X130810000Y-71755000D03*
X133350000Y-71755000D03*
X135890000Y-71755000D03*
D26*
X360680000Y-149225000D03*
D44*
X360680000Y-151765000D03*
D19*
X401160000Y-172900000D03*
D32*
X187325000Y-201930000D03*
X187325000Y-194310000D03*
D18*
X370840000Y-129540000D03*
X370840000Y-127000000D03*
X370840000Y-124460000D03*
X370840000Y-121920000D03*
X370840000Y-119380000D03*
X370840000Y-116840000D03*
X370840000Y-114300000D03*
X370840000Y-111760000D03*
X370840000Y-109220000D03*
D34*
X339725000Y-212725000D03*
X337185000Y-212725000D03*
X86360000Y-214630000D03*
X78740000Y-214630000D03*
D28*
X294640000Y-189865000D03*
X297180000Y-189865000D03*
D20*
X106045000Y-217170000D03*
X106045000Y-214630000D03*
X106045000Y-212090000D03*
D15*
X384175000Y-142240000D03*
D23*
X384175000Y-134620000D03*
D51*
X144841565Y-48598750D03*
X140879165Y-48598750D03*
X136916765Y-48598750D03*
X132954365Y-48598750D03*
X128991965Y-48598750D03*
X125029565Y-48598750D03*
D25*
X288925000Y-138430000D03*
X288925000Y-140970000D03*
X131064000Y-209804000D03*
X131064000Y-212344000D03*
D19*
X390600000Y-49600000D03*
D26*
X163830000Y-197485000D03*
D35*
X166370000Y-197485000D03*
D15*
X386715000Y-142240000D03*
D23*
X386715000Y-134620000D03*
D24*
X40005000Y-83820000D03*
X42545000Y-83820000D03*
X45085000Y-83820000D03*
X47625000Y-83820000D03*
X50165000Y-83820000D03*
X52705000Y-83820000D03*
X55245000Y-83820000D03*
X57785000Y-83820000D03*
X60325000Y-83820000D03*
X62865000Y-83820000D03*
X62865000Y-76200000D03*
X60325000Y-76200000D03*
X57785000Y-76200000D03*
X55245000Y-76200000D03*
X52705000Y-76200000D03*
X50165000Y-76200000D03*
X47625000Y-76200000D03*
X45085000Y-76200000D03*
X42545000Y-76200000D03*
X40005000Y-76200000D03*
D28*
X238345600Y-84678800D03*
X240885600Y-84678800D03*
D49*
X256712105Y-157453622D03*
X259252105Y-157453622D03*
D15*
X378460000Y-121920000D03*
D23*
X378460000Y-114300000D03*
D25*
X130175000Y-202565000D03*
X130175000Y-205105000D03*
D28*
X258445000Y-175260000D03*
X260985000Y-175260000D03*
X78740000Y-217805000D03*
X86360000Y-217805000D03*
D42*
X140335000Y-162306000D03*
D48*
X140335000Y-160274000D03*
D25*
X89535000Y-160655000D03*
X89535000Y-163195000D03*
D15*
X384175000Y-152400000D03*
D23*
X384175000Y-144780000D03*
D18*
X45720000Y-149860000D03*
X45720000Y-152400000D03*
X45720000Y-154940000D03*
X45720000Y-157480000D03*
X45720000Y-160020000D03*
X45720000Y-162560000D03*
X45720000Y-165100000D03*
X45720000Y-167640000D03*
X53340000Y-167640000D03*
X53340000Y-165100000D03*
X53340000Y-162560000D03*
X53340000Y-160020000D03*
X53340000Y-157480000D03*
X53340000Y-154940000D03*
X53340000Y-152400000D03*
X53340000Y-149860000D03*
D28*
X154305000Y-211455000D03*
X153035000Y-209550000D03*
X151765000Y-211455000D03*
X127635000Y-150495000D03*
X130175000Y-150495000D03*
D20*
X386715000Y-59690000D03*
X386715000Y-62230000D03*
X386715000Y-64770000D03*
X386715000Y-67310000D03*
X386715000Y-69850000D03*
X386715000Y-72390000D03*
X386715000Y-74930000D03*
D24*
X130810000Y-83820000D03*
X133350000Y-83820000D03*
X135890000Y-83820000D03*
X138430000Y-83820000D03*
X140970000Y-83820000D03*
X143510000Y-83820000D03*
X146050000Y-83820000D03*
X146050000Y-76200000D03*
X143510000Y-76200000D03*
X140970000Y-76200000D03*
X138430000Y-76200000D03*
X135890000Y-76200000D03*
X133350000Y-76200000D03*
X130810000Y-76200000D03*
D50*
X137795000Y-62230000D03*
X135255000Y-62230000D03*
X132715000Y-62230000D03*
X130175000Y-62230000D03*
X127635000Y-62230000D03*
X125095000Y-62230000D03*
D25*
X376555000Y-86182200D03*
X376555000Y-88722200D03*
D40*
X172080000Y-158760000D03*
D52*
X174620000Y-158760000D03*
X172080000Y-161300000D03*
X174620000Y-161300000D03*
X172080000Y-163840000D03*
X174620000Y-163840000D03*
X172080000Y-166380000D03*
X174620000Y-166380000D03*
D18*
X184057362Y-207570606D03*
X176437362Y-207570606D03*
D25*
X201930000Y-172720000D03*
X201930000Y-180340000D03*
D53*
X248996200Y-107421600D03*
D52*
X248996200Y-104881600D03*
X251536200Y-107421600D03*
X251536200Y-104881600D03*
X254076200Y-107421600D03*
X254076200Y-104881600D03*
X256616200Y-107421600D03*
X256616200Y-104881600D03*
X259156200Y-107421600D03*
X259156200Y-104881600D03*
X261696200Y-107421600D03*
X261696200Y-104881600D03*
D19*
X24300000Y-62000000D03*
D25*
X237490000Y-159385000D03*
X237490000Y-161925000D03*
X207645000Y-194310000D03*
X207645000Y-201930000D03*
D50*
X304165000Y-66294000D03*
X306705000Y-66294000D03*
D28*
X98425000Y-88900000D03*
X100965000Y-88900000D03*
D32*
X233858072Y-104479124D03*
X233858072Y-96859124D03*
D25*
X194353388Y-194310000D03*
X194353388Y-201930000D03*
D20*
X115570000Y-217170000D03*
X115570000Y-214630000D03*
X115570000Y-212090000D03*
D26*
X354965000Y-200025000D03*
D35*
X357505000Y-200025000D03*
D28*
X144780000Y-88265000D03*
X147320000Y-88265000D03*
D32*
X229235000Y-177165000D03*
X229235000Y-169545000D03*
D18*
X171374817Y-216561816D03*
X163754817Y-216561816D03*
D15*
X388620000Y-111760000D03*
D23*
X388620000Y-104140000D03*
D36*
X28708672Y-187560753D03*
X28708672Y-190303953D03*
X28708672Y-193047153D03*
X28708672Y-195790353D03*
X28708672Y-198533553D03*
X26168672Y-188932353D03*
X26168672Y-191675553D03*
X26168672Y-194418753D03*
X26168672Y-197161953D03*
D54*
X27438672Y-180524953D03*
X27438672Y-205569353D03*
D55*
X309086200Y-52616100D03*
X357359000Y-52616100D03*
D30*
X314172600Y-55156100D03*
X316712600Y-55156100D03*
X319252600Y-55156100D03*
X321792600Y-55156100D03*
X324332600Y-55156100D03*
X326872600Y-55156100D03*
X329412600Y-55156100D03*
X331952600Y-55156100D03*
X334492600Y-55156100D03*
X337032600Y-55156100D03*
X339572600Y-55156100D03*
X342112600Y-55156100D03*
X344652600Y-55156100D03*
X347192600Y-55156100D03*
X349732600Y-55156100D03*
X352272600Y-55156100D03*
X314172600Y-57696100D03*
X316712600Y-57696100D03*
X319252600Y-57696100D03*
X321792600Y-57696100D03*
X324332600Y-57696100D03*
X326872600Y-57696100D03*
X329412600Y-57696100D03*
X331952600Y-57696100D03*
X334492600Y-57696100D03*
X337032600Y-57696100D03*
X339572600Y-57696100D03*
X342112600Y-57696100D03*
X344652600Y-57696100D03*
X347192600Y-57696100D03*
X349732600Y-57696100D03*
X352272600Y-57696100D03*
X314172600Y-60236100D03*
X316712600Y-60236100D03*
X319252600Y-60236100D03*
X321792600Y-60236100D03*
X324332600Y-60236100D03*
X326872600Y-60236100D03*
X329412600Y-60236100D03*
X331952600Y-60236100D03*
X334492600Y-60236100D03*
X337032600Y-60236100D03*
X339572600Y-60236100D03*
X342112600Y-60236100D03*
X344652600Y-60236100D03*
X347192600Y-60236100D03*
X349732600Y-60236100D03*
X352272600Y-60236100D03*
D28*
X189865000Y-118110000D03*
X192405000Y-118110000D03*
D25*
X277368000Y-65151000D03*
X277368000Y-67691000D03*
D34*
X225425000Y-150495000D03*
X222885000Y-150495000D03*
D56*
X168910000Y-58420000D03*
X153670000Y-58420000D03*
D18*
X226060000Y-57785000D03*
X226060000Y-60325000D03*
X226060000Y-62865000D03*
X226060000Y-65405000D03*
X226060000Y-67945000D03*
X226060000Y-70485000D03*
X226060000Y-73025000D03*
X226060000Y-75565000D03*
D50*
X243840000Y-140970000D03*
X256540000Y-140970000D03*
X246380000Y-140970000D03*
X248920000Y-140970000D03*
X254000000Y-140970000D03*
X241300000Y-140970000D03*
X251460000Y-140970000D03*
X238760000Y-140970000D03*
D25*
X213995000Y-194310000D03*
X213995000Y-201930000D03*
D20*
X205467975Y-102870000D03*
X205467975Y-105410000D03*
D18*
X148590000Y-92710000D03*
X148590000Y-95250000D03*
X148590000Y-97790000D03*
X148590000Y-100330000D03*
X148590000Y-102870000D03*
X148590000Y-105410000D03*
X148590000Y-107950000D03*
X148590000Y-110490000D03*
X148590000Y-113030000D03*
X148590000Y-115570000D03*
X148590000Y-118110000D03*
X148590000Y-120650000D03*
X148590000Y-123190000D03*
X148590000Y-125730000D03*
X148590000Y-128270000D03*
X148590000Y-130810000D03*
X148590000Y-133350000D03*
X148590000Y-135890000D03*
X148590000Y-138430000D03*
X148590000Y-140970000D03*
X163830000Y-140970000D03*
X163830000Y-138430000D03*
X163830000Y-135890000D03*
X163830000Y-133350000D03*
X163830000Y-130810000D03*
X163830000Y-128270000D03*
X163830000Y-125730000D03*
X163830000Y-123190000D03*
X163830000Y-120650000D03*
X163830000Y-118110000D03*
X163830000Y-115570000D03*
X163830000Y-113030000D03*
X163830000Y-110490000D03*
X163830000Y-107950000D03*
X163830000Y-105410000D03*
X163830000Y-102870000D03*
X163830000Y-100330000D03*
X163830000Y-97790000D03*
X163830000Y-95250000D03*
X163830000Y-92710000D03*
X95250000Y-156210000D03*
X95250000Y-158750000D03*
X95250000Y-161290000D03*
X95250000Y-163830000D03*
X95250000Y-166370000D03*
X95250000Y-168910000D03*
X95250000Y-171450000D03*
X95250000Y-173990000D03*
X95250000Y-176530000D03*
X95250000Y-179070000D03*
X95250000Y-181610000D03*
X95250000Y-184150000D03*
X95250000Y-186690000D03*
X95250000Y-189230000D03*
X110490000Y-189230000D03*
X110490000Y-186690000D03*
X110490000Y-184150000D03*
X110490000Y-181610000D03*
X110490000Y-179070000D03*
X110490000Y-176530000D03*
X110490000Y-173990000D03*
X110490000Y-171450000D03*
X110490000Y-168910000D03*
X110490000Y-166370000D03*
X110490000Y-163830000D03*
X110490000Y-161290000D03*
X110490000Y-158750000D03*
X110490000Y-156210000D03*
X184150000Y-216535000D03*
X176530000Y-216535000D03*
D57*
X379095000Y-163195000D03*
X379095000Y-178435000D03*
D28*
X162560000Y-154305000D03*
X165100000Y-154305000D03*
X356235000Y-212725000D03*
X363855000Y-212725000D03*
D58*
X21620877Y-83081015D03*
X21620877Y-87043415D03*
X21620877Y-91005815D03*
X21620877Y-94968215D03*
X21620877Y-98930615D03*
X21620877Y-102893015D03*
X21620877Y-106855415D03*
X21620877Y-110817815D03*
X21620877Y-114780215D03*
X21620877Y-118742615D03*
X21620877Y-122705015D03*
X21620877Y-126667415D03*
D59*
X36093400Y-92786200D03*
X36093400Y-95326200D03*
X36093400Y-97866200D03*
X36093400Y-100406200D03*
X36093400Y-102946200D03*
X36093400Y-105486200D03*
X36093400Y-108026200D03*
X36093400Y-110566200D03*
X36093400Y-113106200D03*
X36093400Y-115646200D03*
X36093400Y-118186200D03*
X36093400Y-120726200D03*
X38633400Y-92786200D03*
X38633400Y-95326200D03*
X38633400Y-97866200D03*
X38633400Y-100406200D03*
X38633400Y-102946200D03*
X38633400Y-105486200D03*
X38633400Y-108026200D03*
X38633400Y-110566200D03*
X38633400Y-113106200D03*
X38633400Y-115646200D03*
X38633400Y-118186200D03*
X38633400Y-120726200D03*
D42*
X266319000Y-76454000D03*
D47*
X268351000Y-76454000D03*
D32*
X126792567Y-81280000D03*
X126792567Y-78740000D03*
D26*
X39676119Y-151477386D03*
D44*
X39676119Y-154017386D03*
D15*
X388620000Y-121920000D03*
D23*
X388620000Y-114300000D03*
D24*
X133985000Y-207010000D03*
X136525000Y-207010000D03*
X139065000Y-207010000D03*
X141605000Y-207010000D03*
X144145000Y-207010000D03*
X146685000Y-207010000D03*
X149225000Y-207010000D03*
X149225000Y-199390000D03*
X146685000Y-199390000D03*
X144145000Y-199390000D03*
X141605000Y-199390000D03*
X139065000Y-199390000D03*
X136525000Y-199390000D03*
X133985000Y-199390000D03*
D60*
X266873516Y-47211919D03*
D61*
X262323516Y-50511919D03*
X271923516Y-55011919D03*
D60*
X262873516Y-58211919D03*
D61*
X269523516Y-53611919D03*
D20*
X120015000Y-217170000D03*
X120015000Y-214630000D03*
X120015000Y-212090000D03*
D62*
X209816700Y-54678542D03*
X211823300Y-54678542D03*
X207327500Y-54678542D03*
D63*
X217385900Y-51960742D03*
X204254100Y-51960742D03*
D62*
X214312500Y-54678542D03*
D28*
X215900000Y-100330000D03*
X210820000Y-100330000D03*
D15*
X381635000Y-152400000D03*
D23*
X381635000Y-144780000D03*
D34*
X225425000Y-154305000D03*
X222885000Y-154305000D03*
D50*
X304165000Y-69977000D03*
X306705000Y-69977000D03*
D25*
X193040000Y-185420000D03*
X193040000Y-187960000D03*
D18*
X171398983Y-207612088D03*
X163778983Y-207612088D03*
D32*
X184150000Y-201930000D03*
X184150000Y-194310000D03*
D34*
X377825000Y-208915000D03*
X370205000Y-208915000D03*
D32*
X60325000Y-208280000D03*
X60325000Y-198120000D03*
D18*
X172126052Y-121920000D03*
X172126052Y-124460000D03*
X172126052Y-127000000D03*
X172126052Y-129540000D03*
X172126052Y-132080000D03*
X172126052Y-134620000D03*
X172126052Y-137160000D03*
X172126052Y-139700000D03*
X179746052Y-139700000D03*
X179746052Y-137160000D03*
X179746052Y-134620000D03*
X179746052Y-132080000D03*
X179746052Y-129540000D03*
X179746052Y-127000000D03*
X179746052Y-124460000D03*
X179746052Y-121920000D03*
D64*
X391049263Y-67105354D03*
D65*
X394149263Y-62305354D03*
D64*
X397149263Y-67105354D03*
D42*
X221869000Y-160020000D03*
D47*
X223901000Y-160020000D03*
D25*
X153416753Y-190407597D03*
X153416753Y-192947597D03*
D15*
X389255000Y-152400000D03*
D23*
X389255000Y-144780000D03*
D50*
X137795000Y-67310000D03*
X135255000Y-67310000D03*
X132715000Y-67310000D03*
X130175000Y-67310000D03*
X127635000Y-67310000D03*
X125095000Y-67310000D03*
D28*
X215900000Y-102870000D03*
X210820000Y-102870000D03*
D16*
X262382000Y-74422000D03*
X262382000Y-69422000D03*
D28*
X101600000Y-151130000D03*
X104140000Y-151130000D03*
X306266591Y-63525562D03*
X311346591Y-63525562D03*
D15*
X378460000Y-111760000D03*
D23*
X378460000Y-104140000D03*
D18*
X201930776Y-121920000D03*
X201930776Y-124460000D03*
X201930776Y-127000000D03*
X201930776Y-129540000D03*
X201930776Y-132080000D03*
X201930776Y-134620000D03*
X201930776Y-137160000D03*
X209550776Y-137160000D03*
X209550776Y-134620000D03*
X209550776Y-132080000D03*
X209550776Y-129540000D03*
X209550776Y-127000000D03*
X209550776Y-124460000D03*
X209550776Y-121920000D03*
D40*
X260447962Y-145887013D03*
D50*
X133350000Y-88295398D03*
X135890000Y-88295398D03*
X138430000Y-88295398D03*
D25*
X237490000Y-153670000D03*
X237490000Y-156210000D03*
D16*
X296585000Y-65278000D03*
X301585000Y-65278000D03*
D19*
X104800000Y-62000000D03*
D25*
X381000000Y-51435000D03*
X381000000Y-53975000D03*
D42*
X226060000Y-141224000D03*
D43*
X226060000Y-143256000D03*
D25*
X100965000Y-201930000D03*
X100965000Y-204470000D03*
D26*
X39526127Y-186429533D03*
D44*
X39526127Y-188969533D03*
D34*
X217170000Y-107950000D03*
X209550000Y-107950000D03*
D28*
X231140000Y-69215000D03*
X233680000Y-69215000D03*
D32*
X69850000Y-81280000D03*
X69850000Y-78740000D03*
D18*
X171398983Y-210630882D03*
X163778983Y-210630882D03*
D25*
X200703388Y-194310000D03*
X200703388Y-201930000D03*
D24*
X104775000Y-207010000D03*
X107315000Y-207010000D03*
X109855000Y-207010000D03*
X112395000Y-207010000D03*
X114935000Y-207010000D03*
X117475000Y-207010000D03*
X120015000Y-207010000D03*
X122555000Y-207010000D03*
X122555000Y-199390000D03*
X120015000Y-199390000D03*
X117475000Y-199390000D03*
X114935000Y-199390000D03*
X112395000Y-199390000D03*
X109855000Y-199390000D03*
X107315000Y-199390000D03*
X104775000Y-199390000D03*
D28*
X48322187Y-172085000D03*
X50862187Y-172085000D03*
D32*
X222885000Y-177165000D03*
X222885000Y-169545000D03*
D33*
X381635000Y-92710000D03*
D23*
X374015000Y-92710000D03*
D50*
X255270000Y-182880000D03*
X257810000Y-182880000D03*
X260350000Y-182880000D03*
X262890000Y-182880000D03*
D28*
X249775600Y-76040906D03*
X252315600Y-76040906D03*
D66*
X160005000Y-158745000D03*
D67*
X160005000Y-161285000D03*
X160005000Y-163825000D03*
X160005000Y-166365000D03*
X160005000Y-168905000D03*
X160005000Y-171445000D03*
X160005000Y-173985000D03*
X167625000Y-173985000D03*
X167625000Y-171445000D03*
X167625000Y-168905000D03*
X167625000Y-166365000D03*
X167625000Y-163825000D03*
X167625000Y-161285000D03*
X167625000Y-158745000D03*
D32*
X180975000Y-201930000D03*
X180975000Y-194310000D03*
D29*
X256441981Y-58723188D03*
X231448381Y-58723188D03*
D68*
X239627181Y-61263188D03*
X241913181Y-61263188D03*
X244199181Y-61263188D03*
X246485181Y-61263188D03*
X248771181Y-61263188D03*
X238484181Y-58723188D03*
X240770181Y-58723188D03*
X243056181Y-58723188D03*
X245342181Y-58723188D03*
X247628181Y-58723188D03*
X239627181Y-56183188D03*
X241913181Y-56183188D03*
X244199181Y-56183188D03*
X246485181Y-56183188D03*
X248771181Y-56183188D03*
D34*
X147320000Y-211455000D03*
X139700000Y-211455000D03*
D32*
X148590000Y-66675000D03*
X148590000Y-56515000D03*
D28*
X306169940Y-60819321D03*
X311249940Y-60819321D03*
D20*
X58468800Y-156845000D03*
X58468800Y-159385000D03*
X58468800Y-161925000D03*
X58468800Y-164465000D03*
X58468800Y-167005000D03*
D28*
X231140000Y-72390000D03*
X233680000Y-72390000D03*
D19*
X397800000Y-50150000D03*
D34*
X177165000Y-118110000D03*
X174625000Y-118110000D03*
D32*
X150495000Y-193040000D03*
X150495000Y-190500000D03*
D28*
X231140000Y-66040000D03*
X233680000Y-66040000D03*
D24*
X106045000Y-77470000D03*
X108585000Y-77470000D03*
X111125000Y-77470000D03*
X113665000Y-77470000D03*
X116205000Y-77470000D03*
X118745000Y-77470000D03*
X121285000Y-77470000D03*
X121285000Y-69850000D03*
X118745000Y-69850000D03*
X116205000Y-69850000D03*
X113665000Y-69850000D03*
X111125000Y-69850000D03*
X108585000Y-69850000D03*
X106045000Y-69850000D03*
X74930000Y-70485000D03*
X77470000Y-70485000D03*
X80010000Y-70485000D03*
X82550000Y-70485000D03*
X85090000Y-70485000D03*
X87630000Y-70485000D03*
X90170000Y-70485000D03*
X92710000Y-70485000D03*
X95250000Y-70485000D03*
X161925000Y-189865000D03*
X164465000Y-189865000D03*
X167005000Y-189865000D03*
X169545000Y-189865000D03*
X172085000Y-189865000D03*
X174625000Y-189865000D03*
X177165000Y-189865000D03*
X177165000Y-182245000D03*
X174625000Y-182245000D03*
X172085000Y-182245000D03*
X169545000Y-182245000D03*
X167005000Y-182245000D03*
X164465000Y-182245000D03*
X161925000Y-182245000D03*
D19*
X21060000Y-172900000D03*
D28*
X151765000Y-64135000D03*
X154305000Y-64135000D03*
D16*
X296585000Y-68453000D03*
X301585000Y-68453000D03*
D51*
X83442950Y-48596750D03*
X79480550Y-48596750D03*
X75518150Y-48596750D03*
X71555750Y-48596750D03*
X67593350Y-48596750D03*
X63630950Y-48596750D03*
X59668550Y-48596750D03*
X55706150Y-48596750D03*
X51743750Y-48596750D03*
X47781350Y-48596750D03*
X43818950Y-48596750D03*
X39856550Y-48596750D03*
D18*
X200660000Y-52976986D03*
X200660000Y-55516986D03*
X200660000Y-58056986D03*
X200660000Y-60596986D03*
X200660000Y-63136986D03*
X220980000Y-63136986D03*
X220980000Y-60596986D03*
X220980000Y-58056986D03*
X220980000Y-55516986D03*
X220980000Y-52976986D03*
D20*
X285115000Y-140970000D03*
X285115000Y-138430000D03*
D25*
X71755000Y-201930000D03*
X71755000Y-204470000D03*
D15*
X383540000Y-121920000D03*
D23*
X383540000Y-114300000D03*
D50*
X99060000Y-59690000D03*
X96520000Y-59690000D03*
X93980000Y-59690000D03*
D33*
X244830600Y-68123800D03*
D23*
X237210600Y-68123800D03*
D24*
X178435000Y-83820000D03*
X180975000Y-83820000D03*
X183515000Y-83820000D03*
X186055000Y-83820000D03*
X188595000Y-83820000D03*
X191135000Y-83820000D03*
X193675000Y-83820000D03*
X196215000Y-83820000D03*
X198755000Y-83820000D03*
X201295000Y-83820000D03*
X201295000Y-76200000D03*
X198755000Y-76200000D03*
X196215000Y-76200000D03*
X193675000Y-76200000D03*
X191135000Y-76200000D03*
X188595000Y-76200000D03*
X186055000Y-76200000D03*
X183515000Y-76200000D03*
X180975000Y-76200000D03*
X178435000Y-76200000D03*
D33*
X381635000Y-95250000D03*
D23*
X374015000Y-95250000D03*
D19*
X401450000Y-161900000D03*
D20*
X376555000Y-79375000D03*
X376555000Y-76835000D03*
D25*
X232410000Y-169545000D03*
X232410000Y-177165000D03*
D21*
X154950000Y-70485000D03*
D22*
X152410000Y-70485000D03*
X149870000Y-70485000D03*
D28*
X99060000Y-211455000D03*
X97790000Y-209550000D03*
X96520000Y-211455000D03*
D50*
X146685000Y-151130000D03*
X149225000Y-151130000D03*
X151765000Y-151130000D03*
D28*
X249775600Y-68168800D03*
X252315600Y-68168800D03*
X147320000Y-154940000D03*
X149860000Y-154940000D03*
D26*
X363855000Y-200025000D03*
D35*
X366395000Y-200025000D03*
D26*
X39241931Y-172077641D03*
D44*
X39241931Y-174617641D03*
D20*
X32385000Y-67310000D03*
X32385000Y-64770000D03*
D32*
X34290000Y-81280000D03*
X34290000Y-78740000D03*
D69*
X396849600Y-87911000D03*
D70*
X381609600Y-87911000D03*
D69*
X396849600Y-85371000D03*
D70*
X385419600Y-87911000D03*
D69*
X396849600Y-82831000D03*
D70*
X389229600Y-87911000D03*
D69*
X394309600Y-87911000D03*
D70*
X381609600Y-82831000D03*
D69*
X394309600Y-85371000D03*
D70*
X385419600Y-82831000D03*
D69*
X394309600Y-82831000D03*
X391769600Y-85371000D03*
D70*
X389229600Y-82831000D03*
X401929600Y-82831000D03*
X401929600Y-87911000D03*
D69*
X401929600Y-85371000D03*
D24*
X154940000Y-83820000D03*
X157480000Y-83820000D03*
X160020000Y-83820000D03*
X162560000Y-83820000D03*
X165100000Y-83820000D03*
X167640000Y-83820000D03*
X170180000Y-83820000D03*
X170180000Y-76200000D03*
X167640000Y-76200000D03*
X165100000Y-76200000D03*
X162560000Y-76200000D03*
X160020000Y-76200000D03*
X157480000Y-76200000D03*
X154940000Y-76200000D03*
D45*
X196097500Y-149860000D03*
D46*
X198637500Y-149860000D03*
X196097500Y-152400000D03*
X198637500Y-152400000D03*
X196097500Y-154940000D03*
X198637500Y-154940000D03*
X196097500Y-157480000D03*
X198637500Y-157480000D03*
X196097500Y-160020000D03*
X198637500Y-160020000D03*
D32*
X370205000Y-180340000D03*
X370205000Y-177800000D03*
D18*
X85090000Y-113030000D03*
X85090000Y-115570000D03*
X85090000Y-118110000D03*
X85090000Y-120650000D03*
X85090000Y-123190000D03*
X85090000Y-125730000D03*
X85090000Y-128270000D03*
X85090000Y-130810000D03*
X85090000Y-133350000D03*
D28*
X139700000Y-214630000D03*
X147320000Y-214630000D03*
X363855000Y-205105000D03*
X366395000Y-205105000D03*
D26*
X372745000Y-200025000D03*
D35*
X375285000Y-200025000D03*
D25*
X89535000Y-154305000D03*
X89535000Y-156845000D03*
D16*
X277368000Y-75652000D03*
X277368000Y-70652000D03*
D25*
X210820000Y-194310000D03*
X210820000Y-201930000D03*
X114935000Y-156337000D03*
X114935000Y-158877000D03*
D28*
X306070000Y-208242904D03*
X308610000Y-208242904D03*
D34*
X50800000Y-146050000D03*
X48260000Y-146050000D03*
D18*
X274320000Y-202478100D03*
X274320000Y-205018100D03*
X274320000Y-207558100D03*
X274320000Y-210098100D03*
X281940000Y-210098100D03*
X281940000Y-207558100D03*
X281940000Y-205018100D03*
X281940000Y-202478100D03*
D24*
X197485000Y-191135000D03*
X200025000Y-191135000D03*
X202565000Y-191135000D03*
X205105000Y-191135000D03*
X207645000Y-191135000D03*
X210185000Y-191135000D03*
X212725000Y-191135000D03*
X212725000Y-183515000D03*
X210185000Y-183515000D03*
X207645000Y-183515000D03*
X205105000Y-183515000D03*
X202565000Y-183515000D03*
X200025000Y-183515000D03*
X197485000Y-183515000D03*
D41*
X267589000Y-86360000D03*
D23*
X267589000Y-93980000D03*
D40*
X260447962Y-141263429D03*
D24*
X60325000Y-67310000D03*
X57785000Y-67310000D03*
X55245000Y-67310000D03*
X52705000Y-67310000D03*
X50165000Y-67310000D03*
X47625000Y-67310000D03*
X45085000Y-67310000D03*
X42545000Y-67310000D03*
X40005000Y-67310000D03*
D18*
X144780000Y-158750000D03*
X144780000Y-161290000D03*
X144780000Y-163830000D03*
X144780000Y-166370000D03*
X144780000Y-168910000D03*
X144780000Y-171450000D03*
X144780000Y-173990000D03*
X144780000Y-176530000D03*
X152400000Y-176530000D03*
X152400000Y-173990000D03*
X152400000Y-171450000D03*
X152400000Y-168910000D03*
X152400000Y-166370000D03*
X152400000Y-163830000D03*
X152400000Y-161290000D03*
X152400000Y-158750000D03*
D15*
X379095000Y-142240000D03*
D23*
X379095000Y-134620000D03*
D34*
X198772723Y-91440000D03*
X196232723Y-91440000D03*
X274637500Y-77470000D03*
X272097500Y-77470000D03*
D42*
X151384000Y-217170000D03*
D47*
X153416000Y-217170000D03*
D25*
X34036000Y-204343000D03*
X34036000Y-206883000D03*
D20*
X111125000Y-217170000D03*
X111125000Y-214630000D03*
X111125000Y-212090000D03*
D71*
X177546000Y-67310000D03*
D72*
X160020000Y-64770000D03*
X160020000Y-67310000D03*
X160020000Y-69850000D03*
D49*
X225868801Y-83947000D03*
X225868801Y-88773000D03*
D32*
X151130000Y-81280000D03*
X151130000Y-78740000D03*
D42*
X221869000Y-165735000D03*
D47*
X223901000Y-165735000D03*
D18*
X187325000Y-121920000D03*
X187325000Y-124460000D03*
X187325000Y-127000000D03*
X187325000Y-129540000D03*
X187325000Y-132080000D03*
X187325000Y-134620000D03*
X187325000Y-137160000D03*
X187325000Y-139700000D03*
X194945000Y-139700000D03*
X194945000Y-137160000D03*
X194945000Y-134620000D03*
X194945000Y-132080000D03*
X194945000Y-129540000D03*
X194945000Y-127000000D03*
X194945000Y-124460000D03*
X194945000Y-121920000D03*
D26*
X39526127Y-179040440D03*
D44*
X39526127Y-181580440D03*
D26*
X364205000Y-67015000D03*
D44*
X364205000Y-69555000D03*
D25*
X153670000Y-201930000D03*
X153670000Y-204470000D03*
D28*
X262455754Y-190500000D03*
X263725754Y-188595000D03*
X264995754Y-190500000D03*
D73*
X184785000Y-67945000D03*
X184785000Y-65405000D03*
X187325000Y-67945000D03*
X187325000Y-65405000D03*
X189865000Y-67945000D03*
X189865000Y-65405000D03*
D74*
X287128755Y-44149401D03*
X282607555Y-44149401D03*
D37*
X288373355Y-46638601D03*
X281362955Y-46638601D03*
D75*
X391160000Y-189490000D03*
X391160000Y-209290000D03*
D15*
X386080000Y-111760000D03*
D23*
X386080000Y-104140000D03*
D76*
X276860000Y-161925000D03*
D77*
X274320000Y-164465000D03*
X276860000Y-164465000D03*
X274320000Y-167005000D03*
X276860000Y-167005000D03*
X274320000Y-169545000D03*
X276860000Y-172085000D03*
X276860000Y-169545000D03*
X279400000Y-172085000D03*
X279400000Y-169545000D03*
X281940000Y-172085000D03*
X281940000Y-169545000D03*
X284480000Y-172085000D03*
X284480000Y-169545000D03*
X287020000Y-172085000D03*
X287020000Y-169545000D03*
X289560000Y-172085000D03*
X292100000Y-169545000D03*
X289560000Y-169545000D03*
X292100000Y-167005000D03*
X289560000Y-167005000D03*
X292100000Y-164465000D03*
X289560000Y-164465000D03*
X292100000Y-161925000D03*
X289560000Y-161925000D03*
X292100000Y-159385000D03*
X289560000Y-159385000D03*
X292100000Y-156845000D03*
X289560000Y-154305000D03*
X289560000Y-156845000D03*
X287020000Y-154305000D03*
X287020000Y-156845000D03*
X284480000Y-154305000D03*
X284480000Y-156845000D03*
X281940000Y-154305000D03*
X281940000Y-156845000D03*
X279400000Y-154305000D03*
X279400000Y-156845000D03*
X276860000Y-154305000D03*
X274320000Y-156845000D03*
X276860000Y-156845000D03*
X274320000Y-159385000D03*
X276860000Y-159385000D03*
X274320000Y-161925000D03*
D24*
X76200000Y-207010000D03*
X78740000Y-207010000D03*
X81280000Y-207010000D03*
X83820000Y-207010000D03*
X86360000Y-207010000D03*
X88900000Y-207010000D03*
X91440000Y-207010000D03*
X91440000Y-199390000D03*
X88900000Y-199390000D03*
X86360000Y-199390000D03*
X83820000Y-199390000D03*
X81280000Y-199390000D03*
X78740000Y-199390000D03*
X76200000Y-199390000D03*
D20*
X64770000Y-156845000D03*
X64770000Y-159385000D03*
X64770000Y-161925000D03*
X64770000Y-164465000D03*
X64770000Y-167005000D03*
D25*
X85090000Y-151130000D03*
X85090000Y-146050000D03*
D15*
X381635000Y-142240000D03*
D23*
X381635000Y-134620000D03*
D78*
X73660000Y-58420000D03*
X71120000Y-58420000D03*
X68580000Y-58420000D03*
X66040000Y-58420000D03*
X63500000Y-58420000D03*
X60960000Y-58420000D03*
X58420000Y-58420000D03*
X55880000Y-58420000D03*
X53340000Y-58420000D03*
X50800000Y-58420000D03*
X48260000Y-58420000D03*
X45720000Y-58420000D03*
X73660000Y-60960000D03*
X71120000Y-60960000D03*
X68580000Y-60960000D03*
X66040000Y-60960000D03*
X63500000Y-60960000D03*
X60960000Y-60960000D03*
X58420000Y-60960000D03*
X55880000Y-60960000D03*
X53340000Y-60960000D03*
X50800000Y-60960000D03*
X48260000Y-60960000D03*
X45720000Y-60960000D03*
D20*
X77470000Y-163830000D03*
X77470000Y-158750000D03*
X77470000Y-156210000D03*
X77470000Y-153670000D03*
X77470000Y-151130000D03*
X77470000Y-148590000D03*
X77470000Y-146050000D03*
X77470000Y-143510000D03*
X77470000Y-140970000D03*
X77470000Y-138430000D03*
X77470000Y-135890000D03*
X77470000Y-133350000D03*
X77470000Y-130810000D03*
X77470000Y-128270000D03*
X77470000Y-125730000D03*
X77470000Y-123190000D03*
X77470000Y-120650000D03*
X77470000Y-118110000D03*
X77470000Y-115570000D03*
D25*
X226060000Y-169545000D03*
X226060000Y-177165000D03*
D55*
X188692310Y-49399820D03*
X173452310Y-49399820D03*
D79*
X173452310Y-54479820D03*
X175992310Y-57019820D03*
X181072310Y-54479820D03*
X186152310Y-57019820D03*
X188692310Y-54479820D03*
X181072310Y-59559820D03*
D80*
X183612310Y-44319820D03*
X178532310Y-44319820D03*
X186152310Y-44319820D03*
X175992310Y-44319820D03*
D20*
X225425000Y-137795000D03*
X225425000Y-135255000D03*
D18*
X70440160Y-92710000D03*
X70440160Y-95250000D03*
X70440160Y-97790000D03*
X70440160Y-100330000D03*
X70440160Y-102870000D03*
X70440160Y-105410000D03*
X70440160Y-107950000D03*
X70440160Y-110490000D03*
X78060160Y-110490000D03*
X78060160Y-107950000D03*
X78060160Y-105410000D03*
X78060160Y-102870000D03*
X78060160Y-100330000D03*
X78060160Y-97790000D03*
X78060160Y-95250000D03*
X78060160Y-92710000D03*
D28*
X249775600Y-71786101D03*
X252315600Y-71786101D03*
D42*
X219710000Y-141231120D03*
D43*
X219710000Y-143263120D03*
D38*
X266078429Y-71515729D03*
D39*
X268618429Y-71515729D03*
X271158429Y-71515729D03*
X273698429Y-71515729D03*
X273698429Y-63895729D03*
X271158429Y-63895729D03*
X268618429Y-63895729D03*
X266078429Y-63895729D03*
D19*
X215900000Y-213700000D03*
D33*
X392015000Y-92785000D03*
D23*
X384395000Y-92785000D03*
D28*
X356235000Y-208915000D03*
X363855000Y-208915000D03*
D18*
X184057362Y-210589400D03*
X176437362Y-210589400D03*
D34*
X377825000Y-205105000D03*
X370205000Y-205105000D03*
D28*
X53340000Y-88900000D03*
X55880000Y-88900000D03*
D24*
X73660000Y-83820000D03*
X76200000Y-83820000D03*
X78740000Y-83820000D03*
X81280000Y-83820000D03*
X83820000Y-83820000D03*
X86360000Y-83820000D03*
X88900000Y-83820000D03*
X91440000Y-83820000D03*
X93980000Y-83820000D03*
X96520000Y-83820000D03*
X96520000Y-76200000D03*
X93980000Y-76200000D03*
X91440000Y-76200000D03*
X88900000Y-76200000D03*
X86360000Y-76200000D03*
X83820000Y-76200000D03*
X81280000Y-76200000D03*
X78740000Y-76200000D03*
X76200000Y-76200000D03*
X73660000Y-76200000D03*
D25*
X198120000Y-172720000D03*
X198120000Y-180340000D03*
D18*
X45720000Y-176530000D03*
X45720000Y-179070000D03*
X45720000Y-181610000D03*
X45720000Y-184150000D03*
X45720000Y-186690000D03*
X45720000Y-189230000D03*
X45720000Y-191770000D03*
X45720000Y-194310000D03*
X53340000Y-194310000D03*
X53340000Y-191770000D03*
X53340000Y-189230000D03*
X53340000Y-186690000D03*
X53340000Y-184150000D03*
X53340000Y-181610000D03*
X53340000Y-179070000D03*
X53340000Y-176530000D03*
X46990000Y-92710000D03*
X46990000Y-95250000D03*
X46990000Y-97790000D03*
X46990000Y-100330000D03*
X46990000Y-102870000D03*
X46990000Y-105410000D03*
X46990000Y-107950000D03*
X46990000Y-110490000D03*
X46990000Y-113030000D03*
X46990000Y-115570000D03*
X46990000Y-118110000D03*
X46990000Y-120650000D03*
X46990000Y-123190000D03*
X46990000Y-125730000D03*
X46990000Y-128270000D03*
X46990000Y-130810000D03*
X46990000Y-133350000D03*
X46990000Y-135890000D03*
X46990000Y-138430000D03*
X46990000Y-140970000D03*
X62230000Y-140970000D03*
X62230000Y-138430000D03*
X62230000Y-135890000D03*
X62230000Y-133350000D03*
X62230000Y-130810000D03*
X62230000Y-128270000D03*
X62230000Y-125730000D03*
X62230000Y-123190000D03*
X62230000Y-120650000D03*
X62230000Y-118110000D03*
X62230000Y-115570000D03*
X62230000Y-113030000D03*
X62230000Y-110490000D03*
X62230000Y-107950000D03*
X62230000Y-105410000D03*
X62230000Y-102870000D03*
X62230000Y-100330000D03*
X62230000Y-97790000D03*
X62230000Y-95250000D03*
X62230000Y-92710000D03*
D25*
X209550000Y-172720000D03*
X209550000Y-180340000D03*
D18*
X184057362Y-213608195D03*
X176437362Y-213608195D03*
D81*
X367665000Y-138430000D03*
X370205000Y-138430000D03*
X367665000Y-140970000D03*
X370205000Y-140970000D03*
X367665000Y-143510000D03*
X370205000Y-143510000D03*
X367665000Y-146050000D03*
X370205000Y-146050000D03*
X367665000Y-148590000D03*
X370205000Y-148590000D03*
D45*
X185420000Y-149860000D03*
D46*
X187960000Y-149860000D03*
X185420000Y-152400000D03*
X187960000Y-152400000D03*
X185420000Y-154940000D03*
X187960000Y-154940000D03*
X185420000Y-157480000D03*
X187960000Y-157480000D03*
X185420000Y-160020000D03*
X187960000Y-160020000D03*
D42*
X189484000Y-174625000D03*
D47*
X191516000Y-174625000D03*
D33*
X392015000Y-95285000D03*
D23*
X384395000Y-95285000D03*
D42*
X183134000Y-174625000D03*
D47*
X185166000Y-174625000D03*
D32*
X142240000Y-66675000D03*
X142240000Y-56515000D03*
D15*
X386715000Y-152400000D03*
D23*
X386715000Y-144780000D03*
D82*
X228021143Y-191930759D03*
D83*
X225481143Y-197010759D03*
D26*
X39384029Y-158152042D03*
D44*
X39384029Y-160692042D03*
D42*
X183134000Y-180975000D03*
D47*
X185166000Y-180975000D03*
D28*
X121285000Y-88900000D03*
X123825000Y-88900000D03*
D84*
X247650000Y-129222500D03*
X250190000Y-129222500D03*
X252730000Y-129222500D03*
X255270000Y-129222500D03*
X257810000Y-129222500D03*
X260350000Y-129222500D03*
X247650000Y-126682500D03*
X250190000Y-126682500D03*
X252730000Y-126682500D03*
X255270000Y-126682500D03*
X257810000Y-126682500D03*
X260350000Y-126682500D03*
D50*
X146685000Y-147320000D03*
X149225000Y-147320000D03*
X151765000Y-147320000D03*
D55*
X277571200Y-85394800D03*
X367588800Y-85394800D03*
D85*
X283210000Y-87630000D03*
X285750000Y-87630000D03*
X288290000Y-87630000D03*
X290830000Y-87630000D03*
X293370000Y-87630000D03*
X295910000Y-87630000D03*
X298450000Y-87630000D03*
X300990000Y-87630000D03*
X303530000Y-87630000D03*
X306070000Y-87630000D03*
X308610000Y-87630000D03*
X311150000Y-87630000D03*
X313690000Y-87630000D03*
X316230000Y-87630000D03*
X318770000Y-87630000D03*
X321310000Y-87630000D03*
X323850000Y-87630000D03*
X326390000Y-87630000D03*
X328930000Y-87630000D03*
X331470000Y-87630000D03*
X334010000Y-87630000D03*
X336550000Y-87630000D03*
X339090000Y-87630000D03*
X341630000Y-87630000D03*
X344170000Y-87630000D03*
X346710000Y-87630000D03*
X349250000Y-87630000D03*
X351790000Y-87630000D03*
X354330000Y-87630000D03*
X356870000Y-87630000D03*
X359410000Y-87630000D03*
X361950000Y-87630000D03*
X283210000Y-82550000D03*
X285750000Y-82550000D03*
X288290000Y-82550000D03*
X290830000Y-82550000D03*
X293370000Y-82550000D03*
X295910000Y-82550000D03*
X298450000Y-82550000D03*
X300990000Y-82550000D03*
X303530000Y-82550000D03*
X306070000Y-82550000D03*
X308610000Y-82550000D03*
X311150000Y-82550000D03*
X313690000Y-82550000D03*
X316230000Y-82550000D03*
X318770000Y-82550000D03*
X321310000Y-82550000D03*
X323850000Y-82550000D03*
X326390000Y-82550000D03*
X328930000Y-82550000D03*
X331470000Y-82550000D03*
X334010000Y-82550000D03*
X336550000Y-82550000D03*
X339090000Y-82550000D03*
X341630000Y-82550000D03*
X344170000Y-82550000D03*
X346710000Y-82550000D03*
X349250000Y-82550000D03*
X351790000Y-82550000D03*
X354330000Y-82550000D03*
X356870000Y-82550000D03*
X359410000Y-82550000D03*
X361950000Y-82550000D03*
D18*
X77470000Y-172720000D03*
X77470000Y-175260000D03*
X77470000Y-177800000D03*
X77470000Y-180340000D03*
X77470000Y-182880000D03*
X77470000Y-185420000D03*
X77470000Y-187960000D03*
X77470000Y-190500000D03*
X85090000Y-190500000D03*
X85090000Y-187960000D03*
X85090000Y-185420000D03*
X85090000Y-182880000D03*
X85090000Y-180340000D03*
X85090000Y-177800000D03*
X85090000Y-175260000D03*
X85090000Y-172720000D03*
D50*
X139700000Y-151130000D03*
X142240000Y-151130000D03*
D18*
X115496256Y-92710000D03*
X115496256Y-95250000D03*
X115496256Y-97790000D03*
X115496256Y-100330000D03*
X115496256Y-102870000D03*
X115496256Y-105410000D03*
X115496256Y-107950000D03*
X115496256Y-110490000D03*
X115496256Y-113030000D03*
X115496256Y-115570000D03*
X115496256Y-118110000D03*
X115496256Y-120650000D03*
X115496256Y-123190000D03*
X115496256Y-125730000D03*
X115496256Y-128270000D03*
X115496256Y-130810000D03*
X115496256Y-133350000D03*
X115496256Y-135890000D03*
X115496256Y-138430000D03*
X115496256Y-140970000D03*
X130736256Y-140970000D03*
X130736256Y-138430000D03*
X130736256Y-135890000D03*
X130736256Y-133350000D03*
X130736256Y-130810000D03*
X130736256Y-128270000D03*
X130736256Y-125730000D03*
X130736256Y-123190000D03*
X130736256Y-120650000D03*
X130736256Y-118110000D03*
X130736256Y-115570000D03*
X130736256Y-113030000D03*
X130736256Y-110490000D03*
X130736256Y-107950000D03*
X130736256Y-105410000D03*
X130736256Y-102870000D03*
X130736256Y-100330000D03*
X130736256Y-97790000D03*
X130736256Y-95250000D03*
X130736256Y-92710000D03*
D32*
X158743834Y-185424342D03*
X158743834Y-182884342D03*
D86*
X330200000Y-161505000D03*
X330200000Y-159805000D03*
D87*
X330835000Y-175045000D03*
X330835000Y-176745000D03*
G36*
X374730799Y-43655664D02*
G01*
X374777292Y-43709320D01*
X374788678Y-43761662D01*
X374788678Y-50367662D01*
X374768676Y-50435783D01*
X374715020Y-50482276D01*
X374662678Y-50493662D01*
X371358678Y-50493662D01*
X371290557Y-50473660D01*
X371244064Y-50420004D01*
X371232678Y-50367662D01*
X371232678Y-43761662D01*
X371252680Y-43693541D01*
X371306336Y-43647048D01*
X371358678Y-43635662D01*
X374662678Y-43635662D01*
X374730799Y-43655664D01*
G37*
%LPD*%
M02*
