G04 #@! TF.GenerationSoftware,KiCad,Pcbnew,8.0.3*
G04 #@! TF.CreationDate,2024-06-16T18:13:09+02:00*
G04 #@! TF.ProjectId,cbm_ultipet_v1,63626d5f-756c-4746-9970-65745f76312e,rev?*
G04 #@! TF.SameCoordinates,Original*
G04 #@! TF.FileFunction,Paste,Top*
G04 #@! TF.FilePolarity,Positive*
%FSLAX46Y46*%
G04 Gerber Fmt 4.6, Leading zero omitted, Abs format (unit mm)*
G04 Created by KiCad (PCBNEW 8.0.3) date 2024-06-16 18:13:09*
%MOMM*%
%LPD*%
G01*
G04 APERTURE LIST*
G04 Aperture macros list*
%AMRoundRect*
0 Rectangle with rounded corners*
0 $1 Rounding radius*
0 $2 $3 $4 $5 $6 $7 $8 $9 X,Y pos of 4 corners*
0 Add a 4 corners polygon primitive as box body*
4,1,4,$2,$3,$4,$5,$6,$7,$8,$9,$2,$3,0*
0 Add four circle primitives for the rounded corners*
1,1,$1+$1,$2,$3*
1,1,$1+$1,$4,$5*
1,1,$1+$1,$6,$7*
1,1,$1+$1,$8,$9*
0 Add four rect primitives between the rounded corners*
20,1,$1+$1,$2,$3,$4,$5,0*
20,1,$1+$1,$4,$5,$6,$7,0*
20,1,$1+$1,$6,$7,$8,$9,0*
20,1,$1+$1,$8,$9,$2,$3,0*%
G04 Aperture macros list end*
%ADD10R,1.910000X0.610000*%
%ADD11R,2.410000X3.100000*%
%ADD12R,1.100000X1.000000*%
%ADD13R,1.000000X1.100000*%
%ADD14R,1.300000X1.500000*%
%ADD15R,1.200000X1.500000*%
%ADD16R,1.500000X1.200000*%
%ADD17RoundRect,0.100000X-0.637500X-0.100000X0.637500X-0.100000X0.637500X0.100000X-0.637500X0.100000X0*%
%ADD18R,0.660400X2.032000*%
%ADD19R,0.600000X2.200000*%
%ADD20RoundRect,0.358140X0.835660X4.721860X-0.835660X4.721860X-0.835660X-4.721860X0.835660X-4.721860X0*%
%ADD21RoundRect,0.062500X0.062500X-0.662500X0.062500X0.662500X-0.062500X0.662500X-0.062500X-0.662500X0*%
%ADD22RoundRect,0.062500X0.662500X-0.062500X0.662500X0.062500X-0.662500X0.062500X-0.662500X-0.062500X0*%
%ADD23R,1.500000X1.300000*%
%ADD24R,0.635000X1.270000*%
%ADD25R,1.500000X0.270000*%
%ADD26R,0.270000X1.500000*%
%ADD27R,1.168400X1.600200*%
%ADD28RoundRect,0.358140X-4.721860X0.835660X-4.721860X-0.835660X4.721860X-0.835660X4.721860X0.835660X0*%
%ADD29RoundRect,0.150000X0.512500X0.150000X-0.512500X0.150000X-0.512500X-0.150000X0.512500X-0.150000X0*%
%ADD30R,2.235000X1.219000*%
%ADD31R,2.200000X3.600000*%
%ADD32RoundRect,0.075000X-0.075000X0.662500X-0.075000X-0.662500X0.075000X-0.662500X0.075000X0.662500X0*%
%ADD33RoundRect,0.075000X-0.662500X0.075000X-0.662500X-0.075000X0.662500X-0.075000X0.662500X0.075000X0*%
%ADD34R,0.250000X1.000000*%
%ADD35R,0.900000X0.800000*%
G04 APERTURE END LIST*
D10*
X364095000Y-180975000D03*
X364095000Y-179705000D03*
X364095000Y-178435000D03*
X364095000Y-177165000D03*
X358535000Y-177165000D03*
X358535000Y-178435000D03*
X358535000Y-179705000D03*
X358535000Y-180975000D03*
D11*
X361315000Y-179070000D03*
D12*
X241093210Y-135144172D03*
X239393210Y-135144172D03*
X206795000Y-92075000D03*
X208495000Y-92075000D03*
X222004390Y-91440000D03*
X220304390Y-91440000D03*
D13*
X271780000Y-179285000D03*
X271780000Y-177585000D03*
D14*
X272902491Y-95002215D03*
X274802491Y-95002215D03*
D13*
X344170000Y-135040000D03*
X344170000Y-136740000D03*
X332490504Y-103422340D03*
X332490504Y-105122340D03*
X351155000Y-180135000D03*
X351155000Y-178435000D03*
X350520000Y-104992852D03*
X350520000Y-103292852D03*
D15*
X206375000Y-62409654D03*
X206375000Y-59509654D03*
D16*
X260797740Y-83820000D03*
X257897740Y-83820000D03*
D13*
X346710000Y-202350000D03*
X346710000Y-204050000D03*
X267235711Y-139016191D03*
X267235711Y-137316191D03*
D12*
X203415000Y-67945000D03*
X201715000Y-67945000D03*
D17*
X386856389Y-182326466D03*
X386856389Y-182976466D03*
X386856389Y-183626466D03*
X386856389Y-184276466D03*
X386856389Y-184926466D03*
X386856389Y-185576466D03*
X386856389Y-186226466D03*
X386856389Y-186876466D03*
X392581389Y-186876466D03*
X392581389Y-186226466D03*
X392581389Y-185576466D03*
X392581389Y-184926466D03*
X392581389Y-184276466D03*
X392581389Y-183626466D03*
X392581389Y-182976466D03*
X392581389Y-182326466D03*
D16*
X260734095Y-68580000D03*
X257834095Y-68580000D03*
D13*
X261620000Y-156425000D03*
X261620000Y-154725000D03*
X269100166Y-179285000D03*
X269100166Y-177585000D03*
D18*
X341630000Y-132816600D03*
X340360000Y-132816600D03*
X339090000Y-132816600D03*
X337820000Y-132816600D03*
X336550000Y-132816600D03*
X335280000Y-132816600D03*
X334010000Y-132816600D03*
X334010000Y-138963400D03*
X335280000Y-138963400D03*
X336550000Y-138963400D03*
X337820000Y-138963400D03*
X339090000Y-138963400D03*
X340360000Y-138963400D03*
X341630000Y-138963400D03*
D16*
X260797740Y-80010000D03*
X257897740Y-80010000D03*
D12*
X354469868Y-148923456D03*
X356169868Y-148923456D03*
D19*
X245110000Y-154940000D03*
X246380000Y-154940000D03*
X247650000Y-154940000D03*
X248920000Y-154940000D03*
X248920000Y-149740000D03*
X247650000Y-149740000D03*
X246380000Y-149740000D03*
X245110000Y-149740000D03*
D20*
X144841565Y-48598750D03*
X140879165Y-48598750D03*
X136916765Y-48598750D03*
X132954365Y-48598750D03*
X128991965Y-48598750D03*
X125029565Y-48598750D03*
D12*
X278550000Y-77470000D03*
X280250000Y-77470000D03*
D19*
X293370000Y-138496000D03*
X294640000Y-138496000D03*
X295910000Y-138496000D03*
X297180000Y-138496000D03*
X298450000Y-138496000D03*
X299720000Y-138496000D03*
X300990000Y-138496000D03*
X302260000Y-138496000D03*
X303530000Y-138496000D03*
X304800000Y-138496000D03*
X306070000Y-138496000D03*
X307340000Y-138496000D03*
X308610000Y-138496000D03*
X309880000Y-138496000D03*
X311150000Y-138496000D03*
X312420000Y-138496000D03*
X312420000Y-125664000D03*
X311150000Y-125664000D03*
X309880000Y-125664000D03*
X308610000Y-125664000D03*
X307340000Y-125664000D03*
X306070000Y-125664000D03*
X304800000Y-125664000D03*
X303530000Y-125664000D03*
X302260000Y-125664000D03*
X300990000Y-125664000D03*
X299720000Y-125664000D03*
X298450000Y-125664000D03*
X297180000Y-125664000D03*
X295910000Y-125664000D03*
X294640000Y-125664000D03*
X293370000Y-125664000D03*
D18*
X365125000Y-99184262D03*
X363855000Y-99184262D03*
X362585000Y-99184262D03*
X361315000Y-99184262D03*
X360045000Y-99184262D03*
X358775000Y-99184262D03*
X357505000Y-99184262D03*
X356235000Y-99184262D03*
X354965000Y-99184262D03*
X353695000Y-99184262D03*
X353695000Y-109242662D03*
X354965000Y-109242662D03*
X356235000Y-109242662D03*
X357505000Y-109242662D03*
X358775000Y-109242662D03*
X360045000Y-109242662D03*
X361315000Y-109242662D03*
X362585000Y-109242662D03*
X363855000Y-109242662D03*
X365125000Y-109242662D03*
D12*
X294855000Y-198120000D03*
X293155000Y-198120000D03*
X314317475Y-180285256D03*
X312617475Y-180285256D03*
D13*
X350940000Y-162980000D03*
X350940000Y-164680000D03*
D21*
X211610000Y-89560000D03*
X212110000Y-89560000D03*
X212610000Y-89560000D03*
X213110000Y-89560000D03*
X213610000Y-89560000D03*
X214110000Y-89560000D03*
X214610000Y-89560000D03*
X215110000Y-89560000D03*
D22*
X216560000Y-88110000D03*
X216560000Y-87610000D03*
X216560000Y-87110000D03*
X216560000Y-86610000D03*
X216560000Y-86110000D03*
X216560000Y-85610000D03*
X216560000Y-85110000D03*
X216560000Y-84610000D03*
D21*
X215110000Y-83160000D03*
X214610000Y-83160000D03*
X214110000Y-83160000D03*
X213610000Y-83160000D03*
X213110000Y-83160000D03*
X212610000Y-83160000D03*
X212110000Y-83160000D03*
X211610000Y-83160000D03*
D22*
X210160000Y-84610000D03*
X210160000Y-85110000D03*
X210160000Y-85610000D03*
X210160000Y-86110000D03*
X210160000Y-86610000D03*
X210160000Y-87110000D03*
X210160000Y-87610000D03*
X210160000Y-88110000D03*
D17*
X145727500Y-180590000D03*
X145727500Y-181240000D03*
X145727500Y-181890000D03*
X145727500Y-182540000D03*
X145727500Y-183190000D03*
X145727500Y-183840000D03*
X145727500Y-184490000D03*
X145727500Y-185140000D03*
X145727500Y-185790000D03*
X145727500Y-186440000D03*
X151452500Y-186440000D03*
X151452500Y-185790000D03*
X151452500Y-185140000D03*
X151452500Y-184490000D03*
X151452500Y-183840000D03*
X151452500Y-183190000D03*
X151452500Y-182540000D03*
X151452500Y-181890000D03*
X151452500Y-181240000D03*
X151452500Y-180590000D03*
D18*
X285750000Y-187426600D03*
X284480000Y-187426600D03*
X283210000Y-187426600D03*
X281940000Y-187426600D03*
X280670000Y-187426600D03*
X279400000Y-187426600D03*
X278130000Y-187426600D03*
X278130000Y-193573400D03*
X279400000Y-193573400D03*
X280670000Y-193573400D03*
X281940000Y-193573400D03*
X283210000Y-193573400D03*
X284480000Y-193573400D03*
X285750000Y-193573400D03*
D23*
X349885000Y-141285000D03*
X349885000Y-139385000D03*
D24*
X375920000Y-137160000D03*
X377190000Y-137160000D03*
X378460000Y-137160000D03*
X378460000Y-134620000D03*
X377190000Y-134620000D03*
X375920000Y-134620000D03*
D16*
X260530000Y-72390000D03*
X257630000Y-72390000D03*
D23*
X353695000Y-178120000D03*
X353695000Y-180020000D03*
D12*
X376235537Y-130772341D03*
X377935537Y-130772341D03*
D13*
X368300000Y-103422923D03*
X368300000Y-105122923D03*
D12*
X342060000Y-182880000D03*
X340360000Y-182880000D03*
D25*
X318198519Y-159511791D03*
X318198519Y-160011791D03*
X318198519Y-160511791D03*
X318198519Y-161011791D03*
X318198519Y-161511791D03*
X318198519Y-162011791D03*
X318198519Y-162511791D03*
X318198519Y-163011791D03*
X318198519Y-163511791D03*
X318198519Y-164011791D03*
X318198519Y-164511791D03*
X318198519Y-165011791D03*
X318198519Y-165511791D03*
X318198519Y-166011791D03*
X318198519Y-166511791D03*
X318198519Y-167011791D03*
X318198519Y-167511791D03*
X318198519Y-168011791D03*
X318198519Y-168511791D03*
X318198519Y-169011791D03*
X318198519Y-169511791D03*
X318198519Y-170011791D03*
X318198519Y-170511791D03*
X318198519Y-171011791D03*
X318198519Y-171511791D03*
X318198519Y-172011791D03*
X318198519Y-172511791D03*
X318198519Y-173011791D03*
X318198519Y-173511791D03*
X318198519Y-174011791D03*
X318198519Y-174511791D03*
X318198519Y-175011791D03*
X318198519Y-175511791D03*
X318198519Y-176011791D03*
X318198519Y-176511791D03*
X318198519Y-177011791D03*
D26*
X320198519Y-179011791D03*
X320698519Y-179011791D03*
X321198519Y-179011791D03*
X321698519Y-179011791D03*
X322198519Y-179011791D03*
X322698519Y-179011791D03*
X323198519Y-179011791D03*
X323698519Y-179011791D03*
X324198519Y-179011791D03*
X324698519Y-179011791D03*
X325198519Y-179011791D03*
X325698519Y-179011791D03*
X326198519Y-179011791D03*
X326698519Y-179011791D03*
X327198519Y-179011791D03*
X327698519Y-179011791D03*
X328198519Y-179011791D03*
X328698519Y-179011791D03*
X329198519Y-179011791D03*
X329698519Y-179011791D03*
X330198519Y-179011791D03*
X330698519Y-179011791D03*
X331198519Y-179011791D03*
X331698519Y-179011791D03*
X332198519Y-179011791D03*
X332698519Y-179011791D03*
X333198519Y-179011791D03*
X333698519Y-179011791D03*
X334198519Y-179011791D03*
X334698519Y-179011791D03*
X335198519Y-179011791D03*
X335698519Y-179011791D03*
X336198519Y-179011791D03*
X336698519Y-179011791D03*
X337198519Y-179011791D03*
X337698519Y-179011791D03*
D25*
X339698519Y-177011791D03*
X339698519Y-176511791D03*
X339698519Y-176011791D03*
X339698519Y-175511791D03*
X339698519Y-175011791D03*
X339698519Y-174511791D03*
X339698519Y-174011791D03*
X339698519Y-173511791D03*
X339698519Y-173011791D03*
X339698519Y-172511791D03*
X339698519Y-172011791D03*
X339698519Y-171511791D03*
X339698519Y-171011791D03*
X339698519Y-170511791D03*
X339698519Y-170011791D03*
X339698519Y-169511791D03*
X339698519Y-169011791D03*
X339698519Y-168511791D03*
X339698519Y-168011791D03*
X339698519Y-167511791D03*
X339698519Y-167011791D03*
X339698519Y-166511791D03*
X339698519Y-166011791D03*
X339698519Y-165511791D03*
X339698519Y-165011791D03*
X339698519Y-164511791D03*
X339698519Y-164011791D03*
X339698519Y-163511791D03*
X339698519Y-163011791D03*
X339698519Y-162511791D03*
X339698519Y-162011791D03*
X339698519Y-161511791D03*
X339698519Y-161011791D03*
X339698519Y-160511791D03*
X339698519Y-160011791D03*
X339698519Y-159511791D03*
D26*
X337698519Y-157511791D03*
X337198519Y-157511791D03*
X336698519Y-157511791D03*
X336198519Y-157511791D03*
X335698519Y-157511791D03*
X335198519Y-157511791D03*
X334698519Y-157511791D03*
X334198519Y-157511791D03*
X333698519Y-157511791D03*
X333198519Y-157511791D03*
X332698519Y-157511791D03*
X332198519Y-157511791D03*
X331698519Y-157511791D03*
X331198519Y-157511791D03*
X330698519Y-157511791D03*
X330198519Y-157511791D03*
X329698519Y-157511791D03*
X329198519Y-157511791D03*
X328698519Y-157511791D03*
X328198519Y-157511791D03*
X327698519Y-157511791D03*
X327198519Y-157511791D03*
X326698519Y-157511791D03*
X326198519Y-157511791D03*
X325698519Y-157511791D03*
X325198519Y-157511791D03*
X324698519Y-157511791D03*
X324198519Y-157511791D03*
X323698519Y-157511791D03*
X323198519Y-157511791D03*
X322698519Y-157511791D03*
X322198519Y-157511791D03*
X321698519Y-157511791D03*
X321198519Y-157511791D03*
X320698519Y-157511791D03*
X320198519Y-157511791D03*
D12*
X247248106Y-135001468D03*
X248948106Y-135001468D03*
D14*
X370267411Y-99152863D03*
X372167411Y-99152863D03*
D13*
X344170000Y-124040000D03*
X344170000Y-122340000D03*
D14*
X256860000Y-171450000D03*
X258760000Y-171450000D03*
D27*
X378714000Y-140970000D03*
X377190000Y-140970000D03*
X375666000Y-140970000D03*
D18*
X328930000Y-99110800D03*
X327660000Y-99110800D03*
X326390000Y-99110800D03*
X325120000Y-99110800D03*
X323850000Y-99110800D03*
X322580000Y-99110800D03*
X321310000Y-99110800D03*
X320040000Y-99110800D03*
X318770000Y-99110800D03*
X317500000Y-99110800D03*
X316230000Y-99110800D03*
X314960000Y-99110800D03*
X314960000Y-109169200D03*
X316230000Y-109169200D03*
X317500000Y-109169200D03*
X318770000Y-109169200D03*
X320040000Y-109169200D03*
X321310000Y-109169200D03*
X322580000Y-109169200D03*
X323850000Y-109169200D03*
X325120000Y-109169200D03*
X326390000Y-109169200D03*
X327660000Y-109169200D03*
X328930000Y-109169200D03*
D12*
X343587114Y-156210000D03*
X341887114Y-156210000D03*
X287020000Y-77470000D03*
X288720000Y-77470000D03*
D17*
X386856389Y-173355000D03*
X386856389Y-174005000D03*
X386856389Y-174655000D03*
X386856389Y-175305000D03*
X386856389Y-175955000D03*
X386856389Y-176605000D03*
X386856389Y-177255000D03*
X386856389Y-177905000D03*
X392581389Y-177905000D03*
X392581389Y-177255000D03*
X392581389Y-176605000D03*
X392581389Y-175955000D03*
X392581389Y-175305000D03*
X392581389Y-174655000D03*
X392581389Y-174005000D03*
X392581389Y-173355000D03*
D18*
X290195000Y-99110800D03*
X288925000Y-99110800D03*
X287655000Y-99110800D03*
X286385000Y-99110800D03*
X285115000Y-99110800D03*
X283845000Y-99110800D03*
X282575000Y-99110800D03*
X281305000Y-99110800D03*
X280035000Y-99110800D03*
X278765000Y-99110800D03*
X278765000Y-109169200D03*
X280035000Y-109169200D03*
X281305000Y-109169200D03*
X282575000Y-109169200D03*
X283845000Y-109169200D03*
X285115000Y-109169200D03*
X286385000Y-109169200D03*
X287655000Y-109169200D03*
X288925000Y-109169200D03*
X290195000Y-109169200D03*
D28*
X21620877Y-83081015D03*
X21620877Y-87043415D03*
X21620877Y-91005815D03*
X21620877Y-94968215D03*
X21620877Y-98930615D03*
X21620877Y-102893015D03*
X21620877Y-106855415D03*
X21620877Y-110817815D03*
X21620877Y-114780215D03*
X21620877Y-118742615D03*
X21620877Y-122705015D03*
X21620877Y-126667415D03*
D13*
X320040000Y-198733012D03*
X320040000Y-200433012D03*
X261620000Y-164680000D03*
X261620000Y-162980000D03*
D23*
X67627500Y-198122500D03*
X67627500Y-200022500D03*
D12*
X315380000Y-154059211D03*
X317080000Y-154059211D03*
X279400000Y-198120000D03*
X277700000Y-198120000D03*
D13*
X312420000Y-103007445D03*
X312420000Y-104707445D03*
X347980000Y-162980000D03*
X347980000Y-164680000D03*
X230505000Y-95285729D03*
X230505000Y-93585729D03*
D18*
X270510000Y-140837539D03*
X271780000Y-140837539D03*
X273050000Y-140837539D03*
X274320000Y-140837539D03*
X275590000Y-140837539D03*
X276860000Y-140837539D03*
X278130000Y-140837539D03*
X279400000Y-140837539D03*
X279400000Y-134690739D03*
X278130000Y-134690739D03*
X276860000Y-134690739D03*
X275590000Y-134690739D03*
X274320000Y-134690739D03*
X273050000Y-134690739D03*
X271780000Y-134690739D03*
X270510000Y-134690739D03*
D13*
X241300000Y-152400000D03*
X241300000Y-150700000D03*
X207597802Y-79795000D03*
X207597802Y-81495000D03*
D29*
X305985860Y-191833223D03*
X305985860Y-190883223D03*
X305985860Y-189933223D03*
X303710860Y-189933223D03*
X303710860Y-191833223D03*
D14*
X110810000Y-89063175D03*
X112710000Y-89063175D03*
D13*
X276860000Y-149655000D03*
X276860000Y-147955000D03*
D16*
X260889082Y-76200000D03*
X257989082Y-76200000D03*
D30*
X353771000Y-139696146D03*
X353771000Y-142007146D03*
X353771000Y-144318146D03*
D31*
X359969000Y-142007146D03*
D13*
X254635000Y-156425000D03*
X254635000Y-154725000D03*
D12*
X392580427Y-180476684D03*
X390880427Y-180476684D03*
X342060000Y-180340000D03*
X340360000Y-180340000D03*
D20*
X83442950Y-48596750D03*
X79480550Y-48596750D03*
X75518150Y-48596750D03*
X71555750Y-48596750D03*
X67593350Y-48596750D03*
X63630950Y-48596750D03*
X59668550Y-48596750D03*
X55706150Y-48596750D03*
X51743750Y-48596750D03*
X47781350Y-48596750D03*
X43818950Y-48596750D03*
X39856550Y-48596750D03*
D12*
X314341674Y-182880000D03*
X312641674Y-182880000D03*
D13*
X247015000Y-93550000D03*
X247015000Y-95250000D03*
D18*
X347345000Y-99110800D03*
X346075000Y-99110800D03*
X344805000Y-99110800D03*
X343535000Y-99110800D03*
X342265000Y-99110800D03*
X340995000Y-99110800D03*
X339725000Y-99110800D03*
X338455000Y-99110800D03*
X337185000Y-99110800D03*
X335915000Y-99110800D03*
X335915000Y-109169200D03*
X337185000Y-109169200D03*
X338455000Y-109169200D03*
X339725000Y-109169200D03*
X340995000Y-109169200D03*
X342265000Y-109169200D03*
X343535000Y-109169200D03*
X344805000Y-109169200D03*
X346075000Y-109169200D03*
X347345000Y-109169200D03*
D13*
X154659735Y-180292688D03*
X154659735Y-181992688D03*
D32*
X60744402Y-200813913D03*
X60244402Y-200813913D03*
X59744402Y-200813913D03*
X59244402Y-200813913D03*
X58744402Y-200813913D03*
X58244402Y-200813913D03*
X57744402Y-200813913D03*
X57244402Y-200813913D03*
X56744402Y-200813913D03*
X56244402Y-200813913D03*
X55744402Y-200813913D03*
X55244402Y-200813913D03*
D33*
X53831902Y-202226413D03*
X53831902Y-202726413D03*
X53831902Y-203226413D03*
X53831902Y-203726413D03*
X53831902Y-204226413D03*
X53831902Y-204726413D03*
X53831902Y-205226413D03*
X53831902Y-205726413D03*
X53831902Y-206226413D03*
X53831902Y-206726413D03*
X53831902Y-207226413D03*
X53831902Y-207726413D03*
D32*
X55244402Y-209138913D03*
X55744402Y-209138913D03*
X56244402Y-209138913D03*
X56744402Y-209138913D03*
X57244402Y-209138913D03*
X57744402Y-209138913D03*
X58244402Y-209138913D03*
X58744402Y-209138913D03*
X59244402Y-209138913D03*
X59744402Y-209138913D03*
X60244402Y-209138913D03*
X60744402Y-209138913D03*
D33*
X62156902Y-207726413D03*
X62156902Y-207226413D03*
X62156902Y-206726413D03*
X62156902Y-206226413D03*
X62156902Y-205726413D03*
X62156902Y-205226413D03*
X62156902Y-204726413D03*
X62156902Y-204226413D03*
X62156902Y-203726413D03*
X62156902Y-203226413D03*
X62156902Y-202726413D03*
X62156902Y-202226413D03*
D12*
X221830000Y-81280000D03*
X220130000Y-81280000D03*
X357505000Y-125730000D03*
X355805000Y-125730000D03*
D23*
X354965000Y-162880000D03*
X354965000Y-164780000D03*
D13*
X289560000Y-191770000D03*
X289560000Y-190070000D03*
D12*
X392716262Y-170815000D03*
X391016262Y-170815000D03*
D13*
X293388692Y-102870000D03*
X293388692Y-104570000D03*
D18*
X250190000Y-99644200D03*
X251460000Y-99644200D03*
X252730000Y-99644200D03*
X254000000Y-99644200D03*
X255270000Y-99644200D03*
X256540000Y-99644200D03*
X257810000Y-99644200D03*
X259080000Y-99644200D03*
X260350000Y-99644200D03*
X261620000Y-99644200D03*
X261620000Y-89585800D03*
X260350000Y-89585800D03*
X259080000Y-89585800D03*
X257810000Y-89585800D03*
X256540000Y-89585800D03*
X255270000Y-89585800D03*
X254000000Y-89585800D03*
X252730000Y-89585800D03*
X251460000Y-89585800D03*
X250190000Y-89585800D03*
D13*
X316230000Y-132080000D03*
X316230000Y-130380000D03*
D14*
X220665000Y-95885000D03*
X222565000Y-95885000D03*
D12*
X343564439Y-153670000D03*
X341864439Y-153670000D03*
D19*
X342900000Y-192974000D03*
X341630000Y-192974000D03*
X340360000Y-192974000D03*
X339090000Y-192974000D03*
X337820000Y-192974000D03*
X336550000Y-192974000D03*
X335280000Y-192974000D03*
X334010000Y-192974000D03*
X332740000Y-192974000D03*
X331470000Y-192974000D03*
X330200000Y-192974000D03*
X328930000Y-192974000D03*
X327660000Y-192974000D03*
X326390000Y-192974000D03*
X325120000Y-192974000D03*
X323850000Y-192974000D03*
X323850000Y-205806000D03*
X325120000Y-205806000D03*
X326390000Y-205806000D03*
X327660000Y-205806000D03*
X328930000Y-205806000D03*
X330200000Y-205806000D03*
X331470000Y-205806000D03*
X332740000Y-205806000D03*
X334010000Y-205806000D03*
X335280000Y-205806000D03*
X336550000Y-205806000D03*
X337820000Y-205806000D03*
X339090000Y-205806000D03*
X340360000Y-205806000D03*
X341630000Y-205806000D03*
X342900000Y-205806000D03*
D12*
X217385000Y-67945000D03*
X215685000Y-67945000D03*
X316814612Y-156771714D03*
X315114612Y-156771714D03*
D13*
X290110704Y-132080000D03*
X290110704Y-130380000D03*
D15*
X214630000Y-62410000D03*
X214630000Y-59510000D03*
D12*
X255358166Y-135222015D03*
X257058166Y-135222015D03*
D13*
X274121198Y-149655000D03*
X274121198Y-147955000D03*
D34*
X258810000Y-161716900D03*
X258310000Y-161716900D03*
X257810000Y-161716900D03*
X257310000Y-161716900D03*
X256810000Y-161716900D03*
X256810000Y-165943100D03*
X257310000Y-165943100D03*
X257810000Y-165943100D03*
X258310000Y-165943100D03*
X258810000Y-165943100D03*
D18*
X309245000Y-99110800D03*
X307975000Y-99110800D03*
X306705000Y-99110800D03*
X305435000Y-99110800D03*
X304165000Y-99110800D03*
X302895000Y-99110800D03*
X301625000Y-99110800D03*
X300355000Y-99110800D03*
X299085000Y-99110800D03*
X297815000Y-99110800D03*
X297815000Y-109169200D03*
X299085000Y-109169200D03*
X300355000Y-109169200D03*
X301625000Y-109169200D03*
X302895000Y-109169200D03*
X304165000Y-109169200D03*
X305435000Y-109169200D03*
X306705000Y-109169200D03*
X307975000Y-109169200D03*
X309245000Y-109169200D03*
D35*
X385080000Y-54295000D03*
X385080000Y-56195000D03*
X387080000Y-55245000D03*
D12*
X354557322Y-134620000D03*
X356257322Y-134620000D03*
D18*
X341630000Y-120116600D03*
X340360000Y-120116600D03*
X339090000Y-120116600D03*
X337820000Y-120116600D03*
X336550000Y-120116600D03*
X335280000Y-120116600D03*
X334010000Y-120116600D03*
X334010000Y-126263400D03*
X335280000Y-126263400D03*
X336550000Y-126263400D03*
X337820000Y-126263400D03*
X339090000Y-126263400D03*
X340360000Y-126263400D03*
X341630000Y-126263400D03*
M02*
