G04 #@! TF.GenerationSoftware,KiCad,Pcbnew,8.0.6*
G04 #@! TF.CreationDate,2024-11-24T22:49:27+01:00*
G04 #@! TF.ProjectId,cbm_ultipet_v1,63626d5f-756c-4746-9970-65745f76312e,rev?*
G04 #@! TF.SameCoordinates,Original*
G04 #@! TF.FileFunction,Soldermask,Top*
G04 #@! TF.FilePolarity,Negative*
%FSLAX46Y46*%
G04 Gerber Fmt 4.6, Leading zero omitted, Abs format (unit mm)*
G04 Created by KiCad (PCBNEW 8.0.6) date 2024-11-24 22:49:27*
%MOMM*%
%LPD*%
G01*
G04 APERTURE LIST*
G04 Aperture macros list*
%AMRoundRect*
0 Rectangle with rounded corners*
0 $1 Rounding radius*
0 $2 $3 $4 $5 $6 $7 $8 $9 X,Y pos of 4 corners*
0 Add a 4 corners polygon primitive as box body*
4,1,4,$2,$3,$4,$5,$6,$7,$8,$9,$2,$3,0*
0 Add four circle primitives for the rounded corners*
1,1,$1+$1,$2,$3*
1,1,$1+$1,$4,$5*
1,1,$1+$1,$6,$7*
1,1,$1+$1,$8,$9*
0 Add four rect primitives between the rounded corners*
20,1,$1+$1,$2,$3,$4,$5,0*
20,1,$1+$1,$4,$5,$6,$7,0*
20,1,$1+$1,$6,$7,$8,$9,0*
20,1,$1+$1,$8,$9,$2,$3,0*%
%AMFreePoly0*
4,1,25,0.333266,0.742596,0.345389,0.732242,0.732242,0.345389,0.760749,0.289441,0.762000,0.273547,0.762000,-0.273547,0.742596,-0.333266,0.732242,-0.345389,0.345389,-0.732242,0.289441,-0.760749,0.273547,-0.762000,-0.273547,-0.762000,-0.333266,-0.742596,-0.345389,-0.732242,-0.732242,-0.345389,-0.760749,-0.289441,-0.762000,-0.273547,-0.762000,0.273547,-0.742596,0.333266,-0.732242,0.345389,
-0.345389,0.732242,-0.289441,0.760749,-0.273547,0.762000,0.273547,0.762000,0.333266,0.742596,0.333266,0.742596,$1*%
%AMFreePoly1*
4,1,25,0.391131,0.882296,0.403254,0.871942,0.871942,0.403254,0.900449,0.347306,0.901700,0.331412,0.901700,-0.331412,0.882296,-0.391131,0.871942,-0.403254,0.403254,-0.871942,0.347306,-0.900449,0.331412,-0.901700,-0.331412,-0.901700,-0.391131,-0.882296,-0.403254,-0.871942,-0.871942,-0.403254,-0.900449,-0.347306,-0.901700,-0.331412,-0.901700,0.331412,-0.882296,0.391131,-0.871942,0.403254,
-0.403254,0.871942,-0.347306,0.900449,-0.331412,0.901700,0.331412,0.901700,0.391131,0.882296,0.391131,0.882296,$1*%
%AMFreePoly2*
4,1,25,0.375350,0.844196,0.387473,0.833842,0.833842,0.387473,0.862349,0.331525,0.863600,0.315631,0.863600,-0.315631,0.844196,-0.375350,0.833842,-0.387473,0.387473,-0.833842,0.331525,-0.862349,0.315631,-0.863600,-0.315631,-0.863600,-0.375350,-0.844196,-0.387473,-0.833842,-0.833842,-0.387473,-0.862349,-0.331525,-0.863600,-0.315631,-0.863600,0.315631,-0.844196,0.375350,-0.833842,0.387473,
-0.387473,0.833842,-0.331525,0.862349,-0.315631,0.863600,0.315631,0.863600,0.375350,0.844196,0.375350,0.844196,$1*%
%AMFreePoly3*
4,1,25,0.322745,0.717196,0.334868,0.706842,0.706842,0.334868,0.735349,0.278920,0.736600,0.263026,0.736600,-0.263026,0.717196,-0.322745,0.706842,-0.334868,0.334868,-0.706842,0.278920,-0.735349,0.263026,-0.736600,-0.263026,-0.736600,-0.322745,-0.717196,-0.334868,-0.706842,-0.706842,-0.334868,-0.735349,-0.278920,-0.736600,-0.263026,-0.736600,0.263026,-0.717196,0.322745,-0.706842,0.334868,
-0.334868,0.706842,-0.278920,0.735349,-0.263026,0.736600,0.263026,0.736600,0.322745,0.717196,0.322745,0.717196,$1*%
%AMFreePoly4*
4,1,35,0.586062,0.786062,0.601000,0.750000,0.601000,-0.750000,0.586062,-0.786062,0.550000,-0.801000,0.000000,-0.801000,-0.012285,-0.795911,-0.071157,-0.795911,-0.085525,-0.793845,-0.222076,-0.753750,-0.235281,-0.747720,-0.355003,-0.670779,-0.365973,-0.661273,-0.459170,-0.553718,-0.467018,-0.541506,-0.526137,-0.412052,-0.530227,-0.398124,-0.550481,-0.257258,-0.551000,-0.250000,-0.551000,0.250000,
-0.550481,0.257258,-0.530227,0.398124,-0.526137,0.412052,-0.467018,0.541506,-0.459170,0.553718,-0.365973,0.661273,-0.355003,0.670779,-0.235281,0.747720,-0.222076,0.753750,-0.085525,0.793845,-0.071157,0.795911,-0.012285,0.795911,0.000000,0.801000,0.550000,0.801000,0.586062,0.786062,0.586062,0.786062,$1*%
%AMFreePoly5*
4,1,35,0.012285,0.795911,0.071157,0.795911,0.085525,0.793845,0.222076,0.753750,0.235281,0.747720,0.355003,0.670779,0.365973,0.661273,0.459170,0.553718,0.467018,0.541506,0.526137,0.412052,0.530227,0.398124,0.550481,0.257258,0.551000,0.250000,0.551000,-0.250000,0.550481,-0.257258,0.530227,-0.398124,0.526137,-0.412052,0.467018,-0.541506,0.459170,-0.553718,0.365973,-0.661273,
0.355003,-0.670779,0.235281,-0.747720,0.222076,-0.753750,0.085525,-0.793845,0.071157,-0.795911,0.012285,-0.795911,0.000000,-0.801000,-0.550000,-0.801000,-0.586062,-0.786062,-0.601000,-0.750000,-0.601000,0.750000,-0.586062,0.786062,-0.550000,0.801000,0.000000,0.801000,0.012285,0.795911,0.012285,0.795911,$1*%
%AMFreePoly6*
4,1,25,0.354308,0.793396,0.366431,0.783042,0.783042,0.366431,0.811549,0.310483,0.812800,0.294589,0.812800,-0.294589,0.793396,-0.354308,0.783042,-0.366431,0.366431,-0.783042,0.310483,-0.811549,0.294589,-0.812800,-0.294589,-0.812800,-0.354308,-0.793396,-0.366431,-0.783042,-0.783042,-0.366431,-0.811549,-0.310483,-0.812800,-0.294589,-0.812800,0.294589,-0.793396,0.354308,-0.783042,0.366431,
-0.366431,0.783042,-0.310483,0.811549,-0.294589,0.812800,0.294589,0.812800,0.354308,0.793396,0.354308,0.793396,$1*%
%AMFreePoly7*
4,1,25,0.349047,0.780696,0.361170,0.770342,0.770342,0.361170,0.798849,0.305222,0.800100,0.289328,0.800100,-0.289328,0.780696,-0.349047,0.770342,-0.361170,0.361170,-0.770342,0.305222,-0.798849,0.289328,-0.800100,-0.289328,-0.800100,-0.349047,-0.780696,-0.361170,-0.770342,-0.770342,-0.361170,-0.798849,-0.305222,-0.800100,-0.289328,-0.800100,0.289328,-0.780696,0.349047,-0.770342,0.361170,
-0.361170,0.770342,-0.305222,0.798849,-0.289328,0.800100,0.289328,0.800100,0.349047,0.780696,0.349047,0.780696,$1*%
%AMFreePoly8*
4,1,25,0.470039,1.072796,0.482162,1.062442,1.062442,0.482162,1.090949,0.426214,1.092200,0.410320,1.092200,-0.410320,1.072796,-0.470039,1.062442,-0.482162,0.482162,-1.062442,0.426214,-1.090949,0.410320,-1.092200,-0.410320,-1.092200,-0.470039,-1.072796,-0.482162,-1.062442,-1.062442,-0.482162,-1.090949,-0.426214,-1.092200,-0.410320,-1.092200,0.410320,-1.072796,0.470039,-1.062442,0.482162,
-0.482162,1.062442,-0.426214,1.090949,-0.410320,1.092200,0.410320,1.092200,0.470039,1.072796,0.470039,1.072796,$1*%
G04 Aperture macros list end*
%ADD10C,4.800000*%
%ADD11C,4.600000*%
%ADD12C,4.500000*%
%ADD13C,0.300000*%
%ADD14O,2.844800X1.524000*%
%ADD15C,6.102000*%
%ADD16RoundRect,0.101600X-0.550000X-0.500000X0.550000X-0.500000X0.550000X0.500000X-0.550000X0.500000X0*%
%ADD17RoundRect,0.101600X-0.955000X0.305000X-0.955000X-0.305000X0.955000X-0.305000X0.955000X0.305000X0*%
%ADD18RoundRect,0.101600X1.205000X1.550000X-1.205000X1.550000X-1.205000X-1.550000X1.205000X-1.550000X0*%
%ADD19O,3.048000X1.625600*%
%ADD20RoundRect,0.101600X0.550000X0.500000X-0.550000X0.500000X-0.550000X-0.500000X0.550000X-0.500000X0*%
%ADD21FreePoly0,180.000000*%
%ADD22RoundRect,0.051000X0.800000X-0.800000X0.800000X0.800000X-0.800000X0.800000X-0.800000X-0.800000X0*%
%ADD23O,1.702000X1.702000*%
%ADD24RoundRect,0.101600X-1.117500X0.609500X-1.117500X-0.609500X1.117500X-0.609500X1.117500X0.609500X0*%
%ADD25RoundRect,0.101600X-1.100000X1.800000X-1.100000X-1.800000X1.100000X-1.800000X1.100000X1.800000X0*%
%ADD26O,1.524000X2.844800*%
%ADD27FreePoly0,270.000000*%
%ADD28C,1.803400*%
%ADD29FreePoly1,90.000000*%
%ADD30RoundRect,0.101600X0.500000X-0.550000X0.500000X0.550000X-0.500000X0.550000X-0.500000X-0.550000X0*%
%ADD31FreePoly0,0.000000*%
%ADD32C,3.150000*%
%ADD33FreePoly2,90.000000*%
%ADD34O,2.102000X1.302000*%
%ADD35RoundRect,0.101600X-0.650000X-0.750000X0.650000X-0.750000X0.650000X0.750000X-0.650000X0.750000X0*%
%ADD36FreePoly0,90.000000*%
%ADD37RoundRect,0.051000X0.800000X0.800000X-0.800000X0.800000X-0.800000X-0.800000X0.800000X-0.800000X0*%
%ADD38RoundRect,0.101600X-0.500000X0.550000X-0.500000X-0.550000X0.500000X-0.550000X0.500000X0.550000X0*%
%ADD39FreePoly1,0.000000*%
%ADD40FreePoly2,270.000000*%
%ADD41C,2.362200*%
%ADD42RoundRect,0.051000X0.800000X-1.200000X0.800000X1.200000X-0.800000X1.200000X-0.800000X-1.200000X0*%
%ADD43O,1.702000X2.502000*%
%ADD44RoundRect,0.101600X0.750000X-0.650000X0.750000X0.650000X-0.750000X0.650000X-0.750000X-0.650000X0*%
%ADD45RoundRect,0.051000X-0.850000X-0.850000X0.850000X-0.850000X0.850000X0.850000X-0.850000X0.850000X0*%
%ADD46RoundRect,0.051000X-0.350000X-0.255000X0.350000X-0.255000X0.350000X0.255000X-0.350000X0.255000X0*%
%ADD47RoundRect,0.051000X-0.800000X0.800000X-0.800000X-0.800000X0.800000X-0.800000X0.800000X0.800000X0*%
%ADD48C,1.473200*%
%ADD49FreePoly3,270.000000*%
%ADD50RoundRect,0.101600X0.600000X-0.750000X0.600000X0.750000X-0.600000X0.750000X-0.600000X-0.750000X0*%
%ADD51FreePoly1,270.000000*%
%ADD52RoundRect,0.265000X-0.636000X-0.636000X0.636000X-0.636000X0.636000X0.636000X-0.636000X0.636000X0*%
%ADD53C,1.802000*%
%ADD54RoundRect,0.101600X0.750000X0.600000X-0.750000X0.600000X-0.750000X-0.600000X0.750000X-0.600000X0*%
%ADD55FreePoly4,0.000000*%
%ADD56RoundRect,0.051000X-0.500000X-0.750000X0.500000X-0.750000X0.500000X0.750000X-0.500000X0.750000X0*%
%ADD57FreePoly5,0.000000*%
%ADD58FreePoly3,0.000000*%
%ADD59FreePoly3,90.000000*%
%ADD60C,1.524000*%
%ADD61RoundRect,0.175500X0.175500X-0.850500X0.175500X0.850500X-0.175500X0.850500X-0.175500X-0.850500X0*%
%ADD62O,1.625600X3.048000*%
%ADD63RoundRect,0.101600X0.330200X1.016000X-0.330200X1.016000X-0.330200X-1.016000X0.330200X-1.016000X0*%
%ADD64RoundRect,0.101600X-0.300000X-1.100000X0.300000X-1.100000X0.300000X1.100000X-0.300000X1.100000X0*%
%ADD65RoundRect,0.388620X0.906780X4.792980X-0.906780X4.792980X-0.906780X-4.792980X0.906780X-4.792980X0*%
%ADD66RoundRect,0.088000X0.088000X-0.688000X0.088000X0.688000X-0.088000X0.688000X-0.088000X-0.688000X0*%
%ADD67RoundRect,0.088000X0.688000X-0.088000X0.688000X0.088000X-0.688000X0.088000X-0.688000X-0.088000X0*%
%ADD68RoundRect,0.125500X-0.663000X-0.125500X0.663000X-0.125500X0.663000X0.125500X-0.663000X0.125500X0*%
%ADD69O,1.802000X1.802000*%
%ADD70RoundRect,0.101600X-0.635000X-0.317500X0.635000X-0.317500X0.635000X0.317500X-0.635000X0.317500X0*%
%ADD71RoundRect,0.101600X0.635000X0.317500X-0.635000X0.317500X-0.635000X-0.317500X0.635000X-0.317500X0*%
%ADD72RoundRect,0.051000X0.850000X-0.850000X0.850000X0.850000X-0.850000X0.850000X-0.850000X-0.850000X0*%
%ADD73RoundRect,0.101600X-0.750000X0.650000X-0.750000X-0.650000X0.750000X-0.650000X0.750000X0.650000X0*%
%ADD74RoundRect,0.101600X-0.750000X0.135000X-0.750000X-0.135000X0.750000X-0.135000X0.750000X0.135000X0*%
%ADD75RoundRect,0.101600X-0.135000X0.750000X-0.135000X-0.750000X0.135000X-0.750000X0.135000X0.750000X0*%
%ADD76C,5.283200*%
%ADD77C,2.896000*%
%ADD78RoundRect,0.051000X-0.800000X-0.800000X0.800000X-0.800000X0.800000X0.800000X-0.800000X0.800000X0*%
%ADD79C,1.702000*%
%ADD80O,4.394200X2.298700*%
%ADD81O,2.451100X4.699000*%
%ADD82RoundRect,0.388620X-4.792980X0.906780X-4.792980X-0.906780X4.792980X-0.906780X4.792980X0.906780X0*%
%ADD83FreePoly6,270.000000*%
%ADD84O,2.603200X1.403200*%
%ADD85O,1.403200X2.603200*%
%ADD86C,1.625600*%
%ADD87C,3.530600*%
%ADD88O,2.203200X4.203200*%
%ADD89O,4.203200X2.203200*%
%ADD90RoundRect,0.101600X-0.330200X-1.016000X0.330200X-1.016000X0.330200X1.016000X-0.330200X1.016000X0*%
%ADD91RoundRect,0.175500X0.538000X0.175500X-0.538000X0.175500X-0.538000X-0.175500X0.538000X-0.175500X0*%
%ADD92RoundRect,0.051000X-1.200000X-0.800000X1.200000X-0.800000X1.200000X0.800000X-1.200000X0.800000X0*%
%ADD93O,2.502000X1.702000*%
%ADD94C,1.727200*%
%ADD95RoundRect,0.051000X-0.711200X0.711200X-0.711200X-0.711200X0.711200X-0.711200X0.711200X0.711200X0*%
%ADD96C,1.524400*%
%ADD97C,1.626000*%
%ADD98O,1.602000X2.102000*%
%ADD99C,3.404000*%
%ADD100O,3.556000X1.879600*%
%ADD101RoundRect,0.101600X0.300000X1.100000X-0.300000X1.100000X-0.300000X-1.100000X0.300000X-1.100000X0*%
%ADD102FreePoly6,0.000000*%
%ADD103FreePoly2,180.000000*%
%ADD104C,1.611200*%
%ADD105C,1.600200*%
%ADD106FreePoly7,90.000000*%
%ADD107FreePoly6,180.000000*%
%ADD108FreePoly8,180.000000*%
%ADD109C,2.184400*%
%ADD110RoundRect,0.101600X0.125000X0.500000X-0.125000X0.500000X-0.125000X-0.500000X0.125000X-0.500000X0*%
%ADD111RoundRect,0.101600X-0.125000X-0.500000X0.125000X-0.500000X0.125000X0.500000X-0.125000X0.500000X0*%
%ADD112RoundRect,0.101600X-0.450000X0.400000X-0.450000X-0.400000X0.450000X-0.400000X0.450000X0.400000X0*%
%ADD113C,2.082800*%
%ADD114C,1.981200*%
%ADD115C,4.013200*%
%ADD116O,1.302000X2.102000*%
%ADD117FreePoly6,90.000000*%
G04 APERTURE END LIST*
D10*
X275755178Y-44330862D02*
X275755178Y-44330862D01*
D11*
X373264678Y-71702662D02*
X373264678Y-71703662D01*
D12*
X294397678Y-71702662D02*
X294397678Y-71703662D01*
D13*
X279121899Y-217984638D02*
X279121899Y-219603685D01*
X279121899Y-219603685D02*
X279217137Y-219794161D01*
X279217137Y-219794161D02*
X279312375Y-219889400D01*
X279312375Y-219889400D02*
X279502851Y-219984638D01*
X279502851Y-219984638D02*
X279883804Y-219984638D01*
X279883804Y-219984638D02*
X280074280Y-219889400D01*
X280074280Y-219889400D02*
X280169518Y-219794161D01*
X280169518Y-219794161D02*
X280264756Y-219603685D01*
X280264756Y-219603685D02*
X280264756Y-217984638D01*
X281502851Y-219984638D02*
X281312375Y-219889400D01*
X281312375Y-219889400D02*
X281217137Y-219698923D01*
X281217137Y-219698923D02*
X281217137Y-217984638D01*
X281979042Y-218651304D02*
X282740946Y-218651304D01*
X282264756Y-217984638D02*
X282264756Y-219698923D01*
X282264756Y-219698923D02*
X282359994Y-219889400D01*
X282359994Y-219889400D02*
X282550470Y-219984638D01*
X282550470Y-219984638D02*
X282740946Y-219984638D01*
X283407613Y-219984638D02*
X283407613Y-218651304D01*
X283407613Y-217984638D02*
X283312375Y-218079876D01*
X283312375Y-218079876D02*
X283407613Y-218175114D01*
X283407613Y-218175114D02*
X283502851Y-218079876D01*
X283502851Y-218079876D02*
X283407613Y-217984638D01*
X283407613Y-217984638D02*
X283407613Y-218175114D01*
X284359994Y-219222733D02*
X285883804Y-219222733D01*
X286836184Y-219984638D02*
X286836184Y-217984638D01*
X286836184Y-217984638D02*
X287598089Y-217984638D01*
X287598089Y-217984638D02*
X287788565Y-218079876D01*
X287788565Y-218079876D02*
X287883803Y-218175114D01*
X287883803Y-218175114D02*
X287979041Y-218365590D01*
X287979041Y-218365590D02*
X287979041Y-218651304D01*
X287979041Y-218651304D02*
X287883803Y-218841780D01*
X287883803Y-218841780D02*
X287788565Y-218937019D01*
X287788565Y-218937019D02*
X287598089Y-219032257D01*
X287598089Y-219032257D02*
X286836184Y-219032257D01*
X288836184Y-218937019D02*
X289502851Y-218937019D01*
X289788565Y-219984638D02*
X288836184Y-219984638D01*
X288836184Y-219984638D02*
X288836184Y-217984638D01*
X288836184Y-217984638D02*
X289788565Y-217984638D01*
X290359994Y-217984638D02*
X291502851Y-217984638D01*
X290931422Y-219984638D02*
X290931422Y-217984638D01*
X294264757Y-220746542D02*
X294169518Y-220651304D01*
X294169518Y-220651304D02*
X293979042Y-220365590D01*
X293979042Y-220365590D02*
X293883804Y-220175114D01*
X293883804Y-220175114D02*
X293788566Y-219889400D01*
X293788566Y-219889400D02*
X293693328Y-219413209D01*
X293693328Y-219413209D02*
X293693328Y-219032257D01*
X293693328Y-219032257D02*
X293788566Y-218556066D01*
X293788566Y-218556066D02*
X293883804Y-218270352D01*
X293883804Y-218270352D02*
X293979042Y-218079876D01*
X293979042Y-218079876D02*
X294169518Y-217794161D01*
X294169518Y-217794161D02*
X294264757Y-217698923D01*
X296169518Y-219794161D02*
X296074280Y-219889400D01*
X296074280Y-219889400D02*
X295788566Y-219984638D01*
X295788566Y-219984638D02*
X295598090Y-219984638D01*
X295598090Y-219984638D02*
X295312375Y-219889400D01*
X295312375Y-219889400D02*
X295121899Y-219698923D01*
X295121899Y-219698923D02*
X295026661Y-219508447D01*
X295026661Y-219508447D02*
X294931423Y-219127495D01*
X294931423Y-219127495D02*
X294931423Y-218841780D01*
X294931423Y-218841780D02*
X295026661Y-218460828D01*
X295026661Y-218460828D02*
X295121899Y-218270352D01*
X295121899Y-218270352D02*
X295312375Y-218079876D01*
X295312375Y-218079876D02*
X295598090Y-217984638D01*
X295598090Y-217984638D02*
X295788566Y-217984638D01*
X295788566Y-217984638D02*
X296074280Y-218079876D01*
X296074280Y-218079876D02*
X296169518Y-218175114D01*
X296836185Y-220746542D02*
X296931423Y-220651304D01*
X296931423Y-220651304D02*
X297121899Y-220365590D01*
X297121899Y-220365590D02*
X297217137Y-220175114D01*
X297217137Y-220175114D02*
X297312375Y-219889400D01*
X297312375Y-219889400D02*
X297407613Y-219413209D01*
X297407613Y-219413209D02*
X297407613Y-219032257D01*
X297407613Y-219032257D02*
X297312375Y-218556066D01*
X297312375Y-218556066D02*
X297217137Y-218270352D01*
X297217137Y-218270352D02*
X297121899Y-218079876D01*
X297121899Y-218079876D02*
X296931423Y-217794161D01*
X296931423Y-217794161D02*
X296836185Y-217698923D01*
X299788566Y-219413209D02*
X300740947Y-219413209D01*
X299598090Y-219984638D02*
X300264756Y-217984638D01*
X300264756Y-217984638D02*
X300931423Y-219984638D01*
X301598090Y-219794161D02*
X301693328Y-219889400D01*
X301693328Y-219889400D02*
X301598090Y-219984638D01*
X301598090Y-219984638D02*
X301502852Y-219889400D01*
X301502852Y-219889400D02*
X301598090Y-219794161D01*
X301598090Y-219794161D02*
X301598090Y-219984638D01*
X304740948Y-218937019D02*
X304074281Y-218937019D01*
X304074281Y-219984638D02*
X304074281Y-217984638D01*
X304074281Y-217984638D02*
X305026662Y-217984638D01*
X306645710Y-219984638D02*
X306645710Y-218937019D01*
X306645710Y-218937019D02*
X306550472Y-218746542D01*
X306550472Y-218746542D02*
X306359996Y-218651304D01*
X306359996Y-218651304D02*
X305979043Y-218651304D01*
X305979043Y-218651304D02*
X305788567Y-218746542D01*
X306645710Y-219889400D02*
X306455234Y-219984638D01*
X306455234Y-219984638D02*
X305979043Y-219984638D01*
X305979043Y-219984638D02*
X305788567Y-219889400D01*
X305788567Y-219889400D02*
X305693329Y-219698923D01*
X305693329Y-219698923D02*
X305693329Y-219508447D01*
X305693329Y-219508447D02*
X305788567Y-219317971D01*
X305788567Y-219317971D02*
X305979043Y-219222733D01*
X305979043Y-219222733D02*
X306455234Y-219222733D01*
X306455234Y-219222733D02*
X306645710Y-219127495D01*
X308455234Y-219889400D02*
X308264758Y-219984638D01*
X308264758Y-219984638D02*
X307883805Y-219984638D01*
X307883805Y-219984638D02*
X307693329Y-219889400D01*
X307693329Y-219889400D02*
X307598091Y-219794161D01*
X307598091Y-219794161D02*
X307502853Y-219603685D01*
X307502853Y-219603685D02*
X307502853Y-219032257D01*
X307502853Y-219032257D02*
X307598091Y-218841780D01*
X307598091Y-218841780D02*
X307693329Y-218746542D01*
X307693329Y-218746542D02*
X307883805Y-218651304D01*
X307883805Y-218651304D02*
X308264758Y-218651304D01*
X308264758Y-218651304D02*
X308455234Y-218746542D01*
X309312377Y-219984638D02*
X309312377Y-217984638D01*
X310169520Y-219984638D02*
X310169520Y-218937019D01*
X310169520Y-218937019D02*
X310074282Y-218746542D01*
X310074282Y-218746542D02*
X309883806Y-218651304D01*
X309883806Y-218651304D02*
X309598091Y-218651304D01*
X309598091Y-218651304D02*
X309407615Y-218746542D01*
X309407615Y-218746542D02*
X309312377Y-218841780D01*
X311979044Y-219984638D02*
X311979044Y-218937019D01*
X311979044Y-218937019D02*
X311883806Y-218746542D01*
X311883806Y-218746542D02*
X311693330Y-218651304D01*
X311693330Y-218651304D02*
X311312377Y-218651304D01*
X311312377Y-218651304D02*
X311121901Y-218746542D01*
X311979044Y-219889400D02*
X311788568Y-219984638D01*
X311788568Y-219984638D02*
X311312377Y-219984638D01*
X311312377Y-219984638D02*
X311121901Y-219889400D01*
X311121901Y-219889400D02*
X311026663Y-219698923D01*
X311026663Y-219698923D02*
X311026663Y-219508447D01*
X311026663Y-219508447D02*
X311121901Y-219317971D01*
X311121901Y-219317971D02*
X311312377Y-219222733D01*
X311312377Y-219222733D02*
X311788568Y-219222733D01*
X311788568Y-219222733D02*
X311979044Y-219127495D01*
X312645711Y-218651304D02*
X313407615Y-218651304D01*
X312931425Y-217984638D02*
X312931425Y-219698923D01*
X312931425Y-219698923D02*
X313026663Y-219889400D01*
X313026663Y-219889400D02*
X313217139Y-219984638D01*
X313217139Y-219984638D02*
X313407615Y-219984638D01*
X314169520Y-219889400D02*
X314169520Y-219984638D01*
X314169520Y-219984638D02*
X314074282Y-220175114D01*
X314074282Y-220175114D02*
X313979044Y-220270352D01*
X314074282Y-218746542D02*
X314169520Y-218841780D01*
X314169520Y-218841780D02*
X314074282Y-218937019D01*
X314074282Y-218937019D02*
X313979044Y-218841780D01*
X313979044Y-218841780D02*
X314074282Y-218746542D01*
X314074282Y-218746542D02*
X314074282Y-218937019D01*
X317217140Y-218937019D02*
X317502854Y-219032257D01*
X317502854Y-219032257D02*
X317598092Y-219127495D01*
X317598092Y-219127495D02*
X317693330Y-219317971D01*
X317693330Y-219317971D02*
X317693330Y-219603685D01*
X317693330Y-219603685D02*
X317598092Y-219794161D01*
X317598092Y-219794161D02*
X317502854Y-219889400D01*
X317502854Y-219889400D02*
X317312378Y-219984638D01*
X317312378Y-219984638D02*
X316550473Y-219984638D01*
X316550473Y-219984638D02*
X316550473Y-217984638D01*
X316550473Y-217984638D02*
X317217140Y-217984638D01*
X317217140Y-217984638D02*
X317407616Y-218079876D01*
X317407616Y-218079876D02*
X317502854Y-218175114D01*
X317502854Y-218175114D02*
X317598092Y-218365590D01*
X317598092Y-218365590D02*
X317598092Y-218556066D01*
X317598092Y-218556066D02*
X317502854Y-218746542D01*
X317502854Y-218746542D02*
X317407616Y-218841780D01*
X317407616Y-218841780D02*
X317217140Y-218937019D01*
X317217140Y-218937019D02*
X316550473Y-218937019D01*
X318836187Y-219984638D02*
X318645711Y-219889400D01*
X318645711Y-219889400D02*
X318550473Y-219794161D01*
X318550473Y-219794161D02*
X318455235Y-219603685D01*
X318455235Y-219603685D02*
X318455235Y-219032257D01*
X318455235Y-219032257D02*
X318550473Y-218841780D01*
X318550473Y-218841780D02*
X318645711Y-218746542D01*
X318645711Y-218746542D02*
X318836187Y-218651304D01*
X318836187Y-218651304D02*
X319121902Y-218651304D01*
X319121902Y-218651304D02*
X319312378Y-218746542D01*
X319312378Y-218746542D02*
X319407616Y-218841780D01*
X319407616Y-218841780D02*
X319502854Y-219032257D01*
X319502854Y-219032257D02*
X319502854Y-219603685D01*
X319502854Y-219603685D02*
X319407616Y-219794161D01*
X319407616Y-219794161D02*
X319312378Y-219889400D01*
X319312378Y-219889400D02*
X319121902Y-219984638D01*
X319121902Y-219984638D02*
X318836187Y-219984638D01*
X321217140Y-219984638D02*
X321217140Y-218937019D01*
X321217140Y-218937019D02*
X321121902Y-218746542D01*
X321121902Y-218746542D02*
X320931426Y-218651304D01*
X320931426Y-218651304D02*
X320550473Y-218651304D01*
X320550473Y-218651304D02*
X320359997Y-218746542D01*
X321217140Y-219889400D02*
X321026664Y-219984638D01*
X321026664Y-219984638D02*
X320550473Y-219984638D01*
X320550473Y-219984638D02*
X320359997Y-219889400D01*
X320359997Y-219889400D02*
X320264759Y-219698923D01*
X320264759Y-219698923D02*
X320264759Y-219508447D01*
X320264759Y-219508447D02*
X320359997Y-219317971D01*
X320359997Y-219317971D02*
X320550473Y-219222733D01*
X320550473Y-219222733D02*
X321026664Y-219222733D01*
X321026664Y-219222733D02*
X321217140Y-219127495D01*
X322169521Y-219984638D02*
X322169521Y-218651304D01*
X322169521Y-219032257D02*
X322264759Y-218841780D01*
X322264759Y-218841780D02*
X322359997Y-218746542D01*
X322359997Y-218746542D02*
X322550473Y-218651304D01*
X322550473Y-218651304D02*
X322740950Y-218651304D01*
X324264759Y-219984638D02*
X324264759Y-217984638D01*
X324264759Y-219889400D02*
X324074283Y-219984638D01*
X324074283Y-219984638D02*
X323693330Y-219984638D01*
X323693330Y-219984638D02*
X323502854Y-219889400D01*
X323502854Y-219889400D02*
X323407616Y-219794161D01*
X323407616Y-219794161D02*
X323312378Y-219603685D01*
X323312378Y-219603685D02*
X323312378Y-219032257D01*
X323312378Y-219032257D02*
X323407616Y-218841780D01*
X323407616Y-218841780D02*
X323502854Y-218746542D01*
X323502854Y-218746542D02*
X323693330Y-218651304D01*
X323693330Y-218651304D02*
X324074283Y-218651304D01*
X324074283Y-218651304D02*
X324264759Y-218746542D01*
X327026664Y-219984638D02*
X326836188Y-219889400D01*
X326836188Y-219889400D02*
X326740950Y-219794161D01*
X326740950Y-219794161D02*
X326645712Y-219603685D01*
X326645712Y-219603685D02*
X326645712Y-219032257D01*
X326645712Y-219032257D02*
X326740950Y-218841780D01*
X326740950Y-218841780D02*
X326836188Y-218746542D01*
X326836188Y-218746542D02*
X327026664Y-218651304D01*
X327026664Y-218651304D02*
X327312379Y-218651304D01*
X327312379Y-218651304D02*
X327502855Y-218746542D01*
X327502855Y-218746542D02*
X327598093Y-218841780D01*
X327598093Y-218841780D02*
X327693331Y-219032257D01*
X327693331Y-219032257D02*
X327693331Y-219603685D01*
X327693331Y-219603685D02*
X327598093Y-219794161D01*
X327598093Y-219794161D02*
X327502855Y-219889400D01*
X327502855Y-219889400D02*
X327312379Y-219984638D01*
X327312379Y-219984638D02*
X327026664Y-219984638D01*
X329407617Y-218651304D02*
X329407617Y-219984638D01*
X328550474Y-218651304D02*
X328550474Y-219698923D01*
X328550474Y-219698923D02*
X328645712Y-219889400D01*
X328645712Y-219889400D02*
X328836188Y-219984638D01*
X328836188Y-219984638D02*
X329121903Y-219984638D01*
X329121903Y-219984638D02*
X329312379Y-219889400D01*
X329312379Y-219889400D02*
X329407617Y-219794161D01*
X330074284Y-218651304D02*
X330836188Y-218651304D01*
X330359998Y-217984638D02*
X330359998Y-219698923D01*
X330359998Y-219698923D02*
X330455236Y-219889400D01*
X330455236Y-219889400D02*
X330645712Y-219984638D01*
X330645712Y-219984638D02*
X330836188Y-219984638D01*
X331788569Y-219984638D02*
X331598093Y-219889400D01*
X331598093Y-219889400D02*
X331502855Y-219698923D01*
X331502855Y-219698923D02*
X331502855Y-217984638D01*
X332550474Y-219984638D02*
X332550474Y-218651304D01*
X332550474Y-217984638D02*
X332455236Y-218079876D01*
X332455236Y-218079876D02*
X332550474Y-218175114D01*
X332550474Y-218175114D02*
X332645712Y-218079876D01*
X332645712Y-218079876D02*
X332550474Y-217984638D01*
X332550474Y-217984638D02*
X332550474Y-218175114D01*
X333502855Y-218651304D02*
X333502855Y-219984638D01*
X333502855Y-218841780D02*
X333598093Y-218746542D01*
X333598093Y-218746542D02*
X333788569Y-218651304D01*
X333788569Y-218651304D02*
X334074284Y-218651304D01*
X334074284Y-218651304D02*
X334264760Y-218746542D01*
X334264760Y-218746542D02*
X334359998Y-218937019D01*
X334359998Y-218937019D02*
X334359998Y-219984638D01*
X336074284Y-219889400D02*
X335883808Y-219984638D01*
X335883808Y-219984638D02*
X335502855Y-219984638D01*
X335502855Y-219984638D02*
X335312379Y-219889400D01*
X335312379Y-219889400D02*
X335217141Y-219698923D01*
X335217141Y-219698923D02*
X335217141Y-218937019D01*
X335217141Y-218937019D02*
X335312379Y-218746542D01*
X335312379Y-218746542D02*
X335502855Y-218651304D01*
X335502855Y-218651304D02*
X335883808Y-218651304D01*
X335883808Y-218651304D02*
X336074284Y-218746542D01*
X336074284Y-218746542D02*
X336169522Y-218937019D01*
X336169522Y-218937019D02*
X336169522Y-219127495D01*
X336169522Y-219127495D02*
X335217141Y-219317971D01*
X338550475Y-219984638D02*
X338550475Y-218651304D01*
X338550475Y-217984638D02*
X338455237Y-218079876D01*
X338455237Y-218079876D02*
X338550475Y-218175114D01*
X338550475Y-218175114D02*
X338645713Y-218079876D01*
X338645713Y-218079876D02*
X338550475Y-217984638D01*
X338550475Y-217984638D02*
X338550475Y-218175114D01*
X339502856Y-218651304D02*
X339502856Y-219984638D01*
X339502856Y-218841780D02*
X339598094Y-218746542D01*
X339598094Y-218746542D02*
X339788570Y-218651304D01*
X339788570Y-218651304D02*
X340074285Y-218651304D01*
X340074285Y-218651304D02*
X340264761Y-218746542D01*
X340264761Y-218746542D02*
X340359999Y-218937019D01*
X340359999Y-218937019D02*
X340359999Y-219984638D01*
X341312380Y-219984638D02*
X341312380Y-218651304D01*
X341312380Y-217984638D02*
X341217142Y-218079876D01*
X341217142Y-218079876D02*
X341312380Y-218175114D01*
X341312380Y-218175114D02*
X341407618Y-218079876D01*
X341407618Y-218079876D02*
X341312380Y-217984638D01*
X341312380Y-217984638D02*
X341312380Y-218175114D01*
X341979047Y-218651304D02*
X342740951Y-218651304D01*
X342264761Y-217984638D02*
X342264761Y-219698923D01*
X342264761Y-219698923D02*
X342359999Y-219889400D01*
X342359999Y-219889400D02*
X342550475Y-219984638D01*
X342550475Y-219984638D02*
X342740951Y-219984638D01*
X343407618Y-219984638D02*
X343407618Y-218651304D01*
X343407618Y-217984638D02*
X343312380Y-218079876D01*
X343312380Y-218079876D02*
X343407618Y-218175114D01*
X343407618Y-218175114D02*
X343502856Y-218079876D01*
X343502856Y-218079876D02*
X343407618Y-217984638D01*
X343407618Y-217984638D02*
X343407618Y-218175114D01*
X345217142Y-219984638D02*
X345217142Y-218937019D01*
X345217142Y-218937019D02*
X345121904Y-218746542D01*
X345121904Y-218746542D02*
X344931428Y-218651304D01*
X344931428Y-218651304D02*
X344550475Y-218651304D01*
X344550475Y-218651304D02*
X344359999Y-218746542D01*
X345217142Y-219889400D02*
X345026666Y-219984638D01*
X345026666Y-219984638D02*
X344550475Y-219984638D01*
X344550475Y-219984638D02*
X344359999Y-219889400D01*
X344359999Y-219889400D02*
X344264761Y-219698923D01*
X344264761Y-219698923D02*
X344264761Y-219508447D01*
X344264761Y-219508447D02*
X344359999Y-219317971D01*
X344359999Y-219317971D02*
X344550475Y-219222733D01*
X344550475Y-219222733D02*
X345026666Y-219222733D01*
X345026666Y-219222733D02*
X345217142Y-219127495D01*
X346455237Y-219984638D02*
X346264761Y-219889400D01*
X346264761Y-219889400D02*
X346169523Y-219698923D01*
X346169523Y-219698923D02*
X346169523Y-217984638D01*
X347502856Y-219984638D02*
X347312380Y-219889400D01*
X347312380Y-219889400D02*
X347217142Y-219698923D01*
X347217142Y-219698923D02*
X347217142Y-217984638D01*
X348074285Y-218651304D02*
X348550475Y-219984638D01*
X349026666Y-218651304D02*
X348550475Y-219984638D01*
X348550475Y-219984638D02*
X348359999Y-220460828D01*
X348359999Y-220460828D02*
X348264761Y-220556066D01*
X348264761Y-220556066D02*
X348074285Y-220651304D01*
X351026667Y-218651304D02*
X351788571Y-218651304D01*
X351312381Y-219984638D02*
X351312381Y-218270352D01*
X351312381Y-218270352D02*
X351407619Y-218079876D01*
X351407619Y-218079876D02*
X351598095Y-217984638D01*
X351598095Y-217984638D02*
X351788571Y-217984638D01*
X352455238Y-219984638D02*
X352455238Y-218651304D01*
X352455238Y-219032257D02*
X352550476Y-218841780D01*
X352550476Y-218841780D02*
X352645714Y-218746542D01*
X352645714Y-218746542D02*
X352836190Y-218651304D01*
X352836190Y-218651304D02*
X353026667Y-218651304D01*
X353979047Y-219984638D02*
X353788571Y-219889400D01*
X353788571Y-219889400D02*
X353693333Y-219794161D01*
X353693333Y-219794161D02*
X353598095Y-219603685D01*
X353598095Y-219603685D02*
X353598095Y-219032257D01*
X353598095Y-219032257D02*
X353693333Y-218841780D01*
X353693333Y-218841780D02*
X353788571Y-218746542D01*
X353788571Y-218746542D02*
X353979047Y-218651304D01*
X353979047Y-218651304D02*
X354264762Y-218651304D01*
X354264762Y-218651304D02*
X354455238Y-218746542D01*
X354455238Y-218746542D02*
X354550476Y-218841780D01*
X354550476Y-218841780D02*
X354645714Y-219032257D01*
X354645714Y-219032257D02*
X354645714Y-219603685D01*
X354645714Y-219603685D02*
X354550476Y-219794161D01*
X354550476Y-219794161D02*
X354455238Y-219889400D01*
X354455238Y-219889400D02*
X354264762Y-219984638D01*
X354264762Y-219984638D02*
X353979047Y-219984638D01*
X355502857Y-219984638D02*
X355502857Y-218651304D01*
X355502857Y-218841780D02*
X355598095Y-218746542D01*
X355598095Y-218746542D02*
X355788571Y-218651304D01*
X355788571Y-218651304D02*
X356074286Y-218651304D01*
X356074286Y-218651304D02*
X356264762Y-218746542D01*
X356264762Y-218746542D02*
X356360000Y-218937019D01*
X356360000Y-218937019D02*
X356360000Y-219984638D01*
X356360000Y-218937019D02*
X356455238Y-218746542D01*
X356455238Y-218746542D02*
X356645714Y-218651304D01*
X356645714Y-218651304D02*
X356931428Y-218651304D01*
X356931428Y-218651304D02*
X357121905Y-218746542D01*
X357121905Y-218746542D02*
X357217143Y-218937019D01*
X357217143Y-218937019D02*
X357217143Y-219984638D01*
X360836191Y-219984638D02*
X360169524Y-219032257D01*
X359693334Y-219984638D02*
X359693334Y-217984638D01*
X359693334Y-217984638D02*
X360455239Y-217984638D01*
X360455239Y-217984638D02*
X360645715Y-218079876D01*
X360645715Y-218079876D02*
X360740953Y-218175114D01*
X360740953Y-218175114D02*
X360836191Y-218365590D01*
X360836191Y-218365590D02*
X360836191Y-218651304D01*
X360836191Y-218651304D02*
X360740953Y-218841780D01*
X360740953Y-218841780D02*
X360645715Y-218937019D01*
X360645715Y-218937019D02*
X360455239Y-219032257D01*
X360455239Y-219032257D02*
X359693334Y-219032257D01*
X362455239Y-219889400D02*
X362264763Y-219984638D01*
X362264763Y-219984638D02*
X361883810Y-219984638D01*
X361883810Y-219984638D02*
X361693334Y-219889400D01*
X361693334Y-219889400D02*
X361598096Y-219698923D01*
X361598096Y-219698923D02*
X361598096Y-218937019D01*
X361598096Y-218937019D02*
X361693334Y-218746542D01*
X361693334Y-218746542D02*
X361883810Y-218651304D01*
X361883810Y-218651304D02*
X362264763Y-218651304D01*
X362264763Y-218651304D02*
X362455239Y-218746542D01*
X362455239Y-218746542D02*
X362550477Y-218937019D01*
X362550477Y-218937019D02*
X362550477Y-219127495D01*
X362550477Y-219127495D02*
X361598096Y-219317971D01*
X363407620Y-218651304D02*
X363407620Y-220651304D01*
X363407620Y-218746542D02*
X363598096Y-218651304D01*
X363598096Y-218651304D02*
X363979049Y-218651304D01*
X363979049Y-218651304D02*
X364169525Y-218746542D01*
X364169525Y-218746542D02*
X364264763Y-218841780D01*
X364264763Y-218841780D02*
X364360001Y-219032257D01*
X364360001Y-219032257D02*
X364360001Y-219603685D01*
X364360001Y-219603685D02*
X364264763Y-219794161D01*
X364264763Y-219794161D02*
X364169525Y-219889400D01*
X364169525Y-219889400D02*
X363979049Y-219984638D01*
X363979049Y-219984638D02*
X363598096Y-219984638D01*
X363598096Y-219984638D02*
X363407620Y-219889400D01*
X365502858Y-219984638D02*
X365312382Y-219889400D01*
X365312382Y-219889400D02*
X365217144Y-219698923D01*
X365217144Y-219698923D02*
X365217144Y-217984638D01*
X366264763Y-219984638D02*
X366264763Y-218651304D01*
X366264763Y-217984638D02*
X366169525Y-218079876D01*
X366169525Y-218079876D02*
X366264763Y-218175114D01*
X366264763Y-218175114D02*
X366360001Y-218079876D01*
X366360001Y-218079876D02*
X366264763Y-217984638D01*
X366264763Y-217984638D02*
X366264763Y-218175114D01*
X368074287Y-219889400D02*
X367883811Y-219984638D01*
X367883811Y-219984638D02*
X367502858Y-219984638D01*
X367502858Y-219984638D02*
X367312382Y-219889400D01*
X367312382Y-219889400D02*
X367217144Y-219794161D01*
X367217144Y-219794161D02*
X367121906Y-219603685D01*
X367121906Y-219603685D02*
X367121906Y-219032257D01*
X367121906Y-219032257D02*
X367217144Y-218841780D01*
X367217144Y-218841780D02*
X367312382Y-218746542D01*
X367312382Y-218746542D02*
X367502858Y-218651304D01*
X367502858Y-218651304D02*
X367883811Y-218651304D01*
X367883811Y-218651304D02*
X368074287Y-218746542D01*
X369788573Y-219984638D02*
X369788573Y-218937019D01*
X369788573Y-218937019D02*
X369693335Y-218746542D01*
X369693335Y-218746542D02*
X369502859Y-218651304D01*
X369502859Y-218651304D02*
X369121906Y-218651304D01*
X369121906Y-218651304D02*
X368931430Y-218746542D01*
X369788573Y-219889400D02*
X369598097Y-219984638D01*
X369598097Y-219984638D02*
X369121906Y-219984638D01*
X369121906Y-219984638D02*
X368931430Y-219889400D01*
X368931430Y-219889400D02*
X368836192Y-219698923D01*
X368836192Y-219698923D02*
X368836192Y-219508447D01*
X368836192Y-219508447D02*
X368931430Y-219317971D01*
X368931430Y-219317971D02*
X369121906Y-219222733D01*
X369121906Y-219222733D02*
X369598097Y-219222733D01*
X369598097Y-219222733D02*
X369788573Y-219127495D01*
X373312383Y-219984638D02*
X372169526Y-219984638D01*
X372740954Y-219984638D02*
X372740954Y-217984638D01*
X372740954Y-217984638D02*
X372550478Y-218270352D01*
X372550478Y-218270352D02*
X372360002Y-218460828D01*
X372360002Y-218460828D02*
X372169526Y-218556066D01*
X374169526Y-219794161D02*
X374264764Y-219889400D01*
X374264764Y-219889400D02*
X374169526Y-219984638D01*
X374169526Y-219984638D02*
X374074288Y-219889400D01*
X374074288Y-219889400D02*
X374169526Y-219794161D01*
X374169526Y-219794161D02*
X374169526Y-219984638D01*
X375979050Y-218651304D02*
X375979050Y-219984638D01*
X375502859Y-217889400D02*
X375026669Y-219317971D01*
X375026669Y-219317971D02*
X376264764Y-219317971D01*
X378550479Y-219984638D02*
X378550479Y-217984638D01*
X378550479Y-218746542D02*
X378740955Y-218651304D01*
X378740955Y-218651304D02*
X379121908Y-218651304D01*
X379121908Y-218651304D02*
X379312384Y-218746542D01*
X379312384Y-218746542D02*
X379407622Y-218841780D01*
X379407622Y-218841780D02*
X379502860Y-219032257D01*
X379502860Y-219032257D02*
X379502860Y-219603685D01*
X379502860Y-219603685D02*
X379407622Y-219794161D01*
X379407622Y-219794161D02*
X379312384Y-219889400D01*
X379312384Y-219889400D02*
X379121908Y-219984638D01*
X379121908Y-219984638D02*
X378740955Y-219984638D01*
X378740955Y-219984638D02*
X378550479Y-219889400D01*
X380169527Y-218651304D02*
X380645717Y-219984638D01*
X381121908Y-218651304D02*
X380645717Y-219984638D01*
X380645717Y-219984638D02*
X380455241Y-220460828D01*
X380455241Y-220460828D02*
X380360003Y-220556066D01*
X380360003Y-220556066D02*
X380169527Y-220651304D01*
X384074290Y-218937019D02*
X384360004Y-219032257D01*
X384360004Y-219032257D02*
X384455242Y-219127495D01*
X384455242Y-219127495D02*
X384550480Y-219317971D01*
X384550480Y-219317971D02*
X384550480Y-219603685D01*
X384550480Y-219603685D02*
X384455242Y-219794161D01*
X384455242Y-219794161D02*
X384360004Y-219889400D01*
X384360004Y-219889400D02*
X384169528Y-219984638D01*
X384169528Y-219984638D02*
X383407623Y-219984638D01*
X383407623Y-219984638D02*
X383407623Y-217984638D01*
X383407623Y-217984638D02*
X384074290Y-217984638D01*
X384074290Y-217984638D02*
X384264766Y-218079876D01*
X384264766Y-218079876D02*
X384360004Y-218175114D01*
X384360004Y-218175114D02*
X384455242Y-218365590D01*
X384455242Y-218365590D02*
X384455242Y-218556066D01*
X384455242Y-218556066D02*
X384360004Y-218746542D01*
X384360004Y-218746542D02*
X384264766Y-218841780D01*
X384264766Y-218841780D02*
X384074290Y-218937019D01*
X384074290Y-218937019D02*
X383407623Y-218937019D01*
X385217147Y-217984638D02*
X385693337Y-219984638D01*
X385693337Y-219984638D02*
X386074290Y-218556066D01*
X386074290Y-218556066D02*
X386455242Y-219984638D01*
X386455242Y-219984638D02*
X386931433Y-217984638D01*
X387598099Y-219413209D02*
X388550480Y-219413209D01*
X387407623Y-219984638D02*
X388074289Y-217984638D01*
X388074289Y-217984638D02*
X388740956Y-219984638D01*
X390550480Y-219794161D02*
X390455242Y-219889400D01*
X390455242Y-219889400D02*
X390169528Y-219984638D01*
X390169528Y-219984638D02*
X389979052Y-219984638D01*
X389979052Y-219984638D02*
X389693337Y-219889400D01*
X389693337Y-219889400D02*
X389502861Y-219698923D01*
X389502861Y-219698923D02*
X389407623Y-219508447D01*
X389407623Y-219508447D02*
X389312385Y-219127495D01*
X389312385Y-219127495D02*
X389312385Y-218841780D01*
X389312385Y-218841780D02*
X389407623Y-218460828D01*
X389407623Y-218460828D02*
X389502861Y-218270352D01*
X389502861Y-218270352D02*
X389693337Y-218079876D01*
X389693337Y-218079876D02*
X389979052Y-217984638D01*
X389979052Y-217984638D02*
X390169528Y-217984638D01*
X390169528Y-217984638D02*
X390455242Y-218079876D01*
X390455242Y-218079876D02*
X390550480Y-218175114D01*
X391407623Y-219984638D02*
X391407623Y-217984638D01*
X392550480Y-219984638D02*
X391693337Y-218841780D01*
X392550480Y-217984638D02*
X391407623Y-219127495D01*
X394836195Y-218175114D02*
X394931433Y-218079876D01*
X394931433Y-218079876D02*
X395121909Y-217984638D01*
X395121909Y-217984638D02*
X395598100Y-217984638D01*
X395598100Y-217984638D02*
X395788576Y-218079876D01*
X395788576Y-218079876D02*
X395883814Y-218175114D01*
X395883814Y-218175114D02*
X395979052Y-218365590D01*
X395979052Y-218365590D02*
X395979052Y-218556066D01*
X395979052Y-218556066D02*
X395883814Y-218841780D01*
X395883814Y-218841780D02*
X394740957Y-219984638D01*
X394740957Y-219984638D02*
X395979052Y-219984638D01*
X397217147Y-217984638D02*
X397407624Y-217984638D01*
X397407624Y-217984638D02*
X397598100Y-218079876D01*
X397598100Y-218079876D02*
X397693338Y-218175114D01*
X397693338Y-218175114D02*
X397788576Y-218365590D01*
X397788576Y-218365590D02*
X397883814Y-218746542D01*
X397883814Y-218746542D02*
X397883814Y-219222733D01*
X397883814Y-219222733D02*
X397788576Y-219603685D01*
X397788576Y-219603685D02*
X397693338Y-219794161D01*
X397693338Y-219794161D02*
X397598100Y-219889400D01*
X397598100Y-219889400D02*
X397407624Y-219984638D01*
X397407624Y-219984638D02*
X397217147Y-219984638D01*
X397217147Y-219984638D02*
X397026671Y-219889400D01*
X397026671Y-219889400D02*
X396931433Y-219794161D01*
X396931433Y-219794161D02*
X396836195Y-219603685D01*
X396836195Y-219603685D02*
X396740957Y-219222733D01*
X396740957Y-219222733D02*
X396740957Y-218746542D01*
X396740957Y-218746542D02*
X396836195Y-218365590D01*
X396836195Y-218365590D02*
X396931433Y-218175114D01*
X396931433Y-218175114D02*
X397026671Y-218079876D01*
X397026671Y-218079876D02*
X397217147Y-217984638D01*
X399788576Y-219984638D02*
X398645719Y-219984638D01*
X399217147Y-219984638D02*
X399217147Y-217984638D01*
X399217147Y-217984638D02*
X399026671Y-218270352D01*
X399026671Y-218270352D02*
X398836195Y-218460828D01*
X398836195Y-218460828D02*
X398645719Y-218556066D01*
X400740957Y-219984638D02*
X401121909Y-219984638D01*
X401121909Y-219984638D02*
X401312386Y-219889400D01*
X401312386Y-219889400D02*
X401407624Y-219794161D01*
X401407624Y-219794161D02*
X401598100Y-219508447D01*
X401598100Y-219508447D02*
X401693338Y-219127495D01*
X401693338Y-219127495D02*
X401693338Y-218365590D01*
X401693338Y-218365590D02*
X401598100Y-218175114D01*
X401598100Y-218175114D02*
X401502862Y-218079876D01*
X401502862Y-218079876D02*
X401312386Y-217984638D01*
X401312386Y-217984638D02*
X400931433Y-217984638D01*
X400931433Y-217984638D02*
X400740957Y-218079876D01*
X400740957Y-218079876D02*
X400645719Y-218175114D01*
X400645719Y-218175114D02*
X400550481Y-218365590D01*
X400550481Y-218365590D02*
X400550481Y-218841780D01*
X400550481Y-218841780D02*
X400645719Y-219032257D01*
X400645719Y-219032257D02*
X400740957Y-219127495D01*
X400740957Y-219127495D02*
X400931433Y-219222733D01*
X400931433Y-219222733D02*
X401312386Y-219222733D01*
X401312386Y-219222733D02*
X401502862Y-219127495D01*
X401502862Y-219127495D02*
X401598100Y-219032257D01*
X401598100Y-219032257D02*
X401693338Y-218841780D01*
D14*
X179772652Y-95250000D03*
X179772652Y-97790000D03*
X179772652Y-100330000D03*
X179772652Y-102870000D03*
X179772652Y-105410000D03*
X179772652Y-107950000D03*
X179772652Y-110490000D03*
X187392652Y-110490000D03*
X187392652Y-107950000D03*
X187392652Y-105410000D03*
X187392652Y-102870000D03*
X187392652Y-100330000D03*
X187392652Y-97790000D03*
X187392652Y-95250000D03*
D15*
X196100000Y-62000000D03*
D16*
X313355000Y-169285000D03*
X315055000Y-169285000D03*
D17*
X364095000Y-180975000D03*
X364095000Y-179705000D03*
X364095000Y-178435000D03*
X364095000Y-177165000D03*
X358535000Y-177165000D03*
X358535000Y-178435000D03*
X358535000Y-179705000D03*
X358535000Y-180975000D03*
D18*
X361315000Y-179070000D03*
D19*
X69882208Y-163830000D03*
X69882208Y-158750000D03*
X69882208Y-156210000D03*
X69882208Y-153670000D03*
X69882208Y-151130000D03*
X69882208Y-148590000D03*
X69882208Y-146050000D03*
X69882208Y-143510000D03*
X69882208Y-140970000D03*
X69882208Y-138430000D03*
X69882208Y-135890000D03*
X69882208Y-133350000D03*
X69882208Y-130810000D03*
X69882208Y-128270000D03*
X69882208Y-125730000D03*
X69882208Y-123190000D03*
X69882208Y-120650000D03*
X69882208Y-118110000D03*
X69882208Y-115570000D03*
D20*
X241093210Y-135144172D03*
X239393210Y-135144172D03*
D21*
X146060000Y-70485000D03*
X147330000Y-72390000D03*
X148600000Y-70485000D03*
D22*
X379095000Y-152400000D03*
D23*
X379095000Y-144780000D03*
D24*
X372821000Y-61824000D03*
X372821000Y-64135000D03*
X372821000Y-66446000D03*
D25*
X379019000Y-64135000D03*
D26*
X359958100Y-193675000D03*
X362498100Y-193675000D03*
X365038100Y-193675000D03*
X367578100Y-193675000D03*
X367578100Y-186055000D03*
X365038100Y-186055000D03*
X362498100Y-186055000D03*
X359958100Y-186055000D03*
D27*
X126746000Y-209804000D03*
X126746000Y-212344000D03*
D15*
X29850000Y-173000000D03*
D28*
X393700000Y-57150000D03*
D29*
X393700000Y-54610000D03*
D27*
X197485000Y-194310000D03*
X197485000Y-201930000D03*
D19*
X32385000Y-74930000D03*
X32385000Y-72390000D03*
D27*
X224155000Y-180340000D03*
X224155000Y-190500000D03*
X217170000Y-194310000D03*
X217170000Y-201930000D03*
D14*
X92272410Y-92710000D03*
X92272410Y-95250000D03*
X92272410Y-97790000D03*
X92272410Y-100330000D03*
X92272410Y-102870000D03*
X92272410Y-105410000D03*
X92272410Y-107950000D03*
X92272410Y-110490000D03*
X92272410Y-113030000D03*
X92272410Y-115570000D03*
X92272410Y-118110000D03*
X92272410Y-120650000D03*
X92272410Y-123190000D03*
X92272410Y-125730000D03*
X92272410Y-128270000D03*
X92272410Y-130810000D03*
X92272410Y-133350000D03*
X92272410Y-135890000D03*
X92272410Y-138430000D03*
X92272410Y-140970000D03*
X107512410Y-140970000D03*
X107512410Y-138430000D03*
X107512410Y-135890000D03*
X107512410Y-133350000D03*
X107512410Y-130810000D03*
X107512410Y-128270000D03*
X107512410Y-125730000D03*
X107512410Y-123190000D03*
X107512410Y-120650000D03*
X107512410Y-118110000D03*
X107512410Y-115570000D03*
X107512410Y-113030000D03*
X107512410Y-110490000D03*
X107512410Y-107950000D03*
X107512410Y-105410000D03*
X107512410Y-102870000D03*
X107512410Y-100330000D03*
X107512410Y-97790000D03*
X107512410Y-95250000D03*
X107512410Y-92710000D03*
D30*
X326947000Y-183893000D03*
X326947000Y-182193000D03*
D31*
X258445000Y-178435000D03*
X260985000Y-178435000D03*
D32*
X396659900Y-152146000D03*
X396659900Y-127254000D03*
D33*
X395237500Y-145237200D03*
X395237500Y-142468600D03*
X395237500Y-139700000D03*
X395237500Y-136931400D03*
X395237500Y-134162800D03*
X398081100Y-143852900D03*
X398081100Y-141084300D03*
X398081100Y-138315700D03*
X398081100Y-135547100D03*
D31*
X370205000Y-212725000D03*
X377825000Y-212725000D03*
D14*
X193675000Y-95250000D03*
X193675000Y-97790000D03*
X193675000Y-100330000D03*
X193675000Y-102870000D03*
X193675000Y-105410000D03*
X193675000Y-107950000D03*
X193675000Y-110490000D03*
X201295000Y-110490000D03*
X201295000Y-107950000D03*
X201295000Y-105410000D03*
X201295000Y-102870000D03*
X201295000Y-100330000D03*
X201295000Y-97790000D03*
X201295000Y-95250000D03*
D34*
X278989828Y-55501408D03*
X278989828Y-57501408D03*
X278989828Y-59501408D03*
X278989828Y-53501408D03*
X278989828Y-51501408D03*
X278989828Y-61501408D03*
D19*
X220190344Y-137795000D03*
X220190344Y-135255000D03*
D20*
X222004390Y-91440000D03*
X220304390Y-91440000D03*
D15*
X397830000Y-213598652D03*
D30*
X271780000Y-179285000D03*
X271780000Y-177585000D03*
D35*
X272902491Y-95002215D03*
X274802491Y-95002215D03*
D26*
X74930000Y-66675000D03*
X77470000Y-66675000D03*
X80010000Y-66675000D03*
X82550000Y-66675000D03*
X85090000Y-66675000D03*
X87630000Y-66675000D03*
X90170000Y-66675000D03*
X92710000Y-66675000D03*
X95250000Y-66675000D03*
D20*
X315305000Y-173990000D03*
X313605000Y-173990000D03*
D36*
X368935000Y-166370000D03*
X368935000Y-163830000D03*
D22*
X386080000Y-122809000D03*
D23*
X386080000Y-115189000D03*
D37*
X244830600Y-79623800D03*
D23*
X237210600Y-79623800D03*
D38*
X344170000Y-135040000D03*
X344170000Y-136740000D03*
D31*
X343535000Y-212725000D03*
X346075000Y-212725000D03*
D36*
X208280000Y-72390000D03*
X208280000Y-64770000D03*
D21*
X274637500Y-74612500D03*
X272097500Y-74612500D03*
X207010000Y-118110000D03*
X204470000Y-118110000D03*
D28*
X373380000Y-55880000D03*
D39*
X375920000Y-55880000D03*
D36*
X174625000Y-81280000D03*
X174625000Y-78740000D03*
D40*
X19988218Y-148167670D03*
X19988218Y-152688870D03*
D41*
X22477418Y-146923070D03*
X22477418Y-153933470D03*
D38*
X332490504Y-103422340D03*
X332490504Y-105122340D03*
D27*
X262255000Y-64516000D03*
X262255000Y-67056000D03*
X114935000Y-161290000D03*
X114935000Y-163830000D03*
D14*
X172787652Y-92710000D03*
X172787652Y-95250000D03*
X172787652Y-97790000D03*
X172787652Y-100330000D03*
X172787652Y-102870000D03*
X172787652Y-105410000D03*
X172787652Y-107950000D03*
X172787652Y-110490000D03*
D19*
X372745000Y-85090000D03*
X372745000Y-87630000D03*
D42*
X280658363Y-73523214D03*
D43*
X283198363Y-73523214D03*
X285738363Y-73523214D03*
X288278363Y-73523214D03*
X288278363Y-65903214D03*
X285738363Y-65903214D03*
X283198363Y-65903214D03*
X280658363Y-65903214D03*
D22*
X389255000Y-142240000D03*
D23*
X389255000Y-134620000D03*
D44*
X368935000Y-65720000D03*
X368935000Y-63820000D03*
D30*
X351155000Y-180135000D03*
X351155000Y-178435000D03*
D32*
X396659900Y-120396000D03*
X396659900Y-95504000D03*
D33*
X395237500Y-113487200D03*
X395237500Y-110718600D03*
X395237500Y-107950000D03*
X395237500Y-105181400D03*
X395237500Y-102412800D03*
X398081100Y-112102900D03*
X398081100Y-109334300D03*
X398081100Y-106565700D03*
X398081100Y-103797100D03*
D27*
X205740000Y-172720000D03*
X205740000Y-180340000D03*
D36*
X354965000Y-191135000D03*
X354965000Y-188595000D03*
D14*
X135763000Y-217551000D03*
X125603000Y-217551000D03*
D22*
X381000000Y-122809000D03*
D23*
X381000000Y-115189000D03*
D31*
X215900000Y-97790000D03*
X210820000Y-97790000D03*
D36*
X102235000Y-74930000D03*
X102235000Y-72390000D03*
D30*
X350520000Y-104992852D03*
X350520000Y-103292852D03*
D45*
X304800121Y-197602658D03*
D21*
X184852652Y-91440000D03*
X182312652Y-91440000D03*
D46*
X70221000Y-169038000D03*
X70221000Y-169988000D03*
X70221000Y-170938000D03*
X72541000Y-170938000D03*
X72541000Y-169038000D03*
D47*
X264955000Y-86360000D03*
D23*
X264955000Y-93980000D03*
D31*
X139700000Y-217805000D03*
X147320000Y-217805000D03*
D15*
X216170000Y-172937116D03*
D14*
X171398983Y-213537870D03*
X163778983Y-213537870D03*
D48*
X292989000Y-65532000D03*
D49*
X292989000Y-67564000D03*
D50*
X206375000Y-62409654D03*
X206375000Y-59509654D03*
D28*
X33638517Y-161158696D03*
D51*
X33638517Y-163698696D03*
D21*
X86360000Y-211455000D03*
X78740000Y-211455000D03*
D36*
X147555953Y-192947597D03*
X147555953Y-190407597D03*
X211268152Y-72397100D03*
X211268152Y-64777100D03*
D52*
X206257500Y-149860000D03*
D53*
X208797500Y-149860000D03*
X206257500Y-152400000D03*
X208797500Y-152400000D03*
X206257500Y-154940000D03*
X208797500Y-154940000D03*
X206257500Y-157480000D03*
X208797500Y-157480000D03*
X206257500Y-160020000D03*
X208797500Y-160020000D03*
D15*
X23746110Y-213689571D03*
D30*
X323189000Y-154123000D03*
X323189000Y-152423000D03*
D14*
X290195000Y-202478100D03*
X290195000Y-205018100D03*
X290195000Y-207558100D03*
X290195000Y-210098100D03*
X297815000Y-210098100D03*
X297815000Y-207558100D03*
X297815000Y-205018100D03*
X297815000Y-202478100D03*
D22*
X381000000Y-112522000D03*
D23*
X381000000Y-104902000D03*
D36*
X64135000Y-213741000D03*
X64135000Y-203581000D03*
D19*
X233680000Y-161290000D03*
X233680000Y-158750000D03*
X233680000Y-156210000D03*
X233680000Y-153670000D03*
D54*
X259113340Y-83408800D03*
X256213340Y-83408800D03*
D55*
X200405000Y-142035000D03*
D56*
X201705000Y-142035000D03*
D57*
X203005000Y-142035000D03*
D22*
X383540000Y-112522000D03*
D23*
X383540000Y-104902000D03*
D28*
X37519751Y-140548568D03*
D51*
X37519751Y-143088568D03*
D21*
X75536943Y-88900000D03*
X72996943Y-88900000D03*
D36*
X144625553Y-192947597D03*
X144625553Y-190407597D03*
D38*
X346710000Y-202350000D03*
X346710000Y-204050000D03*
D31*
X244695600Y-84678800D03*
X247235600Y-84678800D03*
D48*
X189484000Y-180975000D03*
D58*
X191516000Y-180975000D03*
D26*
X60325000Y-71120000D03*
X57785000Y-71120000D03*
X55245000Y-71120000D03*
X52705000Y-71120000D03*
X50165000Y-71120000D03*
X47625000Y-71120000D03*
X45085000Y-71120000D03*
X42545000Y-71120000D03*
X40005000Y-71120000D03*
D48*
X140335000Y-157226000D03*
D59*
X140335000Y-155194000D03*
D20*
X208555000Y-91785000D03*
X206855000Y-91785000D03*
D30*
X267235711Y-139016191D03*
X267235711Y-137316191D03*
D28*
X359410000Y-134620000D03*
D39*
X361950000Y-134620000D03*
D37*
X244830600Y-76123800D03*
D23*
X237210600Y-76123800D03*
D27*
X203878388Y-194310000D03*
X203878388Y-201930000D03*
D20*
X203415000Y-67945000D03*
X201715000Y-67945000D03*
D28*
X367705000Y-75015000D03*
D51*
X367705000Y-77555000D03*
D14*
X119380000Y-156210000D03*
X119380000Y-158750000D03*
X119380000Y-161290000D03*
X119380000Y-163830000D03*
X119380000Y-166370000D03*
X119380000Y-168910000D03*
X119380000Y-171450000D03*
X119380000Y-173990000D03*
X119380000Y-176530000D03*
X119380000Y-179070000D03*
X119380000Y-181610000D03*
X119380000Y-184150000D03*
X119380000Y-186690000D03*
X119380000Y-189230000D03*
X134620000Y-189230000D03*
X134620000Y-186690000D03*
X134620000Y-184150000D03*
X134620000Y-181610000D03*
X134620000Y-179070000D03*
X134620000Y-176530000D03*
X134620000Y-173990000D03*
X134620000Y-171450000D03*
X134620000Y-168910000D03*
X134620000Y-166370000D03*
X134620000Y-163830000D03*
X134620000Y-161290000D03*
X134620000Y-158750000D03*
X134620000Y-156210000D03*
D60*
X38735000Y-209550000D03*
X53975000Y-209550000D03*
X53975000Y-201930000D03*
X38735000Y-201930000D03*
D61*
X379349000Y-131380000D03*
X380619000Y-131380000D03*
X381889000Y-131380000D03*
X383159000Y-131380000D03*
X384429000Y-131380000D03*
X385699000Y-131380000D03*
X386969000Y-131380000D03*
X388239000Y-131380000D03*
X388239000Y-126430000D03*
X386969000Y-126430000D03*
X385699000Y-126430000D03*
X384429000Y-126430000D03*
X383159000Y-126430000D03*
X381889000Y-126430000D03*
X380619000Y-126430000D03*
X379349000Y-126430000D03*
D37*
X244830600Y-71623800D03*
D23*
X237210600Y-71623800D03*
D45*
X268085438Y-203527695D03*
D54*
X259133000Y-68168800D03*
X256233000Y-68168800D03*
D31*
X81280000Y-167640000D03*
X83820000Y-167640000D03*
D36*
X190500000Y-201930000D03*
X190500000Y-194310000D03*
D14*
X217170000Y-105410000D03*
X209550000Y-105410000D03*
D30*
X261620000Y-156425000D03*
X261620000Y-154725000D03*
D36*
X236757617Y-104363142D03*
X236757617Y-96743142D03*
D27*
X145325872Y-56515000D03*
X145325872Y-66675000D03*
D62*
X130810000Y-71755000D03*
X133350000Y-71755000D03*
X135890000Y-71755000D03*
D28*
X360680000Y-149225000D03*
D51*
X360680000Y-151765000D03*
D15*
X401160000Y-172900000D03*
D36*
X187325000Y-201930000D03*
X187325000Y-194310000D03*
D30*
X269100166Y-179285000D03*
X269100166Y-177585000D03*
D14*
X370840000Y-129540000D03*
X370840000Y-127000000D03*
X370840000Y-124460000D03*
X370840000Y-121920000D03*
X370840000Y-119380000D03*
X370840000Y-116840000D03*
X370840000Y-114300000D03*
X370840000Y-111760000D03*
X370840000Y-109220000D03*
D21*
X339725000Y-212725000D03*
X337185000Y-212725000D03*
X86360000Y-214630000D03*
X78740000Y-214630000D03*
D31*
X294640000Y-189865000D03*
X297180000Y-189865000D03*
D63*
X341630000Y-132816600D03*
X340360000Y-132816600D03*
X339090000Y-132816600D03*
X337820000Y-132816600D03*
X336550000Y-132816600D03*
X335280000Y-132816600D03*
X334010000Y-132816600D03*
X334010000Y-138963400D03*
X335280000Y-138963400D03*
X336550000Y-138963400D03*
X337820000Y-138963400D03*
X339090000Y-138963400D03*
X340360000Y-138963400D03*
X341630000Y-138963400D03*
D19*
X106045000Y-217170000D03*
X106045000Y-214630000D03*
X106045000Y-212090000D03*
D54*
X259133000Y-79598800D03*
X256233000Y-79598800D03*
D16*
X354469868Y-148923456D03*
X356169868Y-148923456D03*
D64*
X245110000Y-154940000D03*
X246380000Y-154940000D03*
X247650000Y-154940000D03*
X248920000Y-154940000D03*
X248920000Y-149740000D03*
X247650000Y-149740000D03*
X246380000Y-149740000D03*
X245110000Y-149740000D03*
D22*
X384175000Y-142240000D03*
D23*
X384175000Y-134620000D03*
D65*
X144841565Y-48598750D03*
X140879165Y-48598750D03*
X136916765Y-48598750D03*
X132954365Y-48598750D03*
X128991965Y-48598750D03*
X125029565Y-48598750D03*
D27*
X288925000Y-138430000D03*
X288925000Y-140970000D03*
D64*
X293370000Y-138496000D03*
X294640000Y-138496000D03*
X295910000Y-138496000D03*
X297180000Y-138496000D03*
X298450000Y-138496000D03*
X299720000Y-138496000D03*
X300990000Y-138496000D03*
X302260000Y-138496000D03*
X303530000Y-138496000D03*
X304800000Y-138496000D03*
X306070000Y-138496000D03*
X307340000Y-138496000D03*
X308610000Y-138496000D03*
X309880000Y-138496000D03*
X311150000Y-138496000D03*
X312420000Y-138496000D03*
X312420000Y-125664000D03*
X311150000Y-125664000D03*
X309880000Y-125664000D03*
X308610000Y-125664000D03*
X307340000Y-125664000D03*
X306070000Y-125664000D03*
X304800000Y-125664000D03*
X303530000Y-125664000D03*
X302260000Y-125664000D03*
X300990000Y-125664000D03*
X299720000Y-125664000D03*
X298450000Y-125664000D03*
X297180000Y-125664000D03*
X295910000Y-125664000D03*
X294640000Y-125664000D03*
X293370000Y-125664000D03*
D27*
X131064000Y-209804000D03*
X131064000Y-212344000D03*
D63*
X365125000Y-99184262D03*
X363855000Y-99184262D03*
X362585000Y-99184262D03*
X361315000Y-99184262D03*
X360045000Y-99184262D03*
X358775000Y-99184262D03*
X357505000Y-99184262D03*
X356235000Y-99184262D03*
X354965000Y-99184262D03*
X353695000Y-99184262D03*
X353695000Y-109242662D03*
X354965000Y-109242662D03*
X356235000Y-109242662D03*
X357505000Y-109242662D03*
X358775000Y-109242662D03*
X360045000Y-109242662D03*
X361315000Y-109242662D03*
X362585000Y-109242662D03*
X363855000Y-109242662D03*
X365125000Y-109242662D03*
D15*
X390600000Y-49600000D03*
D28*
X163830000Y-197485000D03*
D39*
X166370000Y-197485000D03*
D20*
X294855000Y-198120000D03*
X293155000Y-198120000D03*
D22*
X386715000Y-142240000D03*
D23*
X386715000Y-134620000D03*
D26*
X40005000Y-83820000D03*
X42545000Y-83820000D03*
X45085000Y-83820000D03*
X47625000Y-83820000D03*
X50165000Y-83820000D03*
X52705000Y-83820000D03*
X55245000Y-83820000D03*
X57785000Y-83820000D03*
X60325000Y-83820000D03*
X62865000Y-83820000D03*
X62865000Y-76200000D03*
X60325000Y-76200000D03*
X57785000Y-76200000D03*
X55245000Y-76200000D03*
X52705000Y-76200000D03*
X50165000Y-76200000D03*
X47625000Y-76200000D03*
X45085000Y-76200000D03*
X42545000Y-76200000D03*
X40005000Y-76200000D03*
D20*
X314317475Y-180285256D03*
X312617475Y-180285256D03*
D38*
X350940000Y-162980000D03*
X350940000Y-164680000D03*
D66*
X211610000Y-89560000D03*
X212110000Y-89560000D03*
X212610000Y-89560000D03*
X213110000Y-89560000D03*
X213610000Y-89560000D03*
X214110000Y-89560000D03*
X214610000Y-89560000D03*
X215110000Y-89560000D03*
D67*
X216560000Y-88110000D03*
X216560000Y-87610000D03*
X216560000Y-87110000D03*
X216560000Y-86610000D03*
X216560000Y-86110000D03*
X216560000Y-85610000D03*
X216560000Y-85110000D03*
X216560000Y-84610000D03*
D66*
X215110000Y-83160000D03*
X214610000Y-83160000D03*
X214110000Y-83160000D03*
X213610000Y-83160000D03*
X213110000Y-83160000D03*
X212610000Y-83160000D03*
X212110000Y-83160000D03*
X211610000Y-83160000D03*
D67*
X210160000Y-84610000D03*
X210160000Y-85110000D03*
X210160000Y-85610000D03*
X210160000Y-86110000D03*
X210160000Y-86610000D03*
X210160000Y-87110000D03*
X210160000Y-87610000D03*
X210160000Y-88110000D03*
D31*
X238345600Y-84678800D03*
X240885600Y-84678800D03*
D60*
X256712105Y-157453622D03*
X259252105Y-157453622D03*
D22*
X378460000Y-122809000D03*
D23*
X378460000Y-115189000D03*
D27*
X130175000Y-202565000D03*
X130175000Y-205105000D03*
D31*
X258445000Y-175260000D03*
X260985000Y-175260000D03*
D68*
X145727500Y-180590000D03*
X145727500Y-181240000D03*
X145727500Y-181890000D03*
X145727500Y-182540000D03*
X145727500Y-183190000D03*
X145727500Y-183840000D03*
X145727500Y-184490000D03*
X145727500Y-185140000D03*
X145727500Y-185790000D03*
X145727500Y-186440000D03*
X151452500Y-186440000D03*
X151452500Y-185790000D03*
X151452500Y-185140000D03*
X151452500Y-184490000D03*
X151452500Y-183840000D03*
X151452500Y-183190000D03*
X151452500Y-182540000D03*
X151452500Y-181890000D03*
X151452500Y-181240000D03*
X151452500Y-180590000D03*
D31*
X78740000Y-217805000D03*
X86360000Y-217805000D03*
D48*
X140335000Y-162306000D03*
D59*
X140335000Y-160274000D03*
D27*
X89535000Y-160655000D03*
X89535000Y-163195000D03*
D22*
X384175000Y-152400000D03*
D23*
X384175000Y-144780000D03*
D63*
X285750000Y-187426600D03*
X284480000Y-187426600D03*
X283210000Y-187426600D03*
X281940000Y-187426600D03*
X280670000Y-187426600D03*
X279400000Y-187426600D03*
X278130000Y-187426600D03*
X278130000Y-193573400D03*
X279400000Y-193573400D03*
X280670000Y-193573400D03*
X281940000Y-193573400D03*
X283210000Y-193573400D03*
X284480000Y-193573400D03*
X285750000Y-193573400D03*
D14*
X45720000Y-149860000D03*
X45720000Y-152400000D03*
X45720000Y-154940000D03*
X45720000Y-157480000D03*
X45720000Y-160020000D03*
X45720000Y-162560000D03*
X45720000Y-165100000D03*
X45720000Y-167640000D03*
X53340000Y-167640000D03*
X53340000Y-165100000D03*
X53340000Y-162560000D03*
X53340000Y-160020000D03*
X53340000Y-157480000D03*
X53340000Y-154940000D03*
X53340000Y-152400000D03*
X53340000Y-149860000D03*
D31*
X154305000Y-211455000D03*
X153035000Y-209550000D03*
X151765000Y-211455000D03*
D38*
X328947000Y-182193000D03*
X328947000Y-183893000D03*
D31*
X127635000Y-150495000D03*
X130175000Y-150495000D03*
D19*
X386715000Y-59690000D03*
X386715000Y-62230000D03*
X386715000Y-64770000D03*
X386715000Y-67310000D03*
X386715000Y-69850000D03*
X386715000Y-72390000D03*
X386715000Y-74930000D03*
D26*
X130810000Y-83820000D03*
X133350000Y-83820000D03*
X135890000Y-83820000D03*
X138430000Y-83820000D03*
X140970000Y-83820000D03*
X143510000Y-83820000D03*
X146050000Y-83820000D03*
X146050000Y-76200000D03*
X143510000Y-76200000D03*
X140970000Y-76200000D03*
X138430000Y-76200000D03*
X135890000Y-76200000D03*
X133350000Y-76200000D03*
X130810000Y-76200000D03*
D44*
X349885000Y-141285000D03*
X349885000Y-139385000D03*
D62*
X137795000Y-62230000D03*
X135255000Y-62230000D03*
X132715000Y-62230000D03*
X130175000Y-62230000D03*
X127635000Y-62230000D03*
X125095000Y-62230000D03*
D27*
X376555000Y-86182200D03*
X376555000Y-88722200D03*
D45*
X172080000Y-158760000D03*
D69*
X174620000Y-158760000D03*
X172080000Y-161300000D03*
X174620000Y-161300000D03*
X172080000Y-163840000D03*
X174620000Y-163840000D03*
X172080000Y-166380000D03*
X174620000Y-166380000D03*
D14*
X184057362Y-207570606D03*
X176437362Y-207570606D03*
D70*
X362174250Y-163101750D03*
X362174250Y-164371750D03*
X362174250Y-165641750D03*
X364714250Y-165641750D03*
D71*
X364714250Y-164371750D03*
D70*
X364714250Y-163101750D03*
D27*
X201930000Y-172720000D03*
X201930000Y-180340000D03*
D54*
X259133000Y-71882000D03*
X256233000Y-71882000D03*
D72*
X248996200Y-107421600D03*
D69*
X248996200Y-104881600D03*
X251536200Y-107421600D03*
X251536200Y-104881600D03*
X254076200Y-107421600D03*
X254076200Y-104881600D03*
X256616200Y-107421600D03*
X256616200Y-104881600D03*
X259156200Y-107421600D03*
X259156200Y-104881600D03*
X261696200Y-107421600D03*
X261696200Y-104881600D03*
D73*
X353695000Y-178120000D03*
X353695000Y-180020000D03*
D15*
X24300000Y-62000000D03*
D27*
X237490000Y-159385000D03*
X237490000Y-161925000D03*
X207645000Y-194310000D03*
X207645000Y-201930000D03*
D38*
X359410000Y-162980000D03*
X359410000Y-164680000D03*
D62*
X304165000Y-66294000D03*
X306705000Y-66294000D03*
D38*
X368300000Y-103422923D03*
X368300000Y-105122923D03*
D31*
X98425000Y-88900000D03*
X100965000Y-88900000D03*
D20*
X342060000Y-182880000D03*
X340360000Y-182880000D03*
D36*
X233858072Y-104479124D03*
X233858072Y-96859124D03*
D27*
X194353388Y-194310000D03*
X194353388Y-201930000D03*
D19*
X115570000Y-217170000D03*
X115570000Y-214630000D03*
X115570000Y-212090000D03*
D30*
X366395000Y-65620000D03*
X366395000Y-63920000D03*
D28*
X354965000Y-200025000D03*
D39*
X357505000Y-200025000D03*
D31*
X144780000Y-88265000D03*
X147320000Y-88265000D03*
D36*
X229235000Y-177165000D03*
X229235000Y-169545000D03*
D74*
X318198519Y-159511791D03*
X318198519Y-160011791D03*
X318198519Y-160511791D03*
X318198519Y-161011791D03*
X318198519Y-161511791D03*
X318198519Y-162011791D03*
X318198519Y-162511791D03*
X318198519Y-163011791D03*
X318198519Y-163511791D03*
X318198519Y-164011791D03*
X318198519Y-164511791D03*
X318198519Y-165011791D03*
X318198519Y-165511791D03*
X318198519Y-166011791D03*
X318198519Y-166511791D03*
X318198519Y-167011791D03*
X318198519Y-167511791D03*
X318198519Y-168011791D03*
X318198519Y-168511791D03*
X318198519Y-169011791D03*
X318198519Y-169511791D03*
X318198519Y-170011791D03*
X318198519Y-170511791D03*
X318198519Y-171011791D03*
X318198519Y-171511791D03*
X318198519Y-172011791D03*
X318198519Y-172511791D03*
X318198519Y-173011791D03*
X318198519Y-173511791D03*
X318198519Y-174011791D03*
X318198519Y-174511791D03*
X318198519Y-175011791D03*
X318198519Y-175511791D03*
X318198519Y-176011791D03*
X318198519Y-176511791D03*
X318198519Y-177011791D03*
D75*
X320198519Y-179011791D03*
X320698519Y-179011791D03*
X321198519Y-179011791D03*
X321698519Y-179011791D03*
X322198519Y-179011791D03*
X322698519Y-179011791D03*
X323198519Y-179011791D03*
X323698519Y-179011791D03*
X324198519Y-179011791D03*
X324698519Y-179011791D03*
X325198519Y-179011791D03*
X325698519Y-179011791D03*
X326198519Y-179011791D03*
X326698519Y-179011791D03*
X327198519Y-179011791D03*
X327698519Y-179011791D03*
X328198519Y-179011791D03*
X328698519Y-179011791D03*
X329198519Y-179011791D03*
X329698519Y-179011791D03*
X330198519Y-179011791D03*
X330698519Y-179011791D03*
X331198519Y-179011791D03*
X331698519Y-179011791D03*
X332198519Y-179011791D03*
X332698519Y-179011791D03*
X333198519Y-179011791D03*
X333698519Y-179011791D03*
X334198519Y-179011791D03*
X334698519Y-179011791D03*
X335198519Y-179011791D03*
X335698519Y-179011791D03*
X336198519Y-179011791D03*
X336698519Y-179011791D03*
X337198519Y-179011791D03*
X337698519Y-179011791D03*
D74*
X339698519Y-177011791D03*
X339698519Y-176511791D03*
X339698519Y-176011791D03*
X339698519Y-175511791D03*
X339698519Y-175011791D03*
X339698519Y-174511791D03*
X339698519Y-174011791D03*
X339698519Y-173511791D03*
X339698519Y-173011791D03*
X339698519Y-172511791D03*
X339698519Y-172011791D03*
X339698519Y-171511791D03*
X339698519Y-171011791D03*
X339698519Y-170511791D03*
X339698519Y-170011791D03*
X339698519Y-169511791D03*
X339698519Y-169011791D03*
X339698519Y-168511791D03*
X339698519Y-168011791D03*
X339698519Y-167511791D03*
X339698519Y-167011791D03*
X339698519Y-166511791D03*
X339698519Y-166011791D03*
X339698519Y-165511791D03*
X339698519Y-165011791D03*
X339698519Y-164511791D03*
X339698519Y-164011791D03*
X339698519Y-163511791D03*
X339698519Y-163011791D03*
X339698519Y-162511791D03*
X339698519Y-162011791D03*
X339698519Y-161511791D03*
X339698519Y-161011791D03*
X339698519Y-160511791D03*
X339698519Y-160011791D03*
X339698519Y-159511791D03*
D75*
X337698519Y-157511791D03*
X337198519Y-157511791D03*
X336698519Y-157511791D03*
X336198519Y-157511791D03*
X335698519Y-157511791D03*
X335198519Y-157511791D03*
X334698519Y-157511791D03*
X334198519Y-157511791D03*
X333698519Y-157511791D03*
X333198519Y-157511791D03*
X332698519Y-157511791D03*
X332198519Y-157511791D03*
X331698519Y-157511791D03*
X331198519Y-157511791D03*
X330698519Y-157511791D03*
X330198519Y-157511791D03*
X329698519Y-157511791D03*
X329198519Y-157511791D03*
X328698519Y-157511791D03*
X328198519Y-157511791D03*
X327698519Y-157511791D03*
X327198519Y-157511791D03*
X326698519Y-157511791D03*
X326198519Y-157511791D03*
X325698519Y-157511791D03*
X325198519Y-157511791D03*
X324698519Y-157511791D03*
X324198519Y-157511791D03*
X323698519Y-157511791D03*
X323198519Y-157511791D03*
X322698519Y-157511791D03*
X322198519Y-157511791D03*
X321698519Y-157511791D03*
X321198519Y-157511791D03*
X320698519Y-157511791D03*
X320198519Y-157511791D03*
D14*
X171374817Y-216561816D03*
X163754817Y-216561816D03*
D55*
X156180000Y-88265000D03*
D56*
X157480000Y-88265000D03*
D57*
X158780000Y-88265000D03*
D16*
X247248106Y-135001468D03*
X248948106Y-135001468D03*
D22*
X388622400Y-112489700D03*
D23*
X388622400Y-104869700D03*
D35*
X370267411Y-99152863D03*
X372167411Y-99152863D03*
D30*
X344170000Y-124040000D03*
X344170000Y-122340000D03*
D40*
X28708672Y-187560753D03*
X28708672Y-190303953D03*
X28708672Y-193047153D03*
X28708672Y-195790353D03*
X28708672Y-198533553D03*
X26168672Y-188932353D03*
X26168672Y-191675553D03*
X26168672Y-194418753D03*
X26168672Y-197161953D03*
D76*
X27438672Y-180524953D03*
X27438672Y-205569353D03*
D77*
X309086200Y-52616100D03*
X357359000Y-52616100D03*
D33*
X314172600Y-55156100D03*
X316712600Y-55156100D03*
X319252600Y-55156100D03*
X321792600Y-55156100D03*
X324332600Y-55156100D03*
X326872600Y-55156100D03*
X329412600Y-55156100D03*
X331952600Y-55156100D03*
X334492600Y-55156100D03*
X337032600Y-55156100D03*
X339572600Y-55156100D03*
X342112600Y-55156100D03*
X344652600Y-55156100D03*
X347192600Y-55156100D03*
X349732600Y-55156100D03*
X352272600Y-55156100D03*
X314172600Y-57696100D03*
X316712600Y-57696100D03*
X319252600Y-57696100D03*
X321792600Y-57696100D03*
X324332600Y-57696100D03*
X326872600Y-57696100D03*
X329412600Y-57696100D03*
X331952600Y-57696100D03*
X334492600Y-57696100D03*
X337032600Y-57696100D03*
X339572600Y-57696100D03*
X342112600Y-57696100D03*
X344652600Y-57696100D03*
X347192600Y-57696100D03*
X349732600Y-57696100D03*
X352272600Y-57696100D03*
X314172600Y-60236100D03*
X316712600Y-60236100D03*
X319252600Y-60236100D03*
X321792600Y-60236100D03*
X324332600Y-60236100D03*
X326872600Y-60236100D03*
X329412600Y-60236100D03*
X331952600Y-60236100D03*
X334492600Y-60236100D03*
X337032600Y-60236100D03*
X339572600Y-60236100D03*
X342112600Y-60236100D03*
X344652600Y-60236100D03*
X347192600Y-60236100D03*
X349732600Y-60236100D03*
X352272600Y-60236100D03*
D78*
X264351888Y-128524000D03*
D79*
X266851888Y-128524000D03*
D31*
X189865000Y-118110000D03*
X192405000Y-118110000D03*
D35*
X256860000Y-171450000D03*
X258760000Y-171450000D03*
D27*
X277368000Y-65151000D03*
X277368000Y-67691000D03*
D21*
X225425000Y-150495000D03*
X222885000Y-150495000D03*
D63*
X328930000Y-99110800D03*
X327660000Y-99110800D03*
X326390000Y-99110800D03*
X325120000Y-99110800D03*
X323850000Y-99110800D03*
X322580000Y-99110800D03*
X321310000Y-99110800D03*
X320040000Y-99110800D03*
X318770000Y-99110800D03*
X317500000Y-99110800D03*
X316230000Y-99110800D03*
X314960000Y-99110800D03*
X314960000Y-109169200D03*
X316230000Y-109169200D03*
X317500000Y-109169200D03*
X318770000Y-109169200D03*
X320040000Y-109169200D03*
X321310000Y-109169200D03*
X322580000Y-109169200D03*
X323850000Y-109169200D03*
X325120000Y-109169200D03*
X326390000Y-109169200D03*
X327660000Y-109169200D03*
X328930000Y-109169200D03*
D80*
X168910000Y-58420000D03*
X153670000Y-58420000D03*
D20*
X343587114Y-156210000D03*
X341887114Y-156210000D03*
D14*
X226060000Y-57785000D03*
X226060000Y-60325000D03*
X226060000Y-62865000D03*
X226060000Y-65405000D03*
X226060000Y-67945000D03*
X226060000Y-70485000D03*
X226060000Y-73025000D03*
X226060000Y-75565000D03*
D62*
X243840000Y-140970000D03*
X256540000Y-140970000D03*
X246380000Y-140970000D03*
X248920000Y-140970000D03*
X254000000Y-140970000D03*
X241300000Y-140970000D03*
X251460000Y-140970000D03*
X238760000Y-140970000D03*
D27*
X213995000Y-194310000D03*
X213995000Y-201930000D03*
D19*
X205467975Y-102870000D03*
X205467975Y-105410000D03*
D14*
X148590000Y-92710000D03*
X148590000Y-95250000D03*
X148590000Y-97790000D03*
X148590000Y-100330000D03*
X148590000Y-102870000D03*
X148590000Y-105410000D03*
X148590000Y-107950000D03*
X148590000Y-110490000D03*
X148590000Y-113030000D03*
X148590000Y-115570000D03*
X148590000Y-118110000D03*
X148590000Y-120650000D03*
X148590000Y-123190000D03*
X148590000Y-125730000D03*
X148590000Y-128270000D03*
X148590000Y-130810000D03*
X148590000Y-133350000D03*
X148590000Y-135890000D03*
X148590000Y-138430000D03*
X148590000Y-140970000D03*
X163830000Y-140970000D03*
X163830000Y-138430000D03*
X163830000Y-135890000D03*
X163830000Y-133350000D03*
X163830000Y-130810000D03*
X163830000Y-128270000D03*
X163830000Y-125730000D03*
X163830000Y-123190000D03*
X163830000Y-120650000D03*
X163830000Y-118110000D03*
X163830000Y-115570000D03*
X163830000Y-113030000D03*
X163830000Y-110490000D03*
X163830000Y-107950000D03*
X163830000Y-105410000D03*
X163830000Y-102870000D03*
X163830000Y-100330000D03*
X163830000Y-97790000D03*
X163830000Y-95250000D03*
X163830000Y-92710000D03*
X95250000Y-156210000D03*
X95250000Y-158750000D03*
X95250000Y-161290000D03*
X95250000Y-163830000D03*
X95250000Y-166370000D03*
X95250000Y-168910000D03*
X95250000Y-171450000D03*
X95250000Y-173990000D03*
X95250000Y-176530000D03*
X95250000Y-179070000D03*
X95250000Y-181610000D03*
X95250000Y-184150000D03*
X95250000Y-186690000D03*
X95250000Y-189230000D03*
X110490000Y-189230000D03*
X110490000Y-186690000D03*
X110490000Y-184150000D03*
X110490000Y-181610000D03*
X110490000Y-179070000D03*
X110490000Y-176530000D03*
X110490000Y-173990000D03*
X110490000Y-171450000D03*
X110490000Y-168910000D03*
X110490000Y-166370000D03*
X110490000Y-163830000D03*
X110490000Y-161290000D03*
X110490000Y-158750000D03*
X110490000Y-156210000D03*
X184150000Y-216535000D03*
X176530000Y-216535000D03*
D61*
X380619000Y-102297000D03*
X381889000Y-102297000D03*
X383159000Y-102297000D03*
X384429000Y-102297000D03*
X385699000Y-102297000D03*
X386969000Y-102297000D03*
X388239000Y-102297000D03*
X389509000Y-102297000D03*
X389509000Y-97347000D03*
X388239000Y-97347000D03*
X386969000Y-97347000D03*
X385699000Y-97347000D03*
X384429000Y-97347000D03*
X383159000Y-97347000D03*
X381889000Y-97347000D03*
X380619000Y-97347000D03*
D81*
X379095000Y-163195000D03*
X379095000Y-178435000D03*
D31*
X162560000Y-154305000D03*
X165100000Y-154305000D03*
X356235000Y-212725000D03*
X363855000Y-212725000D03*
D63*
X290195000Y-99110800D03*
X288925000Y-99110800D03*
X287655000Y-99110800D03*
X286385000Y-99110800D03*
X285115000Y-99110800D03*
X283845000Y-99110800D03*
X282575000Y-99110800D03*
X281305000Y-99110800D03*
X280035000Y-99110800D03*
X278765000Y-99110800D03*
X278765000Y-109169200D03*
X280035000Y-109169200D03*
X281305000Y-109169200D03*
X282575000Y-109169200D03*
X283845000Y-109169200D03*
X285115000Y-109169200D03*
X286385000Y-109169200D03*
X287655000Y-109169200D03*
X288925000Y-109169200D03*
X290195000Y-109169200D03*
D82*
X21620877Y-83081015D03*
X21620877Y-87043415D03*
X21620877Y-91005815D03*
X21620877Y-94968215D03*
X21620877Y-98930615D03*
X21620877Y-102893015D03*
X21620877Y-106855415D03*
X21620877Y-110817815D03*
X21620877Y-114780215D03*
X21620877Y-118742615D03*
X21620877Y-122705015D03*
X21620877Y-126667415D03*
D83*
X36093400Y-92786200D03*
X36093400Y-95326200D03*
X36093400Y-97866200D03*
X36093400Y-100406200D03*
X36093400Y-102946200D03*
X36093400Y-105486200D03*
X36093400Y-108026200D03*
X36093400Y-110566200D03*
X36093400Y-113106200D03*
X36093400Y-115646200D03*
X36093400Y-118186200D03*
X36093400Y-120726200D03*
X38633400Y-92786200D03*
X38633400Y-95326200D03*
X38633400Y-97866200D03*
X38633400Y-100406200D03*
X38633400Y-102946200D03*
X38633400Y-105486200D03*
X38633400Y-108026200D03*
X38633400Y-110566200D03*
X38633400Y-113106200D03*
X38633400Y-115646200D03*
X38633400Y-118186200D03*
X38633400Y-120726200D03*
D48*
X266319000Y-76454000D03*
D58*
X268351000Y-76454000D03*
D36*
X126792567Y-81280000D03*
X126792567Y-78740000D03*
D28*
X39295119Y-151604386D03*
D51*
X39295119Y-154144386D03*
D22*
X388620000Y-122809000D03*
D23*
X388620000Y-115189000D03*
D26*
X133985000Y-207010000D03*
X136525000Y-207010000D03*
X139065000Y-207010000D03*
X141605000Y-207010000D03*
X144145000Y-207010000D03*
X146685000Y-207010000D03*
X149225000Y-207010000D03*
X149225000Y-199390000D03*
X146685000Y-199390000D03*
X144145000Y-199390000D03*
X141605000Y-199390000D03*
X139065000Y-199390000D03*
X136525000Y-199390000D03*
X133985000Y-199390000D03*
D38*
X320040000Y-198733012D03*
X320040000Y-200433012D03*
D84*
X266873516Y-47211919D03*
D85*
X262323516Y-50511919D03*
X271923516Y-55011919D03*
D84*
X262873516Y-58211919D03*
D85*
X269523516Y-53611919D03*
D30*
X261620000Y-164680000D03*
X261620000Y-162980000D03*
D19*
X120015000Y-217170000D03*
X120015000Y-214630000D03*
X120015000Y-212090000D03*
D86*
X209816700Y-54678542D03*
X211823300Y-54678542D03*
X207327500Y-54678542D03*
D87*
X217385900Y-51960742D03*
X204254100Y-51960742D03*
D86*
X214312500Y-54678542D03*
D73*
X67310000Y-201996000D03*
X67310000Y-203896000D03*
D31*
X215900000Y-100330000D03*
X210820000Y-100330000D03*
D22*
X381635000Y-152400000D03*
D23*
X381635000Y-144780000D03*
D21*
X225425000Y-154305000D03*
X222885000Y-154305000D03*
D20*
X208055000Y-80785000D03*
X206355000Y-80785000D03*
D62*
X304165000Y-69977000D03*
X306705000Y-69977000D03*
D27*
X193040000Y-185420000D03*
X193040000Y-187960000D03*
D14*
X171398983Y-207612088D03*
X163778983Y-207612088D03*
D36*
X184150000Y-201930000D03*
X184150000Y-194310000D03*
D16*
X315380000Y-154059211D03*
X317080000Y-154059211D03*
D20*
X279400000Y-198120000D03*
X277700000Y-198120000D03*
D21*
X377825000Y-208915000D03*
X370205000Y-208915000D03*
D38*
X312420000Y-103007445D03*
X312420000Y-104707445D03*
D36*
X60960000Y-213741000D03*
X60960000Y-203581000D03*
D14*
X172126052Y-121920000D03*
X172126052Y-124460000D03*
X172126052Y-127000000D03*
X172126052Y-129540000D03*
X172126052Y-132080000D03*
X172126052Y-134620000D03*
X172126052Y-137160000D03*
X172126052Y-139700000D03*
X179746052Y-139700000D03*
X179746052Y-137160000D03*
X179746052Y-134620000D03*
X179746052Y-132080000D03*
X179746052Y-129540000D03*
X179746052Y-127000000D03*
X179746052Y-124460000D03*
X179746052Y-121920000D03*
D88*
X391049263Y-67105354D03*
D89*
X394149263Y-62305354D03*
D88*
X397149263Y-67105354D03*
D48*
X221869000Y-160020000D03*
D58*
X223901000Y-160020000D03*
D27*
X153416753Y-190407597D03*
X153416753Y-192947597D03*
D38*
X367665000Y-68365000D03*
X367665000Y-70065000D03*
X347980000Y-162980000D03*
X347980000Y-164680000D03*
D22*
X389255000Y-152400000D03*
D23*
X389255000Y-144780000D03*
D62*
X137795000Y-67310000D03*
X135255000Y-67310000D03*
X132715000Y-67310000D03*
X130175000Y-67310000D03*
X127635000Y-67310000D03*
X125095000Y-67310000D03*
D16*
X229655000Y-94435729D03*
X231355000Y-94435729D03*
D31*
X215900000Y-102870000D03*
X210820000Y-102870000D03*
D79*
X262382000Y-74422000D03*
X262382000Y-69422000D03*
D31*
X101600000Y-151130000D03*
X104140000Y-151130000D03*
D20*
X344055000Y-161535000D03*
X342355000Y-161535000D03*
D31*
X306266591Y-63525562D03*
X311346591Y-63525562D03*
D22*
X378460000Y-112522000D03*
D23*
X378460000Y-104902000D03*
D22*
X233299000Y-142048113D03*
D79*
X233299000Y-139548113D03*
D14*
X201930776Y-121920000D03*
X201930776Y-124460000D03*
X201930776Y-127000000D03*
X201930776Y-129540000D03*
X201930776Y-132080000D03*
X201930776Y-134620000D03*
X201930776Y-137160000D03*
X209550776Y-137160000D03*
X209550776Y-134620000D03*
X209550776Y-132080000D03*
X209550776Y-129540000D03*
X209550776Y-127000000D03*
X209550776Y-124460000D03*
X209550776Y-121920000D03*
D45*
X260447962Y-145887013D03*
D62*
X133350000Y-88295398D03*
X135890000Y-88295398D03*
X138430000Y-88295398D03*
D27*
X237490000Y-153670000D03*
X237490000Y-156210000D03*
D90*
X270510000Y-140837539D03*
X271780000Y-140837539D03*
X273050000Y-140837539D03*
X274320000Y-140837539D03*
X275590000Y-140837539D03*
X276860000Y-140837539D03*
X278130000Y-140837539D03*
X279400000Y-140837539D03*
X279400000Y-134690739D03*
X278130000Y-134690739D03*
X276860000Y-134690739D03*
X275590000Y-134690739D03*
X274320000Y-134690739D03*
X273050000Y-134690739D03*
X271780000Y-134690739D03*
X270510000Y-134690739D03*
D30*
X241300000Y-152400000D03*
X241300000Y-150700000D03*
D79*
X296585000Y-65278000D03*
X301585000Y-65278000D03*
D15*
X104800000Y-62000000D03*
D27*
X381000000Y-51435000D03*
X381000000Y-53975000D03*
D91*
X305985860Y-191833223D03*
X305985860Y-190883223D03*
X305985860Y-189933223D03*
X303710860Y-189933223D03*
X303710860Y-191833223D03*
D48*
X226060000Y-141224000D03*
D49*
X226060000Y-143256000D03*
D27*
X100965000Y-201930000D03*
X100965000Y-204470000D03*
D28*
X27588127Y-158235533D03*
D51*
X27588127Y-160775533D03*
D21*
X217170000Y-107950000D03*
X209550000Y-107950000D03*
D31*
X231140000Y-69215000D03*
X233680000Y-69215000D03*
D36*
X69850000Y-81280000D03*
X69850000Y-78740000D03*
D14*
X171398983Y-210630882D03*
X163778983Y-210630882D03*
D27*
X200703388Y-194310000D03*
X200703388Y-201930000D03*
D26*
X104775000Y-207010000D03*
X107315000Y-207010000D03*
X109855000Y-207010000D03*
X112395000Y-207010000D03*
X114935000Y-207010000D03*
X117475000Y-207010000D03*
X120015000Y-207010000D03*
X122555000Y-207010000D03*
X122555000Y-199390000D03*
X120015000Y-199390000D03*
X117475000Y-199390000D03*
X114935000Y-199390000D03*
X112395000Y-199390000D03*
X109855000Y-199390000D03*
X107315000Y-199390000D03*
X104775000Y-199390000D03*
D20*
X315055000Y-167285000D03*
X313355000Y-167285000D03*
D31*
X37654187Y-173990000D03*
X40194187Y-173990000D03*
D36*
X222885000Y-177165000D03*
X222885000Y-169545000D03*
D35*
X110810000Y-89063175D03*
X112710000Y-89063175D03*
D37*
X381635000Y-91821000D03*
D23*
X374015000Y-91821000D03*
D30*
X276860000Y-149655000D03*
X276860000Y-147955000D03*
D62*
X255270000Y-182880000D03*
X257810000Y-182880000D03*
X260350000Y-182880000D03*
X262890000Y-182880000D03*
D31*
X249775600Y-76040906D03*
X252315600Y-76040906D03*
D92*
X160005000Y-158745000D03*
D93*
X160005000Y-161285000D03*
X160005000Y-163825000D03*
X160005000Y-166365000D03*
X160005000Y-168905000D03*
X160005000Y-171445000D03*
X160005000Y-173985000D03*
X167625000Y-173985000D03*
X167625000Y-171445000D03*
X167625000Y-168905000D03*
X167625000Y-166365000D03*
X167625000Y-163825000D03*
X167625000Y-161285000D03*
X167625000Y-158745000D03*
D54*
X259133000Y-75819000D03*
X256233000Y-75819000D03*
D36*
X180975000Y-201930000D03*
X180975000Y-194310000D03*
D32*
X256441981Y-58723188D03*
X231448381Y-58723188D03*
D94*
X239627181Y-61263188D03*
X241913181Y-61263188D03*
X244199181Y-61263188D03*
X246485181Y-61263188D03*
X248771181Y-61263188D03*
X238484181Y-58723188D03*
X240770181Y-58723188D03*
X243056181Y-58723188D03*
X245342181Y-58723188D03*
X247628181Y-58723188D03*
X239627181Y-56183188D03*
X241913181Y-56183188D03*
X244199181Y-56183188D03*
X246485181Y-56183188D03*
X248771181Y-56183188D03*
D21*
X147320000Y-211455000D03*
X139700000Y-211455000D03*
D36*
X148590000Y-66675000D03*
X148590000Y-56515000D03*
D24*
X353771000Y-139696146D03*
X353771000Y-142007146D03*
X353771000Y-144318146D03*
D25*
X359969000Y-142007146D03*
D31*
X306169940Y-60819321D03*
X311249940Y-60819321D03*
D19*
X58468800Y-156845000D03*
X58468800Y-159385000D03*
X58468800Y-161925000D03*
X58468800Y-164465000D03*
X58468800Y-167005000D03*
D31*
X231140000Y-72390000D03*
X233680000Y-72390000D03*
D30*
X254635000Y-156425000D03*
X254635000Y-154725000D03*
D15*
X397800000Y-50150000D03*
D21*
X177165000Y-118110000D03*
X174625000Y-118110000D03*
D36*
X150495000Y-193040000D03*
X150495000Y-190500000D03*
D31*
X231140000Y-66040000D03*
X233680000Y-66040000D03*
D26*
X106045000Y-77470000D03*
X108585000Y-77470000D03*
X111125000Y-77470000D03*
X113665000Y-77470000D03*
X116205000Y-77470000D03*
X118745000Y-77470000D03*
X121285000Y-77470000D03*
X121285000Y-69850000D03*
X118745000Y-69850000D03*
X116205000Y-69850000D03*
X113665000Y-69850000D03*
X111125000Y-69850000D03*
X108585000Y-69850000D03*
X106045000Y-69850000D03*
D38*
X377063000Y-128055000D03*
X377063000Y-129755000D03*
D26*
X74930000Y-70485000D03*
X77470000Y-70485000D03*
X80010000Y-70485000D03*
X82550000Y-70485000D03*
X85090000Y-70485000D03*
X87630000Y-70485000D03*
X90170000Y-70485000D03*
X92710000Y-70485000D03*
X95250000Y-70485000D03*
D20*
X342060000Y-180340000D03*
X340360000Y-180340000D03*
D26*
X161925000Y-189865000D03*
X164465000Y-189865000D03*
X167005000Y-189865000D03*
X169545000Y-189865000D03*
X172085000Y-189865000D03*
X174625000Y-189865000D03*
X177165000Y-189865000D03*
X177165000Y-182245000D03*
X174625000Y-182245000D03*
X172085000Y-182245000D03*
X169545000Y-182245000D03*
X167005000Y-182245000D03*
X164465000Y-182245000D03*
X161925000Y-182245000D03*
D15*
X21060000Y-172900000D03*
D31*
X151765000Y-64135000D03*
X154305000Y-64135000D03*
D79*
X296585000Y-68453000D03*
X301585000Y-68453000D03*
D65*
X83442950Y-48596750D03*
X79480550Y-48596750D03*
X75518150Y-48596750D03*
X71555750Y-48596750D03*
X67593350Y-48596750D03*
X63630950Y-48596750D03*
X59668550Y-48596750D03*
X55706150Y-48596750D03*
X51743750Y-48596750D03*
X47781350Y-48596750D03*
X43818950Y-48596750D03*
X39856550Y-48596750D03*
D14*
X200660000Y-52976986D03*
X200660000Y-55516986D03*
X200660000Y-58056986D03*
X200660000Y-60596986D03*
X200660000Y-63136986D03*
X220980000Y-63136986D03*
X220980000Y-60596986D03*
X220980000Y-58056986D03*
X220980000Y-55516986D03*
X220980000Y-52976986D03*
D20*
X314341674Y-182880000D03*
X312641674Y-182880000D03*
D19*
X285115000Y-140970000D03*
X285115000Y-138430000D03*
D38*
X247015000Y-93550000D03*
X247015000Y-95250000D03*
D27*
X71755000Y-201930000D03*
X71755000Y-204470000D03*
D22*
X383540000Y-122809000D03*
D23*
X383540000Y-115189000D03*
D63*
X347345000Y-99110800D03*
X346075000Y-99110800D03*
X344805000Y-99110800D03*
X343535000Y-99110800D03*
X342265000Y-99110800D03*
X340995000Y-99110800D03*
X339725000Y-99110800D03*
X338455000Y-99110800D03*
X337185000Y-99110800D03*
X335915000Y-99110800D03*
X335915000Y-109169200D03*
X337185000Y-109169200D03*
X338455000Y-109169200D03*
X339725000Y-109169200D03*
X340995000Y-109169200D03*
X342265000Y-109169200D03*
X343535000Y-109169200D03*
X344805000Y-109169200D03*
X346075000Y-109169200D03*
X347345000Y-109169200D03*
D62*
X99060000Y-59690000D03*
X96520000Y-59690000D03*
X93980000Y-59690000D03*
D38*
X154659735Y-180292688D03*
X154659735Y-181992688D03*
D37*
X244830600Y-68123800D03*
D23*
X237210600Y-68123800D03*
D95*
X64135000Y-187071000D03*
D96*
X66675000Y-184531000D03*
X64135000Y-184531000D03*
X66675000Y-181991000D03*
X64135000Y-181991000D03*
X66675000Y-179451000D03*
X64135000Y-176911000D03*
X64135000Y-179451000D03*
X61595000Y-176911000D03*
X61595000Y-179451000D03*
X59055000Y-176911000D03*
X59055000Y-179451000D03*
X56515000Y-176911000D03*
X56515000Y-179451000D03*
X53975000Y-176911000D03*
X53975000Y-179451000D03*
X51435000Y-176911000D03*
X48895000Y-179451000D03*
X51435000Y-179451000D03*
X48895000Y-181991000D03*
X51435000Y-181991000D03*
X48895000Y-184531000D03*
X51435000Y-184531000D03*
X48895000Y-187071000D03*
X51435000Y-187071000D03*
X48895000Y-189611000D03*
X51435000Y-189611000D03*
X48895000Y-192151000D03*
X51435000Y-194691000D03*
X51435000Y-192151000D03*
X53975000Y-194691000D03*
X53975000Y-192151000D03*
X56515000Y-194691000D03*
X56515000Y-192151000D03*
X59055000Y-194691000D03*
X59055000Y-192151000D03*
X61595000Y-194691000D03*
X61595000Y-192151000D03*
X64135000Y-194691000D03*
X66675000Y-192151000D03*
X64135000Y-192151000D03*
X66675000Y-189611000D03*
X64135000Y-189611000D03*
X66675000Y-187071000D03*
D26*
X178435000Y-83820000D03*
X180975000Y-83820000D03*
X183515000Y-83820000D03*
X186055000Y-83820000D03*
X188595000Y-83820000D03*
X191135000Y-83820000D03*
X193675000Y-83820000D03*
X196215000Y-83820000D03*
X198755000Y-83820000D03*
X201295000Y-83820000D03*
X201295000Y-76200000D03*
X198755000Y-76200000D03*
X196215000Y-76200000D03*
X193675000Y-76200000D03*
X191135000Y-76200000D03*
X188595000Y-76200000D03*
X186055000Y-76200000D03*
X183515000Y-76200000D03*
X180975000Y-76200000D03*
X178435000Y-76200000D03*
D37*
X381635000Y-94361000D03*
D23*
X374015000Y-94361000D03*
D15*
X401450000Y-161900000D03*
D19*
X376555000Y-79375000D03*
X376555000Y-76835000D03*
D27*
X232410000Y-169545000D03*
X232410000Y-177165000D03*
D21*
X153680000Y-70485000D03*
X154950000Y-72390000D03*
X156220000Y-70485000D03*
D31*
X99060000Y-211455000D03*
X97790000Y-209550000D03*
X96520000Y-211455000D03*
D20*
X221830000Y-81280000D03*
X220130000Y-81280000D03*
X357505000Y-125730000D03*
X355805000Y-125730000D03*
D62*
X146685000Y-151130000D03*
X149225000Y-151130000D03*
X151765000Y-151130000D03*
D31*
X249775600Y-68168800D03*
X252315600Y-68168800D03*
X147320000Y-154940000D03*
X149860000Y-154940000D03*
D28*
X363855000Y-200025000D03*
D39*
X366395000Y-200025000D03*
D73*
X354965000Y-162880000D03*
X354965000Y-164780000D03*
D30*
X289560000Y-191770000D03*
X289560000Y-190070000D03*
D38*
X378372000Y-98806000D03*
X378372000Y-100506000D03*
D28*
X33526931Y-154678641D03*
D51*
X33526931Y-157218641D03*
D19*
X32385000Y-67310000D03*
X32385000Y-64770000D03*
D36*
X34290000Y-81280000D03*
X34290000Y-78740000D03*
D97*
X396849600Y-87911000D03*
D98*
X381609600Y-87911000D03*
D97*
X396849600Y-85371000D03*
D98*
X385419600Y-87911000D03*
D97*
X396849600Y-82831000D03*
D98*
X389229600Y-87911000D03*
D97*
X394309600Y-87911000D03*
D98*
X381609600Y-82831000D03*
D97*
X394309600Y-85371000D03*
D98*
X385419600Y-82831000D03*
D97*
X394309600Y-82831000D03*
X391769600Y-85371000D03*
D98*
X389229600Y-82831000D03*
X401929600Y-82831000D03*
X401929600Y-87911000D03*
D97*
X401929600Y-85371000D03*
D26*
X154940000Y-83820000D03*
X157480000Y-83820000D03*
X160020000Y-83820000D03*
X162560000Y-83820000D03*
X165100000Y-83820000D03*
X167640000Y-83820000D03*
X170180000Y-83820000D03*
X170180000Y-76200000D03*
X167640000Y-76200000D03*
X165100000Y-76200000D03*
X162560000Y-76200000D03*
X160020000Y-76200000D03*
X157480000Y-76200000D03*
X154940000Y-76200000D03*
D16*
X342605000Y-171285000D03*
X344305000Y-171285000D03*
D52*
X196097500Y-149860000D03*
D53*
X198637500Y-149860000D03*
X196097500Y-152400000D03*
X198637500Y-152400000D03*
X196097500Y-154940000D03*
X198637500Y-154940000D03*
X196097500Y-157480000D03*
X198637500Y-157480000D03*
X196097500Y-160020000D03*
X198637500Y-160020000D03*
D36*
X370205000Y-180340000D03*
X370205000Y-177800000D03*
D14*
X85090000Y-113030000D03*
X85090000Y-115570000D03*
X85090000Y-118110000D03*
X85090000Y-120650000D03*
X85090000Y-123190000D03*
X85090000Y-125730000D03*
X85090000Y-128270000D03*
X85090000Y-130810000D03*
X85090000Y-133350000D03*
D38*
X293388692Y-102870000D03*
X293388692Y-104570000D03*
D31*
X139700000Y-214630000D03*
X147320000Y-214630000D03*
X363855000Y-205105000D03*
X366395000Y-205105000D03*
D28*
X372745000Y-200025000D03*
D39*
X375285000Y-200025000D03*
D27*
X89535000Y-154305000D03*
X89535000Y-156845000D03*
D79*
X277368000Y-75652000D03*
X277368000Y-70652000D03*
D27*
X210820000Y-194310000D03*
X210820000Y-201930000D03*
X114935000Y-156337000D03*
X114935000Y-158877000D03*
D31*
X306070000Y-208242904D03*
X308610000Y-208242904D03*
D21*
X50800000Y-146050000D03*
X48260000Y-146050000D03*
D14*
X274320000Y-202478100D03*
X274320000Y-205018100D03*
X274320000Y-207558100D03*
X274320000Y-210098100D03*
X281940000Y-210098100D03*
X281940000Y-207558100D03*
X281940000Y-205018100D03*
X281940000Y-202478100D03*
D26*
X197485000Y-191135000D03*
X200025000Y-191135000D03*
X202565000Y-191135000D03*
X205105000Y-191135000D03*
X207645000Y-191135000D03*
X210185000Y-191135000D03*
X212725000Y-191135000D03*
X212725000Y-183515000D03*
X210185000Y-183515000D03*
X207645000Y-183515000D03*
X205105000Y-183515000D03*
X202565000Y-183515000D03*
X200025000Y-183515000D03*
X197485000Y-183515000D03*
D47*
X267589000Y-86360000D03*
D23*
X267589000Y-93980000D03*
D90*
X250190000Y-99644200D03*
X251460000Y-99644200D03*
X252730000Y-99644200D03*
X254000000Y-99644200D03*
X255270000Y-99644200D03*
X256540000Y-99644200D03*
X257810000Y-99644200D03*
X259080000Y-99644200D03*
X260350000Y-99644200D03*
X261620000Y-99644200D03*
X261620000Y-89585800D03*
X260350000Y-89585800D03*
X259080000Y-89585800D03*
X257810000Y-89585800D03*
X256540000Y-89585800D03*
X255270000Y-89585800D03*
X254000000Y-89585800D03*
X252730000Y-89585800D03*
X251460000Y-89585800D03*
X250190000Y-89585800D03*
D45*
X260447962Y-141263429D03*
D30*
X316230000Y-132080000D03*
X316230000Y-130380000D03*
D35*
X220665000Y-95885000D03*
X222565000Y-95885000D03*
D26*
X60325000Y-67310000D03*
X57785000Y-67310000D03*
X55245000Y-67310000D03*
X52705000Y-67310000D03*
X50165000Y-67310000D03*
X47625000Y-67310000D03*
X45085000Y-67310000D03*
X42545000Y-67310000D03*
X40005000Y-67310000D03*
D14*
X144780000Y-158750000D03*
X144780000Y-161290000D03*
X144780000Y-163830000D03*
X144780000Y-166370000D03*
X144780000Y-168910000D03*
X144780000Y-171450000D03*
X144780000Y-173990000D03*
X144780000Y-176530000D03*
X152400000Y-176530000D03*
X152400000Y-173990000D03*
X152400000Y-171450000D03*
X152400000Y-168910000D03*
X152400000Y-166370000D03*
X152400000Y-163830000D03*
X152400000Y-161290000D03*
X152400000Y-158750000D03*
D22*
X379095000Y-142240000D03*
D23*
X379095000Y-134620000D03*
D21*
X198772723Y-91440000D03*
X196232723Y-91440000D03*
X274637500Y-77470000D03*
X272097500Y-77470000D03*
D48*
X151384000Y-217170000D03*
D58*
X153416000Y-217170000D03*
D20*
X343564439Y-153670000D03*
X341864439Y-153670000D03*
D27*
X34036000Y-204343000D03*
X34036000Y-206883000D03*
D19*
X111125000Y-217170000D03*
X111125000Y-214630000D03*
X111125000Y-212090000D03*
D99*
X177546000Y-67310000D03*
D100*
X160020000Y-64770000D03*
X160020000Y-67310000D03*
X160020000Y-69850000D03*
D60*
X225868801Y-83947000D03*
X225868801Y-88773000D03*
D36*
X151130000Y-81280000D03*
X151130000Y-78740000D03*
D38*
X321947000Y-182193000D03*
X321947000Y-183893000D03*
D48*
X221869000Y-165735000D03*
D58*
X223901000Y-165735000D03*
D20*
X344305000Y-168535000D03*
X342605000Y-168535000D03*
D14*
X187325000Y-121920000D03*
X187325000Y-124460000D03*
X187325000Y-127000000D03*
X187325000Y-129540000D03*
X187325000Y-132080000D03*
X187325000Y-134620000D03*
X187325000Y-137160000D03*
X187325000Y-139700000D03*
X194945000Y-139700000D03*
X194945000Y-137160000D03*
X194945000Y-134620000D03*
X194945000Y-132080000D03*
X194945000Y-129540000D03*
X194945000Y-127000000D03*
X194945000Y-124460000D03*
X194945000Y-121920000D03*
D28*
X39653127Y-164562440D03*
D51*
X39653127Y-167102440D03*
D28*
X364205000Y-67015000D03*
D51*
X364205000Y-69555000D03*
D101*
X342900000Y-192974000D03*
X341630000Y-192974000D03*
X340360000Y-192974000D03*
X339090000Y-192974000D03*
X337820000Y-192974000D03*
X336550000Y-192974000D03*
X335280000Y-192974000D03*
X334010000Y-192974000D03*
X332740000Y-192974000D03*
X331470000Y-192974000D03*
X330200000Y-192974000D03*
X328930000Y-192974000D03*
X327660000Y-192974000D03*
X326390000Y-192974000D03*
X325120000Y-192974000D03*
X323850000Y-192974000D03*
X323850000Y-205806000D03*
X325120000Y-205806000D03*
X326390000Y-205806000D03*
X327660000Y-205806000D03*
X328930000Y-205806000D03*
X330200000Y-205806000D03*
X331470000Y-205806000D03*
X332740000Y-205806000D03*
X334010000Y-205806000D03*
X335280000Y-205806000D03*
X336550000Y-205806000D03*
X337820000Y-205806000D03*
X339090000Y-205806000D03*
X340360000Y-205806000D03*
X341630000Y-205806000D03*
X342900000Y-205806000D03*
D20*
X217385000Y-67945000D03*
X215685000Y-67945000D03*
D27*
X153670000Y-201930000D03*
X153670000Y-204470000D03*
D31*
X262455754Y-190500000D03*
X263725754Y-188595000D03*
X264995754Y-190500000D03*
D102*
X184785000Y-67945000D03*
X184785000Y-65405000D03*
X187325000Y-67945000D03*
X187325000Y-65405000D03*
X189865000Y-67945000D03*
X189865000Y-65405000D03*
D103*
X287128755Y-44149401D03*
X282607555Y-44149401D03*
D41*
X288373355Y-46638601D03*
X281362955Y-46638601D03*
D104*
X391160000Y-189490000D03*
X391160000Y-209290000D03*
D22*
X386080000Y-112522000D03*
D23*
X386080000Y-104902000D03*
D30*
X332467000Y-154123000D03*
X332467000Y-152423000D03*
D105*
X276860000Y-161925000D03*
D106*
X274320000Y-164465000D03*
X276860000Y-164465000D03*
X274320000Y-167005000D03*
X276860000Y-167005000D03*
X274320000Y-169545000D03*
X276860000Y-172085000D03*
X276860000Y-169545000D03*
X279400000Y-172085000D03*
X279400000Y-169545000D03*
X281940000Y-172085000D03*
X281940000Y-169545000D03*
X284480000Y-172085000D03*
X284480000Y-169545000D03*
X287020000Y-172085000D03*
X287020000Y-169545000D03*
X289560000Y-172085000D03*
X292100000Y-169545000D03*
X289560000Y-169545000D03*
X292100000Y-167005000D03*
X289560000Y-167005000D03*
X292100000Y-164465000D03*
X289560000Y-164465000D03*
X292100000Y-161925000D03*
X289560000Y-161925000D03*
X292100000Y-159385000D03*
X289560000Y-159385000D03*
X292100000Y-156845000D03*
X289560000Y-154305000D03*
X289560000Y-156845000D03*
X287020000Y-154305000D03*
X287020000Y-156845000D03*
X284480000Y-154305000D03*
X284480000Y-156845000D03*
X281940000Y-154305000D03*
X281940000Y-156845000D03*
X279400000Y-154305000D03*
X279400000Y-156845000D03*
X276860000Y-154305000D03*
X274320000Y-156845000D03*
X276860000Y-156845000D03*
X274320000Y-159385000D03*
X276860000Y-159385000D03*
X274320000Y-161925000D03*
D26*
X76200000Y-207010000D03*
X78740000Y-207010000D03*
X81280000Y-207010000D03*
X83820000Y-207010000D03*
X86360000Y-207010000D03*
X88900000Y-207010000D03*
X91440000Y-207010000D03*
X91440000Y-199390000D03*
X88900000Y-199390000D03*
X86360000Y-199390000D03*
X83820000Y-199390000D03*
X81280000Y-199390000D03*
X78740000Y-199390000D03*
X76200000Y-199390000D03*
D19*
X64770000Y-156845000D03*
X64770000Y-159385000D03*
X64770000Y-161925000D03*
X64770000Y-164465000D03*
X64770000Y-167005000D03*
D20*
X315810000Y-160655000D03*
X314110000Y-160655000D03*
D27*
X85090000Y-151130000D03*
X85090000Y-146050000D03*
D22*
X381635000Y-142240000D03*
D23*
X381635000Y-134620000D03*
D107*
X73660000Y-58420000D03*
X71120000Y-58420000D03*
X68580000Y-58420000D03*
X66040000Y-58420000D03*
X63500000Y-58420000D03*
X60960000Y-58420000D03*
X58420000Y-58420000D03*
X55880000Y-58420000D03*
X53340000Y-58420000D03*
X50800000Y-58420000D03*
X48260000Y-58420000D03*
X45720000Y-58420000D03*
X73660000Y-60960000D03*
X71120000Y-60960000D03*
X68580000Y-60960000D03*
X66040000Y-60960000D03*
X63500000Y-60960000D03*
X60960000Y-60960000D03*
X58420000Y-60960000D03*
X55880000Y-60960000D03*
X53340000Y-60960000D03*
X50800000Y-60960000D03*
X48260000Y-60960000D03*
X45720000Y-60960000D03*
D20*
X316814612Y-156771714D03*
X315114612Y-156771714D03*
D19*
X77470000Y-163830000D03*
X77470000Y-158750000D03*
X77470000Y-156210000D03*
X77470000Y-153670000D03*
X77470000Y-151130000D03*
X77470000Y-148590000D03*
X77470000Y-146050000D03*
X77470000Y-143510000D03*
X77470000Y-140970000D03*
X77470000Y-138430000D03*
X77470000Y-135890000D03*
X77470000Y-133350000D03*
X77470000Y-130810000D03*
X77470000Y-128270000D03*
X77470000Y-125730000D03*
X77470000Y-123190000D03*
X77470000Y-120650000D03*
X77470000Y-118110000D03*
X77470000Y-115570000D03*
D27*
X226060000Y-169545000D03*
X226060000Y-177165000D03*
D77*
X188692310Y-49399820D03*
X173452310Y-49399820D03*
D108*
X173452310Y-54479820D03*
X175992310Y-57019820D03*
X181072310Y-54479820D03*
X186152310Y-57019820D03*
X188692310Y-54479820D03*
X181072310Y-59559820D03*
D109*
X183612310Y-44319820D03*
X178532310Y-44319820D03*
X186152310Y-44319820D03*
X175992310Y-44319820D03*
D19*
X225425000Y-137795000D03*
X225425000Y-135255000D03*
D30*
X290110704Y-132080000D03*
X290110704Y-130380000D03*
D14*
X70440160Y-92710000D03*
X70440160Y-95250000D03*
X70440160Y-97790000D03*
X70440160Y-100330000D03*
X70440160Y-102870000D03*
X70440160Y-105410000D03*
X70440160Y-107950000D03*
X70440160Y-110490000D03*
X78060160Y-110490000D03*
X78060160Y-107950000D03*
X78060160Y-105410000D03*
X78060160Y-102870000D03*
X78060160Y-100330000D03*
X78060160Y-97790000D03*
X78060160Y-95250000D03*
X78060160Y-92710000D03*
D50*
X214630000Y-62410000D03*
X214630000Y-59510000D03*
D16*
X255358166Y-135222015D03*
X257058166Y-135222015D03*
D30*
X274121198Y-149655000D03*
X274121198Y-147955000D03*
D31*
X249775600Y-71786101D03*
X252315600Y-71786101D03*
D48*
X219710000Y-141231120D03*
D49*
X219710000Y-143263120D03*
D42*
X266078429Y-71515729D03*
D43*
X268618429Y-71515729D03*
X271158429Y-71515729D03*
X273698429Y-71515729D03*
X273698429Y-63895729D03*
X271158429Y-63895729D03*
X268618429Y-63895729D03*
X266078429Y-63895729D03*
D38*
X328041000Y-152423000D03*
X328041000Y-154123000D03*
D15*
X215900000Y-213700000D03*
D37*
X392015000Y-91769000D03*
D23*
X384395000Y-91769000D03*
D31*
X356235000Y-208915000D03*
X363855000Y-208915000D03*
D14*
X184057362Y-210589400D03*
X176437362Y-210589400D03*
D21*
X377825000Y-205105000D03*
X370205000Y-205105000D03*
D31*
X53340000Y-88900000D03*
X55880000Y-88900000D03*
D26*
X73660000Y-83820000D03*
X76200000Y-83820000D03*
X78740000Y-83820000D03*
X81280000Y-83820000D03*
X83820000Y-83820000D03*
X86360000Y-83820000D03*
X88900000Y-83820000D03*
X91440000Y-83820000D03*
X93980000Y-83820000D03*
X96520000Y-83820000D03*
X96520000Y-76200000D03*
X93980000Y-76200000D03*
X91440000Y-76200000D03*
X88900000Y-76200000D03*
X86360000Y-76200000D03*
X83820000Y-76200000D03*
X81280000Y-76200000D03*
X78740000Y-76200000D03*
X76200000Y-76200000D03*
X73660000Y-76200000D03*
D27*
X198120000Y-172720000D03*
X198120000Y-180340000D03*
D110*
X258810000Y-161716900D03*
X258310000Y-161716900D03*
X257810000Y-161716900D03*
X257310000Y-161716900D03*
X256810000Y-161716900D03*
D111*
X256810000Y-165943100D03*
X257310000Y-165943100D03*
X257810000Y-165943100D03*
X258310000Y-165943100D03*
X258810000Y-165943100D03*
D63*
X309245000Y-99110800D03*
X307975000Y-99110800D03*
X306705000Y-99110800D03*
X305435000Y-99110800D03*
X304165000Y-99110800D03*
X302895000Y-99110800D03*
X301625000Y-99110800D03*
X300355000Y-99110800D03*
X299085000Y-99110800D03*
X297815000Y-99110800D03*
X297815000Y-109169200D03*
X299085000Y-109169200D03*
X300355000Y-109169200D03*
X301625000Y-109169200D03*
X302895000Y-109169200D03*
X304165000Y-109169200D03*
X305435000Y-109169200D03*
X306705000Y-109169200D03*
X307975000Y-109169200D03*
X309245000Y-109169200D03*
D14*
X35052000Y-178689000D03*
X35052000Y-181229000D03*
X35052000Y-183769000D03*
X35052000Y-186309000D03*
X35052000Y-188849000D03*
X35052000Y-191389000D03*
X35052000Y-193929000D03*
X35052000Y-196469000D03*
X42672000Y-196469000D03*
X42672000Y-193929000D03*
X42672000Y-191389000D03*
X42672000Y-188849000D03*
X42672000Y-186309000D03*
X42672000Y-183769000D03*
X42672000Y-181229000D03*
X42672000Y-178689000D03*
X46990000Y-92710000D03*
X46990000Y-95250000D03*
X46990000Y-97790000D03*
X46990000Y-100330000D03*
X46990000Y-102870000D03*
X46990000Y-105410000D03*
X46990000Y-107950000D03*
X46990000Y-110490000D03*
X46990000Y-113030000D03*
X46990000Y-115570000D03*
X46990000Y-118110000D03*
X46990000Y-120650000D03*
X46990000Y-123190000D03*
X46990000Y-125730000D03*
X46990000Y-128270000D03*
X46990000Y-130810000D03*
X46990000Y-133350000D03*
X46990000Y-135890000D03*
X46990000Y-138430000D03*
X46990000Y-140970000D03*
X62230000Y-140970000D03*
X62230000Y-138430000D03*
X62230000Y-135890000D03*
X62230000Y-133350000D03*
X62230000Y-130810000D03*
X62230000Y-128270000D03*
X62230000Y-125730000D03*
X62230000Y-123190000D03*
X62230000Y-120650000D03*
X62230000Y-118110000D03*
X62230000Y-115570000D03*
X62230000Y-113030000D03*
X62230000Y-110490000D03*
X62230000Y-107950000D03*
X62230000Y-105410000D03*
X62230000Y-102870000D03*
X62230000Y-100330000D03*
X62230000Y-97790000D03*
X62230000Y-95250000D03*
X62230000Y-92710000D03*
D112*
X385080000Y-54295000D03*
X385080000Y-56195000D03*
X387080000Y-55245000D03*
D27*
X209550000Y-172720000D03*
X209550000Y-180340000D03*
D16*
X354557322Y-134620000D03*
X356257322Y-134620000D03*
D14*
X184057362Y-213608195D03*
X176437362Y-213608195D03*
D113*
X367665000Y-138430000D03*
X370205000Y-138430000D03*
X367665000Y-140970000D03*
X370205000Y-140970000D03*
X367665000Y-143510000D03*
X370205000Y-143510000D03*
X367665000Y-146050000D03*
X370205000Y-146050000D03*
X367665000Y-148590000D03*
X370205000Y-148590000D03*
D52*
X185420000Y-149860000D03*
D53*
X187960000Y-149860000D03*
X185420000Y-152400000D03*
X187960000Y-152400000D03*
X185420000Y-154940000D03*
X187960000Y-154940000D03*
X185420000Y-157480000D03*
X187960000Y-157480000D03*
X185420000Y-160020000D03*
X187960000Y-160020000D03*
D48*
X189484000Y-174625000D03*
D58*
X191516000Y-174625000D03*
D63*
X341630000Y-120116600D03*
X340360000Y-120116600D03*
X339090000Y-120116600D03*
X337820000Y-120116600D03*
X336550000Y-120116600D03*
X335280000Y-120116600D03*
X334010000Y-120116600D03*
X334010000Y-126263400D03*
X335280000Y-126263400D03*
X336550000Y-126263400D03*
X337820000Y-126263400D03*
X339090000Y-126263400D03*
X340360000Y-126263400D03*
X341630000Y-126263400D03*
D37*
X392015000Y-94269000D03*
D23*
X384395000Y-94269000D03*
D48*
X183134000Y-174625000D03*
D58*
X185166000Y-174625000D03*
D36*
X142240000Y-66675000D03*
X142240000Y-56515000D03*
D22*
X386715000Y-152400000D03*
D23*
X386715000Y-144780000D03*
D114*
X228021143Y-191930759D03*
D115*
X225481143Y-197010759D03*
D28*
X39384029Y-158152042D03*
D51*
X39384029Y-160692042D03*
D48*
X183134000Y-180975000D03*
D58*
X185166000Y-180975000D03*
D31*
X121285000Y-88900000D03*
X123825000Y-88900000D03*
D116*
X247650000Y-129222500D03*
X250190000Y-129222500D03*
X252730000Y-129222500D03*
X255270000Y-129222500D03*
X257810000Y-129222500D03*
X260350000Y-129222500D03*
X247650000Y-126682500D03*
X250190000Y-126682500D03*
X252730000Y-126682500D03*
X255270000Y-126682500D03*
X257810000Y-126682500D03*
X260350000Y-126682500D03*
D62*
X146685000Y-147320000D03*
X149225000Y-147320000D03*
X151765000Y-147320000D03*
D77*
X277571200Y-85394800D03*
X367588800Y-85394800D03*
D117*
X283210000Y-87630000D03*
X285750000Y-87630000D03*
X288290000Y-87630000D03*
X290830000Y-87630000D03*
X293370000Y-87630000D03*
X295910000Y-87630000D03*
X298450000Y-87630000D03*
X300990000Y-87630000D03*
X303530000Y-87630000D03*
X306070000Y-87630000D03*
X308610000Y-87630000D03*
X311150000Y-87630000D03*
X313690000Y-87630000D03*
X316230000Y-87630000D03*
X318770000Y-87630000D03*
X321310000Y-87630000D03*
X323850000Y-87630000D03*
X326390000Y-87630000D03*
X328930000Y-87630000D03*
X331470000Y-87630000D03*
X334010000Y-87630000D03*
X336550000Y-87630000D03*
X339090000Y-87630000D03*
X341630000Y-87630000D03*
X344170000Y-87630000D03*
X346710000Y-87630000D03*
X349250000Y-87630000D03*
X351790000Y-87630000D03*
X354330000Y-87630000D03*
X356870000Y-87630000D03*
X359410000Y-87630000D03*
X361950000Y-87630000D03*
X283210000Y-82550000D03*
X285750000Y-82550000D03*
X288290000Y-82550000D03*
X290830000Y-82550000D03*
X293370000Y-82550000D03*
X295910000Y-82550000D03*
X298450000Y-82550000D03*
X300990000Y-82550000D03*
X303530000Y-82550000D03*
X306070000Y-82550000D03*
X308610000Y-82550000D03*
X311150000Y-82550000D03*
X313690000Y-82550000D03*
X316230000Y-82550000D03*
X318770000Y-82550000D03*
X321310000Y-82550000D03*
X323850000Y-82550000D03*
X326390000Y-82550000D03*
X328930000Y-82550000D03*
X331470000Y-82550000D03*
X334010000Y-82550000D03*
X336550000Y-82550000D03*
X339090000Y-82550000D03*
X341630000Y-82550000D03*
X344170000Y-82550000D03*
X346710000Y-82550000D03*
X349250000Y-82550000D03*
X351790000Y-82550000D03*
X354330000Y-82550000D03*
X356870000Y-82550000D03*
X359410000Y-82550000D03*
X361950000Y-82550000D03*
D14*
X77470000Y-172720000D03*
X77470000Y-175260000D03*
X77470000Y-177800000D03*
X77470000Y-180340000D03*
X77470000Y-182880000D03*
X77470000Y-185420000D03*
X77470000Y-187960000D03*
X77470000Y-190500000D03*
X85090000Y-190500000D03*
X85090000Y-187960000D03*
X85090000Y-185420000D03*
X85090000Y-182880000D03*
X85090000Y-180340000D03*
X85090000Y-177800000D03*
X85090000Y-175260000D03*
X85090000Y-172720000D03*
D62*
X139700000Y-151130000D03*
X142240000Y-151130000D03*
D14*
X115496256Y-92710000D03*
X115496256Y-95250000D03*
X115496256Y-97790000D03*
X115496256Y-100330000D03*
X115496256Y-102870000D03*
X115496256Y-105410000D03*
X115496256Y-107950000D03*
X115496256Y-110490000D03*
X115496256Y-113030000D03*
X115496256Y-115570000D03*
X115496256Y-118110000D03*
X115496256Y-120650000D03*
X115496256Y-123190000D03*
X115496256Y-125730000D03*
X115496256Y-128270000D03*
X115496256Y-130810000D03*
X115496256Y-133350000D03*
X115496256Y-135890000D03*
X115496256Y-138430000D03*
X115496256Y-140970000D03*
X130736256Y-140970000D03*
X130736256Y-138430000D03*
X130736256Y-135890000D03*
X130736256Y-133350000D03*
X130736256Y-130810000D03*
X130736256Y-128270000D03*
X130736256Y-125730000D03*
X130736256Y-123190000D03*
X130736256Y-120650000D03*
X130736256Y-118110000D03*
X130736256Y-115570000D03*
X130736256Y-113030000D03*
X130736256Y-110490000D03*
X130736256Y-107950000D03*
X130736256Y-105410000D03*
X130736256Y-102870000D03*
X130736256Y-100330000D03*
X130736256Y-97790000D03*
X130736256Y-95250000D03*
X130736256Y-92710000D03*
D36*
X158743834Y-185424342D03*
X158743834Y-182884342D03*
D30*
X326009000Y-154139000D03*
X326009000Y-152439000D03*
D38*
X333629000Y-183857000D03*
X333629000Y-182157000D03*
G36*
X374730799Y-43655664D02*
G01*
X374777292Y-43709320D01*
X374788678Y-43761662D01*
X374788678Y-50367662D01*
X374768676Y-50435783D01*
X374715020Y-50482276D01*
X374662678Y-50493662D01*
X371358678Y-50493662D01*
X371290557Y-50473660D01*
X371244064Y-50420004D01*
X371232678Y-50367662D01*
X371232678Y-43761662D01*
X371252680Y-43693541D01*
X371306336Y-43647048D01*
X371358678Y-43635662D01*
X374662678Y-43635662D01*
X374730799Y-43655664D01*
G37*
M02*
