G04 #@! TF.GenerationSoftware,KiCad,Pcbnew,8.0.3*
G04 #@! TF.CreationDate,2024-06-16T18:13:09+02:00*
G04 #@! TF.ProjectId,cbm_ultipet_v1,63626d5f-756c-4746-9970-65745f76312e,rev?*
G04 #@! TF.SameCoordinates,Original*
G04 #@! TF.FileFunction,Soldermask,Bot*
G04 #@! TF.FilePolarity,Negative*
%FSLAX46Y46*%
G04 Gerber Fmt 4.6, Leading zero omitted, Abs format (unit mm)*
G04 Created by KiCad (PCBNEW 8.0.3) date 2024-06-16 18:13:09*
%MOMM*%
%LPD*%
G01*
G04 APERTURE LIST*
G04 Aperture macros list*
%AMRoundRect*
0 Rectangle with rounded corners*
0 $1 Rounding radius*
0 $2 $3 $4 $5 $6 $7 $8 $9 X,Y pos of 4 corners*
0 Add a 4 corners polygon primitive as box body*
4,1,4,$2,$3,$4,$5,$6,$7,$8,$9,$2,$3,0*
0 Add four circle primitives for the rounded corners*
1,1,$1+$1,$2,$3*
1,1,$1+$1,$4,$5*
1,1,$1+$1,$6,$7*
1,1,$1+$1,$8,$9*
0 Add four rect primitives between the rounded corners*
20,1,$1+$1,$2,$3,$4,$5,0*
20,1,$1+$1,$4,$5,$6,$7,0*
20,1,$1+$1,$6,$7,$8,$9,0*
20,1,$1+$1,$8,$9,$2,$3,0*%
%AMFreePoly0*
4,1,25,0.333266,0.742596,0.345389,0.732242,0.732242,0.345389,0.760749,0.289441,0.762000,0.273547,0.762000,-0.273547,0.742596,-0.333266,0.732242,-0.345389,0.345389,-0.732242,0.289441,-0.760749,0.273547,-0.762000,-0.273547,-0.762000,-0.333266,-0.742596,-0.345389,-0.732242,-0.732242,-0.345389,-0.760749,-0.289441,-0.762000,-0.273547,-0.762000,0.273547,-0.742596,0.333266,-0.732242,0.345389,
-0.345389,0.732242,-0.289441,0.760749,-0.273547,0.762000,0.273547,0.762000,0.333266,0.742596,0.333266,0.742596,$1*%
%AMFreePoly1*
4,1,25,0.391131,0.882296,0.403254,0.871942,0.871942,0.403254,0.900449,0.347306,0.901700,0.331412,0.901700,-0.331412,0.882296,-0.391131,0.871942,-0.403254,0.403254,-0.871942,0.347306,-0.900449,0.331412,-0.901700,-0.331412,-0.901700,-0.391131,-0.882296,-0.403254,-0.871942,-0.871942,-0.403254,-0.900449,-0.347306,-0.901700,-0.331412,-0.901700,0.331412,-0.882296,0.391131,-0.871942,0.403254,
-0.403254,0.871942,-0.347306,0.900449,-0.331412,0.901700,0.331412,0.901700,0.391131,0.882296,0.391131,0.882296,$1*%
%AMFreePoly2*
4,1,25,0.375350,0.844196,0.387473,0.833842,0.833842,0.387473,0.862349,0.331525,0.863600,0.315631,0.863600,-0.315631,0.844196,-0.375350,0.833842,-0.387473,0.387473,-0.833842,0.331525,-0.862349,0.315631,-0.863600,-0.315631,-0.863600,-0.375350,-0.844196,-0.387473,-0.833842,-0.833842,-0.387473,-0.862349,-0.331525,-0.863600,-0.315631,-0.863600,0.315631,-0.844196,0.375350,-0.833842,0.387473,
-0.387473,0.833842,-0.331525,0.862349,-0.315631,0.863600,0.315631,0.863600,0.375350,0.844196,0.375350,0.844196,$1*%
%AMFreePoly3*
4,1,25,0.322745,0.717196,0.334868,0.706842,0.706842,0.334868,0.735349,0.278920,0.736600,0.263026,0.736600,-0.263026,0.717196,-0.322745,0.706842,-0.334868,0.334868,-0.706842,0.278920,-0.735349,0.263026,-0.736600,-0.263026,-0.736600,-0.322745,-0.717196,-0.334868,-0.706842,-0.706842,-0.334868,-0.735349,-0.278920,-0.736600,-0.263026,-0.736600,0.263026,-0.717196,0.322745,-0.706842,0.334868,
-0.334868,0.706842,-0.278920,0.735349,-0.263026,0.736600,0.263026,0.736600,0.322745,0.717196,0.322745,0.717196,$1*%
%AMFreePoly4*
4,1,25,0.354308,0.793396,0.366431,0.783042,0.783042,0.366431,0.811549,0.310483,0.812800,0.294589,0.812800,-0.294589,0.793396,-0.354308,0.783042,-0.366431,0.366431,-0.783042,0.310483,-0.811549,0.294589,-0.812800,-0.294589,-0.812800,-0.354308,-0.793396,-0.366431,-0.783042,-0.783042,-0.366431,-0.811549,-0.310483,-0.812800,-0.294589,-0.812800,0.294589,-0.793396,0.354308,-0.783042,0.366431,
-0.366431,0.783042,-0.310483,0.811549,-0.294589,0.812800,0.294589,0.812800,0.354308,0.793396,0.354308,0.793396,$1*%
%AMFreePoly5*
4,1,25,0.349047,0.780696,0.361170,0.770342,0.770342,0.361170,0.798849,0.305222,0.800100,0.289328,0.800100,-0.289328,0.780696,-0.349047,0.770342,-0.361170,0.361170,-0.770342,0.305222,-0.798849,0.289328,-0.800100,-0.289328,-0.800100,-0.349047,-0.780696,-0.361170,-0.770342,-0.770342,-0.361170,-0.798849,-0.305222,-0.800100,-0.289328,-0.800100,0.289328,-0.780696,0.349047,-0.770342,0.361170,
-0.361170,0.770342,-0.305222,0.798849,-0.289328,0.800100,0.289328,0.800100,0.349047,0.780696,0.349047,0.780696,$1*%
%AMFreePoly6*
4,1,25,0.470039,1.072796,0.482162,1.062442,1.062442,0.482162,1.090949,0.426214,1.092200,0.410320,1.092200,-0.410320,1.072796,-0.470039,1.062442,-0.482162,0.482162,-1.062442,0.426214,-1.090949,0.410320,-1.092200,-0.410320,-1.092200,-0.470039,-1.072796,-0.482162,-1.062442,-1.062442,-0.482162,-1.090949,-0.426214,-1.092200,-0.410320,-1.092200,0.410320,-1.072796,0.470039,-1.062442,0.482162,
-0.482162,1.062442,-0.426214,1.090949,-0.410320,1.092200,0.410320,1.092200,0.470039,1.072796,0.470039,1.072796,$1*%
G04 Aperture macros list end*
%ADD10C,4.500000*%
%ADD11C,4.600000*%
%ADD12C,1.626000*%
%ADD13O,2.844800X1.524000*%
%ADD14C,6.102000*%
%ADD15O,3.048000X1.625600*%
%ADD16RoundRect,0.051000X0.750000X0.750000X-0.750000X0.750000X-0.750000X-0.750000X0.750000X-0.750000X0*%
%ADD17C,1.602000*%
%ADD18O,1.524000X2.844800*%
%ADD19FreePoly0,270.000000*%
%ADD20C,1.803400*%
%ADD21FreePoly1,90.000000*%
%ADD22FreePoly0,0.000000*%
%ADD23C,3.150000*%
%ADD24FreePoly2,90.000000*%
%ADD25O,2.102000X1.302000*%
%ADD26FreePoly0,90.000000*%
%ADD27FreePoly0,180.000000*%
%ADD28O,1.625600X3.048000*%
%ADD29FreePoly2,270.000000*%
%ADD30C,2.362200*%
%ADD31RoundRect,0.051000X0.800000X-1.200000X0.800000X1.200000X-0.800000X1.200000X-0.800000X-1.200000X0*%
%ADD32O,1.702000X2.502000*%
%ADD33RoundRect,0.051000X-0.850000X-0.850000X0.850000X-0.850000X0.850000X0.850000X-0.850000X0.850000X0*%
%ADD34FreePoly1,270.000000*%
%ADD35RoundRect,0.265000X-0.636000X-0.636000X0.636000X-0.636000X0.636000X0.636000X-0.636000X0.636000X0*%
%ADD36C,1.802000*%
%ADD37C,1.473200*%
%ADD38FreePoly3,270.000000*%
%ADD39FreePoly3,0.000000*%
%ADD40FreePoly1,0.000000*%
%ADD41C,1.524000*%
%ADD42RoundRect,0.388620X0.906780X4.792980X-0.906780X4.792980X-0.906780X-4.792980X0.906780X-4.792980X0*%
%ADD43RoundRect,0.051000X-0.850000X0.850000X-0.850000X-0.850000X0.850000X-0.850000X0.850000X0.850000X0*%
%ADD44O,1.802000X1.802000*%
%ADD45C,5.283200*%
%ADD46C,2.896000*%
%ADD47O,4.394200X2.298700*%
%ADD48O,2.451100X4.699000*%
%ADD49RoundRect,0.388620X-4.792980X0.906780X-4.792980X-0.906780X4.792980X-0.906780X4.792980X0.906780X0*%
%ADD50FreePoly4,270.000000*%
%ADD51O,2.603200X1.403200*%
%ADD52O,1.403200X2.603200*%
%ADD53C,1.625600*%
%ADD54C,3.530600*%
%ADD55O,2.203200X4.203200*%
%ADD56O,4.203200X2.203200*%
%ADD57RoundRect,0.051000X-1.200000X-0.800000X1.200000X-0.800000X1.200000X0.800000X-1.200000X0.800000X0*%
%ADD58O,2.502000X1.702000*%
%ADD59C,1.727200*%
%ADD60C,3.404000*%
%ADD61O,3.556000X1.879600*%
%ADD62FreePoly4,0.000000*%
%ADD63FreePoly2,180.000000*%
%ADD64C,1.611200*%
%ADD65C,1.600200*%
%ADD66FreePoly5,90.000000*%
%ADD67FreePoly4,180.000000*%
%ADD68FreePoly6,180.000000*%
%ADD69C,2.184400*%
%ADD70C,2.082800*%
%ADD71C,1.981200*%
%ADD72C,4.013200*%
%ADD73O,1.302000X2.102000*%
%ADD74FreePoly4,90.000000*%
%ADD75RoundRect,0.101600X0.550000X0.500000X-0.550000X0.500000X-0.550000X-0.500000X0.550000X-0.500000X0*%
%ADD76RoundRect,0.101600X-0.500000X0.550000X-0.500000X-0.550000X0.500000X-0.550000X0.500000X0.550000X0*%
%ADD77RoundRect,0.101600X0.500000X-0.550000X0.500000X0.550000X-0.500000X0.550000X-0.500000X-0.550000X0*%
%ADD78RoundRect,0.101600X-0.550000X-0.500000X0.550000X-0.500000X0.550000X0.500000X-0.550000X0.500000X0*%
G04 APERTURE END LIST*
D10*
X294397678Y-71702662D02*
X294397678Y-71703662D01*
D11*
X373264678Y-71702662D02*
X373264678Y-71703662D01*
D12*
X396875000Y-84455000D03*
X396875000Y-81915000D03*
X396875000Y-79375000D03*
X394335000Y-84455000D03*
X391795000Y-81915000D03*
X394335000Y-81915000D03*
X394335000Y-79375000D03*
X401955000Y-79375000D03*
X401955000Y-84455000D03*
X401955000Y-81915000D03*
D13*
X179772652Y-95250000D03*
X179772652Y-97790000D03*
X179772652Y-100330000D03*
X179772652Y-102870000D03*
X179772652Y-105410000D03*
X179772652Y-107950000D03*
X179772652Y-110490000D03*
X187392652Y-110490000D03*
X187392652Y-107950000D03*
X187392652Y-105410000D03*
X187392652Y-102870000D03*
X187392652Y-100330000D03*
X187392652Y-97790000D03*
X187392652Y-95250000D03*
D14*
X196100000Y-62000000D03*
D15*
X69882208Y-163830000D03*
X69882208Y-158750000D03*
X69882208Y-156210000D03*
X69882208Y-153670000D03*
X69882208Y-151130000D03*
X69882208Y-148590000D03*
X69882208Y-146050000D03*
X69882208Y-143510000D03*
X69882208Y-140970000D03*
X69882208Y-138430000D03*
X69882208Y-135890000D03*
X69882208Y-133350000D03*
X69882208Y-130810000D03*
X69882208Y-128270000D03*
X69882208Y-125730000D03*
X69882208Y-123190000D03*
X69882208Y-120650000D03*
X69882208Y-118110000D03*
X69882208Y-115570000D03*
D16*
X147330000Y-70485000D03*
D17*
X144790000Y-70485000D03*
X142250000Y-70485000D03*
D18*
X359958100Y-193675000D03*
X362498100Y-193675000D03*
X365038100Y-193675000D03*
X367578100Y-193675000D03*
X367578100Y-186055000D03*
X365038100Y-186055000D03*
X362498100Y-186055000D03*
X359958100Y-186055000D03*
D19*
X112609083Y-212147653D03*
X112609083Y-214687653D03*
D14*
X29850000Y-173000000D03*
D20*
X393700000Y-57150000D03*
D21*
X393700000Y-54610000D03*
D19*
X225901303Y-166255804D03*
X225901303Y-173875804D03*
D15*
X32385000Y-74930000D03*
X32385000Y-72390000D03*
D19*
X231224246Y-176146831D03*
X231224246Y-186306831D03*
X213360000Y-152400000D03*
X213360000Y-160020000D03*
D13*
X92272410Y-92710000D03*
X92272410Y-95250000D03*
X92272410Y-97790000D03*
X92272410Y-100330000D03*
X92272410Y-102870000D03*
X92272410Y-105410000D03*
X92272410Y-107950000D03*
X92272410Y-110490000D03*
X92272410Y-113030000D03*
X92272410Y-115570000D03*
X92272410Y-118110000D03*
X92272410Y-120650000D03*
X92272410Y-123190000D03*
X92272410Y-125730000D03*
X92272410Y-128270000D03*
X92272410Y-130810000D03*
X92272410Y-133350000D03*
X92272410Y-135890000D03*
X92272410Y-138430000D03*
X92272410Y-140970000D03*
X107512410Y-140970000D03*
X107512410Y-138430000D03*
X107512410Y-135890000D03*
X107512410Y-133350000D03*
X107512410Y-130810000D03*
X107512410Y-128270000D03*
X107512410Y-125730000D03*
X107512410Y-123190000D03*
X107512410Y-120650000D03*
X107512410Y-118110000D03*
X107512410Y-115570000D03*
X107512410Y-113030000D03*
X107512410Y-110490000D03*
X107512410Y-107950000D03*
X107512410Y-105410000D03*
X107512410Y-102870000D03*
X107512410Y-100330000D03*
X107512410Y-97790000D03*
X107512410Y-95250000D03*
X107512410Y-92710000D03*
D22*
X258445000Y-178435000D03*
X260985000Y-178435000D03*
D23*
X396659900Y-152146000D03*
X396659900Y-127254000D03*
D24*
X395237500Y-145237200D03*
X395237500Y-142468600D03*
X395237500Y-139700000D03*
X395237500Y-136931400D03*
X395237500Y-134162800D03*
X398081100Y-143852900D03*
X398081100Y-141084300D03*
X398081100Y-138315700D03*
X398081100Y-135547100D03*
D22*
X370205000Y-212725000D03*
X377825000Y-212725000D03*
D13*
X193675000Y-95250000D03*
X193675000Y-97790000D03*
X193675000Y-100330000D03*
X193675000Y-102870000D03*
X193675000Y-105410000D03*
X193675000Y-107950000D03*
X193675000Y-110490000D03*
X201295000Y-110490000D03*
X201295000Y-107950000D03*
X201295000Y-105410000D03*
X201295000Y-102870000D03*
X201295000Y-100330000D03*
X201295000Y-97790000D03*
X201295000Y-95250000D03*
D25*
X278989828Y-55501408D03*
X278989828Y-57501408D03*
X278989828Y-59501408D03*
X278989828Y-53501408D03*
X278989828Y-51501408D03*
X278989828Y-61501408D03*
D15*
X220190344Y-137795000D03*
X220190344Y-135255000D03*
D14*
X397830000Y-213598652D03*
D18*
X74930000Y-66675000D03*
X77470000Y-66675000D03*
X80010000Y-66675000D03*
X82550000Y-66675000D03*
X85090000Y-66675000D03*
X87630000Y-66675000D03*
X90170000Y-66675000D03*
X92710000Y-66675000D03*
X95250000Y-66675000D03*
D22*
X375920000Y-146050000D03*
X378460000Y-146050000D03*
X343535000Y-212725000D03*
X346075000Y-212725000D03*
D26*
X208280000Y-72390000D03*
X208280000Y-64770000D03*
D27*
X274637500Y-74612500D03*
X272097500Y-74612500D03*
X207010000Y-118110000D03*
X204470000Y-118110000D03*
D28*
X179705000Y-149225000D03*
X182245000Y-149225000D03*
X184785000Y-149225000D03*
D26*
X174625000Y-81280000D03*
X174625000Y-78740000D03*
D29*
X19988218Y-148167670D03*
X19988218Y-152688870D03*
D30*
X22477418Y-146923070D03*
X22477418Y-153933470D03*
D27*
X268776492Y-74718690D03*
X266236492Y-74718690D03*
D19*
X87065852Y-160059803D03*
X87065852Y-162599803D03*
D13*
X172787652Y-92710000D03*
X172787652Y-95250000D03*
X172787652Y-97790000D03*
X172787652Y-100330000D03*
X172787652Y-102870000D03*
X172787652Y-105410000D03*
X172787652Y-107950000D03*
X172787652Y-110490000D03*
D15*
X374015000Y-87630000D03*
X374015000Y-90170000D03*
X379095000Y-79375000D03*
X379095000Y-76835000D03*
D31*
X280658363Y-73523214D03*
D32*
X283198363Y-73523214D03*
X285738363Y-73523214D03*
X288278363Y-73523214D03*
X288278363Y-65903214D03*
X285738363Y-65903214D03*
X283198363Y-65903214D03*
X280658363Y-65903214D03*
D18*
X375920000Y-124460000D03*
X375920000Y-114300000D03*
D23*
X396659900Y-120396000D03*
X396659900Y-95504000D03*
D24*
X395237500Y-113487200D03*
X395237500Y-110718600D03*
X395237500Y-107950000D03*
X395237500Y-105181400D03*
X395237500Y-102412800D03*
X398081100Y-112102900D03*
X398081100Y-109334300D03*
X398081100Y-106565700D03*
X398081100Y-103797100D03*
D19*
X209550000Y-142240000D03*
X209550000Y-149860000D03*
D26*
X354965000Y-191135000D03*
X354965000Y-188595000D03*
D18*
X153240040Y-200717653D03*
X153240040Y-210877653D03*
D22*
X215900000Y-97790000D03*
X210820000Y-97790000D03*
D26*
X102235000Y-74930000D03*
X102235000Y-72390000D03*
D33*
X304800121Y-197602658D03*
D27*
X184852652Y-91440000D03*
X182312652Y-91440000D03*
D22*
X134190040Y-203257653D03*
X141810040Y-203257653D03*
D14*
X216170000Y-172937116D03*
D13*
X176336657Y-212894531D03*
X168716657Y-212894531D03*
D20*
X39099517Y-165095696D03*
D34*
X39099517Y-167635696D03*
D19*
X117202781Y-199447653D03*
X117202781Y-207067653D03*
D26*
X149106247Y-195826416D03*
X149106247Y-193286416D03*
X211268152Y-72397100D03*
X211268152Y-64777100D03*
D35*
X206892500Y-180975000D03*
D36*
X209432500Y-180975000D03*
X206892500Y-183515000D03*
X209432500Y-183515000D03*
X206892500Y-186055000D03*
X209432500Y-186055000D03*
X206892500Y-188595000D03*
X209432500Y-188595000D03*
X206892500Y-191135000D03*
X209432500Y-191135000D03*
D14*
X23746110Y-213689571D03*
D13*
X290195000Y-202478100D03*
X290195000Y-205018100D03*
X290195000Y-207558100D03*
X290195000Y-210098100D03*
X297815000Y-210098100D03*
X297815000Y-207558100D03*
X297815000Y-205018100D03*
X297815000Y-202478100D03*
D20*
X37519751Y-140548568D03*
D34*
X37519751Y-143088568D03*
D27*
X75536943Y-88900000D03*
X72996943Y-88900000D03*
D26*
X146175847Y-195826416D03*
X146175847Y-193286416D03*
D22*
X246380000Y-85090000D03*
X248920000Y-85090000D03*
D15*
X228600000Y-160020000D03*
X228600000Y-157480000D03*
X228600000Y-154940000D03*
D13*
X238760000Y-68580000D03*
X246380000Y-68580000D03*
D37*
X226060000Y-147215769D03*
D38*
X226060000Y-149247769D03*
D18*
X60325000Y-71120000D03*
X57785000Y-71120000D03*
X55245000Y-71120000D03*
X52705000Y-71120000D03*
X50165000Y-71120000D03*
X47625000Y-71120000D03*
X45085000Y-71120000D03*
X42545000Y-71120000D03*
X40005000Y-71120000D03*
D27*
X387350000Y-129540000D03*
X384810000Y-129540000D03*
D37*
X173228000Y-156678740D03*
D39*
X175260000Y-156678740D03*
D20*
X359410000Y-134620000D03*
D40*
X361950000Y-134620000D03*
D19*
X232294691Y-166255804D03*
X232294691Y-173875804D03*
D13*
X93451899Y-153670000D03*
X93451899Y-156210000D03*
X93451899Y-158750000D03*
X93451899Y-161290000D03*
X93451899Y-163830000D03*
X93451899Y-166370000D03*
X93451899Y-168910000D03*
X93451899Y-171450000D03*
X93451899Y-173990000D03*
X93451899Y-176530000D03*
X93451899Y-179070000D03*
X93451899Y-181610000D03*
X93451899Y-184150000D03*
X93451899Y-186690000D03*
X108691899Y-186690000D03*
X108691899Y-184150000D03*
X108691899Y-181610000D03*
X108691899Y-179070000D03*
X108691899Y-176530000D03*
X108691899Y-173990000D03*
X108691899Y-171450000D03*
X108691899Y-168910000D03*
X108691899Y-166370000D03*
X108691899Y-163830000D03*
X108691899Y-161290000D03*
X108691899Y-158750000D03*
X108691899Y-156210000D03*
X108691899Y-153670000D03*
D41*
X62230000Y-173990000D03*
X62230000Y-189230000D03*
X69850000Y-189230000D03*
X69850000Y-173990000D03*
D33*
X268085438Y-203527695D03*
D22*
X81280000Y-167640000D03*
X83820000Y-167640000D03*
D26*
X222250000Y-161290000D03*
X222250000Y-153670000D03*
D13*
X217170000Y-105410000D03*
X209550000Y-105410000D03*
D26*
X236757617Y-104363142D03*
X236757617Y-96743142D03*
D19*
X145325872Y-56515000D03*
X145325872Y-66675000D03*
D28*
X130810000Y-71755000D03*
X133350000Y-71755000D03*
X135890000Y-71755000D03*
D20*
X360680000Y-149225000D03*
D34*
X360680000Y-151765000D03*
D14*
X401160000Y-172900000D03*
D26*
X218440000Y-161290000D03*
X218440000Y-153670000D03*
D13*
X370840000Y-129540000D03*
X370840000Y-127000000D03*
X370840000Y-124460000D03*
X370840000Y-121920000D03*
X370840000Y-119380000D03*
X370840000Y-116840000D03*
X370840000Y-114300000D03*
X370840000Y-111760000D03*
X370840000Y-109220000D03*
D27*
X339725000Y-212725000D03*
X337185000Y-212725000D03*
D19*
X110060040Y-199445726D03*
X110060040Y-207065726D03*
D22*
X294640000Y-189865000D03*
X297180000Y-189865000D03*
D18*
X265308840Y-92647149D03*
X265308840Y-85027149D03*
D28*
X122760040Y-194367653D03*
X125300040Y-194367653D03*
X127840040Y-194367653D03*
D42*
X144841565Y-48598750D03*
X140879165Y-48598750D03*
X136916765Y-48598750D03*
X132954365Y-48598750D03*
X128991965Y-48598750D03*
X125029565Y-48598750D03*
D19*
X288925000Y-138430000D03*
X288925000Y-140970000D03*
D26*
X117202781Y-214687653D03*
X117202781Y-212147653D03*
D14*
X390600000Y-49600000D03*
D20*
X174510135Y-175804802D03*
D40*
X177050135Y-175804802D03*
D18*
X40005000Y-83820000D03*
X42545000Y-83820000D03*
X45085000Y-83820000D03*
X47625000Y-83820000D03*
X50165000Y-83820000D03*
X52705000Y-83820000D03*
X55245000Y-83820000D03*
X57785000Y-83820000D03*
X60325000Y-83820000D03*
X62865000Y-83820000D03*
X62865000Y-76200000D03*
X60325000Y-76200000D03*
X57785000Y-76200000D03*
X55245000Y-76200000D03*
X52705000Y-76200000D03*
X50165000Y-76200000D03*
X47625000Y-76200000D03*
X45085000Y-76200000D03*
X42545000Y-76200000D03*
X40005000Y-76200000D03*
D22*
X240030000Y-85090000D03*
X242570000Y-85090000D03*
D41*
X256712105Y-157453622D03*
X259252105Y-157453622D03*
D26*
X126570040Y-214687653D03*
X126570040Y-212147653D03*
D22*
X258445000Y-175260000D03*
X260985000Y-175260000D03*
D26*
X113790320Y-207067653D03*
X113790320Y-199447653D03*
D37*
X179578000Y-156845000D03*
D39*
X181610000Y-156845000D03*
D19*
X115892572Y-160020000D03*
X115892572Y-162560000D03*
D13*
X45720000Y-149860000D03*
X45720000Y-152400000D03*
X45720000Y-154940000D03*
X45720000Y-157480000D03*
X45720000Y-160020000D03*
X45720000Y-162560000D03*
X45720000Y-165100000D03*
X45720000Y-167640000D03*
X53340000Y-167640000D03*
X53340000Y-165100000D03*
X53340000Y-162560000D03*
X53340000Y-160020000D03*
X53340000Y-157480000D03*
X53340000Y-154940000D03*
X53340000Y-152400000D03*
X53340000Y-149860000D03*
D22*
X161742307Y-208899413D03*
X160472307Y-206994413D03*
X159202307Y-208899413D03*
X126497527Y-148259756D03*
X129037527Y-148259756D03*
D15*
X386715000Y-59690000D03*
X386715000Y-62230000D03*
X386715000Y-64770000D03*
X386715000Y-67310000D03*
X386715000Y-69850000D03*
X386715000Y-72390000D03*
X386715000Y-74930000D03*
D18*
X130810000Y-83820000D03*
X133350000Y-83820000D03*
X135890000Y-83820000D03*
X138430000Y-83820000D03*
X140970000Y-83820000D03*
X143510000Y-83820000D03*
X146050000Y-83820000D03*
X146050000Y-76200000D03*
X143510000Y-76200000D03*
X140970000Y-76200000D03*
X138430000Y-76200000D03*
X135890000Y-76200000D03*
X133350000Y-76200000D03*
X130810000Y-76200000D03*
D28*
X137795000Y-62230000D03*
X135255000Y-62230000D03*
X132715000Y-62230000D03*
X130175000Y-62230000D03*
X127635000Y-62230000D03*
X125095000Y-62230000D03*
D27*
X382270000Y-85090000D03*
X379730000Y-85090000D03*
D43*
X184140000Y-194305000D03*
D44*
X184140000Y-196845000D03*
X181600000Y-194305000D03*
X181600000Y-196845000D03*
X179060000Y-194305000D03*
X179060000Y-196845000D03*
X176520000Y-194305000D03*
X176520000Y-196845000D03*
D18*
X378460000Y-124460000D03*
X378460000Y-114300000D03*
D13*
X188995036Y-206927267D03*
X181375036Y-206927267D03*
D19*
X205740000Y-142240000D03*
X205740000Y-149860000D03*
D14*
X24300000Y-62000000D03*
D19*
X201930000Y-152400000D03*
X201930000Y-160020000D03*
D15*
X303256782Y-64827815D03*
X303256782Y-67367815D03*
D22*
X98425000Y-88900000D03*
X100965000Y-88900000D03*
D26*
X233858072Y-104479124D03*
X233858072Y-96859124D03*
D19*
X222769691Y-166255804D03*
X222769691Y-173875804D03*
D28*
X122760040Y-199447653D03*
X125300040Y-199447653D03*
X127840040Y-199447653D03*
D20*
X354965000Y-200025000D03*
D40*
X357505000Y-200025000D03*
D22*
X144780000Y-88265000D03*
X147320000Y-88265000D03*
D13*
X176312491Y-215918477D03*
X168692491Y-215918477D03*
D29*
X28708672Y-187560753D03*
X28708672Y-190303953D03*
X28708672Y-193047153D03*
X28708672Y-195790353D03*
X28708672Y-198533553D03*
X26168672Y-188932353D03*
X26168672Y-191675553D03*
X26168672Y-194418753D03*
X26168672Y-197161953D03*
D45*
X27438672Y-180524953D03*
X27438672Y-205569353D03*
D46*
X309086200Y-52616100D03*
X357359000Y-52616100D03*
D24*
X314172600Y-55156100D03*
X316712600Y-55156100D03*
X319252600Y-55156100D03*
X321792600Y-55156100D03*
X324332600Y-55156100D03*
X326872600Y-55156100D03*
X329412600Y-55156100D03*
X331952600Y-55156100D03*
X334492600Y-55156100D03*
X337032600Y-55156100D03*
X339572600Y-55156100D03*
X342112600Y-55156100D03*
X344652600Y-55156100D03*
X347192600Y-55156100D03*
X349732600Y-55156100D03*
X352272600Y-55156100D03*
X314172600Y-57696100D03*
X316712600Y-57696100D03*
X319252600Y-57696100D03*
X321792600Y-57696100D03*
X324332600Y-57696100D03*
X326872600Y-57696100D03*
X329412600Y-57696100D03*
X331952600Y-57696100D03*
X334492600Y-57696100D03*
X337032600Y-57696100D03*
X339572600Y-57696100D03*
X342112600Y-57696100D03*
X344652600Y-57696100D03*
X347192600Y-57696100D03*
X349732600Y-57696100D03*
X352272600Y-57696100D03*
X314172600Y-60236100D03*
X316712600Y-60236100D03*
X319252600Y-60236100D03*
X321792600Y-60236100D03*
X324332600Y-60236100D03*
X326872600Y-60236100D03*
X329412600Y-60236100D03*
X331952600Y-60236100D03*
X334492600Y-60236100D03*
X337032600Y-60236100D03*
X339572600Y-60236100D03*
X342112600Y-60236100D03*
X344652600Y-60236100D03*
X347192600Y-60236100D03*
X349732600Y-60236100D03*
X352272600Y-60236100D03*
D22*
X189865000Y-118110000D03*
X192405000Y-118110000D03*
D26*
X277221100Y-70436501D03*
X277221100Y-67896501D03*
D22*
X233680000Y-154940000D03*
X236220000Y-154940000D03*
D28*
X155159369Y-88059269D03*
X157699369Y-88059269D03*
X160239369Y-88059269D03*
D47*
X168910000Y-58420000D03*
X153670000Y-58420000D03*
D13*
X226060000Y-57785000D03*
X226060000Y-60325000D03*
X226060000Y-62865000D03*
X226060000Y-65405000D03*
X226060000Y-67945000D03*
X226060000Y-70485000D03*
X226060000Y-73025000D03*
X226060000Y-75565000D03*
D28*
X243840000Y-140970000D03*
X256540000Y-140970000D03*
X246380000Y-140970000D03*
X248920000Y-140970000D03*
X254000000Y-140970000D03*
X241300000Y-140970000D03*
X251460000Y-140970000D03*
X238760000Y-140970000D03*
D19*
X209550000Y-152400000D03*
X209550000Y-160020000D03*
D18*
X267970000Y-92710000D03*
X267970000Y-85090000D03*
D15*
X205467975Y-102870000D03*
X205467975Y-105410000D03*
D13*
X148590000Y-92710000D03*
X148590000Y-95250000D03*
X148590000Y-97790000D03*
X148590000Y-100330000D03*
X148590000Y-102870000D03*
X148590000Y-105410000D03*
X148590000Y-107950000D03*
X148590000Y-110490000D03*
X148590000Y-113030000D03*
X148590000Y-115570000D03*
X148590000Y-118110000D03*
X148590000Y-120650000D03*
X148590000Y-123190000D03*
X148590000Y-125730000D03*
X148590000Y-128270000D03*
X148590000Y-130810000D03*
X148590000Y-133350000D03*
X148590000Y-135890000D03*
X148590000Y-138430000D03*
X148590000Y-140970000D03*
X163830000Y-140970000D03*
X163830000Y-138430000D03*
X163830000Y-135890000D03*
X163830000Y-133350000D03*
X163830000Y-130810000D03*
X163830000Y-128270000D03*
X163830000Y-125730000D03*
X163830000Y-123190000D03*
X163830000Y-120650000D03*
X163830000Y-118110000D03*
X163830000Y-115570000D03*
X163830000Y-113030000D03*
X163830000Y-110490000D03*
X163830000Y-107950000D03*
X163830000Y-105410000D03*
X163830000Y-102870000D03*
X163830000Y-100330000D03*
X163830000Y-97790000D03*
X163830000Y-95250000D03*
X163830000Y-92710000D03*
X120650000Y-153670000D03*
X120650000Y-156210000D03*
X120650000Y-158750000D03*
X120650000Y-161290000D03*
X120650000Y-163830000D03*
X120650000Y-166370000D03*
X120650000Y-168910000D03*
X120650000Y-171450000D03*
X120650000Y-173990000D03*
X120650000Y-176530000D03*
X120650000Y-179070000D03*
X120650000Y-181610000D03*
X120650000Y-184150000D03*
X120650000Y-186690000D03*
X135890000Y-186690000D03*
X135890000Y-184150000D03*
X135890000Y-181610000D03*
X135890000Y-179070000D03*
X135890000Y-176530000D03*
X135890000Y-173990000D03*
X135890000Y-171450000D03*
X135890000Y-168910000D03*
X135890000Y-166370000D03*
X135890000Y-163830000D03*
X135890000Y-161290000D03*
X135890000Y-158750000D03*
X135890000Y-156210000D03*
X135890000Y-153670000D03*
X189087674Y-215891661D03*
X181467674Y-215891661D03*
D48*
X375920000Y-161290000D03*
X375920000Y-176530000D03*
D18*
X381000000Y-124460000D03*
X381000000Y-114300000D03*
D22*
X162560000Y-154305000D03*
X165100000Y-154305000D03*
X356235000Y-212725000D03*
X363855000Y-212725000D03*
D49*
X21620877Y-83081015D03*
X21620877Y-87043415D03*
X21620877Y-91005815D03*
X21620877Y-94968215D03*
X21620877Y-98930615D03*
X21620877Y-102893015D03*
X21620877Y-106855415D03*
X21620877Y-110817815D03*
X21620877Y-114780215D03*
X21620877Y-118742615D03*
X21620877Y-122705015D03*
X21620877Y-126667415D03*
D50*
X36379712Y-92710000D03*
X36379712Y-95250000D03*
X36379712Y-97790000D03*
X36379712Y-100330000D03*
X36379712Y-102870000D03*
X36379712Y-105410000D03*
X36379712Y-107950000D03*
X36379712Y-110490000D03*
X36379712Y-113030000D03*
X36379712Y-115570000D03*
X36379712Y-118110000D03*
X36379712Y-120650000D03*
X38919712Y-92710000D03*
X38919712Y-95250000D03*
X38919712Y-97790000D03*
X38919712Y-100330000D03*
X38919712Y-102870000D03*
X38919712Y-105410000D03*
X38919712Y-107950000D03*
X38919712Y-110490000D03*
X38919712Y-113030000D03*
X38919712Y-115570000D03*
X38919712Y-118110000D03*
X38919712Y-120650000D03*
D26*
X126792567Y-81280000D03*
X126792567Y-78740000D03*
D20*
X39676119Y-151477386D03*
D34*
X39676119Y-154017386D03*
D18*
X131650040Y-215957653D03*
X134190040Y-215957653D03*
X136730040Y-215957653D03*
X139270040Y-215957653D03*
X141810040Y-215957653D03*
X144350040Y-215957653D03*
X146890040Y-215957653D03*
X146890040Y-208337653D03*
X144350040Y-208337653D03*
X141810040Y-208337653D03*
X139270040Y-208337653D03*
X136730040Y-208337653D03*
X134190040Y-208337653D03*
X131650040Y-208337653D03*
D51*
X266873516Y-47211919D03*
D52*
X262323516Y-50511919D03*
X271923516Y-55011919D03*
D51*
X262873516Y-58211919D03*
D52*
X269523516Y-53611919D03*
D28*
X122760040Y-204527653D03*
X125300040Y-204527653D03*
X127840040Y-204527653D03*
D53*
X209816700Y-54678542D03*
X211823300Y-54678542D03*
X207327500Y-54678542D03*
D54*
X217385900Y-51960742D03*
X204254100Y-51960742D03*
D53*
X214312500Y-54678542D03*
D22*
X215900000Y-100330000D03*
X210820000Y-100330000D03*
X233680000Y-160020000D03*
X236220000Y-160020000D03*
D28*
X299369137Y-70796151D03*
X301909137Y-70796151D03*
D19*
X191068470Y-165100000D03*
X191068470Y-167640000D03*
D13*
X176336657Y-206968749D03*
X168716657Y-206968749D03*
D26*
X196850000Y-161290000D03*
X196850000Y-153670000D03*
D27*
X377825000Y-208915000D03*
X370205000Y-208915000D03*
D13*
X172126052Y-121920000D03*
X172126052Y-124460000D03*
X172126052Y-127000000D03*
X172126052Y-129540000D03*
X172126052Y-132080000D03*
X172126052Y-134620000D03*
X172126052Y-137160000D03*
X172126052Y-139700000D03*
X179746052Y-139700000D03*
X179746052Y-137160000D03*
X179746052Y-134620000D03*
X179746052Y-132080000D03*
X179746052Y-129540000D03*
X179746052Y-127000000D03*
X179746052Y-124460000D03*
X179746052Y-121920000D03*
D55*
X391049263Y-67105354D03*
D56*
X394149263Y-62305354D03*
D55*
X397149263Y-67105354D03*
D37*
X184851570Y-167640000D03*
D39*
X186883570Y-167640000D03*
D26*
X154967047Y-195826416D03*
X154967047Y-193286416D03*
D37*
X297699125Y-65633338D03*
D39*
X299731125Y-65633338D03*
D28*
X137795000Y-67310000D03*
X135255000Y-67310000D03*
X132715000Y-67310000D03*
X130175000Y-67310000D03*
X127635000Y-67310000D03*
X125095000Y-67310000D03*
D22*
X215900000Y-102870000D03*
X210820000Y-102870000D03*
X99834428Y-148108142D03*
X102374428Y-148108142D03*
X306266591Y-63525562D03*
X311346591Y-63525562D03*
D13*
X201930776Y-121920000D03*
X201930776Y-124460000D03*
X201930776Y-127000000D03*
X201930776Y-129540000D03*
X201930776Y-132080000D03*
X201930776Y-134620000D03*
X201930776Y-137160000D03*
X209550776Y-137160000D03*
X209550776Y-134620000D03*
X209550776Y-132080000D03*
X209550776Y-129540000D03*
X209550776Y-127000000D03*
X209550776Y-124460000D03*
X209550776Y-121920000D03*
D33*
X260447962Y-145887013D03*
D28*
X133350000Y-88295398D03*
X135890000Y-88295398D03*
X138430000Y-88295398D03*
D14*
X104800000Y-62000000D03*
D19*
X381000000Y-51435000D03*
X381000000Y-53975000D03*
D37*
X226060000Y-141224000D03*
D38*
X226060000Y-143256000D03*
D19*
X85930040Y-210877653D03*
X85930040Y-213417653D03*
D22*
X375920000Y-149860000D03*
X378460000Y-149860000D03*
D20*
X39526127Y-186429533D03*
D34*
X39526127Y-188969533D03*
D27*
X217170000Y-107950000D03*
X209550000Y-107950000D03*
D22*
X231140000Y-69215000D03*
X233680000Y-69215000D03*
D26*
X69850000Y-81280000D03*
X69850000Y-78740000D03*
D13*
X176336657Y-209987543D03*
X168716657Y-209987543D03*
D19*
X229119691Y-166255804D03*
X229119691Y-173875804D03*
D18*
X86995000Y-201930000D03*
X89535000Y-201930000D03*
X92075000Y-201930000D03*
X94615000Y-201930000D03*
X97155000Y-201930000D03*
X99695000Y-201930000D03*
X102235000Y-201930000D03*
X104775000Y-201930000D03*
X104775000Y-194310000D03*
X102235000Y-194310000D03*
X99695000Y-194310000D03*
X97155000Y-194310000D03*
X94615000Y-194310000D03*
X92075000Y-194310000D03*
X89535000Y-194310000D03*
X86995000Y-194310000D03*
D22*
X48322187Y-172085000D03*
X50862187Y-172085000D03*
D19*
X224715629Y-177718680D03*
X224715629Y-185338680D03*
D28*
X255270000Y-182880000D03*
X257810000Y-182880000D03*
X260350000Y-182880000D03*
X262890000Y-182880000D03*
D22*
X251460000Y-76452106D03*
X254000000Y-76452106D03*
D57*
X160005000Y-158745000D03*
D58*
X160005000Y-161285000D03*
X160005000Y-163825000D03*
X160005000Y-166365000D03*
X160005000Y-168905000D03*
X160005000Y-171445000D03*
X160005000Y-173985000D03*
X167625000Y-173985000D03*
X167625000Y-171445000D03*
X167625000Y-168905000D03*
X167625000Y-166365000D03*
X167625000Y-163825000D03*
X167625000Y-161285000D03*
X167625000Y-158745000D03*
D26*
X193040000Y-161290000D03*
X193040000Y-153670000D03*
D23*
X256441981Y-58723188D03*
X231448381Y-58723188D03*
D59*
X239627181Y-61263188D03*
X241913181Y-61263188D03*
X244199181Y-61263188D03*
X246485181Y-61263188D03*
X248771181Y-61263188D03*
X238484181Y-58723188D03*
X240770181Y-58723188D03*
X243056181Y-58723188D03*
X245342181Y-58723188D03*
X247628181Y-58723188D03*
X239627181Y-56183188D03*
X241913181Y-56183188D03*
X244199181Y-56183188D03*
X246485181Y-56183188D03*
X248771181Y-56183188D03*
D27*
X159337349Y-215957653D03*
X151717349Y-215957653D03*
D26*
X148590000Y-66675000D03*
X148590000Y-56515000D03*
D22*
X306169940Y-60819321D03*
X311249940Y-60819321D03*
D15*
X58468800Y-156845000D03*
X58468800Y-159385000D03*
X58468800Y-161925000D03*
X58468800Y-164465000D03*
X58468800Y-167005000D03*
D13*
X238760000Y-72390000D03*
X246380000Y-72390000D03*
D22*
X231140000Y-72390000D03*
X233680000Y-72390000D03*
D14*
X397800000Y-50150000D03*
D27*
X177165000Y-118110000D03*
X174625000Y-118110000D03*
D26*
X152045294Y-195918819D03*
X152045294Y-193378819D03*
D22*
X231140000Y-66040000D03*
X233680000Y-66040000D03*
D18*
X106045000Y-77470000D03*
X108585000Y-77470000D03*
X111125000Y-77470000D03*
X113665000Y-77470000D03*
X116205000Y-77470000D03*
X118745000Y-77470000D03*
X121285000Y-77470000D03*
X121285000Y-69850000D03*
X118745000Y-69850000D03*
X116205000Y-69850000D03*
X113665000Y-69850000D03*
X111125000Y-69850000D03*
X108585000Y-69850000D03*
X106045000Y-69850000D03*
X74930000Y-70485000D03*
X77470000Y-70485000D03*
X80010000Y-70485000D03*
X82550000Y-70485000D03*
X85090000Y-70485000D03*
X87630000Y-70485000D03*
X90170000Y-70485000D03*
X92710000Y-70485000D03*
X95250000Y-70485000D03*
X161925000Y-189865000D03*
X164465000Y-189865000D03*
X167005000Y-189865000D03*
X169545000Y-189865000D03*
X172085000Y-189865000D03*
X174625000Y-189865000D03*
X177165000Y-189865000D03*
X177165000Y-182245000D03*
X174625000Y-182245000D03*
X172085000Y-182245000D03*
X169545000Y-182245000D03*
X167005000Y-182245000D03*
X164465000Y-182245000D03*
X161925000Y-182245000D03*
D14*
X21060000Y-172900000D03*
D22*
X151765000Y-64135000D03*
X154305000Y-64135000D03*
D42*
X83442950Y-48596750D03*
X79480550Y-48596750D03*
X75518150Y-48596750D03*
X71555750Y-48596750D03*
X67593350Y-48596750D03*
X63630950Y-48596750D03*
X59668550Y-48596750D03*
X55706150Y-48596750D03*
X51743750Y-48596750D03*
X47781350Y-48596750D03*
X43818950Y-48596750D03*
X39856550Y-48596750D03*
D13*
X200660000Y-52976986D03*
X200660000Y-55516986D03*
X200660000Y-58056986D03*
X200660000Y-60596986D03*
X200660000Y-63136986D03*
X220980000Y-63136986D03*
X220980000Y-60596986D03*
X220980000Y-58056986D03*
X220980000Y-55516986D03*
X220980000Y-52976986D03*
D15*
X285115000Y-140970000D03*
X285115000Y-138430000D03*
D19*
X83390040Y-196272653D03*
X83390040Y-198812653D03*
D28*
X99060000Y-59690000D03*
X96520000Y-59690000D03*
X93980000Y-59690000D03*
D18*
X178435000Y-83820000D03*
X180975000Y-83820000D03*
X183515000Y-83820000D03*
X186055000Y-83820000D03*
X188595000Y-83820000D03*
X191135000Y-83820000D03*
X193675000Y-83820000D03*
X196215000Y-83820000D03*
X198755000Y-83820000D03*
X201295000Y-83820000D03*
X201295000Y-76200000D03*
X198755000Y-76200000D03*
X196215000Y-76200000D03*
X193675000Y-76200000D03*
X191135000Y-76200000D03*
X188595000Y-76200000D03*
X186055000Y-76200000D03*
X183515000Y-76200000D03*
X180975000Y-76200000D03*
X178435000Y-76200000D03*
D14*
X401450000Y-161900000D03*
D16*
X154950000Y-70485000D03*
D17*
X152410000Y-70485000D03*
X149870000Y-70485000D03*
D22*
X115136394Y-193953942D03*
X113866394Y-192048942D03*
X112596394Y-193953942D03*
D28*
X173990000Y-168695027D03*
X176530000Y-168695027D03*
X179070000Y-168695027D03*
D22*
X251460000Y-68580000D03*
X254000000Y-68580000D03*
X147955000Y-154305000D03*
X150495000Y-154305000D03*
D20*
X363855000Y-200025000D03*
D40*
X366395000Y-200025000D03*
D20*
X39241931Y-172077641D03*
D34*
X39241931Y-174617641D03*
D15*
X32385000Y-67310000D03*
X32385000Y-64770000D03*
D26*
X34290000Y-81280000D03*
X34290000Y-78740000D03*
D18*
X154940000Y-83820000D03*
X157480000Y-83820000D03*
X160020000Y-83820000D03*
X162560000Y-83820000D03*
X165100000Y-83820000D03*
X167640000Y-83820000D03*
X170180000Y-83820000D03*
X170180000Y-76200000D03*
X167640000Y-76200000D03*
X165100000Y-76200000D03*
X162560000Y-76200000D03*
X160020000Y-76200000D03*
X157480000Y-76200000D03*
X154940000Y-76200000D03*
D35*
X196732500Y-180975000D03*
D36*
X199272500Y-180975000D03*
X196732500Y-183515000D03*
X199272500Y-183515000D03*
X196732500Y-186055000D03*
X199272500Y-186055000D03*
X196732500Y-188595000D03*
X199272500Y-188595000D03*
X196732500Y-191135000D03*
X199272500Y-191135000D03*
D26*
X370205000Y-180340000D03*
X370205000Y-177800000D03*
D13*
X85090000Y-113030000D03*
X85090000Y-115570000D03*
X85090000Y-118110000D03*
X85090000Y-120650000D03*
X85090000Y-123190000D03*
X85090000Y-125730000D03*
X85090000Y-128270000D03*
X85090000Y-130810000D03*
X85090000Y-133350000D03*
D22*
X134190040Y-199447653D03*
X141810040Y-199447653D03*
X363855000Y-205105000D03*
X366395000Y-205105000D03*
D20*
X372745000Y-200025000D03*
D40*
X375285000Y-200025000D03*
D19*
X115892572Y-153670000D03*
X115892572Y-156210000D03*
X205740000Y-152400000D03*
X205740000Y-160020000D03*
X87065852Y-153709803D03*
X87065852Y-156249803D03*
D22*
X306070000Y-208242904D03*
X308610000Y-208242904D03*
D27*
X50800000Y-146050000D03*
X48260000Y-146050000D03*
D13*
X274320000Y-202478100D03*
X274320000Y-205018100D03*
X274320000Y-207558100D03*
X274320000Y-210098100D03*
X281940000Y-210098100D03*
X281940000Y-207558100D03*
X281940000Y-205018100D03*
X281940000Y-202478100D03*
D18*
X194310000Y-172681617D03*
X196850000Y-172681617D03*
X199390000Y-172681617D03*
X201930000Y-172681617D03*
X204470000Y-172681617D03*
X207010000Y-172681617D03*
X209550000Y-172681617D03*
X209550000Y-165061617D03*
X207010000Y-165061617D03*
X204470000Y-165061617D03*
X201930000Y-165061617D03*
X199390000Y-165061617D03*
X196850000Y-165061617D03*
X194310000Y-165061617D03*
D33*
X260447962Y-141263429D03*
D18*
X60325000Y-67310000D03*
X57785000Y-67310000D03*
X55245000Y-67310000D03*
X52705000Y-67310000D03*
X50165000Y-67310000D03*
X47625000Y-67310000D03*
X45085000Y-67310000D03*
X42545000Y-67310000D03*
X40005000Y-67310000D03*
D13*
X144780000Y-158750000D03*
X144780000Y-161290000D03*
X144780000Y-163830000D03*
X144780000Y-166370000D03*
X144780000Y-168910000D03*
X144780000Y-171450000D03*
X144780000Y-173990000D03*
X144780000Y-176530000D03*
X152400000Y-176530000D03*
X152400000Y-173990000D03*
X152400000Y-171450000D03*
X152400000Y-168910000D03*
X152400000Y-166370000D03*
X152400000Y-163830000D03*
X152400000Y-161290000D03*
X152400000Y-158750000D03*
D37*
X292105800Y-65963577D03*
D39*
X294137800Y-65963577D03*
D27*
X198772723Y-91440000D03*
X196232723Y-91440000D03*
X274637500Y-77470000D03*
X272097500Y-77470000D03*
D37*
X147127443Y-203257653D03*
D39*
X149159443Y-203257653D03*
D27*
X66040000Y-168910000D03*
X63500000Y-168910000D03*
D28*
X132756883Y-194367653D03*
X135296883Y-194367653D03*
X137836883Y-194367653D03*
D60*
X177546000Y-67310000D03*
D61*
X160020000Y-64770000D03*
X160020000Y-67310000D03*
X160020000Y-69850000D03*
D41*
X225868801Y-83947000D03*
X225868801Y-88773000D03*
D26*
X151130000Y-81280000D03*
X151130000Y-78740000D03*
D13*
X238760000Y-76200000D03*
X246380000Y-76200000D03*
D37*
X184851570Y-161290000D03*
D39*
X186883570Y-161290000D03*
D13*
X187325000Y-121920000D03*
X187325000Y-124460000D03*
X187325000Y-127000000D03*
X187325000Y-129540000D03*
X187325000Y-132080000D03*
X187325000Y-134620000D03*
X187325000Y-137160000D03*
X187325000Y-139700000D03*
X194945000Y-139700000D03*
X194945000Y-137160000D03*
X194945000Y-134620000D03*
X194945000Y-132080000D03*
X194945000Y-129540000D03*
X194945000Y-127000000D03*
X194945000Y-124460000D03*
X194945000Y-121920000D03*
D20*
X39526127Y-179040440D03*
D34*
X39526127Y-181580440D03*
D20*
X366290418Y-67809376D03*
D21*
X366290418Y-65269376D03*
D19*
X158320040Y-200717653D03*
X158320040Y-203257653D03*
D22*
X262455754Y-190500000D03*
X263725754Y-188595000D03*
X264995754Y-190500000D03*
D62*
X184785000Y-67945000D03*
X184785000Y-65405000D03*
X187325000Y-67945000D03*
X187325000Y-65405000D03*
X189865000Y-67945000D03*
X189865000Y-65405000D03*
D63*
X287128755Y-44149401D03*
X282607555Y-44149401D03*
D30*
X288373355Y-46638601D03*
X281362955Y-46638601D03*
D64*
X391160000Y-189490000D03*
X391160000Y-209290000D03*
D65*
X276860000Y-161925000D03*
D66*
X274320000Y-164465000D03*
X276860000Y-164465000D03*
X274320000Y-167005000D03*
X276860000Y-167005000D03*
X274320000Y-169545000D03*
X276860000Y-172085000D03*
X276860000Y-169545000D03*
X279400000Y-172085000D03*
X279400000Y-169545000D03*
X281940000Y-172085000D03*
X281940000Y-169545000D03*
X284480000Y-172085000D03*
X284480000Y-169545000D03*
X287020000Y-172085000D03*
X287020000Y-169545000D03*
X289560000Y-172085000D03*
X292100000Y-169545000D03*
X289560000Y-169545000D03*
X292100000Y-167005000D03*
X289560000Y-167005000D03*
X292100000Y-164465000D03*
X289560000Y-164465000D03*
X292100000Y-161925000D03*
X289560000Y-161925000D03*
X292100000Y-159385000D03*
X289560000Y-159385000D03*
X292100000Y-156845000D03*
X289560000Y-154305000D03*
X289560000Y-156845000D03*
X287020000Y-154305000D03*
X287020000Y-156845000D03*
X284480000Y-154305000D03*
X284480000Y-156845000D03*
X281940000Y-154305000D03*
X281940000Y-156845000D03*
X279400000Y-154305000D03*
X279400000Y-156845000D03*
X276860000Y-154305000D03*
X274320000Y-156845000D03*
X276860000Y-156845000D03*
X274320000Y-159385000D03*
X276860000Y-159385000D03*
X274320000Y-161925000D03*
D18*
X89740040Y-215957653D03*
X92280040Y-215957653D03*
X94820040Y-215957653D03*
X97360040Y-215957653D03*
X99900040Y-215957653D03*
X102440040Y-215957653D03*
X104980040Y-215957653D03*
X104980040Y-208337653D03*
X102440040Y-208337653D03*
X99900040Y-208337653D03*
X97360040Y-208337653D03*
X94820040Y-208337653D03*
X92280040Y-208337653D03*
X89740040Y-208337653D03*
D15*
X75732991Y-199390000D03*
X75732991Y-201930000D03*
X75732991Y-204470000D03*
X75732991Y-207010000D03*
X75732991Y-209550000D03*
D19*
X65405000Y-154759532D03*
X65405000Y-149679532D03*
D67*
X73660000Y-58420000D03*
X71120000Y-58420000D03*
X68580000Y-58420000D03*
X66040000Y-58420000D03*
X63500000Y-58420000D03*
X60960000Y-58420000D03*
X58420000Y-58420000D03*
X55880000Y-58420000D03*
X53340000Y-58420000D03*
X50800000Y-58420000D03*
X48260000Y-58420000D03*
X45720000Y-58420000D03*
X73660000Y-60960000D03*
X71120000Y-60960000D03*
X68580000Y-60960000D03*
X66040000Y-60960000D03*
X63500000Y-60960000D03*
X60960000Y-60960000D03*
X58420000Y-60960000D03*
X55880000Y-60960000D03*
X53340000Y-60960000D03*
X50800000Y-60960000D03*
X48260000Y-60960000D03*
X45720000Y-60960000D03*
D18*
X383540000Y-124460000D03*
X383540000Y-114300000D03*
D15*
X77470000Y-163830000D03*
X77470000Y-158750000D03*
X77470000Y-156210000D03*
X77470000Y-153670000D03*
X77470000Y-151130000D03*
X77470000Y-148590000D03*
X77470000Y-146050000D03*
X77470000Y-143510000D03*
X77470000Y-140970000D03*
X77470000Y-138430000D03*
X77470000Y-135890000D03*
X77470000Y-133350000D03*
X77470000Y-130810000D03*
X77470000Y-128270000D03*
X77470000Y-125730000D03*
X77470000Y-123190000D03*
X77470000Y-120650000D03*
X77470000Y-118110000D03*
X77470000Y-115570000D03*
D26*
X228171073Y-185262992D03*
X228171073Y-177642992D03*
D46*
X188692310Y-49399820D03*
X173452310Y-49399820D03*
D68*
X173452310Y-54479820D03*
X175992310Y-57019820D03*
X181072310Y-54479820D03*
X186152310Y-57019820D03*
X188692310Y-54479820D03*
X181072310Y-59559820D03*
D69*
X183612310Y-44319820D03*
X178532310Y-44319820D03*
X186152310Y-44319820D03*
X175992310Y-44319820D03*
D15*
X225425000Y-137795000D03*
X225425000Y-135255000D03*
D13*
X238760000Y-80010000D03*
X246380000Y-80010000D03*
X70440160Y-92710000D03*
X70440160Y-95250000D03*
X70440160Y-97790000D03*
X70440160Y-100330000D03*
X70440160Y-102870000D03*
X70440160Y-105410000D03*
X70440160Y-107950000D03*
X70440160Y-110490000D03*
X78060160Y-110490000D03*
X78060160Y-107950000D03*
X78060160Y-105410000D03*
X78060160Y-102870000D03*
X78060160Y-100330000D03*
X78060160Y-97790000D03*
X78060160Y-95250000D03*
X78060160Y-92710000D03*
D22*
X251460000Y-72197301D03*
X254000000Y-72197301D03*
D37*
X219710000Y-141231120D03*
D38*
X219710000Y-143263120D03*
D31*
X266078429Y-71515729D03*
D32*
X268618429Y-71515729D03*
X271158429Y-71515729D03*
X273698429Y-71515729D03*
X273698429Y-63895729D03*
X271158429Y-63895729D03*
X268618429Y-63895729D03*
X266078429Y-63895729D03*
D14*
X215900000Y-213700000D03*
D22*
X356235000Y-208915000D03*
X363855000Y-208915000D03*
D13*
X188995036Y-209946061D03*
X181375036Y-209946061D03*
D27*
X377825000Y-205105000D03*
X370205000Y-205105000D03*
D22*
X53340000Y-88900000D03*
X55880000Y-88900000D03*
D18*
X73660000Y-83820000D03*
X76200000Y-83820000D03*
X78740000Y-83820000D03*
X81280000Y-83820000D03*
X83820000Y-83820000D03*
X86360000Y-83820000D03*
X88900000Y-83820000D03*
X91440000Y-83820000D03*
X93980000Y-83820000D03*
X96520000Y-83820000D03*
X96520000Y-76200000D03*
X93980000Y-76200000D03*
X91440000Y-76200000D03*
X88900000Y-76200000D03*
X86360000Y-76200000D03*
X83820000Y-76200000D03*
X81280000Y-76200000D03*
X78740000Y-76200000D03*
X76200000Y-76200000D03*
X73660000Y-76200000D03*
D19*
X201930000Y-142240000D03*
X201930000Y-149860000D03*
D13*
X45720000Y-176530000D03*
X45720000Y-179070000D03*
X45720000Y-181610000D03*
X45720000Y-184150000D03*
X45720000Y-186690000D03*
X45720000Y-189230000D03*
X45720000Y-191770000D03*
X45720000Y-194310000D03*
X53340000Y-194310000D03*
X53340000Y-191770000D03*
X53340000Y-189230000D03*
X53340000Y-186690000D03*
X53340000Y-184150000D03*
X53340000Y-181610000D03*
X53340000Y-179070000D03*
X53340000Y-176530000D03*
X46990000Y-92710000D03*
X46990000Y-95250000D03*
X46990000Y-97790000D03*
X46990000Y-100330000D03*
X46990000Y-102870000D03*
X46990000Y-105410000D03*
X46990000Y-107950000D03*
X46990000Y-110490000D03*
X46990000Y-113030000D03*
X46990000Y-115570000D03*
X46990000Y-118110000D03*
X46990000Y-120650000D03*
X46990000Y-123190000D03*
X46990000Y-125730000D03*
X46990000Y-128270000D03*
X46990000Y-130810000D03*
X46990000Y-133350000D03*
X46990000Y-135890000D03*
X46990000Y-138430000D03*
X46990000Y-140970000D03*
X62230000Y-140970000D03*
X62230000Y-138430000D03*
X62230000Y-135890000D03*
X62230000Y-133350000D03*
X62230000Y-130810000D03*
X62230000Y-128270000D03*
X62230000Y-125730000D03*
X62230000Y-123190000D03*
X62230000Y-120650000D03*
X62230000Y-118110000D03*
X62230000Y-115570000D03*
X62230000Y-113030000D03*
X62230000Y-110490000D03*
X62230000Y-107950000D03*
X62230000Y-105410000D03*
X62230000Y-102870000D03*
X62230000Y-100330000D03*
X62230000Y-97790000D03*
X62230000Y-95250000D03*
X62230000Y-92710000D03*
D41*
X382270000Y-134620000D03*
X382270000Y-149860000D03*
X389890000Y-149860000D03*
X389890000Y-134620000D03*
D19*
X213360000Y-142240000D03*
X213360000Y-149860000D03*
D13*
X188995036Y-212964856D03*
X181375036Y-212964856D03*
D70*
X367665000Y-138430000D03*
X370205000Y-138430000D03*
X367665000Y-140970000D03*
X370205000Y-140970000D03*
X367665000Y-143510000D03*
X370205000Y-143510000D03*
X367665000Y-146050000D03*
X370205000Y-146050000D03*
X367665000Y-148590000D03*
X370205000Y-148590000D03*
D35*
X184032500Y-176530000D03*
D36*
X186572500Y-176530000D03*
X184032500Y-179070000D03*
X186572500Y-179070000D03*
X184032500Y-181610000D03*
X186572500Y-181610000D03*
X184032500Y-184150000D03*
X186572500Y-184150000D03*
X184032500Y-186690000D03*
X186572500Y-186690000D03*
D37*
X196413885Y-147362169D03*
D38*
X196413885Y-149394169D03*
D37*
X190580617Y-147517645D03*
D38*
X190580617Y-149549645D03*
D26*
X142240000Y-66675000D03*
X142240000Y-56515000D03*
D71*
X228021143Y-191930759D03*
D72*
X225481143Y-197010759D03*
D20*
X39384029Y-158152042D03*
D34*
X39384029Y-160692042D03*
D37*
X219655810Y-147320000D03*
D38*
X219655810Y-149352000D03*
D22*
X121285000Y-88900000D03*
X123825000Y-88900000D03*
D73*
X247650000Y-129222500D03*
X250190000Y-129222500D03*
X252730000Y-129222500D03*
X255270000Y-129222500D03*
X257810000Y-129222500D03*
X260350000Y-129222500D03*
X247650000Y-126682500D03*
X250190000Y-126682500D03*
X252730000Y-126682500D03*
X255270000Y-126682500D03*
X257810000Y-126682500D03*
X260350000Y-126682500D03*
D28*
X173990000Y-162552814D03*
X176530000Y-162552814D03*
X179070000Y-162552814D03*
D46*
X277571200Y-85394800D03*
X367588800Y-85394800D03*
D74*
X283210000Y-87630000D03*
X285750000Y-87630000D03*
X288290000Y-87630000D03*
X290830000Y-87630000D03*
X293370000Y-87630000D03*
X295910000Y-87630000D03*
X298450000Y-87630000D03*
X300990000Y-87630000D03*
X303530000Y-87630000D03*
X306070000Y-87630000D03*
X308610000Y-87630000D03*
X311150000Y-87630000D03*
X313690000Y-87630000D03*
X316230000Y-87630000D03*
X318770000Y-87630000D03*
X321310000Y-87630000D03*
X323850000Y-87630000D03*
X326390000Y-87630000D03*
X328930000Y-87630000D03*
X331470000Y-87630000D03*
X334010000Y-87630000D03*
X336550000Y-87630000D03*
X339090000Y-87630000D03*
X341630000Y-87630000D03*
X344170000Y-87630000D03*
X346710000Y-87630000D03*
X349250000Y-87630000D03*
X351790000Y-87630000D03*
X354330000Y-87630000D03*
X356870000Y-87630000D03*
X359410000Y-87630000D03*
X361950000Y-87630000D03*
X283210000Y-82550000D03*
X285750000Y-82550000D03*
X288290000Y-82550000D03*
X290830000Y-82550000D03*
X293370000Y-82550000D03*
X295910000Y-82550000D03*
X298450000Y-82550000D03*
X300990000Y-82550000D03*
X303530000Y-82550000D03*
X306070000Y-82550000D03*
X308610000Y-82550000D03*
X311150000Y-82550000D03*
X313690000Y-82550000D03*
X316230000Y-82550000D03*
X318770000Y-82550000D03*
X321310000Y-82550000D03*
X323850000Y-82550000D03*
X326390000Y-82550000D03*
X328930000Y-82550000D03*
X331470000Y-82550000D03*
X334010000Y-82550000D03*
X336550000Y-82550000D03*
X339090000Y-82550000D03*
X341630000Y-82550000D03*
X344170000Y-82550000D03*
X346710000Y-82550000D03*
X349250000Y-82550000D03*
X351790000Y-82550000D03*
X354330000Y-82550000D03*
X356870000Y-82550000D03*
X359410000Y-82550000D03*
X361950000Y-82550000D03*
D13*
X77470000Y-172720000D03*
X77470000Y-175260000D03*
X77470000Y-177800000D03*
X77470000Y-180340000D03*
X77470000Y-182880000D03*
X77470000Y-185420000D03*
X77470000Y-187960000D03*
X77470000Y-190500000D03*
X85090000Y-190500000D03*
X85090000Y-187960000D03*
X85090000Y-185420000D03*
X85090000Y-182880000D03*
X85090000Y-180340000D03*
X85090000Y-177800000D03*
X85090000Y-175260000D03*
X85090000Y-172720000D03*
D28*
X141079782Y-154226012D03*
X143619782Y-154226012D03*
D22*
X375920000Y-153670000D03*
X378460000Y-153670000D03*
D13*
X115496256Y-92710000D03*
X115496256Y-95250000D03*
X115496256Y-97790000D03*
X115496256Y-100330000D03*
X115496256Y-102870000D03*
X115496256Y-105410000D03*
X115496256Y-107950000D03*
X115496256Y-110490000D03*
X115496256Y-113030000D03*
X115496256Y-115570000D03*
X115496256Y-118110000D03*
X115496256Y-120650000D03*
X115496256Y-123190000D03*
X115496256Y-125730000D03*
X115496256Y-128270000D03*
X115496256Y-130810000D03*
X115496256Y-133350000D03*
X115496256Y-135890000D03*
X115496256Y-138430000D03*
X115496256Y-140970000D03*
X130736256Y-140970000D03*
X130736256Y-138430000D03*
X130736256Y-135890000D03*
X130736256Y-133350000D03*
X130736256Y-130810000D03*
X130736256Y-128270000D03*
X130736256Y-125730000D03*
X130736256Y-123190000D03*
X130736256Y-120650000D03*
X130736256Y-118110000D03*
X130736256Y-115570000D03*
X130736256Y-113030000D03*
X130736256Y-110490000D03*
X130736256Y-107950000D03*
X130736256Y-105410000D03*
X130736256Y-102870000D03*
X130736256Y-100330000D03*
X130736256Y-97790000D03*
X130736256Y-95250000D03*
X130736256Y-92710000D03*
D26*
X158743834Y-185424342D03*
X158743834Y-182884342D03*
D75*
X327240000Y-170180000D03*
X325540000Y-170180000D03*
D76*
X330835000Y-169965000D03*
X330835000Y-171665000D03*
D75*
X322155019Y-170705385D03*
X320455019Y-170705385D03*
D77*
X326049176Y-161549509D03*
X326049176Y-159849509D03*
D76*
X327660000Y-175045000D03*
X327660000Y-176745000D03*
D77*
X330200000Y-161505000D03*
X330200000Y-159805000D03*
D75*
X337400000Y-165735000D03*
X335700000Y-165735000D03*
X322080235Y-166405296D03*
X320380235Y-166405296D03*
D76*
X330835000Y-175045000D03*
X330835000Y-176745000D03*
D78*
X335700000Y-170180000D03*
X337400000Y-170180000D03*
D76*
X323739383Y-175030186D03*
X323739383Y-176730186D03*
D78*
X330620000Y-166370000D03*
X332320000Y-166370000D03*
D77*
X334246268Y-161592868D03*
X334246268Y-159892868D03*
D75*
X322242487Y-163072750D03*
X320542487Y-163072750D03*
D77*
X327025000Y-166585000D03*
X327025000Y-164885000D03*
G36*
X374730799Y-43655664D02*
G01*
X374777292Y-43709320D01*
X374788678Y-43761662D01*
X374788678Y-50367662D01*
X374768676Y-50435783D01*
X374715020Y-50482276D01*
X374662678Y-50493662D01*
X371358678Y-50493662D01*
X371290557Y-50473660D01*
X371244064Y-50420004D01*
X371232678Y-50367662D01*
X371232678Y-43761662D01*
X371252680Y-43693541D01*
X371306336Y-43647048D01*
X371358678Y-43635662D01*
X374662678Y-43635662D01*
X374730799Y-43655664D01*
G37*
M02*
