%TF.GenerationSoftware,KiCad,Pcbnew,8.0.6*%
%TF.CreationDate,2024-12-01T20:13:50+01:00*%
%TF.ProjectId,reverseExpansionPort,72657665-7273-4654-9578-70616e73696f,rev?*%
%TF.SameCoordinates,Original*%
%TF.FileFunction,Copper,L1,Top*%
%TF.FilePolarity,Positive*%
%FSLAX46Y46*%
G04 Gerber Fmt 4.6, Leading zero omitted, Abs format (unit mm)*
G04 Created by KiCad (PCBNEW 8.0.6) date 2024-12-01 20:13:50*
%MOMM*%
%LPD*%
G01*
G04 APERTURE LIST*
G04 Aperture macros list*
%AMOutline5P*
0 Free polygon, 5 corners , with rotation*
0 The origin of the aperture is its center*
0 number of corners: always 5*
0 $1 to $10 corner X, Y*
0 $11 Rotation angle, in degrees counterclockwise*
0 create outline with 5 corners*
4,1,5,$1,$2,$3,$4,$5,$6,$7,$8,$9,$10,$1,$2,$11*%
%AMOutline6P*
0 Free polygon, 6 corners , with rotation*
0 The origin of the aperture is its center*
0 number of corners: always 6*
0 $1 to $12 corner X, Y*
0 $13 Rotation angle, in degrees counterclockwise*
0 create outline with 6 corners*
4,1,6,$1,$2,$3,$4,$5,$6,$7,$8,$9,$10,$11,$12,$1,$2,$13*%
%AMOutline7P*
0 Free polygon, 7 corners , with rotation*
0 The origin of the aperture is its center*
0 number of corners: always 7*
0 $1 to $14 corner X, Y*
0 $15 Rotation angle, in degrees counterclockwise*
0 create outline with 7 corners*
4,1,7,$1,$2,$3,$4,$5,$6,$7,$8,$9,$10,$11,$12,$13,$14,$1,$2,$15*%
%AMOutline8P*
0 Free polygon, 8 corners , with rotation*
0 The origin of the aperture is its center*
0 number of corners: always 8*
0 $1 to $16 corner X, Y*
0 $17 Rotation angle, in degrees counterclockwise*
0 create outline with 8 corners*
4,1,8,$1,$2,$3,$4,$5,$6,$7,$8,$9,$10,$11,$12,$13,$14,$15,$16,$1,$2,$17*%
G04 Aperture macros list end*
%TA.AperFunction,ComponentPad*%
%ADD10Outline8P,-0.762000X0.315631X-0.315631X0.762000X0.315631X0.762000X0.762000X0.315631X0.762000X-0.315631X0.315631X-0.762000X-0.315631X-0.762000X-0.762000X-0.315631X180.000000*%
%TD*%
%TA.AperFunction,ComponentPad*%
%ADD11Outline8P,-0.762000X0.315631X-0.315631X0.762000X0.315631X0.762000X0.762000X0.315631X0.762000X-0.315631X0.315631X-0.762000X-0.315631X-0.762000X-0.762000X-0.315631X0.000000*%
%TD*%
%TA.AperFunction,ViaPad*%
%ADD12C,0.600000*%
%TD*%
%TA.AperFunction,Conductor*%
%ADD13C,0.200000*%
%TD*%
%TA.AperFunction,Conductor*%
%ADD14C,0.700000*%
%TD*%
G04 APERTURE END LIST*
D10*
%TO.P,P2,A1,GND*%
%TO.N,Net-(P1-GND)*%
X132207000Y-111760000D03*
%TO.P,P2,A2,/MEMSEL*%
%TO.N,Net-(P1-{slash}MEMSEL)*%
X132207000Y-109220000D03*
%TO.P,P2,A3,/IOSEL*%
%TO.N,Net-(P1-{slash}IOSEL)*%
X132207000Y-106680000D03*
%TO.P,P2,A4,/BE*%
%TO.N,Net-(P1-{slash}BE)*%
X132207000Y-104140000D03*
%TO.P,P2,A5,D7*%
%TO.N,/D7*%
X132207000Y-101600000D03*
%TO.P,P2,A6,D6*%
%TO.N,/D6*%
X132207000Y-99060000D03*
%TO.P,P2,A7,D5*%
%TO.N,/D5*%
X132207000Y-96520000D03*
%TO.P,P2,A8,D4*%
%TO.N,/D4*%
X132207000Y-93980000D03*
%TO.P,P2,A9,D3*%
%TO.N,/D3*%
X132207000Y-91440000D03*
%TO.P,P2,A10,D2*%
%TO.N,/D2*%
X132207000Y-88900000D03*
%TO.P,P2,A11,D1*%
%TO.N,/D1*%
X132207000Y-86360000D03*
%TO.P,P2,A12,D0*%
%TO.N,/D0*%
X132207000Y-83820000D03*
%TO.P,P2,A13,/NMI*%
%TO.N,Net-(P1-{slash}NMI)*%
X132207000Y-81280000D03*
%TO.P,P2,A14,/IRQ*%
%TO.N,Net-(P1-{slash}IRQ)*%
X132207000Y-78740000D03*
%TO.P,P2,A15,/RES*%
%TO.N,Net-(P1-{slash}RES)*%
X132207000Y-76200000D03*
%TO.P,P2,A16,GND2*%
%TO.N,Net-(P1-GND)*%
X132207000Y-73660000D03*
%TO.P,P2,B1,A19*%
%TO.N,/A19*%
X134747000Y-111760000D03*
%TO.P,P2,B2,A17*%
%TO.N,/A17*%
X134747000Y-109220000D03*
%TO.P,P2,B3,A15*%
%TO.N,/A15*%
X134747000Y-106680000D03*
%TO.P,P2,B4,A13*%
%TO.N,/A13*%
X134747000Y-104140000D03*
%TO.P,P2,B5,A11*%
%TO.N,/A11*%
X134747000Y-101600000D03*
%TO.P,P2,B6,A9*%
%TO.N,/A9*%
X134747000Y-99060000D03*
%TO.P,P2,B7,A7*%
%TO.N,/A7*%
X134747000Y-96520000D03*
%TO.P,P2,B8,A5*%
%TO.N,/A5*%
X134747000Y-93980000D03*
%TO.P,P2,B9,A3*%
%TO.N,/A3*%
X134747000Y-91440000D03*
%TO.P,P2,B10,A1*%
%TO.N,/A1*%
X134747000Y-88900000D03*
%TO.P,P2,B11,SYNC*%
%TO.N,Net-(P1-SYNC)*%
X134747000Y-86360000D03*
%TO.P,P2,B12,R/-W*%
%TO.N,Net-(P1-R{slash}-W)*%
X134747000Y-83820000D03*
%TO.P,P2,B13,RDY*%
%TO.N,Net-(P1-RDY)*%
X134747000Y-81280000D03*
%TO.P,P2,B14,VCC33*%
%TO.N,Net-(P1-VCC33)*%
X134747000Y-78740000D03*
%TO.P,P2,B15,VBUF*%
%TO.N,Net-(P1-VBUF)*%
X134747000Y-76200000D03*
%TO.P,P2,B16,8PHI2*%
%TO.N,Net-(P1-8PHI2)*%
X134747000Y-73660000D03*
%TO.P,P2,C1,VCC*%
%TO.N,Net-(P1-VCC)*%
X137287000Y-111760000D03*
%TO.P,P2,C2,A18*%
%TO.N,/A18*%
X137287000Y-109220000D03*
%TO.P,P2,C3,A16*%
%TO.N,/A16*%
X137287000Y-106680000D03*
%TO.P,P2,C4,A14*%
%TO.N,/A14*%
X137287000Y-104140000D03*
%TO.P,P2,C5,A12*%
%TO.N,/A12*%
X137287000Y-101600000D03*
%TO.P,P2,C6,A10*%
%TO.N,/A10*%
X137287000Y-99060000D03*
%TO.P,P2,C7,A8*%
%TO.N,/A8*%
X137287000Y-96520000D03*
%TO.P,P2,C8,A6*%
%TO.N,/A6*%
X137287000Y-93980000D03*
%TO.P,P2,C9,A4*%
%TO.N,/A4*%
X137287000Y-91440000D03*
%TO.P,P2,C10,A2*%
%TO.N,/A2*%
X137287000Y-88900000D03*
%TO.P,P2,C11,A0*%
%TO.N,/A0*%
X137287000Y-86360000D03*
%TO.P,P2,C12,PHI2*%
%TO.N,Net-(P1-PHI2)*%
X137287000Y-83820000D03*
%TO.P,P2,C13,PHI1*%
%TO.N,Net-(P1-PHI1)*%
X137287000Y-81280000D03*
%TO.P,P2,C14,PHI0*%
%TO.N,Net-(P1-PHI0)*%
X137287000Y-78740000D03*
%TO.P,P2,C15,2PHI2*%
%TO.N,Net-(P1-2PHI2)*%
X137287000Y-76200000D03*
%TO.P,P2,C16,VCC2*%
%TO.N,Net-(P1-VCC)*%
X137287000Y-73660000D03*
%TD*%
D11*
%TO.P,P1,A1,GND*%
%TO.N,Net-(P1-GND)*%
X165100000Y-73660000D03*
%TO.P,P1,A2,/MEMSEL*%
%TO.N,Net-(P1-{slash}MEMSEL)*%
X165100000Y-76200000D03*
%TO.P,P1,A3,/IOSEL*%
%TO.N,Net-(P1-{slash}IOSEL)*%
X165100000Y-78740000D03*
%TO.P,P1,A4,/BE*%
%TO.N,Net-(P1-{slash}BE)*%
X165100000Y-81280000D03*
%TO.P,P1,A5,D7*%
%TO.N,/D7*%
X165100000Y-83820000D03*
%TO.P,P1,A6,D6*%
%TO.N,/D6*%
X165100000Y-86360000D03*
%TO.P,P1,A7,D5*%
%TO.N,/D5*%
X165100000Y-88900000D03*
%TO.P,P1,A8,D4*%
%TO.N,/D4*%
X165100000Y-91440000D03*
%TO.P,P1,A9,D3*%
%TO.N,/D3*%
X165100000Y-93980000D03*
%TO.P,P1,A10,D2*%
%TO.N,/D2*%
X165100000Y-96520000D03*
%TO.P,P1,A11,D1*%
%TO.N,/D1*%
X165100000Y-99060000D03*
%TO.P,P1,A12,D0*%
%TO.N,/D0*%
X165100000Y-101600000D03*
%TO.P,P1,A13,/NMI*%
%TO.N,Net-(P1-{slash}NMI)*%
X165100000Y-104140000D03*
%TO.P,P1,A14,/IRQ*%
%TO.N,Net-(P1-{slash}IRQ)*%
X165100000Y-106680000D03*
%TO.P,P1,A15,/RES*%
%TO.N,Net-(P1-{slash}RES)*%
X165100000Y-109220000D03*
%TO.P,P1,A16,GND2*%
%TO.N,Net-(P1-GND)*%
X165100000Y-111760000D03*
%TO.P,P1,B1,A19*%
%TO.N,/A19*%
X162560000Y-73660000D03*
%TO.P,P1,B2,A17*%
%TO.N,/A17*%
X162560000Y-76200000D03*
%TO.P,P1,B3,A15*%
%TO.N,/A15*%
X162560000Y-78740000D03*
%TO.P,P1,B4,A13*%
%TO.N,/A13*%
X162560000Y-81280000D03*
%TO.P,P1,B5,A11*%
%TO.N,/A11*%
X162560000Y-83820000D03*
%TO.P,P1,B6,A9*%
%TO.N,/A9*%
X162560000Y-86360000D03*
%TO.P,P1,B7,A7*%
%TO.N,/A7*%
X162560000Y-88900000D03*
%TO.P,P1,B8,A5*%
%TO.N,/A5*%
X162560000Y-91440000D03*
%TO.P,P1,B9,A3*%
%TO.N,/A3*%
X162560000Y-93980000D03*
%TO.P,P1,B10,A1*%
%TO.N,/A1*%
X162560000Y-96520000D03*
%TO.P,P1,B11,SYNC*%
%TO.N,Net-(P1-SYNC)*%
X162560000Y-99060000D03*
%TO.P,P1,B12,R/-W*%
%TO.N,Net-(P1-R{slash}-W)*%
X162560000Y-101600000D03*
%TO.P,P1,B13,RDY*%
%TO.N,Net-(P1-RDY)*%
X162560000Y-104140000D03*
%TO.P,P1,B14,VCC33*%
%TO.N,Net-(P1-VCC33)*%
X162560000Y-106680000D03*
%TO.P,P1,B15,VBUF*%
%TO.N,Net-(P1-VBUF)*%
X162560000Y-109220000D03*
%TO.P,P1,B16,8PHI2*%
%TO.N,Net-(P1-8PHI2)*%
X162560000Y-111760000D03*
%TO.P,P1,C1,VCC*%
%TO.N,Net-(P1-VCC)*%
X160020000Y-73660000D03*
%TO.P,P1,C2,A18*%
%TO.N,/A18*%
X160020000Y-76200000D03*
%TO.P,P1,C3,A16*%
%TO.N,/A16*%
X160020000Y-78740000D03*
%TO.P,P1,C4,A14*%
%TO.N,/A14*%
X160020000Y-81280000D03*
%TO.P,P1,C5,A12*%
%TO.N,/A12*%
X160020000Y-83820000D03*
%TO.P,P1,C6,A10*%
%TO.N,/A10*%
X160020000Y-86360000D03*
%TO.P,P1,C7,A8*%
%TO.N,/A8*%
X160020000Y-88900000D03*
%TO.P,P1,C8,A6*%
%TO.N,/A6*%
X160020000Y-91440000D03*
%TO.P,P1,C9,A4*%
%TO.N,/A4*%
X160020000Y-93980000D03*
%TO.P,P1,C10,A2*%
%TO.N,/A2*%
X160020000Y-96520000D03*
%TO.P,P1,C11,A0*%
%TO.N,/A0*%
X160020000Y-99060000D03*
%TO.P,P1,C12,PHI2*%
%TO.N,Net-(P1-PHI2)*%
X160020000Y-101600000D03*
%TO.P,P1,C13,PHI1*%
%TO.N,Net-(P1-PHI1)*%
X160020000Y-104140000D03*
%TO.P,P1,C14,PHI0*%
%TO.N,Net-(P1-PHI0)*%
X160020000Y-106680000D03*
%TO.P,P1,C15,2PHI2*%
%TO.N,Net-(P1-2PHI2)*%
X160020000Y-109220000D03*
%TO.P,P1,C16,VCC2*%
%TO.N,Net-(P1-VCC)*%
X160020000Y-111760000D03*
%TD*%
D12*
%TO.N,/A13*%
X142113000Y-80645000D03*
X142087600Y-104876600D03*
%TO.N,/A10*%
X140891863Y-99567791D03*
X140647502Y-86782493D03*
%TO.N,/A9*%
X139997502Y-86155000D03*
X139899000Y-99697621D03*
%TO.N,/A17*%
X143654616Y-110048000D03*
X143368000Y-75341000D03*
%TO.N,/A7*%
X156972000Y-88011000D03*
X156845000Y-97025000D03*
%TO.N,/A3*%
X156083000Y-94615000D03*
X156449000Y-90400003D03*
%TO.N,/A1*%
X155007092Y-97633658D03*
X155179035Y-88020054D03*
%TO.N,/A11*%
X141097000Y-102235000D03*
X140825750Y-83358000D03*
%TO.N,/A12*%
X141605000Y-101600000D03*
X141760947Y-84440000D03*
%TO.N,/A2*%
X155062845Y-96375779D03*
X155156425Y-88869756D03*
%TO.N,/A18*%
X145161000Y-109220000D03*
X144842320Y-75812000D03*
%TO.N,/A15*%
X142586911Y-77391000D03*
X142769948Y-107442000D03*
%TO.N,/A4*%
X156011000Y-91170446D03*
X156017679Y-93787041D03*
%TO.N,/A0*%
X153625124Y-87155971D03*
X153592228Y-98984893D03*
%TO.N,/A8*%
X139899000Y-96393000D03*
X139989000Y-89469756D03*
%TO.N,/A14*%
X141859000Y-81915000D03*
X141809000Y-104013000D03*
%TO.N,/A16*%
X144018000Y-106680000D03*
X144068000Y-79065401D03*
%TO.N,/A19*%
X147447000Y-72263000D03*
X147432535Y-112622339D03*
%TO.N,Net-(P1-2PHI2)*%
X148914286Y-75926435D03*
X148844000Y-109220000D03*
%TO.N,Net-(P1-PHI1)*%
X149789173Y-81496438D03*
X149699207Y-104374095D03*
%TO.N,Net-(P1-{slash}NMI)*%
X150401260Y-79819500D03*
X150863743Y-105802000D03*
%TO.N,Net-(P1-VBUF)*%
X145831000Y-110236000D03*
X145761538Y-75412000D03*
%TO.N,Net-(P1-8PHI2)*%
X146431000Y-72263000D03*
X146742729Y-113119000D03*
%TO.N,/D6*%
X139954000Y-84455000D03*
X139685712Y-100532983D03*
%TO.N,Net-(P1-RDY)*%
X149699936Y-80230667D03*
X150165872Y-105104128D03*
%TO.N,/D2*%
X155614721Y-98228040D03*
X155348805Y-87201844D03*
%TO.N,Net-(P1-{slash}BE)*%
X151257000Y-103505000D03*
X151237899Y-79698253D03*
%TO.N,Net-(P1-SYNC)*%
X154426030Y-85434790D03*
X153884028Y-99815910D03*
%TO.N,Net-(P1-{slash}RES)*%
X147872028Y-74564529D03*
X148047000Y-110882000D03*
%TO.N,/D1*%
X154037598Y-84724000D03*
X154072289Y-100832302D03*
%TO.N,Net-(P1-VCC33)*%
X149988331Y-78090196D03*
X149479000Y-107696000D03*
%TO.N,/D0*%
X152177860Y-103201208D03*
X151876949Y-81365370D03*
%TO.N,/D5*%
X156627504Y-87176756D03*
X157099000Y-98828040D03*
%TO.N,Net-(P1-PHI0)*%
X149479000Y-106680000D03*
X148463000Y-79121000D03*
%TO.N,Net-(P1-{slash}MEMSEL)*%
X143935539Y-73788623D03*
X144907000Y-110744000D03*
%TO.N,Net-(P1-R{slash}-W)*%
X152009052Y-102368137D03*
X151914596Y-82214538D03*
%TO.N,/D3*%
X156845000Y-89550000D03*
X156811000Y-95692000D03*
%TO.N,/D7*%
X152638319Y-82674948D03*
X152731604Y-100497545D03*
%TO.N,Net-(P1-{slash}IRQ)*%
X149479000Y-108496003D03*
X149720673Y-76364158D03*
%TO.N,Net-(P1-PHI2)*%
X151947571Y-101510378D03*
X151905710Y-83780818D03*
%TO.N,Net-(P1-{slash}IOSEL)*%
X143383000Y-108458000D03*
X143383000Y-77470000D03*
%TD*%
D13*
%TO.N,/A13*%
X141762200Y-105202000D02*
X135809000Y-105202000D01*
X161498000Y-80218000D02*
X151714239Y-80218000D01*
X142087600Y-104876600D02*
X141762200Y-105202000D01*
X151714239Y-80218000D02*
X151616869Y-80315370D01*
X162560000Y-81280000D02*
X161498000Y-80218000D01*
X151442024Y-80315370D02*
X150910956Y-80846438D01*
X148965185Y-81026000D02*
X142494000Y-81026000D01*
X149144747Y-80846438D02*
X148965185Y-81026000D01*
X135809000Y-105202000D02*
X134747000Y-104140000D01*
X150910956Y-80846438D02*
X149144747Y-80846438D01*
X142494000Y-81026000D02*
X142113000Y-80645000D01*
X151616869Y-80315370D02*
X151442024Y-80315370D01*
%TO.N,/A10*%
X143442258Y-86531485D02*
X143191250Y-86782493D01*
X160020000Y-86360000D02*
X159848515Y-86531485D01*
X140384072Y-99060000D02*
X140891863Y-99567791D01*
X159848515Y-86531485D02*
X143442258Y-86531485D01*
X137287000Y-99060000D02*
X140384072Y-99060000D01*
X143191250Y-86782493D02*
X140647502Y-86782493D01*
%TO.N,/A9*%
X139540140Y-99697621D02*
X139899000Y-99697621D01*
X161498000Y-85298000D02*
X159431000Y-85298000D01*
X141074248Y-86290000D02*
X140916741Y-86132493D01*
X162560000Y-86360000D02*
X161498000Y-85298000D01*
X143302057Y-86106000D02*
X143118058Y-86290000D01*
X135809000Y-100122000D02*
X139115761Y-100122000D01*
X143118058Y-86290000D02*
X141074248Y-86290000D01*
X159431000Y-85298000D02*
X158623000Y-86106000D01*
X140378263Y-86132493D02*
X140355756Y-86155000D01*
X158623000Y-86106000D02*
X143302057Y-86106000D01*
X134747000Y-99060000D02*
X135809000Y-100122000D01*
X140916741Y-86132493D02*
X140378263Y-86132493D01*
X140355756Y-86155000D02*
X139997502Y-86155000D01*
X139115761Y-100122000D02*
X139540140Y-99697621D01*
%TO.N,/A17*%
X161498000Y-75138000D02*
X149610776Y-75138000D01*
X148014676Y-75341120D02*
X146609897Y-75341120D01*
X149610776Y-75138000D02*
X149349211Y-74876435D01*
X146609897Y-75341120D02*
X146030777Y-74762000D01*
X143828395Y-75341000D02*
X143368000Y-75341000D01*
X148479361Y-74876435D02*
X148245047Y-75110750D01*
X149349211Y-74876435D02*
X148479361Y-74876435D01*
X144407395Y-74762000D02*
X143828395Y-75341000D01*
X162560000Y-76200000D02*
X161498000Y-75138000D01*
X146030777Y-74762000D02*
X144407395Y-74762000D01*
X135825000Y-110298000D02*
X143404616Y-110298000D01*
X148245047Y-75110750D02*
X148014676Y-75341120D01*
X143404616Y-110298000D02*
X143654616Y-110048000D01*
X134747000Y-109220000D02*
X135825000Y-110298000D01*
%TO.N,/A7*%
X156845000Y-97025000D02*
X156842000Y-97028000D01*
X162560000Y-88900000D02*
X161498000Y-87838000D01*
X137726896Y-97582000D02*
X136847104Y-97582000D01*
X135359896Y-97028000D02*
X134851896Y-96520000D01*
X136293104Y-97028000D02*
X135359896Y-97028000D01*
X156842000Y-97028000D02*
X138280896Y-97028000D01*
X157145000Y-87838000D02*
X156972000Y-88011000D01*
X138280896Y-97028000D02*
X137726896Y-97582000D01*
X136847104Y-97582000D02*
X136293104Y-97028000D01*
X161498000Y-87838000D02*
X157145000Y-87838000D01*
X134851896Y-96520000D02*
X134747000Y-96520000D01*
%TO.N,/A3*%
X156329247Y-90519756D02*
X156449000Y-90400003D01*
X161498000Y-95042000D02*
X156510000Y-95042000D01*
X134747000Y-91440000D02*
X135809000Y-90378000D01*
X138423075Y-90378000D02*
X138564831Y-90519756D01*
X138564831Y-90519756D02*
X156329247Y-90519756D01*
X156510000Y-95042000D02*
X156083000Y-94615000D01*
X135809000Y-90378000D02*
X138423075Y-90378000D01*
X162560000Y-93980000D02*
X161498000Y-95042000D01*
%TO.N,/A1*%
X155015750Y-97625000D02*
X155007092Y-97633658D01*
X161498000Y-97582000D02*
X159391924Y-97582000D01*
X159311925Y-97502000D02*
X158442075Y-97502000D01*
X158319075Y-97625000D02*
X155015750Y-97625000D01*
X162560000Y-96520000D02*
X161498000Y-97582000D01*
X154966600Y-88232489D02*
X155179035Y-88020054D01*
X139057389Y-87838000D02*
X139425360Y-88205971D01*
X139425360Y-88205971D02*
X139929601Y-88205971D01*
X139929601Y-88205971D02*
X139956118Y-88232489D01*
X159391924Y-97582000D02*
X159311925Y-97502000D01*
X139956118Y-88232489D02*
X154966600Y-88232489D01*
X134747000Y-88900000D02*
X135809000Y-87838000D01*
X158442075Y-97502000D02*
X158319075Y-97625000D01*
X135809000Y-87838000D02*
X139057389Y-87838000D01*
%TO.N,/A11*%
X152174949Y-83130818D02*
X152498131Y-83454000D01*
X135809000Y-102662000D02*
X134747000Y-101600000D01*
X151636471Y-83130818D02*
X152174949Y-83130818D01*
X150876496Y-83380818D02*
X150926314Y-83331000D01*
X161498000Y-82758000D02*
X162560000Y-83820000D01*
X152957628Y-83274000D02*
X152976239Y-83274000D01*
X140825750Y-83358000D02*
X140906750Y-83439000D01*
X141097000Y-102235000D02*
X140670000Y-102662000D01*
X151436289Y-83331000D02*
X151636471Y-83130818D01*
X140906750Y-83439000D02*
X150486943Y-83439000D01*
X140670000Y-102662000D02*
X135809000Y-102662000D01*
X150926314Y-83331000D02*
X151436289Y-83331000D01*
X150545125Y-83380818D02*
X150876496Y-83380818D01*
X153492239Y-82758000D02*
X161498000Y-82758000D01*
X152498131Y-83454000D02*
X152777628Y-83454000D01*
X152976239Y-83274000D02*
X153492239Y-82758000D01*
X150486943Y-83439000D02*
X150545125Y-83380818D01*
X152777628Y-83454000D02*
X152957628Y-83274000D01*
%TO.N,/A12*%
X141605000Y-101600000D02*
X137287000Y-101600000D01*
X153123314Y-83674000D02*
X152361314Y-84436000D01*
X141891947Y-84309000D02*
X141760947Y-84440000D01*
X159874000Y-83674000D02*
X153123314Y-83674000D01*
X152361314Y-84436000D02*
X142786686Y-84436000D01*
X142659686Y-84309000D02*
X141891947Y-84309000D01*
X142786686Y-84436000D02*
X142659686Y-84309000D01*
X160020000Y-83820000D02*
X159874000Y-83674000D01*
%TO.N,/A2*%
X159817005Y-96317005D02*
X155121619Y-96317005D01*
X155044669Y-88758000D02*
X155156425Y-88869756D01*
X160020000Y-96520000D02*
X159817005Y-96317005D01*
X138526761Y-88900000D02*
X138668761Y-88758000D01*
X137287000Y-88900000D02*
X138526761Y-88900000D01*
X138668761Y-88758000D02*
X155044669Y-88758000D01*
X155121619Y-96317005D02*
X155062845Y-96375779D01*
%TO.N,/A18*%
X145161000Y-109220000D02*
X137287000Y-109220000D01*
X148242262Y-75762000D02*
X146668484Y-75762000D01*
X150495000Y-75692000D02*
X149599090Y-75692000D01*
X160020000Y-76200000D02*
X151003000Y-76200000D01*
X149599090Y-75692000D02*
X149183525Y-75276435D01*
X146668484Y-75762000D02*
X146368484Y-76062000D01*
X151003000Y-76200000D02*
X150495000Y-75692000D01*
X145092320Y-76062000D02*
X144842320Y-75812000D01*
X146368484Y-76062000D02*
X145092320Y-76062000D01*
X148264286Y-75739976D02*
X148242262Y-75762000D01*
X149183525Y-75276435D02*
X148645047Y-75276435D01*
X148645047Y-75276435D02*
X148264286Y-75657196D01*
X148264286Y-75657196D02*
X148264286Y-75739976D01*
%TO.N,/A15*%
X135809000Y-107742000D02*
X134747000Y-106680000D01*
X149122867Y-77376435D02*
X150193809Y-77376435D01*
X142769948Y-107442000D02*
X142469948Y-107742000D01*
X142469948Y-107742000D02*
X135809000Y-107742000D01*
X161498000Y-77678000D02*
X162560000Y-78740000D01*
X143184471Y-78120000D02*
X143652239Y-78120000D01*
X147919211Y-77373999D02*
X149120432Y-77373999D01*
X150495374Y-77678000D02*
X161498000Y-77678000D01*
X142586911Y-77522440D02*
X143184471Y-78120000D01*
X144029239Y-77743000D02*
X147550210Y-77743000D01*
X149120432Y-77373999D02*
X149122867Y-77376435D01*
X143652239Y-78120000D02*
X144029239Y-77743000D01*
X147550210Y-77743000D02*
X147919211Y-77373999D01*
X142586911Y-77391000D02*
X142586911Y-77522440D01*
X150193809Y-77376435D02*
X150495374Y-77678000D01*
%TO.N,/A4*%
X156210638Y-93980000D02*
X156017679Y-93787041D01*
X155741446Y-91440000D02*
X156011000Y-91170446D01*
X160020000Y-93980000D02*
X156210638Y-93980000D01*
X137287000Y-91440000D02*
X155741446Y-91440000D01*
%TO.N,/A0*%
X160020000Y-99060000D02*
X159481184Y-99598816D01*
X154161354Y-99228040D02*
X153927040Y-98993725D01*
X153429279Y-87351816D02*
X153625124Y-87155971D01*
X137287000Y-86360000D02*
X139215004Y-86360000D01*
X140825975Y-87432493D02*
X140906652Y-87351816D01*
X154532130Y-99598816D02*
X154161354Y-99228040D01*
X153918207Y-98984893D02*
X153592228Y-98984893D01*
X159481184Y-99598816D02*
X154532130Y-99598816D01*
X140906652Y-87351816D02*
X153429279Y-87351816D01*
X139215004Y-86360000D02*
X140287497Y-87432493D01*
X140287497Y-87432493D02*
X140825975Y-87432493D01*
X153927040Y-98993725D02*
X153918207Y-98984893D01*
%TO.N,/A8*%
X157057818Y-88900000D02*
X157596634Y-89438816D01*
X155404954Y-89469756D02*
X155974710Y-88900000D01*
X139772000Y-96520000D02*
X139899000Y-96393000D01*
X159481184Y-89438816D02*
X160020000Y-88900000D01*
X157596634Y-89438816D02*
X159481184Y-89438816D01*
X155974710Y-88900000D02*
X157057818Y-88900000D01*
X137287000Y-96520000D02*
X139772000Y-96520000D01*
X139989000Y-89469756D02*
X155404954Y-89469756D01*
%TO.N,/A14*%
X137287000Y-104140000D02*
X141682000Y-104140000D01*
X159455370Y-80715370D02*
X151607710Y-80715370D01*
X150775761Y-81731000D02*
X150632943Y-81731000D01*
X160020000Y-81280000D02*
X159455370Y-80715370D01*
X141732000Y-82042000D02*
X141859000Y-81915000D01*
X142056000Y-82112000D02*
X141859000Y-81915000D01*
X150632943Y-81731000D02*
X150251943Y-82112000D01*
X151226949Y-81096131D02*
X151226949Y-81279812D01*
X151226949Y-81279812D02*
X150775761Y-81731000D01*
X150251943Y-82112000D02*
X142056000Y-82112000D01*
X151607710Y-80715370D02*
X151226949Y-81096131D01*
X141682000Y-104140000D02*
X141809000Y-104013000D01*
%TO.N,/A6*%
X160020000Y-91440000D02*
X159358000Y-92102000D01*
X159358000Y-92102000D02*
X139165000Y-92102000D01*
X139165000Y-92102000D02*
X137287000Y-93980000D01*
%TO.N,/A5*%
X162560000Y-91440000D02*
X161498000Y-92502000D01*
X136847104Y-95042000D02*
X135785104Y-93980000D01*
X135785104Y-93980000D02*
X134747000Y-93980000D01*
X140266896Y-92502000D02*
X137726896Y-95042000D01*
X161498000Y-92502000D02*
X140266896Y-92502000D01*
X137726896Y-95042000D02*
X136847104Y-95042000D01*
%TO.N,/A16*%
X143479184Y-106141184D02*
X137825816Y-106141184D01*
X148789060Y-78173999D02*
X148791496Y-78176435D01*
X149549966Y-78721000D02*
X160001000Y-78721000D01*
X160001000Y-78721000D02*
X160020000Y-78740000D01*
X147869821Y-78561459D02*
X148257281Y-78173999D01*
X144571942Y-78561459D02*
X147869821Y-78561459D01*
X148257281Y-78173999D02*
X148789060Y-78173999D01*
X144068000Y-79065401D02*
X144571942Y-78561459D01*
X137825816Y-106141184D02*
X137287000Y-106680000D01*
X149005401Y-78176435D02*
X149549966Y-78721000D01*
X144018000Y-106680000D02*
X143479184Y-106141184D01*
X148791496Y-78176435D02*
X149005401Y-78176435D01*
%TO.N,/A19*%
X135836761Y-112849761D02*
X146092729Y-112849761D01*
X162560000Y-73660000D02*
X161290000Y-72390000D01*
X161290000Y-72390000D02*
X147574000Y-72390000D01*
X147574000Y-72390000D02*
X147447000Y-72263000D01*
X147279196Y-112469000D02*
X147432535Y-112622339D01*
X146092729Y-112849761D02*
X146473490Y-112469000D01*
X146473490Y-112469000D02*
X147279196Y-112469000D01*
X134747000Y-111760000D02*
X135836761Y-112849761D01*
%TO.N,Net-(P1-2PHI2)*%
X144123690Y-76462000D02*
X146688628Y-76462000D01*
X146988628Y-76162000D02*
X148678721Y-76162000D01*
X144077690Y-76416000D02*
X144123690Y-76462000D01*
X137287000Y-76200000D02*
X137478000Y-76391000D01*
X137478000Y-76391000D02*
X144042925Y-76391000D01*
X144067925Y-76416000D02*
X144077690Y-76416000D01*
X148844000Y-109220000D02*
X160020000Y-109220000D01*
X148678721Y-76162000D02*
X148914286Y-75926435D01*
X144042925Y-76391000D02*
X144067925Y-76416000D01*
X146688628Y-76462000D02*
X146988628Y-76162000D01*
%TO.N,Net-(P1-PHI1)*%
X142451315Y-81549000D02*
X149736611Y-81549000D01*
X142182315Y-81280000D02*
X142451315Y-81549000D01*
X149933302Y-104140000D02*
X160020000Y-104140000D01*
X149736611Y-81549000D02*
X149789173Y-81496438D01*
X137287000Y-81280000D02*
X142182315Y-81280000D01*
X149933302Y-104140000D02*
X149699207Y-104374095D01*
%TO.N,Net-(P1-{slash}NMI)*%
X143185239Y-80191000D02*
X148668814Y-80191000D01*
X149305235Y-79554579D02*
X150136339Y-79554579D01*
X142589239Y-79595000D02*
X143185239Y-80191000D01*
X133669000Y-79818000D02*
X141455075Y-79818000D01*
X163622000Y-105618000D02*
X165100000Y-104140000D01*
X148668814Y-80191000D02*
X149305235Y-79554579D01*
X150136339Y-79554579D02*
X150401260Y-79819500D01*
X150863743Y-105802000D02*
X151047743Y-105618000D01*
X132207000Y-81280000D02*
X133669000Y-79818000D01*
X151047743Y-105618000D02*
X163622000Y-105618000D01*
X141678075Y-79595000D02*
X142589239Y-79595000D01*
X141455075Y-79818000D02*
X141678075Y-79595000D01*
%TO.N,Net-(P1-VBUF)*%
X161498000Y-110282000D02*
X162560000Y-109220000D01*
X145831000Y-110236000D02*
X145877000Y-110282000D01*
X145492320Y-75584000D02*
X145589538Y-75584000D01*
X145589538Y-75584000D02*
X145761538Y-75412000D01*
X143744081Y-75991000D02*
X144573081Y-75162000D01*
X134747000Y-76200000D02*
X135809000Y-75138000D01*
X142245761Y-75138000D02*
X143098761Y-75991000D01*
X143098761Y-75991000D02*
X143744081Y-75991000D01*
X135809000Y-75138000D02*
X142245761Y-75138000D01*
X145877000Y-110282000D02*
X161498000Y-110282000D01*
X144573081Y-75162000D02*
X145070320Y-75162000D01*
X145070320Y-75162000D02*
X145492320Y-75584000D01*
%TO.N,Net-(P1-8PHI2)*%
X134747000Y-73660000D02*
X136144000Y-72263000D01*
X136144000Y-72263000D02*
X146431000Y-72263000D01*
X146933729Y-113310000D02*
X146742729Y-113119000D01*
X162560000Y-111760000D02*
X161010000Y-113310000D01*
X161010000Y-113310000D02*
X146933729Y-113310000D01*
%TO.N,/D4*%
X163638000Y-92902000D02*
X165100000Y-91440000D01*
X133669000Y-95442000D02*
X140016000Y-95442000D01*
X140016000Y-95442000D02*
X142556000Y-92902000D01*
X142556000Y-92902000D02*
X163638000Y-92902000D01*
X132207000Y-93980000D02*
X133669000Y-95442000D01*
%TO.N,/D6*%
X133679983Y-100532983D02*
X139685712Y-100532983D01*
X132207000Y-99060000D02*
X133679983Y-100532983D01*
X142494000Y-85090000D02*
X141571305Y-85090000D01*
X142748000Y-84836000D02*
X142494000Y-85090000D01*
X141413798Y-84932493D02*
X141320493Y-84932493D01*
X141320493Y-84932493D02*
X140843000Y-84455000D01*
X165100000Y-86360000D02*
X163638000Y-84898000D01*
X163638000Y-84898000D02*
X155060127Y-84898000D01*
X153077069Y-84836000D02*
X142748000Y-84836000D01*
X141571305Y-85090000D02*
X141413798Y-84932493D01*
X153789069Y-84124000D02*
X153077069Y-84836000D01*
X140843000Y-84455000D02*
X139954000Y-84455000D01*
X155060127Y-84898000D02*
X154286127Y-84124000D01*
X154286127Y-84124000D02*
X153789069Y-84124000D01*
%TO.N,Net-(P1-RDY)*%
X135809000Y-80218000D02*
X141620761Y-80218000D01*
X161498000Y-105202000D02*
X162560000Y-104140000D01*
X149194833Y-80230667D02*
X149699936Y-80230667D01*
X150165872Y-105104128D02*
X150263744Y-105202000D01*
X149068814Y-80356685D02*
X149194833Y-80230667D01*
X142423553Y-79995000D02*
X143019553Y-80591000D01*
X141620761Y-80218000D02*
X141843761Y-79995000D01*
X141843761Y-79995000D02*
X142423553Y-79995000D01*
X150263744Y-105202000D02*
X161498000Y-105202000D01*
X134747000Y-81280000D02*
X135809000Y-80218000D01*
X148834500Y-80591000D02*
X149068814Y-80356685D01*
X143019553Y-80591000D02*
X148834500Y-80591000D01*
%TO.N,/D2*%
X139591046Y-87805971D02*
X140095290Y-87805971D01*
X159226239Y-97982000D02*
X159146239Y-97902000D01*
X133681790Y-87425210D02*
X139210285Y-87425210D01*
X153864631Y-87832493D02*
X154495280Y-87201844D01*
X132207000Y-88900000D02*
X133681790Y-87425210D01*
X139210285Y-87425210D02*
X139591046Y-87805971D01*
X158657000Y-97902000D02*
X158534000Y-98025000D01*
X154495280Y-87201844D02*
X155348805Y-87201844D01*
X165100000Y-96520000D02*
X163638000Y-97982000D01*
X163638000Y-97982000D02*
X159226239Y-97982000D01*
X140095290Y-87805971D02*
X140121811Y-87832493D01*
X158534000Y-98025000D02*
X155817761Y-98025000D01*
X140121811Y-87832493D02*
X153864631Y-87832493D01*
X155817761Y-98025000D02*
X155614721Y-98228040D01*
X159146239Y-97902000D02*
X158657000Y-97902000D01*
%TO.N,Net-(P1-{slash}BE)*%
X151248289Y-79708643D02*
X151237899Y-79698253D01*
X151248289Y-79818000D02*
X151248289Y-79708643D01*
X146177000Y-103505000D02*
X144080000Y-105602000D01*
X133669000Y-105602000D02*
X132207000Y-104140000D01*
X151257000Y-103505000D02*
X146177000Y-103505000D01*
X163638000Y-79818000D02*
X151248289Y-79818000D01*
X144080000Y-105602000D02*
X133669000Y-105602000D01*
X165100000Y-81280000D02*
X163638000Y-79818000D01*
%TO.N,Net-(P1-SYNC)*%
X141082427Y-85732493D02*
X141239934Y-85890000D01*
X154209820Y-85651000D02*
X154426030Y-85434790D01*
X142952372Y-85890000D02*
X143191372Y-85651000D01*
X161498000Y-100122000D02*
X154190118Y-100122000D01*
X139312075Y-85298000D02*
X139519075Y-85505000D01*
X139519075Y-85505000D02*
X140761628Y-85505000D01*
X143191372Y-85651000D02*
X154209820Y-85651000D01*
X140989121Y-85732493D02*
X141082427Y-85732493D01*
X141239934Y-85890000D02*
X142952372Y-85890000D01*
X135809000Y-85298000D02*
X139312075Y-85298000D01*
X162560000Y-99060000D02*
X161498000Y-100122000D01*
X154190118Y-100122000D02*
X153884028Y-99815910D01*
X140761628Y-85505000D02*
X140989121Y-85732493D01*
X134747000Y-86360000D02*
X135809000Y-85298000D01*
%TO.N,Net-(P1-{slash}RES)*%
X144241709Y-74362000D02*
X146196463Y-74362000D01*
X148047000Y-110882000D02*
X148231000Y-110698000D01*
X147748499Y-74441000D02*
X147872028Y-74564529D01*
X132207000Y-76200000D02*
X133685000Y-74722000D01*
X133685000Y-74722000D02*
X143881709Y-74722000D01*
X146196463Y-74362000D02*
X146275463Y-74441000D01*
X143881709Y-74722000D02*
X144241709Y-74362000D01*
X146275463Y-74441000D02*
X147748499Y-74441000D01*
X163622000Y-110698000D02*
X165100000Y-109220000D01*
X148231000Y-110698000D02*
X163622000Y-110698000D01*
D14*
%TO.N,Net-(P1-GND)*%
X132207000Y-111760000D02*
X134657000Y-114210000D01*
X132207000Y-73660000D02*
X134454000Y-71413000D01*
X134657000Y-114210000D02*
X162650000Y-114210000D01*
X162853000Y-71413000D02*
X165100000Y-73660000D01*
X162650000Y-114210000D02*
X165100000Y-111760000D01*
X134454000Y-71413000D02*
X162853000Y-71413000D01*
D13*
%TO.N,/D1*%
X140927314Y-85105000D02*
X141154807Y-85332493D01*
X141405619Y-85490000D02*
X142786686Y-85490000D01*
X139684761Y-85105000D02*
X140927314Y-85105000D01*
X133681224Y-84885776D02*
X139465537Y-84885776D01*
X132207000Y-86360000D02*
X133681224Y-84885776D01*
X142786686Y-85490000D02*
X143025686Y-85251000D01*
X153510598Y-85251000D02*
X154037598Y-84724000D01*
X154366591Y-100538000D02*
X154072289Y-100832302D01*
X165100000Y-99060000D02*
X163622000Y-100538000D01*
X139465537Y-84885776D02*
X139684761Y-85105000D01*
X141154807Y-85332493D02*
X141248113Y-85332493D01*
X143025686Y-85251000D02*
X153510598Y-85251000D01*
X141248113Y-85332493D02*
X141405619Y-85490000D01*
X163622000Y-100538000D02*
X154366591Y-100538000D01*
%TO.N,Net-(P1-VCC33)*%
X149525000Y-107742000D02*
X161498000Y-107742000D01*
X142645610Y-78520000D02*
X143817925Y-78520000D01*
X134747000Y-78740000D02*
X135809000Y-77678000D01*
X148957182Y-77776435D02*
X149674570Y-77776435D01*
X148084896Y-77773999D02*
X148954746Y-77773999D01*
X143817925Y-78520000D02*
X144194925Y-78143000D01*
X147715895Y-78143000D02*
X148084896Y-77773999D01*
X141803610Y-77678000D02*
X142645610Y-78520000D01*
X148954746Y-77773999D02*
X148957182Y-77776435D01*
X149479000Y-107696000D02*
X149525000Y-107742000D01*
X149674570Y-77776435D02*
X149988331Y-78090196D01*
X135809000Y-77678000D02*
X141803610Y-77678000D01*
X161498000Y-107742000D02*
X162560000Y-106680000D01*
X144194925Y-78143000D02*
X147715895Y-78143000D01*
D14*
%TO.N,Net-(P1-VCC)*%
X143553101Y-72968979D02*
X143583457Y-72938623D01*
X137287000Y-111760000D02*
X160020000Y-111760000D01*
D13*
X137287000Y-111760000D02*
X137459000Y-111588000D01*
X137287000Y-73660000D02*
X137833000Y-73114000D01*
D14*
X144297742Y-72938623D02*
X144511119Y-73152000D01*
X159512000Y-73152000D02*
X160020000Y-73660000D01*
X137978021Y-72968979D02*
X143553101Y-72968979D01*
X137287000Y-73660000D02*
X137978021Y-72968979D01*
D13*
X159474000Y-73114000D02*
X160020000Y-73660000D01*
D14*
X143583457Y-72938623D02*
X144297742Y-72938623D01*
D13*
X159848000Y-111588000D02*
X160020000Y-111760000D01*
D14*
X144511119Y-73152000D02*
X159512000Y-73152000D01*
D13*
%TO.N,/D0*%
X133669000Y-82358000D02*
X141382762Y-82358000D01*
X163622000Y-103078000D02*
X152301068Y-103078000D01*
X141589761Y-82565000D02*
X141982629Y-82565000D01*
X165100000Y-101600000D02*
X163622000Y-103078000D01*
X151111319Y-82131000D02*
X151876949Y-81365370D01*
X141382762Y-82358000D02*
X141589761Y-82565000D01*
X132207000Y-83820000D02*
X133669000Y-82358000D01*
X142035629Y-82512000D02*
X150417629Y-82512000D01*
X141982629Y-82565000D02*
X142035629Y-82512000D01*
X150417629Y-82512000D02*
X150798629Y-82131000D01*
X152301068Y-103078000D02*
X152177860Y-103201208D01*
X150798629Y-82131000D02*
X151111319Y-82131000D01*
%TO.N,/D5*%
X153497000Y-97998000D02*
X133685000Y-97998000D01*
X165100000Y-88900000D02*
X163622000Y-87422000D01*
X163622000Y-87422000D02*
X158602478Y-87422000D01*
X154327040Y-98828040D02*
X153497000Y-97998000D01*
X133685000Y-97998000D02*
X132207000Y-96520000D01*
X158357234Y-87176756D02*
X156627504Y-87176756D01*
X158602478Y-87422000D02*
X158357234Y-87176756D01*
X157099000Y-98828040D02*
X154327040Y-98828040D01*
%TO.N,Net-(P1-PHI0)*%
X144972239Y-79121000D02*
X148463000Y-79121000D01*
X143350925Y-79791000D02*
X144302239Y-79791000D01*
X142299925Y-78740000D02*
X143350925Y-79791000D01*
X144302239Y-79791000D02*
X144972239Y-79121000D01*
X149479000Y-106680000D02*
X160020000Y-106680000D01*
X137287000Y-78740000D02*
X142299925Y-78740000D01*
%TO.N,Net-(P1-{slash}MEMSEL)*%
X163622000Y-74722000D02*
X158669000Y-74722000D01*
X157897147Y-73950147D02*
X144097063Y-73950147D01*
X133685000Y-110698000D02*
X132207000Y-109220000D01*
X158669000Y-74722000D02*
X157897147Y-73950147D01*
X165100000Y-76200000D02*
X163622000Y-74722000D01*
X144907000Y-110744000D02*
X144861000Y-110698000D01*
X144097063Y-73950147D02*
X143935539Y-73788623D01*
X144861000Y-110698000D02*
X133685000Y-110698000D01*
%TO.N,Net-(P1-R{slash}-W)*%
X142201315Y-82912000D02*
X150583314Y-82912000D01*
X150964314Y-82531000D02*
X151598134Y-82531000D01*
X162560000Y-101600000D02*
X161498000Y-102662000D01*
X135809000Y-82758000D02*
X141217076Y-82758000D01*
X141217076Y-82758000D02*
X141424076Y-82965000D01*
X142148315Y-82965000D02*
X142201315Y-82912000D01*
X161498000Y-102662000D02*
X152557891Y-102662000D01*
X151598134Y-82531000D02*
X151914596Y-82214538D01*
X141424076Y-82965000D02*
X142148315Y-82965000D01*
X134747000Y-83820000D02*
X135809000Y-82758000D01*
X152557891Y-102662000D02*
X152264028Y-102368137D01*
X150583314Y-82912000D02*
X150964314Y-82531000D01*
X152264028Y-102368137D02*
X152009052Y-102368137D01*
%TO.N,/D3*%
X155810008Y-90119756D02*
X156179761Y-89750003D01*
X133669000Y-89978000D02*
X138908005Y-89978000D01*
X138908005Y-89978000D02*
X139049761Y-90119756D01*
X157045000Y-95458000D02*
X156811000Y-95692000D01*
X139049761Y-90119756D02*
X155810008Y-90119756D01*
X156306761Y-89750003D02*
X156506764Y-89550000D01*
X163622000Y-95458000D02*
X157045000Y-95458000D01*
X156506764Y-89550000D02*
X156845000Y-89550000D01*
X132207000Y-91440000D02*
X133669000Y-89978000D01*
X165100000Y-93980000D02*
X163622000Y-95458000D01*
X156179761Y-89750003D02*
X156306761Y-89750003D01*
%TO.N,/D7*%
X165100000Y-83820000D02*
X163622000Y-82342000D01*
X152971267Y-82342000D02*
X152638319Y-82674948D01*
X147066000Y-100457000D02*
X152691059Y-100457000D01*
X152691059Y-100457000D02*
X152731604Y-100497545D01*
X144461000Y-103062000D02*
X147066000Y-100457000D01*
X163622000Y-82342000D02*
X152971267Y-82342000D01*
X132207000Y-101600000D02*
X133669000Y-103062000D01*
X133669000Y-103062000D02*
X144461000Y-103062000D01*
%TO.N,Net-(P1-{slash}IRQ)*%
X149508396Y-76576435D02*
X149720673Y-76364158D01*
X149454239Y-76576435D02*
X149508396Y-76576435D01*
X151976104Y-108142000D02*
X163638000Y-108142000D01*
X147587840Y-76573999D02*
X149451803Y-76573999D01*
X163638000Y-108142000D02*
X165100000Y-106680000D01*
X143958004Y-76862000D02*
X147299840Y-76862000D01*
X132207000Y-78740000D02*
X133669000Y-77278000D01*
X133669000Y-77278000D02*
X140527000Y-77278000D01*
X143902239Y-76816000D02*
X143912004Y-76816000D01*
X143912004Y-76816000D02*
X143958004Y-76862000D01*
X143877239Y-76791000D02*
X143902239Y-76816000D01*
X151622101Y-108496003D02*
X151976104Y-108142000D01*
X149479000Y-108496003D02*
X151622101Y-108496003D01*
X141014000Y-76791000D02*
X143877239Y-76791000D01*
X147299840Y-76862000D02*
X147353525Y-76808314D01*
X149451803Y-76573999D02*
X149454239Y-76576435D01*
X140527000Y-77278000D02*
X141014000Y-76791000D01*
X147353525Y-76808314D02*
X147587840Y-76573999D01*
%TO.N,Net-(P1-PHI2)*%
X141273239Y-84055000D02*
X141489239Y-83839000D01*
X152037193Y-101600000D02*
X151947571Y-101510378D01*
X140238239Y-83820000D02*
X140473239Y-84055000D01*
X140473239Y-84055000D02*
X141273239Y-84055000D01*
X141489239Y-83839000D02*
X151847528Y-83839000D01*
X151847528Y-83839000D02*
X151905710Y-83780818D01*
X160020000Y-101600000D02*
X152037193Y-101600000D01*
X137287000Y-83820000D02*
X140238239Y-83820000D01*
%TO.N,Net-(P1-{slash}IOSEL)*%
X163622000Y-77262000D02*
X150645060Y-77262000D01*
X133669000Y-108142000D02*
X132207000Y-106680000D01*
X149288553Y-76976435D02*
X149286117Y-76973999D01*
X150359495Y-76976435D02*
X149288553Y-76976435D01*
X143591000Y-77262000D02*
X143383000Y-77470000D01*
X149286117Y-76973999D02*
X147753525Y-76973999D01*
X143067000Y-108142000D02*
X133669000Y-108142000D01*
X150645060Y-77262000D02*
X150359495Y-76976435D01*
X165100000Y-78740000D02*
X163622000Y-77262000D01*
X147465524Y-77262000D02*
X143591000Y-77262000D01*
X147519211Y-77208314D02*
X147465524Y-77262000D01*
X147753525Y-76973999D02*
X147519211Y-77208314D01*
X143383000Y-108458000D02*
X143067000Y-108142000D01*
%TD*%
M02*
