M48
; DRILL file {KiCad 8.0.6} date 2024-12-01T20:13:54+0100
; FORMAT={-:-/ absolute / metric / decimal}
; #@! TF.CreationDate,2024-12-01T20:13:54+01:00
; #@! TF.GenerationSoftware,Kicad,Pcbnew,8.0.6
; #@! TF.FileFunction,Plated,1,2,PTH
FMAT,2
METRIC
; #@! TA.AperFunction,Plated,PTH,ViaDrill
T1C0.300
; #@! TA.AperFunction,Plated,PTH,ComponentDrill
T2C1.016
%
G90
G05
T1
X139.686Y-100.533
X139.899Y-96.393
X139.899Y-99.698
X139.954Y-84.455
X139.989Y-89.47
X139.998Y-86.155
X140.648Y-86.782
X140.826Y-83.358
X140.892Y-99.568
X141.097Y-102.235
X141.605Y-101.6
X141.761Y-84.44
X141.809Y-104.013
X141.859Y-81.915
X142.088Y-104.877
X142.113Y-80.645
X142.587Y-77.391
X142.77Y-107.442
X143.368Y-75.341
X143.383Y-77.47
X143.383Y-108.458
X143.655Y-110.048
X143.936Y-73.789
X144.018Y-106.68
X144.068Y-79.065
X144.842Y-75.812
X144.907Y-110.744
X145.161Y-109.22
X145.762Y-75.412
X145.831Y-110.236
X146.431Y-72.263
X146.743Y-113.119
X147.433Y-112.622
X147.447Y-72.263
X147.872Y-74.565
X148.047Y-110.882
X148.463Y-79.121
X148.844Y-109.22
X148.914Y-75.926
X149.479Y-106.68
X149.479Y-107.696
X149.479Y-108.496
X149.699Y-104.374
X149.7Y-80.231
X149.721Y-76.364
X149.789Y-81.496
X149.988Y-78.09
X150.166Y-105.104
X150.401Y-79.819
X150.864Y-105.802
X151.238Y-79.698
X151.257Y-103.505
X151.877Y-81.365
X151.906Y-83.781
X151.915Y-82.215
X151.948Y-101.51
X152.009Y-102.368
X152.178Y-103.201
X152.638Y-82.675
X152.732Y-100.498
X153.592Y-98.985
X153.625Y-87.156
X153.884Y-99.816
X154.038Y-84.724
X154.072Y-100.832
X154.426Y-85.435
X155.007Y-97.634
X155.063Y-96.376
X155.156Y-88.87
X155.179Y-88.02
X155.349Y-87.202
X155.615Y-98.228
X156.011Y-91.17
X156.018Y-93.787
X156.083Y-94.615
X156.449Y-90.4
X156.628Y-87.177
X156.811Y-95.692
X156.845Y-89.55
X156.845Y-97.025
X156.972Y-88.011
X157.099Y-98.828
T2
X132.207Y-73.66
X132.207Y-76.2
X132.207Y-78.74
X132.207Y-81.28
X132.207Y-83.82
X132.207Y-86.36
X132.207Y-88.9
X132.207Y-91.44
X132.207Y-93.98
X132.207Y-96.52
X132.207Y-99.06
X132.207Y-101.6
X132.207Y-104.14
X132.207Y-106.68
X132.207Y-109.22
X132.207Y-111.76
X134.747Y-73.66
X134.747Y-76.2
X134.747Y-78.74
X134.747Y-81.28
X134.747Y-83.82
X134.747Y-86.36
X134.747Y-88.9
X134.747Y-91.44
X134.747Y-93.98
X134.747Y-96.52
X134.747Y-99.06
X134.747Y-101.6
X134.747Y-104.14
X134.747Y-106.68
X134.747Y-109.22
X134.747Y-111.76
X137.287Y-73.66
X137.287Y-76.2
X137.287Y-78.74
X137.287Y-81.28
X137.287Y-83.82
X137.287Y-86.36
X137.287Y-88.9
X137.287Y-91.44
X137.287Y-93.98
X137.287Y-96.52
X137.287Y-99.06
X137.287Y-101.6
X137.287Y-104.14
X137.287Y-106.68
X137.287Y-109.22
X137.287Y-111.76
X160.02Y-73.66
X160.02Y-76.2
X160.02Y-78.74
X160.02Y-81.28
X160.02Y-83.82
X160.02Y-86.36
X160.02Y-88.9
X160.02Y-91.44
X160.02Y-93.98
X160.02Y-96.52
X160.02Y-99.06
X160.02Y-101.6
X160.02Y-104.14
X160.02Y-106.68
X160.02Y-109.22
X160.02Y-111.76
X162.56Y-73.66
X162.56Y-76.2
X162.56Y-78.74
X162.56Y-81.28
X162.56Y-83.82
X162.56Y-86.36
X162.56Y-88.9
X162.56Y-91.44
X162.56Y-93.98
X162.56Y-96.52
X162.56Y-99.06
X162.56Y-101.6
X162.56Y-104.14
X162.56Y-106.68
X162.56Y-109.22
X162.56Y-111.76
X165.1Y-73.66
X165.1Y-76.2
X165.1Y-78.74
X165.1Y-81.28
X165.1Y-83.82
X165.1Y-86.36
X165.1Y-88.9
X165.1Y-91.44
X165.1Y-93.98
X165.1Y-96.52
X165.1Y-99.06
X165.1Y-101.6
X165.1Y-104.14
X165.1Y-106.68
X165.1Y-109.22
X165.1Y-111.76
M30
