%TF.GenerationSoftware,KiCad,Pcbnew,8.0.6*%
%TF.CreationDate,2024-12-01T20:13:51+01:00*%
%TF.ProjectId,reverseExpansionPort,72657665-7273-4654-9578-70616e73696f,rev?*%
%TF.SameCoordinates,Original*%
%TF.FileFunction,Soldermask,Bot*%
%TF.FilePolarity,Negative*%
%FSLAX46Y46*%
G04 Gerber Fmt 4.6, Leading zero omitted, Abs format (unit mm)*
G04 Created by KiCad (PCBNEW 8.0.6) date 2024-12-01 20:13:51*
%MOMM*%
%LPD*%
G01*
G04 APERTURE LIST*
G04 Aperture macros list*
%AMFreePoly0*
4,1,25,0.375350,0.844196,0.387473,0.833842,0.833842,0.387473,0.862349,0.331525,0.863600,0.315631,0.863600,-0.315631,0.844196,-0.375350,0.833842,-0.387473,0.387473,-0.833842,0.331525,-0.862349,0.315631,-0.863600,-0.315631,-0.863600,-0.375350,-0.844196,-0.387473,-0.833842,-0.833842,-0.387473,-0.862349,-0.331525,-0.863600,-0.315631,-0.863600,0.315631,-0.844196,0.375350,-0.833842,0.387473,
-0.387473,0.833842,-0.331525,0.862349,-0.315631,0.863600,0.315631,0.863600,0.375350,0.844196,0.375350,0.844196,$1*%
G04 Aperture macros list end*
%ADD10C,2.794000*%
%ADD11FreePoly0,180.000000*%
%ADD12FreePoly0,0.000000*%
G04 APERTURE END LIST*
D10*
%TO.C,P2*%
X129667000Y-116846400D03*
X129667000Y-68573600D03*
D11*
X132207000Y-111760000D03*
X132207000Y-109220000D03*
X132207000Y-106680000D03*
X132207000Y-104140000D03*
X132207000Y-101600000D03*
X132207000Y-99060000D03*
X132207000Y-96520000D03*
X132207000Y-93980000D03*
X132207000Y-91440000D03*
X132207000Y-88900000D03*
X132207000Y-86360000D03*
X132207000Y-83820000D03*
X132207000Y-81280000D03*
X132207000Y-78740000D03*
X132207000Y-76200000D03*
X132207000Y-73660000D03*
X134747000Y-111760000D03*
X134747000Y-109220000D03*
X134747000Y-106680000D03*
X134747000Y-104140000D03*
X134747000Y-101600000D03*
X134747000Y-99060000D03*
X134747000Y-96520000D03*
X134747000Y-93980000D03*
X134747000Y-91440000D03*
X134747000Y-88900000D03*
X134747000Y-86360000D03*
X134747000Y-83820000D03*
X134747000Y-81280000D03*
X134747000Y-78740000D03*
X134747000Y-76200000D03*
X134747000Y-73660000D03*
X137287000Y-111760000D03*
X137287000Y-109220000D03*
X137287000Y-106680000D03*
X137287000Y-104140000D03*
X137287000Y-101600000D03*
X137287000Y-99060000D03*
X137287000Y-96520000D03*
X137287000Y-93980000D03*
X137287000Y-91440000D03*
X137287000Y-88900000D03*
X137287000Y-86360000D03*
X137287000Y-83820000D03*
X137287000Y-81280000D03*
X137287000Y-78740000D03*
X137287000Y-76200000D03*
X137287000Y-73660000D03*
%TD*%
D10*
%TO.C,P1*%
X167640000Y-68573600D03*
X167640000Y-116846400D03*
D12*
X165100000Y-73660000D03*
X165100000Y-76200000D03*
X165100000Y-78740000D03*
X165100000Y-81280000D03*
X165100000Y-83820000D03*
X165100000Y-86360000D03*
X165100000Y-88900000D03*
X165100000Y-91440000D03*
X165100000Y-93980000D03*
X165100000Y-96520000D03*
X165100000Y-99060000D03*
X165100000Y-101600000D03*
X165100000Y-104140000D03*
X165100000Y-106680000D03*
X165100000Y-109220000D03*
X165100000Y-111760000D03*
X162560000Y-73660000D03*
X162560000Y-76200000D03*
X162560000Y-78740000D03*
X162560000Y-81280000D03*
X162560000Y-83820000D03*
X162560000Y-86360000D03*
X162560000Y-88900000D03*
X162560000Y-91440000D03*
X162560000Y-93980000D03*
X162560000Y-96520000D03*
X162560000Y-99060000D03*
X162560000Y-101600000D03*
X162560000Y-104140000D03*
X162560000Y-106680000D03*
X162560000Y-109220000D03*
X162560000Y-111760000D03*
X160020000Y-73660000D03*
X160020000Y-76200000D03*
X160020000Y-78740000D03*
X160020000Y-81280000D03*
X160020000Y-83820000D03*
X160020000Y-86360000D03*
X160020000Y-88900000D03*
X160020000Y-91440000D03*
X160020000Y-93980000D03*
X160020000Y-96520000D03*
X160020000Y-99060000D03*
X160020000Y-101600000D03*
X160020000Y-104140000D03*
X160020000Y-106680000D03*
X160020000Y-109220000D03*
X160020000Y-111760000D03*
%TD*%
M02*
