M48
; DRILL file {KiCad 9.0.3+dfsg-1} date 2026-03-15T14:09:02+0100
; FORMAT={-:-/ absolute / inch / decimal}
; #@! TF.CreationDate,2026-03-15T14:09:02+01:00
; #@! TF.GenerationSoftware,Kicad,Pcbnew,9.0.3+dfsg-1
; #@! TF.FileFunction,Plated,1,2,PTH
FMAT,2
INCH
; #@! TA.AperFunction,Plated,PTH,ViaDrill
T1C0.0118
; #@! TA.AperFunction,Plated,PTH,ComponentDrill
T2C0.0394
%
G90
G05
T1
X3.7106Y-2.7953
X3.7402Y-2.4114
X3.7992Y-2.7756
X3.8287Y-2.4114
X3.8287Y-2.9429
X3.8681Y-2.4409
X3.8681Y-2.9035
X3.9024Y-2.9232
X3.9075Y-2.4114
X3.9887Y-2.404
X4.0846Y-2.4114
X4.124Y-2.4409
T2
X3.6437Y-3.0791
X3.6437Y-3.1791
X3.7437Y-3.0791
X3.7437Y-3.1791
X3.8437Y-3.0791
X3.8437Y-3.1791
X3.9437Y-3.0791
X3.9437Y-3.1791
X4.0437Y-3.0791
X4.0437Y-3.1791
X4.1437Y-3.0791
X4.1437Y-3.1791
X4.5079Y-2.7854
X4.5079Y-2.8839
X4.5079Y-3.1299
X4.6063Y-2.7854
X4.6063Y-2.8839
X4.7047Y-2.7854
X4.7047Y-2.8839
X4.7047Y-3.1299
X5.0394Y-3.0807
X5.0394Y-3.1807
X5.1394Y-3.0807
X5.1394Y-3.1807
X5.2394Y-3.0807
X5.2394Y-3.1807
M30
