%TF.GenerationSoftware,KiCad,Pcbnew,9.0.3+dfsg-1*%
%TF.CreationDate,2026-03-15T14:09:02+01:00*%
%TF.ProjectId,sdcardext,73646361-7264-4657-9874-2e6b69636164,rev?*%
%TF.SameCoordinates,Original*%
%TF.FileFunction,Legend,Top*%
%TF.FilePolarity,Positive*%
%FSLAX46Y46*%
G04 Gerber Fmt 4.6, Leading zero omitted, Abs format (unit mm)*
G04 Created by KiCad (PCBNEW 9.0.3+dfsg-1) date 2026-03-15 14:09:02*
%MOMM*%
%LPD*%
G01*
G04 APERTURE LIST*
G04 Aperture macros list*
%AMRoundRect*
0 Rectangle with rounded corners*
0 $1 Rounding radius*
0 $2 $3 $4 $5 $6 $7 $8 $9 X,Y pos of 4 corners*
0 Add a 4 corners polygon primitive as box body*
4,1,4,$2,$3,$4,$5,$6,$7,$8,$9,$2,$3,0*
0 Add four circle primitives for the rounded corners*
1,1,$1+$1,$2,$3*
1,1,$1+$1,$4,$5*
1,1,$1+$1,$6,$7*
1,1,$1+$1,$8,$9*
0 Add four rect primitives between the rounded corners*
20,1,$1+$1,$2,$3,$4,$5,0*
20,1,$1+$1,$4,$5,$6,$7,0*
20,1,$1+$1,$6,$7,$8,$9,0*
20,1,$1+$1,$8,$9,$2,$3,0*%
G04 Aperture macros list end*
%ADD10C,0.150000*%
%ADD11C,0.120000*%
%ADD12RoundRect,0.250000X-0.412500X-0.650000X0.412500X-0.650000X0.412500X0.650000X-0.412500X0.650000X0*%
%ADD13RoundRect,0.237500X-0.300000X-0.237500X0.300000X-0.237500X0.300000X0.237500X-0.300000X0.237500X0*%
%ADD14C,3.200000*%
%ADD15C,1.800000*%
%ADD16RoundRect,0.450000X0.450000X-0.450000X0.450000X0.450000X-0.450000X0.450000X-0.450000X-0.450000X0*%
%ADD17C,1.700000*%
%ADD18RoundRect,0.250000X-0.600000X0.600000X-0.600000X-0.600000X0.600000X-0.600000X0.600000X0.600000X0*%
%ADD19R,0.850000X1.100000*%
%ADD20R,0.750000X1.100000*%
%ADD21R,1.200000X1.000000*%
%ADD22R,1.550000X1.350000*%
%ADD23R,1.900000X1.350000*%
%ADD24R,1.170000X1.800000*%
%ADD25RoundRect,0.237500X-0.237500X0.250000X-0.237500X-0.250000X0.237500X-0.250000X0.237500X0.250000X0*%
G04 APERTURE END LIST*
D10*
X89833333Y-75859580D02*
X89785714Y-75907200D01*
X89785714Y-75907200D02*
X89642857Y-75954819D01*
X89642857Y-75954819D02*
X89547619Y-75954819D01*
X89547619Y-75954819D02*
X89404762Y-75907200D01*
X89404762Y-75907200D02*
X89309524Y-75811961D01*
X89309524Y-75811961D02*
X89261905Y-75716723D01*
X89261905Y-75716723D02*
X89214286Y-75526247D01*
X89214286Y-75526247D02*
X89214286Y-75383390D01*
X89214286Y-75383390D02*
X89261905Y-75192914D01*
X89261905Y-75192914D02*
X89309524Y-75097676D01*
X89309524Y-75097676D02*
X89404762Y-75002438D01*
X89404762Y-75002438D02*
X89547619Y-74954819D01*
X89547619Y-74954819D02*
X89642857Y-74954819D01*
X89642857Y-74954819D02*
X89785714Y-75002438D01*
X89785714Y-75002438D02*
X89833333Y-75050057D01*
X90785714Y-75954819D02*
X90214286Y-75954819D01*
X90500000Y-75954819D02*
X90500000Y-74954819D01*
X90500000Y-74954819D02*
X90404762Y-75097676D01*
X90404762Y-75097676D02*
X90309524Y-75192914D01*
X90309524Y-75192914D02*
X90214286Y-75240533D01*
X90083333Y-73609580D02*
X90035714Y-73657200D01*
X90035714Y-73657200D02*
X89892857Y-73704819D01*
X89892857Y-73704819D02*
X89797619Y-73704819D01*
X89797619Y-73704819D02*
X89654762Y-73657200D01*
X89654762Y-73657200D02*
X89559524Y-73561961D01*
X89559524Y-73561961D02*
X89511905Y-73466723D01*
X89511905Y-73466723D02*
X89464286Y-73276247D01*
X89464286Y-73276247D02*
X89464286Y-73133390D01*
X89464286Y-73133390D02*
X89511905Y-72942914D01*
X89511905Y-72942914D02*
X89559524Y-72847676D01*
X89559524Y-72847676D02*
X89654762Y-72752438D01*
X89654762Y-72752438D02*
X89797619Y-72704819D01*
X89797619Y-72704819D02*
X89892857Y-72704819D01*
X89892857Y-72704819D02*
X90035714Y-72752438D01*
X90035714Y-72752438D02*
X90083333Y-72800057D01*
X90464286Y-72800057D02*
X90511905Y-72752438D01*
X90511905Y-72752438D02*
X90607143Y-72704819D01*
X90607143Y-72704819D02*
X90845238Y-72704819D01*
X90845238Y-72704819D02*
X90940476Y-72752438D01*
X90940476Y-72752438D02*
X90988095Y-72800057D01*
X90988095Y-72800057D02*
X91035714Y-72895295D01*
X91035714Y-72895295D02*
X91035714Y-72990533D01*
X91035714Y-72990533D02*
X90988095Y-73133390D01*
X90988095Y-73133390D02*
X90416667Y-73704819D01*
X90416667Y-73704819D02*
X91035714Y-73704819D01*
X138916666Y-70054819D02*
X138583333Y-69578628D01*
X138345238Y-70054819D02*
X138345238Y-69054819D01*
X138345238Y-69054819D02*
X138726190Y-69054819D01*
X138726190Y-69054819D02*
X138821428Y-69102438D01*
X138821428Y-69102438D02*
X138869047Y-69150057D01*
X138869047Y-69150057D02*
X138916666Y-69245295D01*
X138916666Y-69245295D02*
X138916666Y-69388152D01*
X138916666Y-69388152D02*
X138869047Y-69483390D01*
X138869047Y-69483390D02*
X138821428Y-69531009D01*
X138821428Y-69531009D02*
X138726190Y-69578628D01*
X138726190Y-69578628D02*
X138345238Y-69578628D01*
X139345238Y-69531009D02*
X139678571Y-69531009D01*
X139821428Y-70054819D02*
X139345238Y-70054819D01*
X139345238Y-70054819D02*
X139345238Y-69054819D01*
X139345238Y-69054819D02*
X139821428Y-69054819D01*
X140583333Y-69531009D02*
X140250000Y-69531009D01*
X140250000Y-70054819D02*
X140250000Y-69054819D01*
X140250000Y-69054819D02*
X140726190Y-69054819D01*
X141250000Y-69054819D02*
X141250000Y-69292914D01*
X141011905Y-69197676D02*
X141250000Y-69292914D01*
X141250000Y-69292914D02*
X141488095Y-69197676D01*
X141107143Y-69483390D02*
X141250000Y-69292914D01*
X141250000Y-69292914D02*
X141392857Y-69483390D01*
X142011905Y-69054819D02*
X142011905Y-69292914D01*
X141773810Y-69197676D02*
X142011905Y-69292914D01*
X142011905Y-69292914D02*
X142250000Y-69197676D01*
X141869048Y-69483390D02*
X142011905Y-69292914D01*
X142011905Y-69292914D02*
X142154762Y-69483390D01*
X83416666Y-70054819D02*
X83083333Y-69578628D01*
X82845238Y-70054819D02*
X82845238Y-69054819D01*
X82845238Y-69054819D02*
X83226190Y-69054819D01*
X83226190Y-69054819D02*
X83321428Y-69102438D01*
X83321428Y-69102438D02*
X83369047Y-69150057D01*
X83369047Y-69150057D02*
X83416666Y-69245295D01*
X83416666Y-69245295D02*
X83416666Y-69388152D01*
X83416666Y-69388152D02*
X83369047Y-69483390D01*
X83369047Y-69483390D02*
X83321428Y-69531009D01*
X83321428Y-69531009D02*
X83226190Y-69578628D01*
X83226190Y-69578628D02*
X82845238Y-69578628D01*
X83845238Y-69531009D02*
X84178571Y-69531009D01*
X84321428Y-70054819D02*
X83845238Y-70054819D01*
X83845238Y-70054819D02*
X83845238Y-69054819D01*
X83845238Y-69054819D02*
X84321428Y-69054819D01*
X85083333Y-69531009D02*
X84750000Y-69531009D01*
X84750000Y-70054819D02*
X84750000Y-69054819D01*
X84750000Y-69054819D02*
X85226190Y-69054819D01*
X85750000Y-69054819D02*
X85750000Y-69292914D01*
X85511905Y-69197676D02*
X85750000Y-69292914D01*
X85750000Y-69292914D02*
X85988095Y-69197676D01*
X85607143Y-69483390D02*
X85750000Y-69292914D01*
X85750000Y-69292914D02*
X85892857Y-69483390D01*
X86511905Y-69054819D02*
X86511905Y-69292914D01*
X86273810Y-69197676D02*
X86511905Y-69292914D01*
X86511905Y-69292914D02*
X86750000Y-69197676D01*
X86369048Y-69483390D02*
X86511905Y-69292914D01*
X86511905Y-69292914D02*
X86654762Y-69483390D01*
X111454819Y-71345238D02*
X110978628Y-71678571D01*
X111454819Y-71916666D02*
X110454819Y-71916666D01*
X110454819Y-71916666D02*
X110454819Y-71535714D01*
X110454819Y-71535714D02*
X110502438Y-71440476D01*
X110502438Y-71440476D02*
X110550057Y-71392857D01*
X110550057Y-71392857D02*
X110645295Y-71345238D01*
X110645295Y-71345238D02*
X110788152Y-71345238D01*
X110788152Y-71345238D02*
X110883390Y-71392857D01*
X110883390Y-71392857D02*
X110931009Y-71440476D01*
X110931009Y-71440476D02*
X110978628Y-71535714D01*
X110978628Y-71535714D02*
X110978628Y-71916666D01*
X110454819Y-71059523D02*
X111454819Y-70726190D01*
X111454819Y-70726190D02*
X110454819Y-70392857D01*
X111454819Y-69535714D02*
X111454819Y-70107142D01*
X111454819Y-69821428D02*
X110454819Y-69821428D01*
X110454819Y-69821428D02*
X110597676Y-69916666D01*
X110597676Y-69916666D02*
X110692914Y-70011904D01*
X110692914Y-70011904D02*
X110740533Y-70107142D01*
X138666666Y-61304819D02*
X138333333Y-60828628D01*
X138095238Y-61304819D02*
X138095238Y-60304819D01*
X138095238Y-60304819D02*
X138476190Y-60304819D01*
X138476190Y-60304819D02*
X138571428Y-60352438D01*
X138571428Y-60352438D02*
X138619047Y-60400057D01*
X138619047Y-60400057D02*
X138666666Y-60495295D01*
X138666666Y-60495295D02*
X138666666Y-60638152D01*
X138666666Y-60638152D02*
X138619047Y-60733390D01*
X138619047Y-60733390D02*
X138571428Y-60781009D01*
X138571428Y-60781009D02*
X138476190Y-60828628D01*
X138476190Y-60828628D02*
X138095238Y-60828628D01*
X139095238Y-60781009D02*
X139428571Y-60781009D01*
X139571428Y-61304819D02*
X139095238Y-61304819D01*
X139095238Y-61304819D02*
X139095238Y-60304819D01*
X139095238Y-60304819D02*
X139571428Y-60304819D01*
X140333333Y-60781009D02*
X140000000Y-60781009D01*
X140000000Y-61304819D02*
X140000000Y-60304819D01*
X140000000Y-60304819D02*
X140476190Y-60304819D01*
X141000000Y-60304819D02*
X141000000Y-60542914D01*
X140761905Y-60447676D02*
X141000000Y-60542914D01*
X141000000Y-60542914D02*
X141238095Y-60447676D01*
X140857143Y-60733390D02*
X141000000Y-60542914D01*
X141000000Y-60542914D02*
X141142857Y-60733390D01*
X141761905Y-60304819D02*
X141761905Y-60542914D01*
X141523810Y-60447676D02*
X141761905Y-60542914D01*
X141761905Y-60542914D02*
X142000000Y-60447676D01*
X141619048Y-60733390D02*
X141761905Y-60542914D01*
X141761905Y-60542914D02*
X141904762Y-60733390D01*
X83666666Y-61304819D02*
X83333333Y-60828628D01*
X83095238Y-61304819D02*
X83095238Y-60304819D01*
X83095238Y-60304819D02*
X83476190Y-60304819D01*
X83476190Y-60304819D02*
X83571428Y-60352438D01*
X83571428Y-60352438D02*
X83619047Y-60400057D01*
X83619047Y-60400057D02*
X83666666Y-60495295D01*
X83666666Y-60495295D02*
X83666666Y-60638152D01*
X83666666Y-60638152D02*
X83619047Y-60733390D01*
X83619047Y-60733390D02*
X83571428Y-60781009D01*
X83571428Y-60781009D02*
X83476190Y-60828628D01*
X83476190Y-60828628D02*
X83095238Y-60828628D01*
X84095238Y-60781009D02*
X84428571Y-60781009D01*
X84571428Y-61304819D02*
X84095238Y-61304819D01*
X84095238Y-61304819D02*
X84095238Y-60304819D01*
X84095238Y-60304819D02*
X84571428Y-60304819D01*
X85333333Y-60781009D02*
X85000000Y-60781009D01*
X85000000Y-61304819D02*
X85000000Y-60304819D01*
X85000000Y-60304819D02*
X85476190Y-60304819D01*
X86000000Y-60304819D02*
X86000000Y-60542914D01*
X85761905Y-60447676D02*
X86000000Y-60542914D01*
X86000000Y-60542914D02*
X86238095Y-60447676D01*
X85857143Y-60733390D02*
X86000000Y-60542914D01*
X86000000Y-60542914D02*
X86142857Y-60733390D01*
X86761905Y-60304819D02*
X86761905Y-60542914D01*
X86523810Y-60447676D02*
X86761905Y-60542914D01*
X86761905Y-60542914D02*
X87000000Y-60447676D01*
X86619048Y-60733390D02*
X86761905Y-60542914D01*
X86761905Y-60542914D02*
X86904762Y-60733390D01*
X111804819Y-85639285D02*
X110804819Y-85639285D01*
X110804819Y-85639285D02*
X110804819Y-85258333D01*
X110804819Y-85258333D02*
X110852438Y-85163095D01*
X110852438Y-85163095D02*
X110900057Y-85115476D01*
X110900057Y-85115476D02*
X110995295Y-85067857D01*
X110995295Y-85067857D02*
X111138152Y-85067857D01*
X111138152Y-85067857D02*
X111233390Y-85115476D01*
X111233390Y-85115476D02*
X111281009Y-85163095D01*
X111281009Y-85163095D02*
X111328628Y-85258333D01*
X111328628Y-85258333D02*
X111328628Y-85639285D01*
X111804819Y-84115476D02*
X111804819Y-84686904D01*
X111804819Y-84401190D02*
X110804819Y-84401190D01*
X110804819Y-84401190D02*
X110947676Y-84496428D01*
X110947676Y-84496428D02*
X111042914Y-84591666D01*
X111042914Y-84591666D02*
X111090533Y-84686904D01*
X110804819Y-83496428D02*
X110804819Y-83401190D01*
X110804819Y-83401190D02*
X110852438Y-83305952D01*
X110852438Y-83305952D02*
X110900057Y-83258333D01*
X110900057Y-83258333D02*
X110995295Y-83210714D01*
X110995295Y-83210714D02*
X111185771Y-83163095D01*
X111185771Y-83163095D02*
X111423866Y-83163095D01*
X111423866Y-83163095D02*
X111614342Y-83210714D01*
X111614342Y-83210714D02*
X111709580Y-83258333D01*
X111709580Y-83258333D02*
X111757200Y-83305952D01*
X111757200Y-83305952D02*
X111804819Y-83401190D01*
X111804819Y-83401190D02*
X111804819Y-83496428D01*
X111804819Y-83496428D02*
X111757200Y-83591666D01*
X111757200Y-83591666D02*
X111709580Y-83639285D01*
X111709580Y-83639285D02*
X111614342Y-83686904D01*
X111614342Y-83686904D02*
X111423866Y-83734523D01*
X111423866Y-83734523D02*
X111185771Y-83734523D01*
X111185771Y-83734523D02*
X110995295Y-83686904D01*
X110995295Y-83686904D02*
X110900057Y-83639285D01*
X110900057Y-83639285D02*
X110852438Y-83591666D01*
X110852438Y-83591666D02*
X110804819Y-83496428D01*
X138634819Y-84798333D02*
X139349104Y-84798333D01*
X139349104Y-84798333D02*
X139491961Y-84845952D01*
X139491961Y-84845952D02*
X139587200Y-84941190D01*
X139587200Y-84941190D02*
X139634819Y-85084047D01*
X139634819Y-85084047D02*
X139634819Y-85179285D01*
X138730057Y-84369761D02*
X138682438Y-84322142D01*
X138682438Y-84322142D02*
X138634819Y-84226904D01*
X138634819Y-84226904D02*
X138634819Y-83988809D01*
X138634819Y-83988809D02*
X138682438Y-83893571D01*
X138682438Y-83893571D02*
X138730057Y-83845952D01*
X138730057Y-83845952D02*
X138825295Y-83798333D01*
X138825295Y-83798333D02*
X138920533Y-83798333D01*
X138920533Y-83798333D02*
X139063390Y-83845952D01*
X139063390Y-83845952D02*
X139634819Y-84417380D01*
X139634819Y-84417380D02*
X139634819Y-83798333D01*
X99906666Y-57574819D02*
X99906666Y-58289104D01*
X99906666Y-58289104D02*
X99859047Y-58431961D01*
X99859047Y-58431961D02*
X99763809Y-58527200D01*
X99763809Y-58527200D02*
X99620952Y-58574819D01*
X99620952Y-58574819D02*
X99525714Y-58574819D01*
X100906666Y-58574819D02*
X100335238Y-58574819D01*
X100620952Y-58574819D02*
X100620952Y-57574819D01*
X100620952Y-57574819D02*
X100525714Y-57717676D01*
X100525714Y-57717676D02*
X100430476Y-57812914D01*
X100430476Y-57812914D02*
X100335238Y-57860533D01*
X93634819Y-69166666D02*
X93158628Y-69499999D01*
X93634819Y-69738094D02*
X92634819Y-69738094D01*
X92634819Y-69738094D02*
X92634819Y-69357142D01*
X92634819Y-69357142D02*
X92682438Y-69261904D01*
X92682438Y-69261904D02*
X92730057Y-69214285D01*
X92730057Y-69214285D02*
X92825295Y-69166666D01*
X92825295Y-69166666D02*
X92968152Y-69166666D01*
X92968152Y-69166666D02*
X93063390Y-69214285D01*
X93063390Y-69214285D02*
X93111009Y-69261904D01*
X93111009Y-69261904D02*
X93158628Y-69357142D01*
X93158628Y-69357142D02*
X93158628Y-69738094D01*
X93634819Y-68214285D02*
X93634819Y-68785713D01*
X93634819Y-68499999D02*
X92634819Y-68499999D01*
X92634819Y-68499999D02*
X92777676Y-68595237D01*
X92777676Y-68595237D02*
X92872914Y-68690475D01*
X92872914Y-68690475D02*
X92920533Y-68785713D01*
D11*
%TO.C,C1*%
X92768748Y-74590000D02*
X94191252Y-74590000D01*
X92768748Y-76410000D02*
X94191252Y-76410000D01*
%TO.C,C2*%
X93103733Y-72740000D02*
X93396267Y-72740000D01*
X93103733Y-73760000D02*
X93396267Y-73760000D01*
%TO.C,RV1*%
X112130000Y-81671000D02*
X121870000Y-81671000D01*
X112130000Y-81671000D02*
X112130000Y-65630000D01*
X121870000Y-81671000D02*
X121870000Y-65630000D01*
X112130000Y-65630000D02*
X121870000Y-65630000D01*
X113380000Y-65630000D02*
X113380000Y-58630000D01*
X120620000Y-65630000D02*
X120620000Y-58630000D01*
X113380000Y-58630000D02*
X120620000Y-58630000D01*
X113880000Y-58630000D02*
X113880000Y-45630000D01*
X120120000Y-58630000D02*
X120120000Y-45630000D01*
X113880000Y-45630000D02*
X120120000Y-45630000D01*
%TO.C,P10*%
X87340000Y-91600000D02*
X87340000Y-82480000D01*
X110460000Y-91600000D02*
X87340000Y-91600000D01*
X87340000Y-82480000D02*
X110460000Y-82480000D01*
X96850000Y-82480000D02*
X96850000Y-91600000D01*
X100950000Y-82480000D02*
X100950000Y-91600000D01*
X110460000Y-82480000D02*
X110460000Y-91600000D01*
X105250000Y-76860000D02*
X105750000Y-75860000D01*
X104750000Y-75860000D02*
X105250000Y-76860000D01*
X105750000Y-75860000D02*
X104750000Y-75860000D01*
%TO.C,J2*%
X133580000Y-75900000D02*
X132580000Y-75900000D01*
X132580000Y-75900000D02*
X133080000Y-76900000D01*
X133080000Y-76900000D02*
X133580000Y-75900000D01*
X138290000Y-82520000D02*
X138290000Y-91640000D01*
X132590000Y-82520000D02*
X132590000Y-91640000D01*
X128490000Y-82520000D02*
X128490000Y-91640000D01*
X122790000Y-82520000D02*
X138290000Y-82520000D01*
X138290000Y-91640000D02*
X122790000Y-91640000D01*
X122790000Y-91640000D02*
X122790000Y-82520000D01*
%TO.C,J1*%
X94170000Y-60850000D02*
X94170000Y-65300000D01*
X94170000Y-66700000D02*
X94170000Y-69000000D01*
X94170000Y-70400000D02*
X94170000Y-71120000D01*
X94170000Y-71120000D02*
X96850000Y-71120000D01*
X95650000Y-59480000D02*
X96510000Y-59480000D01*
X99150000Y-71120000D02*
X102820000Y-71120000D01*
X105120000Y-71120000D02*
X106350000Y-71120000D01*
X106350000Y-71120000D02*
X106350000Y-61300000D01*
%TO.C,R1*%
X92272500Y-68745276D02*
X92272500Y-69254724D01*
X91227500Y-68745276D02*
X91227500Y-69254724D01*
%TD*%
%LPC*%
D12*
%TO.C,C1*%
X91917500Y-75500000D03*
X95042500Y-75500000D03*
%TD*%
D13*
%TO.C,C2*%
X92387500Y-73250000D03*
X94112500Y-73250000D03*
%TD*%
D14*
%TO.C,REF\u002A\u002A*%
X140250000Y-73750000D03*
%TD*%
%TO.C,REF\u002A\u002A*%
X84750000Y-73750000D03*
%TD*%
D15*
%TO.C,RV1*%
X114500000Y-79500000D03*
X119500000Y-79500000D03*
X114500000Y-73250000D03*
X117000000Y-73250000D03*
X119500000Y-73250000D03*
X114500000Y-70750000D03*
X117000000Y-70750000D03*
D16*
X119500000Y-70750000D03*
%TD*%
D14*
%TO.C,REF\u002A\u002A*%
X140000000Y-65000000D03*
%TD*%
%TO.C,REF\u002A\u002A*%
X85000000Y-65000000D03*
%TD*%
D17*
%TO.C,P10*%
X92550000Y-80750000D03*
X92550000Y-78210000D03*
X95090000Y-80750000D03*
X95090000Y-78210000D03*
X97630000Y-80750000D03*
X97630000Y-78210000D03*
X100170000Y-80750000D03*
X100170000Y-78210000D03*
X102710000Y-80750000D03*
X102710000Y-78210000D03*
X105250000Y-80750000D03*
D18*
X105250000Y-78210000D03*
%TD*%
%TO.C,J2*%
X133080000Y-78250000D03*
D17*
X133080000Y-80790000D03*
X130540000Y-78250000D03*
X130540000Y-80790000D03*
X128000000Y-78250000D03*
X128000000Y-80790000D03*
%TD*%
D19*
%TO.C,J1*%
X97135000Y-59850000D03*
X98235000Y-59850000D03*
X99335000Y-59850000D03*
X100435000Y-59850000D03*
X101535000Y-59850000D03*
X102635000Y-59850000D03*
X103735000Y-59850000D03*
D20*
X104785000Y-59850000D03*
D21*
X94500000Y-66000000D03*
X94500000Y-69700000D03*
D22*
X94675000Y-59975000D03*
D23*
X98000000Y-70675000D03*
X103970000Y-70675000D03*
D24*
X105995000Y-60200000D03*
%TD*%
D25*
%TO.C,R1*%
X91750000Y-68087500D03*
X91750000Y-69912500D03*
%TD*%
%LPD*%
M02*
