%TF.GenerationSoftware,KiCad,Pcbnew,9.0.3+dfsg-1*%
%TF.CreationDate,2026-03-15T14:09:02+01:00*%
%TF.ProjectId,sdcardext,73646361-7264-4657-9874-2e6b69636164,rev?*%
%TF.SameCoordinates,Original*%
%TF.FileFunction,Copper,L2,Bot*%
%TF.FilePolarity,Positive*%
%FSLAX46Y46*%
G04 Gerber Fmt 4.6, Leading zero omitted, Abs format (unit mm)*
G04 Created by KiCad (PCBNEW 9.0.3+dfsg-1) date 2026-03-15 14:09:02*
%MOMM*%
%LPD*%
G01*
G04 APERTURE LIST*
G04 Aperture macros list*
%AMRoundRect*
0 Rectangle with rounded corners*
0 $1 Rounding radius*
0 $2 $3 $4 $5 $6 $7 $8 $9 X,Y pos of 4 corners*
0 Add a 4 corners polygon primitive as box body*
4,1,4,$2,$3,$4,$5,$6,$7,$8,$9,$2,$3,0*
0 Add four circle primitives for the rounded corners*
1,1,$1+$1,$2,$3*
1,1,$1+$1,$4,$5*
1,1,$1+$1,$6,$7*
1,1,$1+$1,$8,$9*
0 Add four rect primitives between the rounded corners*
20,1,$1+$1,$2,$3,$4,$5,0*
20,1,$1+$1,$4,$5,$6,$7,0*
20,1,$1+$1,$6,$7,$8,$9,0*
20,1,$1+$1,$8,$9,$2,$3,0*%
G04 Aperture macros list end*
%TA.AperFunction,ComponentPad*%
%ADD10C,1.800000*%
%TD*%
%TA.AperFunction,ComponentPad*%
%ADD11RoundRect,0.450000X0.450000X-0.450000X0.450000X0.450000X-0.450000X0.450000X-0.450000X-0.450000X0*%
%TD*%
%TA.AperFunction,ComponentPad*%
%ADD12C,1.700000*%
%TD*%
%TA.AperFunction,ComponentPad*%
%ADD13RoundRect,0.250000X-0.600000X0.600000X-0.600000X-0.600000X0.600000X-0.600000X0.600000X0.600000X0*%
%TD*%
%TA.AperFunction,ViaPad*%
%ADD14C,0.600000*%
%TD*%
%TA.AperFunction,Conductor*%
%ADD15C,0.400000*%
%TD*%
%TA.AperFunction,Conductor*%
%ADD16C,0.200000*%
%TD*%
G04 APERTURE END LIST*
D10*
%TO.P,RV1,8*%
%TO.N,N/C*%
X114500000Y-79500000D03*
%TO.P,RV1,7*%
X119500000Y-79500000D03*
%TO.P,RV1,6,6*%
%TO.N,Net-(J2-Pin_6)*%
X114500000Y-73250000D03*
%TO.P,RV1,5,5*%
%TO.N,Net-(J2-Pin_4)*%
X117000000Y-73250000D03*
%TO.P,RV1,4,4*%
%TO.N,Net-(J2-Pin_2)*%
X119500000Y-73250000D03*
%TO.P,RV1,3,3*%
%TO.N,Net-(J2-Pin_1)*%
X114500000Y-70750000D03*
%TO.P,RV1,2,2*%
%TO.N,Net-(J2-Pin_3)*%
X117000000Y-70750000D03*
D11*
%TO.P,RV1,1,1*%
%TO.N,Net-(J2-Pin_5)*%
X119500000Y-70750000D03*
%TD*%
D12*
%TO.P,P10,12,V33*%
%TO.N,VCC*%
X92550000Y-80750000D03*
%TO.P,P10,11,V33*%
X92550000Y-78210000D03*
%TO.P,P10,10,GND*%
%TO.N,GNDD*%
X95090000Y-80750000D03*
%TO.P,P10,9,GND*%
X95090000Y-78210000D03*
%TO.P,P10,8*%
%TO.N,N/C*%
X97630000Y-80750000D03*
%TO.P,P10,7,SCK*%
%TO.N,Net-(J1-CLK)*%
X97630000Y-78210000D03*
%TO.P,P10,6,CD*%
%TO.N,Net-(J1-DET_A)*%
X100170000Y-80750000D03*
%TO.P,P10,5,MISO\u002CD0*%
%TO.N,Net-(J1-DAT0)*%
X100170000Y-78210000D03*
%TO.P,P10,4,D2*%
%TO.N,Net-(J1-DAT2)*%
X102710000Y-80750000D03*
%TO.P,P10,3,MOSI\u002CCMD*%
%TO.N,Net-(J1-CMD)*%
X102710000Y-78210000D03*
%TO.P,P10,2,D1*%
%TO.N,Net-(J1-DAT1)*%
X105250000Y-80750000D03*
D13*
%TO.P,P10,1,/CS\u002CD3*%
%TO.N,Net-(J1-DAT3{slash}CD)*%
X105250000Y-78210000D03*
%TD*%
%TO.P,J2,1,Pin_1*%
%TO.N,Net-(J2-Pin_1)*%
X133080000Y-78250000D03*
D12*
%TO.P,J2,2,Pin_2*%
%TO.N,Net-(J2-Pin_2)*%
X133080000Y-80790000D03*
%TO.P,J2,3,Pin_3*%
%TO.N,Net-(J2-Pin_3)*%
X130540000Y-78250000D03*
%TO.P,J2,4,Pin_4*%
%TO.N,Net-(J2-Pin_4)*%
X130540000Y-80790000D03*
%TO.P,J2,5,Pin_5*%
%TO.N,Net-(J2-Pin_5)*%
X128000000Y-78250000D03*
%TO.P,J2,6,Pin_6*%
%TO.N,Net-(J2-Pin_6)*%
X128000000Y-80790000D03*
%TD*%
D14*
%TO.N,unconnected-(J1-SHIELD-Pad11)*%
X95000000Y-61250000D03*
X96500000Y-70500000D03*
%TO.N,Net-(J1-DET_A)*%
X94250000Y-71000000D03*
%TO.N,Net-(J1-DAT1)*%
X104750000Y-62000000D03*
%TO.N,Net-(J1-DAT0)*%
X103750000Y-61250000D03*
%TO.N,Net-(J1-CLK)*%
X101312169Y-61062169D03*
%TO.N,Net-(J1-CMD)*%
X99120000Y-74250000D03*
X99250000Y-61250000D03*
%TO.N,Net-(J1-DAT3{slash}CD)*%
X98250000Y-62000000D03*
X98250000Y-73750000D03*
%TO.N,Net-(J1-DAT2)*%
X97250000Y-61250000D03*
X97250000Y-74750000D03*
%TD*%
D15*
%TO.N,unconnected-(J1-SHIELD-Pad11)*%
X95000000Y-61250000D02*
X95000000Y-69000000D01*
X95000000Y-69000000D02*
X96500000Y-70500000D01*
D16*
%TO.N,Net-(J1-DET_A)*%
X96479000Y-78686760D02*
X97391240Y-79599000D01*
X94250000Y-71000000D02*
X96479000Y-73229000D01*
X96479000Y-73229000D02*
X96479000Y-78686760D01*
X97391240Y-79599000D02*
X99019000Y-79599000D01*
X99019000Y-79599000D02*
X100170000Y-80750000D01*
%TO.N,Net-(J1-CLK)*%
X101500000Y-61250000D02*
X101312169Y-61062169D01*
X101500000Y-74340000D02*
X101500000Y-61250000D01*
X97630000Y-78210000D02*
X101500000Y-74340000D01*
%TO.N,Net-(J1-DAT1)*%
X104099000Y-62651000D02*
X104099000Y-79599000D01*
X104750000Y-62000000D02*
X104099000Y-62651000D01*
X104099000Y-79599000D02*
X105250000Y-80750000D01*
%TO.N,Net-(J1-CMD)*%
X99500000Y-61500000D02*
X99500000Y-64368629D01*
X99120000Y-64748629D02*
X99120000Y-74250000D01*
%TO.N,Net-(J1-DAT0)*%
X103750000Y-61250000D02*
X103500000Y-61500000D01*
%TO.N,Net-(J1-CMD)*%
X99500000Y-64368629D02*
X99120000Y-64748629D01*
X99250000Y-61250000D02*
X99500000Y-61500000D01*
%TO.N,Net-(J1-DAT0)*%
X103500000Y-61500000D02*
X103500000Y-74880000D01*
X103500000Y-74880000D02*
X100170000Y-78210000D01*
%TO.N,Net-(J1-DAT3{slash}CD)*%
X98250000Y-62000000D02*
X98250000Y-73750000D01*
%TO.N,Net-(J1-DAT2)*%
X97250000Y-61250000D02*
X97250000Y-74750000D01*
%TD*%
M02*
