%TF.GenerationSoftware,KiCad,Pcbnew,9.0.3+dfsg-1*%
%TF.CreationDate,2026-03-15T14:09:02+01:00*%
%TF.ProjectId,sdcardext,73646361-7264-4657-9874-2e6b69636164,rev?*%
%TF.SameCoordinates,Original*%
%TF.FileFunction,Soldermask,Top*%
%TF.FilePolarity,Negative*%
%FSLAX46Y46*%
G04 Gerber Fmt 4.6, Leading zero omitted, Abs format (unit mm)*
G04 Created by KiCad (PCBNEW 9.0.3+dfsg-1) date 2026-03-15 14:09:02*
%MOMM*%
%LPD*%
G01*
G04 APERTURE LIST*
G04 Aperture macros list*
%AMRoundRect*
0 Rectangle with rounded corners*
0 $1 Rounding radius*
0 $2 $3 $4 $5 $6 $7 $8 $9 X,Y pos of 4 corners*
0 Add a 4 corners polygon primitive as box body*
4,1,4,$2,$3,$4,$5,$6,$7,$8,$9,$2,$3,0*
0 Add four circle primitives for the rounded corners*
1,1,$1+$1,$2,$3*
1,1,$1+$1,$4,$5*
1,1,$1+$1,$6,$7*
1,1,$1+$1,$8,$9*
0 Add four rect primitives between the rounded corners*
20,1,$1+$1,$2,$3,$4,$5,0*
20,1,$1+$1,$4,$5,$6,$7,0*
20,1,$1+$1,$6,$7,$8,$9,0*
20,1,$1+$1,$8,$9,$2,$3,0*%
G04 Aperture macros list end*
%ADD10RoundRect,0.250000X-0.412500X-0.650000X0.412500X-0.650000X0.412500X0.650000X-0.412500X0.650000X0*%
%ADD11RoundRect,0.237500X-0.300000X-0.237500X0.300000X-0.237500X0.300000X0.237500X-0.300000X0.237500X0*%
%ADD12C,1.800000*%
%ADD13RoundRect,0.450000X0.450000X-0.450000X0.450000X0.450000X-0.450000X0.450000X-0.450000X-0.450000X0*%
%ADD14C,1.700000*%
%ADD15RoundRect,0.250000X-0.600000X0.600000X-0.600000X-0.600000X0.600000X-0.600000X0.600000X0.600000X0*%
%ADD16R,0.850000X1.100000*%
%ADD17R,0.750000X1.100000*%
%ADD18R,1.200000X1.000000*%
%ADD19R,1.550000X1.350000*%
%ADD20R,1.900000X1.350000*%
%ADD21R,1.170000X1.800000*%
%ADD22RoundRect,0.237500X-0.237500X0.250000X-0.237500X-0.250000X0.237500X-0.250000X0.237500X0.250000X0*%
G04 APERTURE END LIST*
D10*
%TO.C,C1*%
X91917500Y-75500000D03*
X95042500Y-75500000D03*
%TD*%
D11*
%TO.C,C2*%
X92387500Y-73250000D03*
X94112500Y-73250000D03*
%TD*%
D12*
%TO.C,RV1*%
X114500000Y-79500000D03*
X119500000Y-79500000D03*
X114500000Y-73250000D03*
X117000000Y-73250000D03*
X119500000Y-73250000D03*
X114500000Y-70750000D03*
X117000000Y-70750000D03*
D13*
X119500000Y-70750000D03*
%TD*%
D14*
%TO.C,P10*%
X92550000Y-80750000D03*
X92550000Y-78210000D03*
X95090000Y-80750000D03*
X95090000Y-78210000D03*
X97630000Y-80750000D03*
X97630000Y-78210000D03*
X100170000Y-80750000D03*
X100170000Y-78210000D03*
X102710000Y-80750000D03*
X102710000Y-78210000D03*
X105250000Y-80750000D03*
D15*
X105250000Y-78210000D03*
%TD*%
%TO.C,J2*%
X133080000Y-78250000D03*
D14*
X133080000Y-80790000D03*
X130540000Y-78250000D03*
X130540000Y-80790000D03*
X128000000Y-78250000D03*
X128000000Y-80790000D03*
%TD*%
D16*
%TO.C,J1*%
X97135000Y-59850000D03*
X98235000Y-59850000D03*
X99335000Y-59850000D03*
X100435000Y-59850000D03*
X101535000Y-59850000D03*
X102635000Y-59850000D03*
X103735000Y-59850000D03*
D17*
X104785000Y-59850000D03*
D18*
X94500000Y-66000000D03*
X94500000Y-69700000D03*
D19*
X94675000Y-59975000D03*
D20*
X98000000Y-70675000D03*
X103970000Y-70675000D03*
D21*
X105995000Y-60200000D03*
%TD*%
D22*
%TO.C,R1*%
X91750000Y-68087500D03*
X91750000Y-69912500D03*
%TD*%
M02*
