%TF.GenerationSoftware,KiCad,Pcbnew,9.0.3+dfsg-1*%
%TF.CreationDate,2026-03-15T14:09:02+01:00*%
%TF.ProjectId,sdcardext,73646361-7264-4657-9874-2e6b69636164,rev?*%
%TF.SameCoordinates,Original*%
%TF.FileFunction,Copper,L1,Top*%
%TF.FilePolarity,Positive*%
%FSLAX46Y46*%
G04 Gerber Fmt 4.6, Leading zero omitted, Abs format (unit mm)*
G04 Created by KiCad (PCBNEW 9.0.3+dfsg-1) date 2026-03-15 14:09:02*
%MOMM*%
%LPD*%
G01*
G04 APERTURE LIST*
G04 Aperture macros list*
%AMRoundRect*
0 Rectangle with rounded corners*
0 $1 Rounding radius*
0 $2 $3 $4 $5 $6 $7 $8 $9 X,Y pos of 4 corners*
0 Add a 4 corners polygon primitive as box body*
4,1,4,$2,$3,$4,$5,$6,$7,$8,$9,$2,$3,0*
0 Add four circle primitives for the rounded corners*
1,1,$1+$1,$2,$3*
1,1,$1+$1,$4,$5*
1,1,$1+$1,$6,$7*
1,1,$1+$1,$8,$9*
0 Add four rect primitives between the rounded corners*
20,1,$1+$1,$2,$3,$4,$5,0*
20,1,$1+$1,$4,$5,$6,$7,0*
20,1,$1+$1,$6,$7,$8,$9,0*
20,1,$1+$1,$8,$9,$2,$3,0*%
G04 Aperture macros list end*
%TA.AperFunction,SMDPad,CuDef*%
%ADD10RoundRect,0.250000X-0.412500X-0.650000X0.412500X-0.650000X0.412500X0.650000X-0.412500X0.650000X0*%
%TD*%
%TA.AperFunction,SMDPad,CuDef*%
%ADD11RoundRect,0.237500X-0.300000X-0.237500X0.300000X-0.237500X0.300000X0.237500X-0.300000X0.237500X0*%
%TD*%
%TA.AperFunction,ComponentPad*%
%ADD12C,1.800000*%
%TD*%
%TA.AperFunction,ComponentPad*%
%ADD13RoundRect,0.450000X0.450000X-0.450000X0.450000X0.450000X-0.450000X0.450000X-0.450000X-0.450000X0*%
%TD*%
%TA.AperFunction,ComponentPad*%
%ADD14C,1.700000*%
%TD*%
%TA.AperFunction,ComponentPad*%
%ADD15RoundRect,0.250000X-0.600000X0.600000X-0.600000X-0.600000X0.600000X-0.600000X0.600000X0.600000X0*%
%TD*%
%TA.AperFunction,SMDPad,CuDef*%
%ADD16R,0.850000X1.100000*%
%TD*%
%TA.AperFunction,SMDPad,CuDef*%
%ADD17R,0.750000X1.100000*%
%TD*%
%TA.AperFunction,SMDPad,CuDef*%
%ADD18R,1.200000X1.000000*%
%TD*%
%TA.AperFunction,SMDPad,CuDef*%
%ADD19R,1.550000X1.350000*%
%TD*%
%TA.AperFunction,SMDPad,CuDef*%
%ADD20R,1.900000X1.350000*%
%TD*%
%TA.AperFunction,SMDPad,CuDef*%
%ADD21R,1.170000X1.800000*%
%TD*%
%TA.AperFunction,SMDPad,CuDef*%
%ADD22RoundRect,0.237500X-0.237500X0.250000X-0.237500X-0.250000X0.237500X-0.250000X0.237500X0.250000X0*%
%TD*%
%TA.AperFunction,ViaPad*%
%ADD23C,0.600000*%
%TD*%
%TA.AperFunction,Conductor*%
%ADD24C,0.400000*%
%TD*%
%TA.AperFunction,Conductor*%
%ADD25C,0.200000*%
%TD*%
G04 APERTURE END LIST*
D10*
%TO.P,C1,1*%
%TO.N,VCC*%
X91917500Y-75500000D03*
%TO.P,C1,2*%
%TO.N,GNDD*%
X95042500Y-75500000D03*
%TD*%
D11*
%TO.P,C2,1*%
%TO.N,VCC*%
X92387500Y-73250000D03*
%TO.P,C2,2*%
%TO.N,GNDD*%
X94112500Y-73250000D03*
%TD*%
D12*
%TO.P,RV1,8*%
%TO.N,N/C*%
X114500000Y-79500000D03*
%TO.P,RV1,7*%
X119500000Y-79500000D03*
%TO.P,RV1,6,6*%
%TO.N,Net-(J2-Pin_6)*%
X114500000Y-73250000D03*
%TO.P,RV1,5,5*%
%TO.N,Net-(J2-Pin_4)*%
X117000000Y-73250000D03*
%TO.P,RV1,4,4*%
%TO.N,Net-(J2-Pin_2)*%
X119500000Y-73250000D03*
%TO.P,RV1,3,3*%
%TO.N,Net-(J2-Pin_1)*%
X114500000Y-70750000D03*
%TO.P,RV1,2,2*%
%TO.N,Net-(J2-Pin_3)*%
X117000000Y-70750000D03*
D13*
%TO.P,RV1,1,1*%
%TO.N,Net-(J2-Pin_5)*%
X119500000Y-70750000D03*
%TD*%
D14*
%TO.P,P10,12,V33*%
%TO.N,VCC*%
X92550000Y-80750000D03*
%TO.P,P10,11,V33*%
X92550000Y-78210000D03*
%TO.P,P10,10,GND*%
%TO.N,GNDD*%
X95090000Y-80750000D03*
%TO.P,P10,9,GND*%
X95090000Y-78210000D03*
%TO.P,P10,8*%
%TO.N,N/C*%
X97630000Y-80750000D03*
%TO.P,P10,7,SCK*%
%TO.N,Net-(J1-CLK)*%
X97630000Y-78210000D03*
%TO.P,P10,6,CD*%
%TO.N,Net-(J1-DET_A)*%
X100170000Y-80750000D03*
%TO.P,P10,5,MISO\u002CD0*%
%TO.N,Net-(J1-DAT0)*%
X100170000Y-78210000D03*
%TO.P,P10,4,D2*%
%TO.N,Net-(J1-DAT2)*%
X102710000Y-80750000D03*
%TO.P,P10,3,MOSI\u002CCMD*%
%TO.N,Net-(J1-CMD)*%
X102710000Y-78210000D03*
%TO.P,P10,2,D1*%
%TO.N,Net-(J1-DAT1)*%
X105250000Y-80750000D03*
D15*
%TO.P,P10,1,/CS\u002CD3*%
%TO.N,Net-(J1-DAT3{slash}CD)*%
X105250000Y-78210000D03*
%TD*%
%TO.P,J2,1,Pin_1*%
%TO.N,Net-(J2-Pin_1)*%
X133080000Y-78250000D03*
D14*
%TO.P,J2,2,Pin_2*%
%TO.N,Net-(J2-Pin_2)*%
X133080000Y-80790000D03*
%TO.P,J2,3,Pin_3*%
%TO.N,Net-(J2-Pin_3)*%
X130540000Y-78250000D03*
%TO.P,J2,4,Pin_4*%
%TO.N,Net-(J2-Pin_4)*%
X130540000Y-80790000D03*
%TO.P,J2,5,Pin_5*%
%TO.N,Net-(J2-Pin_5)*%
X128000000Y-78250000D03*
%TO.P,J2,6,Pin_6*%
%TO.N,Net-(J2-Pin_6)*%
X128000000Y-80790000D03*
%TD*%
D16*
%TO.P,J1,1,DAT2*%
%TO.N,Net-(J1-DAT2)*%
X97135000Y-59850000D03*
%TO.P,J1,2,DAT3/CD*%
%TO.N,Net-(J1-DAT3{slash}CD)*%
X98235000Y-59850000D03*
%TO.P,J1,3,CMD*%
%TO.N,Net-(J1-CMD)*%
X99335000Y-59850000D03*
%TO.P,J1,4,VDD*%
%TO.N,VCC*%
X100435000Y-59850000D03*
%TO.P,J1,5,CLK*%
%TO.N,Net-(J1-CLK)*%
X101535000Y-59850000D03*
%TO.P,J1,6,VSS*%
%TO.N,GNDD*%
X102635000Y-59850000D03*
%TO.P,J1,7,DAT0*%
%TO.N,Net-(J1-DAT0)*%
X103735000Y-59850000D03*
D17*
%TO.P,J1,8,DAT1*%
%TO.N,Net-(J1-DAT1)*%
X104785000Y-59850000D03*
D18*
%TO.P,J1,9,DET_B*%
%TO.N,Net-(J1-DET_A)*%
X94500000Y-66000000D03*
%TO.P,J1,10,DET_A*%
X94500000Y-69700000D03*
D19*
%TO.P,J1,11,SHIELD*%
%TO.N,unconnected-(J1-SHIELD-Pad11)*%
X94675000Y-59975000D03*
D20*
X98000000Y-70675000D03*
X103970000Y-70675000D03*
D21*
X105995000Y-60200000D03*
%TD*%
D22*
%TO.P,R1,1*%
%TO.N,VCC*%
X91750000Y-68087500D03*
%TO.P,R1,2*%
%TO.N,Net-(J1-DET_A)*%
X91750000Y-69912500D03*
%TD*%
D23*
%TO.N,unconnected-(J1-SHIELD-Pad11)*%
X95000000Y-61250000D03*
X96500000Y-70500000D03*
%TO.N,Net-(J1-DET_A)*%
X94250000Y-71000000D03*
%TO.N,Net-(J1-DAT1)*%
X104750000Y-62000000D03*
%TO.N,Net-(J1-DAT0)*%
X103750000Y-61250000D03*
%TO.N,Net-(J1-CLK)*%
X101312169Y-61062169D03*
%TO.N,Net-(J1-CMD)*%
X99120000Y-74250000D03*
X99250000Y-61250000D03*
%TO.N,Net-(J1-DAT3{slash}CD)*%
X98250000Y-62000000D03*
X98250000Y-73750000D03*
%TO.N,Net-(J1-DAT2)*%
X97250000Y-61250000D03*
X97250000Y-74750000D03*
%TD*%
D24*
%TO.N,GNDD*%
X95090000Y-78210000D02*
X95042500Y-78162500D01*
X95042500Y-78162500D02*
X95042500Y-75500000D01*
X95042500Y-75500000D02*
X95042500Y-73792500D01*
X95042500Y-73792500D02*
X94878750Y-73628750D01*
%TO.N,VCC*%
X91917500Y-75500000D02*
X90660000Y-75500000D01*
X90660000Y-75500000D02*
X90250000Y-75910000D01*
%TO.N,GNDD*%
X95090000Y-78210000D02*
X95090000Y-80750000D01*
D25*
%TO.N,Net-(J2-Pin_6)*%
X114500000Y-73250000D02*
X115701000Y-72049000D01*
X115701000Y-72049000D02*
X117497471Y-72049000D01*
X117497471Y-72049000D02*
X118250000Y-72801529D01*
X118250000Y-72801529D02*
X118250000Y-73698471D01*
X118250000Y-73698471D02*
X125341529Y-80790000D01*
X125341529Y-80790000D02*
X128000000Y-80790000D01*
%TO.N,Net-(J2-Pin_4)*%
X117000000Y-73250000D02*
X125691000Y-81941000D01*
X125691000Y-81941000D02*
X129389000Y-81941000D01*
X129389000Y-81941000D02*
X130540000Y-80790000D01*
%TO.N,Net-(J2-Pin_2)*%
X119500000Y-73250000D02*
X125651000Y-79401000D01*
X125651000Y-79401000D02*
X131691000Y-79401000D01*
X131691000Y-79401000D02*
X133080000Y-80790000D01*
%TO.N,Net-(J2-Pin_1)*%
X114500000Y-70750000D02*
X116101000Y-69149000D01*
X116101000Y-69149000D02*
X123979000Y-69149000D01*
X123979000Y-69149000D02*
X133080000Y-78250000D01*
%TO.N,Net-(J2-Pin_3)*%
X117000000Y-70750000D02*
X118201000Y-69549000D01*
X118201000Y-69549000D02*
X121839000Y-69549000D01*
X121839000Y-69549000D02*
X130540000Y-78250000D01*
%TO.N,Net-(J2-Pin_5)*%
X119500000Y-70750000D02*
X120500000Y-70750000D01*
X120500000Y-70750000D02*
X128000000Y-78250000D01*
D24*
%TO.N,unconnected-(J1-SHIELD-Pad11)*%
X94675000Y-59975000D02*
X94675000Y-60925000D01*
X94675000Y-60925000D02*
X95000000Y-61250000D01*
X96500000Y-70500000D02*
X97825000Y-70500000D01*
X97825000Y-70500000D02*
X98000000Y-70675000D01*
X103970000Y-70675000D02*
X98000000Y-70675000D01*
X105995000Y-60200000D02*
X105995000Y-68650000D01*
X105995000Y-68650000D02*
X103970000Y-70675000D01*
D25*
%TO.N,Net-(J1-DET_A)*%
X94500000Y-69700000D02*
X94500000Y-70750000D01*
X94500000Y-70750000D02*
X94250000Y-71000000D01*
X94500000Y-66000000D02*
X94500000Y-69700000D01*
X91750000Y-69912500D02*
X94287500Y-69912500D01*
X94287500Y-69912500D02*
X94500000Y-69700000D01*
D24*
%TO.N,VCC*%
X90250000Y-69250000D02*
X90250000Y-73250000D01*
X92387500Y-73250000D02*
X90250000Y-73250000D01*
%TO.N,GNDD*%
X94112500Y-73250000D02*
X94500000Y-73250000D01*
X94500000Y-73250000D02*
X94878750Y-73628750D01*
X95501000Y-73006500D02*
X95501000Y-67934000D01*
X94878750Y-73628750D02*
X95501000Y-73006500D01*
X95501000Y-67934000D02*
X102635000Y-60800000D01*
X102635000Y-60800000D02*
X102635000Y-59850000D01*
D25*
%TO.N,Net-(J1-CLK)*%
X101535000Y-59850000D02*
X101535000Y-60839338D01*
X101535000Y-60839338D02*
X101312169Y-61062169D01*
D24*
%TO.N,VCC*%
X90250000Y-73250000D02*
X90250000Y-73750000D01*
X92550000Y-78210000D02*
X92550000Y-80750000D01*
X91750000Y-68087500D02*
X91412500Y-68087500D01*
X91412500Y-68087500D02*
X90250000Y-69250000D01*
X90250000Y-73750000D02*
X90250000Y-75910000D01*
X90250000Y-75910000D02*
X92550000Y-78210000D01*
X99500000Y-63000000D02*
X94000000Y-63000000D01*
X94000000Y-63000000D02*
X91750000Y-65250000D01*
X91750000Y-65250000D02*
X91750000Y-68087500D01*
X100435000Y-59850000D02*
X100435000Y-62065000D01*
X100435000Y-62065000D02*
X99500000Y-63000000D01*
D25*
%TO.N,Net-(J1-DAT1)*%
X104785000Y-59850000D02*
X104785000Y-61965000D01*
X104785000Y-61965000D02*
X104750000Y-62000000D01*
%TO.N,Net-(J1-CMD)*%
X102710000Y-78210000D02*
X99120000Y-74620000D01*
%TO.N,Net-(J1-DAT3{slash}CD)*%
X98700761Y-73750000D02*
X98850761Y-73600000D01*
%TO.N,Net-(J1-CMD)*%
X99120000Y-74620000D02*
X99120000Y-74250000D01*
%TO.N,Net-(J1-DAT3{slash}CD)*%
X98250000Y-73750000D02*
X98700761Y-73750000D01*
X99769239Y-73600000D02*
X104379239Y-78210000D01*
X104379239Y-78210000D02*
X105250000Y-78210000D01*
X98850761Y-73600000D02*
X99769239Y-73600000D01*
%TO.N,Net-(J1-DAT0)*%
X103735000Y-61235000D02*
X103750000Y-61250000D01*
X103735000Y-59850000D02*
X103735000Y-61235000D01*
%TO.N,Net-(J1-CMD)*%
X99335000Y-61165000D02*
X99250000Y-61250000D01*
X99335000Y-59850000D02*
X99335000Y-61165000D01*
%TO.N,Net-(J1-DAT3{slash}CD)*%
X98235000Y-59850000D02*
X98235000Y-61985000D01*
X98235000Y-61985000D02*
X98250000Y-62000000D01*
%TO.N,Net-(J1-DAT2)*%
X97135000Y-59850000D02*
X97135000Y-61135000D01*
X97135000Y-61135000D02*
X97250000Y-61250000D01*
X97250000Y-74750000D02*
X98575760Y-74750000D01*
X101559000Y-79599000D02*
X102710000Y-80750000D01*
X98575760Y-74750000D02*
X101559000Y-77733240D01*
X101559000Y-77733240D02*
X101559000Y-79599000D01*
%TD*%
M02*
