M48
; DRILL file KiCad 10.0.5-10.0.5~ubuntu26.04.1 date 2026-08-18T23:01:47
; FORMAT={-:-/ absolute / inch / decimal}
; #@! TF.CreationDate,2026-08-18T23:01:47+02:00
; #@! TF.GenerationSoftware,Kicad,Pcbnew,10.0.5-10.0.5~ubuntu26.04.1
; #@! TF.FileFunction,Plated,1,2,PTH
FMAT,2
INCH
; #@! TA.AperFunction,Plated,PTH,ViaDrill
T1C0.0118
; #@! TA.AperFunction,Plated,PTH,ComponentDrill
T2C0.0118
; #@! TA.AperFunction,Plated,PTH,ComponentDrill
T3C0.0354
; #@! TA.AperFunction,Plated,PTH,ComponentDrill
T4C0.0394
%
G90
G05
T1
X4.4326Y-3.525
X4.445Y-4.235
X4.448Y-3.5468
X4.4674Y-3.4468
X4.4782Y-3.9612
X4.51Y-3.425
X4.5111Y-3.497
X4.5122Y-3.4695
X4.5495Y-3.4636
X4.5512Y-3.5748
X4.5512Y-3.6378
X4.5512Y-3.6929
X4.5512Y-3.7559
X4.67Y-3.38
X4.7Y-3.8
X4.72Y-3.82
X4.7265Y-3.5848
X4.78Y-3.6604
X4.8346Y-3.4882
X4.84Y-4.13
X4.8546Y-3.4656
X4.8583Y-3.7677
X4.875Y-3.7938
X4.8833Y-3.4601
X4.8907Y-3.815
X4.9102Y-3.4653
X4.9206Y-3.8304
X4.9364Y-3.4538
X4.94Y-3.85
X4.94Y-3.99
X4.9639Y-3.4564
X4.9764Y-3.7742
X5.002Y-3.7456
X5.0045Y-3.4817
X5.0394Y-3.9291
X5.0505Y-4.0195
X5.0555Y-3.3425
X5.08Y-3.77
X5.0835Y-3.5512
X5.0847Y-4.2835
X5.1Y-3.38
X5.1Y-3.6795
X5.2765Y-3.375
X5.365Y-3.445
X5.3676Y-3.3376
X5.47Y-3.395
X5.585Y-3.555
X5.61Y-3.455
X5.705Y-3.94
X5.8723Y-3.2562
X5.8885Y-3.2785
X5.9Y-4.15
X6.06Y-3.305
X6.0634Y-4.2645
X6.095Y-4.2822
T2
X4.8563Y-3.5492
X4.8563Y-3.5925
X4.8563Y-3.6358
X4.8563Y-3.6791
X4.8996Y-3.5492
X4.8996Y-3.5925
X4.8996Y-3.6358
X4.8996Y-3.6791
X4.9429Y-3.5492
X4.9429Y-3.5925
X4.9429Y-3.6358
X4.9429Y-3.6791
X4.9862Y-3.5492
X4.9862Y-3.5925
X4.9862Y-3.6358
X4.9862Y-3.6791
T4
X5.2067Y-4.0604
X5.2067Y-4.1604
X5.3067Y-4.0604
X5.3067Y-4.1604
X5.4067Y-4.0604
X5.4067Y-4.1604
X5.5067Y-4.0604
X5.5067Y-4.1604
X5.6067Y-4.0604
X5.6067Y-4.1604
X5.7067Y-4.0604
X5.7067Y-4.1604
X6.0854Y-3.495
X6.0854Y-3.595
X6.0854Y-3.695
X6.0854Y-3.795
X6.0854Y-3.895
X6.0854Y-3.995
X6.1854Y-3.495
X6.1854Y-3.595
X6.1854Y-3.695
X6.1854Y-3.795
X6.1854Y-3.895
X6.1854Y-3.995
T3
G00X4.3844Y-3.313
M15
G01X4.3372Y-3.313
M16
G05
G00X4.3844Y-3.8839
M15
G01X4.3372Y-3.8839
M16
G05
G00X4.6309Y-3.313
M15
G01X4.56Y-3.313
M16
G05
G00X4.6309Y-3.8839
M15
G01X4.56Y-3.8839
M16
G05
M30
