%TF.GenerationSoftware,KiCad,Pcbnew,10.0.5-10.0.5~ubuntu26.04.1*%
%TF.CreationDate,2026-08-18T23:01:47+02:00*%
%TF.ProjectId,HDMItest,48444d49-7465-4737-942e-6b696361645f,rev?*%
%TF.SameCoordinates,Original*%
%TF.FileFunction,Paste,Top*%
%TF.FilePolarity,Positive*%
%FSLAX46Y46*%
G04 Gerber Fmt 4.6, Leading zero omitted, Abs format (unit mm)*
G04 Created by KiCad (PCBNEW 10.0.5-10.0.5~ubuntu26.04.1) date 2026-08-18 23:01:47*
%MOMM*%
%LPD*%
G01*
G04 APERTURE LIST*
G04 Aperture macros list*
%AMRoundRect*
0 Rectangle with rounded corners*
0 $1 Rounding radius*
0 $2 $3 $4 $5 $6 $7 $8 $9 X,Y pos of 4 corners*
0 Add a 4 corners polygon primitive as box body*
4,1,4,$2,$3,$4,$5,$6,$7,$8,$9,$2,$3,0*
0 Add four circle primitives for the rounded corners*
1,1,$1+$1,$2,$3*
1,1,$1+$1,$4,$5*
1,1,$1+$1,$6,$7*
1,1,$1+$1,$8,$9*
0 Add four rect primitives between the rounded corners*
20,1,$1+$1,$2,$3,$4,$5,0*
20,1,$1+$1,$4,$5,$6,$7,0*
20,1,$1+$1,$6,$7,$8,$9,0*
20,1,$1+$1,$8,$9,$2,$3,0*%
G04 Aperture macros list end*
%ADD10RoundRect,0.245000X0.245000X0.245000X-0.245000X0.245000X-0.245000X-0.245000X0.245000X-0.245000X0*%
%ADD11RoundRect,0.050000X0.337500X0.050000X-0.337500X0.050000X-0.337500X-0.050000X0.337500X-0.050000X0*%
%ADD12RoundRect,0.050000X0.050000X0.337500X-0.050000X0.337500X-0.050000X-0.337500X0.050000X-0.337500X0*%
%ADD13RoundRect,0.250000X-0.475000X0.337500X-0.475000X-0.337500X0.475000X-0.337500X0.475000X0.337500X0*%
%ADD14RoundRect,0.237500X-0.237500X0.250000X-0.237500X-0.250000X0.237500X-0.250000X0.237500X0.250000X0*%
%ADD15RoundRect,0.237500X0.250000X0.237500X-0.250000X0.237500X-0.250000X-0.237500X0.250000X-0.237500X0*%
%ADD16RoundRect,0.237500X-0.250000X-0.237500X0.250000X-0.237500X0.250000X0.237500X-0.250000X0.237500X0*%
%ADD17RoundRect,0.237500X0.300000X0.237500X-0.300000X0.237500X-0.300000X-0.237500X0.300000X-0.237500X0*%
%ADD18R,2.600000X0.300000*%
%ADD19RoundRect,0.237500X0.237500X-0.250000X0.237500X0.250000X-0.237500X0.250000X-0.237500X-0.250000X0*%
%ADD20RoundRect,0.237500X-0.237500X0.300000X-0.237500X-0.300000X0.237500X-0.300000X0.237500X0.300000X0*%
%ADD21RoundRect,0.237500X-0.300000X-0.237500X0.300000X-0.237500X0.300000X0.237500X-0.300000X0.237500X0*%
%ADD22RoundRect,0.250000X-0.337500X-0.475000X0.337500X-0.475000X0.337500X0.475000X-0.337500X0.475000X0*%
G04 APERTURE END LIST*
D10*
%TO.C,U1*%
X126270000Y-93070000D03*
X126270000Y-91800000D03*
X126270000Y-90530000D03*
X125000000Y-93070000D03*
X125000000Y-91800000D03*
X125000000Y-90530000D03*
X123730000Y-93070000D03*
X123730000Y-91800000D03*
X123730000Y-90530000D03*
D11*
X127487500Y-93600000D03*
X127487500Y-93200000D03*
X127487500Y-92800000D03*
X127487500Y-92400000D03*
X127487500Y-92000000D03*
X127487500Y-91600000D03*
X127487500Y-91200000D03*
X127487500Y-90800000D03*
X127487500Y-90400000D03*
X127487500Y-90000000D03*
D12*
X126800000Y-89312500D03*
X126400000Y-89312500D03*
X126000000Y-89312500D03*
X125600000Y-89312500D03*
X125200000Y-89312500D03*
X124800000Y-89312500D03*
X124400000Y-89312500D03*
X124000000Y-89312500D03*
X123600000Y-89312500D03*
X123200000Y-89312500D03*
D11*
X122512500Y-90000000D03*
X122512500Y-90400000D03*
X122512500Y-90800000D03*
X122512500Y-91200000D03*
X122512500Y-91600000D03*
X122512500Y-92000000D03*
X122512500Y-92400000D03*
X122512500Y-92800000D03*
X122512500Y-93200000D03*
X122512500Y-93600000D03*
D12*
X123200000Y-94287500D03*
X123600000Y-94287500D03*
X124000000Y-94287500D03*
X124400000Y-94287500D03*
X124800000Y-94287500D03*
X125200000Y-94287500D03*
X125600000Y-94287500D03*
X126000000Y-94287500D03*
X126400000Y-94287500D03*
X126800000Y-94287500D03*
%TD*%
D13*
%TO.C,C2*%
X121562500Y-104372500D03*
X121562500Y-106447500D03*
%TD*%
D14*
%TO.C,R2*%
X141478000Y-84939500D03*
X141478000Y-86764500D03*
%TD*%
D15*
%TO.C,R10*%
X149219500Y-89770000D03*
X147394500Y-89770000D03*
%TD*%
D16*
%TO.C,R6*%
X126595500Y-106299000D03*
X128420500Y-106299000D03*
%TD*%
D17*
%TO.C,C8*%
X133262500Y-93800000D03*
X131537500Y-93800000D03*
%TD*%
%TO.C,C6*%
X133262500Y-98600000D03*
X131537500Y-98600000D03*
%TD*%
%TO.C,C9*%
X133262500Y-92200000D03*
X131537500Y-92200000D03*
%TD*%
D15*
%TO.C,R17*%
X139215500Y-85090000D03*
X137390500Y-85090000D03*
%TD*%
%TO.C,R7*%
X117262500Y-102530000D03*
X115437500Y-102530000D03*
%TD*%
D16*
%TO.C,R13*%
X121412000Y-102489000D03*
X123237000Y-102489000D03*
%TD*%
D18*
%TO.C,J1*%
X117485000Y-95900000D03*
X117485000Y-95400000D03*
X117485000Y-94900000D03*
X117485000Y-94400000D03*
X117485000Y-93900000D03*
X117485000Y-93400000D03*
X117485000Y-92900000D03*
X117485000Y-92400000D03*
X117485000Y-91900000D03*
X117485000Y-91400000D03*
X117485000Y-90900000D03*
X117485000Y-90400000D03*
X117485000Y-89900000D03*
X117485000Y-89400000D03*
X117485000Y-88900000D03*
X117485000Y-88400000D03*
X117485000Y-87900000D03*
X117485000Y-87400000D03*
X117485000Y-86900000D03*
%TD*%
D15*
%TO.C,R16*%
X149606000Y-96139000D03*
X147781000Y-96139000D03*
%TD*%
D19*
%TO.C,R11*%
X143510000Y-86764500D03*
X143510000Y-84939500D03*
%TD*%
D20*
%TO.C,C3*%
X124102500Y-104420500D03*
X124102500Y-106145500D03*
%TD*%
D15*
%TO.C,R15*%
X149733000Y-98552000D03*
X147908000Y-98552000D03*
%TD*%
%TO.C,R3*%
X126134500Y-83312000D03*
X124309500Y-83312000D03*
%TD*%
D17*
%TO.C,C7*%
X133262500Y-95400000D03*
X131537500Y-95400000D03*
%TD*%
D20*
%TO.C,C4*%
X148590000Y-103658500D03*
X148590000Y-105383500D03*
%TD*%
D17*
%TO.C,C12*%
X133262500Y-89000000D03*
X131537500Y-89000000D03*
%TD*%
%TO.C,C11*%
X133262500Y-87400000D03*
X131537500Y-87400000D03*
%TD*%
D21*
%TO.C,C13*%
X131471500Y-85725000D03*
X133196500Y-85725000D03*
%TD*%
D15*
%TO.C,R8*%
X117312500Y-105800000D03*
X115487500Y-105800000D03*
%TD*%
D22*
%TO.C,C1*%
X138662500Y-90297000D03*
X140737500Y-90297000D03*
%TD*%
D19*
%TO.C,R12*%
X119507000Y-105306500D03*
X119507000Y-103481500D03*
%TD*%
D15*
%TO.C,R9*%
X149219500Y-92818000D03*
X147394500Y-92818000D03*
%TD*%
D17*
%TO.C,C5*%
X133262500Y-97000000D03*
X131537500Y-97000000D03*
%TD*%
%TO.C,C10*%
X133262500Y-90600000D03*
X131537500Y-90600000D03*
%TD*%
M02*
