%TF.GenerationSoftware,KiCad,Pcbnew,9.0.8+dfsg-1*%
%TF.CreationDate,2026-08-16T12:46:38+02:00*%
%TF.ProjectId,HDMItest,48444d49-7465-4737-942e-6b696361645f,rev?*%
%TF.SameCoordinates,Original*%
%TF.FileFunction,Soldermask,Top*%
%TF.FilePolarity,Negative*%
%FSLAX46Y46*%
G04 Gerber Fmt 4.6, Leading zero omitted, Abs format (unit mm)*
G04 Created by KiCad (PCBNEW 9.0.8+dfsg-1) date 2026-08-16 12:46:38*
%MOMM*%
%LPD*%
G01*
G04 APERTURE LIST*
G04 Aperture macros list*
%AMRoundRect*
0 Rectangle with rounded corners*
0 $1 Rounding radius*
0 $2 $3 $4 $5 $6 $7 $8 $9 X,Y pos of 4 corners*
0 Add a 4 corners polygon primitive as box body*
4,1,4,$2,$3,$4,$5,$6,$7,$8,$9,$2,$3,0*
0 Add four circle primitives for the rounded corners*
1,1,$1+$1,$2,$3*
1,1,$1+$1,$4,$5*
1,1,$1+$1,$6,$7*
1,1,$1+$1,$8,$9*
0 Add four rect primitives between the rounded corners*
20,1,$1+$1,$2,$3,$4,$5,0*
20,1,$1+$1,$4,$5,$6,$7,0*
20,1,$1+$1,$6,$7,$8,$9,0*
20,1,$1+$1,$8,$9,$2,$3,0*%
%AMFreePoly0*
4,1,23,0.500000,-0.750000,0.000000,-0.750000,0.000000,-0.745722,-0.065263,-0.745722,-0.191342,-0.711940,-0.304381,-0.646677,-0.396677,-0.554381,-0.461940,-0.441342,-0.495722,-0.315263,-0.495722,-0.250000,-0.500000,-0.250000,-0.500000,0.250000,-0.495722,0.250000,-0.495722,0.315263,-0.461940,0.441342,-0.396677,0.554381,-0.304381,0.646677,-0.191342,0.711940,-0.065263,0.745722,0.000000,0.745722,
0.000000,0.750000,0.500000,0.750000,0.500000,-0.750000,0.500000,-0.750000,$1*%
%AMFreePoly1*
4,1,23,0.000000,0.745722,0.065263,0.745722,0.191342,0.711940,0.304381,0.646677,0.396677,0.554381,0.461940,0.441342,0.495722,0.315263,0.495722,0.250000,0.500000,0.250000,0.500000,-0.250000,0.495722,-0.250000,0.495722,-0.315263,0.461940,-0.441342,0.396677,-0.554381,0.304381,-0.646677,0.191342,-0.711940,0.065263,-0.745722,0.000000,-0.745722,0.000000,-0.750000,-0.500000,-0.750000,
-0.500000,0.750000,0.000000,0.750000,0.000000,0.745722,0.000000,0.745722,$1*%
G04 Aperture macros list end*
%ADD10RoundRect,0.250000X-0.475000X0.337500X-0.475000X-0.337500X0.475000X-0.337500X0.475000X0.337500X0*%
%ADD11RoundRect,0.237500X-0.237500X0.250000X-0.237500X-0.250000X0.237500X-0.250000X0.237500X0.250000X0*%
%ADD12RoundRect,0.237500X0.250000X0.237500X-0.250000X0.237500X-0.250000X-0.237500X0.250000X-0.237500X0*%
%ADD13RoundRect,0.237500X-0.250000X-0.237500X0.250000X-0.237500X0.250000X0.237500X-0.250000X0.237500X0*%
%ADD14FreePoly0,180.000000*%
%ADD15FreePoly1,180.000000*%
%ADD16FreePoly0,90.000000*%
%ADD17FreePoly1,90.000000*%
%ADD18RoundRect,0.237500X0.300000X0.237500X-0.300000X0.237500X-0.300000X-0.237500X0.300000X-0.237500X0*%
%ADD19R,2.600000X0.300000*%
%ADD20O,3.300000X1.500000*%
%ADD21O,2.700000X1.500000*%
%ADD22RoundRect,0.050000X0.362500X0.050000X-0.362500X0.050000X-0.362500X-0.050000X0.362500X-0.050000X0*%
%ADD23RoundRect,0.050000X0.050000X0.362500X-0.050000X0.362500X-0.050000X-0.362500X0.050000X-0.362500X0*%
%ADD24R,4.700000X2.700000*%
%ADD25R,1.700000X1.700000*%
%ADD26C,1.700000*%
%ADD27RoundRect,0.237500X0.237500X-0.250000X0.237500X0.250000X-0.237500X0.250000X-0.237500X-0.250000X0*%
%ADD28FreePoly0,270.000000*%
%ADD29FreePoly1,270.000000*%
%ADD30RoundRect,0.237500X-0.237500X0.300000X-0.237500X-0.300000X0.237500X-0.300000X0.237500X0.300000X0*%
%ADD31RoundRect,0.237500X-0.300000X-0.237500X0.300000X-0.237500X0.300000X0.237500X-0.300000X0.237500X0*%
%ADD32RoundRect,0.250000X-0.337500X-0.475000X0.337500X-0.475000X0.337500X0.475000X-0.337500X0.475000X0*%
%ADD33RoundRect,0.250000X-0.600000X-0.600000X0.600000X-0.600000X0.600000X0.600000X-0.600000X0.600000X0*%
G04 APERTURE END LIST*
%TO.C,JP15*%
G36*
X145160500Y-99175000D02*
G01*
X144860500Y-99175000D01*
X144860500Y-97675000D01*
X145160500Y-97675000D01*
X145160500Y-99175000D01*
G37*
%TO.C,JP14*%
G36*
X125615000Y-103401000D02*
G01*
X127115000Y-103401000D01*
X127115000Y-103101000D01*
X125615000Y-103101000D01*
X125615000Y-103401000D01*
G37*
%TO.C,JP3*%
G36*
X138453000Y-88253000D02*
G01*
X138153000Y-88253000D01*
X138153000Y-86753000D01*
X138453000Y-86753000D01*
X138453000Y-88253000D01*
G37*
%TO.C,JP9*%
G36*
X112550000Y-106950000D02*
G01*
X112250000Y-106950000D01*
X112250000Y-105450000D01*
X112550000Y-105450000D01*
X112550000Y-106950000D01*
G37*
%TO.C,JP5*%
G36*
X128282000Y-103401000D02*
G01*
X129782000Y-103401000D01*
X129782000Y-103101000D01*
X128282000Y-103101000D01*
X128282000Y-103401000D01*
G37*
%TO.C,JP7*%
G36*
X126950000Y-86000000D02*
G01*
X125450000Y-86000000D01*
X125450000Y-86300000D01*
X126950000Y-86300000D01*
X126950000Y-86000000D01*
G37*
%TO.C,JP1*%
G36*
X121527000Y-85956000D02*
G01*
X120027000Y-85956000D01*
X120027000Y-86256000D01*
X121527000Y-86256000D01*
X121527000Y-85956000D01*
G37*
%TO.C,JP11*%
G36*
X145057000Y-90587000D02*
G01*
X144757000Y-90587000D01*
X144757000Y-89087000D01*
X145057000Y-89087000D01*
X145057000Y-90587000D01*
G37*
%TO.C,JP4*%
G36*
X124321000Y-85956000D02*
G01*
X122821000Y-85956000D01*
X122821000Y-86256000D01*
X124321000Y-86256000D01*
X124321000Y-85956000D01*
G37*
%TO.C,JP10*%
G36*
X145057000Y-93587000D02*
G01*
X144757000Y-93587000D01*
X144757000Y-92087000D01*
X145057000Y-92087000D01*
X145057000Y-93587000D01*
G37*
%TO.C,JP2*%
G36*
X120662000Y-99337000D02*
G01*
X122162000Y-99337000D01*
X122162000Y-99037000D01*
X120662000Y-99037000D01*
X120662000Y-99337000D01*
G37*
%TO.C,JP16*%
G36*
X145160500Y-96635000D02*
G01*
X144860500Y-96635000D01*
X144860500Y-95135000D01*
X145160500Y-95135000D01*
X145160500Y-96635000D01*
G37*
%TO.C,JP8*%
G36*
X112550000Y-103350000D02*
G01*
X112250000Y-103350000D01*
X112250000Y-101850000D01*
X112550000Y-101850000D01*
X112550000Y-103350000D01*
G37*
%TD*%
D10*
%TO.C,C2*%
X121562500Y-104372500D03*
X121562500Y-106447500D03*
%TD*%
D11*
%TO.C,R2*%
X141478000Y-84939500D03*
X141478000Y-86764500D03*
%TD*%
D12*
%TO.C,R10*%
X149219500Y-89770000D03*
X147394500Y-89770000D03*
%TD*%
D13*
%TO.C,R6*%
X126595500Y-106299000D03*
X128420500Y-106299000D03*
%TD*%
D14*
%TO.C,JP15*%
X145660500Y-98425000D03*
D15*
X144360500Y-98425000D03*
%TD*%
D16*
%TO.C,JP14*%
X126365000Y-103901000D03*
D17*
X126365000Y-102601000D03*
%TD*%
D14*
%TO.C,JP3*%
X138953000Y-87503000D03*
D15*
X137653000Y-87503000D03*
%TD*%
D18*
%TO.C,C8*%
X133262500Y-93800000D03*
X131537500Y-93800000D03*
%TD*%
%TO.C,C6*%
X133262500Y-98600000D03*
X131537500Y-98600000D03*
%TD*%
%TO.C,C9*%
X133262500Y-92200000D03*
X131537500Y-92200000D03*
%TD*%
D12*
%TO.C,R17*%
X139215500Y-85090000D03*
X137390500Y-85090000D03*
%TD*%
%TO.C,R7*%
X117262500Y-102530000D03*
X115437500Y-102530000D03*
%TD*%
D13*
%TO.C,R13*%
X121412000Y-102489000D03*
X123237000Y-102489000D03*
%TD*%
D19*
%TO.C,J1*%
X117485000Y-95900000D03*
X117485000Y-95400000D03*
X117485000Y-94900000D03*
X117485000Y-94400000D03*
X117485000Y-93900000D03*
X117485000Y-93400000D03*
X117485000Y-92900000D03*
X117485000Y-92400000D03*
X117485000Y-91900000D03*
X117485000Y-91400000D03*
X117485000Y-90900000D03*
X117485000Y-90400000D03*
X117485000Y-89900000D03*
X117485000Y-89400000D03*
X117485000Y-88900000D03*
X117485000Y-88400000D03*
X117485000Y-87900000D03*
X117485000Y-87400000D03*
X117485000Y-86900000D03*
D20*
X116725000Y-98650000D03*
X116725000Y-84150000D03*
D21*
X110765000Y-98650000D03*
X110765000Y-84150000D03*
%TD*%
D12*
%TO.C,R16*%
X149606000Y-96139000D03*
X147781000Y-96139000D03*
%TD*%
D14*
%TO.C,JP9*%
X113050000Y-106200000D03*
D15*
X111750000Y-106200000D03*
%TD*%
D16*
%TO.C,JP5*%
X129032000Y-103901000D03*
D17*
X129032000Y-102601000D03*
%TD*%
D22*
%TO.C,U1*%
X127962500Y-93200000D03*
X127962500Y-92800000D03*
X127962500Y-92400000D03*
X127962500Y-92000000D03*
X127962500Y-91600000D03*
X127962500Y-91200000D03*
X127962500Y-90800000D03*
X127962500Y-90400000D03*
D23*
X127200000Y-89837500D03*
X126800000Y-89837500D03*
X126400000Y-89837500D03*
X126000000Y-89837500D03*
X125600000Y-89837500D03*
X125200000Y-89837500D03*
X124800000Y-89837500D03*
X124400000Y-89837500D03*
X124000000Y-89837500D03*
X123600000Y-89837500D03*
X123200000Y-89837500D03*
X122800000Y-89837500D03*
D22*
X122037500Y-90400000D03*
X122037500Y-90800000D03*
X122037500Y-91200000D03*
X122037500Y-91600000D03*
X122037500Y-92000000D03*
X122037500Y-92400000D03*
X122037500Y-92800000D03*
X122037500Y-93200000D03*
D23*
X122800000Y-93762500D03*
X123200000Y-93762500D03*
X123600000Y-93762500D03*
X124000000Y-93762500D03*
X124400000Y-93762500D03*
X124800000Y-93762500D03*
X125200000Y-93762500D03*
X125600000Y-93762500D03*
X126000000Y-93762500D03*
X126400000Y-93762500D03*
X126800000Y-93762500D03*
X127200000Y-93762500D03*
D24*
X125000000Y-91800000D03*
%TD*%
D25*
%TO.C,P11*%
X132250000Y-105675000D03*
D26*
X132250000Y-103135000D03*
X134790000Y-105675000D03*
X134790000Y-103135000D03*
X137330000Y-105675000D03*
X137330000Y-103135000D03*
X139870000Y-105675000D03*
X139870000Y-103135000D03*
X142410000Y-105675000D03*
X142410000Y-103135000D03*
X144950000Y-105675000D03*
X144950000Y-103135000D03*
%TD*%
D27*
%TO.C,R11*%
X143510000Y-86764500D03*
X143510000Y-84939500D03*
%TD*%
D28*
%TO.C,JP7*%
X126200000Y-85500000D03*
D29*
X126200000Y-86800000D03*
%TD*%
D28*
%TO.C,JP1*%
X120777000Y-85456000D03*
D29*
X120777000Y-86756000D03*
%TD*%
D14*
%TO.C,JP11*%
X145557000Y-89837000D03*
D15*
X144257000Y-89837000D03*
%TD*%
D28*
%TO.C,JP4*%
X123571000Y-85456000D03*
D29*
X123571000Y-86756000D03*
%TD*%
D30*
%TO.C,C3*%
X124102500Y-104420500D03*
X124102500Y-106145500D03*
%TD*%
D12*
%TO.C,R15*%
X149733000Y-98552000D03*
X147908000Y-98552000D03*
%TD*%
D14*
%TO.C,JP10*%
X145557000Y-92837000D03*
D15*
X144257000Y-92837000D03*
%TD*%
D12*
%TO.C,R3*%
X126134500Y-83312000D03*
X124309500Y-83312000D03*
%TD*%
D18*
%TO.C,C7*%
X133262500Y-95400000D03*
X131537500Y-95400000D03*
%TD*%
D30*
%TO.C,C4*%
X148590000Y-103658500D03*
X148590000Y-105383500D03*
%TD*%
D18*
%TO.C,C12*%
X133262500Y-89000000D03*
X131537500Y-89000000D03*
%TD*%
D16*
%TO.C,JP2*%
X121412000Y-99837000D03*
D17*
X121412000Y-98537000D03*
%TD*%
D18*
%TO.C,C11*%
X133262500Y-87400000D03*
X131537500Y-87400000D03*
%TD*%
D31*
%TO.C,C13*%
X131471500Y-85725000D03*
X133196500Y-85725000D03*
%TD*%
D14*
%TO.C,JP16*%
X145660500Y-95885000D03*
D15*
X144360500Y-95885000D03*
%TD*%
D12*
%TO.C,R8*%
X117312500Y-105800000D03*
X115487500Y-105800000D03*
%TD*%
D32*
%TO.C,C1*%
X138662500Y-90297000D03*
X140737500Y-90297000D03*
%TD*%
D14*
%TO.C,JP8*%
X113050000Y-102600000D03*
D15*
X111750000Y-102600000D03*
%TD*%
D27*
%TO.C,R12*%
X119507000Y-105306500D03*
X119507000Y-103481500D03*
%TD*%
D33*
%TO.C,J2*%
X154568500Y-88773000D03*
D26*
X157108500Y-88773000D03*
X154568500Y-91313000D03*
X157108500Y-91313000D03*
X154568500Y-93853000D03*
X157108500Y-93853000D03*
X154568500Y-96393000D03*
X157108500Y-96393000D03*
X154568500Y-98933000D03*
X157108500Y-98933000D03*
X154568500Y-101473000D03*
X157108500Y-101473000D03*
%TD*%
D12*
%TO.C,R9*%
X149219500Y-92818000D03*
X147394500Y-92818000D03*
%TD*%
D18*
%TO.C,C5*%
X133262500Y-97000000D03*
X131537500Y-97000000D03*
%TD*%
%TO.C,C10*%
X133262500Y-90600000D03*
X131537500Y-90600000D03*
%TD*%
M02*
