%TF.GenerationSoftware,KiCad,Pcbnew,9.0.8+dfsg-1*%
%TF.CreationDate,2026-08-16T12:46:38+02:00*%
%TF.ProjectId,HDMItest,48444d49-7465-4737-942e-6b696361645f,rev?*%
%TF.SameCoordinates,Original*%
%TF.FileFunction,Copper,L1,Top*%
%TF.FilePolarity,Positive*%
%FSLAX46Y46*%
G04 Gerber Fmt 4.6, Leading zero omitted, Abs format (unit mm)*
G04 Created by KiCad (PCBNEW 9.0.8+dfsg-1) date 2026-08-16 12:46:38*
%MOMM*%
%LPD*%
G01*
G04 APERTURE LIST*
G04 Aperture macros list*
%AMRoundRect*
0 Rectangle with rounded corners*
0 $1 Rounding radius*
0 $2 $3 $4 $5 $6 $7 $8 $9 X,Y pos of 4 corners*
0 Add a 4 corners polygon primitive as box body*
4,1,4,$2,$3,$4,$5,$6,$7,$8,$9,$2,$3,0*
0 Add four circle primitives for the rounded corners*
1,1,$1+$1,$2,$3*
1,1,$1+$1,$4,$5*
1,1,$1+$1,$6,$7*
1,1,$1+$1,$8,$9*
0 Add four rect primitives between the rounded corners*
20,1,$1+$1,$2,$3,$4,$5,0*
20,1,$1+$1,$4,$5,$6,$7,0*
20,1,$1+$1,$6,$7,$8,$9,0*
20,1,$1+$1,$8,$9,$2,$3,0*%
%AMFreePoly0*
4,1,23,0.500000,-0.750000,0.000000,-0.750000,0.000000,-0.745722,-0.065263,-0.745722,-0.191342,-0.711940,-0.304381,-0.646677,-0.396677,-0.554381,-0.461940,-0.441342,-0.495722,-0.315263,-0.495722,-0.250000,-0.500000,-0.250000,-0.500000,0.250000,-0.495722,0.250000,-0.495722,0.315263,-0.461940,0.441342,-0.396677,0.554381,-0.304381,0.646677,-0.191342,0.711940,-0.065263,0.745722,0.000000,0.745722,
0.000000,0.750000,0.500000,0.750000,0.500000,-0.750000,0.500000,-0.750000,$1*%
%AMFreePoly1*
4,1,23,0.000000,0.745722,0.065263,0.745722,0.191342,0.711940,0.304381,0.646677,0.396677,0.554381,0.461940,0.441342,0.495722,0.315263,0.495722,0.250000,0.500000,0.250000,0.500000,-0.250000,0.495722,-0.250000,0.495722,-0.315263,0.461940,-0.441342,0.396677,-0.554381,0.304381,-0.646677,0.191342,-0.711940,0.065263,-0.745722,0.000000,-0.745722,0.000000,-0.750000,-0.500000,-0.750000,
-0.500000,0.750000,0.000000,0.750000,0.000000,0.745722,0.000000,0.745722,$1*%
G04 Aperture macros list end*
%TA.AperFunction,EtchedComponent*%
%ADD10C,0.000000*%
%TD*%
%TA.AperFunction,SMDPad,CuDef*%
%ADD11RoundRect,0.250000X-0.475000X0.337500X-0.475000X-0.337500X0.475000X-0.337500X0.475000X0.337500X0*%
%TD*%
%TA.AperFunction,SMDPad,CuDef*%
%ADD12RoundRect,0.237500X-0.237500X0.250000X-0.237500X-0.250000X0.237500X-0.250000X0.237500X0.250000X0*%
%TD*%
%TA.AperFunction,SMDPad,CuDef*%
%ADD13RoundRect,0.237500X0.250000X0.237500X-0.250000X0.237500X-0.250000X-0.237500X0.250000X-0.237500X0*%
%TD*%
%TA.AperFunction,SMDPad,CuDef*%
%ADD14RoundRect,0.237500X-0.250000X-0.237500X0.250000X-0.237500X0.250000X0.237500X-0.250000X0.237500X0*%
%TD*%
%TA.AperFunction,SMDPad,CuDef*%
%ADD15FreePoly0,180.000000*%
%TD*%
%TA.AperFunction,SMDPad,CuDef*%
%ADD16FreePoly1,180.000000*%
%TD*%
%TA.AperFunction,SMDPad,CuDef*%
%ADD17FreePoly0,90.000000*%
%TD*%
%TA.AperFunction,SMDPad,CuDef*%
%ADD18FreePoly1,90.000000*%
%TD*%
%TA.AperFunction,SMDPad,CuDef*%
%ADD19RoundRect,0.237500X0.300000X0.237500X-0.300000X0.237500X-0.300000X-0.237500X0.300000X-0.237500X0*%
%TD*%
%TA.AperFunction,SMDPad,CuDef*%
%ADD20R,2.600000X0.300000*%
%TD*%
%TA.AperFunction,ComponentPad*%
%ADD21O,3.300000X1.500000*%
%TD*%
%TA.AperFunction,ComponentPad*%
%ADD22O,2.700000X1.500000*%
%TD*%
%TA.AperFunction,SMDPad,CuDef*%
%ADD23RoundRect,0.050000X0.362500X0.050000X-0.362500X0.050000X-0.362500X-0.050000X0.362500X-0.050000X0*%
%TD*%
%TA.AperFunction,SMDPad,CuDef*%
%ADD24RoundRect,0.050000X0.050000X0.362500X-0.050000X0.362500X-0.050000X-0.362500X0.050000X-0.362500X0*%
%TD*%
%TA.AperFunction,HeatsinkPad*%
%ADD25C,0.500000*%
%TD*%
%TA.AperFunction,HeatsinkPad*%
%ADD26R,4.700000X2.700000*%
%TD*%
%TA.AperFunction,ComponentPad*%
%ADD27R,1.700000X1.700000*%
%TD*%
%TA.AperFunction,ComponentPad*%
%ADD28C,1.700000*%
%TD*%
%TA.AperFunction,SMDPad,CuDef*%
%ADD29RoundRect,0.237500X0.237500X-0.250000X0.237500X0.250000X-0.237500X0.250000X-0.237500X-0.250000X0*%
%TD*%
%TA.AperFunction,SMDPad,CuDef*%
%ADD30FreePoly0,270.000000*%
%TD*%
%TA.AperFunction,SMDPad,CuDef*%
%ADD31FreePoly1,270.000000*%
%TD*%
%TA.AperFunction,SMDPad,CuDef*%
%ADD32RoundRect,0.237500X-0.237500X0.300000X-0.237500X-0.300000X0.237500X-0.300000X0.237500X0.300000X0*%
%TD*%
%TA.AperFunction,SMDPad,CuDef*%
%ADD33RoundRect,0.237500X-0.300000X-0.237500X0.300000X-0.237500X0.300000X0.237500X-0.300000X0.237500X0*%
%TD*%
%TA.AperFunction,SMDPad,CuDef*%
%ADD34RoundRect,0.250000X-0.337500X-0.475000X0.337500X-0.475000X0.337500X0.475000X-0.337500X0.475000X0*%
%TD*%
%TA.AperFunction,ComponentPad*%
%ADD35RoundRect,0.250000X-0.600000X-0.600000X0.600000X-0.600000X0.600000X0.600000X-0.600000X0.600000X0*%
%TD*%
%TA.AperFunction,ViaPad*%
%ADD36C,0.450000*%
%TD*%
%TA.AperFunction,Conductor*%
%ADD37C,0.200000*%
%TD*%
%TA.AperFunction,Conductor*%
%ADD38C,0.500000*%
%TD*%
G04 APERTURE END LIST*
D10*
%TA.AperFunction,EtchedComponent*%
%TO.C,JP15*%
G36*
X145260500Y-98725000D02*
G01*
X144760500Y-98725000D01*
X144760500Y-98125000D01*
X145260500Y-98125000D01*
X145260500Y-98725000D01*
G37*
%TD.AperFunction*%
%TA.AperFunction,EtchedComponent*%
%TO.C,JP5*%
G36*
X129332000Y-103501000D02*
G01*
X128732000Y-103501000D01*
X128732000Y-103001000D01*
X129332000Y-103001000D01*
X129332000Y-103501000D01*
G37*
%TD.AperFunction*%
%TA.AperFunction,EtchedComponent*%
%TO.C,JP1*%
G36*
X121077000Y-86356000D02*
G01*
X120477000Y-86356000D01*
X120477000Y-85856000D01*
X121077000Y-85856000D01*
X121077000Y-86356000D01*
G37*
%TD.AperFunction*%
%TA.AperFunction,EtchedComponent*%
%TO.C,JP16*%
G36*
X145260500Y-96185000D02*
G01*
X144760500Y-96185000D01*
X144760500Y-95585000D01*
X145260500Y-95585000D01*
X145260500Y-96185000D01*
G37*
%TD.AperFunction*%
%TD*%
D11*
%TO.P,C2,1*%
%TO.N,Net-(JP10-B)*%
X121562500Y-104372500D03*
%TO.P,C2,2*%
%TO.N,GND*%
X121562500Y-106447500D03*
%TD*%
D12*
%TO.P,R2,1*%
%TO.N,Net-(JP10-B)*%
X141478000Y-84939500D03*
%TO.P,R2,2*%
%TO.N,Net-(JP3-B)*%
X141478000Y-86764500D03*
%TD*%
D13*
%TO.P,R10,1*%
%TO.N,Net-(J2-Pin_5)*%
X149219500Y-89770000D03*
%TO.P,R10,2*%
%TO.N,Net-(JP11-A)*%
X147394500Y-89770000D03*
%TD*%
D14*
%TO.P,R6,1*%
%TO.N,GND*%
X126595500Y-106299000D03*
%TO.P,R6,2*%
%TO.N,Net-(JP5-A)*%
X128420500Y-106299000D03*
%TD*%
D15*
%TO.P,JP15,1,A*%
%TO.N,Net-(JP15-A)*%
X145660500Y-98425000D03*
D16*
%TO.P,JP15,2,B*%
%TO.N,Net-(JP15-B)*%
X144360500Y-98425000D03*
%TD*%
D17*
%TO.P,JP14,1,A*%
%TO.N,GND*%
X126365000Y-103901000D03*
D18*
%TO.P,JP14,2,B*%
%TO.N,Net-(JP14-B)*%
X126365000Y-102601000D03*
%TD*%
D15*
%TO.P,JP3,1,A*%
%TO.N,GND*%
X138953000Y-87503000D03*
D16*
%TO.P,JP3,2,B*%
%TO.N,Net-(JP3-B)*%
X137653000Y-87503000D03*
%TD*%
D19*
%TO.P,C8,1*%
%TO.N,Net-(P11-GI)*%
X133262500Y-93800000D03*
%TO.P,C8,2*%
%TO.N,Net-(U1-IN_D2_B)*%
X131537500Y-93800000D03*
%TD*%
%TO.P,C6,1*%
%TO.N,Net-(P11-R)*%
X133262500Y-98600000D03*
%TO.P,C6,2*%
%TO.N,Net-(U1-IN_D1_A)*%
X131537500Y-98600000D03*
%TD*%
%TO.P,C9,1*%
%TO.N,Net-(P11-B)*%
X133262500Y-92200000D03*
%TO.P,C9,2*%
%TO.N,Net-(U1-IN_D3_A)*%
X131537500Y-92200000D03*
%TD*%
D13*
%TO.P,R17,1*%
%TO.N,GND*%
X139215500Y-85090000D03*
%TO.P,R17,2*%
%TO.N,Net-(U1-VSADJ)*%
X137390500Y-85090000D03*
%TD*%
%TO.P,R7,1*%
%TO.N,Net-(J1-SCL)*%
X117262500Y-102530000D03*
%TO.P,R7,2*%
%TO.N,Net-(JP8-A)*%
X115437500Y-102530000D03*
%TD*%
D14*
%TO.P,R13,1*%
%TO.N,Net-(JP10-B)*%
X121412000Y-102489000D03*
%TO.P,R13,2*%
%TO.N,Net-(JP14-B)*%
X123237000Y-102489000D03*
%TD*%
D20*
%TO.P,J1,1,D2+*%
%TO.N,Net-(J1-D2+)*%
X117485000Y-95900000D03*
%TO.P,J1,2,D2S*%
%TO.N,GND*%
X117485000Y-95400000D03*
%TO.P,J1,3,D2-*%
%TO.N,Net-(J1-D2-)*%
X117485000Y-94900000D03*
%TO.P,J1,4,D1+*%
%TO.N,Net-(J1-D1+)*%
X117485000Y-94400000D03*
%TO.P,J1,5,D1S*%
%TO.N,GND*%
X117485000Y-93900000D03*
%TO.P,J1,6,D1-*%
%TO.N,Net-(J1-D1-)*%
X117485000Y-93400000D03*
%TO.P,J1,7,D0+*%
%TO.N,Net-(J1-D0+)*%
X117485000Y-92900000D03*
%TO.P,J1,8,D0S*%
%TO.N,GND*%
X117485000Y-92400000D03*
%TO.P,J1,9,D0-*%
%TO.N,Net-(J1-D0-)*%
X117485000Y-91900000D03*
%TO.P,J1,10,CK+*%
%TO.N,Net-(J1-CK+)*%
X117485000Y-91400000D03*
%TO.P,J1,11,CKS*%
%TO.N,GND*%
X117485000Y-90900000D03*
%TO.P,J1,12,CK-*%
%TO.N,Net-(J1-CK-)*%
X117485000Y-90400000D03*
%TO.P,J1,13,CEC*%
%TO.N,Net-(J1-CEC)*%
X117485000Y-89900000D03*
%TO.P,J1,14,UTILITY*%
%TO.N,Net-(J1-UTILITY)*%
X117485000Y-89400000D03*
%TO.P,J1,15,SCL*%
%TO.N,Net-(J1-SCL)*%
X117485000Y-88900000D03*
%TO.P,J1,16,SDA*%
%TO.N,Net-(J1-SDA)*%
X117485000Y-88400000D03*
%TO.P,J1,17,GND*%
%TO.N,GND*%
X117485000Y-87900000D03*
%TO.P,J1,18,+5V*%
%TO.N,Net-(J1-+5V)*%
X117485000Y-87400000D03*
%TO.P,J1,19,HPD*%
%TO.N,Net-(J1-HPD)*%
X117485000Y-86900000D03*
D21*
%TO.P,J1,SH,SH*%
%TO.N,GND*%
X116725000Y-98650000D03*
X116725000Y-84150000D03*
D22*
X110765000Y-98650000D03*
X110765000Y-84150000D03*
%TD*%
D13*
%TO.P,R16,1*%
%TO.N,GND*%
X149606000Y-96139000D03*
%TO.P,R16,2*%
%TO.N,Net-(JP16-A)*%
X147781000Y-96139000D03*
%TD*%
D15*
%TO.P,JP9,1,A*%
%TO.N,Net-(JP9-A)*%
X113050000Y-106200000D03*
D16*
%TO.P,JP9,2,B*%
%TO.N,Net-(J1-+5V)*%
X111750000Y-106200000D03*
%TD*%
D17*
%TO.P,JP5,1,A*%
%TO.N,Net-(JP5-A)*%
X129032000Y-103901000D03*
D18*
%TO.P,JP5,2,B*%
%TO.N,Net-(JP5-B)*%
X129032000Y-102601000D03*
%TD*%
D23*
%TO.P,U1,1,IN_D1_A*%
%TO.N,Net-(U1-IN_D1_A)*%
X127962500Y-93200000D03*
%TO.P,U1,2,IN_D1_B*%
%TO.N,Net-(U1-IN_D1_B)*%
X127962500Y-92800000D03*
%TO.P,U1,3,VCC*%
%TO.N,Net-(JP10-B)*%
X127962500Y-92400000D03*
%TO.P,U1,4,IN_D2_A*%
%TO.N,Net-(U1-IN_D2_A)*%
X127962500Y-92000000D03*
%TO.P,U1,5,IN_D2_B*%
%TO.N,Net-(U1-IN_D2_B)*%
X127962500Y-91600000D03*
%TO.P,U1,6,IN_D3_A*%
%TO.N,Net-(U1-IN_D3_A)*%
X127962500Y-91200000D03*
%TO.P,U1,7,IN_D3_B*%
%TO.N,Net-(U1-IN_D3_B)*%
X127962500Y-90800000D03*
%TO.P,U1,8,VCC*%
%TO.N,Net-(JP10-B)*%
X127962500Y-90400000D03*
D24*
%TO.P,U1,9,IN_C_A*%
%TO.N,Net-(U1-IN_C_A)*%
X127200000Y-89837500D03*
%TO.P,U1,10,IN_C_B*%
%TO.N,Net-(U1-IN_C_B)*%
X126800000Y-89837500D03*
%TO.P,U1,11,NC*%
%TO.N,unconnected-(U1-NC-Pad11)*%
X126400000Y-89837500D03*
%TO.P,U1,12,VCC*%
%TO.N,Net-(JP10-B)*%
X126000000Y-89837500D03*
%TO.P,U1,13,SRC*%
%TO.N,Net-(JP4-B)*%
X125600000Y-89837500D03*
%TO.P,U1,14,I2C_EN*%
%TO.N,Net-(JP3-B)*%
X125200000Y-89837500D03*
%TO.P,U1,15,VSADJ*%
%TO.N,Net-(U1-VSADJ)*%
X124800000Y-89837500D03*
%TO.P,U1,16,HPD_SRC*%
%TO.N,Net-(J2-Pin_1)*%
X124400000Y-89837500D03*
%TO.P,U1,17,SDA_SRC*%
%TO.N,Net-(J2-Pin_5)*%
X124000000Y-89837500D03*
%TO.P,U1,18,SCL_SRC*%
%TO.N,Net-(J2-Pin_7)*%
X123600000Y-89837500D03*
%TO.P,U1,19,VCC*%
%TO.N,Net-(JP10-B)*%
X123200000Y-89837500D03*
%TO.P,U1,20,NC*%
%TO.N,unconnected-(U1-NC-Pad20)*%
X122800000Y-89837500D03*
D23*
%TO.P,U1,21,OUT_C_B*%
%TO.N,Net-(J1-CK-)*%
X122037500Y-90400000D03*
%TO.P,U1,22,OUT_C_A*%
%TO.N,Net-(J1-CK+)*%
X122037500Y-90800000D03*
%TO.P,U1,23,VCC*%
%TO.N,Net-(JP10-B)*%
X122037500Y-91200000D03*
%TO.P,U1,24,OUT_D3_B*%
%TO.N,Net-(J1-D0-)*%
X122037500Y-91600000D03*
%TO.P,U1,25,OUT_D3_A*%
%TO.N,Net-(J1-D0+)*%
X122037500Y-92000000D03*
%TO.P,U1,26,OUT_D2_B*%
%TO.N,Net-(J1-D1-)*%
X122037500Y-92400000D03*
%TO.P,U1,27,OUT_D2_A*%
%TO.N,Net-(J1-D1+)*%
X122037500Y-92800000D03*
%TO.P,U1,28,VCC*%
%TO.N,Net-(JP10-B)*%
X122037500Y-93200000D03*
D24*
%TO.P,U1,29,OUT_D1_B*%
%TO.N,Net-(J1-D2-)*%
X122800000Y-93762500D03*
%TO.P,U1,30,OUT_D1_A*%
%TO.N,Net-(J1-D2+)*%
X123200000Y-93762500D03*
%TO.P,U1,31,/OE*%
%TO.N,Net-(JP2-B)*%
X123600000Y-93762500D03*
%TO.P,U1,32,VCC*%
%TO.N,Net-(JP10-B)*%
X124000000Y-93762500D03*
%TO.P,U1,33,SCL_SINK*%
%TO.N,Net-(J1-SCL)*%
X124400000Y-93762500D03*
%TO.P,U1,34,SDA_SINK*%
%TO.N,Net-(J1-SDA)*%
X124800000Y-93762500D03*
%TO.P,U1,35,HPD_SINK*%
%TO.N,Net-(J1-HPD)*%
X125200000Y-93762500D03*
%TO.P,U1,36,DDC_EN*%
%TO.N,Net-(JP14-B)*%
X125600000Y-93762500D03*
%TO.P,U1,37,VCC*%
%TO.N,Net-(JP10-B)*%
X126000000Y-93762500D03*
%TO.P,U1,38,HPDINV*%
%TO.N,Net-(JP5-B)*%
X126400000Y-93762500D03*
%TO.P,U1,39,OVS*%
%TO.N,Net-(JP15-B)*%
X126800000Y-93762500D03*
%TO.P,U1,40,NC*%
%TO.N,unconnected-(U1-NC-Pad40)*%
X127200000Y-93762500D03*
D25*
%TO.P,U1,41,GND*%
%TO.N,GND*%
X127100000Y-92900000D03*
X127100000Y-91800000D03*
X127100000Y-90700000D03*
X125700000Y-92900000D03*
X125700000Y-91800000D03*
X125700000Y-90700000D03*
D26*
X125000000Y-91800000D03*
D25*
X124300000Y-92900000D03*
X124300000Y-91800000D03*
X124300000Y-90700000D03*
X122900000Y-92900000D03*
X122900000Y-91800000D03*
X122900000Y-90700000D03*
%TD*%
D27*
%TO.P,P11,1,VCC*%
%TO.N,Net-(JP1-A)*%
X132250000Y-105675000D03*
D28*
%TO.P,P11,2,GND*%
%TO.N,GND*%
X132250000Y-103135000D03*
%TO.P,P11,3,R*%
%TO.N,Net-(P11-R)*%
X134790000Y-105675000D03*
%TO.P,P11,4,RI*%
%TO.N,Net-(P11-RI)*%
X134790000Y-103135000D03*
%TO.P,P11,5,G*%
%TO.N,Net-(P11-G)*%
X137330000Y-105675000D03*
%TO.P,P11,6,GI*%
%TO.N,Net-(P11-GI)*%
X137330000Y-103135000D03*
%TO.P,P11,7,B*%
%TO.N,Net-(P11-B)*%
X139870000Y-105675000D03*
%TO.P,P11,8,BI*%
%TO.N,Net-(P11-BI)*%
X139870000Y-103135000D03*
%TO.P,P11,9,VSYNC*%
%TO.N,Net-(P11-VSYNC)*%
X142410000Y-105675000D03*
%TO.P,P11,10,HSYNC*%
%TO.N,Net-(P11-HSYNC)*%
X142410000Y-103135000D03*
%TO.P,P11,11,GND*%
%TO.N,GND*%
X144950000Y-105675000D03*
%TO.P,P11,12,V33*%
%TO.N,Net-(JP10-B)*%
X144950000Y-103135000D03*
%TD*%
D29*
%TO.P,R11,1*%
%TO.N,Net-(J2-Pin_1)*%
X143510000Y-86764500D03*
%TO.P,R11,2*%
%TO.N,Net-(JP10-B)*%
X143510000Y-84939500D03*
%TD*%
D30*
%TO.P,JP7,1,A*%
%TO.N,GND*%
X126200000Y-85500000D03*
D31*
%TO.P,JP7,2,B*%
%TO.N,Net-(JP4-B)*%
X126200000Y-86800000D03*
%TD*%
D30*
%TO.P,JP1,1,A*%
%TO.N,Net-(JP1-A)*%
X120777000Y-85456000D03*
D31*
%TO.P,JP1,2,B*%
%TO.N,Net-(J1-+5V)*%
X120777000Y-86756000D03*
%TD*%
D15*
%TO.P,JP11,1,A*%
%TO.N,Net-(JP11-A)*%
X145557000Y-89837000D03*
D16*
%TO.P,JP11,2,B*%
%TO.N,Net-(JP10-B)*%
X144257000Y-89837000D03*
%TD*%
D30*
%TO.P,JP4,1,A*%
%TO.N,Net-(JP4-A)*%
X123571000Y-85456000D03*
D31*
%TO.P,JP4,2,B*%
%TO.N,Net-(JP4-B)*%
X123571000Y-86756000D03*
%TD*%
D32*
%TO.P,C3,1*%
%TO.N,Net-(JP10-B)*%
X124102500Y-104420500D03*
%TO.P,C3,2*%
%TO.N,GND*%
X124102500Y-106145500D03*
%TD*%
D13*
%TO.P,R15,1*%
%TO.N,Net-(JP10-B)*%
X149733000Y-98552000D03*
%TO.P,R15,2*%
%TO.N,Net-(JP15-A)*%
X147908000Y-98552000D03*
%TD*%
D15*
%TO.P,JP10,1,A*%
%TO.N,Net-(JP10-A)*%
X145557000Y-92837000D03*
D16*
%TO.P,JP10,2,B*%
%TO.N,Net-(JP10-B)*%
X144257000Y-92837000D03*
%TD*%
D13*
%TO.P,R3,1*%
%TO.N,Net-(JP10-B)*%
X126134500Y-83312000D03*
%TO.P,R3,2*%
%TO.N,Net-(JP4-A)*%
X124309500Y-83312000D03*
%TD*%
D19*
%TO.P,C7,1*%
%TO.N,Net-(P11-G)*%
X133262500Y-95400000D03*
%TO.P,C7,2*%
%TO.N,Net-(U1-IN_D2_A)*%
X131537500Y-95400000D03*
%TD*%
D32*
%TO.P,C4,1*%
%TO.N,Net-(JP10-B)*%
X148590000Y-103658500D03*
%TO.P,C4,2*%
%TO.N,GND*%
X148590000Y-105383500D03*
%TD*%
D19*
%TO.P,C12,1*%
%TO.N,Net-(P11-VSYNC)*%
X133262500Y-89000000D03*
%TO.P,C12,2*%
%TO.N,Net-(U1-IN_C_A)*%
X131537500Y-89000000D03*
%TD*%
D17*
%TO.P,JP2,1,A*%
%TO.N,Net-(JP10-B)*%
X121412000Y-99837000D03*
D18*
%TO.P,JP2,2,B*%
%TO.N,Net-(JP2-B)*%
X121412000Y-98537000D03*
%TD*%
D19*
%TO.P,C11,1*%
%TO.N,Net-(P11-HSYNC)*%
X133262500Y-87400000D03*
%TO.P,C11,2*%
%TO.N,Net-(U1-IN_C_B)*%
X131537500Y-87400000D03*
%TD*%
D33*
%TO.P,C13,1*%
%TO.N,Net-(JP10-B)*%
X131471500Y-85725000D03*
%TO.P,C13,2*%
%TO.N,GND*%
X133196500Y-85725000D03*
%TD*%
D15*
%TO.P,JP16,1,A*%
%TO.N,Net-(JP16-A)*%
X145660500Y-95885000D03*
D16*
%TO.P,JP16,2,B*%
%TO.N,Net-(JP15-B)*%
X144360500Y-95885000D03*
%TD*%
D13*
%TO.P,R8,1*%
%TO.N,Net-(J1-SDA)*%
X117312500Y-105800000D03*
%TO.P,R8,2*%
%TO.N,Net-(JP9-A)*%
X115487500Y-105800000D03*
%TD*%
D34*
%TO.P,C1,1*%
%TO.N,Net-(JP10-B)*%
X138662500Y-90297000D03*
%TO.P,C1,2*%
%TO.N,GND*%
X140737500Y-90297000D03*
%TD*%
D15*
%TO.P,JP8,1,A*%
%TO.N,Net-(JP8-A)*%
X113050000Y-102600000D03*
D16*
%TO.P,JP8,2,B*%
%TO.N,Net-(J1-+5V)*%
X111750000Y-102600000D03*
%TD*%
D29*
%TO.P,R12,1*%
%TO.N,GND*%
X119507000Y-105306500D03*
%TO.P,R12,2*%
%TO.N,Net-(JP2-B)*%
X119507000Y-103481500D03*
%TD*%
D35*
%TO.P,J2,1,Pin_1*%
%TO.N,Net-(J2-Pin_1)*%
X154568500Y-88773000D03*
D28*
%TO.P,J2,2,Pin_2*%
%TO.N,unconnected-(J2-Pin_2-Pad2)*%
X157108500Y-88773000D03*
%TO.P,J2,3,Pin_3*%
%TO.N,Net-(J1-UTILITY)*%
X154568500Y-91313000D03*
%TO.P,J2,4,Pin_4*%
%TO.N,unconnected-(J2-Pin_4-Pad4)*%
X157108500Y-91313000D03*
%TO.P,J2,5,Pin_5*%
%TO.N,Net-(J2-Pin_5)*%
X154568500Y-93853000D03*
%TO.P,J2,6,Pin_6*%
%TO.N,unconnected-(J2-Pin_6-Pad6)*%
X157108500Y-93853000D03*
%TO.P,J2,7,Pin_7*%
%TO.N,Net-(J2-Pin_7)*%
X154568500Y-96393000D03*
%TO.P,J2,8,Pin_8*%
%TO.N,unconnected-(J2-Pin_8-Pad8)*%
X157108500Y-96393000D03*
%TO.P,J2,9,Pin_9*%
%TO.N,Net-(J1-CEC)*%
X154568500Y-98933000D03*
%TO.P,J2,10,Pin_10*%
%TO.N,unconnected-(J2-Pin_10-Pad10)*%
X157108500Y-98933000D03*
%TO.P,J2,11,Pin_11*%
%TO.N,GND*%
X154568500Y-101473000D03*
%TO.P,J2,12,Pin_12*%
%TO.N,unconnected-(J2-Pin_12-Pad12)*%
X157108500Y-101473000D03*
%TD*%
D13*
%TO.P,R9,1*%
%TO.N,Net-(J2-Pin_7)*%
X149219500Y-92818000D03*
%TO.P,R9,2*%
%TO.N,Net-(JP10-A)*%
X147394500Y-92818000D03*
%TD*%
D19*
%TO.P,C5,1*%
%TO.N,Net-(P11-RI)*%
X133262500Y-97000000D03*
%TO.P,C5,2*%
%TO.N,Net-(U1-IN_D1_B)*%
X131537500Y-97000000D03*
%TD*%
%TO.P,C10,1*%
%TO.N,Net-(P11-BI)*%
X133262500Y-90600000D03*
%TO.P,C10,2*%
%TO.N,Net-(U1-IN_D3_B)*%
X131537500Y-90600000D03*
%TD*%
D36*
%TO.N,Net-(J1-SDA)*%
X119888000Y-97028000D03*
X124333000Y-96901000D03*
X114611130Y-88125638D03*
%TO.N,GND*%
X115600000Y-92400000D03*
X138938000Y-86233000D03*
X129540000Y-85852000D03*
X115558201Y-87975000D03*
X112903000Y-107569000D03*
X115600000Y-95400000D03*
X115600000Y-93800000D03*
X149860000Y-105410000D03*
X115600000Y-90800000D03*
X141859000Y-90297000D03*
X134022000Y-85725000D03*
%TO.N,Net-(J1-+5V)*%
X113746087Y-100613913D03*
X113471000Y-87548448D03*
%TO.N,Net-(J1-CEC)*%
X112979508Y-90089119D03*
X154011592Y-108318410D03*
%TO.N,Net-(J1-HPD)*%
X124982769Y-97293285D03*
X114554000Y-86995000D03*
%TO.N,Net-(J1-UTILITY)*%
X154812565Y-108767338D03*
X112589000Y-89535000D03*
%TO.N,Net-(J1-SCL)*%
X123921298Y-96362298D03*
X119380000Y-96520000D03*
X114581179Y-88825000D03*
%TO.N,Net-(JP1-A)*%
X118618000Y-85852000D03*
X129152263Y-108801648D03*
%TO.N,Net-(J2-Pin_7)*%
X123105235Y-88025230D03*
X149155417Y-82708659D03*
%TO.N,Net-(J2-Pin_5)*%
X149568086Y-83274086D03*
X123742184Y-88265000D03*
%TO.N,Net-(J2-Pin_1)*%
X153924000Y-83947000D03*
X142494000Y-87757000D03*
X124405513Y-88091974D03*
%TO.N,Net-(JP3-B)*%
X136271000Y-87503000D03*
X125857607Y-87832219D03*
%TO.N,Net-(JP10-B)*%
X121171640Y-93926764D03*
X129032000Y-95758000D03*
X129144674Y-90224998D03*
X120400000Y-91375000D03*
X122789882Y-88989619D03*
X123782587Y-95343587D03*
X128409458Y-84900000D03*
X129209429Y-92524571D03*
X122936000Y-104902000D03*
X126543173Y-88773000D03*
%TO.N,Net-(JP5-B)*%
X126575000Y-95063664D03*
X128397000Y-101981000D03*
%TO.N,Net-(JP14-B)*%
X125476000Y-101346000D03*
X125476000Y-97790000D03*
%TO.N,Net-(U1-VSADJ)*%
X125102882Y-88031310D03*
X136335953Y-84776000D03*
%TO.N,Net-(JP15-B)*%
X144907000Y-100076000D03*
X127254000Y-95758000D03*
%TD*%
D37*
%TO.N,Net-(J1-D2+)*%
X121665685Y-95900000D02*
X123200000Y-94365685D01*
X117485000Y-95900000D02*
X121665685Y-95900000D01*
X123200000Y-94365685D02*
X123200000Y-93762500D01*
%TO.N,Net-(J1-D0+)*%
X120253859Y-92900000D02*
X121153859Y-92000000D01*
X117485000Y-92900000D02*
X120253859Y-92900000D01*
X121153859Y-92000000D02*
X122037500Y-92000000D01*
%TO.N,Net-(J1-D2-)*%
X122800000Y-94200000D02*
X122800000Y-93762500D01*
X117485000Y-94900000D02*
X122100000Y-94900000D01*
X122100000Y-94900000D02*
X122800000Y-94200000D01*
%TO.N,Net-(J1-SDA)*%
X115946374Y-88400000D02*
X115846374Y-88500000D01*
X115846374Y-88500000D02*
X115069352Y-88500000D01*
X119888000Y-99113978D02*
X119888000Y-97028000D01*
X117485000Y-88400000D02*
X115946374Y-88400000D01*
X114694990Y-88125638D02*
X114611130Y-88125638D01*
X117312500Y-105800000D02*
X117312500Y-104421778D01*
X124800000Y-93762500D02*
X124800000Y-96434000D01*
X117312500Y-104421778D02*
X118110000Y-103624278D01*
X115069352Y-88500000D02*
X114694990Y-88125638D01*
X118110000Y-103624278D02*
X118110000Y-100891978D01*
X118110000Y-100891978D02*
X119888000Y-99113978D01*
X124800000Y-96434000D02*
X124333000Y-96901000D01*
%TO.N,GND*%
X117485000Y-92400000D02*
X115600000Y-92400000D01*
X150876000Y-96139000D02*
X151003000Y-96266000D01*
X123800500Y-106447500D02*
X124102500Y-106145500D01*
X117485000Y-90900000D02*
X115700000Y-90900000D01*
X126595500Y-106299000D02*
X126492000Y-106299000D01*
X139215500Y-85090000D02*
X139215500Y-85955500D01*
X138953000Y-86248000D02*
X138938000Y-86233000D01*
X117485000Y-95400000D02*
X115600000Y-95400000D01*
D38*
X124102500Y-106145500D02*
X124120500Y-106145500D01*
D37*
X117485000Y-93900000D02*
X115700000Y-93900000D01*
D38*
X115600000Y-97525000D02*
X116725000Y-98650000D01*
D37*
X115633201Y-87900000D02*
X115558201Y-87975000D01*
X134022000Y-85725000D02*
X133196500Y-85725000D01*
X117485000Y-87900000D02*
X115633201Y-87900000D01*
D38*
X127762000Y-107442000D02*
X129032000Y-107442000D01*
X119507000Y-105306500D02*
X120421500Y-105306500D01*
X140737500Y-90297000D02*
X141859000Y-90297000D01*
D37*
X126200000Y-85500000D02*
X127655730Y-85500000D01*
D38*
X130950000Y-104435000D02*
X132250000Y-103135000D01*
X120421500Y-105306500D02*
X121562500Y-106447500D01*
X120441000Y-107569000D02*
X112903000Y-107569000D01*
X126492000Y-106299000D02*
X125229500Y-105036500D01*
X124120500Y-106145500D02*
X125229500Y-105036500D01*
X121562500Y-106447500D02*
X123800500Y-106447500D01*
D37*
X148590000Y-105383500D02*
X149833500Y-105383500D01*
D38*
X121562500Y-106447500D02*
X120441000Y-107569000D01*
X126619000Y-106299000D02*
X127762000Y-107442000D01*
D37*
X151003000Y-97907500D02*
X154568500Y-101473000D01*
D38*
X110765000Y-98650000D02*
X116725000Y-98650000D01*
D37*
X151003000Y-96266000D02*
X151003000Y-97907500D01*
X115700000Y-93900000D02*
X115600000Y-93800000D01*
D38*
X125229500Y-105036500D02*
X126365000Y-103901000D01*
D37*
X149606000Y-96139000D02*
X150876000Y-96139000D01*
X127655730Y-85500000D02*
X128007730Y-85852000D01*
X128007730Y-85852000D02*
X129540000Y-85852000D01*
X144950000Y-105675000D02*
X148298500Y-105675000D01*
X138953000Y-87503000D02*
X138953000Y-86248000D01*
X149833500Y-105383500D02*
X149860000Y-105410000D01*
D38*
X126595500Y-106299000D02*
X126619000Y-106299000D01*
D37*
X148298500Y-105675000D02*
X148590000Y-105383500D01*
X139215500Y-85955500D02*
X138938000Y-86233000D01*
D38*
X130950000Y-105524000D02*
X130950000Y-104435000D01*
D37*
X115700000Y-90900000D02*
X115600000Y-90800000D01*
D38*
X115600000Y-95400000D02*
X115600000Y-97525000D01*
X129032000Y-107442000D02*
X130950000Y-105524000D01*
D37*
%TO.N,Net-(J1-+5V)*%
X113476170Y-87543278D02*
X113471000Y-87548448D01*
X117485000Y-87400000D02*
X115132473Y-87400000D01*
X111750000Y-102600000D02*
X111750000Y-101845000D01*
X111750000Y-102600000D02*
X111750000Y-106200000D01*
X115132473Y-87400000D02*
X114989195Y-87543278D01*
X117485000Y-87400000D02*
X118975000Y-87400000D01*
X112981087Y-100613913D02*
X113746087Y-100613913D01*
X114989195Y-87543278D02*
X113476170Y-87543278D01*
X118975000Y-87400000D02*
X119619000Y-86756000D01*
X111750000Y-101845000D02*
X112981087Y-100613913D01*
X119619000Y-86756000D02*
X120777000Y-86756000D01*
%TO.N,Net-(J1-CEC)*%
X117485000Y-89900000D02*
X115770686Y-89900000D01*
X154568500Y-98933000D02*
X155718500Y-100083000D01*
X115581567Y-90089119D02*
X112979508Y-90089119D01*
X155718500Y-100083000D02*
X155718500Y-106611502D01*
X115770686Y-89900000D02*
X115581567Y-90089119D01*
X155718500Y-106611502D02*
X154011592Y-108318410D01*
%TO.N,Net-(J1-HPD)*%
X125200000Y-93762500D02*
X125200000Y-97076054D01*
X114649000Y-86900000D02*
X114554000Y-86995000D01*
X125200000Y-97076054D02*
X124982769Y-97293285D01*
X117485000Y-86900000D02*
X114649000Y-86900000D01*
%TO.N,Net-(J1-UTILITY)*%
X154568500Y-91313000D02*
X155718500Y-92463000D01*
X112724000Y-89400000D02*
X112589000Y-89535000D01*
X155718500Y-107861403D02*
X154812565Y-108767338D01*
X158258500Y-93376654D02*
X158258500Y-104689186D01*
X157344846Y-92463000D02*
X158258500Y-93376654D01*
X155718500Y-107229186D02*
X155718500Y-107861403D01*
X158258500Y-104689186D02*
X155718500Y-107229186D01*
X155718500Y-92463000D02*
X157344846Y-92463000D01*
X117485000Y-89400000D02*
X112724000Y-89400000D01*
%TO.N,Net-(J1-D1+)*%
X121485231Y-92800000D02*
X122037500Y-92800000D01*
X119885231Y-94400000D02*
X121485231Y-92800000D01*
X117485000Y-94400000D02*
X119885231Y-94400000D01*
%TO.N,Net-(J1-CK+)*%
X119986827Y-90800000D02*
X122037500Y-90800000D01*
X117485000Y-91400000D02*
X119386827Y-91400000D01*
X119386827Y-91400000D02*
X119986827Y-90800000D01*
%TO.N,Net-(J1-D0-)*%
X120975000Y-91600000D02*
X122037500Y-91600000D01*
X117485000Y-91900000D02*
X120675000Y-91900000D01*
X120675000Y-91900000D02*
X120975000Y-91600000D01*
%TO.N,Net-(J1-CK-)*%
X117485000Y-90400000D02*
X122037500Y-90400000D01*
%TO.N,Net-(J1-SCL)*%
X117485000Y-88900000D02*
X114656179Y-88900000D01*
X114656179Y-88900000D02*
X114581179Y-88825000D01*
X117262500Y-101173792D02*
X119380000Y-99056293D01*
X117262500Y-102530000D02*
X117262500Y-101173792D01*
X123921298Y-96362298D02*
X124400000Y-95883596D01*
X124400000Y-95883596D02*
X124400000Y-93762500D01*
X119380000Y-99056293D02*
X119380000Y-97333173D01*
X119313000Y-96587000D02*
X119380000Y-96520000D01*
X119380000Y-97333173D02*
X119313000Y-97266173D01*
X119313000Y-97266173D02*
X119313000Y-96587000D01*
%TO.N,Net-(J1-D1-)*%
X120319545Y-93400000D02*
X121319545Y-92400000D01*
X117485000Y-93400000D02*
X120319545Y-93400000D01*
X121319545Y-92400000D02*
X122037500Y-92400000D01*
%TO.N,Net-(JP1-A)*%
X132250000Y-106725000D02*
X130173352Y-108801648D01*
X130173352Y-108801648D02*
X129152263Y-108801648D01*
X120777000Y-85456000D02*
X119014000Y-85456000D01*
X119014000Y-85456000D02*
X118618000Y-85852000D01*
X132250000Y-105675000D02*
X132250000Y-106725000D01*
%TO.N,Net-(J2-Pin_7)*%
X123105235Y-88491798D02*
X123105235Y-88025230D01*
X123600000Y-89837500D02*
X123600000Y-88986563D01*
X149219500Y-92818000D02*
X148432000Y-92030500D01*
X149155417Y-82873583D02*
X149155417Y-82708659D01*
X148432000Y-92030500D02*
X148432000Y-83597000D01*
X148432000Y-83597000D02*
X149155417Y-82873583D01*
X149219500Y-92818000D02*
X150993500Y-92818000D01*
X150993500Y-92818000D02*
X154568500Y-96393000D01*
X123600000Y-88986563D02*
X123105235Y-88491798D01*
%TO.N,Net-(J2-Pin_5)*%
X149219500Y-89770000D02*
X149219500Y-83622672D01*
X149219500Y-89770000D02*
X150485500Y-89770000D01*
X124000000Y-88522816D02*
X123742184Y-88265000D01*
X124000000Y-89837500D02*
X124000000Y-88522816D01*
X149219500Y-83622672D02*
X149568086Y-83274086D01*
X150485500Y-89770000D02*
X154568500Y-93853000D01*
%TO.N,Net-(J2-Pin_1)*%
X143486500Y-86764500D02*
X142494000Y-87757000D01*
X154568500Y-84591500D02*
X154568500Y-88773000D01*
X143510000Y-86764500D02*
X143486500Y-86764500D01*
X124400000Y-89837500D02*
X124400000Y-88097487D01*
X124400000Y-88097487D02*
X124405513Y-88091974D01*
X153924000Y-83947000D02*
X154568500Y-84591500D01*
%TO.N,Net-(U1-IN_D1_A)*%
X128506000Y-93200000D02*
X127962500Y-93200000D01*
X129800000Y-94494000D02*
X128506000Y-93200000D01*
X129800000Y-96862500D02*
X129800000Y-94494000D01*
X131537500Y-98600000D02*
X129800000Y-96862500D01*
%TO.N,Net-(U1-IN_D1_B)*%
X131537500Y-97000000D02*
X131000000Y-97000000D01*
X130200000Y-96200000D02*
X130200000Y-94328314D01*
X130200000Y-94328314D02*
X128671685Y-92800000D01*
X128671685Y-92800000D02*
X127962500Y-92800000D01*
X131000000Y-97000000D02*
X130200000Y-96200000D01*
%TO.N,Net-(JP4-A)*%
X123571000Y-85456000D02*
X124309500Y-84717500D01*
X124309500Y-84717500D02*
X124309500Y-83312000D01*
%TO.N,Net-(JP2-B)*%
X123063000Y-95250000D02*
X121412000Y-96901000D01*
X121412000Y-96901000D02*
X121412000Y-98537000D01*
X119507000Y-100060664D02*
X119507000Y-103481500D01*
X123600000Y-93762500D02*
X123600000Y-94713000D01*
X123600000Y-94713000D02*
X123063000Y-95250000D01*
X121412000Y-98537000D02*
X121030664Y-98537000D01*
X121030664Y-98537000D02*
X119507000Y-100060664D01*
%TO.N,Net-(JP4-B)*%
X125968173Y-88534827D02*
X126661191Y-87841809D01*
X126156000Y-86756000D02*
X126200000Y-86800000D01*
X123571000Y-86756000D02*
X126156000Y-86756000D01*
X126661191Y-87261191D02*
X126200000Y-86800000D01*
X125968173Y-88782314D02*
X125968173Y-88534827D01*
X126661191Y-87841809D02*
X126661191Y-87261191D01*
X125600000Y-89837500D02*
X125600000Y-89150487D01*
X125600000Y-89150487D02*
X125968173Y-88782314D01*
%TO.N,Net-(JP3-B)*%
X125200000Y-89837500D02*
X125200000Y-88984801D01*
X136271000Y-87503000D02*
X137653000Y-87503000D01*
X138541664Y-88773000D02*
X139469500Y-88773000D01*
X125568173Y-88616628D02*
X125568173Y-88369141D01*
X125200000Y-88984801D02*
X125568173Y-88616628D01*
X139469500Y-88773000D02*
X141478000Y-86764500D01*
X137653000Y-87503000D02*
X137653000Y-87884336D01*
X137653000Y-87884336D02*
X138541664Y-88773000D01*
X125857607Y-88079707D02*
X125857607Y-87832219D01*
X125568173Y-88369141D02*
X125857607Y-88079707D01*
%TO.N,Net-(JP5-A)*%
X128420500Y-106299000D02*
X128420500Y-104512500D01*
X128420500Y-104512500D02*
X129032000Y-103901000D01*
%TO.N,Net-(U1-IN_D2_B)*%
X130556000Y-92522722D02*
X129633278Y-91600000D01*
X131537500Y-93800000D02*
X130556000Y-92818500D01*
X130556000Y-92818500D02*
X130556000Y-92522722D01*
X129633278Y-91600000D02*
X127962500Y-91600000D01*
%TO.N,Net-(U1-IN_D2_A)*%
X130156000Y-92688408D02*
X129467592Y-92000000D01*
X129467592Y-92000000D02*
X127962500Y-92000000D01*
X130600000Y-94462500D02*
X130600000Y-93428186D01*
X130156000Y-92984185D02*
X130156000Y-92688408D01*
X130600000Y-93428186D02*
X130156000Y-92984185D01*
X131537500Y-95400000D02*
X130600000Y-94462500D01*
%TO.N,Net-(JP10-B)*%
X121412000Y-99837000D02*
X122824000Y-99837000D01*
D38*
X126111000Y-98552000D02*
X123063000Y-98552000D01*
D37*
X148590000Y-103658500D02*
X148590000Y-99695000D01*
D38*
X121562500Y-104372500D02*
X121562500Y-102639500D01*
D37*
X123200000Y-89837500D02*
X123200000Y-89152249D01*
X143510000Y-84939500D02*
X144285000Y-85714500D01*
D38*
X134239000Y-84328000D02*
X134366000Y-84201000D01*
D37*
X122037500Y-91200000D02*
X120575000Y-91200000D01*
D38*
X122809000Y-104372500D02*
X124054500Y-104372500D01*
D37*
X123063000Y-98552000D02*
X122936000Y-98679000D01*
X126238000Y-95613430D02*
X126238000Y-96647000D01*
X124000000Y-95126174D02*
X123782587Y-95343587D01*
D38*
X134747000Y-87122000D02*
X134747000Y-84201000D01*
D37*
X122824000Y-99837000D02*
X122936000Y-99949000D01*
D38*
X122936000Y-104499500D02*
X122809000Y-104372500D01*
X140485500Y-83947000D02*
X141478000Y-84939500D01*
D37*
X126000000Y-95375430D02*
X126238000Y-95613430D01*
X144257000Y-92837000D02*
X144257000Y-93592000D01*
D38*
X128143000Y-96647000D02*
X126238000Y-96647000D01*
X138662500Y-90297000D02*
X137922000Y-90297000D01*
X128981458Y-84328000D02*
X128409458Y-84900000D01*
D37*
X148590000Y-99695000D02*
X149733000Y-98552000D01*
X121310736Y-93926764D02*
X121171640Y-93926764D01*
D38*
X135001000Y-83947000D02*
X140485500Y-83947000D01*
D37*
X121562500Y-102639500D02*
X121412000Y-102489000D01*
X141478000Y-84939500D02*
X143510000Y-84939500D01*
X131471500Y-85725000D02*
X131471500Y-84428500D01*
X124054500Y-104372500D02*
X124102500Y-104420500D01*
D38*
X134747000Y-84201000D02*
X135001000Y-83947000D01*
D37*
X123037370Y-88989619D02*
X122789882Y-88989619D01*
D38*
X122936000Y-104902000D02*
X122936000Y-104499500D01*
D37*
X127962500Y-90400000D02*
X128969672Y-90400000D01*
X144285000Y-89809000D02*
X144257000Y-89837000D01*
X129084858Y-92400000D02*
X129209429Y-92524571D01*
X148818500Y-97637500D02*
X149733000Y-98552000D01*
D38*
X123782587Y-95546413D02*
X123782587Y-95343587D01*
D37*
X131471500Y-84428500D02*
X131572000Y-84328000D01*
X126821458Y-83312000D02*
X128409458Y-84900000D01*
X144950000Y-103135000D02*
X148066500Y-103135000D01*
X120575000Y-91200000D02*
X120400000Y-91375000D01*
D38*
X131572000Y-84328000D02*
X134239000Y-84328000D01*
X121412000Y-102489000D02*
X122936000Y-100965000D01*
D37*
X148066500Y-103135000D02*
X148590000Y-103658500D01*
X127962500Y-92400000D02*
X129084858Y-92400000D01*
D38*
X121562500Y-104372500D02*
X122809000Y-104372500D01*
X122936000Y-99949000D02*
X122936000Y-98679000D01*
D37*
X144257000Y-93592000D02*
X145495000Y-94830000D01*
X144257000Y-89837000D02*
X144257000Y-92837000D01*
X147726222Y-94830000D02*
X148818500Y-95922278D01*
X122037500Y-93200000D02*
X121310736Y-93926764D01*
D38*
X129032000Y-95758000D02*
X128143000Y-96647000D01*
D37*
X148818500Y-95922278D02*
X148818500Y-97637500D01*
X126000000Y-93762500D02*
X126000000Y-95375430D01*
D38*
X126238000Y-96647000D02*
X126238000Y-98425000D01*
X122936000Y-96393000D02*
X123782587Y-95546413D01*
X122936000Y-98679000D02*
X122936000Y-96393000D01*
D37*
X144285000Y-85714500D02*
X144285000Y-89809000D01*
X145495000Y-94830000D02*
X147726222Y-94830000D01*
D38*
X137922000Y-90297000D02*
X134747000Y-87122000D01*
D37*
X124000000Y-93762500D02*
X124000000Y-95126174D01*
X126000000Y-89837500D02*
X126000000Y-89316173D01*
D38*
X122936000Y-100965000D02*
X122936000Y-99949000D01*
D37*
X126000000Y-89316173D02*
X126452768Y-88863405D01*
D38*
X131572000Y-84328000D02*
X128981458Y-84328000D01*
D37*
X123200000Y-89152249D02*
X123037370Y-88989619D01*
D38*
X134366000Y-84201000D02*
X134747000Y-84201000D01*
X126238000Y-98425000D02*
X126111000Y-98552000D01*
D37*
X126134500Y-83312000D02*
X126821458Y-83312000D01*
X128969672Y-90400000D02*
X129144674Y-90224998D01*
%TO.N,Net-(P11-RI)*%
X133262500Y-97000000D02*
X134790000Y-98527500D01*
X134790000Y-98527500D02*
X134790000Y-103135000D01*
%TO.N,Net-(P11-R)*%
X133640000Y-104525000D02*
X134790000Y-105675000D01*
X133262500Y-98600000D02*
X133640000Y-98977500D01*
X133640000Y-98977500D02*
X133640000Y-104525000D01*
%TO.N,Net-(P11-G)*%
X135940000Y-104285000D02*
X137330000Y-105675000D01*
X133262500Y-95400000D02*
X135940000Y-98077500D01*
X135940000Y-98077500D02*
X135940000Y-104285000D01*
%TO.N,Net-(P11-GI)*%
X133262500Y-93800000D02*
X137330000Y-97867500D01*
X137330000Y-97867500D02*
X137330000Y-103135000D01*
%TO.N,Net-(P11-BI)*%
X133262500Y-90600000D02*
X139870000Y-97207500D01*
X139870000Y-97207500D02*
X139870000Y-103135000D01*
%TO.N,Net-(P11-B)*%
X133262500Y-92200000D02*
X138600000Y-97537500D01*
X138600000Y-104405000D02*
X139870000Y-105675000D01*
X138600000Y-97537500D02*
X138600000Y-104405000D01*
%TO.N,Net-(P11-HSYNC)*%
X142410000Y-96547500D02*
X142410000Y-103135000D01*
X133262500Y-87400000D02*
X142410000Y-96547500D01*
%TO.N,Net-(P11-VSYNC)*%
X133262500Y-89000000D02*
X141020000Y-96757500D01*
X141020000Y-96757500D02*
X141020000Y-104285000D01*
X141020000Y-104285000D02*
X142410000Y-105675000D01*
%TO.N,Net-(JP8-A)*%
X115367500Y-102600000D02*
X115437500Y-102530000D01*
X113050000Y-102600000D02*
X115367500Y-102600000D01*
%TO.N,Net-(JP9-A)*%
X115087500Y-106200000D02*
X115487500Y-105800000D01*
X113050000Y-106200000D02*
X115087500Y-106200000D01*
%TO.N,Net-(JP10-A)*%
X147375500Y-92837000D02*
X147394500Y-92818000D01*
X145557000Y-92837000D02*
X147375500Y-92837000D01*
%TO.N,Net-(JP11-A)*%
X145557000Y-89837000D02*
X147327500Y-89837000D01*
X147327500Y-89837000D02*
X147394500Y-89770000D01*
%TO.N,Net-(U1-IN_D3_B)*%
X131337500Y-90800000D02*
X127962500Y-90800000D01*
X131537500Y-90600000D02*
X131337500Y-90800000D01*
%TO.N,Net-(U1-IN_D3_A)*%
X131537500Y-92200000D02*
X130537500Y-91200000D01*
X130537500Y-91200000D02*
X127962500Y-91200000D01*
%TO.N,Net-(U1-IN_C_A)*%
X128037500Y-89000000D02*
X127200000Y-89837500D01*
X131537500Y-89000000D02*
X128037500Y-89000000D01*
%TO.N,Net-(U1-IN_C_B)*%
X126800000Y-89284685D02*
X126800000Y-89837500D01*
X128684685Y-87400000D02*
X126800000Y-89284685D01*
X131537500Y-87400000D02*
X128684685Y-87400000D01*
%TO.N,Net-(JP5-B)*%
X126400000Y-94888664D02*
X126575000Y-95063664D01*
X126400000Y-93762500D02*
X126400000Y-94888664D01*
X128397000Y-101981000D02*
X128412000Y-101981000D01*
X128412000Y-101981000D02*
X129032000Y-102601000D01*
%TO.N,Net-(JP14-B)*%
X123237000Y-102489000D02*
X124838000Y-102489000D01*
X124838000Y-102489000D02*
X125600000Y-101727000D01*
X125476000Y-101712000D02*
X125600000Y-101836000D01*
X125600000Y-97666000D02*
X125476000Y-97790000D01*
X125600000Y-101727000D02*
X125600000Y-101836000D01*
X125600000Y-93762500D02*
X125600000Y-97666000D01*
X125600000Y-101836000D02*
X126365000Y-102601000D01*
X125476000Y-101346000D02*
X125476000Y-101712000D01*
%TO.N,Net-(JP15-A)*%
X145660500Y-98425000D02*
X147781000Y-98425000D01*
X147781000Y-98425000D02*
X147908000Y-98552000D01*
%TO.N,Net-(JP16-A)*%
X147527000Y-95885000D02*
X147781000Y-96139000D01*
X145660500Y-95885000D02*
X147527000Y-95885000D01*
%TO.N,Net-(U1-VSADJ)*%
X136649953Y-85090000D02*
X136335953Y-84776000D01*
X124800000Y-89837500D02*
X124800000Y-88819115D01*
X124800000Y-88819115D02*
X125102882Y-88516233D01*
X137390500Y-85090000D02*
X136649953Y-85090000D01*
X125102882Y-88516233D02*
X125102882Y-88031310D01*
%TO.N,Net-(JP15-B)*%
X144907000Y-100076000D02*
X144907000Y-99441000D01*
X126800000Y-93762500D02*
X126800000Y-94488664D01*
X127381000Y-95069664D02*
X127381000Y-95631000D01*
X144360500Y-95885000D02*
X144360500Y-98425000D01*
X144360500Y-98894500D02*
X144360500Y-98425000D01*
X144907000Y-99441000D02*
X144360500Y-98894500D01*
X126800000Y-94488664D02*
X127381000Y-95069664D01*
X127381000Y-95631000D02*
X127254000Y-95758000D01*
%TD*%
M02*
