%TF.GenerationSoftware,KiCad,Pcbnew,9.0.8+dfsg-1*%
%TF.CreationDate,2026-08-16T12:46:38+02:00*%
%TF.ProjectId,HDMItest,48444d49-7465-4737-942e-6b696361645f,rev?*%
%TF.SameCoordinates,Original*%
%TF.FileFunction,Copper,L2,Bot*%
%TF.FilePolarity,Positive*%
%FSLAX46Y46*%
G04 Gerber Fmt 4.6, Leading zero omitted, Abs format (unit mm)*
G04 Created by KiCad (PCBNEW 9.0.8+dfsg-1) date 2026-08-16 12:46:38*
%MOMM*%
%LPD*%
G01*
G04 APERTURE LIST*
G04 Aperture macros list*
%AMRoundRect*
0 Rectangle with rounded corners*
0 $1 Rounding radius*
0 $2 $3 $4 $5 $6 $7 $8 $9 X,Y pos of 4 corners*
0 Add a 4 corners polygon primitive as box body*
4,1,4,$2,$3,$4,$5,$6,$7,$8,$9,$2,$3,0*
0 Add four circle primitives for the rounded corners*
1,1,$1+$1,$2,$3*
1,1,$1+$1,$4,$5*
1,1,$1+$1,$6,$7*
1,1,$1+$1,$8,$9*
0 Add four rect primitives between the rounded corners*
20,1,$1+$1,$2,$3,$4,$5,0*
20,1,$1+$1,$4,$5,$6,$7,0*
20,1,$1+$1,$6,$7,$8,$9,0*
20,1,$1+$1,$8,$9,$2,$3,0*%
G04 Aperture macros list end*
%TA.AperFunction,ComponentPad*%
%ADD10O,3.300000X1.500000*%
%TD*%
%TA.AperFunction,ComponentPad*%
%ADD11O,2.700000X1.500000*%
%TD*%
%TA.AperFunction,HeatsinkPad*%
%ADD12C,0.500000*%
%TD*%
%TA.AperFunction,HeatsinkPad*%
%ADD13R,4.700000X2.700000*%
%TD*%
%TA.AperFunction,ComponentPad*%
%ADD14R,1.700000X1.700000*%
%TD*%
%TA.AperFunction,ComponentPad*%
%ADD15C,1.700000*%
%TD*%
%TA.AperFunction,ComponentPad*%
%ADD16RoundRect,0.250000X-0.600000X-0.600000X0.600000X-0.600000X0.600000X0.600000X-0.600000X0.600000X0*%
%TD*%
%TA.AperFunction,ViaPad*%
%ADD17C,0.450000*%
%TD*%
%TA.AperFunction,Conductor*%
%ADD18C,0.200000*%
%TD*%
%TA.AperFunction,Conductor*%
%ADD19C,0.500000*%
%TD*%
%TA.AperFunction,Conductor*%
%ADD20C,0.300000*%
%TD*%
G04 APERTURE END LIST*
D10*
%TO.P,J1,SH,SH*%
%TO.N,GND*%
X116725000Y-98650000D03*
X116725000Y-84150000D03*
D11*
X110765000Y-98650000D03*
X110765000Y-84150000D03*
%TD*%
D12*
%TO.P,U1,41,GND*%
%TO.N,GND*%
X127100000Y-92900000D03*
X127100000Y-91800000D03*
X127100000Y-90700000D03*
X125700000Y-92900000D03*
X125700000Y-91800000D03*
X125700000Y-90700000D03*
D13*
X125000000Y-91800000D03*
D12*
X124300000Y-92900000D03*
X124300000Y-91800000D03*
X124300000Y-90700000D03*
X122900000Y-92900000D03*
X122900000Y-91800000D03*
X122900000Y-90700000D03*
%TD*%
D14*
%TO.P,P11,1,VCC*%
%TO.N,Net-(JP1-A)*%
X132250000Y-105675000D03*
D15*
%TO.P,P11,2,GND*%
%TO.N,GND*%
X132250000Y-103135000D03*
%TO.P,P11,3,R*%
%TO.N,Net-(P11-R)*%
X134790000Y-105675000D03*
%TO.P,P11,4,RI*%
%TO.N,Net-(P11-RI)*%
X134790000Y-103135000D03*
%TO.P,P11,5,G*%
%TO.N,Net-(P11-G)*%
X137330000Y-105675000D03*
%TO.P,P11,6,GI*%
%TO.N,Net-(P11-GI)*%
X137330000Y-103135000D03*
%TO.P,P11,7,B*%
%TO.N,Net-(P11-B)*%
X139870000Y-105675000D03*
%TO.P,P11,8,BI*%
%TO.N,Net-(P11-BI)*%
X139870000Y-103135000D03*
%TO.P,P11,9,VSYNC*%
%TO.N,Net-(P11-VSYNC)*%
X142410000Y-105675000D03*
%TO.P,P11,10,HSYNC*%
%TO.N,Net-(P11-HSYNC)*%
X142410000Y-103135000D03*
%TO.P,P11,11,GND*%
%TO.N,GND*%
X144950000Y-105675000D03*
%TO.P,P11,12,V33*%
%TO.N,Net-(JP10-B)*%
X144950000Y-103135000D03*
%TD*%
D16*
%TO.P,J2,1,Pin_1*%
%TO.N,Net-(J2-Pin_1)*%
X154568500Y-88773000D03*
D15*
%TO.P,J2,2,Pin_2*%
%TO.N,unconnected-(J2-Pin_2-Pad2)*%
X157108500Y-88773000D03*
%TO.P,J2,3,Pin_3*%
%TO.N,Net-(J1-UTILITY)*%
X154568500Y-91313000D03*
%TO.P,J2,4,Pin_4*%
%TO.N,unconnected-(J2-Pin_4-Pad4)*%
X157108500Y-91313000D03*
%TO.P,J2,5,Pin_5*%
%TO.N,Net-(J2-Pin_5)*%
X154568500Y-93853000D03*
%TO.P,J2,6,Pin_6*%
%TO.N,unconnected-(J2-Pin_6-Pad6)*%
X157108500Y-93853000D03*
%TO.P,J2,7,Pin_7*%
%TO.N,Net-(J2-Pin_7)*%
X154568500Y-96393000D03*
%TO.P,J2,8,Pin_8*%
%TO.N,unconnected-(J2-Pin_8-Pad8)*%
X157108500Y-96393000D03*
%TO.P,J2,9,Pin_9*%
%TO.N,Net-(J1-CEC)*%
X154568500Y-98933000D03*
%TO.P,J2,10,Pin_10*%
%TO.N,unconnected-(J2-Pin_10-Pad10)*%
X157108500Y-98933000D03*
%TO.P,J2,11,Pin_11*%
%TO.N,GND*%
X154568500Y-101473000D03*
%TO.P,J2,12,Pin_12*%
%TO.N,unconnected-(J2-Pin_12-Pad12)*%
X157108500Y-101473000D03*
%TD*%
D17*
%TO.N,Net-(J1-SDA)*%
X119888000Y-97028000D03*
X124333000Y-96901000D03*
X114611130Y-88125638D03*
%TO.N,GND*%
X115600000Y-92400000D03*
X138938000Y-86233000D03*
X129540000Y-85852000D03*
X115558201Y-87975000D03*
X112903000Y-107569000D03*
X115600000Y-95400000D03*
X115600000Y-93800000D03*
X149860000Y-105410000D03*
X115600000Y-90800000D03*
X141859000Y-90297000D03*
X134022000Y-85725000D03*
%TO.N,Net-(J1-+5V)*%
X113746087Y-100613913D03*
X113471000Y-87548448D03*
%TO.N,Net-(J1-CEC)*%
X112979508Y-90089119D03*
X154011592Y-108318410D03*
%TO.N,Net-(J1-HPD)*%
X124982769Y-97293285D03*
X114554000Y-86995000D03*
%TO.N,Net-(J1-UTILITY)*%
X154812565Y-108767338D03*
X112589000Y-89535000D03*
%TO.N,Net-(J1-SCL)*%
X123921298Y-96362298D03*
X119380000Y-96520000D03*
X114581179Y-88825000D03*
%TO.N,Net-(JP1-A)*%
X118618000Y-85852000D03*
X129152263Y-108801648D03*
%TO.N,Net-(J2-Pin_7)*%
X123105235Y-88025230D03*
X149155417Y-82708659D03*
%TO.N,Net-(J2-Pin_5)*%
X149568086Y-83274086D03*
X123742184Y-88265000D03*
%TO.N,Net-(J2-Pin_1)*%
X153924000Y-83947000D03*
X142494000Y-87757000D03*
X124405513Y-88091974D03*
%TO.N,Net-(JP3-B)*%
X136271000Y-87503000D03*
X125857607Y-87832219D03*
%TO.N,Net-(JP10-B)*%
X121171640Y-93926764D03*
X129032000Y-95758000D03*
X129144674Y-90224998D03*
X120400000Y-91375000D03*
X122789882Y-88989619D03*
X123782587Y-95343587D03*
X128409458Y-84900000D03*
X129209429Y-92524571D03*
X122936000Y-104902000D03*
X126543173Y-88773000D03*
%TO.N,Net-(JP5-B)*%
X126575000Y-95063664D03*
X128397000Y-101981000D03*
%TO.N,Net-(JP14-B)*%
X125476000Y-101346000D03*
X125476000Y-97790000D03*
%TO.N,Net-(U1-VSADJ)*%
X125102882Y-88031310D03*
X136335953Y-84776000D03*
%TO.N,Net-(JP15-B)*%
X144907000Y-100076000D03*
X127254000Y-95758000D03*
%TD*%
D18*
%TO.N,Net-(J1-SDA)*%
X119074827Y-97028000D02*
X114808000Y-97028000D01*
X114006179Y-89191283D02*
X114006179Y-88586827D01*
X119888000Y-97028000D02*
X119685173Y-97028000D01*
X114467368Y-88125638D02*
X114611130Y-88125638D01*
X114006179Y-88586827D02*
X114467368Y-88125638D01*
X119141827Y-97095000D02*
X119074827Y-97028000D01*
X114554000Y-96774000D02*
X114487000Y-96774000D01*
X114808000Y-97028000D02*
X114554000Y-96774000D01*
X114487000Y-89672104D02*
X114006179Y-89191283D01*
X119618173Y-97095000D02*
X119141827Y-97095000D01*
X114487000Y-96774000D02*
X114487000Y-89672104D01*
X124206000Y-97028000D02*
X124333000Y-96901000D01*
X119888000Y-97028000D02*
X124206000Y-97028000D01*
X119685173Y-97028000D02*
X119618173Y-97095000D01*
D19*
%TO.N,GND*%
X115600000Y-95400000D02*
X115600000Y-93800000D01*
D18*
X115600000Y-88016799D02*
X115558201Y-87975000D01*
D19*
X115600000Y-92400000D02*
X115600000Y-93800000D01*
X115600000Y-90800000D02*
X115600000Y-88016799D01*
X115600000Y-90800000D02*
X115600000Y-92400000D01*
D18*
%TO.N,Net-(J1-+5V)*%
X113206179Y-87813269D02*
X113471000Y-87548448D01*
X113746087Y-100613913D02*
X113746087Y-97849106D01*
X113746087Y-97849106D02*
X113538000Y-97641019D01*
X113538000Y-89867365D02*
X113206179Y-89535543D01*
X113206179Y-89535543D02*
X113206179Y-87813269D01*
X113538000Y-97641019D02*
X113538000Y-89867365D01*
%TO.N,Net-(J1-CEC)*%
X143626634Y-107738000D02*
X153431182Y-107738000D01*
X112903000Y-90165627D02*
X112903000Y-97571705D01*
X112903000Y-97571705D02*
X113215000Y-97883705D01*
X130457365Y-107738000D02*
X130753365Y-108034000D01*
X130753365Y-108034000D02*
X143330634Y-108034000D01*
X113215000Y-97883705D02*
X113215000Y-104971628D01*
X143330634Y-108034000D02*
X143626634Y-107738000D01*
X113215000Y-104971628D02*
X115981372Y-107738000D01*
X115981372Y-107738000D02*
X130457365Y-107738000D01*
X153431182Y-107738000D02*
X154011592Y-108318410D01*
X112979508Y-90089119D02*
X112903000Y-90165627D01*
%TO.N,Net-(J1-HPD)*%
X114036130Y-87991190D02*
X113606179Y-88421142D01*
X114491000Y-97600000D02*
X124676054Y-97600000D01*
X114046000Y-89809679D02*
X114046000Y-97155000D01*
X113606179Y-89369858D02*
X114046000Y-89809679D01*
X114046000Y-97155000D02*
X114491000Y-97600000D01*
X114554000Y-86995000D02*
X114036130Y-87512870D01*
X113606179Y-88421142D02*
X113606179Y-89369858D01*
X114036130Y-87512870D02*
X114036130Y-87991190D01*
X124676054Y-97600000D02*
X124982769Y-97293285D01*
%TO.N,Net-(J1-UTILITY)*%
X154812565Y-108767338D02*
X154687396Y-108892507D01*
X129273497Y-108138000D02*
X115815687Y-108138000D01*
X130028004Y-108892507D02*
X129273497Y-108138000D01*
X112815000Y-105137313D02*
X112815000Y-98049391D01*
X154687396Y-108892507D02*
X130028004Y-108892507D01*
X112815000Y-98049391D02*
X112415000Y-97649390D01*
X112415000Y-97649390D02*
X112415000Y-89709000D01*
X115815687Y-108138000D02*
X112815000Y-105137313D01*
X112415000Y-89709000D02*
X112589000Y-89535000D01*
%TO.N,Net-(J1-SCL)*%
X120193173Y-96520000D02*
X120126173Y-96453000D01*
X123631000Y-96520000D02*
X120193173Y-96520000D01*
X120126173Y-96453000D02*
X119447000Y-96453000D01*
X114935000Y-96081314D02*
X114935000Y-89178821D01*
X119380000Y-96520000D02*
X115373686Y-96520000D01*
X114935000Y-89178821D02*
X114581179Y-88825000D01*
X119447000Y-96453000D02*
X119380000Y-96520000D01*
X115373686Y-96520000D02*
X114935000Y-96081314D01*
X123788702Y-96362298D02*
X123631000Y-96520000D01*
X123921298Y-96362298D02*
X123788702Y-96362298D01*
%TO.N,Net-(JP1-A)*%
X112014000Y-97814076D02*
X112415000Y-98215076D01*
X114424985Y-85852000D02*
X112014000Y-88262985D01*
X112014000Y-88262985D02*
X112014000Y-97814076D01*
X112415000Y-98215076D02*
X112415000Y-105303000D01*
X118618000Y-85852000D02*
X114424985Y-85852000D01*
X112415000Y-105303000D02*
X115913648Y-108801648D01*
X115913648Y-108801648D02*
X129152263Y-108801648D01*
%TO.N,Net-(J2-Pin_7)*%
X135337743Y-82402000D02*
X148848758Y-82402000D01*
X127658257Y-82423000D02*
X135316743Y-82423000D01*
X124299063Y-85782194D02*
X127658257Y-82423000D01*
X124299063Y-86831402D02*
X124299063Y-85782194D01*
X148848758Y-82402000D02*
X149155417Y-82708659D01*
X135316743Y-82423000D02*
X135337743Y-82402000D01*
X123105235Y-88025230D02*
X124299063Y-86831402D01*
%TO.N,Net-(J2-Pin_5)*%
X124699063Y-85947880D02*
X127823945Y-82823000D01*
X123742184Y-88265000D02*
X123742184Y-88003099D01*
X135248126Y-82878065D02*
X148485892Y-82878065D01*
X124699063Y-87046218D02*
X124699063Y-85947880D01*
X148881913Y-83274086D02*
X149568086Y-83274086D01*
X135193061Y-82823000D02*
X135248126Y-82878065D01*
X123742184Y-88003099D02*
X124699063Y-87046218D01*
X148485892Y-82878065D02*
X148881913Y-83274086D01*
X127823945Y-82823000D02*
X135193061Y-82823000D01*
%TO.N,Net-(J2-Pin_1)*%
X149876345Y-83779000D02*
X153756000Y-83779000D01*
X125099063Y-86113566D02*
X127989630Y-83223000D01*
X135116371Y-83312000D02*
X142367000Y-83312000D01*
X142834000Y-83779000D02*
X149259827Y-83779000D01*
X142367000Y-83312000D02*
X142834000Y-83779000D01*
X135027372Y-83223000D02*
X135116371Y-83312000D01*
X149329913Y-83849086D02*
X149806259Y-83849086D01*
X142494000Y-87757000D02*
X142367000Y-87630000D01*
X153756000Y-83779000D02*
X153924000Y-83947000D01*
X127989630Y-83223000D02*
X135027372Y-83223000D01*
X142367000Y-87630000D02*
X142367000Y-83312000D01*
X125099063Y-87211903D02*
X125099063Y-86113566D01*
X124405513Y-87905454D02*
X125099063Y-87211903D01*
X149259827Y-83779000D02*
X149329913Y-83849086D01*
X149806259Y-83849086D02*
X149876345Y-83779000D01*
X124405513Y-88091974D02*
X124405513Y-87905454D01*
%TO.N,Net-(JP3-B)*%
X126111000Y-87578826D02*
X125857607Y-87832219D01*
X126111000Y-86360000D02*
X126111000Y-87578826D01*
X128448000Y-84023000D02*
X126111000Y-86360000D01*
X136271000Y-87503000D02*
X136271000Y-85598000D01*
X134696000Y-84023000D02*
X128448000Y-84023000D01*
X136271000Y-85598000D02*
X134696000Y-84023000D01*
D19*
%TO.N,Net-(JP10-B)*%
X128651000Y-88773000D02*
X126543173Y-88773000D01*
D20*
X121171640Y-93971640D02*
X121875000Y-94675000D01*
D19*
X146939000Y-107188000D02*
X143398818Y-107188000D01*
D18*
X128409458Y-85012832D02*
X128409458Y-84900000D01*
D20*
X120400000Y-93200000D02*
X121126764Y-93926764D01*
D19*
X126543173Y-88773000D02*
X126326554Y-88989619D01*
X146939000Y-104902000D02*
X146939000Y-107188000D01*
X143398818Y-107188000D02*
X143102817Y-107484000D01*
X130685182Y-107188000D02*
X125222000Y-107188000D01*
X129032000Y-95758000D02*
X129032000Y-92702000D01*
X128651000Y-88773000D02*
X128397000Y-88519000D01*
D20*
X121126764Y-93926764D02*
X121171640Y-93926764D01*
D19*
X126326554Y-88989619D02*
X122789882Y-88989619D01*
D20*
X121875000Y-94675000D02*
X123301173Y-94675000D01*
D19*
X144950000Y-103135000D02*
X145172000Y-103135000D01*
D20*
X123782587Y-95156414D02*
X123782587Y-95343587D01*
D19*
X128651000Y-88773000D02*
X128651000Y-89731324D01*
X143102817Y-107484000D02*
X130981182Y-107484000D01*
X130981182Y-107484000D02*
X130685182Y-107188000D01*
D20*
X123301173Y-94675000D02*
X123782587Y-95156414D01*
D19*
X128397000Y-88519000D02*
X128397000Y-85025290D01*
D18*
X128397000Y-85025290D02*
X128409458Y-85012832D01*
D19*
X129144674Y-90224998D02*
X129144674Y-92459816D01*
D18*
X129032000Y-92702000D02*
X129209429Y-92524571D01*
D19*
X125222000Y-107188000D02*
X122936000Y-104902000D01*
X145172000Y-103135000D02*
X146939000Y-104902000D01*
D20*
X121171640Y-93926764D02*
X121171640Y-93971640D01*
D19*
X128651000Y-89731324D02*
X129144674Y-90224998D01*
D20*
X120400000Y-91375000D02*
X120400000Y-93200000D01*
D19*
X129144674Y-92459816D02*
X129209429Y-92524571D01*
D18*
%TO.N,Net-(JP5-B)*%
X126619000Y-95107664D02*
X126575000Y-95063664D01*
X126619000Y-100203000D02*
X126619000Y-95107664D01*
X128397000Y-101981000D02*
X126619000Y-100203000D01*
%TO.N,Net-(JP14-B)*%
X125476000Y-97790000D02*
X125476000Y-101346000D01*
%TO.N,Net-(U1-VSADJ)*%
X125102882Y-88031310D02*
X125102882Y-87773771D01*
X135058686Y-83820000D02*
X135636000Y-83820000D01*
X135636000Y-83820000D02*
X136335953Y-84519953D01*
X136335953Y-84519953D02*
X136335953Y-84776000D01*
X128155315Y-83623000D02*
X134861686Y-83623000D01*
X125603000Y-86175315D02*
X128155315Y-83623000D01*
X134861686Y-83623000D02*
X135058686Y-83820000D01*
X125102882Y-87773771D02*
X125603000Y-87273653D01*
X125603000Y-87273653D02*
X125603000Y-86175315D01*
%TO.N,Net-(JP15-B)*%
X127254000Y-95758000D02*
X127254000Y-99441000D01*
X129540000Y-105265000D02*
X131209000Y-106934000D01*
X142875000Y-106934000D02*
X143764000Y-106045000D01*
X127254000Y-99441000D02*
X129540000Y-101727000D01*
X143764000Y-106045000D02*
X143764000Y-101219000D01*
X143764000Y-101219000D02*
X144907000Y-100076000D01*
X131209000Y-106934000D02*
X142875000Y-106934000D01*
X129540000Y-101727000D02*
X129540000Y-105265000D01*
%TD*%
%TA.AperFunction,Conductor*%
%TO.N,GND*%
G36*
X155909944Y-99586999D02*
G01*
X155948986Y-99632056D01*
X155953451Y-99640820D01*
X156078390Y-99812786D01*
X156228713Y-99963109D01*
X156400682Y-100088050D01*
X156409446Y-100092516D01*
X156460242Y-100140491D01*
X156477036Y-100208312D01*
X156454498Y-100274447D01*
X156409446Y-100313484D01*
X156400682Y-100317949D01*
X156228713Y-100442890D01*
X156078390Y-100593213D01*
X155953449Y-100765182D01*
X155948702Y-100774499D01*
X155900727Y-100825293D01*
X155832905Y-100842087D01*
X155766771Y-100819548D01*
X155727734Y-100774495D01*
X155723126Y-100765452D01*
X155683770Y-100711282D01*
X155683769Y-100711282D01*
X155051462Y-101343590D01*
X155034425Y-101280007D01*
X154968599Y-101165993D01*
X154875507Y-101072901D01*
X154761493Y-101007075D01*
X154697909Y-100990037D01*
X155330216Y-100357728D01*
X155276047Y-100318373D01*
X155276047Y-100318372D01*
X155267000Y-100313763D01*
X155216206Y-100265788D01*
X155199412Y-100197966D01*
X155221951Y-100131832D01*
X155267008Y-100092793D01*
X155276316Y-100088051D01*
X155412827Y-99988871D01*
X155448286Y-99963109D01*
X155448288Y-99963106D01*
X155448292Y-99963104D01*
X155598604Y-99812792D01*
X155598606Y-99812788D01*
X155598609Y-99812786D01*
X155723548Y-99640820D01*
X155723547Y-99640820D01*
X155723551Y-99640816D01*
X155728014Y-99632054D01*
X155775988Y-99581259D01*
X155843808Y-99564463D01*
X155909944Y-99586999D01*
G37*
%TD.AperFunction*%
%TA.AperFunction,Conductor*%
G36*
X159974638Y-81419905D02*
G01*
X160020596Y-81472532D01*
X160032000Y-81524477D01*
X160032000Y-108476475D01*
X160012315Y-108543514D01*
X159959511Y-108589269D01*
X159908477Y-108600474D01*
X155618883Y-108616962D01*
X155551768Y-108597535D01*
X155505810Y-108544908D01*
X155503845Y-108540415D01*
X155455497Y-108423691D01*
X155455490Y-108423678D01*
X155376097Y-108304859D01*
X155376094Y-108304855D01*
X155275047Y-108203808D01*
X155275043Y-108203805D01*
X155156224Y-108124412D01*
X155156215Y-108124407D01*
X155024185Y-108069719D01*
X155024179Y-108069717D01*
X154884022Y-108041838D01*
X154884020Y-108041838D01*
X154764700Y-108041838D01*
X154697661Y-108022153D01*
X154658334Y-107979535D01*
X154657906Y-107979822D01*
X154656086Y-107977098D01*
X154655343Y-107976293D01*
X154654523Y-107974759D01*
X154575124Y-107855931D01*
X154575121Y-107855927D01*
X154474074Y-107754880D01*
X154474070Y-107754877D01*
X154355251Y-107675484D01*
X154355242Y-107675479D01*
X154223210Y-107620790D01*
X154223206Y-107620789D01*
X154185200Y-107613229D01*
X154123289Y-107580843D01*
X154121711Y-107579293D01*
X153799899Y-107257481D01*
X153799898Y-107257480D01*
X153713086Y-107207360D01*
X153713086Y-107207359D01*
X153713082Y-107207358D01*
X153662967Y-107178423D01*
X153510239Y-107137499D01*
X153352125Y-107137499D01*
X153344529Y-107137499D01*
X153344513Y-107137500D01*
X147813500Y-107137500D01*
X147746461Y-107117815D01*
X147700706Y-107065011D01*
X147689500Y-107013500D01*
X147689500Y-104828079D01*
X147660659Y-104683092D01*
X147660658Y-104683088D01*
X147660658Y-104683087D01*
X147644839Y-104644896D01*
X147604087Y-104546511D01*
X147604080Y-104546498D01*
X147521952Y-104423585D01*
X147479569Y-104381202D01*
X147417416Y-104319049D01*
X147417415Y-104319048D01*
X146881076Y-103782709D01*
X146336819Y-103238451D01*
X146303334Y-103177128D01*
X146300500Y-103150770D01*
X146300500Y-103028713D01*
X146286767Y-102942007D01*
X146267246Y-102818757D01*
X146201557Y-102616588D01*
X146105051Y-102427184D01*
X146105049Y-102427181D01*
X146105048Y-102427179D01*
X145980109Y-102255213D01*
X145829786Y-102104890D01*
X145657820Y-101979951D01*
X145468414Y-101883444D01*
X145468413Y-101883443D01*
X145468412Y-101883443D01*
X145266243Y-101817754D01*
X145266241Y-101817753D01*
X145266240Y-101817753D01*
X145086233Y-101789243D01*
X145056287Y-101784500D01*
X144843713Y-101784500D01*
X144813767Y-101789243D01*
X144633759Y-101817753D01*
X144633755Y-101817754D01*
X144526817Y-101852500D01*
X144498698Y-101853303D01*
X144470853Y-101857307D01*
X144464241Y-101854287D01*
X144456976Y-101854495D01*
X144432886Y-101839968D01*
X144407297Y-101828282D01*
X144403367Y-101822167D01*
X144397143Y-101818414D01*
X144384730Y-101793167D01*
X144369523Y-101769504D01*
X144368046Y-101759231D01*
X144366316Y-101755713D01*
X144364500Y-101734569D01*
X144364500Y-101519096D01*
X144384185Y-101452057D01*
X144400815Y-101431419D01*
X145017119Y-100815114D01*
X145078440Y-100781631D01*
X145080536Y-100781194D01*
X145118620Y-100773619D01*
X145250653Y-100718929D01*
X145369479Y-100639532D01*
X145470532Y-100538479D01*
X145549929Y-100419653D01*
X145604619Y-100287620D01*
X145632500Y-100147455D01*
X145632500Y-100004545D01*
X145632500Y-100004542D01*
X145604620Y-99864385D01*
X145604619Y-99864384D01*
X145604619Y-99864380D01*
X145549929Y-99732347D01*
X145549928Y-99732346D01*
X145549925Y-99732340D01*
X145470532Y-99613521D01*
X145470529Y-99613517D01*
X145369482Y-99512470D01*
X145369478Y-99512467D01*
X145250659Y-99433074D01*
X145250650Y-99433069D01*
X145118620Y-99378381D01*
X145118614Y-99378379D01*
X144978457Y-99350500D01*
X144978455Y-99350500D01*
X144835545Y-99350500D01*
X144835543Y-99350500D01*
X144695385Y-99378379D01*
X144695379Y-99378381D01*
X144563349Y-99433069D01*
X144563340Y-99433074D01*
X144444521Y-99512467D01*
X144444517Y-99512470D01*
X144343470Y-99613517D01*
X144343467Y-99613521D01*
X144264074Y-99732340D01*
X144264069Y-99732349D01*
X144209380Y-99864381D01*
X144209379Y-99864383D01*
X144201819Y-99902392D01*
X144169433Y-99964302D01*
X144167883Y-99965880D01*
X143398016Y-100735747D01*
X143398008Y-100735755D01*
X143395286Y-100738478D01*
X143395284Y-100738480D01*
X143283480Y-100850284D01*
X143264291Y-100883521D01*
X143258085Y-100894269D01*
X143258084Y-100894271D01*
X143212630Y-100973000D01*
X143204423Y-100987215D01*
X143163499Y-101139943D01*
X143163499Y-101139945D01*
X143163499Y-101308046D01*
X143163500Y-101308059D01*
X143163500Y-101800876D01*
X143143815Y-101867915D01*
X143091011Y-101913670D01*
X143021853Y-101923614D01*
X142983206Y-101911361D01*
X142928417Y-101883445D01*
X142928414Y-101883444D01*
X142928412Y-101883443D01*
X142726243Y-101817754D01*
X142726241Y-101817753D01*
X142726240Y-101817753D01*
X142546233Y-101789243D01*
X142516287Y-101784500D01*
X142303713Y-101784500D01*
X142273767Y-101789243D01*
X142093760Y-101817753D01*
X141891585Y-101883444D01*
X141702179Y-101979951D01*
X141530213Y-102104890D01*
X141379890Y-102255213D01*
X141254949Y-102427182D01*
X141250484Y-102435946D01*
X141202509Y-102486742D01*
X141134688Y-102503536D01*
X141068553Y-102480998D01*
X141029516Y-102435946D01*
X141025050Y-102427182D01*
X140900109Y-102255213D01*
X140749786Y-102104890D01*
X140577820Y-101979951D01*
X140388414Y-101883444D01*
X140388413Y-101883443D01*
X140388412Y-101883443D01*
X140186243Y-101817754D01*
X140186241Y-101817753D01*
X140186240Y-101817753D01*
X140006233Y-101789243D01*
X139976287Y-101784500D01*
X139763713Y-101784500D01*
X139733767Y-101789243D01*
X139553760Y-101817753D01*
X139351585Y-101883444D01*
X139162179Y-101979951D01*
X138990213Y-102104890D01*
X138839890Y-102255213D01*
X138714949Y-102427182D01*
X138710484Y-102435946D01*
X138662509Y-102486742D01*
X138594688Y-102503536D01*
X138528553Y-102480998D01*
X138489516Y-102435946D01*
X138485050Y-102427182D01*
X138360109Y-102255213D01*
X138209786Y-102104890D01*
X138037820Y-101979951D01*
X137848414Y-101883444D01*
X137848413Y-101883443D01*
X137848412Y-101883443D01*
X137646243Y-101817754D01*
X137646241Y-101817753D01*
X137646240Y-101817753D01*
X137466233Y-101789243D01*
X137436287Y-101784500D01*
X137223713Y-101784500D01*
X137193767Y-101789243D01*
X137013760Y-101817753D01*
X136811585Y-101883444D01*
X136622179Y-101979951D01*
X136450213Y-102104890D01*
X136299890Y-102255213D01*
X136174949Y-102427182D01*
X136170484Y-102435946D01*
X136122509Y-102486742D01*
X136054688Y-102503536D01*
X135988553Y-102480998D01*
X135949516Y-102435946D01*
X135945050Y-102427182D01*
X135820109Y-102255213D01*
X135669786Y-102104890D01*
X135497820Y-101979951D01*
X135308414Y-101883444D01*
X135308413Y-101883443D01*
X135308412Y-101883443D01*
X135106243Y-101817754D01*
X135106241Y-101817753D01*
X135106240Y-101817753D01*
X134926233Y-101789243D01*
X134896287Y-101784500D01*
X134683713Y-101784500D01*
X134653767Y-101789243D01*
X134473760Y-101817753D01*
X134271585Y-101883444D01*
X134082179Y-101979951D01*
X133910213Y-102104890D01*
X133759890Y-102255213D01*
X133634949Y-102427182D01*
X133630202Y-102436499D01*
X133582227Y-102487293D01*
X133514405Y-102504087D01*
X133448271Y-102481548D01*
X133409234Y-102436495D01*
X133404626Y-102427452D01*
X133365270Y-102373282D01*
X133365269Y-102373282D01*
X132732962Y-103005590D01*
X132715925Y-102942007D01*
X132650099Y-102827993D01*
X132557007Y-102734901D01*
X132442993Y-102669075D01*
X132379409Y-102652037D01*
X133011716Y-102019728D01*
X132957550Y-101980375D01*
X132768217Y-101883904D01*
X132566129Y-101818242D01*
X132356246Y-101785000D01*
X132143754Y-101785000D01*
X131933872Y-101818242D01*
X131933869Y-101818242D01*
X131731782Y-101883904D01*
X131542439Y-101980380D01*
X131488282Y-102019727D01*
X131488282Y-102019728D01*
X132120591Y-102652037D01*
X132057007Y-102669075D01*
X131942993Y-102734901D01*
X131849901Y-102827993D01*
X131784075Y-102942007D01*
X131767037Y-103005591D01*
X131134728Y-102373282D01*
X131134727Y-102373282D01*
X131095380Y-102427439D01*
X130998904Y-102616782D01*
X130933242Y-102818869D01*
X130933242Y-102818872D01*
X130900000Y-103028753D01*
X130900000Y-103241246D01*
X130933242Y-103451127D01*
X130933242Y-103451130D01*
X130998904Y-103653217D01*
X131095375Y-103842550D01*
X131134728Y-103896716D01*
X131767037Y-103264408D01*
X131784075Y-103327993D01*
X131849901Y-103442007D01*
X131942993Y-103535099D01*
X132057007Y-103600925D01*
X132120590Y-103617962D01*
X131450370Y-104288181D01*
X131389047Y-104321666D01*
X131362698Y-104324500D01*
X131352134Y-104324500D01*
X131352123Y-104324501D01*
X131292516Y-104330908D01*
X131157671Y-104381202D01*
X131157664Y-104381206D01*
X131042455Y-104467452D01*
X131042452Y-104467455D01*
X130956206Y-104582664D01*
X130956202Y-104582671D01*
X130905908Y-104717517D01*
X130899501Y-104777116D01*
X130899500Y-104777135D01*
X130899500Y-105475903D01*
X130879815Y-105542942D01*
X130827011Y-105588697D01*
X130757853Y-105598641D01*
X130694297Y-105569616D01*
X130687819Y-105563584D01*
X130176819Y-105052584D01*
X130143334Y-104991261D01*
X130140500Y-104964903D01*
X130140500Y-101647943D01*
X130140499Y-101647939D01*
X130124363Y-101587717D01*
X130122093Y-101579246D01*
X130099577Y-101495215D01*
X130059071Y-101425057D01*
X130025410Y-101366753D01*
X130020521Y-101358285D01*
X129904385Y-101242149D01*
X129904374Y-101242139D01*
X127890819Y-99228584D01*
X127857334Y-99167261D01*
X127854500Y-99140903D01*
X127854500Y-96202766D01*
X127874185Y-96135727D01*
X127875399Y-96133874D01*
X127896929Y-96101653D01*
X127951619Y-95969620D01*
X127968813Y-95883181D01*
X127979500Y-95829457D01*
X127979500Y-95686542D01*
X127951620Y-95546385D01*
X127951619Y-95546384D01*
X127951619Y-95546380D01*
X127896929Y-95414347D01*
X127896928Y-95414346D01*
X127896925Y-95414340D01*
X127817532Y-95295521D01*
X127817529Y-95295517D01*
X127716482Y-95194470D01*
X127716478Y-95194467D01*
X127597659Y-95115074D01*
X127597650Y-95115069D01*
X127465620Y-95060381D01*
X127465614Y-95060379D01*
X127389077Y-95045155D01*
X127327166Y-95012770D01*
X127292592Y-94952054D01*
X127291652Y-94947729D01*
X127272620Y-94852051D01*
X127272620Y-94852049D01*
X127272619Y-94852044D01*
X127217929Y-94720011D01*
X127217928Y-94720010D01*
X127217925Y-94720004D01*
X127138532Y-94601185D01*
X127138529Y-94601181D01*
X127037482Y-94500134D01*
X127037478Y-94500131D01*
X126918659Y-94420738D01*
X126918650Y-94420733D01*
X126786620Y-94366045D01*
X126786614Y-94366043D01*
X126646457Y-94338164D01*
X126646455Y-94338164D01*
X126503545Y-94338164D01*
X126503543Y-94338164D01*
X126363385Y-94366043D01*
X126363379Y-94366045D01*
X126231349Y-94420733D01*
X126231340Y-94420738D01*
X126112521Y-94500131D01*
X126112517Y-94500134D01*
X126011470Y-94601181D01*
X126011467Y-94601185D01*
X125932074Y-94720004D01*
X125932069Y-94720013D01*
X125877381Y-94852043D01*
X125877379Y-94852049D01*
X125849500Y-94992206D01*
X125849500Y-94992209D01*
X125849500Y-95135119D01*
X125849500Y-95135121D01*
X125849499Y-95135121D01*
X125877379Y-95275278D01*
X125877381Y-95275284D01*
X125932069Y-95407314D01*
X125932074Y-95407323D01*
X125997602Y-95505391D01*
X126018480Y-95572068D01*
X126018500Y-95574282D01*
X126018500Y-97047948D01*
X125998815Y-97114987D01*
X125946011Y-97160742D01*
X125876853Y-97170686D01*
X125843644Y-97161039D01*
X125834205Y-97156794D01*
X125819653Y-97147071D01*
X125730029Y-97109947D01*
X125728298Y-97109169D01*
X125703118Y-97087605D01*
X125677297Y-97066797D01*
X125675959Y-97064347D01*
X125675229Y-97063722D01*
X125674754Y-97062141D01*
X125664593Y-97043531D01*
X125625699Y-96949635D01*
X125625698Y-96949632D01*
X125625696Y-96949629D01*
X125625694Y-96949625D01*
X125546301Y-96830806D01*
X125546298Y-96830802D01*
X125445251Y-96729755D01*
X125445247Y-96729752D01*
X125326428Y-96650359D01*
X125326419Y-96650354D01*
X125194389Y-96595666D01*
X125194383Y-96595664D01*
X125054226Y-96567785D01*
X125054224Y-96567785D01*
X125049183Y-96567785D01*
X124982144Y-96548100D01*
X124946081Y-96512676D01*
X124896532Y-96438520D01*
X124795479Y-96337467D01*
X124677409Y-96258576D01*
X124632604Y-96204964D01*
X124624684Y-96179670D01*
X124618917Y-96150678D01*
X124564227Y-96018645D01*
X124564226Y-96018644D01*
X124564223Y-96018638D01*
X124484830Y-95899819D01*
X124484827Y-95899815D01*
X124436084Y-95851072D01*
X124402599Y-95789749D01*
X124407583Y-95720057D01*
X124420660Y-95694506D01*
X124425516Y-95687240D01*
X124480206Y-95555207D01*
X124508087Y-95415042D01*
X124508087Y-95272132D01*
X124508087Y-95272129D01*
X124480207Y-95131972D01*
X124480206Y-95131971D01*
X124480206Y-95131967D01*
X124473209Y-95115074D01*
X124425519Y-94999940D01*
X124425517Y-94999937D01*
X124425516Y-94999934D01*
X124422296Y-94995116D01*
X124411332Y-94971921D01*
X124410420Y-94972300D01*
X124359055Y-94848293D01*
X124359048Y-94848280D01*
X124287864Y-94741746D01*
X124266122Y-94720004D01*
X124197256Y-94651138D01*
X124098174Y-94552056D01*
X123715847Y-94169727D01*
X123715846Y-94169726D01*
X123715842Y-94169723D01*
X123609300Y-94098535D01*
X123490917Y-94049499D01*
X123490911Y-94049497D01*
X123365244Y-94024500D01*
X123365242Y-94024500D01*
X122195808Y-94024500D01*
X122128769Y-94004815D01*
X122108127Y-93988181D01*
X121904341Y-93784395D01*
X121876510Y-93741802D01*
X121872536Y-93731622D01*
X121869259Y-93715144D01*
X121814569Y-93583111D01*
X121814565Y-93583106D01*
X121814565Y-93583104D01*
X121810872Y-93577577D01*
X122575975Y-93577577D01*
X122681236Y-93621178D01*
X122681240Y-93621179D01*
X122826126Y-93649999D01*
X122826129Y-93650000D01*
X122973871Y-93650000D01*
X122973873Y-93649999D01*
X123118760Y-93621179D01*
X123118775Y-93621175D01*
X123224024Y-93577578D01*
X123224024Y-93577577D01*
X123975975Y-93577577D01*
X124081236Y-93621178D01*
X124081240Y-93621179D01*
X124226126Y-93649999D01*
X124226129Y-93650000D01*
X124373871Y-93650000D01*
X124373873Y-93649999D01*
X124518760Y-93621179D01*
X124518775Y-93621175D01*
X124624024Y-93577578D01*
X124624024Y-93577577D01*
X125375975Y-93577577D01*
X125481236Y-93621178D01*
X125481240Y-93621179D01*
X125626126Y-93649999D01*
X125626129Y-93650000D01*
X125773871Y-93650000D01*
X125773873Y-93649999D01*
X125918760Y-93621179D01*
X125918775Y-93621175D01*
X126024024Y-93577578D01*
X126024024Y-93577577D01*
X126775975Y-93577577D01*
X126881236Y-93621178D01*
X126881240Y-93621179D01*
X127026126Y-93649999D01*
X127026129Y-93650000D01*
X127173871Y-93650000D01*
X127173873Y-93649999D01*
X127318760Y-93621179D01*
X127318775Y-93621175D01*
X127424024Y-93577578D01*
X127424024Y-93577577D01*
X127100001Y-93253554D01*
X127100000Y-93253554D01*
X126775975Y-93577577D01*
X126024024Y-93577577D01*
X125700001Y-93253554D01*
X125700000Y-93253554D01*
X125375975Y-93577577D01*
X124624024Y-93577577D01*
X124300001Y-93253554D01*
X124300000Y-93253554D01*
X123975975Y-93577577D01*
X123224024Y-93577577D01*
X122900001Y-93253554D01*
X122900000Y-93253554D01*
X122575975Y-93577577D01*
X121810872Y-93577577D01*
X121735172Y-93464285D01*
X121735169Y-93464281D01*
X121634122Y-93363234D01*
X121634118Y-93363231D01*
X121515299Y-93283838D01*
X121515290Y-93283833D01*
X121383258Y-93229144D01*
X121383256Y-93229143D01*
X121377496Y-93227998D01*
X121315586Y-93195612D01*
X121314008Y-93194062D01*
X121086819Y-92966873D01*
X121072115Y-92939945D01*
X121055523Y-92914127D01*
X121054631Y-92907926D01*
X121053334Y-92905550D01*
X121050500Y-92879192D01*
X121050500Y-92826126D01*
X122150000Y-92826126D01*
X122150000Y-92973873D01*
X122178820Y-93118759D01*
X122178822Y-93118767D01*
X122222421Y-93224024D01*
X122546446Y-92900000D01*
X122546446Y-92899999D01*
X122516610Y-92870163D01*
X122750000Y-92870163D01*
X122750000Y-92929837D01*
X122772836Y-92984968D01*
X122815032Y-93027164D01*
X122870163Y-93050000D01*
X122929837Y-93050000D01*
X122984968Y-93027164D01*
X123027164Y-92984968D01*
X123050000Y-92929837D01*
X123050000Y-92899999D01*
X123253554Y-92899999D01*
X123253554Y-92900001D01*
X123577929Y-93224376D01*
X123622069Y-93224376D01*
X123946446Y-92900000D01*
X123916609Y-92870163D01*
X124150000Y-92870163D01*
X124150000Y-92929837D01*
X124172836Y-92984968D01*
X124215032Y-93027164D01*
X124270163Y-93050000D01*
X124329837Y-93050000D01*
X124384968Y-93027164D01*
X124427164Y-92984968D01*
X124450000Y-92929837D01*
X124450000Y-92899999D01*
X124653554Y-92899999D01*
X124653554Y-92900001D01*
X124977929Y-93224376D01*
X125022069Y-93224376D01*
X125346446Y-92900000D01*
X125316609Y-92870163D01*
X125550000Y-92870163D01*
X125550000Y-92929837D01*
X125572836Y-92984968D01*
X125615032Y-93027164D01*
X125670163Y-93050000D01*
X125729837Y-93050000D01*
X125784968Y-93027164D01*
X125827164Y-92984968D01*
X125850000Y-92929837D01*
X125850000Y-92899999D01*
X126053554Y-92899999D01*
X126053554Y-92900001D01*
X126377929Y-93224376D01*
X126422069Y-93224376D01*
X126746446Y-92900000D01*
X126716609Y-92870163D01*
X126950000Y-92870163D01*
X126950000Y-92929837D01*
X126972836Y-92984968D01*
X127015032Y-93027164D01*
X127070163Y-93050000D01*
X127129837Y-93050000D01*
X127184968Y-93027164D01*
X127227164Y-92984968D01*
X127250000Y-92929837D01*
X127250000Y-92899999D01*
X127453554Y-92899999D01*
X127453554Y-92900001D01*
X127777577Y-93224024D01*
X127777578Y-93224024D01*
X127821175Y-93118775D01*
X127821179Y-93118760D01*
X127849999Y-92973873D01*
X127850000Y-92973871D01*
X127850000Y-92826128D01*
X127849999Y-92826126D01*
X127821179Y-92681240D01*
X127821178Y-92681236D01*
X127777577Y-92575975D01*
X127453554Y-92899999D01*
X127250000Y-92899999D01*
X127250000Y-92870163D01*
X127227164Y-92815032D01*
X127184968Y-92772836D01*
X127129837Y-92750000D01*
X127070163Y-92750000D01*
X127015032Y-92772836D01*
X126972836Y-92815032D01*
X126950000Y-92870163D01*
X126716609Y-92870163D01*
X126421860Y-92575414D01*
X126403203Y-92573744D01*
X126382351Y-92576743D01*
X126377619Y-92575932D01*
X126053554Y-92899999D01*
X125850000Y-92899999D01*
X125850000Y-92870163D01*
X125827164Y-92815032D01*
X125784968Y-92772836D01*
X125729837Y-92750000D01*
X125670163Y-92750000D01*
X125615032Y-92772836D01*
X125572836Y-92815032D01*
X125550000Y-92870163D01*
X125316609Y-92870163D01*
X125021860Y-92575414D01*
X125003203Y-92573744D01*
X124982351Y-92576743D01*
X124977619Y-92575932D01*
X124653554Y-92899999D01*
X124450000Y-92899999D01*
X124450000Y-92870163D01*
X124427164Y-92815032D01*
X124384968Y-92772836D01*
X124329837Y-92750000D01*
X124270163Y-92750000D01*
X124215032Y-92772836D01*
X124172836Y-92815032D01*
X124150000Y-92870163D01*
X123916609Y-92870163D01*
X123621860Y-92575414D01*
X123603203Y-92573744D01*
X123582351Y-92576743D01*
X123577619Y-92575932D01*
X123253554Y-92899999D01*
X123050000Y-92899999D01*
X123050000Y-92870163D01*
X123027164Y-92815032D01*
X122984968Y-92772836D01*
X122929837Y-92750000D01*
X122870163Y-92750000D01*
X122815032Y-92772836D01*
X122772836Y-92815032D01*
X122750000Y-92870163D01*
X122516610Y-92870163D01*
X122222421Y-92575974D01*
X122222420Y-92575974D01*
X122178823Y-92681228D01*
X122178820Y-92681240D01*
X122150000Y-92826126D01*
X121050500Y-92826126D01*
X121050500Y-92350000D01*
X122703554Y-92350000D01*
X122900000Y-92546446D01*
X123096446Y-92350000D01*
X124103554Y-92350000D01*
X124300000Y-92546446D01*
X124496446Y-92350000D01*
X125503554Y-92350000D01*
X125700000Y-92546446D01*
X125896446Y-92350000D01*
X126903554Y-92350000D01*
X127100000Y-92546446D01*
X127296446Y-92350000D01*
X127100000Y-92153554D01*
X126903554Y-92350000D01*
X125896446Y-92350000D01*
X125700000Y-92153554D01*
X125503554Y-92350000D01*
X124496446Y-92350000D01*
X124300000Y-92153554D01*
X124103554Y-92350000D01*
X123096446Y-92350000D01*
X122900000Y-92153554D01*
X122703554Y-92350000D01*
X121050500Y-92350000D01*
X121050500Y-91726126D01*
X122150000Y-91726126D01*
X122150000Y-91873873D01*
X122178820Y-92018759D01*
X122178822Y-92018767D01*
X122222421Y-92124024D01*
X122546446Y-91800000D01*
X122546446Y-91799999D01*
X122516610Y-91770163D01*
X122750000Y-91770163D01*
X122750000Y-91829837D01*
X122772836Y-91884968D01*
X122815032Y-91927164D01*
X122870163Y-91950000D01*
X122929837Y-91950000D01*
X122984968Y-91927164D01*
X123027164Y-91884968D01*
X123050000Y-91829837D01*
X123050000Y-91799999D01*
X123253554Y-91799999D01*
X123253554Y-91800001D01*
X123577929Y-92124376D01*
X123609849Y-92124376D01*
X123617645Y-92123255D01*
X123620100Y-92124376D01*
X123622069Y-92124376D01*
X123946446Y-91800000D01*
X123916609Y-91770163D01*
X124150000Y-91770163D01*
X124150000Y-91829837D01*
X124172836Y-91884968D01*
X124215032Y-91927164D01*
X124270163Y-91950000D01*
X124329837Y-91950000D01*
X124384968Y-91927164D01*
X124427164Y-91884968D01*
X124450000Y-91829837D01*
X124450000Y-91799999D01*
X124653554Y-91799999D01*
X124653554Y-91800001D01*
X124977929Y-92124376D01*
X125009849Y-92124376D01*
X125017645Y-92123255D01*
X125020100Y-92124376D01*
X125022069Y-92124376D01*
X125346446Y-91800000D01*
X125316609Y-91770163D01*
X125550000Y-91770163D01*
X125550000Y-91829837D01*
X125572836Y-91884968D01*
X125615032Y-91927164D01*
X125670163Y-91950000D01*
X125729837Y-91950000D01*
X125784968Y-91927164D01*
X125827164Y-91884968D01*
X125850000Y-91829837D01*
X125850000Y-91799999D01*
X126053554Y-91799999D01*
X126053554Y-91800001D01*
X126377929Y-92124376D01*
X126409849Y-92124376D01*
X126417645Y-92123255D01*
X126420100Y-92124376D01*
X126422069Y-92124376D01*
X126746446Y-91800000D01*
X126716609Y-91770163D01*
X126950000Y-91770163D01*
X126950000Y-91829837D01*
X126972836Y-91884968D01*
X127015032Y-91927164D01*
X127070163Y-91950000D01*
X127129837Y-91950000D01*
X127184968Y-91927164D01*
X127227164Y-91884968D01*
X127250000Y-91829837D01*
X127250000Y-91799999D01*
X127453554Y-91799999D01*
X127453554Y-91800001D01*
X127777577Y-92124024D01*
X127777578Y-92124024D01*
X127821175Y-92018775D01*
X127821179Y-92018760D01*
X127849999Y-91873873D01*
X127850000Y-91873871D01*
X127850000Y-91726128D01*
X127849999Y-91726126D01*
X127821179Y-91581240D01*
X127821178Y-91581236D01*
X127777577Y-91475975D01*
X127453554Y-91799999D01*
X127250000Y-91799999D01*
X127250000Y-91770163D01*
X127227164Y-91715032D01*
X127184968Y-91672836D01*
X127129837Y-91650000D01*
X127070163Y-91650000D01*
X127015032Y-91672836D01*
X126972836Y-91715032D01*
X126950000Y-91770163D01*
X126716609Y-91770163D01*
X126421860Y-91475414D01*
X126403203Y-91473744D01*
X126382351Y-91476743D01*
X126377619Y-91475932D01*
X126053554Y-91799999D01*
X125850000Y-91799999D01*
X125850000Y-91770163D01*
X125827164Y-91715032D01*
X125784968Y-91672836D01*
X125729837Y-91650000D01*
X125670163Y-91650000D01*
X125615032Y-91672836D01*
X125572836Y-91715032D01*
X125550000Y-91770163D01*
X125316609Y-91770163D01*
X125021860Y-91475414D01*
X125003203Y-91473744D01*
X124982351Y-91476743D01*
X124977619Y-91475932D01*
X124653554Y-91799999D01*
X124450000Y-91799999D01*
X124450000Y-91770163D01*
X124427164Y-91715032D01*
X124384968Y-91672836D01*
X124329837Y-91650000D01*
X124270163Y-91650000D01*
X124215032Y-91672836D01*
X124172836Y-91715032D01*
X124150000Y-91770163D01*
X123916609Y-91770163D01*
X123621860Y-91475414D01*
X123603203Y-91473744D01*
X123582351Y-91476743D01*
X123577619Y-91475932D01*
X123253554Y-91799999D01*
X123050000Y-91799999D01*
X123050000Y-91770163D01*
X123027164Y-91715032D01*
X122984968Y-91672836D01*
X122929837Y-91650000D01*
X122870163Y-91650000D01*
X122815032Y-91672836D01*
X122772836Y-91715032D01*
X122750000Y-91770163D01*
X122516610Y-91770163D01*
X122222421Y-91475974D01*
X122222420Y-91475974D01*
X122178823Y-91581228D01*
X122178820Y-91581240D01*
X122150000Y-91726126D01*
X121050500Y-91726126D01*
X121050500Y-91725040D01*
X121052124Y-91716869D01*
X121051209Y-91711795D01*
X121059935Y-91677597D01*
X121062006Y-91672596D01*
X121097619Y-91586620D01*
X121106742Y-91540751D01*
X121125500Y-91446457D01*
X121125500Y-91303542D01*
X121114850Y-91250000D01*
X122703554Y-91250000D01*
X122900000Y-91446446D01*
X123096446Y-91250000D01*
X124103554Y-91250000D01*
X124300000Y-91446446D01*
X124496446Y-91250000D01*
X125503554Y-91250000D01*
X125700000Y-91446446D01*
X125896446Y-91250000D01*
X126903554Y-91250000D01*
X127100000Y-91446446D01*
X127296446Y-91250000D01*
X127100000Y-91053554D01*
X126903554Y-91250000D01*
X125896446Y-91250000D01*
X125700000Y-91053554D01*
X125503554Y-91250000D01*
X124496446Y-91250000D01*
X124300000Y-91053554D01*
X124103554Y-91250000D01*
X123096446Y-91250000D01*
X122900000Y-91053554D01*
X122703554Y-91250000D01*
X121114850Y-91250000D01*
X121109445Y-91222830D01*
X121097620Y-91163385D01*
X121097619Y-91163384D01*
X121097619Y-91163380D01*
X121055318Y-91061258D01*
X121042930Y-91031349D01*
X121042925Y-91031340D01*
X120963532Y-90912521D01*
X120963529Y-90912517D01*
X120862482Y-90811470D01*
X120862478Y-90811467D01*
X120743659Y-90732074D01*
X120743649Y-90732069D01*
X120611620Y-90677381D01*
X120611614Y-90677379D01*
X120471457Y-90649500D01*
X120471455Y-90649500D01*
X120328545Y-90649500D01*
X120328543Y-90649500D01*
X120188385Y-90677379D01*
X120188379Y-90677381D01*
X120056349Y-90732069D01*
X120056340Y-90732074D01*
X119937521Y-90811467D01*
X119937517Y-90811470D01*
X119836470Y-90912517D01*
X119836467Y-90912521D01*
X119757074Y-91031340D01*
X119757069Y-91031349D01*
X119702381Y-91163379D01*
X119702379Y-91163385D01*
X119674500Y-91303542D01*
X119674500Y-91303545D01*
X119674500Y-91446455D01*
X119674500Y-91446457D01*
X119674499Y-91446457D01*
X119702379Y-91586614D01*
X119702381Y-91586620D01*
X119737989Y-91672586D01*
X119740061Y-91677587D01*
X119749500Y-91725040D01*
X119749500Y-93264071D01*
X119769225Y-93363231D01*
X119772379Y-93379086D01*
X119774499Y-93389744D01*
X119823535Y-93508127D01*
X119873637Y-93583111D01*
X119894726Y-93614673D01*
X119894727Y-93614674D01*
X120495882Y-94215828D01*
X120522761Y-94256055D01*
X120528706Y-94270408D01*
X120528714Y-94270423D01*
X120608107Y-94389242D01*
X120608110Y-94389246D01*
X120709160Y-94490296D01*
X120827981Y-94569689D01*
X120827987Y-94569693D01*
X120842344Y-94575639D01*
X120882574Y-94602520D01*
X121460330Y-95180276D01*
X121495088Y-95203500D01*
X121566873Y-95251465D01*
X121685256Y-95300501D01*
X121685260Y-95300501D01*
X121685261Y-95300502D01*
X121810928Y-95325500D01*
X121810931Y-95325500D01*
X122937512Y-95325500D01*
X123004551Y-95345185D01*
X123050306Y-95397989D01*
X123059129Y-95425309D01*
X123084966Y-95555199D01*
X123084968Y-95555207D01*
X123139656Y-95687237D01*
X123139661Y-95687246D01*
X123165963Y-95726609D01*
X123186841Y-95793286D01*
X123168357Y-95860667D01*
X123116378Y-95907357D01*
X123062861Y-95919500D01*
X120436351Y-95919500D01*
X120374351Y-95902887D01*
X120357961Y-95893424D01*
X120357960Y-95893423D01*
X120287666Y-95874588D01*
X120205230Y-95852499D01*
X120047116Y-95852499D01*
X120039520Y-95852499D01*
X120039504Y-95852500D01*
X119688999Y-95852500D01*
X119641547Y-95843061D01*
X119591624Y-95822382D01*
X119591614Y-95822379D01*
X119451457Y-95794500D01*
X119451455Y-95794500D01*
X119308545Y-95794500D01*
X119308543Y-95794500D01*
X119168385Y-95822379D01*
X119168379Y-95822381D01*
X119036348Y-95877069D01*
X119004124Y-95898602D01*
X118937446Y-95919480D01*
X118935233Y-95919500D01*
X115673784Y-95919500D01*
X115644343Y-95910855D01*
X115614357Y-95904332D01*
X115609341Y-95900577D01*
X115606745Y-95899815D01*
X115586103Y-95883181D01*
X115571819Y-95868897D01*
X115538334Y-95807574D01*
X115535500Y-95781216D01*
X115535500Y-90626126D01*
X122150000Y-90626126D01*
X122150000Y-90773873D01*
X122178820Y-90918759D01*
X122178822Y-90918767D01*
X122222421Y-91024024D01*
X122546446Y-90700000D01*
X122546446Y-90699999D01*
X122516610Y-90670163D01*
X122750000Y-90670163D01*
X122750000Y-90729837D01*
X122772836Y-90784968D01*
X122815032Y-90827164D01*
X122870163Y-90850000D01*
X122929837Y-90850000D01*
X122984968Y-90827164D01*
X123027164Y-90784968D01*
X123050000Y-90729837D01*
X123050000Y-90699999D01*
X123253554Y-90699999D01*
X123253554Y-90700001D01*
X123577929Y-91024376D01*
X123609849Y-91024376D01*
X123617645Y-91023255D01*
X123620100Y-91024376D01*
X123622069Y-91024376D01*
X123946446Y-90700000D01*
X123916609Y-90670163D01*
X124150000Y-90670163D01*
X124150000Y-90729837D01*
X124172836Y-90784968D01*
X124215032Y-90827164D01*
X124270163Y-90850000D01*
X124329837Y-90850000D01*
X124384968Y-90827164D01*
X124427164Y-90784968D01*
X124450000Y-90729837D01*
X124450000Y-90699999D01*
X124653554Y-90699999D01*
X124653554Y-90700001D01*
X124977929Y-91024376D01*
X125009849Y-91024376D01*
X125017645Y-91023255D01*
X125020100Y-91024376D01*
X125022069Y-91024376D01*
X125346446Y-90700000D01*
X125316609Y-90670163D01*
X125550000Y-90670163D01*
X125550000Y-90729837D01*
X125572836Y-90784968D01*
X125615032Y-90827164D01*
X125670163Y-90850000D01*
X125729837Y-90850000D01*
X125784968Y-90827164D01*
X125827164Y-90784968D01*
X125850000Y-90729837D01*
X125850000Y-90699999D01*
X126053554Y-90699999D01*
X126053554Y-90700001D01*
X126377929Y-91024376D01*
X126409849Y-91024376D01*
X126417645Y-91023255D01*
X126420100Y-91024376D01*
X126422069Y-91024376D01*
X126746446Y-90700000D01*
X126716609Y-90670163D01*
X126950000Y-90670163D01*
X126950000Y-90729837D01*
X126972836Y-90784968D01*
X127015032Y-90827164D01*
X127070163Y-90850000D01*
X127129837Y-90850000D01*
X127184968Y-90827164D01*
X127227164Y-90784968D01*
X127250000Y-90729837D01*
X127250000Y-90699999D01*
X127453554Y-90699999D01*
X127453554Y-90700001D01*
X127777577Y-91024024D01*
X127777578Y-91024024D01*
X127821175Y-90918775D01*
X127821179Y-90918760D01*
X127849999Y-90773873D01*
X127850000Y-90773871D01*
X127850000Y-90626128D01*
X127849999Y-90626126D01*
X127821179Y-90481240D01*
X127821178Y-90481236D01*
X127777577Y-90375975D01*
X127453554Y-90699999D01*
X127250000Y-90699999D01*
X127250000Y-90670163D01*
X127227164Y-90615032D01*
X127184968Y-90572836D01*
X127129837Y-90550000D01*
X127070163Y-90550000D01*
X127015032Y-90572836D01*
X126972836Y-90615032D01*
X126950000Y-90670163D01*
X126716609Y-90670163D01*
X126422068Y-90375622D01*
X126377930Y-90375622D01*
X126053554Y-90699999D01*
X125850000Y-90699999D01*
X125850000Y-90670163D01*
X125827164Y-90615032D01*
X125784968Y-90572836D01*
X125729837Y-90550000D01*
X125670163Y-90550000D01*
X125615032Y-90572836D01*
X125572836Y-90615032D01*
X125550000Y-90670163D01*
X125316609Y-90670163D01*
X125022068Y-90375622D01*
X124977930Y-90375622D01*
X124653554Y-90699999D01*
X124450000Y-90699999D01*
X124450000Y-90670163D01*
X124427164Y-90615032D01*
X124384968Y-90572836D01*
X124329837Y-90550000D01*
X124270163Y-90550000D01*
X124215032Y-90572836D01*
X124172836Y-90615032D01*
X124150000Y-90670163D01*
X123916609Y-90670163D01*
X123622068Y-90375622D01*
X123577930Y-90375622D01*
X123253554Y-90699999D01*
X123050000Y-90699999D01*
X123050000Y-90670163D01*
X123027164Y-90615032D01*
X122984968Y-90572836D01*
X122929837Y-90550000D01*
X122870163Y-90550000D01*
X122815032Y-90572836D01*
X122772836Y-90615032D01*
X122750000Y-90670163D01*
X122516610Y-90670163D01*
X122222421Y-90375974D01*
X122222420Y-90375974D01*
X122178823Y-90481228D01*
X122178820Y-90481240D01*
X122150000Y-90626126D01*
X115535500Y-90626126D01*
X115535500Y-89099766D01*
X115535500Y-89099764D01*
X115525794Y-89063539D01*
X122039381Y-89063539D01*
X122068222Y-89208526D01*
X122068225Y-89208536D01*
X122124794Y-89345107D01*
X122124801Y-89345120D01*
X122206930Y-89468034D01*
X122206933Y-89468038D01*
X122311462Y-89572567D01*
X122311466Y-89572570D01*
X122434380Y-89654699D01*
X122434393Y-89654706D01*
X122525236Y-89692334D01*
X122570969Y-89711277D01*
X122570973Y-89711277D01*
X122570974Y-89711278D01*
X122687207Y-89734399D01*
X122749118Y-89766784D01*
X122783692Y-89827500D01*
X122779952Y-89897269D01*
X122739085Y-89953941D01*
X122687210Y-89977633D01*
X122681234Y-89978821D01*
X122681228Y-89978823D01*
X122575974Y-90022420D01*
X122575974Y-90022421D01*
X122900000Y-90346446D01*
X122900001Y-90346446D01*
X123224024Y-90022421D01*
X123118424Y-89978680D01*
X123064021Y-89934839D01*
X123041956Y-89868545D01*
X123059235Y-89800845D01*
X123110373Y-89753235D01*
X123165877Y-89740119D01*
X124034123Y-89740119D01*
X124101162Y-89759804D01*
X124146917Y-89812608D01*
X124156861Y-89881766D01*
X124127836Y-89945322D01*
X124081576Y-89978680D01*
X123975974Y-90022421D01*
X124300000Y-90346446D01*
X124300001Y-90346446D01*
X124624024Y-90022421D01*
X124518424Y-89978680D01*
X124464021Y-89934839D01*
X124441956Y-89868545D01*
X124459235Y-89800845D01*
X124510373Y-89753235D01*
X124565877Y-89740119D01*
X125434123Y-89740119D01*
X125501162Y-89759804D01*
X125546917Y-89812608D01*
X125556861Y-89881766D01*
X125527836Y-89945322D01*
X125481576Y-89978680D01*
X125375974Y-90022421D01*
X125700000Y-90346446D01*
X125700001Y-90346446D01*
X126024024Y-90022421D01*
X126024022Y-90022420D01*
X126775974Y-90022420D01*
X126775974Y-90022421D01*
X127100000Y-90346446D01*
X127100001Y-90346446D01*
X127424024Y-90022421D01*
X127318767Y-89978822D01*
X127318759Y-89978820D01*
X127173872Y-89950000D01*
X127026128Y-89950000D01*
X126881240Y-89978820D01*
X126881228Y-89978823D01*
X126775974Y-90022420D01*
X126024022Y-90022420D01*
X125918424Y-89978680D01*
X125864021Y-89934839D01*
X125841956Y-89868545D01*
X125859235Y-89800845D01*
X125910373Y-89753235D01*
X125965877Y-89740119D01*
X126400474Y-89740119D01*
X126498016Y-89720715D01*
X126545467Y-89711277D01*
X126682049Y-89654703D01*
X126751049Y-89608599D01*
X126804970Y-89572571D01*
X126823921Y-89553619D01*
X126830927Y-89548357D01*
X126855765Y-89539045D01*
X126879045Y-89526334D01*
X126893948Y-89524731D01*
X126896351Y-89523831D01*
X126898337Y-89524259D01*
X126905403Y-89523500D01*
X127776500Y-89523500D01*
X127843539Y-89543185D01*
X127889294Y-89595989D01*
X127900500Y-89647500D01*
X127900500Y-89805242D01*
X127900500Y-89805244D01*
X127900499Y-89805244D01*
X127929340Y-89950231D01*
X127929343Y-89950241D01*
X127975405Y-90061443D01*
X127985916Y-90086819D01*
X127998406Y-90105512D01*
X128018805Y-90136042D01*
X128030461Y-90153486D01*
X128068048Y-90209740D01*
X128357856Y-90499547D01*
X128391340Y-90560868D01*
X128394174Y-90587227D01*
X128394174Y-92268095D01*
X128374489Y-92335134D01*
X128373277Y-92336984D01*
X128366915Y-92346504D01*
X128366914Y-92346506D01*
X128310343Y-92483082D01*
X128310340Y-92483092D01*
X128281500Y-92628079D01*
X128281500Y-92628082D01*
X128281500Y-95831918D01*
X128281500Y-95831920D01*
X128281499Y-95831920D01*
X128310340Y-95976907D01*
X128310343Y-95976917D01*
X128366912Y-96113488D01*
X128366919Y-96113501D01*
X128449048Y-96236415D01*
X128449051Y-96236419D01*
X128553580Y-96340948D01*
X128553584Y-96340951D01*
X128676498Y-96423080D01*
X128676511Y-96423087D01*
X128813082Y-96479656D01*
X128813087Y-96479658D01*
X128813091Y-96479658D01*
X128813092Y-96479659D01*
X128958079Y-96508500D01*
X128958082Y-96508500D01*
X129105920Y-96508500D01*
X129203462Y-96489096D01*
X129250913Y-96479658D01*
X129387495Y-96423084D01*
X129510416Y-96340951D01*
X129614951Y-96236416D01*
X129697084Y-96113495D01*
X129753658Y-95976913D01*
X129768994Y-95899815D01*
X129782500Y-95831920D01*
X129782500Y-93055387D01*
X129802185Y-92988348D01*
X129803398Y-92986496D01*
X129811833Y-92973873D01*
X129874513Y-92880065D01*
X129931087Y-92743483D01*
X129950575Y-92645512D01*
X129959929Y-92598490D01*
X129959929Y-92450650D01*
X129931088Y-92305663D01*
X129931087Y-92305662D01*
X129931087Y-92305658D01*
X129915528Y-92268095D01*
X129904613Y-92241742D01*
X129895174Y-92194290D01*
X129895174Y-90151077D01*
X129866333Y-90006090D01*
X129866332Y-90006089D01*
X129866332Y-90006085D01*
X129855039Y-89978821D01*
X129809761Y-89869509D01*
X129809754Y-89869496D01*
X129727626Y-89746583D01*
X129692318Y-89711275D01*
X129623090Y-89642047D01*
X129553610Y-89572567D01*
X129437819Y-89456775D01*
X129404334Y-89395452D01*
X129401500Y-89369094D01*
X129401500Y-88699079D01*
X129372659Y-88554092D01*
X129372658Y-88554091D01*
X129372658Y-88554087D01*
X129350907Y-88501575D01*
X129316087Y-88417511D01*
X129316080Y-88417498D01*
X129233951Y-88294584D01*
X129233948Y-88294580D01*
X129183819Y-88244451D01*
X129150334Y-88183128D01*
X129147500Y-88156770D01*
X129147500Y-84951369D01*
X129137341Y-84900299D01*
X129135655Y-84889234D01*
X129134958Y-84882687D01*
X129134958Y-84828545D01*
X129122555Y-84766196D01*
X129121963Y-84760627D01*
X129127241Y-84731543D01*
X129129876Y-84702101D01*
X129133411Y-84697550D01*
X129134440Y-84691881D01*
X129154602Y-84670270D01*
X129172738Y-84646923D01*
X129178172Y-84645005D01*
X129182103Y-84640793D01*
X129210750Y-84633512D01*
X129238628Y-84623678D01*
X129245266Y-84623500D01*
X134395903Y-84623500D01*
X134462942Y-84643185D01*
X134483584Y-84659819D01*
X135634181Y-85810416D01*
X135667666Y-85871739D01*
X135670500Y-85898097D01*
X135670500Y-87058232D01*
X135650815Y-87125271D01*
X135649603Y-87127122D01*
X135628070Y-87159348D01*
X135573381Y-87291379D01*
X135573379Y-87291385D01*
X135545500Y-87431542D01*
X135545500Y-87431545D01*
X135545500Y-87574455D01*
X135545500Y-87574457D01*
X135545499Y-87574457D01*
X135573379Y-87714614D01*
X135573381Y-87714620D01*
X135628069Y-87846650D01*
X135628074Y-87846659D01*
X135707467Y-87965478D01*
X135707470Y-87965482D01*
X135808517Y-88066529D01*
X135808521Y-88066532D01*
X135927340Y-88145925D01*
X135927346Y-88145928D01*
X135927347Y-88145929D01*
X136059380Y-88200619D01*
X136059384Y-88200619D01*
X136059385Y-88200620D01*
X136199542Y-88228500D01*
X136199545Y-88228500D01*
X136342457Y-88228500D01*
X136444845Y-88208133D01*
X136482620Y-88200619D01*
X136614653Y-88145929D01*
X136733479Y-88066532D01*
X136834532Y-87965479D01*
X136913929Y-87846653D01*
X136968619Y-87714620D01*
X136979905Y-87657883D01*
X136996500Y-87574457D01*
X136996500Y-87431542D01*
X136968620Y-87291385D01*
X136968619Y-87291384D01*
X136968619Y-87291380D01*
X136913929Y-87159347D01*
X136892396Y-87127121D01*
X136871520Y-87060444D01*
X136871500Y-87058232D01*
X136871500Y-85518945D01*
X136871500Y-85518943D01*
X136836673Y-85388966D01*
X136838336Y-85319121D01*
X136868766Y-85269196D01*
X136899485Y-85238479D01*
X136978882Y-85119653D01*
X137033572Y-84987620D01*
X137053143Y-84889234D01*
X137061453Y-84847457D01*
X137061453Y-84704542D01*
X137033573Y-84564385D01*
X137033572Y-84564384D01*
X137033572Y-84564380D01*
X136978882Y-84432347D01*
X136915593Y-84337629D01*
X136907921Y-84324461D01*
X136902213Y-84313112D01*
X136895530Y-84288168D01*
X136851824Y-84212468D01*
X136816473Y-84151237D01*
X136789417Y-84124181D01*
X136755932Y-84062858D01*
X136760916Y-83993166D01*
X136802788Y-83937233D01*
X136868252Y-83912816D01*
X136877098Y-83912500D01*
X141642500Y-83912500D01*
X141709539Y-83932185D01*
X141755294Y-83984989D01*
X141766500Y-84036500D01*
X141766500Y-87550939D01*
X141766499Y-87550943D01*
X141766499Y-87709057D01*
X141768332Y-87715898D01*
X141768493Y-87731071D01*
X141768428Y-87731298D01*
X141768500Y-87732383D01*
X141768500Y-87828455D01*
X141768500Y-87828457D01*
X141768499Y-87828457D01*
X141796379Y-87968614D01*
X141796381Y-87968620D01*
X141851069Y-88100650D01*
X141851074Y-88100659D01*
X141930467Y-88219478D01*
X141930470Y-88219482D01*
X142031517Y-88320529D01*
X142031521Y-88320532D01*
X142150340Y-88399925D01*
X142150346Y-88399928D01*
X142150347Y-88399929D01*
X142282380Y-88454619D01*
X142282384Y-88454619D01*
X142282385Y-88454620D01*
X142422542Y-88482500D01*
X142422545Y-88482500D01*
X142565457Y-88482500D01*
X142659751Y-88463742D01*
X142705620Y-88454619D01*
X142837653Y-88399929D01*
X142956479Y-88320532D01*
X143057532Y-88219479D01*
X143122009Y-88122983D01*
X153218000Y-88122983D01*
X153218000Y-89423001D01*
X153218001Y-89423018D01*
X153228500Y-89525796D01*
X153228501Y-89525799D01*
X153276855Y-89671720D01*
X153283686Y-89692334D01*
X153375788Y-89841656D01*
X153499844Y-89965712D01*
X153649166Y-90057814D01*
X153659723Y-90061312D01*
X153717168Y-90101084D01*
X153743992Y-90165600D01*
X153731677Y-90234376D01*
X153693613Y-90279330D01*
X153688719Y-90282885D01*
X153688709Y-90282894D01*
X153538390Y-90433213D01*
X153413451Y-90605179D01*
X153316944Y-90794585D01*
X153251253Y-90996760D01*
X153218000Y-91206713D01*
X153218000Y-91419287D01*
X153251254Y-91629243D01*
X153316431Y-91829837D01*
X153316944Y-91831414D01*
X153413451Y-92020820D01*
X153538390Y-92192786D01*
X153688713Y-92343109D01*
X153860682Y-92468050D01*
X153869446Y-92472516D01*
X153920242Y-92520491D01*
X153937036Y-92588312D01*
X153914498Y-92654447D01*
X153869446Y-92693484D01*
X153860682Y-92697949D01*
X153688713Y-92822890D01*
X153538390Y-92973213D01*
X153413451Y-93145179D01*
X153316944Y-93334585D01*
X153251253Y-93536760D01*
X153233318Y-93649999D01*
X153218000Y-93746713D01*
X153218000Y-93959287D01*
X153251254Y-94169243D01*
X153315198Y-94366043D01*
X153316944Y-94371414D01*
X153413451Y-94560820D01*
X153538390Y-94732786D01*
X153688713Y-94883109D01*
X153860682Y-95008050D01*
X153869446Y-95012516D01*
X153920242Y-95060491D01*
X153937036Y-95128312D01*
X153914498Y-95194447D01*
X153869446Y-95233484D01*
X153860682Y-95237949D01*
X153688713Y-95362890D01*
X153538390Y-95513213D01*
X153413451Y-95685179D01*
X153316944Y-95874585D01*
X153251253Y-96076760D01*
X153218000Y-96286713D01*
X153218000Y-96499286D01*
X153241927Y-96650359D01*
X153251254Y-96709243D01*
X153290752Y-96830806D01*
X153316944Y-96911414D01*
X153413451Y-97100820D01*
X153538390Y-97272786D01*
X153688713Y-97423109D01*
X153860682Y-97548050D01*
X153869446Y-97552516D01*
X153920242Y-97600491D01*
X153937036Y-97668312D01*
X153914498Y-97734447D01*
X153869446Y-97773484D01*
X153860682Y-97777949D01*
X153688713Y-97902890D01*
X153538390Y-98053213D01*
X153413451Y-98225179D01*
X153316944Y-98414585D01*
X153251253Y-98616760D01*
X153218000Y-98826713D01*
X153218000Y-99039286D01*
X153251253Y-99249239D01*
X153316944Y-99451414D01*
X153413451Y-99640820D01*
X153538390Y-99812786D01*
X153688713Y-99963109D01*
X153860679Y-100088048D01*
X153860681Y-100088049D01*
X153860684Y-100088051D01*
X153869993Y-100092794D01*
X153920790Y-100140766D01*
X153937587Y-100208587D01*
X153915052Y-100274722D01*
X153870005Y-100313760D01*
X153860946Y-100318376D01*
X153860940Y-100318380D01*
X153806782Y-100357727D01*
X153806782Y-100357728D01*
X154439091Y-100990037D01*
X154375507Y-101007075D01*
X154261493Y-101072901D01*
X154168401Y-101165993D01*
X154102575Y-101280007D01*
X154085537Y-101343590D01*
X153453228Y-100711282D01*
X153453227Y-100711282D01*
X153413880Y-100765439D01*
X153317404Y-100954782D01*
X153251742Y-101156869D01*
X153251742Y-101156872D01*
X153218500Y-101366753D01*
X153218500Y-101579246D01*
X153251742Y-101789127D01*
X153251742Y-101789130D01*
X153317404Y-101991217D01*
X153413875Y-102180550D01*
X153453228Y-102234716D01*
X154085537Y-101602408D01*
X154102575Y-101665993D01*
X154168401Y-101780007D01*
X154261493Y-101873099D01*
X154375507Y-101938925D01*
X154439090Y-101955962D01*
X153806782Y-102588269D01*
X153806782Y-102588270D01*
X153860949Y-102627624D01*
X154050282Y-102724095D01*
X154252370Y-102789757D01*
X154462254Y-102823000D01*
X154674746Y-102823000D01*
X154884627Y-102789757D01*
X154884630Y-102789757D01*
X155086717Y-102724095D01*
X155276054Y-102627622D01*
X155330216Y-102588270D01*
X155330217Y-102588270D01*
X154697908Y-101955962D01*
X154761493Y-101938925D01*
X154875507Y-101873099D01*
X154968599Y-101780007D01*
X155034425Y-101665993D01*
X155051462Y-101602408D01*
X155683770Y-102234717D01*
X155683770Y-102234716D01*
X155723122Y-102180555D01*
X155727732Y-102171507D01*
X155775705Y-102120709D01*
X155843525Y-102103912D01*
X155909661Y-102126447D01*
X155948704Y-102171504D01*
X155953449Y-102180817D01*
X156078390Y-102352786D01*
X156228713Y-102503109D01*
X156400679Y-102628048D01*
X156400681Y-102628049D01*
X156400684Y-102628051D01*
X156590088Y-102724557D01*
X156792257Y-102790246D01*
X157002213Y-102823500D01*
X157002214Y-102823500D01*
X157214786Y-102823500D01*
X157214787Y-102823500D01*
X157424743Y-102790246D01*
X157626912Y-102724557D01*
X157816316Y-102628051D01*
X157856204Y-102599071D01*
X157988286Y-102503109D01*
X157988288Y-102503106D01*
X157988292Y-102503104D01*
X158138604Y-102352792D01*
X158138606Y-102352788D01*
X158138609Y-102352786D01*
X158263548Y-102180820D01*
X158263550Y-102180817D01*
X158263551Y-102180816D01*
X158360057Y-101991412D01*
X158425746Y-101789243D01*
X158459000Y-101579287D01*
X158459000Y-101366713D01*
X158425746Y-101156757D01*
X158360057Y-100954588D01*
X158263551Y-100765184D01*
X158263549Y-100765181D01*
X158263548Y-100765179D01*
X158138609Y-100593213D01*
X157988286Y-100442890D01*
X157816320Y-100317951D01*
X157808100Y-100313763D01*
X157807554Y-100313485D01*
X157756759Y-100265512D01*
X157739963Y-100197692D01*
X157762499Y-100131556D01*
X157807554Y-100092515D01*
X157816316Y-100088051D01*
X157838289Y-100072086D01*
X157988286Y-99963109D01*
X157988288Y-99963106D01*
X157988292Y-99963104D01*
X158138604Y-99812792D01*
X158138606Y-99812788D01*
X158138609Y-99812786D01*
X158263548Y-99640820D01*
X158263547Y-99640820D01*
X158263551Y-99640816D01*
X158360057Y-99451412D01*
X158425746Y-99249243D01*
X158459000Y-99039287D01*
X158459000Y-98826713D01*
X158425746Y-98616757D01*
X158360057Y-98414588D01*
X158263551Y-98225184D01*
X158263549Y-98225181D01*
X158263548Y-98225179D01*
X158138609Y-98053213D01*
X157988286Y-97902890D01*
X157816320Y-97777951D01*
X157815615Y-97777591D01*
X157807554Y-97773485D01*
X157756759Y-97725512D01*
X157739963Y-97657692D01*
X157762499Y-97591556D01*
X157807554Y-97552515D01*
X157816316Y-97548051D01*
X157977730Y-97430778D01*
X157988286Y-97423109D01*
X157988288Y-97423106D01*
X157988292Y-97423104D01*
X158138604Y-97272792D01*
X158138606Y-97272788D01*
X158138609Y-97272786D01*
X158263548Y-97100820D01*
X158263547Y-97100820D01*
X158263551Y-97100816D01*
X158360057Y-96911412D01*
X158425746Y-96709243D01*
X158459000Y-96499287D01*
X158459000Y-96286713D01*
X158425746Y-96076757D01*
X158360057Y-95874588D01*
X158263551Y-95685184D01*
X158263549Y-95685181D01*
X158263548Y-95685179D01*
X158138609Y-95513213D01*
X157988286Y-95362890D01*
X157816320Y-95237951D01*
X157815615Y-95237591D01*
X157807554Y-95233485D01*
X157756759Y-95185512D01*
X157739963Y-95117692D01*
X157762499Y-95051556D01*
X157807554Y-95012515D01*
X157816316Y-95008051D01*
X157859199Y-94976895D01*
X157988286Y-94883109D01*
X157988288Y-94883106D01*
X157988292Y-94883104D01*
X158138604Y-94732792D01*
X158138606Y-94732788D01*
X158138609Y-94732786D01*
X158257101Y-94569694D01*
X158263551Y-94560816D01*
X158360057Y-94371412D01*
X158425746Y-94169243D01*
X158459000Y-93959287D01*
X158459000Y-93746713D01*
X158425746Y-93536757D01*
X158360057Y-93334588D01*
X158263551Y-93145184D01*
X158263549Y-93145181D01*
X158263548Y-93145179D01*
X158138609Y-92973213D01*
X157988286Y-92822890D01*
X157816320Y-92697951D01*
X157815615Y-92697591D01*
X157807554Y-92693485D01*
X157756759Y-92645512D01*
X157739963Y-92577692D01*
X157762499Y-92511556D01*
X157807554Y-92472515D01*
X157816316Y-92468051D01*
X157840267Y-92450650D01*
X157988286Y-92343109D01*
X157988288Y-92343106D01*
X157988292Y-92343104D01*
X158138604Y-92192792D01*
X158138606Y-92192788D01*
X158138609Y-92192786D01*
X158263548Y-92020820D01*
X158263547Y-92020820D01*
X158263551Y-92020816D01*
X158360057Y-91831412D01*
X158425746Y-91629243D01*
X158459000Y-91419287D01*
X158459000Y-91206713D01*
X158425746Y-90996757D01*
X158360057Y-90794588D01*
X158263551Y-90605184D01*
X158263549Y-90605181D01*
X158263548Y-90605179D01*
X158138609Y-90433213D01*
X157988286Y-90282890D01*
X157816320Y-90157951D01*
X157815615Y-90157591D01*
X157807554Y-90153485D01*
X157756759Y-90105512D01*
X157739963Y-90037692D01*
X157762499Y-89971556D01*
X157807554Y-89932515D01*
X157816316Y-89928051D01*
X157858684Y-89897269D01*
X157988286Y-89803109D01*
X157988288Y-89803106D01*
X157988292Y-89803104D01*
X158138604Y-89652792D01*
X158138606Y-89652788D01*
X158138609Y-89652786D01*
X158263548Y-89480820D01*
X158263547Y-89480820D01*
X158263551Y-89480816D01*
X158360057Y-89291412D01*
X158425746Y-89089243D01*
X158459000Y-88879287D01*
X158459000Y-88666713D01*
X158425746Y-88456757D01*
X158360057Y-88254588D01*
X158263551Y-88065184D01*
X158263549Y-88065181D01*
X158263548Y-88065179D01*
X158138609Y-87893213D01*
X157988286Y-87742890D01*
X157816320Y-87617951D01*
X157626914Y-87521444D01*
X157626913Y-87521443D01*
X157626912Y-87521443D01*
X157424743Y-87455754D01*
X157424741Y-87455753D01*
X157424740Y-87455753D01*
X157263457Y-87430208D01*
X157214787Y-87422500D01*
X157002213Y-87422500D01*
X156953542Y-87430208D01*
X156792260Y-87455753D01*
X156590085Y-87521444D01*
X156400679Y-87617951D01*
X156228713Y-87742890D01*
X156078394Y-87893209D01*
X156078385Y-87893219D01*
X156074830Y-87898113D01*
X156019497Y-87940775D01*
X155949883Y-87946748D01*
X155888091Y-87914137D01*
X155856812Y-87864223D01*
X155853315Y-87853670D01*
X155853314Y-87853666D01*
X155761212Y-87704344D01*
X155637156Y-87580288D01*
X155494300Y-87492174D01*
X155487836Y-87488187D01*
X155487831Y-87488185D01*
X155408544Y-87461912D01*
X155321297Y-87433001D01*
X155321295Y-87433000D01*
X155218510Y-87422500D01*
X153918498Y-87422500D01*
X153918481Y-87422501D01*
X153815703Y-87433000D01*
X153815700Y-87433001D01*
X153649168Y-87488185D01*
X153649163Y-87488187D01*
X153499842Y-87580289D01*
X153375789Y-87704342D01*
X153283687Y-87853663D01*
X153283685Y-87853668D01*
X153274677Y-87880853D01*
X153228501Y-88020203D01*
X153228501Y-88020204D01*
X153228500Y-88020204D01*
X153218000Y-88122983D01*
X143122009Y-88122983D01*
X143136929Y-88100653D01*
X143191619Y-87968620D01*
X143206409Y-87894269D01*
X143219500Y-87828457D01*
X143219500Y-87685542D01*
X143191620Y-87545385D01*
X143191619Y-87545384D01*
X143191619Y-87545380D01*
X143136929Y-87413347D01*
X143136928Y-87413346D01*
X143136925Y-87413340D01*
X143057532Y-87294521D01*
X143057529Y-87294517D01*
X143003819Y-87240807D01*
X142970334Y-87179484D01*
X142967500Y-87153126D01*
X142967500Y-84503500D01*
X142987185Y-84436461D01*
X143039989Y-84390706D01*
X143091500Y-84379500D01*
X149014392Y-84379500D01*
X149076391Y-84396112D01*
X149098129Y-84408663D01*
X149250856Y-84449587D01*
X149250858Y-84449587D01*
X149416567Y-84449587D01*
X149416583Y-84449586D01*
X149719590Y-84449586D01*
X149719606Y-84449587D01*
X149727202Y-84449587D01*
X149885313Y-84449587D01*
X149885316Y-84449587D01*
X150038044Y-84408663D01*
X150053049Y-84400000D01*
X150059782Y-84396113D01*
X150121782Y-84379500D01*
X153279126Y-84379500D01*
X153346165Y-84399185D01*
X153366807Y-84415819D01*
X153461517Y-84510529D01*
X153461521Y-84510532D01*
X153580340Y-84589925D01*
X153580346Y-84589928D01*
X153580347Y-84589929D01*
X153712380Y-84644619D01*
X153712384Y-84644619D01*
X153712385Y-84644620D01*
X153852542Y-84672500D01*
X153852545Y-84672500D01*
X153995457Y-84672500D01*
X154089751Y-84653742D01*
X154135620Y-84644619D01*
X154267653Y-84589929D01*
X154386479Y-84510532D01*
X154487532Y-84409479D01*
X154566929Y-84290653D01*
X154621619Y-84158620D01*
X154649500Y-84018455D01*
X154649500Y-83875545D01*
X154649500Y-83875542D01*
X154621620Y-83735385D01*
X154621619Y-83735384D01*
X154621619Y-83735380D01*
X154566929Y-83603347D01*
X154566928Y-83603346D01*
X154566925Y-83603340D01*
X154487532Y-83484521D01*
X154487529Y-83484517D01*
X154386482Y-83383470D01*
X154386478Y-83383467D01*
X154267659Y-83304074D01*
X154267650Y-83304069D01*
X154135620Y-83249381D01*
X154135614Y-83249379D01*
X153999751Y-83222354D01*
X153991849Y-83220512D01*
X153987785Y-83219423D01*
X153835057Y-83178499D01*
X153676943Y-83178499D01*
X153669347Y-83178499D01*
X153669331Y-83178500D01*
X150390550Y-83178500D01*
X150323511Y-83158815D01*
X150277756Y-83106011D01*
X150268933Y-83078692D01*
X150265706Y-83062471D01*
X150265705Y-83062470D01*
X150265705Y-83062466D01*
X150211015Y-82930433D01*
X150211014Y-82930432D01*
X150211011Y-82930426D01*
X150131618Y-82811607D01*
X150131615Y-82811603D01*
X150030565Y-82710553D01*
X149917510Y-82635013D01*
X149872705Y-82581401D01*
X149864786Y-82556110D01*
X149853036Y-82497039D01*
X149798346Y-82365006D01*
X149798345Y-82365005D01*
X149798342Y-82364999D01*
X149718949Y-82246180D01*
X149718946Y-82246176D01*
X149617899Y-82145129D01*
X149617895Y-82145126D01*
X149499076Y-82065733D01*
X149499067Y-82065728D01*
X149367035Y-82011039D01*
X149367031Y-82011038D01*
X149329025Y-82003478D01*
X149279828Y-81981812D01*
X149272219Y-81976225D01*
X149217474Y-81921480D01*
X149130662Y-81871360D01*
X149080543Y-81842423D01*
X148927815Y-81801499D01*
X148769701Y-81801499D01*
X148762105Y-81801499D01*
X148762089Y-81801500D01*
X135258680Y-81801500D01*
X135217765Y-81812463D01*
X135217762Y-81812465D01*
X135196081Y-81818274D01*
X135163988Y-81822500D01*
X127744927Y-81822500D01*
X127744911Y-81822499D01*
X127737315Y-81822499D01*
X127579200Y-81822499D01*
X127504844Y-81842423D01*
X127426471Y-81863423D01*
X127426466Y-81863426D01*
X127289547Y-81942475D01*
X127289539Y-81942481D01*
X123818542Y-85413478D01*
X123794136Y-85455751D01*
X123783821Y-85473619D01*
X123739486Y-85550409D01*
X123698562Y-85703137D01*
X123698562Y-85703139D01*
X123698562Y-85871240D01*
X123698563Y-85871253D01*
X123698563Y-86531304D01*
X123678878Y-86598343D01*
X123662244Y-86618985D01*
X122995115Y-87286113D01*
X122933792Y-87319598D01*
X122931627Y-87320049D01*
X122893618Y-87327609D01*
X122893616Y-87327610D01*
X122761584Y-87382299D01*
X122761575Y-87382304D01*
X122642756Y-87461697D01*
X122642752Y-87461700D01*
X122541705Y-87562747D01*
X122541702Y-87562751D01*
X122462309Y-87681570D01*
X122462304Y-87681579D01*
X122407616Y-87813609D01*
X122407614Y-87813615D01*
X122379735Y-87953772D01*
X122379735Y-87953775D01*
X122379735Y-88096685D01*
X122379735Y-88096687D01*
X122379734Y-88096687D01*
X122408804Y-88242824D01*
X122407604Y-88243062D01*
X122408171Y-88306491D01*
X122370924Y-88365604D01*
X122357779Y-88375721D01*
X122311468Y-88406665D01*
X122311462Y-88406670D01*
X122206933Y-88511199D01*
X122206930Y-88511203D01*
X122124801Y-88634117D01*
X122124794Y-88634130D01*
X122068225Y-88770701D01*
X122068222Y-88770711D01*
X122039382Y-88915698D01*
X122039382Y-88915701D01*
X122039382Y-89063537D01*
X122039382Y-89063539D01*
X122039381Y-89063539D01*
X115525794Y-89063539D01*
X115494577Y-88947037D01*
X115455462Y-88879287D01*
X115415524Y-88810111D01*
X115415521Y-88810107D01*
X115415520Y-88810105D01*
X115320293Y-88714878D01*
X115313226Y-88703302D01*
X115305382Y-88696844D01*
X115296875Y-88676519D01*
X115289916Y-88665119D01*
X115287745Y-88658360D01*
X115278798Y-88613380D01*
X115254296Y-88554226D01*
X115252744Y-88549395D01*
X115251986Y-88519344D01*
X115248773Y-88489457D01*
X115251038Y-88481742D01*
X115250983Y-88479548D01*
X115252336Y-88477319D01*
X115256242Y-88464020D01*
X115308749Y-88337258D01*
X115317872Y-88291389D01*
X115336630Y-88197095D01*
X115336630Y-88054180D01*
X115308750Y-87914023D01*
X115308749Y-87914022D01*
X115308749Y-87914018D01*
X115254059Y-87781985D01*
X115254058Y-87781984D01*
X115254055Y-87781978D01*
X115174662Y-87663159D01*
X115174659Y-87663155D01*
X115129989Y-87618485D01*
X115096504Y-87557162D01*
X115101488Y-87487470D01*
X115114569Y-87461912D01*
X115117529Y-87457481D01*
X115117532Y-87457479D01*
X115196929Y-87338653D01*
X115251619Y-87206620D01*
X115262260Y-87153126D01*
X115279500Y-87066457D01*
X115279500Y-86923542D01*
X115251620Y-86783385D01*
X115251619Y-86783384D01*
X115251619Y-86783380D01*
X115196929Y-86651347D01*
X115196928Y-86651346D01*
X115196925Y-86651340D01*
X115192950Y-86645391D01*
X115172072Y-86578713D01*
X115190557Y-86511333D01*
X115242535Y-86464643D01*
X115296052Y-86452500D01*
X118173233Y-86452500D01*
X118240272Y-86472185D01*
X118242124Y-86473398D01*
X118274348Y-86494930D01*
X118340363Y-86522274D01*
X118406380Y-86549619D01*
X118406384Y-86549619D01*
X118406385Y-86549620D01*
X118546542Y-86577500D01*
X118546545Y-86577500D01*
X118689457Y-86577500D01*
X118783751Y-86558742D01*
X118829620Y-86549619D01*
X118961653Y-86494929D01*
X119080479Y-86415532D01*
X119181532Y-86314479D01*
X119260929Y-86195653D01*
X119315619Y-86063620D01*
X119324742Y-86017751D01*
X119343500Y-85923457D01*
X119343500Y-85780542D01*
X119315620Y-85640385D01*
X119315619Y-85640384D01*
X119315619Y-85640380D01*
X119260929Y-85508347D01*
X119260928Y-85508346D01*
X119260925Y-85508340D01*
X119181532Y-85389521D01*
X119181529Y-85389517D01*
X119080482Y-85288470D01*
X119080478Y-85288467D01*
X118961659Y-85209074D01*
X118961650Y-85209069D01*
X118829620Y-85154381D01*
X118829614Y-85154379D01*
X118683480Y-85125311D01*
X118683805Y-85123672D01*
X118626456Y-85100501D01*
X118586108Y-85043459D01*
X118583005Y-84973659D01*
X118603099Y-84930388D01*
X118694093Y-84805147D01*
X118783418Y-84629837D01*
X118844218Y-84442716D01*
X118850984Y-84400000D01*
X118000278Y-84400000D01*
X118044333Y-84323694D01*
X118075000Y-84209244D01*
X118075000Y-84090756D01*
X118044333Y-83976306D01*
X118000278Y-83900000D01*
X118850984Y-83900000D01*
X118844218Y-83857283D01*
X118783418Y-83670162D01*
X118694095Y-83494856D01*
X118578444Y-83335678D01*
X118439321Y-83196555D01*
X118280143Y-83080904D01*
X118104835Y-82991581D01*
X117917705Y-82930778D01*
X117723382Y-82900000D01*
X116975000Y-82900000D01*
X116975000Y-83700000D01*
X116475000Y-83700000D01*
X116475000Y-82900000D01*
X115726618Y-82900000D01*
X115532294Y-82930778D01*
X115345164Y-82991581D01*
X115169856Y-83080904D01*
X115010678Y-83196555D01*
X114871555Y-83335678D01*
X114755904Y-83494856D01*
X114666581Y-83670162D01*
X114605781Y-83857283D01*
X114599016Y-83900000D01*
X115449722Y-83900000D01*
X115405667Y-83976306D01*
X115375000Y-84090756D01*
X115375000Y-84209244D01*
X115405667Y-84323694D01*
X115449722Y-84400000D01*
X114599016Y-84400000D01*
X114605781Y-84442716D01*
X114666581Y-84629837D01*
X114755904Y-84805143D01*
X114871555Y-84964321D01*
X114947053Y-85039819D01*
X114980538Y-85101142D01*
X114975554Y-85170834D01*
X114933682Y-85226767D01*
X114868218Y-85251184D01*
X114859372Y-85251500D01*
X114511655Y-85251500D01*
X114511639Y-85251499D01*
X114504043Y-85251499D01*
X114345928Y-85251499D01*
X114279887Y-85269195D01*
X114193199Y-85292423D01*
X114193194Y-85292426D01*
X114056275Y-85371475D01*
X114056267Y-85371481D01*
X111533479Y-87894269D01*
X111522078Y-87914018D01*
X111503184Y-87946744D01*
X111454423Y-88031200D01*
X111413499Y-88183928D01*
X111413499Y-88183930D01*
X111413499Y-88352031D01*
X111413500Y-88352044D01*
X111413500Y-97276000D01*
X111393815Y-97343039D01*
X111341011Y-97388794D01*
X111289500Y-97400000D01*
X111015000Y-97400000D01*
X111015000Y-98200000D01*
X110515000Y-98200000D01*
X110515000Y-97400000D01*
X110066618Y-97400000D01*
X109872294Y-97430778D01*
X109685164Y-97491581D01*
X109509856Y-97580904D01*
X109350678Y-97696555D01*
X109211555Y-97835678D01*
X109095904Y-97994856D01*
X109006581Y-98170162D01*
X108945781Y-98357283D01*
X108939016Y-98400000D01*
X109789722Y-98400000D01*
X109745667Y-98476306D01*
X109715000Y-98590756D01*
X109715000Y-98709244D01*
X109745667Y-98823694D01*
X109789722Y-98900000D01*
X108939016Y-98900000D01*
X108945781Y-98942716D01*
X109006581Y-99129837D01*
X109095904Y-99305143D01*
X109211555Y-99464321D01*
X109350678Y-99603444D01*
X109509856Y-99719095D01*
X109685164Y-99808418D01*
X109872294Y-99869221D01*
X110066618Y-99900000D01*
X110515000Y-99900000D01*
X110515000Y-99100000D01*
X111015000Y-99100000D01*
X111015000Y-99900000D01*
X111463382Y-99900000D01*
X111657699Y-99869222D01*
X111661541Y-99868300D01*
X111731324Y-99871784D01*
X111788145Y-99912442D01*
X111813965Y-99977366D01*
X111814500Y-99988871D01*
X111814500Y-105216330D01*
X111814499Y-105216348D01*
X111814499Y-105382054D01*
X111814498Y-105382054D01*
X111855423Y-105534787D01*
X111861279Y-105544929D01*
X111861281Y-105544931D01*
X111934477Y-105671712D01*
X111934481Y-105671717D01*
X112053349Y-105790585D01*
X112053355Y-105790590D01*
X114825185Y-108562420D01*
X114858670Y-108623743D01*
X114853686Y-108693435D01*
X114811814Y-108749368D01*
X114746350Y-108773785D01*
X114737981Y-108774100D01*
X108124477Y-108799521D01*
X108057362Y-108780094D01*
X108011404Y-108727467D01*
X108000000Y-108675522D01*
X108000000Y-83900000D01*
X108939016Y-83900000D01*
X109789722Y-83900000D01*
X109745667Y-83976306D01*
X109715000Y-84090756D01*
X109715000Y-84209244D01*
X109745667Y-84323694D01*
X109789722Y-84400000D01*
X108939016Y-84400000D01*
X108945781Y-84442716D01*
X109006581Y-84629837D01*
X109095904Y-84805143D01*
X109211555Y-84964321D01*
X109350678Y-85103444D01*
X109509856Y-85219095D01*
X109685164Y-85308418D01*
X109872294Y-85369221D01*
X110066618Y-85400000D01*
X110515000Y-85400000D01*
X110515000Y-84600000D01*
X111015000Y-84600000D01*
X111015000Y-85400000D01*
X111463382Y-85400000D01*
X111657705Y-85369221D01*
X111844835Y-85308418D01*
X112020143Y-85219095D01*
X112179321Y-85103444D01*
X112318444Y-84964321D01*
X112434095Y-84805143D01*
X112523418Y-84629837D01*
X112584218Y-84442716D01*
X112590984Y-84400000D01*
X111740278Y-84400000D01*
X111784333Y-84323694D01*
X111815000Y-84209244D01*
X111815000Y-84090756D01*
X111784333Y-83976306D01*
X111740278Y-83900000D01*
X112590984Y-83900000D01*
X112584218Y-83857283D01*
X112523418Y-83670162D01*
X112434095Y-83494856D01*
X112318444Y-83335678D01*
X112179321Y-83196555D01*
X112020143Y-83080904D01*
X111844835Y-82991581D01*
X111657705Y-82930778D01*
X111463382Y-82900000D01*
X111015000Y-82900000D01*
X111015000Y-83700000D01*
X110515000Y-83700000D01*
X110515000Y-82900000D01*
X110066618Y-82900000D01*
X109872294Y-82930778D01*
X109685164Y-82991581D01*
X109509856Y-83080904D01*
X109350678Y-83196555D01*
X109211555Y-83335678D01*
X109095904Y-83494856D01*
X109006581Y-83670162D01*
X108945781Y-83857283D01*
X108939016Y-83900000D01*
X108000000Y-83900000D01*
X108000000Y-81723524D01*
X108019685Y-81656485D01*
X108072489Y-81610730D01*
X108123522Y-81599525D01*
X159907524Y-81400478D01*
X159974638Y-81419905D01*
G37*
%TD.AperFunction*%
%TA.AperFunction,Conductor*%
G36*
X124596997Y-98200501D02*
G01*
X124751501Y-98200501D01*
X124818540Y-98220186D01*
X124864295Y-98272990D01*
X124875500Y-98324501D01*
X124875500Y-100901232D01*
X124855815Y-100968271D01*
X124854603Y-100970122D01*
X124833070Y-101002348D01*
X124778381Y-101134379D01*
X124778379Y-101134385D01*
X124750500Y-101274542D01*
X124750500Y-101274545D01*
X124750500Y-101417455D01*
X124750500Y-101417457D01*
X124750499Y-101417457D01*
X124778379Y-101557614D01*
X124778381Y-101557620D01*
X124833069Y-101689650D01*
X124833074Y-101689659D01*
X124912467Y-101808478D01*
X124912470Y-101808482D01*
X125013517Y-101909529D01*
X125013521Y-101909532D01*
X125132340Y-101988925D01*
X125132349Y-101988930D01*
X125138341Y-101991412D01*
X125264380Y-102043619D01*
X125264384Y-102043619D01*
X125264385Y-102043620D01*
X125404542Y-102071500D01*
X125404545Y-102071500D01*
X125547457Y-102071500D01*
X125641751Y-102052742D01*
X125687620Y-102043619D01*
X125819653Y-101988929D01*
X125938479Y-101909532D01*
X126039532Y-101808479D01*
X126118929Y-101689653D01*
X126173619Y-101557620D01*
X126190451Y-101473000D01*
X126201500Y-101417457D01*
X126201500Y-101274542D01*
X126173620Y-101134385D01*
X126173619Y-101134384D01*
X126173619Y-101134380D01*
X126118929Y-101002347D01*
X126097396Y-100970121D01*
X126091746Y-100952075D01*
X126081523Y-100936167D01*
X126077071Y-100905204D01*
X126076520Y-100903444D01*
X126076500Y-100901232D01*
X126076500Y-100809097D01*
X126096185Y-100742058D01*
X126148989Y-100696303D01*
X126218147Y-100686359D01*
X126281703Y-100715384D01*
X126288181Y-100721416D01*
X127657883Y-102091119D01*
X127691368Y-102152442D01*
X127691819Y-102154608D01*
X127699379Y-102192614D01*
X127699380Y-102192618D01*
X127754069Y-102324650D01*
X127754074Y-102324659D01*
X127833467Y-102443478D01*
X127833470Y-102443482D01*
X127934517Y-102544529D01*
X127934521Y-102544532D01*
X128053340Y-102623925D01*
X128053349Y-102623930D01*
X128062267Y-102627624D01*
X128185380Y-102678619D01*
X128185384Y-102678619D01*
X128185385Y-102678620D01*
X128325542Y-102706500D01*
X128325545Y-102706500D01*
X128468457Y-102706500D01*
X128562751Y-102687742D01*
X128608620Y-102678619D01*
X128740653Y-102623929D01*
X128746603Y-102619952D01*
X128813279Y-102599071D01*
X128880660Y-102617551D01*
X128927354Y-102669527D01*
X128939500Y-102723051D01*
X128939500Y-105178330D01*
X128939499Y-105178348D01*
X128939499Y-105344054D01*
X128939498Y-105344054D01*
X128949243Y-105380420D01*
X128976463Y-105482007D01*
X128980424Y-105496787D01*
X128998156Y-105527499D01*
X128998157Y-105527501D01*
X129059477Y-105633712D01*
X129059481Y-105633717D01*
X129178349Y-105752585D01*
X129178355Y-105752590D01*
X129651584Y-106225819D01*
X129685069Y-106287142D01*
X129680085Y-106356834D01*
X129638213Y-106412767D01*
X129572749Y-106437184D01*
X129563903Y-106437500D01*
X125584229Y-106437500D01*
X125517190Y-106417815D01*
X125496548Y-106401181D01*
X123414421Y-104319052D01*
X123414418Y-104319050D01*
X123414417Y-104319049D01*
X123414416Y-104319048D01*
X123291494Y-104236916D01*
X123291492Y-104236915D01*
X123291490Y-104236914D01*
X123154912Y-104180342D01*
X123154906Y-104180340D01*
X123009919Y-104151500D01*
X123009917Y-104151500D01*
X122862083Y-104151500D01*
X122862081Y-104151500D01*
X122717093Y-104180340D01*
X122717087Y-104180342D01*
X122580509Y-104236914D01*
X122580502Y-104236918D01*
X122518628Y-104278260D01*
X122457584Y-104319048D01*
X122457583Y-104319049D01*
X122457582Y-104319050D01*
X122457578Y-104319052D01*
X122353052Y-104423578D01*
X122353052Y-104423579D01*
X122353049Y-104423582D01*
X122353048Y-104423584D01*
X122333897Y-104452246D01*
X122270918Y-104546502D01*
X122270914Y-104546509D01*
X122214342Y-104683087D01*
X122214340Y-104683093D01*
X122185500Y-104828080D01*
X122185500Y-104828082D01*
X122185500Y-104828083D01*
X122185500Y-104975917D01*
X122185500Y-104975919D01*
X122185499Y-104975919D01*
X122214340Y-105120906D01*
X122214342Y-105120912D01*
X122257018Y-105223943D01*
X122270916Y-105257494D01*
X122353048Y-105380416D01*
X122353051Y-105380419D01*
X122353052Y-105380420D01*
X122353052Y-105380421D01*
X123898452Y-106925819D01*
X123931937Y-106987142D01*
X123926953Y-107056833D01*
X123885081Y-107112767D01*
X123819617Y-107137184D01*
X123810771Y-107137500D01*
X116281470Y-107137500D01*
X116214431Y-107117815D01*
X116193789Y-107101181D01*
X113851819Y-104759211D01*
X113818334Y-104697888D01*
X113815500Y-104671530D01*
X113815500Y-101441583D01*
X113835185Y-101374544D01*
X113887989Y-101328789D01*
X113915309Y-101319966D01*
X113931837Y-101316677D01*
X113957707Y-101311532D01*
X114089740Y-101256842D01*
X114208566Y-101177445D01*
X114309619Y-101076392D01*
X114389016Y-100957566D01*
X114443706Y-100825533D01*
X114455711Y-100765179D01*
X114471587Y-100685370D01*
X114471587Y-100542455D01*
X114443707Y-100402298D01*
X114443706Y-100402297D01*
X114443706Y-100402293D01*
X114389016Y-100270260D01*
X114367483Y-100238034D01*
X114346607Y-100171357D01*
X114346587Y-100169145D01*
X114346587Y-98881804D01*
X114366272Y-98814765D01*
X114419076Y-98769010D01*
X114488234Y-98759066D01*
X114551790Y-98788091D01*
X114589564Y-98846869D01*
X114593060Y-98862406D01*
X114605778Y-98942705D01*
X114666581Y-99129835D01*
X114755904Y-99305143D01*
X114871555Y-99464321D01*
X115010678Y-99603444D01*
X115169856Y-99719095D01*
X115345164Y-99808418D01*
X115532294Y-99869221D01*
X115726618Y-99900000D01*
X116475000Y-99900000D01*
X116475000Y-99100000D01*
X116975000Y-99100000D01*
X116975000Y-99900000D01*
X117723382Y-99900000D01*
X117917705Y-99869221D01*
X118104835Y-99808418D01*
X118280143Y-99719095D01*
X118439321Y-99603444D01*
X118578444Y-99464321D01*
X118694095Y-99305143D01*
X118783418Y-99129837D01*
X118844218Y-98942716D01*
X118850984Y-98900000D01*
X118000278Y-98900000D01*
X118044333Y-98823694D01*
X118075000Y-98709244D01*
X118075000Y-98590756D01*
X118044333Y-98476306D01*
X118000278Y-98400000D01*
X118850984Y-98400000D01*
X118844217Y-98357272D01*
X118843295Y-98353429D01*
X118846796Y-98283647D01*
X118887468Y-98226836D01*
X118952398Y-98201032D01*
X118963873Y-98200500D01*
X124589386Y-98200500D01*
X124596993Y-98200500D01*
X124596997Y-98200501D01*
G37*
%TD.AperFunction*%
%TA.AperFunction,Conductor*%
G36*
X133365270Y-103896717D02*
G01*
X133365270Y-103896716D01*
X133404622Y-103842555D01*
X133409232Y-103833507D01*
X133457205Y-103782709D01*
X133525025Y-103765912D01*
X133591161Y-103788447D01*
X133630204Y-103833504D01*
X133634949Y-103842817D01*
X133759890Y-104014786D01*
X133910213Y-104165109D01*
X134082182Y-104290050D01*
X134090946Y-104294516D01*
X134141742Y-104342491D01*
X134158536Y-104410312D01*
X134135998Y-104476447D01*
X134090946Y-104515484D01*
X134082182Y-104519949D01*
X133910215Y-104644889D01*
X133796673Y-104758431D01*
X133735350Y-104791915D01*
X133665658Y-104786931D01*
X133609725Y-104745059D01*
X133592810Y-104714082D01*
X133543797Y-104582671D01*
X133543793Y-104582664D01*
X133457547Y-104467455D01*
X133457544Y-104467452D01*
X133342335Y-104381206D01*
X133342328Y-104381202D01*
X133207482Y-104330908D01*
X133207483Y-104330908D01*
X133147883Y-104324501D01*
X133147881Y-104324500D01*
X133147873Y-104324500D01*
X133147865Y-104324500D01*
X133137309Y-104324500D01*
X133070270Y-104304815D01*
X133049628Y-104288181D01*
X132379408Y-103617962D01*
X132442993Y-103600925D01*
X132557007Y-103535099D01*
X132650099Y-103442007D01*
X132715925Y-103327993D01*
X132732962Y-103264408D01*
X133365270Y-103896717D01*
G37*
%TD.AperFunction*%
%TD*%
M02*
