%TF.GenerationSoftware,KiCad,Pcbnew,9.0.8+dfsg-1*%
%TF.CreationDate,2026-08-16T12:46:38+02:00*%
%TF.ProjectId,HDMItest,48444d49-7465-4737-942e-6b696361645f,rev?*%
%TF.SameCoordinates,Original*%
%TF.FileFunction,Legend,Top*%
%TF.FilePolarity,Positive*%
%FSLAX46Y46*%
G04 Gerber Fmt 4.6, Leading zero omitted, Abs format (unit mm)*
G04 Created by KiCad (PCBNEW 9.0.8+dfsg-1) date 2026-08-16 12:46:38*
%MOMM*%
%LPD*%
G01*
G04 APERTURE LIST*
G04 Aperture macros list*
%AMRoundRect*
0 Rectangle with rounded corners*
0 $1 Rounding radius*
0 $2 $3 $4 $5 $6 $7 $8 $9 X,Y pos of 4 corners*
0 Add a 4 corners polygon primitive as box body*
4,1,4,$2,$3,$4,$5,$6,$7,$8,$9,$2,$3,0*
0 Add four circle primitives for the rounded corners*
1,1,$1+$1,$2,$3*
1,1,$1+$1,$4,$5*
1,1,$1+$1,$6,$7*
1,1,$1+$1,$8,$9*
0 Add four rect primitives between the rounded corners*
20,1,$1+$1,$2,$3,$4,$5,0*
20,1,$1+$1,$4,$5,$6,$7,0*
20,1,$1+$1,$6,$7,$8,$9,0*
20,1,$1+$1,$8,$9,$2,$3,0*%
%AMFreePoly0*
4,1,23,0.500000,-0.750000,0.000000,-0.750000,0.000000,-0.745722,-0.065263,-0.745722,-0.191342,-0.711940,-0.304381,-0.646677,-0.396677,-0.554381,-0.461940,-0.441342,-0.495722,-0.315263,-0.495722,-0.250000,-0.500000,-0.250000,-0.500000,0.250000,-0.495722,0.250000,-0.495722,0.315263,-0.461940,0.441342,-0.396677,0.554381,-0.304381,0.646677,-0.191342,0.711940,-0.065263,0.745722,0.000000,0.745722,
0.000000,0.750000,0.500000,0.750000,0.500000,-0.750000,0.500000,-0.750000,$1*%
%AMFreePoly1*
4,1,23,0.000000,0.745722,0.065263,0.745722,0.191342,0.711940,0.304381,0.646677,0.396677,0.554381,0.461940,0.441342,0.495722,0.315263,0.495722,0.250000,0.500000,0.250000,0.500000,-0.250000,0.495722,-0.250000,0.495722,-0.315263,0.461940,-0.441342,0.396677,-0.554381,0.304381,-0.646677,0.191342,-0.711940,0.065263,-0.745722,0.000000,-0.745722,0.000000,-0.750000,-0.500000,-0.750000,
-0.500000,0.750000,0.000000,0.750000,0.000000,0.745722,0.000000,0.745722,$1*%
G04 Aperture macros list end*
%ADD10C,0.100000*%
%ADD11C,0.150000*%
%ADD12C,0.120000*%
%ADD13RoundRect,0.250000X-0.475000X0.337500X-0.475000X-0.337500X0.475000X-0.337500X0.475000X0.337500X0*%
%ADD14RoundRect,0.237500X-0.237500X0.250000X-0.237500X-0.250000X0.237500X-0.250000X0.237500X0.250000X0*%
%ADD15RoundRect,0.237500X0.250000X0.237500X-0.250000X0.237500X-0.250000X-0.237500X0.250000X-0.237500X0*%
%ADD16RoundRect,0.237500X-0.250000X-0.237500X0.250000X-0.237500X0.250000X0.237500X-0.250000X0.237500X0*%
%ADD17FreePoly0,180.000000*%
%ADD18FreePoly1,180.000000*%
%ADD19FreePoly0,90.000000*%
%ADD20FreePoly1,90.000000*%
%ADD21RoundRect,0.237500X0.300000X0.237500X-0.300000X0.237500X-0.300000X-0.237500X0.300000X-0.237500X0*%
%ADD22R,2.600000X0.300000*%
%ADD23O,3.300000X1.500000*%
%ADD24O,2.700000X1.500000*%
%ADD25RoundRect,0.050000X0.362500X0.050000X-0.362500X0.050000X-0.362500X-0.050000X0.362500X-0.050000X0*%
%ADD26RoundRect,0.050000X0.050000X0.362500X-0.050000X0.362500X-0.050000X-0.362500X0.050000X-0.362500X0*%
%ADD27R,4.700000X2.700000*%
%ADD28R,1.700000X1.700000*%
%ADD29C,1.700000*%
%ADD30RoundRect,0.237500X0.237500X-0.250000X0.237500X0.250000X-0.237500X0.250000X-0.237500X-0.250000X0*%
%ADD31FreePoly0,270.000000*%
%ADD32FreePoly1,270.000000*%
%ADD33RoundRect,0.237500X-0.237500X0.300000X-0.237500X-0.300000X0.237500X-0.300000X0.237500X0.300000X0*%
%ADD34RoundRect,0.237500X-0.300000X-0.237500X0.300000X-0.237500X0.300000X0.237500X-0.300000X0.237500X0*%
%ADD35RoundRect,0.250000X-0.337500X-0.475000X0.337500X-0.475000X0.337500X0.475000X-0.337500X0.475000X0*%
%ADD36RoundRect,0.250000X-0.600000X-0.600000X0.600000X-0.600000X0.600000X0.600000X-0.600000X0.600000X0*%
G04 APERTURE END LIST*
D10*
X108194360Y-104232556D02*
X108194360Y-103482556D01*
X108515789Y-103553984D02*
X108551503Y-103518270D01*
X108551503Y-103518270D02*
X108622932Y-103482556D01*
X108622932Y-103482556D02*
X108801503Y-103482556D01*
X108801503Y-103482556D02*
X108872932Y-103518270D01*
X108872932Y-103518270D02*
X108908646Y-103553984D01*
X108908646Y-103553984D02*
X108944360Y-103625413D01*
X108944360Y-103625413D02*
X108944360Y-103696842D01*
X108944360Y-103696842D02*
X108908646Y-103803984D01*
X108908646Y-103803984D02*
X108480074Y-104232556D01*
X108480074Y-104232556D02*
X108944360Y-104232556D01*
X109694360Y-104161127D02*
X109658646Y-104196842D01*
X109658646Y-104196842D02*
X109551503Y-104232556D01*
X109551503Y-104232556D02*
X109480075Y-104232556D01*
X109480075Y-104232556D02*
X109372932Y-104196842D01*
X109372932Y-104196842D02*
X109301503Y-104125413D01*
X109301503Y-104125413D02*
X109265789Y-104053984D01*
X109265789Y-104053984D02*
X109230075Y-103911127D01*
X109230075Y-103911127D02*
X109230075Y-103803984D01*
X109230075Y-103803984D02*
X109265789Y-103661127D01*
X109265789Y-103661127D02*
X109301503Y-103589699D01*
X109301503Y-103589699D02*
X109372932Y-103518270D01*
X109372932Y-103518270D02*
X109480075Y-103482556D01*
X109480075Y-103482556D02*
X109551503Y-103482556D01*
X109551503Y-103482556D02*
X109658646Y-103518270D01*
X109658646Y-103518270D02*
X109694360Y-103553984D01*
X108194360Y-105440014D02*
X108194360Y-104690014D01*
X108194360Y-104690014D02*
X108480074Y-104690014D01*
X108480074Y-104690014D02*
X108551503Y-104725728D01*
X108551503Y-104725728D02*
X108587217Y-104761442D01*
X108587217Y-104761442D02*
X108622931Y-104832871D01*
X108622931Y-104832871D02*
X108622931Y-104940014D01*
X108622931Y-104940014D02*
X108587217Y-105011442D01*
X108587217Y-105011442D02*
X108551503Y-105047157D01*
X108551503Y-105047157D02*
X108480074Y-105082871D01*
X108480074Y-105082871D02*
X108194360Y-105082871D01*
X109480074Y-104654300D02*
X108837217Y-105618585D01*
X109730074Y-104690014D02*
X109730074Y-105297157D01*
X109730074Y-105297157D02*
X109765788Y-105368585D01*
X109765788Y-105368585D02*
X109801503Y-105404300D01*
X109801503Y-105404300D02*
X109872931Y-105440014D01*
X109872931Y-105440014D02*
X110015788Y-105440014D01*
X110015788Y-105440014D02*
X110087217Y-105404300D01*
X110087217Y-105404300D02*
X110122931Y-105368585D01*
X110122931Y-105368585D02*
X110158645Y-105297157D01*
X110158645Y-105297157D02*
X110158645Y-104690014D01*
D11*
X121922080Y-108376666D02*
X121969700Y-108424285D01*
X121969700Y-108424285D02*
X122017319Y-108567142D01*
X122017319Y-108567142D02*
X122017319Y-108662380D01*
X122017319Y-108662380D02*
X121969700Y-108805237D01*
X121969700Y-108805237D02*
X121874461Y-108900475D01*
X121874461Y-108900475D02*
X121779223Y-108948094D01*
X121779223Y-108948094D02*
X121588747Y-108995713D01*
X121588747Y-108995713D02*
X121445890Y-108995713D01*
X121445890Y-108995713D02*
X121255414Y-108948094D01*
X121255414Y-108948094D02*
X121160176Y-108900475D01*
X121160176Y-108900475D02*
X121064938Y-108805237D01*
X121064938Y-108805237D02*
X121017319Y-108662380D01*
X121017319Y-108662380D02*
X121017319Y-108567142D01*
X121017319Y-108567142D02*
X121064938Y-108424285D01*
X121064938Y-108424285D02*
X121112557Y-108376666D01*
X121112557Y-107995713D02*
X121064938Y-107948094D01*
X121064938Y-107948094D02*
X121017319Y-107852856D01*
X121017319Y-107852856D02*
X121017319Y-107614761D01*
X121017319Y-107614761D02*
X121064938Y-107519523D01*
X121064938Y-107519523D02*
X121112557Y-107471904D01*
X121112557Y-107471904D02*
X121207795Y-107424285D01*
X121207795Y-107424285D02*
X121303033Y-107424285D01*
X121303033Y-107424285D02*
X121445890Y-107471904D01*
X121445890Y-107471904D02*
X122017319Y-108043332D01*
X122017319Y-108043332D02*
X122017319Y-107424285D01*
X143964819Y-83224666D02*
X143488628Y-83557999D01*
X143964819Y-83796094D02*
X142964819Y-83796094D01*
X142964819Y-83796094D02*
X142964819Y-83415142D01*
X142964819Y-83415142D02*
X143012438Y-83319904D01*
X143012438Y-83319904D02*
X143060057Y-83272285D01*
X143060057Y-83272285D02*
X143155295Y-83224666D01*
X143155295Y-83224666D02*
X143298152Y-83224666D01*
X143298152Y-83224666D02*
X143393390Y-83272285D01*
X143393390Y-83272285D02*
X143441009Y-83319904D01*
X143441009Y-83319904D02*
X143488628Y-83415142D01*
X143488628Y-83415142D02*
X143488628Y-83796094D01*
X143060057Y-82843713D02*
X143012438Y-82796094D01*
X143012438Y-82796094D02*
X142964819Y-82700856D01*
X142964819Y-82700856D02*
X142964819Y-82462761D01*
X142964819Y-82462761D02*
X143012438Y-82367523D01*
X143012438Y-82367523D02*
X143060057Y-82319904D01*
X143060057Y-82319904D02*
X143155295Y-82272285D01*
X143155295Y-82272285D02*
X143250533Y-82272285D01*
X143250533Y-82272285D02*
X143393390Y-82319904D01*
X143393390Y-82319904D02*
X143964819Y-82891332D01*
X143964819Y-82891332D02*
X143964819Y-82272285D01*
X148836142Y-91624819D02*
X148502809Y-91148628D01*
X148264714Y-91624819D02*
X148264714Y-90624819D01*
X148264714Y-90624819D02*
X148645666Y-90624819D01*
X148645666Y-90624819D02*
X148740904Y-90672438D01*
X148740904Y-90672438D02*
X148788523Y-90720057D01*
X148788523Y-90720057D02*
X148836142Y-90815295D01*
X148836142Y-90815295D02*
X148836142Y-90958152D01*
X148836142Y-90958152D02*
X148788523Y-91053390D01*
X148788523Y-91053390D02*
X148740904Y-91101009D01*
X148740904Y-91101009D02*
X148645666Y-91148628D01*
X148645666Y-91148628D02*
X148264714Y-91148628D01*
X149788523Y-91624819D02*
X149217095Y-91624819D01*
X149502809Y-91624819D02*
X149502809Y-90624819D01*
X149502809Y-90624819D02*
X149407571Y-90767676D01*
X149407571Y-90767676D02*
X149312333Y-90862914D01*
X149312333Y-90862914D02*
X149217095Y-90910533D01*
X150407571Y-90624819D02*
X150502809Y-90624819D01*
X150502809Y-90624819D02*
X150598047Y-90672438D01*
X150598047Y-90672438D02*
X150645666Y-90720057D01*
X150645666Y-90720057D02*
X150693285Y-90815295D01*
X150693285Y-90815295D02*
X150740904Y-91005771D01*
X150740904Y-91005771D02*
X150740904Y-91243866D01*
X150740904Y-91243866D02*
X150693285Y-91434342D01*
X150693285Y-91434342D02*
X150645666Y-91529580D01*
X150645666Y-91529580D02*
X150598047Y-91577200D01*
X150598047Y-91577200D02*
X150502809Y-91624819D01*
X150502809Y-91624819D02*
X150407571Y-91624819D01*
X150407571Y-91624819D02*
X150312333Y-91577200D01*
X150312333Y-91577200D02*
X150264714Y-91529580D01*
X150264714Y-91529580D02*
X150217095Y-91434342D01*
X150217095Y-91434342D02*
X150169476Y-91243866D01*
X150169476Y-91243866D02*
X150169476Y-91005771D01*
X150169476Y-91005771D02*
X150217095Y-90815295D01*
X150217095Y-90815295D02*
X150264714Y-90720057D01*
X150264714Y-90720057D02*
X150312333Y-90672438D01*
X150312333Y-90672438D02*
X150407571Y-90624819D01*
X127214333Y-108150819D02*
X126881000Y-107674628D01*
X126642905Y-108150819D02*
X126642905Y-107150819D01*
X126642905Y-107150819D02*
X127023857Y-107150819D01*
X127023857Y-107150819D02*
X127119095Y-107198438D01*
X127119095Y-107198438D02*
X127166714Y-107246057D01*
X127166714Y-107246057D02*
X127214333Y-107341295D01*
X127214333Y-107341295D02*
X127214333Y-107484152D01*
X127214333Y-107484152D02*
X127166714Y-107579390D01*
X127166714Y-107579390D02*
X127119095Y-107627009D01*
X127119095Y-107627009D02*
X127023857Y-107674628D01*
X127023857Y-107674628D02*
X126642905Y-107674628D01*
X128071476Y-107150819D02*
X127881000Y-107150819D01*
X127881000Y-107150819D02*
X127785762Y-107198438D01*
X127785762Y-107198438D02*
X127738143Y-107246057D01*
X127738143Y-107246057D02*
X127642905Y-107388914D01*
X127642905Y-107388914D02*
X127595286Y-107579390D01*
X127595286Y-107579390D02*
X127595286Y-107960342D01*
X127595286Y-107960342D02*
X127642905Y-108055580D01*
X127642905Y-108055580D02*
X127690524Y-108103200D01*
X127690524Y-108103200D02*
X127785762Y-108150819D01*
X127785762Y-108150819D02*
X127976238Y-108150819D01*
X127976238Y-108150819D02*
X128071476Y-108103200D01*
X128071476Y-108103200D02*
X128119095Y-108055580D01*
X128119095Y-108055580D02*
X128166714Y-107960342D01*
X128166714Y-107960342D02*
X128166714Y-107722247D01*
X128166714Y-107722247D02*
X128119095Y-107627009D01*
X128119095Y-107627009D02*
X128071476Y-107579390D01*
X128071476Y-107579390D02*
X127976238Y-107531771D01*
X127976238Y-107531771D02*
X127785762Y-107531771D01*
X127785762Y-107531771D02*
X127690524Y-107579390D01*
X127690524Y-107579390D02*
X127642905Y-107627009D01*
X127642905Y-107627009D02*
X127595286Y-107722247D01*
X143700976Y-99679819D02*
X143700976Y-100394104D01*
X143700976Y-100394104D02*
X143653357Y-100536961D01*
X143653357Y-100536961D02*
X143558119Y-100632200D01*
X143558119Y-100632200D02*
X143415262Y-100679819D01*
X143415262Y-100679819D02*
X143320024Y-100679819D01*
X144177167Y-100679819D02*
X144177167Y-99679819D01*
X144177167Y-99679819D02*
X144558119Y-99679819D01*
X144558119Y-99679819D02*
X144653357Y-99727438D01*
X144653357Y-99727438D02*
X144700976Y-99775057D01*
X144700976Y-99775057D02*
X144748595Y-99870295D01*
X144748595Y-99870295D02*
X144748595Y-100013152D01*
X144748595Y-100013152D02*
X144700976Y-100108390D01*
X144700976Y-100108390D02*
X144653357Y-100156009D01*
X144653357Y-100156009D02*
X144558119Y-100203628D01*
X144558119Y-100203628D02*
X144177167Y-100203628D01*
X145700976Y-100679819D02*
X145129548Y-100679819D01*
X145415262Y-100679819D02*
X145415262Y-99679819D01*
X145415262Y-99679819D02*
X145320024Y-99822676D01*
X145320024Y-99822676D02*
X145224786Y-99917914D01*
X145224786Y-99917914D02*
X145129548Y-99965533D01*
X146605738Y-99679819D02*
X146129548Y-99679819D01*
X146129548Y-99679819D02*
X146081929Y-100156009D01*
X146081929Y-100156009D02*
X146129548Y-100108390D01*
X146129548Y-100108390D02*
X146224786Y-100060771D01*
X146224786Y-100060771D02*
X146462881Y-100060771D01*
X146462881Y-100060771D02*
X146558119Y-100108390D01*
X146558119Y-100108390D02*
X146605738Y-100156009D01*
X146605738Y-100156009D02*
X146653357Y-100251247D01*
X146653357Y-100251247D02*
X146653357Y-100489342D01*
X146653357Y-100489342D02*
X146605738Y-100584580D01*
X146605738Y-100584580D02*
X146558119Y-100632200D01*
X146558119Y-100632200D02*
X146462881Y-100679819D01*
X146462881Y-100679819D02*
X146224786Y-100679819D01*
X146224786Y-100679819D02*
X146129548Y-100632200D01*
X146129548Y-100632200D02*
X146081929Y-100584580D01*
X125692819Y-101131523D02*
X126407104Y-101131523D01*
X126407104Y-101131523D02*
X126549961Y-101179142D01*
X126549961Y-101179142D02*
X126645200Y-101274380D01*
X126645200Y-101274380D02*
X126692819Y-101417237D01*
X126692819Y-101417237D02*
X126692819Y-101512475D01*
X126692819Y-100655332D02*
X125692819Y-100655332D01*
X125692819Y-100655332D02*
X125692819Y-100274380D01*
X125692819Y-100274380D02*
X125740438Y-100179142D01*
X125740438Y-100179142D02*
X125788057Y-100131523D01*
X125788057Y-100131523D02*
X125883295Y-100083904D01*
X125883295Y-100083904D02*
X126026152Y-100083904D01*
X126026152Y-100083904D02*
X126121390Y-100131523D01*
X126121390Y-100131523D02*
X126169009Y-100179142D01*
X126169009Y-100179142D02*
X126216628Y-100274380D01*
X126216628Y-100274380D02*
X126216628Y-100655332D01*
X126692819Y-99131523D02*
X126692819Y-99702951D01*
X126692819Y-99417237D02*
X125692819Y-99417237D01*
X125692819Y-99417237D02*
X125835676Y-99512475D01*
X125835676Y-99512475D02*
X125930914Y-99607713D01*
X125930914Y-99607713D02*
X125978533Y-99702951D01*
X126026152Y-98274380D02*
X126692819Y-98274380D01*
X125645200Y-98512475D02*
X126359485Y-98750570D01*
X126359485Y-98750570D02*
X126359485Y-98131523D01*
X140009666Y-87846819D02*
X140009666Y-88561104D01*
X140009666Y-88561104D02*
X139962047Y-88703961D01*
X139962047Y-88703961D02*
X139866809Y-88799200D01*
X139866809Y-88799200D02*
X139723952Y-88846819D01*
X139723952Y-88846819D02*
X139628714Y-88846819D01*
X140485857Y-88846819D02*
X140485857Y-87846819D01*
X140485857Y-87846819D02*
X140866809Y-87846819D01*
X140866809Y-87846819D02*
X140962047Y-87894438D01*
X140962047Y-87894438D02*
X141009666Y-87942057D01*
X141009666Y-87942057D02*
X141057285Y-88037295D01*
X141057285Y-88037295D02*
X141057285Y-88180152D01*
X141057285Y-88180152D02*
X141009666Y-88275390D01*
X141009666Y-88275390D02*
X140962047Y-88323009D01*
X140962047Y-88323009D02*
X140866809Y-88370628D01*
X140866809Y-88370628D02*
X140485857Y-88370628D01*
X141390619Y-87846819D02*
X142009666Y-87846819D01*
X142009666Y-87846819D02*
X141676333Y-88227771D01*
X141676333Y-88227771D02*
X141819190Y-88227771D01*
X141819190Y-88227771D02*
X141914428Y-88275390D01*
X141914428Y-88275390D02*
X141962047Y-88323009D01*
X141962047Y-88323009D02*
X142009666Y-88418247D01*
X142009666Y-88418247D02*
X142009666Y-88656342D01*
X142009666Y-88656342D02*
X141962047Y-88751580D01*
X141962047Y-88751580D02*
X141914428Y-88799200D01*
X141914428Y-88799200D02*
X141819190Y-88846819D01*
X141819190Y-88846819D02*
X141533476Y-88846819D01*
X141533476Y-88846819D02*
X141438238Y-88799200D01*
X141438238Y-88799200D02*
X141390619Y-88751580D01*
X135033333Y-94159580D02*
X134985714Y-94207200D01*
X134985714Y-94207200D02*
X134842857Y-94254819D01*
X134842857Y-94254819D02*
X134747619Y-94254819D01*
X134747619Y-94254819D02*
X134604762Y-94207200D01*
X134604762Y-94207200D02*
X134509524Y-94111961D01*
X134509524Y-94111961D02*
X134461905Y-94016723D01*
X134461905Y-94016723D02*
X134414286Y-93826247D01*
X134414286Y-93826247D02*
X134414286Y-93683390D01*
X134414286Y-93683390D02*
X134461905Y-93492914D01*
X134461905Y-93492914D02*
X134509524Y-93397676D01*
X134509524Y-93397676D02*
X134604762Y-93302438D01*
X134604762Y-93302438D02*
X134747619Y-93254819D01*
X134747619Y-93254819D02*
X134842857Y-93254819D01*
X134842857Y-93254819D02*
X134985714Y-93302438D01*
X134985714Y-93302438D02*
X135033333Y-93350057D01*
X135604762Y-93683390D02*
X135509524Y-93635771D01*
X135509524Y-93635771D02*
X135461905Y-93588152D01*
X135461905Y-93588152D02*
X135414286Y-93492914D01*
X135414286Y-93492914D02*
X135414286Y-93445295D01*
X135414286Y-93445295D02*
X135461905Y-93350057D01*
X135461905Y-93350057D02*
X135509524Y-93302438D01*
X135509524Y-93302438D02*
X135604762Y-93254819D01*
X135604762Y-93254819D02*
X135795238Y-93254819D01*
X135795238Y-93254819D02*
X135890476Y-93302438D01*
X135890476Y-93302438D02*
X135938095Y-93350057D01*
X135938095Y-93350057D02*
X135985714Y-93445295D01*
X135985714Y-93445295D02*
X135985714Y-93492914D01*
X135985714Y-93492914D02*
X135938095Y-93588152D01*
X135938095Y-93588152D02*
X135890476Y-93635771D01*
X135890476Y-93635771D02*
X135795238Y-93683390D01*
X135795238Y-93683390D02*
X135604762Y-93683390D01*
X135604762Y-93683390D02*
X135509524Y-93731009D01*
X135509524Y-93731009D02*
X135461905Y-93778628D01*
X135461905Y-93778628D02*
X135414286Y-93873866D01*
X135414286Y-93873866D02*
X135414286Y-94064342D01*
X135414286Y-94064342D02*
X135461905Y-94159580D01*
X135461905Y-94159580D02*
X135509524Y-94207200D01*
X135509524Y-94207200D02*
X135604762Y-94254819D01*
X135604762Y-94254819D02*
X135795238Y-94254819D01*
X135795238Y-94254819D02*
X135890476Y-94207200D01*
X135890476Y-94207200D02*
X135938095Y-94159580D01*
X135938095Y-94159580D02*
X135985714Y-94064342D01*
X135985714Y-94064342D02*
X135985714Y-93873866D01*
X135985714Y-93873866D02*
X135938095Y-93778628D01*
X135938095Y-93778628D02*
X135890476Y-93731009D01*
X135890476Y-93731009D02*
X135795238Y-93683390D01*
X135033333Y-98959580D02*
X134985714Y-99007200D01*
X134985714Y-99007200D02*
X134842857Y-99054819D01*
X134842857Y-99054819D02*
X134747619Y-99054819D01*
X134747619Y-99054819D02*
X134604762Y-99007200D01*
X134604762Y-99007200D02*
X134509524Y-98911961D01*
X134509524Y-98911961D02*
X134461905Y-98816723D01*
X134461905Y-98816723D02*
X134414286Y-98626247D01*
X134414286Y-98626247D02*
X134414286Y-98483390D01*
X134414286Y-98483390D02*
X134461905Y-98292914D01*
X134461905Y-98292914D02*
X134509524Y-98197676D01*
X134509524Y-98197676D02*
X134604762Y-98102438D01*
X134604762Y-98102438D02*
X134747619Y-98054819D01*
X134747619Y-98054819D02*
X134842857Y-98054819D01*
X134842857Y-98054819D02*
X134985714Y-98102438D01*
X134985714Y-98102438D02*
X135033333Y-98150057D01*
X135890476Y-98054819D02*
X135700000Y-98054819D01*
X135700000Y-98054819D02*
X135604762Y-98102438D01*
X135604762Y-98102438D02*
X135557143Y-98150057D01*
X135557143Y-98150057D02*
X135461905Y-98292914D01*
X135461905Y-98292914D02*
X135414286Y-98483390D01*
X135414286Y-98483390D02*
X135414286Y-98864342D01*
X135414286Y-98864342D02*
X135461905Y-98959580D01*
X135461905Y-98959580D02*
X135509524Y-99007200D01*
X135509524Y-99007200D02*
X135604762Y-99054819D01*
X135604762Y-99054819D02*
X135795238Y-99054819D01*
X135795238Y-99054819D02*
X135890476Y-99007200D01*
X135890476Y-99007200D02*
X135938095Y-98959580D01*
X135938095Y-98959580D02*
X135985714Y-98864342D01*
X135985714Y-98864342D02*
X135985714Y-98626247D01*
X135985714Y-98626247D02*
X135938095Y-98531009D01*
X135938095Y-98531009D02*
X135890476Y-98483390D01*
X135890476Y-98483390D02*
X135795238Y-98435771D01*
X135795238Y-98435771D02*
X135604762Y-98435771D01*
X135604762Y-98435771D02*
X135509524Y-98483390D01*
X135509524Y-98483390D02*
X135461905Y-98531009D01*
X135461905Y-98531009D02*
X135414286Y-98626247D01*
X135033333Y-92559580D02*
X134985714Y-92607200D01*
X134985714Y-92607200D02*
X134842857Y-92654819D01*
X134842857Y-92654819D02*
X134747619Y-92654819D01*
X134747619Y-92654819D02*
X134604762Y-92607200D01*
X134604762Y-92607200D02*
X134509524Y-92511961D01*
X134509524Y-92511961D02*
X134461905Y-92416723D01*
X134461905Y-92416723D02*
X134414286Y-92226247D01*
X134414286Y-92226247D02*
X134414286Y-92083390D01*
X134414286Y-92083390D02*
X134461905Y-91892914D01*
X134461905Y-91892914D02*
X134509524Y-91797676D01*
X134509524Y-91797676D02*
X134604762Y-91702438D01*
X134604762Y-91702438D02*
X134747619Y-91654819D01*
X134747619Y-91654819D02*
X134842857Y-91654819D01*
X134842857Y-91654819D02*
X134985714Y-91702438D01*
X134985714Y-91702438D02*
X135033333Y-91750057D01*
X135509524Y-92654819D02*
X135700000Y-92654819D01*
X135700000Y-92654819D02*
X135795238Y-92607200D01*
X135795238Y-92607200D02*
X135842857Y-92559580D01*
X135842857Y-92559580D02*
X135938095Y-92416723D01*
X135938095Y-92416723D02*
X135985714Y-92226247D01*
X135985714Y-92226247D02*
X135985714Y-91845295D01*
X135985714Y-91845295D02*
X135938095Y-91750057D01*
X135938095Y-91750057D02*
X135890476Y-91702438D01*
X135890476Y-91702438D02*
X135795238Y-91654819D01*
X135795238Y-91654819D02*
X135604762Y-91654819D01*
X135604762Y-91654819D02*
X135509524Y-91702438D01*
X135509524Y-91702438D02*
X135461905Y-91750057D01*
X135461905Y-91750057D02*
X135414286Y-91845295D01*
X135414286Y-91845295D02*
X135414286Y-92083390D01*
X135414286Y-92083390D02*
X135461905Y-92178628D01*
X135461905Y-92178628D02*
X135509524Y-92226247D01*
X135509524Y-92226247D02*
X135604762Y-92273866D01*
X135604762Y-92273866D02*
X135795238Y-92273866D01*
X135795238Y-92273866D02*
X135890476Y-92226247D01*
X135890476Y-92226247D02*
X135938095Y-92178628D01*
X135938095Y-92178628D02*
X135985714Y-92083390D01*
X137660142Y-84147819D02*
X137326809Y-83671628D01*
X137088714Y-84147819D02*
X137088714Y-83147819D01*
X137088714Y-83147819D02*
X137469666Y-83147819D01*
X137469666Y-83147819D02*
X137564904Y-83195438D01*
X137564904Y-83195438D02*
X137612523Y-83243057D01*
X137612523Y-83243057D02*
X137660142Y-83338295D01*
X137660142Y-83338295D02*
X137660142Y-83481152D01*
X137660142Y-83481152D02*
X137612523Y-83576390D01*
X137612523Y-83576390D02*
X137564904Y-83624009D01*
X137564904Y-83624009D02*
X137469666Y-83671628D01*
X137469666Y-83671628D02*
X137088714Y-83671628D01*
X138612523Y-84147819D02*
X138041095Y-84147819D01*
X138326809Y-84147819D02*
X138326809Y-83147819D01*
X138326809Y-83147819D02*
X138231571Y-83290676D01*
X138231571Y-83290676D02*
X138136333Y-83385914D01*
X138136333Y-83385914D02*
X138041095Y-83433533D01*
X138945857Y-83147819D02*
X139612523Y-83147819D01*
X139612523Y-83147819D02*
X139183952Y-84147819D01*
X116183333Y-104414819D02*
X115850000Y-103938628D01*
X115611905Y-104414819D02*
X115611905Y-103414819D01*
X115611905Y-103414819D02*
X115992857Y-103414819D01*
X115992857Y-103414819D02*
X116088095Y-103462438D01*
X116088095Y-103462438D02*
X116135714Y-103510057D01*
X116135714Y-103510057D02*
X116183333Y-103605295D01*
X116183333Y-103605295D02*
X116183333Y-103748152D01*
X116183333Y-103748152D02*
X116135714Y-103843390D01*
X116135714Y-103843390D02*
X116088095Y-103891009D01*
X116088095Y-103891009D02*
X115992857Y-103938628D01*
X115992857Y-103938628D02*
X115611905Y-103938628D01*
X116516667Y-103414819D02*
X117183333Y-103414819D01*
X117183333Y-103414819D02*
X116754762Y-104414819D01*
X124152819Y-100972857D02*
X123676628Y-101306190D01*
X124152819Y-101544285D02*
X123152819Y-101544285D01*
X123152819Y-101544285D02*
X123152819Y-101163333D01*
X123152819Y-101163333D02*
X123200438Y-101068095D01*
X123200438Y-101068095D02*
X123248057Y-101020476D01*
X123248057Y-101020476D02*
X123343295Y-100972857D01*
X123343295Y-100972857D02*
X123486152Y-100972857D01*
X123486152Y-100972857D02*
X123581390Y-101020476D01*
X123581390Y-101020476D02*
X123629009Y-101068095D01*
X123629009Y-101068095D02*
X123676628Y-101163333D01*
X123676628Y-101163333D02*
X123676628Y-101544285D01*
X124152819Y-100020476D02*
X124152819Y-100591904D01*
X124152819Y-100306190D02*
X123152819Y-100306190D01*
X123152819Y-100306190D02*
X123295676Y-100401428D01*
X123295676Y-100401428D02*
X123390914Y-100496666D01*
X123390914Y-100496666D02*
X123438533Y-100591904D01*
X123152819Y-99687142D02*
X123152819Y-99068095D01*
X123152819Y-99068095D02*
X123533771Y-99401428D01*
X123533771Y-99401428D02*
X123533771Y-99258571D01*
X123533771Y-99258571D02*
X123581390Y-99163333D01*
X123581390Y-99163333D02*
X123629009Y-99115714D01*
X123629009Y-99115714D02*
X123724247Y-99068095D01*
X123724247Y-99068095D02*
X123962342Y-99068095D01*
X123962342Y-99068095D02*
X124057580Y-99115714D01*
X124057580Y-99115714D02*
X124105200Y-99163333D01*
X124105200Y-99163333D02*
X124152819Y-99258571D01*
X124152819Y-99258571D02*
X124152819Y-99544285D01*
X124152819Y-99544285D02*
X124105200Y-99639523D01*
X124105200Y-99639523D02*
X124057580Y-99687142D01*
X108031666Y-99854819D02*
X108031666Y-100569104D01*
X108031666Y-100569104D02*
X107984047Y-100711961D01*
X107984047Y-100711961D02*
X107888809Y-100807200D01*
X107888809Y-100807200D02*
X107745952Y-100854819D01*
X107745952Y-100854819D02*
X107650714Y-100854819D01*
X109031666Y-100854819D02*
X108460238Y-100854819D01*
X108745952Y-100854819D02*
X108745952Y-99854819D01*
X108745952Y-99854819D02*
X108650714Y-99997676D01*
X108650714Y-99997676D02*
X108555476Y-100092914D01*
X108555476Y-100092914D02*
X108460238Y-100140533D01*
X148963142Y-97863819D02*
X148629809Y-97387628D01*
X148391714Y-97863819D02*
X148391714Y-96863819D01*
X148391714Y-96863819D02*
X148772666Y-96863819D01*
X148772666Y-96863819D02*
X148867904Y-96911438D01*
X148867904Y-96911438D02*
X148915523Y-96959057D01*
X148915523Y-96959057D02*
X148963142Y-97054295D01*
X148963142Y-97054295D02*
X148963142Y-97197152D01*
X148963142Y-97197152D02*
X148915523Y-97292390D01*
X148915523Y-97292390D02*
X148867904Y-97340009D01*
X148867904Y-97340009D02*
X148772666Y-97387628D01*
X148772666Y-97387628D02*
X148391714Y-97387628D01*
X149915523Y-97863819D02*
X149344095Y-97863819D01*
X149629809Y-97863819D02*
X149629809Y-96863819D01*
X149629809Y-96863819D02*
X149534571Y-97006676D01*
X149534571Y-97006676D02*
X149439333Y-97101914D01*
X149439333Y-97101914D02*
X149344095Y-97149533D01*
X150772666Y-96863819D02*
X150582190Y-96863819D01*
X150582190Y-96863819D02*
X150486952Y-96911438D01*
X150486952Y-96911438D02*
X150439333Y-96959057D01*
X150439333Y-96959057D02*
X150344095Y-97101914D01*
X150344095Y-97101914D02*
X150296476Y-97292390D01*
X150296476Y-97292390D02*
X150296476Y-97673342D01*
X150296476Y-97673342D02*
X150344095Y-97768580D01*
X150344095Y-97768580D02*
X150391714Y-97816200D01*
X150391714Y-97816200D02*
X150486952Y-97863819D01*
X150486952Y-97863819D02*
X150677428Y-97863819D01*
X150677428Y-97863819D02*
X150772666Y-97816200D01*
X150772666Y-97816200D02*
X150820285Y-97768580D01*
X150820285Y-97768580D02*
X150867904Y-97673342D01*
X150867904Y-97673342D02*
X150867904Y-97435247D01*
X150867904Y-97435247D02*
X150820285Y-97340009D01*
X150820285Y-97340009D02*
X150772666Y-97292390D01*
X150772666Y-97292390D02*
X150677428Y-97244771D01*
X150677428Y-97244771D02*
X150486952Y-97244771D01*
X150486952Y-97244771D02*
X150391714Y-97292390D01*
X150391714Y-97292390D02*
X150344095Y-97340009D01*
X150344095Y-97340009D02*
X150296476Y-97435247D01*
X108386666Y-106134819D02*
X108386666Y-106849104D01*
X108386666Y-106849104D02*
X108339047Y-106991961D01*
X108339047Y-106991961D02*
X108243809Y-107087200D01*
X108243809Y-107087200D02*
X108100952Y-107134819D01*
X108100952Y-107134819D02*
X108005714Y-107134819D01*
X108862857Y-107134819D02*
X108862857Y-106134819D01*
X108862857Y-106134819D02*
X109243809Y-106134819D01*
X109243809Y-106134819D02*
X109339047Y-106182438D01*
X109339047Y-106182438D02*
X109386666Y-106230057D01*
X109386666Y-106230057D02*
X109434285Y-106325295D01*
X109434285Y-106325295D02*
X109434285Y-106468152D01*
X109434285Y-106468152D02*
X109386666Y-106563390D01*
X109386666Y-106563390D02*
X109339047Y-106611009D01*
X109339047Y-106611009D02*
X109243809Y-106658628D01*
X109243809Y-106658628D02*
X108862857Y-106658628D01*
X109910476Y-107134819D02*
X110100952Y-107134819D01*
X110100952Y-107134819D02*
X110196190Y-107087200D01*
X110196190Y-107087200D02*
X110243809Y-107039580D01*
X110243809Y-107039580D02*
X110339047Y-106896723D01*
X110339047Y-106896723D02*
X110386666Y-106706247D01*
X110386666Y-106706247D02*
X110386666Y-106325295D01*
X110386666Y-106325295D02*
X110339047Y-106230057D01*
X110339047Y-106230057D02*
X110291428Y-106182438D01*
X110291428Y-106182438D02*
X110196190Y-106134819D01*
X110196190Y-106134819D02*
X110005714Y-106134819D01*
X110005714Y-106134819D02*
X109910476Y-106182438D01*
X109910476Y-106182438D02*
X109862857Y-106230057D01*
X109862857Y-106230057D02*
X109815238Y-106325295D01*
X109815238Y-106325295D02*
X109815238Y-106563390D01*
X109815238Y-106563390D02*
X109862857Y-106658628D01*
X109862857Y-106658628D02*
X109910476Y-106706247D01*
X109910476Y-106706247D02*
X110005714Y-106753866D01*
X110005714Y-106753866D02*
X110196190Y-106753866D01*
X110196190Y-106753866D02*
X110291428Y-106706247D01*
X110291428Y-106706247D02*
X110339047Y-106658628D01*
X110339047Y-106658628D02*
X110386666Y-106563390D01*
X128359819Y-101290333D02*
X129074104Y-101290333D01*
X129074104Y-101290333D02*
X129216961Y-101337952D01*
X129216961Y-101337952D02*
X129312200Y-101433190D01*
X129312200Y-101433190D02*
X129359819Y-101576047D01*
X129359819Y-101576047D02*
X129359819Y-101671285D01*
X129359819Y-100814142D02*
X128359819Y-100814142D01*
X128359819Y-100814142D02*
X128359819Y-100433190D01*
X128359819Y-100433190D02*
X128407438Y-100337952D01*
X128407438Y-100337952D02*
X128455057Y-100290333D01*
X128455057Y-100290333D02*
X128550295Y-100242714D01*
X128550295Y-100242714D02*
X128693152Y-100242714D01*
X128693152Y-100242714D02*
X128788390Y-100290333D01*
X128788390Y-100290333D02*
X128836009Y-100337952D01*
X128836009Y-100337952D02*
X128883628Y-100433190D01*
X128883628Y-100433190D02*
X128883628Y-100814142D01*
X128359819Y-99337952D02*
X128359819Y-99814142D01*
X128359819Y-99814142D02*
X128836009Y-99861761D01*
X128836009Y-99861761D02*
X128788390Y-99814142D01*
X128788390Y-99814142D02*
X128740771Y-99718904D01*
X128740771Y-99718904D02*
X128740771Y-99480809D01*
X128740771Y-99480809D02*
X128788390Y-99385571D01*
X128788390Y-99385571D02*
X128836009Y-99337952D01*
X128836009Y-99337952D02*
X128931247Y-99290333D01*
X128931247Y-99290333D02*
X129169342Y-99290333D01*
X129169342Y-99290333D02*
X129264580Y-99337952D01*
X129264580Y-99337952D02*
X129312200Y-99385571D01*
X129312200Y-99385571D02*
X129359819Y-99480809D01*
X129359819Y-99480809D02*
X129359819Y-99718904D01*
X129359819Y-99718904D02*
X129312200Y-99814142D01*
X129312200Y-99814142D02*
X129264580Y-99861761D01*
X124238095Y-94584819D02*
X124238095Y-95394342D01*
X124238095Y-95394342D02*
X124285714Y-95489580D01*
X124285714Y-95489580D02*
X124333333Y-95537200D01*
X124333333Y-95537200D02*
X124428571Y-95584819D01*
X124428571Y-95584819D02*
X124619047Y-95584819D01*
X124619047Y-95584819D02*
X124714285Y-95537200D01*
X124714285Y-95537200D02*
X124761904Y-95489580D01*
X124761904Y-95489580D02*
X124809523Y-95394342D01*
X124809523Y-95394342D02*
X124809523Y-94584819D01*
X125809523Y-95584819D02*
X125238095Y-95584819D01*
X125523809Y-95584819D02*
X125523809Y-94584819D01*
X125523809Y-94584819D02*
X125428571Y-94727676D01*
X125428571Y-94727676D02*
X125333333Y-94822914D01*
X125333333Y-94822914D02*
X125238095Y-94870533D01*
X130324819Y-107513285D02*
X129324819Y-107513285D01*
X129324819Y-107513285D02*
X129324819Y-107132333D01*
X129324819Y-107132333D02*
X129372438Y-107037095D01*
X129372438Y-107037095D02*
X129420057Y-106989476D01*
X129420057Y-106989476D02*
X129515295Y-106941857D01*
X129515295Y-106941857D02*
X129658152Y-106941857D01*
X129658152Y-106941857D02*
X129753390Y-106989476D01*
X129753390Y-106989476D02*
X129801009Y-107037095D01*
X129801009Y-107037095D02*
X129848628Y-107132333D01*
X129848628Y-107132333D02*
X129848628Y-107513285D01*
X130324819Y-105989476D02*
X130324819Y-106560904D01*
X130324819Y-106275190D02*
X129324819Y-106275190D01*
X129324819Y-106275190D02*
X129467676Y-106370428D01*
X129467676Y-106370428D02*
X129562914Y-106465666D01*
X129562914Y-106465666D02*
X129610533Y-106560904D01*
X130324819Y-105037095D02*
X130324819Y-105608523D01*
X130324819Y-105322809D02*
X129324819Y-105322809D01*
X129324819Y-105322809D02*
X129467676Y-105418047D01*
X129467676Y-105418047D02*
X129562914Y-105513285D01*
X129562914Y-105513285D02*
X129610533Y-105608523D01*
X141932819Y-83319857D02*
X141456628Y-83653190D01*
X141932819Y-83891285D02*
X140932819Y-83891285D01*
X140932819Y-83891285D02*
X140932819Y-83510333D01*
X140932819Y-83510333D02*
X140980438Y-83415095D01*
X140980438Y-83415095D02*
X141028057Y-83367476D01*
X141028057Y-83367476D02*
X141123295Y-83319857D01*
X141123295Y-83319857D02*
X141266152Y-83319857D01*
X141266152Y-83319857D02*
X141361390Y-83367476D01*
X141361390Y-83367476D02*
X141409009Y-83415095D01*
X141409009Y-83415095D02*
X141456628Y-83510333D01*
X141456628Y-83510333D02*
X141456628Y-83891285D01*
X141932819Y-82367476D02*
X141932819Y-82938904D01*
X141932819Y-82653190D02*
X140932819Y-82653190D01*
X140932819Y-82653190D02*
X141075676Y-82748428D01*
X141075676Y-82748428D02*
X141170914Y-82843666D01*
X141170914Y-82843666D02*
X141218533Y-82938904D01*
X141932819Y-81415095D02*
X141932819Y-81986523D01*
X141932819Y-81700809D02*
X140932819Y-81700809D01*
X140932819Y-81700809D02*
X141075676Y-81796047D01*
X141075676Y-81796047D02*
X141170914Y-81891285D01*
X141170914Y-81891285D02*
X141218533Y-81986523D01*
X127343819Y-86939333D02*
X128058104Y-86939333D01*
X128058104Y-86939333D02*
X128200961Y-86986952D01*
X128200961Y-86986952D02*
X128296200Y-87082190D01*
X128296200Y-87082190D02*
X128343819Y-87225047D01*
X128343819Y-87225047D02*
X128343819Y-87320285D01*
X128343819Y-86463142D02*
X127343819Y-86463142D01*
X127343819Y-86463142D02*
X127343819Y-86082190D01*
X127343819Y-86082190D02*
X127391438Y-85986952D01*
X127391438Y-85986952D02*
X127439057Y-85939333D01*
X127439057Y-85939333D02*
X127534295Y-85891714D01*
X127534295Y-85891714D02*
X127677152Y-85891714D01*
X127677152Y-85891714D02*
X127772390Y-85939333D01*
X127772390Y-85939333D02*
X127820009Y-85986952D01*
X127820009Y-85986952D02*
X127867628Y-86082190D01*
X127867628Y-86082190D02*
X127867628Y-86463142D01*
X127343819Y-85558380D02*
X127343819Y-84891714D01*
X127343819Y-84891714D02*
X128343819Y-85320285D01*
X120231819Y-84018333D02*
X120946104Y-84018333D01*
X120946104Y-84018333D02*
X121088961Y-84065952D01*
X121088961Y-84065952D02*
X121184200Y-84161190D01*
X121184200Y-84161190D02*
X121231819Y-84304047D01*
X121231819Y-84304047D02*
X121231819Y-84399285D01*
X121231819Y-83542142D02*
X120231819Y-83542142D01*
X120231819Y-83542142D02*
X120231819Y-83161190D01*
X120231819Y-83161190D02*
X120279438Y-83065952D01*
X120279438Y-83065952D02*
X120327057Y-83018333D01*
X120327057Y-83018333D02*
X120422295Y-82970714D01*
X120422295Y-82970714D02*
X120565152Y-82970714D01*
X120565152Y-82970714D02*
X120660390Y-83018333D01*
X120660390Y-83018333D02*
X120708009Y-83065952D01*
X120708009Y-83065952D02*
X120755628Y-83161190D01*
X120755628Y-83161190D02*
X120755628Y-83542142D01*
X121231819Y-82018333D02*
X121231819Y-82589761D01*
X121231819Y-82304047D02*
X120231819Y-82304047D01*
X120231819Y-82304047D02*
X120374676Y-82399285D01*
X120374676Y-82399285D02*
X120469914Y-82494523D01*
X120469914Y-82494523D02*
X120517533Y-82589761D01*
X144740476Y-87465819D02*
X144740476Y-88180104D01*
X144740476Y-88180104D02*
X144692857Y-88322961D01*
X144692857Y-88322961D02*
X144597619Y-88418200D01*
X144597619Y-88418200D02*
X144454762Y-88465819D01*
X144454762Y-88465819D02*
X144359524Y-88465819D01*
X145216667Y-88465819D02*
X145216667Y-87465819D01*
X145216667Y-87465819D02*
X145597619Y-87465819D01*
X145597619Y-87465819D02*
X145692857Y-87513438D01*
X145692857Y-87513438D02*
X145740476Y-87561057D01*
X145740476Y-87561057D02*
X145788095Y-87656295D01*
X145788095Y-87656295D02*
X145788095Y-87799152D01*
X145788095Y-87799152D02*
X145740476Y-87894390D01*
X145740476Y-87894390D02*
X145692857Y-87942009D01*
X145692857Y-87942009D02*
X145597619Y-87989628D01*
X145597619Y-87989628D02*
X145216667Y-87989628D01*
X146740476Y-88465819D02*
X146169048Y-88465819D01*
X146454762Y-88465819D02*
X146454762Y-87465819D01*
X146454762Y-87465819D02*
X146359524Y-87608676D01*
X146359524Y-87608676D02*
X146264286Y-87703914D01*
X146264286Y-87703914D02*
X146169048Y-87751533D01*
X147692857Y-88465819D02*
X147121429Y-88465819D01*
X147407143Y-88465819D02*
X147407143Y-87465819D01*
X147407143Y-87465819D02*
X147311905Y-87608676D01*
X147311905Y-87608676D02*
X147216667Y-87703914D01*
X147216667Y-87703914D02*
X147121429Y-87751533D01*
X122390819Y-84145333D02*
X123105104Y-84145333D01*
X123105104Y-84145333D02*
X123247961Y-84192952D01*
X123247961Y-84192952D02*
X123343200Y-84288190D01*
X123343200Y-84288190D02*
X123390819Y-84431047D01*
X123390819Y-84431047D02*
X123390819Y-84526285D01*
X123390819Y-83669142D02*
X122390819Y-83669142D01*
X122390819Y-83669142D02*
X122390819Y-83288190D01*
X122390819Y-83288190D02*
X122438438Y-83192952D01*
X122438438Y-83192952D02*
X122486057Y-83145333D01*
X122486057Y-83145333D02*
X122581295Y-83097714D01*
X122581295Y-83097714D02*
X122724152Y-83097714D01*
X122724152Y-83097714D02*
X122819390Y-83145333D01*
X122819390Y-83145333D02*
X122867009Y-83192952D01*
X122867009Y-83192952D02*
X122914628Y-83288190D01*
X122914628Y-83288190D02*
X122914628Y-83669142D01*
X122724152Y-82240571D02*
X123390819Y-82240571D01*
X122343200Y-82478666D02*
X123057485Y-82716761D01*
X123057485Y-82716761D02*
X123057485Y-82097714D01*
X124438580Y-108243666D02*
X124486200Y-108291285D01*
X124486200Y-108291285D02*
X124533819Y-108434142D01*
X124533819Y-108434142D02*
X124533819Y-108529380D01*
X124533819Y-108529380D02*
X124486200Y-108672237D01*
X124486200Y-108672237D02*
X124390961Y-108767475D01*
X124390961Y-108767475D02*
X124295723Y-108815094D01*
X124295723Y-108815094D02*
X124105247Y-108862713D01*
X124105247Y-108862713D02*
X123962390Y-108862713D01*
X123962390Y-108862713D02*
X123771914Y-108815094D01*
X123771914Y-108815094D02*
X123676676Y-108767475D01*
X123676676Y-108767475D02*
X123581438Y-108672237D01*
X123581438Y-108672237D02*
X123533819Y-108529380D01*
X123533819Y-108529380D02*
X123533819Y-108434142D01*
X123533819Y-108434142D02*
X123581438Y-108291285D01*
X123581438Y-108291285D02*
X123629057Y-108243666D01*
X123533819Y-107910332D02*
X123533819Y-107291285D01*
X123533819Y-107291285D02*
X123914771Y-107624618D01*
X123914771Y-107624618D02*
X123914771Y-107481761D01*
X123914771Y-107481761D02*
X123962390Y-107386523D01*
X123962390Y-107386523D02*
X124010009Y-107338904D01*
X124010009Y-107338904D02*
X124105247Y-107291285D01*
X124105247Y-107291285D02*
X124343342Y-107291285D01*
X124343342Y-107291285D02*
X124438580Y-107338904D01*
X124438580Y-107338904D02*
X124486200Y-107386523D01*
X124486200Y-107386523D02*
X124533819Y-107481761D01*
X124533819Y-107481761D02*
X124533819Y-107767475D01*
X124533819Y-107767475D02*
X124486200Y-107862713D01*
X124486200Y-107862713D02*
X124438580Y-107910332D01*
X148963142Y-100403819D02*
X148629809Y-99927628D01*
X148391714Y-100403819D02*
X148391714Y-99403819D01*
X148391714Y-99403819D02*
X148772666Y-99403819D01*
X148772666Y-99403819D02*
X148867904Y-99451438D01*
X148867904Y-99451438D02*
X148915523Y-99499057D01*
X148915523Y-99499057D02*
X148963142Y-99594295D01*
X148963142Y-99594295D02*
X148963142Y-99737152D01*
X148963142Y-99737152D02*
X148915523Y-99832390D01*
X148915523Y-99832390D02*
X148867904Y-99880009D01*
X148867904Y-99880009D02*
X148772666Y-99927628D01*
X148772666Y-99927628D02*
X148391714Y-99927628D01*
X149915523Y-100403819D02*
X149344095Y-100403819D01*
X149629809Y-100403819D02*
X149629809Y-99403819D01*
X149629809Y-99403819D02*
X149534571Y-99546676D01*
X149534571Y-99546676D02*
X149439333Y-99641914D01*
X149439333Y-99641914D02*
X149344095Y-99689533D01*
X150820285Y-99403819D02*
X150344095Y-99403819D01*
X150344095Y-99403819D02*
X150296476Y-99880009D01*
X150296476Y-99880009D02*
X150344095Y-99832390D01*
X150344095Y-99832390D02*
X150439333Y-99784771D01*
X150439333Y-99784771D02*
X150677428Y-99784771D01*
X150677428Y-99784771D02*
X150772666Y-99832390D01*
X150772666Y-99832390D02*
X150820285Y-99880009D01*
X150820285Y-99880009D02*
X150867904Y-99975247D01*
X150867904Y-99975247D02*
X150867904Y-100213342D01*
X150867904Y-100213342D02*
X150820285Y-100308580D01*
X150820285Y-100308580D02*
X150772666Y-100356200D01*
X150772666Y-100356200D02*
X150677428Y-100403819D01*
X150677428Y-100403819D02*
X150439333Y-100403819D01*
X150439333Y-100403819D02*
X150344095Y-100356200D01*
X150344095Y-100356200D02*
X150296476Y-100308580D01*
X140168476Y-92418819D02*
X140168476Y-93133104D01*
X140168476Y-93133104D02*
X140120857Y-93275961D01*
X140120857Y-93275961D02*
X140025619Y-93371200D01*
X140025619Y-93371200D02*
X139882762Y-93418819D01*
X139882762Y-93418819D02*
X139787524Y-93418819D01*
X140644667Y-93418819D02*
X140644667Y-92418819D01*
X140644667Y-92418819D02*
X141025619Y-92418819D01*
X141025619Y-92418819D02*
X141120857Y-92466438D01*
X141120857Y-92466438D02*
X141168476Y-92514057D01*
X141168476Y-92514057D02*
X141216095Y-92609295D01*
X141216095Y-92609295D02*
X141216095Y-92752152D01*
X141216095Y-92752152D02*
X141168476Y-92847390D01*
X141168476Y-92847390D02*
X141120857Y-92895009D01*
X141120857Y-92895009D02*
X141025619Y-92942628D01*
X141025619Y-92942628D02*
X140644667Y-92942628D01*
X142168476Y-93418819D02*
X141597048Y-93418819D01*
X141882762Y-93418819D02*
X141882762Y-92418819D01*
X141882762Y-92418819D02*
X141787524Y-92561676D01*
X141787524Y-92561676D02*
X141692286Y-92656914D01*
X141692286Y-92656914D02*
X141597048Y-92704533D01*
X142787524Y-92418819D02*
X142882762Y-92418819D01*
X142882762Y-92418819D02*
X142978000Y-92466438D01*
X142978000Y-92466438D02*
X143025619Y-92514057D01*
X143025619Y-92514057D02*
X143073238Y-92609295D01*
X143073238Y-92609295D02*
X143120857Y-92799771D01*
X143120857Y-92799771D02*
X143120857Y-93037866D01*
X143120857Y-93037866D02*
X143073238Y-93228342D01*
X143073238Y-93228342D02*
X143025619Y-93323580D01*
X143025619Y-93323580D02*
X142978000Y-93371200D01*
X142978000Y-93371200D02*
X142882762Y-93418819D01*
X142882762Y-93418819D02*
X142787524Y-93418819D01*
X142787524Y-93418819D02*
X142692286Y-93371200D01*
X142692286Y-93371200D02*
X142644667Y-93323580D01*
X142644667Y-93323580D02*
X142597048Y-93228342D01*
X142597048Y-93228342D02*
X142549429Y-93037866D01*
X142549429Y-93037866D02*
X142549429Y-92799771D01*
X142549429Y-92799771D02*
X142597048Y-92609295D01*
X142597048Y-92609295D02*
X142644667Y-92514057D01*
X142644667Y-92514057D02*
X142692286Y-92466438D01*
X142692286Y-92466438D02*
X142787524Y-92418819D01*
X124928333Y-82496819D02*
X124595000Y-82020628D01*
X124356905Y-82496819D02*
X124356905Y-81496819D01*
X124356905Y-81496819D02*
X124737857Y-81496819D01*
X124737857Y-81496819D02*
X124833095Y-81544438D01*
X124833095Y-81544438D02*
X124880714Y-81592057D01*
X124880714Y-81592057D02*
X124928333Y-81687295D01*
X124928333Y-81687295D02*
X124928333Y-81830152D01*
X124928333Y-81830152D02*
X124880714Y-81925390D01*
X124880714Y-81925390D02*
X124833095Y-81973009D01*
X124833095Y-81973009D02*
X124737857Y-82020628D01*
X124737857Y-82020628D02*
X124356905Y-82020628D01*
X125261667Y-81496819D02*
X125880714Y-81496819D01*
X125880714Y-81496819D02*
X125547381Y-81877771D01*
X125547381Y-81877771D02*
X125690238Y-81877771D01*
X125690238Y-81877771D02*
X125785476Y-81925390D01*
X125785476Y-81925390D02*
X125833095Y-81973009D01*
X125833095Y-81973009D02*
X125880714Y-82068247D01*
X125880714Y-82068247D02*
X125880714Y-82306342D01*
X125880714Y-82306342D02*
X125833095Y-82401580D01*
X125833095Y-82401580D02*
X125785476Y-82449200D01*
X125785476Y-82449200D02*
X125690238Y-82496819D01*
X125690238Y-82496819D02*
X125404524Y-82496819D01*
X125404524Y-82496819D02*
X125309286Y-82449200D01*
X125309286Y-82449200D02*
X125261667Y-82401580D01*
X135033333Y-95759580D02*
X134985714Y-95807200D01*
X134985714Y-95807200D02*
X134842857Y-95854819D01*
X134842857Y-95854819D02*
X134747619Y-95854819D01*
X134747619Y-95854819D02*
X134604762Y-95807200D01*
X134604762Y-95807200D02*
X134509524Y-95711961D01*
X134509524Y-95711961D02*
X134461905Y-95616723D01*
X134461905Y-95616723D02*
X134414286Y-95426247D01*
X134414286Y-95426247D02*
X134414286Y-95283390D01*
X134414286Y-95283390D02*
X134461905Y-95092914D01*
X134461905Y-95092914D02*
X134509524Y-94997676D01*
X134509524Y-94997676D02*
X134604762Y-94902438D01*
X134604762Y-94902438D02*
X134747619Y-94854819D01*
X134747619Y-94854819D02*
X134842857Y-94854819D01*
X134842857Y-94854819D02*
X134985714Y-94902438D01*
X134985714Y-94902438D02*
X135033333Y-94950057D01*
X135366667Y-94854819D02*
X136033333Y-94854819D01*
X136033333Y-94854819D02*
X135604762Y-95854819D01*
X150379580Y-104687666D02*
X150427200Y-104735285D01*
X150427200Y-104735285D02*
X150474819Y-104878142D01*
X150474819Y-104878142D02*
X150474819Y-104973380D01*
X150474819Y-104973380D02*
X150427200Y-105116237D01*
X150427200Y-105116237D02*
X150331961Y-105211475D01*
X150331961Y-105211475D02*
X150236723Y-105259094D01*
X150236723Y-105259094D02*
X150046247Y-105306713D01*
X150046247Y-105306713D02*
X149903390Y-105306713D01*
X149903390Y-105306713D02*
X149712914Y-105259094D01*
X149712914Y-105259094D02*
X149617676Y-105211475D01*
X149617676Y-105211475D02*
X149522438Y-105116237D01*
X149522438Y-105116237D02*
X149474819Y-104973380D01*
X149474819Y-104973380D02*
X149474819Y-104878142D01*
X149474819Y-104878142D02*
X149522438Y-104735285D01*
X149522438Y-104735285D02*
X149570057Y-104687666D01*
X149808152Y-103830523D02*
X150474819Y-103830523D01*
X149427200Y-104068618D02*
X150141485Y-104306713D01*
X150141485Y-104306713D02*
X150141485Y-103687666D01*
X134957142Y-89359580D02*
X134909523Y-89407200D01*
X134909523Y-89407200D02*
X134766666Y-89454819D01*
X134766666Y-89454819D02*
X134671428Y-89454819D01*
X134671428Y-89454819D02*
X134528571Y-89407200D01*
X134528571Y-89407200D02*
X134433333Y-89311961D01*
X134433333Y-89311961D02*
X134385714Y-89216723D01*
X134385714Y-89216723D02*
X134338095Y-89026247D01*
X134338095Y-89026247D02*
X134338095Y-88883390D01*
X134338095Y-88883390D02*
X134385714Y-88692914D01*
X134385714Y-88692914D02*
X134433333Y-88597676D01*
X134433333Y-88597676D02*
X134528571Y-88502438D01*
X134528571Y-88502438D02*
X134671428Y-88454819D01*
X134671428Y-88454819D02*
X134766666Y-88454819D01*
X134766666Y-88454819D02*
X134909523Y-88502438D01*
X134909523Y-88502438D02*
X134957142Y-88550057D01*
X135909523Y-89454819D02*
X135338095Y-89454819D01*
X135623809Y-89454819D02*
X135623809Y-88454819D01*
X135623809Y-88454819D02*
X135528571Y-88597676D01*
X135528571Y-88597676D02*
X135433333Y-88692914D01*
X135433333Y-88692914D02*
X135338095Y-88740533D01*
X136290476Y-88550057D02*
X136338095Y-88502438D01*
X136338095Y-88502438D02*
X136433333Y-88454819D01*
X136433333Y-88454819D02*
X136671428Y-88454819D01*
X136671428Y-88454819D02*
X136766666Y-88502438D01*
X136766666Y-88502438D02*
X136814285Y-88550057D01*
X136814285Y-88550057D02*
X136861904Y-88645295D01*
X136861904Y-88645295D02*
X136861904Y-88740533D01*
X136861904Y-88740533D02*
X136814285Y-88883390D01*
X136814285Y-88883390D02*
X136242857Y-89454819D01*
X136242857Y-89454819D02*
X136861904Y-89454819D01*
X119088819Y-100147333D02*
X119803104Y-100147333D01*
X119803104Y-100147333D02*
X119945961Y-100194952D01*
X119945961Y-100194952D02*
X120041200Y-100290190D01*
X120041200Y-100290190D02*
X120088819Y-100433047D01*
X120088819Y-100433047D02*
X120088819Y-100528285D01*
X120088819Y-99671142D02*
X119088819Y-99671142D01*
X119088819Y-99671142D02*
X119088819Y-99290190D01*
X119088819Y-99290190D02*
X119136438Y-99194952D01*
X119136438Y-99194952D02*
X119184057Y-99147333D01*
X119184057Y-99147333D02*
X119279295Y-99099714D01*
X119279295Y-99099714D02*
X119422152Y-99099714D01*
X119422152Y-99099714D02*
X119517390Y-99147333D01*
X119517390Y-99147333D02*
X119565009Y-99194952D01*
X119565009Y-99194952D02*
X119612628Y-99290190D01*
X119612628Y-99290190D02*
X119612628Y-99671142D01*
X119184057Y-98718761D02*
X119136438Y-98671142D01*
X119136438Y-98671142D02*
X119088819Y-98575904D01*
X119088819Y-98575904D02*
X119088819Y-98337809D01*
X119088819Y-98337809D02*
X119136438Y-98242571D01*
X119136438Y-98242571D02*
X119184057Y-98194952D01*
X119184057Y-98194952D02*
X119279295Y-98147333D01*
X119279295Y-98147333D02*
X119374533Y-98147333D01*
X119374533Y-98147333D02*
X119517390Y-98194952D01*
X119517390Y-98194952D02*
X120088819Y-98766380D01*
X120088819Y-98766380D02*
X120088819Y-98147333D01*
X134957142Y-87759580D02*
X134909523Y-87807200D01*
X134909523Y-87807200D02*
X134766666Y-87854819D01*
X134766666Y-87854819D02*
X134671428Y-87854819D01*
X134671428Y-87854819D02*
X134528571Y-87807200D01*
X134528571Y-87807200D02*
X134433333Y-87711961D01*
X134433333Y-87711961D02*
X134385714Y-87616723D01*
X134385714Y-87616723D02*
X134338095Y-87426247D01*
X134338095Y-87426247D02*
X134338095Y-87283390D01*
X134338095Y-87283390D02*
X134385714Y-87092914D01*
X134385714Y-87092914D02*
X134433333Y-86997676D01*
X134433333Y-86997676D02*
X134528571Y-86902438D01*
X134528571Y-86902438D02*
X134671428Y-86854819D01*
X134671428Y-86854819D02*
X134766666Y-86854819D01*
X134766666Y-86854819D02*
X134909523Y-86902438D01*
X134909523Y-86902438D02*
X134957142Y-86950057D01*
X135909523Y-87854819D02*
X135338095Y-87854819D01*
X135623809Y-87854819D02*
X135623809Y-86854819D01*
X135623809Y-86854819D02*
X135528571Y-86997676D01*
X135528571Y-86997676D02*
X135433333Y-87092914D01*
X135433333Y-87092914D02*
X135338095Y-87140533D01*
X136861904Y-87854819D02*
X136290476Y-87854819D01*
X136576190Y-87854819D02*
X136576190Y-86854819D01*
X136576190Y-86854819D02*
X136480952Y-86997676D01*
X136480952Y-86997676D02*
X136385714Y-87092914D01*
X136385714Y-87092914D02*
X136290476Y-87140533D01*
X131691142Y-84654580D02*
X131643523Y-84702200D01*
X131643523Y-84702200D02*
X131500666Y-84749819D01*
X131500666Y-84749819D02*
X131405428Y-84749819D01*
X131405428Y-84749819D02*
X131262571Y-84702200D01*
X131262571Y-84702200D02*
X131167333Y-84606961D01*
X131167333Y-84606961D02*
X131119714Y-84511723D01*
X131119714Y-84511723D02*
X131072095Y-84321247D01*
X131072095Y-84321247D02*
X131072095Y-84178390D01*
X131072095Y-84178390D02*
X131119714Y-83987914D01*
X131119714Y-83987914D02*
X131167333Y-83892676D01*
X131167333Y-83892676D02*
X131262571Y-83797438D01*
X131262571Y-83797438D02*
X131405428Y-83749819D01*
X131405428Y-83749819D02*
X131500666Y-83749819D01*
X131500666Y-83749819D02*
X131643523Y-83797438D01*
X131643523Y-83797438D02*
X131691142Y-83845057D01*
X132643523Y-84749819D02*
X132072095Y-84749819D01*
X132357809Y-84749819D02*
X132357809Y-83749819D01*
X132357809Y-83749819D02*
X132262571Y-83892676D01*
X132262571Y-83892676D02*
X132167333Y-83987914D01*
X132167333Y-83987914D02*
X132072095Y-84035533D01*
X132976857Y-83749819D02*
X133595904Y-83749819D01*
X133595904Y-83749819D02*
X133262571Y-84130771D01*
X133262571Y-84130771D02*
X133405428Y-84130771D01*
X133405428Y-84130771D02*
X133500666Y-84178390D01*
X133500666Y-84178390D02*
X133548285Y-84226009D01*
X133548285Y-84226009D02*
X133595904Y-84321247D01*
X133595904Y-84321247D02*
X133595904Y-84559342D01*
X133595904Y-84559342D02*
X133548285Y-84654580D01*
X133548285Y-84654580D02*
X133500666Y-84702200D01*
X133500666Y-84702200D02*
X133405428Y-84749819D01*
X133405428Y-84749819D02*
X133119714Y-84749819D01*
X133119714Y-84749819D02*
X133024476Y-84702200D01*
X133024476Y-84702200D02*
X132976857Y-84654580D01*
X140168476Y-95466819D02*
X140168476Y-96181104D01*
X140168476Y-96181104D02*
X140120857Y-96323961D01*
X140120857Y-96323961D02*
X140025619Y-96419200D01*
X140025619Y-96419200D02*
X139882762Y-96466819D01*
X139882762Y-96466819D02*
X139787524Y-96466819D01*
X140644667Y-96466819D02*
X140644667Y-95466819D01*
X140644667Y-95466819D02*
X141025619Y-95466819D01*
X141025619Y-95466819D02*
X141120857Y-95514438D01*
X141120857Y-95514438D02*
X141168476Y-95562057D01*
X141168476Y-95562057D02*
X141216095Y-95657295D01*
X141216095Y-95657295D02*
X141216095Y-95800152D01*
X141216095Y-95800152D02*
X141168476Y-95895390D01*
X141168476Y-95895390D02*
X141120857Y-95943009D01*
X141120857Y-95943009D02*
X141025619Y-95990628D01*
X141025619Y-95990628D02*
X140644667Y-95990628D01*
X142168476Y-96466819D02*
X141597048Y-96466819D01*
X141882762Y-96466819D02*
X141882762Y-95466819D01*
X141882762Y-95466819D02*
X141787524Y-95609676D01*
X141787524Y-95609676D02*
X141692286Y-95704914D01*
X141692286Y-95704914D02*
X141597048Y-95752533D01*
X143025619Y-95466819D02*
X142835143Y-95466819D01*
X142835143Y-95466819D02*
X142739905Y-95514438D01*
X142739905Y-95514438D02*
X142692286Y-95562057D01*
X142692286Y-95562057D02*
X142597048Y-95704914D01*
X142597048Y-95704914D02*
X142549429Y-95895390D01*
X142549429Y-95895390D02*
X142549429Y-96276342D01*
X142549429Y-96276342D02*
X142597048Y-96371580D01*
X142597048Y-96371580D02*
X142644667Y-96419200D01*
X142644667Y-96419200D02*
X142739905Y-96466819D01*
X142739905Y-96466819D02*
X142930381Y-96466819D01*
X142930381Y-96466819D02*
X143025619Y-96419200D01*
X143025619Y-96419200D02*
X143073238Y-96371580D01*
X143073238Y-96371580D02*
X143120857Y-96276342D01*
X143120857Y-96276342D02*
X143120857Y-96038247D01*
X143120857Y-96038247D02*
X143073238Y-95943009D01*
X143073238Y-95943009D02*
X143025619Y-95895390D01*
X143025619Y-95895390D02*
X142930381Y-95847771D01*
X142930381Y-95847771D02*
X142739905Y-95847771D01*
X142739905Y-95847771D02*
X142644667Y-95895390D01*
X142644667Y-95895390D02*
X142597048Y-95943009D01*
X142597048Y-95943009D02*
X142549429Y-96038247D01*
X116233333Y-107684819D02*
X115900000Y-107208628D01*
X115661905Y-107684819D02*
X115661905Y-106684819D01*
X115661905Y-106684819D02*
X116042857Y-106684819D01*
X116042857Y-106684819D02*
X116138095Y-106732438D01*
X116138095Y-106732438D02*
X116185714Y-106780057D01*
X116185714Y-106780057D02*
X116233333Y-106875295D01*
X116233333Y-106875295D02*
X116233333Y-107018152D01*
X116233333Y-107018152D02*
X116185714Y-107113390D01*
X116185714Y-107113390D02*
X116138095Y-107161009D01*
X116138095Y-107161009D02*
X116042857Y-107208628D01*
X116042857Y-107208628D02*
X115661905Y-107208628D01*
X116804762Y-107113390D02*
X116709524Y-107065771D01*
X116709524Y-107065771D02*
X116661905Y-107018152D01*
X116661905Y-107018152D02*
X116614286Y-106922914D01*
X116614286Y-106922914D02*
X116614286Y-106875295D01*
X116614286Y-106875295D02*
X116661905Y-106780057D01*
X116661905Y-106780057D02*
X116709524Y-106732438D01*
X116709524Y-106732438D02*
X116804762Y-106684819D01*
X116804762Y-106684819D02*
X116995238Y-106684819D01*
X116995238Y-106684819D02*
X117090476Y-106732438D01*
X117090476Y-106732438D02*
X117138095Y-106780057D01*
X117138095Y-106780057D02*
X117185714Y-106875295D01*
X117185714Y-106875295D02*
X117185714Y-106922914D01*
X117185714Y-106922914D02*
X117138095Y-107018152D01*
X117138095Y-107018152D02*
X117090476Y-107065771D01*
X117090476Y-107065771D02*
X116995238Y-107113390D01*
X116995238Y-107113390D02*
X116804762Y-107113390D01*
X116804762Y-107113390D02*
X116709524Y-107161009D01*
X116709524Y-107161009D02*
X116661905Y-107208628D01*
X116661905Y-107208628D02*
X116614286Y-107303866D01*
X116614286Y-107303866D02*
X116614286Y-107494342D01*
X116614286Y-107494342D02*
X116661905Y-107589580D01*
X116661905Y-107589580D02*
X116709524Y-107637200D01*
X116709524Y-107637200D02*
X116804762Y-107684819D01*
X116804762Y-107684819D02*
X116995238Y-107684819D01*
X116995238Y-107684819D02*
X117090476Y-107637200D01*
X117090476Y-107637200D02*
X117138095Y-107589580D01*
X117138095Y-107589580D02*
X117185714Y-107494342D01*
X117185714Y-107494342D02*
X117185714Y-107303866D01*
X117185714Y-107303866D02*
X117138095Y-107208628D01*
X117138095Y-107208628D02*
X117090476Y-107161009D01*
X117090476Y-107161009D02*
X116995238Y-107113390D01*
X138263333Y-92180580D02*
X138215714Y-92228200D01*
X138215714Y-92228200D02*
X138072857Y-92275819D01*
X138072857Y-92275819D02*
X137977619Y-92275819D01*
X137977619Y-92275819D02*
X137834762Y-92228200D01*
X137834762Y-92228200D02*
X137739524Y-92132961D01*
X137739524Y-92132961D02*
X137691905Y-92037723D01*
X137691905Y-92037723D02*
X137644286Y-91847247D01*
X137644286Y-91847247D02*
X137644286Y-91704390D01*
X137644286Y-91704390D02*
X137691905Y-91513914D01*
X137691905Y-91513914D02*
X137739524Y-91418676D01*
X137739524Y-91418676D02*
X137834762Y-91323438D01*
X137834762Y-91323438D02*
X137977619Y-91275819D01*
X137977619Y-91275819D02*
X138072857Y-91275819D01*
X138072857Y-91275819D02*
X138215714Y-91323438D01*
X138215714Y-91323438D02*
X138263333Y-91371057D01*
X139215714Y-92275819D02*
X138644286Y-92275819D01*
X138930000Y-92275819D02*
X138930000Y-91275819D01*
X138930000Y-91275819D02*
X138834762Y-91418676D01*
X138834762Y-91418676D02*
X138739524Y-91513914D01*
X138739524Y-91513914D02*
X138644286Y-91561533D01*
X108386666Y-101943819D02*
X108386666Y-102658104D01*
X108386666Y-102658104D02*
X108339047Y-102800961D01*
X108339047Y-102800961D02*
X108243809Y-102896200D01*
X108243809Y-102896200D02*
X108100952Y-102943819D01*
X108100952Y-102943819D02*
X108005714Y-102943819D01*
X108862857Y-102943819D02*
X108862857Y-101943819D01*
X108862857Y-101943819D02*
X109243809Y-101943819D01*
X109243809Y-101943819D02*
X109339047Y-101991438D01*
X109339047Y-101991438D02*
X109386666Y-102039057D01*
X109386666Y-102039057D02*
X109434285Y-102134295D01*
X109434285Y-102134295D02*
X109434285Y-102277152D01*
X109434285Y-102277152D02*
X109386666Y-102372390D01*
X109386666Y-102372390D02*
X109339047Y-102420009D01*
X109339047Y-102420009D02*
X109243809Y-102467628D01*
X109243809Y-102467628D02*
X108862857Y-102467628D01*
X110005714Y-102372390D02*
X109910476Y-102324771D01*
X109910476Y-102324771D02*
X109862857Y-102277152D01*
X109862857Y-102277152D02*
X109815238Y-102181914D01*
X109815238Y-102181914D02*
X109815238Y-102134295D01*
X109815238Y-102134295D02*
X109862857Y-102039057D01*
X109862857Y-102039057D02*
X109910476Y-101991438D01*
X109910476Y-101991438D02*
X110005714Y-101943819D01*
X110005714Y-101943819D02*
X110196190Y-101943819D01*
X110196190Y-101943819D02*
X110291428Y-101991438D01*
X110291428Y-101991438D02*
X110339047Y-102039057D01*
X110339047Y-102039057D02*
X110386666Y-102134295D01*
X110386666Y-102134295D02*
X110386666Y-102181914D01*
X110386666Y-102181914D02*
X110339047Y-102277152D01*
X110339047Y-102277152D02*
X110291428Y-102324771D01*
X110291428Y-102324771D02*
X110196190Y-102372390D01*
X110196190Y-102372390D02*
X110005714Y-102372390D01*
X110005714Y-102372390D02*
X109910476Y-102420009D01*
X109910476Y-102420009D02*
X109862857Y-102467628D01*
X109862857Y-102467628D02*
X109815238Y-102562866D01*
X109815238Y-102562866D02*
X109815238Y-102753342D01*
X109815238Y-102753342D02*
X109862857Y-102848580D01*
X109862857Y-102848580D02*
X109910476Y-102896200D01*
X109910476Y-102896200D02*
X110005714Y-102943819D01*
X110005714Y-102943819D02*
X110196190Y-102943819D01*
X110196190Y-102943819D02*
X110291428Y-102896200D01*
X110291428Y-102896200D02*
X110339047Y-102848580D01*
X110339047Y-102848580D02*
X110386666Y-102753342D01*
X110386666Y-102753342D02*
X110386666Y-102562866D01*
X110386666Y-102562866D02*
X110339047Y-102467628D01*
X110339047Y-102467628D02*
X110291428Y-102420009D01*
X110291428Y-102420009D02*
X110196190Y-102372390D01*
X119961819Y-108465857D02*
X119485628Y-108799190D01*
X119961819Y-109037285D02*
X118961819Y-109037285D01*
X118961819Y-109037285D02*
X118961819Y-108656333D01*
X118961819Y-108656333D02*
X119009438Y-108561095D01*
X119009438Y-108561095D02*
X119057057Y-108513476D01*
X119057057Y-108513476D02*
X119152295Y-108465857D01*
X119152295Y-108465857D02*
X119295152Y-108465857D01*
X119295152Y-108465857D02*
X119390390Y-108513476D01*
X119390390Y-108513476D02*
X119438009Y-108561095D01*
X119438009Y-108561095D02*
X119485628Y-108656333D01*
X119485628Y-108656333D02*
X119485628Y-109037285D01*
X119961819Y-107513476D02*
X119961819Y-108084904D01*
X119961819Y-107799190D02*
X118961819Y-107799190D01*
X118961819Y-107799190D02*
X119104676Y-107894428D01*
X119104676Y-107894428D02*
X119199914Y-107989666D01*
X119199914Y-107989666D02*
X119247533Y-108084904D01*
X119057057Y-107132523D02*
X119009438Y-107084904D01*
X119009438Y-107084904D02*
X118961819Y-106989666D01*
X118961819Y-106989666D02*
X118961819Y-106751571D01*
X118961819Y-106751571D02*
X119009438Y-106656333D01*
X119009438Y-106656333D02*
X119057057Y-106608714D01*
X119057057Y-106608714D02*
X119152295Y-106561095D01*
X119152295Y-106561095D02*
X119247533Y-106561095D01*
X119247533Y-106561095D02*
X119390390Y-106608714D01*
X119390390Y-106608714D02*
X119961819Y-107180142D01*
X119961819Y-107180142D02*
X119961819Y-106561095D01*
X155505166Y-82127819D02*
X155505166Y-82842104D01*
X155505166Y-82842104D02*
X155457547Y-82984961D01*
X155457547Y-82984961D02*
X155362309Y-83080200D01*
X155362309Y-83080200D02*
X155219452Y-83127819D01*
X155219452Y-83127819D02*
X155124214Y-83127819D01*
X155933738Y-82223057D02*
X155981357Y-82175438D01*
X155981357Y-82175438D02*
X156076595Y-82127819D01*
X156076595Y-82127819D02*
X156314690Y-82127819D01*
X156314690Y-82127819D02*
X156409928Y-82175438D01*
X156409928Y-82175438D02*
X156457547Y-82223057D01*
X156457547Y-82223057D02*
X156505166Y-82318295D01*
X156505166Y-82318295D02*
X156505166Y-82413533D01*
X156505166Y-82413533D02*
X156457547Y-82556390D01*
X156457547Y-82556390D02*
X155886119Y-83127819D01*
X155886119Y-83127819D02*
X156505166Y-83127819D01*
X148931333Y-94561819D02*
X148598000Y-94085628D01*
X148359905Y-94561819D02*
X148359905Y-93561819D01*
X148359905Y-93561819D02*
X148740857Y-93561819D01*
X148740857Y-93561819D02*
X148836095Y-93609438D01*
X148836095Y-93609438D02*
X148883714Y-93657057D01*
X148883714Y-93657057D02*
X148931333Y-93752295D01*
X148931333Y-93752295D02*
X148931333Y-93895152D01*
X148931333Y-93895152D02*
X148883714Y-93990390D01*
X148883714Y-93990390D02*
X148836095Y-94038009D01*
X148836095Y-94038009D02*
X148740857Y-94085628D01*
X148740857Y-94085628D02*
X148359905Y-94085628D01*
X149407524Y-94561819D02*
X149598000Y-94561819D01*
X149598000Y-94561819D02*
X149693238Y-94514200D01*
X149693238Y-94514200D02*
X149740857Y-94466580D01*
X149740857Y-94466580D02*
X149836095Y-94323723D01*
X149836095Y-94323723D02*
X149883714Y-94133247D01*
X149883714Y-94133247D02*
X149883714Y-93752295D01*
X149883714Y-93752295D02*
X149836095Y-93657057D01*
X149836095Y-93657057D02*
X149788476Y-93609438D01*
X149788476Y-93609438D02*
X149693238Y-93561819D01*
X149693238Y-93561819D02*
X149502762Y-93561819D01*
X149502762Y-93561819D02*
X149407524Y-93609438D01*
X149407524Y-93609438D02*
X149359905Y-93657057D01*
X149359905Y-93657057D02*
X149312286Y-93752295D01*
X149312286Y-93752295D02*
X149312286Y-93990390D01*
X149312286Y-93990390D02*
X149359905Y-94085628D01*
X149359905Y-94085628D02*
X149407524Y-94133247D01*
X149407524Y-94133247D02*
X149502762Y-94180866D01*
X149502762Y-94180866D02*
X149693238Y-94180866D01*
X149693238Y-94180866D02*
X149788476Y-94133247D01*
X149788476Y-94133247D02*
X149836095Y-94085628D01*
X149836095Y-94085628D02*
X149883714Y-93990390D01*
X135033333Y-97359580D02*
X134985714Y-97407200D01*
X134985714Y-97407200D02*
X134842857Y-97454819D01*
X134842857Y-97454819D02*
X134747619Y-97454819D01*
X134747619Y-97454819D02*
X134604762Y-97407200D01*
X134604762Y-97407200D02*
X134509524Y-97311961D01*
X134509524Y-97311961D02*
X134461905Y-97216723D01*
X134461905Y-97216723D02*
X134414286Y-97026247D01*
X134414286Y-97026247D02*
X134414286Y-96883390D01*
X134414286Y-96883390D02*
X134461905Y-96692914D01*
X134461905Y-96692914D02*
X134509524Y-96597676D01*
X134509524Y-96597676D02*
X134604762Y-96502438D01*
X134604762Y-96502438D02*
X134747619Y-96454819D01*
X134747619Y-96454819D02*
X134842857Y-96454819D01*
X134842857Y-96454819D02*
X134985714Y-96502438D01*
X134985714Y-96502438D02*
X135033333Y-96550057D01*
X135938095Y-96454819D02*
X135461905Y-96454819D01*
X135461905Y-96454819D02*
X135414286Y-96931009D01*
X135414286Y-96931009D02*
X135461905Y-96883390D01*
X135461905Y-96883390D02*
X135557143Y-96835771D01*
X135557143Y-96835771D02*
X135795238Y-96835771D01*
X135795238Y-96835771D02*
X135890476Y-96883390D01*
X135890476Y-96883390D02*
X135938095Y-96931009D01*
X135938095Y-96931009D02*
X135985714Y-97026247D01*
X135985714Y-97026247D02*
X135985714Y-97264342D01*
X135985714Y-97264342D02*
X135938095Y-97359580D01*
X135938095Y-97359580D02*
X135890476Y-97407200D01*
X135890476Y-97407200D02*
X135795238Y-97454819D01*
X135795238Y-97454819D02*
X135557143Y-97454819D01*
X135557143Y-97454819D02*
X135461905Y-97407200D01*
X135461905Y-97407200D02*
X135414286Y-97359580D01*
X134957142Y-90959580D02*
X134909523Y-91007200D01*
X134909523Y-91007200D02*
X134766666Y-91054819D01*
X134766666Y-91054819D02*
X134671428Y-91054819D01*
X134671428Y-91054819D02*
X134528571Y-91007200D01*
X134528571Y-91007200D02*
X134433333Y-90911961D01*
X134433333Y-90911961D02*
X134385714Y-90816723D01*
X134385714Y-90816723D02*
X134338095Y-90626247D01*
X134338095Y-90626247D02*
X134338095Y-90483390D01*
X134338095Y-90483390D02*
X134385714Y-90292914D01*
X134385714Y-90292914D02*
X134433333Y-90197676D01*
X134433333Y-90197676D02*
X134528571Y-90102438D01*
X134528571Y-90102438D02*
X134671428Y-90054819D01*
X134671428Y-90054819D02*
X134766666Y-90054819D01*
X134766666Y-90054819D02*
X134909523Y-90102438D01*
X134909523Y-90102438D02*
X134957142Y-90150057D01*
X135909523Y-91054819D02*
X135338095Y-91054819D01*
X135623809Y-91054819D02*
X135623809Y-90054819D01*
X135623809Y-90054819D02*
X135528571Y-90197676D01*
X135528571Y-90197676D02*
X135433333Y-90292914D01*
X135433333Y-90292914D02*
X135338095Y-90340533D01*
X136528571Y-90054819D02*
X136623809Y-90054819D01*
X136623809Y-90054819D02*
X136719047Y-90102438D01*
X136719047Y-90102438D02*
X136766666Y-90150057D01*
X136766666Y-90150057D02*
X136814285Y-90245295D01*
X136814285Y-90245295D02*
X136861904Y-90435771D01*
X136861904Y-90435771D02*
X136861904Y-90673866D01*
X136861904Y-90673866D02*
X136814285Y-90864342D01*
X136814285Y-90864342D02*
X136766666Y-90959580D01*
X136766666Y-90959580D02*
X136719047Y-91007200D01*
X136719047Y-91007200D02*
X136623809Y-91054819D01*
X136623809Y-91054819D02*
X136528571Y-91054819D01*
X136528571Y-91054819D02*
X136433333Y-91007200D01*
X136433333Y-91007200D02*
X136385714Y-90959580D01*
X136385714Y-90959580D02*
X136338095Y-90864342D01*
X136338095Y-90864342D02*
X136290476Y-90673866D01*
X136290476Y-90673866D02*
X136290476Y-90435771D01*
X136290476Y-90435771D02*
X136338095Y-90245295D01*
X136338095Y-90245295D02*
X136385714Y-90150057D01*
X136385714Y-90150057D02*
X136433333Y-90102438D01*
X136433333Y-90102438D02*
X136528571Y-90054819D01*
D12*
%TO.C,C2*%
X120827500Y-105148748D02*
X120827500Y-105671252D01*
X122297500Y-105148748D02*
X122297500Y-105671252D01*
%TO.C,R2*%
X140955500Y-85597276D02*
X140955500Y-86106724D01*
X142000500Y-85597276D02*
X142000500Y-86106724D01*
%TO.C,R10*%
X148561724Y-89247500D02*
X148052276Y-89247500D01*
X148561724Y-90292500D02*
X148052276Y-90292500D01*
%TO.C,R6*%
X127253276Y-105776500D02*
X127762724Y-105776500D01*
X127253276Y-106821500D02*
X127762724Y-106821500D01*
%TO.C,JP15*%
X143610500Y-98725000D02*
X143610500Y-98125000D01*
X144310500Y-97425000D02*
X145710500Y-97425000D01*
X145710500Y-99425000D02*
X144310500Y-99425000D01*
X146410500Y-98125000D02*
X146410500Y-98725000D01*
X143610500Y-98125000D02*
G75*
G02*
X144310500Y-97425000I700000J0D01*
G01*
X144310500Y-99425000D02*
G75*
G02*
X143610500Y-98725000I0J700000D01*
G01*
X145710500Y-97425000D02*
G75*
G02*
X146410500Y-98125000I1J-699999D01*
G01*
X146410500Y-98725000D02*
G75*
G02*
X145710500Y-99425000I-699999J-1D01*
G01*
%TO.C,JP14*%
X125365000Y-103951000D02*
X125365000Y-102551000D01*
X126065000Y-101851000D02*
X126665000Y-101851000D01*
X126665000Y-104651000D02*
X126065000Y-104651000D01*
X127365000Y-102551000D02*
X127365000Y-103951000D01*
X125365000Y-102551000D02*
G75*
G02*
X126065000Y-101851000I700000J0D01*
G01*
X126065000Y-104651000D02*
G75*
G02*
X125365000Y-103951000I-1J699999D01*
G01*
X126665000Y-101851000D02*
G75*
G02*
X127365000Y-102551000I0J-700000D01*
G01*
X127365000Y-103951000D02*
G75*
G02*
X126665000Y-104651000I-699999J-1D01*
G01*
%TO.C,JP3*%
X136903000Y-87803000D02*
X136903000Y-87203000D01*
X137603000Y-86503000D02*
X139003000Y-86503000D01*
X139003000Y-88503000D02*
X137603000Y-88503000D01*
X139703000Y-87203000D02*
X139703000Y-87803000D01*
X136903000Y-87203000D02*
G75*
G02*
X137603000Y-86503000I700000J0D01*
G01*
X137603000Y-88503000D02*
G75*
G02*
X136903000Y-87803000I0J700000D01*
G01*
X139003000Y-86503000D02*
G75*
G02*
X139703000Y-87203000I1J-699999D01*
G01*
X139703000Y-87803000D02*
G75*
G02*
X139003000Y-88503000I-699999J-1D01*
G01*
%TO.C,C8*%
X132546267Y-93290000D02*
X132253733Y-93290000D01*
X132546267Y-94310000D02*
X132253733Y-94310000D01*
%TO.C,C6*%
X132546267Y-98090000D02*
X132253733Y-98090000D01*
X132546267Y-99110000D02*
X132253733Y-99110000D01*
%TO.C,C9*%
X132546267Y-91690000D02*
X132253733Y-91690000D01*
X132546267Y-92710000D02*
X132253733Y-92710000D01*
%TO.C,R17*%
X138557724Y-84567500D02*
X138048276Y-84567500D01*
X138557724Y-85612500D02*
X138048276Y-85612500D01*
%TO.C,R7*%
X116604724Y-102007500D02*
X116095276Y-102007500D01*
X116604724Y-103052500D02*
X116095276Y-103052500D01*
%TO.C,R13*%
X122069776Y-101966500D02*
X122579224Y-101966500D01*
X122069776Y-103011500D02*
X122579224Y-103011500D01*
%TO.C,J1*%
X109385000Y-83790000D02*
X107285000Y-83790000D01*
X109385000Y-99010000D02*
X107285000Y-99010000D01*
X114885000Y-83790000D02*
X112085000Y-83790000D01*
X114885000Y-99010000D02*
X112085000Y-99010000D01*
X118435000Y-84700000D02*
X118435000Y-86500000D01*
X118435000Y-96300000D02*
X118435000Y-98100000D01*
X119185000Y-96300000D02*
X118435000Y-96300000D01*
%TO.C,R16*%
X148948224Y-95616500D02*
X148438776Y-95616500D01*
X148948224Y-96661500D02*
X148438776Y-96661500D01*
%TO.C,JP9*%
X111000000Y-106500000D02*
X111000000Y-105900000D01*
X111700000Y-105200000D02*
X113100000Y-105200000D01*
X113100000Y-107200000D02*
X111700000Y-107200000D01*
X113800000Y-105900000D02*
X113800000Y-106500000D01*
X111000000Y-105900000D02*
G75*
G02*
X111700000Y-105200000I700000J0D01*
G01*
X111700000Y-107200000D02*
G75*
G02*
X111000000Y-106500000I0J700000D01*
G01*
X113100000Y-105200000D02*
G75*
G02*
X113800000Y-105900000I1J-699999D01*
G01*
X113800000Y-106500000D02*
G75*
G02*
X113100000Y-107200000I-699999J-1D01*
G01*
%TO.C,JP5*%
X128032000Y-103951000D02*
X128032000Y-102551000D01*
X128732000Y-101851000D02*
X129332000Y-101851000D01*
X129332000Y-104651000D02*
X128732000Y-104651000D01*
X130032000Y-102551000D02*
X130032000Y-103951000D01*
X128032000Y-102551000D02*
G75*
G02*
X128732000Y-101851000I700000J0D01*
G01*
X128732000Y-104651000D02*
G75*
G02*
X128032000Y-103951000I-1J699999D01*
G01*
X129332000Y-101851000D02*
G75*
G02*
X130032000Y-102551000I0J-700000D01*
G01*
X130032000Y-103951000D02*
G75*
G02*
X129332000Y-104651000I-699999J-1D01*
G01*
%TO.C,U1*%
X121890000Y-89690000D02*
X122440000Y-89690000D01*
X121890000Y-90040000D02*
X121890000Y-89690000D01*
X121890000Y-93910000D02*
X121890000Y-93560000D01*
X122440000Y-93910000D02*
X121890000Y-93910000D01*
X127560000Y-89690000D02*
X128110000Y-89690000D01*
X128110000Y-89690000D02*
X128110000Y-90040000D01*
X128110000Y-93560000D02*
X128110000Y-93910000D01*
X128110000Y-93910000D02*
X127560000Y-93910000D01*
X128970000Y-93440000D02*
X128640000Y-93200000D01*
X128970000Y-92960000D01*
X128970000Y-93440000D01*
G36*
X128970000Y-93440000D02*
G01*
X128640000Y-93200000D01*
X128970000Y-92960000D01*
X128970000Y-93440000D01*
G37*
%TO.C,P11*%
X130870000Y-101755000D02*
X146330000Y-101755000D01*
X130870000Y-104405000D02*
X130870000Y-101755000D01*
X130870000Y-107055000D02*
X130870000Y-105675000D01*
X132250000Y-107055000D02*
X130870000Y-107055000D01*
X133520000Y-104405000D02*
X130870000Y-104405000D01*
X133520000Y-107055000D02*
X133520000Y-104405000D01*
X133520000Y-107055000D02*
X146330000Y-107055000D01*
X146330000Y-107055000D02*
X146330000Y-101755000D01*
%TO.C,R11*%
X142987500Y-86106724D02*
X142987500Y-85597276D01*
X144032500Y-86106724D02*
X144032500Y-85597276D01*
%TO.C,JP7*%
X125200000Y-86850000D02*
X125200000Y-85450000D01*
X125900000Y-84750000D02*
X126500000Y-84750000D01*
X126500000Y-87550000D02*
X125900000Y-87550000D01*
X127200000Y-85450000D02*
X127200000Y-86850000D01*
X125200000Y-85450000D02*
G75*
G02*
X125900000Y-84750000I699999J1D01*
G01*
X125900000Y-87550000D02*
G75*
G02*
X125200000Y-86850000I0J700000D01*
G01*
X126500000Y-84750000D02*
G75*
G02*
X127200000Y-85450000I1J-699999D01*
G01*
X127200000Y-86850000D02*
G75*
G02*
X126500000Y-87550000I-700000J0D01*
G01*
%TO.C,JP1*%
X119777000Y-86806000D02*
X119777000Y-85406000D01*
X120477000Y-84706000D02*
X121077000Y-84706000D01*
X121077000Y-87506000D02*
X120477000Y-87506000D01*
X121777000Y-85406000D02*
X121777000Y-86806000D01*
X119777000Y-85406000D02*
G75*
G02*
X120477000Y-84706000I699999J1D01*
G01*
X120477000Y-87506000D02*
G75*
G02*
X119777000Y-86806000I0J700000D01*
G01*
X121077000Y-84706000D02*
G75*
G02*
X121777000Y-85406000I1J-699999D01*
G01*
X121777000Y-86806000D02*
G75*
G02*
X121077000Y-87506000I-700000J0D01*
G01*
%TO.C,JP11*%
X143507000Y-90137000D02*
X143507000Y-89537000D01*
X144207000Y-88837000D02*
X145607000Y-88837000D01*
X145607000Y-90837000D02*
X144207000Y-90837000D01*
X146307000Y-89537000D02*
X146307000Y-90137000D01*
X143507000Y-89537000D02*
G75*
G02*
X144207000Y-88837000I700000J0D01*
G01*
X144207000Y-90837000D02*
G75*
G02*
X143507000Y-90137000I0J700000D01*
G01*
X145607000Y-88837000D02*
G75*
G02*
X146307000Y-89537000I1J-699999D01*
G01*
X146307000Y-90137000D02*
G75*
G02*
X145607000Y-90837000I-699999J-1D01*
G01*
%TO.C,JP4*%
X122571000Y-86806000D02*
X122571000Y-85406000D01*
X123271000Y-84706000D02*
X123871000Y-84706000D01*
X123871000Y-87506000D02*
X123271000Y-87506000D01*
X124571000Y-85406000D02*
X124571000Y-86806000D01*
X122571000Y-85406000D02*
G75*
G02*
X123271000Y-84706000I699999J1D01*
G01*
X123271000Y-87506000D02*
G75*
G02*
X122571000Y-86806000I0J700000D01*
G01*
X123871000Y-84706000D02*
G75*
G02*
X124571000Y-85406000I1J-699999D01*
G01*
X124571000Y-86806000D02*
G75*
G02*
X123871000Y-87506000I-700000J0D01*
G01*
%TO.C,C3*%
X123592500Y-105136733D02*
X123592500Y-105429267D01*
X124612500Y-105136733D02*
X124612500Y-105429267D01*
%TO.C,R15*%
X149075224Y-98029500D02*
X148565776Y-98029500D01*
X149075224Y-99074500D02*
X148565776Y-99074500D01*
%TO.C,JP10*%
X143507000Y-93137000D02*
X143507000Y-92537000D01*
X144207000Y-91837000D02*
X145607000Y-91837000D01*
X145607000Y-93837000D02*
X144207000Y-93837000D01*
X146307000Y-92537000D02*
X146307000Y-93137000D01*
X143507000Y-92537000D02*
G75*
G02*
X144207000Y-91837000I700000J0D01*
G01*
X144207000Y-93837000D02*
G75*
G02*
X143507000Y-93137000I0J700000D01*
G01*
X145607000Y-91837000D02*
G75*
G02*
X146307000Y-92537000I1J-699999D01*
G01*
X146307000Y-93137000D02*
G75*
G02*
X145607000Y-93837000I-699999J-1D01*
G01*
%TO.C,R3*%
X125476724Y-82789500D02*
X124967276Y-82789500D01*
X125476724Y-83834500D02*
X124967276Y-83834500D01*
%TO.C,C7*%
X132546267Y-94890000D02*
X132253733Y-94890000D01*
X132546267Y-95910000D02*
X132253733Y-95910000D01*
%TO.C,C4*%
X148080000Y-104374733D02*
X148080000Y-104667267D01*
X149100000Y-104374733D02*
X149100000Y-104667267D01*
%TO.C,C12*%
X132546267Y-88490000D02*
X132253733Y-88490000D01*
X132546267Y-89510000D02*
X132253733Y-89510000D01*
%TO.C,JP2*%
X120412000Y-99887000D02*
X120412000Y-98487000D01*
X121112000Y-97787000D02*
X121712000Y-97787000D01*
X121712000Y-100587000D02*
X121112000Y-100587000D01*
X122412000Y-98487000D02*
X122412000Y-99887000D01*
X120412000Y-98487000D02*
G75*
G02*
X121112000Y-97787000I700000J0D01*
G01*
X121112000Y-100587000D02*
G75*
G02*
X120412000Y-99887000I-1J699999D01*
G01*
X121712000Y-97787000D02*
G75*
G02*
X122412000Y-98487000I0J-700000D01*
G01*
X122412000Y-99887000D02*
G75*
G02*
X121712000Y-100587000I-699999J-1D01*
G01*
%TO.C,C11*%
X132546267Y-86890000D02*
X132253733Y-86890000D01*
X132546267Y-87910000D02*
X132253733Y-87910000D01*
%TO.C,C13*%
X132187733Y-85215000D02*
X132480267Y-85215000D01*
X132187733Y-86235000D02*
X132480267Y-86235000D01*
%TO.C,JP16*%
X143610500Y-96185000D02*
X143610500Y-95585000D01*
X144310500Y-94885000D02*
X145710500Y-94885000D01*
X145710500Y-96885000D02*
X144310500Y-96885000D01*
X146410500Y-95585000D02*
X146410500Y-96185000D01*
X143610500Y-95585000D02*
G75*
G02*
X144310500Y-94885000I700000J0D01*
G01*
X144310500Y-96885000D02*
G75*
G02*
X143610500Y-96185000I0J700000D01*
G01*
X145710500Y-94885000D02*
G75*
G02*
X146410500Y-95585000I1J-699999D01*
G01*
X146410500Y-96185000D02*
G75*
G02*
X145710500Y-96885000I-699999J-1D01*
G01*
%TO.C,R8*%
X116654724Y-105277500D02*
X116145276Y-105277500D01*
X116654724Y-106322500D02*
X116145276Y-106322500D01*
%TO.C,C1*%
X139438748Y-89562000D02*
X139961252Y-89562000D01*
X139438748Y-91032000D02*
X139961252Y-91032000D01*
%TO.C,JP8*%
X111000000Y-102900000D02*
X111000000Y-102300000D01*
X111700000Y-101600000D02*
X113100000Y-101600000D01*
X113100000Y-103600000D02*
X111700000Y-103600000D01*
X113800000Y-102300000D02*
X113800000Y-102900000D01*
X111000000Y-102300000D02*
G75*
G02*
X111700000Y-101600000I700000J0D01*
G01*
X111700000Y-103600000D02*
G75*
G02*
X111000000Y-102900000I0J700000D01*
G01*
X113100000Y-101600000D02*
G75*
G02*
X113800000Y-102300000I1J-699999D01*
G01*
X113800000Y-102900000D02*
G75*
G02*
X113100000Y-103600000I-699999J-1D01*
G01*
%TO.C,R12*%
X118984500Y-104648724D02*
X118984500Y-104139276D01*
X120029500Y-104648724D02*
X120029500Y-104139276D01*
%TO.C,J2*%
X149888500Y-88273000D02*
X149888500Y-89273000D01*
X149888500Y-89273000D02*
X150888500Y-88773000D01*
X150888500Y-88773000D02*
X149888500Y-88273000D01*
X151278500Y-83563000D02*
X160398500Y-83563000D01*
X151278500Y-93073000D02*
X152588500Y-93073000D01*
X151278500Y-106683000D02*
X151278500Y-83563000D01*
X152588500Y-84863000D02*
X159088500Y-84863000D01*
X152588500Y-93073000D02*
X152588500Y-84863000D01*
X152588500Y-97173000D02*
X151278500Y-97173000D01*
X152588500Y-105383000D02*
X152588500Y-97173000D01*
X159088500Y-84863000D02*
X159088500Y-105383000D01*
X159088500Y-105383000D02*
X152588500Y-105383000D01*
X160398500Y-83563000D02*
X160398500Y-106683000D01*
X160398500Y-106683000D02*
X151278500Y-106683000D01*
%TO.C,R9*%
X148561724Y-92295500D02*
X148052276Y-92295500D01*
X148561724Y-93340500D02*
X148052276Y-93340500D01*
%TO.C,C5*%
X132546267Y-96490000D02*
X132253733Y-96490000D01*
X132546267Y-97510000D02*
X132253733Y-97510000D01*
%TO.C,C10*%
X132546267Y-90090000D02*
X132253733Y-90090000D01*
X132546267Y-91110000D02*
X132253733Y-91110000D01*
%TD*%
%LPC*%
%TO.C,JP15*%
G36*
X145160500Y-99175000D02*
G01*
X144860500Y-99175000D01*
X144860500Y-97675000D01*
X145160500Y-97675000D01*
X145160500Y-99175000D01*
G37*
%TO.C,JP14*%
G36*
X125615000Y-103401000D02*
G01*
X127115000Y-103401000D01*
X127115000Y-103101000D01*
X125615000Y-103101000D01*
X125615000Y-103401000D01*
G37*
%TO.C,JP3*%
G36*
X138453000Y-88253000D02*
G01*
X138153000Y-88253000D01*
X138153000Y-86753000D01*
X138453000Y-86753000D01*
X138453000Y-88253000D01*
G37*
%TO.C,JP9*%
G36*
X112550000Y-106950000D02*
G01*
X112250000Y-106950000D01*
X112250000Y-105450000D01*
X112550000Y-105450000D01*
X112550000Y-106950000D01*
G37*
%TO.C,JP5*%
G36*
X128282000Y-103401000D02*
G01*
X129782000Y-103401000D01*
X129782000Y-103101000D01*
X128282000Y-103101000D01*
X128282000Y-103401000D01*
G37*
%TO.C,JP7*%
G36*
X126950000Y-86000000D02*
G01*
X125450000Y-86000000D01*
X125450000Y-86300000D01*
X126950000Y-86300000D01*
X126950000Y-86000000D01*
G37*
%TO.C,JP1*%
G36*
X121527000Y-85956000D02*
G01*
X120027000Y-85956000D01*
X120027000Y-86256000D01*
X121527000Y-86256000D01*
X121527000Y-85956000D01*
G37*
%TO.C,JP11*%
G36*
X145057000Y-90587000D02*
G01*
X144757000Y-90587000D01*
X144757000Y-89087000D01*
X145057000Y-89087000D01*
X145057000Y-90587000D01*
G37*
%TO.C,JP4*%
G36*
X124321000Y-85956000D02*
G01*
X122821000Y-85956000D01*
X122821000Y-86256000D01*
X124321000Y-86256000D01*
X124321000Y-85956000D01*
G37*
%TO.C,JP10*%
G36*
X145057000Y-93587000D02*
G01*
X144757000Y-93587000D01*
X144757000Y-92087000D01*
X145057000Y-92087000D01*
X145057000Y-93587000D01*
G37*
%TO.C,JP2*%
G36*
X120662000Y-99337000D02*
G01*
X122162000Y-99337000D01*
X122162000Y-99037000D01*
X120662000Y-99037000D01*
X120662000Y-99337000D01*
G37*
%TO.C,JP16*%
G36*
X145160500Y-96635000D02*
G01*
X144860500Y-96635000D01*
X144860500Y-95135000D01*
X145160500Y-95135000D01*
X145160500Y-96635000D01*
G37*
%TO.C,JP8*%
G36*
X112550000Y-103350000D02*
G01*
X112250000Y-103350000D01*
X112250000Y-101850000D01*
X112550000Y-101850000D01*
X112550000Y-103350000D01*
G37*
%TD*%
D13*
%TO.C,C2*%
X121562500Y-104372500D03*
X121562500Y-106447500D03*
%TD*%
D14*
%TO.C,R2*%
X141478000Y-84939500D03*
X141478000Y-86764500D03*
%TD*%
D15*
%TO.C,R10*%
X149219500Y-89770000D03*
X147394500Y-89770000D03*
%TD*%
D16*
%TO.C,R6*%
X126595500Y-106299000D03*
X128420500Y-106299000D03*
%TD*%
D17*
%TO.C,JP15*%
X145660500Y-98425000D03*
D18*
X144360500Y-98425000D03*
%TD*%
D19*
%TO.C,JP14*%
X126365000Y-103901000D03*
D20*
X126365000Y-102601000D03*
%TD*%
D17*
%TO.C,JP3*%
X138953000Y-87503000D03*
D18*
X137653000Y-87503000D03*
%TD*%
D21*
%TO.C,C8*%
X133262500Y-93800000D03*
X131537500Y-93800000D03*
%TD*%
%TO.C,C6*%
X133262500Y-98600000D03*
X131537500Y-98600000D03*
%TD*%
%TO.C,C9*%
X133262500Y-92200000D03*
X131537500Y-92200000D03*
%TD*%
D15*
%TO.C,R17*%
X139215500Y-85090000D03*
X137390500Y-85090000D03*
%TD*%
%TO.C,R7*%
X117262500Y-102530000D03*
X115437500Y-102530000D03*
%TD*%
D16*
%TO.C,R13*%
X121412000Y-102489000D03*
X123237000Y-102489000D03*
%TD*%
D22*
%TO.C,J1*%
X117485000Y-95900000D03*
X117485000Y-95400000D03*
X117485000Y-94900000D03*
X117485000Y-94400000D03*
X117485000Y-93900000D03*
X117485000Y-93400000D03*
X117485000Y-92900000D03*
X117485000Y-92400000D03*
X117485000Y-91900000D03*
X117485000Y-91400000D03*
X117485000Y-90900000D03*
X117485000Y-90400000D03*
X117485000Y-89900000D03*
X117485000Y-89400000D03*
X117485000Y-88900000D03*
X117485000Y-88400000D03*
X117485000Y-87900000D03*
X117485000Y-87400000D03*
X117485000Y-86900000D03*
D23*
X116725000Y-98650000D03*
X116725000Y-84150000D03*
D24*
X110765000Y-98650000D03*
X110765000Y-84150000D03*
%TD*%
D15*
%TO.C,R16*%
X149606000Y-96139000D03*
X147781000Y-96139000D03*
%TD*%
D17*
%TO.C,JP9*%
X113050000Y-106200000D03*
D18*
X111750000Y-106200000D03*
%TD*%
D19*
%TO.C,JP5*%
X129032000Y-103901000D03*
D20*
X129032000Y-102601000D03*
%TD*%
D25*
%TO.C,U1*%
X127962500Y-93200000D03*
X127962500Y-92800000D03*
X127962500Y-92400000D03*
X127962500Y-92000000D03*
X127962500Y-91600000D03*
X127962500Y-91200000D03*
X127962500Y-90800000D03*
X127962500Y-90400000D03*
D26*
X127200000Y-89837500D03*
X126800000Y-89837500D03*
X126400000Y-89837500D03*
X126000000Y-89837500D03*
X125600000Y-89837500D03*
X125200000Y-89837500D03*
X124800000Y-89837500D03*
X124400000Y-89837500D03*
X124000000Y-89837500D03*
X123600000Y-89837500D03*
X123200000Y-89837500D03*
X122800000Y-89837500D03*
D25*
X122037500Y-90400000D03*
X122037500Y-90800000D03*
X122037500Y-91200000D03*
X122037500Y-91600000D03*
X122037500Y-92000000D03*
X122037500Y-92400000D03*
X122037500Y-92800000D03*
X122037500Y-93200000D03*
D26*
X122800000Y-93762500D03*
X123200000Y-93762500D03*
X123600000Y-93762500D03*
X124000000Y-93762500D03*
X124400000Y-93762500D03*
X124800000Y-93762500D03*
X125200000Y-93762500D03*
X125600000Y-93762500D03*
X126000000Y-93762500D03*
X126400000Y-93762500D03*
X126800000Y-93762500D03*
X127200000Y-93762500D03*
D27*
X125000000Y-91800000D03*
%TD*%
D28*
%TO.C,P11*%
X132250000Y-105675000D03*
D29*
X132250000Y-103135000D03*
X134790000Y-105675000D03*
X134790000Y-103135000D03*
X137330000Y-105675000D03*
X137330000Y-103135000D03*
X139870000Y-105675000D03*
X139870000Y-103135000D03*
X142410000Y-105675000D03*
X142410000Y-103135000D03*
X144950000Y-105675000D03*
X144950000Y-103135000D03*
%TD*%
D30*
%TO.C,R11*%
X143510000Y-86764500D03*
X143510000Y-84939500D03*
%TD*%
D31*
%TO.C,JP7*%
X126200000Y-85500000D03*
D32*
X126200000Y-86800000D03*
%TD*%
D31*
%TO.C,JP1*%
X120777000Y-85456000D03*
D32*
X120777000Y-86756000D03*
%TD*%
D17*
%TO.C,JP11*%
X145557000Y-89837000D03*
D18*
X144257000Y-89837000D03*
%TD*%
D31*
%TO.C,JP4*%
X123571000Y-85456000D03*
D32*
X123571000Y-86756000D03*
%TD*%
D33*
%TO.C,C3*%
X124102500Y-104420500D03*
X124102500Y-106145500D03*
%TD*%
D15*
%TO.C,R15*%
X149733000Y-98552000D03*
X147908000Y-98552000D03*
%TD*%
D17*
%TO.C,JP10*%
X145557000Y-92837000D03*
D18*
X144257000Y-92837000D03*
%TD*%
D15*
%TO.C,R3*%
X126134500Y-83312000D03*
X124309500Y-83312000D03*
%TD*%
D21*
%TO.C,C7*%
X133262500Y-95400000D03*
X131537500Y-95400000D03*
%TD*%
D33*
%TO.C,C4*%
X148590000Y-103658500D03*
X148590000Y-105383500D03*
%TD*%
D21*
%TO.C,C12*%
X133262500Y-89000000D03*
X131537500Y-89000000D03*
%TD*%
D19*
%TO.C,JP2*%
X121412000Y-99837000D03*
D20*
X121412000Y-98537000D03*
%TD*%
D21*
%TO.C,C11*%
X133262500Y-87400000D03*
X131537500Y-87400000D03*
%TD*%
D34*
%TO.C,C13*%
X131471500Y-85725000D03*
X133196500Y-85725000D03*
%TD*%
D17*
%TO.C,JP16*%
X145660500Y-95885000D03*
D18*
X144360500Y-95885000D03*
%TD*%
D15*
%TO.C,R8*%
X117312500Y-105800000D03*
X115487500Y-105800000D03*
%TD*%
D35*
%TO.C,C1*%
X138662500Y-90297000D03*
X140737500Y-90297000D03*
%TD*%
D17*
%TO.C,JP8*%
X113050000Y-102600000D03*
D18*
X111750000Y-102600000D03*
%TD*%
D30*
%TO.C,R12*%
X119507000Y-105306500D03*
X119507000Y-103481500D03*
%TD*%
D36*
%TO.C,J2*%
X154568500Y-88773000D03*
D29*
X157108500Y-88773000D03*
X154568500Y-91313000D03*
X157108500Y-91313000D03*
X154568500Y-93853000D03*
X157108500Y-93853000D03*
X154568500Y-96393000D03*
X157108500Y-96393000D03*
X154568500Y-98933000D03*
X157108500Y-98933000D03*
X154568500Y-101473000D03*
X157108500Y-101473000D03*
%TD*%
D15*
%TO.C,R9*%
X149219500Y-92818000D03*
X147394500Y-92818000D03*
%TD*%
D21*
%TO.C,C5*%
X133262500Y-97000000D03*
X131537500Y-97000000D03*
%TD*%
%TO.C,C10*%
X133262500Y-90600000D03*
X131537500Y-90600000D03*
%TD*%
%LPD*%
M02*
