%TF.GenerationSoftware,KiCad,Pcbnew,10.0.5-10.0.5~ubuntu26.04.1*%
%TF.CreationDate,2026-08-18T23:01:47+02:00*%
%TF.ProjectId,HDMItest,48444d49-7465-4737-942e-6b696361645f,rev?*%
%TF.SameCoordinates,Original*%
%TF.FileFunction,Copper,L2,Bot*%
%TF.FilePolarity,Positive*%
%FSLAX46Y46*%
G04 Gerber Fmt 4.6, Leading zero omitted, Abs format (unit mm)*
G04 Created by KiCad (PCBNEW 10.0.5-10.0.5~ubuntu26.04.1) date 2026-08-18 23:01:47*
%MOMM*%
%LPD*%
G01*
G04 APERTURE LIST*
G04 Aperture macros list*
%AMRoundRect*
0 Rectangle with rounded corners*
0 $1 Rounding radius*
0 $2 $3 $4 $5 $6 $7 $8 $9 X,Y pos of 4 corners*
0 Add a 4 corners polygon primitive as box body*
4,1,4,$2,$3,$4,$5,$6,$7,$8,$9,$2,$3,0*
0 Add four circle primitives for the rounded corners*
1,1,$1+$1,$2,$3*
1,1,$1+$1,$4,$5*
1,1,$1+$1,$6,$7*
1,1,$1+$1,$8,$9*
0 Add four rect primitives between the rounded corners*
20,1,$1+$1,$2,$3,$4,$5,0*
20,1,$1+$1,$4,$5,$6,$7,0*
20,1,$1+$1,$6,$7,$8,$9,0*
20,1,$1+$1,$8,$9,$2,$3,0*%
G04 Aperture macros list end*
%TA.AperFunction,HeatsinkPad*%
%ADD10C,0.500000*%
%TD*%
%TA.AperFunction,HeatsinkPad*%
%ADD11R,3.800000X3.800000*%
%TD*%
%TA.AperFunction,ComponentPad*%
%ADD12O,3.300000X1.500000*%
%TD*%
%TA.AperFunction,ComponentPad*%
%ADD13O,2.700000X1.500000*%
%TD*%
%TA.AperFunction,ComponentPad*%
%ADD14R,1.700000X1.700000*%
%TD*%
%TA.AperFunction,ComponentPad*%
%ADD15C,1.700000*%
%TD*%
%TA.AperFunction,ComponentPad*%
%ADD16RoundRect,0.250000X-0.600000X-0.600000X0.600000X-0.600000X0.600000X0.600000X-0.600000X0.600000X0*%
%TD*%
%TA.AperFunction,ViaPad*%
%ADD17C,0.450000*%
%TD*%
%TA.AperFunction,ViaPad*%
%ADD18C,0.600000*%
%TD*%
%TA.AperFunction,Conductor*%
%ADD19C,0.500000*%
%TD*%
%TA.AperFunction,Conductor*%
%ADD20C,0.200000*%
%TD*%
G04 APERTURE END LIST*
D10*
%TO.P,U1,41,GND_41*%
%TO.N,GND*%
X126650000Y-93450000D03*
X126650000Y-92350000D03*
X126650000Y-91250000D03*
X126650000Y-90150000D03*
X125550000Y-93450000D03*
X125550000Y-92350000D03*
X125550000Y-91250000D03*
X125550000Y-90150000D03*
D11*
X125000000Y-91800000D03*
D10*
X124450000Y-93450000D03*
X124450000Y-92350000D03*
X124450000Y-91250000D03*
X124450000Y-90150000D03*
X123350000Y-93450000D03*
X123350000Y-92350000D03*
X123350000Y-91250000D03*
X123350000Y-90150000D03*
%TD*%
D12*
%TO.P,J1,SH,SH_SH*%
%TO.N,GND*%
X116725000Y-98650000D03*
X116725000Y-84150000D03*
D13*
X110765000Y-98650000D03*
X110765000Y-84150000D03*
%TD*%
D14*
%TO.P,P11,1,VCC_1*%
%TO.N,Net-(JP1-A)*%
X132250000Y-105675000D03*
D15*
%TO.P,P11,2,GND_2*%
%TO.N,GND*%
X132250000Y-103135000D03*
%TO.P,P11,3,R_3*%
%TO.N,Net-(P11-R)*%
X134790000Y-105675000D03*
%TO.P,P11,4,RI_4*%
%TO.N,Net-(P11-RI)*%
X134790000Y-103135000D03*
%TO.P,P11,5,G_5*%
%TO.N,Net-(P11-G)*%
X137330000Y-105675000D03*
%TO.P,P11,6,GI_6*%
%TO.N,Net-(P11-GI)*%
X137330000Y-103135000D03*
%TO.P,P11,7,B_7*%
%TO.N,Net-(P11-B)*%
X139870000Y-105675000D03*
%TO.P,P11,8,BI_8*%
%TO.N,Net-(P11-BI)*%
X139870000Y-103135000D03*
%TO.P,P11,9,VSYNC_9*%
%TO.N,Net-(P11-VSYNC)*%
X142410000Y-105675000D03*
%TO.P,P11,10,HSYNC_10*%
%TO.N,Net-(P11-HSYNC)*%
X142410000Y-103135000D03*
%TO.P,P11,11,GND_11*%
%TO.N,GND*%
X144950000Y-105675000D03*
%TO.P,P11,12,V33_12*%
%TO.N,Net-(JP10-B)*%
X144950000Y-103135000D03*
%TD*%
D16*
%TO.P,J2,1,Pin_1_1*%
%TO.N,Net-(J2-Pin_1)*%
X154568500Y-88773000D03*
D15*
%TO.P,J2,2,Pin_2_2*%
%TO.N,unconnected-(J2-Pin_2-Pad2)*%
X157108500Y-88773000D03*
%TO.P,J2,3,Pin_3_3*%
%TO.N,Net-(J1-UTILITY)*%
X154568500Y-91313000D03*
%TO.P,J2,4,Pin_4_4*%
%TO.N,unconnected-(J2-Pin_4-Pad4)*%
X157108500Y-91313000D03*
%TO.P,J2,5,Pin_5_5*%
%TO.N,Net-(J2-Pin_5)*%
X154568500Y-93853000D03*
%TO.P,J2,6,Pin_6_6*%
%TO.N,unconnected-(J2-Pin_6-Pad6)*%
X157108500Y-93853000D03*
%TO.P,J2,7,Pin_7_7*%
%TO.N,Net-(J2-Pin_7)*%
X154568500Y-96393000D03*
%TO.P,J2,8,Pin_8_8*%
%TO.N,unconnected-(J2-Pin_8-Pad8)*%
X157108500Y-96393000D03*
%TO.P,J2,9,Pin_9_9*%
%TO.N,Net-(J1-CEC)*%
X154568500Y-98933000D03*
%TO.P,J2,10,Pin_10_10*%
%TO.N,unconnected-(J2-Pin_10-Pad10)*%
X157108500Y-98933000D03*
%TO.P,J2,11,Pin_11_11*%
%TO.N,GND*%
X154568500Y-101473000D03*
%TO.P,J2,12,Pin_12_12*%
%TO.N,unconnected-(J2-Pin_12-Pad12)*%
X157108500Y-101473000D03*
%TD*%
D17*
%TO.N,GND*%
X128000000Y-99800000D03*
%TO.N,Net-(JP10-B)*%
X121412380Y-92975000D03*
X122800000Y-88600000D03*
%TO.N,Net-(J2-Pin_1)*%
X124718191Y-88017759D03*
%TO.N,Net-(J2-Pin_5)*%
X124037046Y-87886827D03*
%TO.N,Net-(J2-Pin_7)*%
X123305675Y-88025000D03*
%TO.N,Net-(U1-VSADJ)*%
X125385229Y-87726828D03*
D18*
%TO.N,Net-(JP10-B)*%
X127114649Y-88435552D03*
X129119676Y-90200000D03*
X129540380Y-93459620D03*
%TO.N,Net-(JP15-B)*%
X127049836Y-95138449D03*
%TO.N,Net-(JP5-B)*%
X126399836Y-95865870D03*
D17*
%TO.N,Net-(J1-SDA)*%
X119888000Y-97028000D03*
X124225000Y-96901000D03*
X114611130Y-88125638D03*
%TO.N,GND*%
X115600000Y-92400000D03*
X138938000Y-86233000D03*
X129540000Y-85852000D03*
X115558201Y-87975000D03*
X112903000Y-107569000D03*
X115600000Y-95400000D03*
X115600000Y-93800000D03*
X149860000Y-105410000D03*
X115600000Y-90800000D03*
X141859000Y-90297000D03*
X134022000Y-85725000D03*
%TO.N,Net-(J1-+5V)*%
X113746087Y-100613913D03*
X113471000Y-87548448D03*
%TO.N,Net-(J1-CEC)*%
X112979508Y-90089119D03*
X154011592Y-108318410D03*
%TO.N,Net-(J1-HPD)*%
X124982769Y-97293285D03*
X114554000Y-86995000D03*
%TO.N,Net-(J1-UTILITY)*%
X154812565Y-108767338D03*
X112589000Y-89535000D03*
%TO.N,Net-(J1-SCL)*%
X123825000Y-96362298D03*
X119380000Y-96520000D03*
X114581179Y-88825000D03*
%TO.N,Net-(JP1-A)*%
X118618000Y-85852000D03*
X129152263Y-108801648D03*
%TO.N,Net-(J2-Pin_7)*%
X149155417Y-82708659D03*
%TO.N,Net-(J2-Pin_5)*%
X149568086Y-83274086D03*
%TO.N,Net-(J2-Pin_1)*%
X153924000Y-83947000D03*
X142494000Y-87757000D03*
%TO.N,Net-(JP3-B)*%
X136271000Y-87503000D03*
X126082036Y-87793636D03*
%TO.N,Net-(JP10-B)*%
X129032000Y-95758000D03*
X120052837Y-91052837D03*
X123400000Y-95698361D03*
X128409458Y-84900000D03*
X122936000Y-104902000D03*
%TO.N,Net-(JP5-B)*%
X128282413Y-102095587D03*
%TO.N,Net-(JP14-B)*%
X125476000Y-101346000D03*
X125476000Y-97790000D03*
%TO.N,Net-(U1-VSADJ)*%
X136335953Y-84776000D03*
%TO.N,Net-(JP15-B)*%
X144907000Y-100076000D03*
%TD*%
%TO.N,Net-(JP10-B)*%
D19*
X121412380Y-92975000D02*
X121171640Y-93215740D01*
X121171640Y-93215740D02*
X121171640Y-93971640D01*
X121875000Y-94675000D02*
X122376639Y-94675000D01*
X122376639Y-94675000D02*
X123400000Y-95698361D01*
X121171640Y-93971640D02*
X121875000Y-94675000D01*
%TO.N,Net-(JP15-B)*%
D20*
X131209000Y-106934000D02*
X142875000Y-106934000D01*
X129540000Y-105265000D02*
X131209000Y-106934000D01*
X129540000Y-102540000D02*
X129540000Y-105265000D01*
X127049836Y-100049836D02*
X129540000Y-102540000D01*
X127049836Y-95138449D02*
X127049836Y-100049836D01*
X142875000Y-106934000D02*
X143764000Y-106045000D01*
X143764000Y-101219000D02*
X144907000Y-100076000D01*
%TO.N,Net-(JP5-B)*%
X128282413Y-102095587D02*
X128282413Y-101866413D01*
X126399836Y-99983836D02*
X126399836Y-95865870D01*
X128282413Y-101866413D02*
X126399836Y-99983836D01*
%TO.N,Net-(JP15-B)*%
X143764000Y-106045000D02*
X143764000Y-101219000D01*
%TO.N,Net-(JP10-B)*%
D19*
X120052837Y-91052837D02*
X121412380Y-92412380D01*
X121412380Y-92412380D02*
X121412380Y-92470014D01*
X121412380Y-92470014D02*
X121412380Y-92975000D01*
X127265488Y-88773000D02*
X122973000Y-88773000D01*
X122973000Y-88773000D02*
X122800000Y-88600000D01*
%TO.N,Net-(J2-Pin_1)*%
D20*
X124718191Y-87592775D02*
X124718191Y-88017759D01*
%TO.N,Net-(U1-VSADJ)*%
X135058686Y-83820000D02*
X134861686Y-83623000D01*
%TO.N,Net-(J2-Pin_5)*%
X124699063Y-87046218D02*
X124037046Y-87708235D01*
%TO.N,Net-(JP3-B)*%
X134696000Y-84023000D02*
X128448000Y-84023000D01*
%TO.N,Net-(J2-Pin_1)*%
X135027372Y-83223000D02*
X127989630Y-83223000D01*
%TO.N,Net-(J2-Pin_5)*%
X149568086Y-83274086D02*
X148881913Y-83274086D01*
%TO.N,Net-(J2-Pin_7)*%
X149155417Y-82708659D02*
X148848758Y-82402000D01*
%TO.N,Net-(J2-Pin_1)*%
X142367000Y-83312000D02*
X135116371Y-83312000D01*
%TO.N,Net-(J2-Pin_7)*%
X148848758Y-82402000D02*
X135337743Y-82402000D01*
X135316743Y-82423000D02*
X127658257Y-82423000D01*
%TO.N,Net-(J2-Pin_5)*%
X135248126Y-82878065D02*
X135193061Y-82823000D01*
%TO.N,Net-(J2-Pin_7)*%
X123305675Y-87824790D02*
X123305675Y-88025000D01*
%TO.N,Net-(J2-Pin_1)*%
X127989630Y-83223000D02*
X125099063Y-86113566D01*
%TO.N,Net-(J2-Pin_7)*%
X127658257Y-82423000D02*
X124299063Y-85782195D01*
%TO.N,Net-(JP3-B)*%
X126111000Y-86360000D02*
X126111000Y-87764672D01*
%TO.N,Net-(J2-Pin_5)*%
X148881913Y-83274086D02*
X148485892Y-82878065D01*
X148485892Y-82878065D02*
X135248126Y-82878065D01*
%TO.N,Net-(U1-VSADJ)*%
X128155315Y-83623000D02*
X125603000Y-86175315D01*
X125603000Y-87509057D02*
X125385229Y-87726828D01*
%TO.N,Net-(JP3-B)*%
X136271000Y-87503000D02*
X136271000Y-85598000D01*
X128448000Y-84023000D02*
X126111000Y-86360000D01*
%TO.N,Net-(U1-VSADJ)*%
X134861686Y-83623000D02*
X128155315Y-83623000D01*
%TO.N,Net-(J2-Pin_5)*%
X135193061Y-82823000D02*
X127823945Y-82823000D01*
%TO.N,Net-(JP3-B)*%
X136271000Y-85598000D02*
X134696000Y-84023000D01*
%TO.N,Net-(J2-Pin_1)*%
X125099063Y-87211903D02*
X124718191Y-87592775D01*
%TO.N,Net-(U1-VSADJ)*%
X125603000Y-86175315D02*
X125603000Y-87509057D01*
%TO.N,Net-(J2-Pin_5)*%
X127823945Y-82823000D02*
X124699063Y-85947880D01*
X124699063Y-85947880D02*
X124699063Y-87046218D01*
%TO.N,Net-(U1-VSADJ)*%
X135636000Y-83820000D02*
X135058686Y-83820000D01*
X136335953Y-84519953D02*
X135636000Y-83820000D01*
X136335953Y-84776000D02*
X136335953Y-84519953D01*
%TO.N,Net-(J2-Pin_1)*%
X135116371Y-83312000D02*
X135027372Y-83223000D01*
%TO.N,Net-(JP3-B)*%
X126111000Y-87764672D02*
X126082036Y-87793636D01*
%TO.N,Net-(J2-Pin_5)*%
X124037046Y-87708235D02*
X124037046Y-87886827D01*
%TO.N,Net-(J2-Pin_7)*%
X135337743Y-82402000D02*
X135316743Y-82423000D01*
X124299063Y-86831402D02*
X123305675Y-87824790D01*
%TO.N,Net-(J2-Pin_1)*%
X125099063Y-86113566D02*
X125099063Y-87211903D01*
%TO.N,Net-(J2-Pin_7)*%
X124299063Y-85782195D02*
X124299063Y-86831402D01*
%TO.N,Net-(JP10-B)*%
D19*
X128651000Y-88773000D02*
X127400000Y-88773000D01*
D20*
X127400000Y-88773000D02*
X127265488Y-88773000D01*
D19*
X128651000Y-89731324D02*
X129119676Y-90200000D01*
D20*
X129480760Y-93400000D02*
X129540380Y-93459620D01*
X129032000Y-93400000D02*
X129480760Y-93400000D01*
D19*
X129032000Y-95758000D02*
X129032000Y-93400000D01*
%TO.N,Net-(J1-SDA)*%
D20*
X124225000Y-97009000D02*
X124225000Y-96901000D01*
X124206000Y-97028000D02*
X124225000Y-97009000D01*
X119888000Y-97028000D02*
X124206000Y-97028000D01*
%TO.N,Net-(J1-SCL)*%
X123667298Y-96520000D02*
X123825000Y-96362298D01*
X119380000Y-96520000D02*
X119447000Y-96453000D01*
X119447000Y-96453000D02*
X120126173Y-96453000D01*
X120193173Y-96520000D02*
X123667298Y-96520000D01*
X120126173Y-96453000D02*
X120193173Y-96520000D01*
%TO.N,Net-(J1-SDA)*%
X119074827Y-97028000D02*
X114808000Y-97028000D01*
X114006179Y-89191283D02*
X114006179Y-88586827D01*
X119888000Y-97028000D02*
X119685173Y-97028000D01*
X114467368Y-88125638D02*
X114611130Y-88125638D01*
X114006179Y-88586827D02*
X114467368Y-88125638D01*
X119141827Y-97095000D02*
X119074827Y-97028000D01*
X114554000Y-96774000D02*
X114487000Y-96774000D01*
X114808000Y-97028000D02*
X114554000Y-96774000D01*
X114487000Y-89672104D02*
X114006179Y-89191283D01*
X119618173Y-97095000D02*
X119141827Y-97095000D01*
X114487000Y-96774000D02*
X114487000Y-89672104D01*
X119685173Y-97028000D02*
X119618173Y-97095000D01*
%TO.N,GND*%
D19*
X115600000Y-95400000D02*
X115600000Y-93800000D01*
D20*
X115600000Y-88016799D02*
X115558201Y-87975000D01*
D19*
X115600000Y-92400000D02*
X115600000Y-93800000D01*
X115600000Y-90800000D02*
X115600000Y-88016799D01*
X115600000Y-90800000D02*
X115600000Y-92400000D01*
%TO.N,Net-(J1-+5V)*%
D20*
X113206179Y-87813269D02*
X113471000Y-87548448D01*
X113746087Y-100613913D02*
X113746087Y-97849106D01*
X113746087Y-97849106D02*
X113538000Y-97641019D01*
X113538000Y-89867365D02*
X113206179Y-89535543D01*
X113206179Y-89535543D02*
X113206179Y-87813269D01*
X113538000Y-97641019D02*
X113538000Y-89867365D01*
%TO.N,Net-(J1-CEC)*%
X143626634Y-107738000D02*
X153431182Y-107738000D01*
X112903000Y-90165627D02*
X112903000Y-97571705D01*
X112903000Y-97571705D02*
X113215000Y-97883705D01*
X130457365Y-107738000D02*
X130753365Y-108034000D01*
X130753365Y-108034000D02*
X143330634Y-108034000D01*
X113215000Y-97883705D02*
X113215000Y-104971628D01*
X143330634Y-108034000D02*
X143626634Y-107738000D01*
X113215000Y-104971628D02*
X115981372Y-107738000D01*
X115981372Y-107738000D02*
X130457365Y-107738000D01*
X153431182Y-107738000D02*
X154011592Y-108318410D01*
X112979508Y-90089119D02*
X112903000Y-90165627D01*
%TO.N,Net-(J1-HPD)*%
X114036130Y-87991190D02*
X113606179Y-88421142D01*
X114491000Y-97600000D02*
X124676054Y-97600000D01*
X114046000Y-89809679D02*
X114046000Y-97155000D01*
X113606179Y-89369858D02*
X114046000Y-89809679D01*
X114046000Y-97155000D02*
X114491000Y-97600000D01*
X114554000Y-86995000D02*
X114036130Y-87512870D01*
X113606179Y-88421142D02*
X113606179Y-89369858D01*
X114036130Y-87512870D02*
X114036130Y-87991190D01*
X124676054Y-97600000D02*
X124982769Y-97293285D01*
%TO.N,Net-(J1-UTILITY)*%
X154812565Y-108767338D02*
X154687396Y-108892507D01*
X129273497Y-108138000D02*
X115815687Y-108138000D01*
X130028004Y-108892507D02*
X129273497Y-108138000D01*
X112815000Y-105137313D02*
X112815000Y-98049391D01*
X154687396Y-108892507D02*
X130028004Y-108892507D01*
X112815000Y-98049391D02*
X112415000Y-97649390D01*
X112415000Y-97649390D02*
X112415000Y-89709000D01*
X115815687Y-108138000D02*
X112815000Y-105137313D01*
X112415000Y-89709000D02*
X112589000Y-89535000D01*
%TO.N,Net-(J1-SCL)*%
X114935000Y-96081314D02*
X114935000Y-89178821D01*
X119380000Y-96520000D02*
X115373686Y-96520000D01*
X114935000Y-89178821D02*
X114581179Y-88825000D01*
X115373686Y-96520000D02*
X114935000Y-96081314D01*
%TO.N,Net-(JP1-A)*%
X112014000Y-97814076D02*
X112415000Y-98215076D01*
X114424985Y-85852000D02*
X112014000Y-88262985D01*
X112014000Y-88262985D02*
X112014000Y-97814076D01*
X112415000Y-98215076D02*
X112415000Y-105303000D01*
X118618000Y-85852000D02*
X114424985Y-85852000D01*
X112415000Y-105303000D02*
X115913648Y-108801648D01*
X115913648Y-108801648D02*
X129152263Y-108801648D01*
%TO.N,Net-(J2-Pin_1)*%
X149876345Y-83779000D02*
X153756000Y-83779000D01*
X142834000Y-83779000D02*
X149259827Y-83779000D01*
X142367000Y-83312000D02*
X142834000Y-83779000D01*
X149329913Y-83849086D02*
X149806259Y-83849086D01*
X142494000Y-87757000D02*
X142367000Y-87630000D01*
X153756000Y-83779000D02*
X153924000Y-83947000D01*
X142367000Y-87630000D02*
X142367000Y-83312000D01*
X149259827Y-83779000D02*
X149329913Y-83849086D01*
X149806259Y-83849086D02*
X149876345Y-83779000D01*
%TO.N,Net-(JP10-B)*%
D19*
X146939000Y-107188000D02*
X143398818Y-107188000D01*
D20*
X128409458Y-85012832D02*
X128409458Y-84900000D01*
D19*
X146939000Y-104902000D02*
X146939000Y-107188000D01*
X143398818Y-107188000D02*
X143102817Y-107484000D01*
X130685182Y-107188000D02*
X125222000Y-107188000D01*
X129032000Y-93400000D02*
X129032000Y-92702000D01*
X128651000Y-88773000D02*
X128397000Y-88519000D01*
X144950000Y-103135000D02*
X145172000Y-103135000D01*
X128651000Y-88773000D02*
X128651000Y-89731324D01*
X143102817Y-107484000D02*
X130981182Y-107484000D01*
X130981182Y-107484000D02*
X130685182Y-107188000D01*
X128397000Y-88519000D02*
X128397000Y-85025290D01*
D20*
X128397000Y-85025290D02*
X128409458Y-85012832D01*
D19*
X129144674Y-90224998D02*
X129144674Y-92459816D01*
D20*
X129032000Y-92702000D02*
X129209429Y-92524571D01*
D19*
X125222000Y-107188000D02*
X122936000Y-104902000D01*
X145172000Y-103135000D02*
X146939000Y-104902000D01*
X129119676Y-90200000D02*
X129144674Y-90224998D01*
%TO.N,Net-(JP14-B)*%
D20*
X125476000Y-97790000D02*
X125476000Y-101346000D01*
%TD*%
%TA.AperFunction,Conductor*%
%TO.N,GND*%
G36*
X155909944Y-99586999D02*
G01*
X155948986Y-99632056D01*
X155953451Y-99640820D01*
X156078390Y-99812786D01*
X156228713Y-99963109D01*
X156400682Y-100088050D01*
X156409446Y-100092516D01*
X156460242Y-100140491D01*
X156477036Y-100208312D01*
X156454498Y-100274447D01*
X156409446Y-100313484D01*
X156400682Y-100317949D01*
X156228713Y-100442890D01*
X156078390Y-100593213D01*
X155953449Y-100765182D01*
X155948702Y-100774499D01*
X155900727Y-100825293D01*
X155832905Y-100842087D01*
X155766771Y-100819548D01*
X155727734Y-100774495D01*
X155723126Y-100765452D01*
X155683770Y-100711282D01*
X155683769Y-100711282D01*
X155051462Y-101343590D01*
X155034425Y-101280007D01*
X154968599Y-101165993D01*
X154875507Y-101072901D01*
X154761493Y-101007075D01*
X154697909Y-100990037D01*
X155330216Y-100357728D01*
X155276047Y-100318373D01*
X155276047Y-100318372D01*
X155267000Y-100313763D01*
X155216206Y-100265788D01*
X155199412Y-100197966D01*
X155221951Y-100131832D01*
X155267008Y-100092793D01*
X155276316Y-100088051D01*
X155412827Y-99988871D01*
X155448286Y-99963109D01*
X155448288Y-99963106D01*
X155448292Y-99963104D01*
X155598604Y-99812792D01*
X155598606Y-99812788D01*
X155598609Y-99812786D01*
X155723548Y-99640820D01*
X155723547Y-99640820D01*
X155723551Y-99640816D01*
X155728014Y-99632054D01*
X155775988Y-99581259D01*
X155843808Y-99564463D01*
X155909944Y-99586999D01*
G37*
%TD.AperFunction*%
%TA.AperFunction,Conductor*%
G36*
X159974638Y-81419905D02*
G01*
X160020596Y-81472532D01*
X160032000Y-81524477D01*
X160032000Y-108476475D01*
X160012315Y-108543514D01*
X159959511Y-108589269D01*
X159908477Y-108600474D01*
X155618883Y-108616962D01*
X155551768Y-108597535D01*
X155505810Y-108544908D01*
X155503845Y-108540415D01*
X155455497Y-108423691D01*
X155455490Y-108423678D01*
X155376097Y-108304859D01*
X155376094Y-108304855D01*
X155275047Y-108203808D01*
X155275043Y-108203805D01*
X155156224Y-108124412D01*
X155156215Y-108124407D01*
X155024185Y-108069719D01*
X155024179Y-108069717D01*
X154884022Y-108041838D01*
X154884020Y-108041838D01*
X154764700Y-108041838D01*
X154697661Y-108022153D01*
X154658334Y-107979535D01*
X154657906Y-107979822D01*
X154656086Y-107977098D01*
X154655343Y-107976293D01*
X154654523Y-107974759D01*
X154575124Y-107855931D01*
X154575121Y-107855927D01*
X154474074Y-107754880D01*
X154474070Y-107754877D01*
X154355251Y-107675484D01*
X154355242Y-107675479D01*
X154223210Y-107620790D01*
X154223206Y-107620789D01*
X154185200Y-107613229D01*
X154123289Y-107580843D01*
X154121711Y-107579293D01*
X153799899Y-107257481D01*
X153799898Y-107257480D01*
X153713086Y-107207360D01*
X153713086Y-107207359D01*
X153713082Y-107207358D01*
X153662967Y-107178423D01*
X153510239Y-107137499D01*
X153352125Y-107137499D01*
X153344529Y-107137499D01*
X153344513Y-107137500D01*
X147813500Y-107137500D01*
X147746461Y-107117815D01*
X147700706Y-107065011D01*
X147689500Y-107013500D01*
X147689500Y-104828079D01*
X147660659Y-104683092D01*
X147660658Y-104683088D01*
X147660658Y-104683087D01*
X147644839Y-104644896D01*
X147604087Y-104546511D01*
X147604080Y-104546498D01*
X147521952Y-104423585D01*
X147479569Y-104381202D01*
X147417416Y-104319049D01*
X147417415Y-104319048D01*
X146881076Y-103782709D01*
X146336819Y-103238451D01*
X146303334Y-103177128D01*
X146300500Y-103150770D01*
X146300500Y-103028713D01*
X146270626Y-102840098D01*
X146267246Y-102818757D01*
X146201557Y-102616588D01*
X146105051Y-102427184D01*
X146105049Y-102427181D01*
X146105048Y-102427179D01*
X145980109Y-102255213D01*
X145829786Y-102104890D01*
X145657820Y-101979951D01*
X145468414Y-101883444D01*
X145468413Y-101883443D01*
X145468412Y-101883443D01*
X145266243Y-101817754D01*
X145266241Y-101817753D01*
X145266240Y-101817753D01*
X145086233Y-101789243D01*
X145056287Y-101784500D01*
X144843713Y-101784500D01*
X144813767Y-101789243D01*
X144633759Y-101817753D01*
X144633755Y-101817754D01*
X144526817Y-101852500D01*
X144456976Y-101854495D01*
X144397143Y-101818414D01*
X144366316Y-101755713D01*
X144364500Y-101734569D01*
X144364500Y-101519096D01*
X144373144Y-101489655D01*
X144379668Y-101459669D01*
X144383422Y-101454653D01*
X144384185Y-101452057D01*
X144400815Y-101431419D01*
X145017119Y-100815114D01*
X145078440Y-100781631D01*
X145080536Y-100781194D01*
X145118620Y-100773619D01*
X145250653Y-100718929D01*
X145369479Y-100639532D01*
X145470532Y-100538479D01*
X145549929Y-100419653D01*
X145604619Y-100287620D01*
X145632500Y-100147455D01*
X145632500Y-100004545D01*
X145632500Y-100004542D01*
X145604620Y-99864385D01*
X145604619Y-99864384D01*
X145604619Y-99864380D01*
X145549929Y-99732347D01*
X145549928Y-99732346D01*
X145549925Y-99732340D01*
X145470532Y-99613521D01*
X145470529Y-99613517D01*
X145369482Y-99512470D01*
X145369478Y-99512467D01*
X145250659Y-99433074D01*
X145250650Y-99433069D01*
X145118620Y-99378381D01*
X145118614Y-99378379D01*
X144978457Y-99350500D01*
X144978455Y-99350500D01*
X144835545Y-99350500D01*
X144835543Y-99350500D01*
X144695385Y-99378379D01*
X144695379Y-99378381D01*
X144563349Y-99433069D01*
X144563340Y-99433074D01*
X144444521Y-99512467D01*
X144444517Y-99512470D01*
X144343470Y-99613517D01*
X144343467Y-99613521D01*
X144264074Y-99732340D01*
X144264069Y-99732349D01*
X144209380Y-99864381D01*
X144209379Y-99864383D01*
X144201819Y-99902392D01*
X144169433Y-99964302D01*
X144167883Y-99965880D01*
X143395286Y-100738478D01*
X143283481Y-100850282D01*
X143283477Y-100850287D01*
X143264292Y-100883519D01*
X143264291Y-100883521D01*
X143204423Y-100987215D01*
X143163499Y-101139943D01*
X143163499Y-101139945D01*
X143163499Y-101308046D01*
X143163500Y-101308059D01*
X143163500Y-101800876D01*
X143143815Y-101867915D01*
X143091011Y-101913670D01*
X143021853Y-101923614D01*
X142983206Y-101911361D01*
X142928417Y-101883445D01*
X142928414Y-101883444D01*
X142928412Y-101883443D01*
X142726243Y-101817754D01*
X142726241Y-101817753D01*
X142726240Y-101817753D01*
X142546233Y-101789243D01*
X142516287Y-101784500D01*
X142303713Y-101784500D01*
X142273767Y-101789243D01*
X142093760Y-101817753D01*
X141891585Y-101883444D01*
X141702179Y-101979951D01*
X141530213Y-102104890D01*
X141379890Y-102255213D01*
X141254949Y-102427182D01*
X141250484Y-102435946D01*
X141202509Y-102486742D01*
X141134688Y-102503536D01*
X141068553Y-102480998D01*
X141029516Y-102435946D01*
X141025050Y-102427182D01*
X140900109Y-102255213D01*
X140749786Y-102104890D01*
X140577820Y-101979951D01*
X140388414Y-101883444D01*
X140388413Y-101883443D01*
X140388412Y-101883443D01*
X140186243Y-101817754D01*
X140186241Y-101817753D01*
X140186240Y-101817753D01*
X140006233Y-101789243D01*
X139976287Y-101784500D01*
X139763713Y-101784500D01*
X139733767Y-101789243D01*
X139553760Y-101817753D01*
X139351585Y-101883444D01*
X139162179Y-101979951D01*
X138990213Y-102104890D01*
X138839890Y-102255213D01*
X138714949Y-102427182D01*
X138710484Y-102435946D01*
X138662509Y-102486742D01*
X138594688Y-102503536D01*
X138528553Y-102480998D01*
X138489516Y-102435946D01*
X138485050Y-102427182D01*
X138360109Y-102255213D01*
X138209786Y-102104890D01*
X138037820Y-101979951D01*
X137848414Y-101883444D01*
X137848413Y-101883443D01*
X137848412Y-101883443D01*
X137646243Y-101817754D01*
X137646241Y-101817753D01*
X137646240Y-101817753D01*
X137466233Y-101789243D01*
X137436287Y-101784500D01*
X137223713Y-101784500D01*
X137193767Y-101789243D01*
X137013760Y-101817753D01*
X136811585Y-101883444D01*
X136622179Y-101979951D01*
X136450213Y-102104890D01*
X136299890Y-102255213D01*
X136174949Y-102427182D01*
X136170484Y-102435946D01*
X136122509Y-102486742D01*
X136054688Y-102503536D01*
X135988553Y-102480998D01*
X135949516Y-102435946D01*
X135945050Y-102427182D01*
X135820109Y-102255213D01*
X135669786Y-102104890D01*
X135497820Y-101979951D01*
X135308414Y-101883444D01*
X135308413Y-101883443D01*
X135308412Y-101883443D01*
X135106243Y-101817754D01*
X135106241Y-101817753D01*
X135106240Y-101817753D01*
X134926233Y-101789243D01*
X134896287Y-101784500D01*
X134683713Y-101784500D01*
X134653767Y-101789243D01*
X134473760Y-101817753D01*
X134271585Y-101883444D01*
X134082179Y-101979951D01*
X133910213Y-102104890D01*
X133759890Y-102255213D01*
X133634949Y-102427182D01*
X133630202Y-102436499D01*
X133582227Y-102487293D01*
X133514405Y-102504087D01*
X133448271Y-102481548D01*
X133409234Y-102436495D01*
X133404626Y-102427452D01*
X133365270Y-102373282D01*
X133365269Y-102373282D01*
X132732962Y-103005590D01*
X132715925Y-102942007D01*
X132650099Y-102827993D01*
X132557007Y-102734901D01*
X132442993Y-102669075D01*
X132379409Y-102652037D01*
X133011716Y-102019728D01*
X132957550Y-101980375D01*
X132768217Y-101883904D01*
X132566129Y-101818242D01*
X132356246Y-101785000D01*
X132143754Y-101785000D01*
X131933872Y-101818242D01*
X131933869Y-101818242D01*
X131731782Y-101883904D01*
X131542439Y-101980380D01*
X131488282Y-102019727D01*
X131488282Y-102019728D01*
X132120591Y-102652037D01*
X132057007Y-102669075D01*
X131942993Y-102734901D01*
X131849901Y-102827993D01*
X131784075Y-102942007D01*
X131767037Y-103005591D01*
X131134728Y-102373282D01*
X131134727Y-102373282D01*
X131095380Y-102427439D01*
X130998904Y-102616782D01*
X130933242Y-102818869D01*
X130933242Y-102818872D01*
X130900000Y-103028753D01*
X130900000Y-103241246D01*
X130933242Y-103451127D01*
X130933242Y-103451130D01*
X130998904Y-103653217D01*
X131095375Y-103842550D01*
X131134728Y-103896716D01*
X131767037Y-103264408D01*
X131784075Y-103327993D01*
X131849901Y-103442007D01*
X131942993Y-103535099D01*
X132057007Y-103600925D01*
X132120590Y-103617962D01*
X131450370Y-104288181D01*
X131389047Y-104321666D01*
X131362698Y-104324500D01*
X131352134Y-104324500D01*
X131352123Y-104324501D01*
X131292516Y-104330908D01*
X131157671Y-104381202D01*
X131157664Y-104381206D01*
X131042455Y-104467452D01*
X131042452Y-104467455D01*
X130956206Y-104582664D01*
X130956202Y-104582671D01*
X130905908Y-104717517D01*
X130899501Y-104777116D01*
X130899500Y-104777135D01*
X130899500Y-105475903D01*
X130879815Y-105542942D01*
X130827011Y-105588697D01*
X130757853Y-105598641D01*
X130694297Y-105569616D01*
X130687819Y-105563584D01*
X130176819Y-105052584D01*
X130143334Y-104991261D01*
X130140500Y-104964903D01*
X130140500Y-102629060D01*
X130140501Y-102629047D01*
X130140501Y-102460944D01*
X130134687Y-102439246D01*
X130099577Y-102308216D01*
X130099573Y-102308209D01*
X130020524Y-102171290D01*
X130020518Y-102171282D01*
X127686655Y-99837419D01*
X127653170Y-99776096D01*
X127650336Y-99749738D01*
X127650336Y-95718214D01*
X127670021Y-95651175D01*
X127671234Y-95649323D01*
X127759226Y-95517634D01*
X127759226Y-95517633D01*
X127759230Y-95517628D01*
X127819573Y-95371946D01*
X127850336Y-95217291D01*
X127850336Y-95059607D01*
X127850336Y-95059604D01*
X127850335Y-95059602D01*
X127840969Y-95012516D01*
X127819573Y-94904952D01*
X127819571Y-94904947D01*
X127759233Y-94759276D01*
X127759226Y-94759263D01*
X127671625Y-94628160D01*
X127671622Y-94628156D01*
X127560128Y-94516662D01*
X127560124Y-94516659D01*
X127429021Y-94429058D01*
X127429008Y-94429051D01*
X127283337Y-94368713D01*
X127283325Y-94368710D01*
X127128681Y-94337949D01*
X127128678Y-94337949D01*
X127083273Y-94337949D01*
X127016234Y-94318264D01*
X126970479Y-94265460D01*
X126960535Y-94196302D01*
X126961656Y-94189758D01*
X126974024Y-94127577D01*
X126650001Y-93803554D01*
X126650000Y-93803554D01*
X126325975Y-94127577D01*
X126431236Y-94171178D01*
X126431240Y-94171179D01*
X126576126Y-94199999D01*
X126576129Y-94200000D01*
X126604688Y-94200000D01*
X126671727Y-94219685D01*
X126717482Y-94272489D01*
X126727426Y-94341647D01*
X126698401Y-94405203D01*
X126673579Y-94427102D01*
X126539547Y-94516659D01*
X126539543Y-94516662D01*
X126428049Y-94628156D01*
X126428046Y-94628160D01*
X126340445Y-94759263D01*
X126340438Y-94759276D01*
X126280100Y-94904947D01*
X126280097Y-94904956D01*
X126261353Y-94999187D01*
X126228967Y-95061097D01*
X126171933Y-95093573D01*
X126172173Y-95094363D01*
X126168694Y-95095418D01*
X126168251Y-95095671D01*
X126166875Y-95095970D01*
X126166336Y-95096133D01*
X126020663Y-95156472D01*
X126020650Y-95156479D01*
X125889547Y-95244080D01*
X125889543Y-95244083D01*
X125778049Y-95355577D01*
X125778046Y-95355581D01*
X125690445Y-95486684D01*
X125690438Y-95486697D01*
X125630100Y-95632368D01*
X125630097Y-95632380D01*
X125599336Y-95787023D01*
X125599336Y-95944716D01*
X125630097Y-96099359D01*
X125630100Y-96099371D01*
X125690438Y-96245042D01*
X125690445Y-96245055D01*
X125778438Y-96376744D01*
X125799316Y-96443421D01*
X125799336Y-96445635D01*
X125799336Y-96800725D01*
X125779651Y-96867764D01*
X125726847Y-96913519D01*
X125657689Y-96923463D01*
X125594133Y-96894438D01*
X125572234Y-96869617D01*
X125546298Y-96830802D01*
X125445251Y-96729755D01*
X125445247Y-96729752D01*
X125326428Y-96650359D01*
X125326419Y-96650354D01*
X125194389Y-96595666D01*
X125194383Y-96595664D01*
X125054226Y-96567785D01*
X125054224Y-96567785D01*
X124941183Y-96567785D01*
X124874144Y-96548100D01*
X124838081Y-96512676D01*
X124788532Y-96438520D01*
X124687479Y-96337467D01*
X124582904Y-96267593D01*
X124538099Y-96213981D01*
X124530179Y-96188688D01*
X124522619Y-96150678D01*
X124467929Y-96018645D01*
X124467928Y-96018644D01*
X124467925Y-96018638D01*
X124388532Y-95899819D01*
X124388529Y-95899815D01*
X124287482Y-95798768D01*
X124287478Y-95798765D01*
X124205609Y-95744061D01*
X124160804Y-95690448D01*
X124150500Y-95640959D01*
X124150500Y-95624441D01*
X124121659Y-95479454D01*
X124121658Y-95479453D01*
X124121658Y-95479449D01*
X124065084Y-95342867D01*
X123982952Y-95219945D01*
X123982947Y-95219940D01*
X123982947Y-95219939D01*
X123173851Y-94410843D01*
X123140366Y-94349520D01*
X123145350Y-94279828D01*
X123187222Y-94223895D01*
X123252686Y-94199478D01*
X123273688Y-94199759D01*
X123276135Y-94200000D01*
X123423871Y-94200000D01*
X123423873Y-94199999D01*
X123568760Y-94171179D01*
X123568775Y-94171175D01*
X123674024Y-94127578D01*
X123674024Y-94127577D01*
X124125975Y-94127577D01*
X124231236Y-94171178D01*
X124231240Y-94171179D01*
X124376126Y-94199999D01*
X124376129Y-94200000D01*
X124523871Y-94200000D01*
X124523873Y-94199999D01*
X124668760Y-94171179D01*
X124668775Y-94171175D01*
X124774024Y-94127578D01*
X124774024Y-94127577D01*
X125225975Y-94127577D01*
X125331236Y-94171178D01*
X125331240Y-94171179D01*
X125476126Y-94199999D01*
X125476129Y-94200000D01*
X125623871Y-94200000D01*
X125623873Y-94199999D01*
X125768760Y-94171179D01*
X125768775Y-94171175D01*
X125874024Y-94127578D01*
X125874024Y-94127577D01*
X125550001Y-93803554D01*
X125550000Y-93803554D01*
X125225975Y-94127577D01*
X124774024Y-94127577D01*
X124450001Y-93803554D01*
X124450000Y-93803554D01*
X124125975Y-94127577D01*
X123674024Y-94127577D01*
X123173223Y-93626777D01*
X123032765Y-93486319D01*
X122966609Y-93420163D01*
X123200000Y-93420163D01*
X123200000Y-93479837D01*
X123222836Y-93534968D01*
X123265032Y-93577164D01*
X123320163Y-93600000D01*
X123379837Y-93600000D01*
X123434968Y-93577164D01*
X123477164Y-93534968D01*
X123500000Y-93479837D01*
X123500000Y-93450000D01*
X123703554Y-93450000D01*
X123900000Y-93646446D01*
X124096446Y-93450000D01*
X124066609Y-93420163D01*
X124300000Y-93420163D01*
X124300000Y-93479837D01*
X124322836Y-93534968D01*
X124365032Y-93577164D01*
X124420163Y-93600000D01*
X124479837Y-93600000D01*
X124534968Y-93577164D01*
X124577164Y-93534968D01*
X124600000Y-93479837D01*
X124600000Y-93450000D01*
X124803554Y-93450000D01*
X125000000Y-93646446D01*
X125196446Y-93450000D01*
X125166609Y-93420163D01*
X125400000Y-93420163D01*
X125400000Y-93479837D01*
X125422836Y-93534968D01*
X125465032Y-93577164D01*
X125520163Y-93600000D01*
X125579837Y-93600000D01*
X125634968Y-93577164D01*
X125677164Y-93534968D01*
X125700000Y-93479837D01*
X125700000Y-93450000D01*
X125903554Y-93450000D01*
X126100000Y-93646446D01*
X126296446Y-93450000D01*
X126266609Y-93420163D01*
X126500000Y-93420163D01*
X126500000Y-93479837D01*
X126522836Y-93534968D01*
X126565032Y-93577164D01*
X126620163Y-93600000D01*
X126679837Y-93600000D01*
X126734968Y-93577164D01*
X126777164Y-93534968D01*
X126800000Y-93479837D01*
X126800000Y-93449999D01*
X127003554Y-93449999D01*
X127003554Y-93450001D01*
X127327577Y-93774024D01*
X127327578Y-93774024D01*
X127371175Y-93668775D01*
X127371179Y-93668760D01*
X127399999Y-93523873D01*
X127400000Y-93523871D01*
X127400000Y-93376128D01*
X127399999Y-93376126D01*
X127371179Y-93231240D01*
X127371178Y-93231236D01*
X127327577Y-93125975D01*
X127003554Y-93449999D01*
X126800000Y-93449999D01*
X126800000Y-93420163D01*
X126777164Y-93365032D01*
X126734968Y-93322836D01*
X126679837Y-93300000D01*
X126620163Y-93300000D01*
X126565032Y-93322836D01*
X126522836Y-93365032D01*
X126500000Y-93420163D01*
X126266609Y-93420163D01*
X126100000Y-93253554D01*
X125903554Y-93450000D01*
X125700000Y-93450000D01*
X125700000Y-93420163D01*
X125677164Y-93365032D01*
X125634968Y-93322836D01*
X125579837Y-93300000D01*
X125520163Y-93300000D01*
X125465032Y-93322836D01*
X125422836Y-93365032D01*
X125400000Y-93420163D01*
X125166609Y-93420163D01*
X125000000Y-93253554D01*
X124803554Y-93450000D01*
X124600000Y-93450000D01*
X124600000Y-93420163D01*
X124577164Y-93365032D01*
X124534968Y-93322836D01*
X124479837Y-93300000D01*
X124420163Y-93300000D01*
X124365032Y-93322836D01*
X124322836Y-93365032D01*
X124300000Y-93420163D01*
X124066609Y-93420163D01*
X123900000Y-93253554D01*
X123703554Y-93450000D01*
X123500000Y-93450000D01*
X123500000Y-93420163D01*
X123477164Y-93365032D01*
X123434968Y-93322836D01*
X123379837Y-93300000D01*
X123320163Y-93300000D01*
X123265032Y-93322836D01*
X123222836Y-93365032D01*
X123200000Y-93420163D01*
X122966609Y-93420163D01*
X122672421Y-93125974D01*
X122672420Y-93125974D01*
X122628823Y-93231228D01*
X122628820Y-93231240D01*
X122600000Y-93376126D01*
X122600000Y-93523873D01*
X122628820Y-93668759D01*
X122628822Y-93668767D01*
X122671490Y-93771776D01*
X122678959Y-93841246D01*
X122647684Y-93903725D01*
X122587595Y-93939377D01*
X122532738Y-93940846D01*
X122450561Y-93924500D01*
X122450557Y-93924500D01*
X122237229Y-93924500D01*
X122170190Y-93904815D01*
X122149548Y-93888181D01*
X121958459Y-93697091D01*
X121924974Y-93635768D01*
X121922140Y-93609410D01*
X121922140Y-93577970D01*
X121941825Y-93510931D01*
X121958460Y-93490288D01*
X121968911Y-93479837D01*
X121995332Y-93453416D01*
X122017551Y-93420163D01*
X122074728Y-93334591D01*
X122077460Y-93330501D01*
X122077460Y-93330500D01*
X122077464Y-93330495D01*
X122134038Y-93193913D01*
X122153426Y-93096446D01*
X122162880Y-93048920D01*
X122162880Y-92900000D01*
X123153554Y-92900000D01*
X123350000Y-93096446D01*
X123546446Y-92900000D01*
X124253554Y-92900000D01*
X124450000Y-93096446D01*
X124646446Y-92900000D01*
X125353554Y-92900000D01*
X125550000Y-93096446D01*
X125746446Y-92900000D01*
X126453554Y-92900000D01*
X126650000Y-93096446D01*
X126846446Y-92900000D01*
X126650000Y-92703554D01*
X126453554Y-92900000D01*
X125746446Y-92900000D01*
X125550000Y-92703554D01*
X125353554Y-92900000D01*
X124646446Y-92900000D01*
X124450000Y-92703554D01*
X124253554Y-92900000D01*
X123546446Y-92900000D01*
X123350000Y-92703554D01*
X123153554Y-92900000D01*
X122162880Y-92900000D01*
X122162880Y-92338459D01*
X122154082Y-92294231D01*
X122150481Y-92276126D01*
X122600000Y-92276126D01*
X122600000Y-92423873D01*
X122628820Y-92568759D01*
X122628822Y-92568767D01*
X122672421Y-92674024D01*
X122996446Y-92350000D01*
X122996446Y-92349999D01*
X122966610Y-92320163D01*
X123200000Y-92320163D01*
X123200000Y-92379837D01*
X123222836Y-92434968D01*
X123265032Y-92477164D01*
X123320163Y-92500000D01*
X123379837Y-92500000D01*
X123434968Y-92477164D01*
X123477164Y-92434968D01*
X123500000Y-92379837D01*
X123500000Y-92350000D01*
X123703554Y-92350000D01*
X123900000Y-92546446D01*
X124096446Y-92350000D01*
X124066609Y-92320163D01*
X124300000Y-92320163D01*
X124300000Y-92379837D01*
X124322836Y-92434968D01*
X124365032Y-92477164D01*
X124420163Y-92500000D01*
X124479837Y-92500000D01*
X124534968Y-92477164D01*
X124577164Y-92434968D01*
X124600000Y-92379837D01*
X124600000Y-92350000D01*
X124803554Y-92350000D01*
X125000000Y-92546446D01*
X125196446Y-92350000D01*
X125166609Y-92320163D01*
X125400000Y-92320163D01*
X125400000Y-92379837D01*
X125422836Y-92434968D01*
X125465032Y-92477164D01*
X125520163Y-92500000D01*
X125579837Y-92500000D01*
X125634968Y-92477164D01*
X125677164Y-92434968D01*
X125700000Y-92379837D01*
X125700000Y-92350000D01*
X125903554Y-92350000D01*
X126100000Y-92546446D01*
X126296446Y-92350000D01*
X126266609Y-92320163D01*
X126500000Y-92320163D01*
X126500000Y-92379837D01*
X126522836Y-92434968D01*
X126565032Y-92477164D01*
X126620163Y-92500000D01*
X126679837Y-92500000D01*
X126734968Y-92477164D01*
X126777164Y-92434968D01*
X126800000Y-92379837D01*
X126800000Y-92349999D01*
X127003554Y-92349999D01*
X127003554Y-92350001D01*
X127327577Y-92674024D01*
X127327578Y-92674024D01*
X127371175Y-92568775D01*
X127371179Y-92568760D01*
X127399999Y-92423873D01*
X127400000Y-92423871D01*
X127400000Y-92276128D01*
X127399999Y-92276126D01*
X127371179Y-92131240D01*
X127371178Y-92131236D01*
X127327577Y-92025975D01*
X127003554Y-92349999D01*
X126800000Y-92349999D01*
X126800000Y-92320163D01*
X126777164Y-92265032D01*
X126734968Y-92222836D01*
X126679837Y-92200000D01*
X126620163Y-92200000D01*
X126565032Y-92222836D01*
X126522836Y-92265032D01*
X126500000Y-92320163D01*
X126266609Y-92320163D01*
X126100000Y-92153554D01*
X125903554Y-92350000D01*
X125700000Y-92350000D01*
X125700000Y-92320163D01*
X125677164Y-92265032D01*
X125634968Y-92222836D01*
X125579837Y-92200000D01*
X125520163Y-92200000D01*
X125465032Y-92222836D01*
X125422836Y-92265032D01*
X125400000Y-92320163D01*
X125166609Y-92320163D01*
X125000000Y-92153554D01*
X124803554Y-92350000D01*
X124600000Y-92350000D01*
X124600000Y-92320163D01*
X124577164Y-92265032D01*
X124534968Y-92222836D01*
X124479837Y-92200000D01*
X124420163Y-92200000D01*
X124365032Y-92222836D01*
X124322836Y-92265032D01*
X124300000Y-92320163D01*
X124066609Y-92320163D01*
X123900000Y-92153554D01*
X123703554Y-92350000D01*
X123500000Y-92350000D01*
X123500000Y-92320163D01*
X123477164Y-92265032D01*
X123434968Y-92222836D01*
X123379837Y-92200000D01*
X123320163Y-92200000D01*
X123265032Y-92222836D01*
X123222836Y-92265032D01*
X123200000Y-92320163D01*
X122966610Y-92320163D01*
X122672421Y-92025974D01*
X122672420Y-92025974D01*
X122628823Y-92131228D01*
X122628820Y-92131240D01*
X122600000Y-92276126D01*
X122150481Y-92276126D01*
X122134039Y-92193472D01*
X122134038Y-92193471D01*
X122134038Y-92193467D01*
X122108258Y-92131228D01*
X122077467Y-92056891D01*
X122077460Y-92056878D01*
X121995332Y-91933965D01*
X121995331Y-91933964D01*
X121890796Y-91829429D01*
X121861367Y-91800000D01*
X123153554Y-91800000D01*
X123350000Y-91996446D01*
X123546446Y-91800000D01*
X124253554Y-91800000D01*
X124450000Y-91996446D01*
X124646446Y-91800000D01*
X125353554Y-91800000D01*
X125550000Y-91996446D01*
X125746446Y-91800000D01*
X126453554Y-91800000D01*
X126650000Y-91996446D01*
X126846446Y-91800000D01*
X126650000Y-91603554D01*
X126453554Y-91800000D01*
X125746446Y-91800000D01*
X125550000Y-91603554D01*
X125353554Y-91800000D01*
X124646446Y-91800000D01*
X124450000Y-91603554D01*
X124253554Y-91800000D01*
X123546446Y-91800000D01*
X123350000Y-91603554D01*
X123153554Y-91800000D01*
X121861367Y-91800000D01*
X121635391Y-91574024D01*
X121319088Y-91257720D01*
X121237494Y-91176126D01*
X122600000Y-91176126D01*
X122600000Y-91323873D01*
X122628820Y-91468759D01*
X122628822Y-91468767D01*
X122672421Y-91574024D01*
X122996446Y-91250000D01*
X122996446Y-91249999D01*
X122966610Y-91220163D01*
X123200000Y-91220163D01*
X123200000Y-91279837D01*
X123222836Y-91334968D01*
X123265032Y-91377164D01*
X123320163Y-91400000D01*
X123379837Y-91400000D01*
X123434968Y-91377164D01*
X123477164Y-91334968D01*
X123500000Y-91279837D01*
X123500000Y-91250000D01*
X123703554Y-91250000D01*
X123900000Y-91446446D01*
X124096446Y-91250000D01*
X124066609Y-91220163D01*
X124300000Y-91220163D01*
X124300000Y-91279837D01*
X124322836Y-91334968D01*
X124365032Y-91377164D01*
X124420163Y-91400000D01*
X124479837Y-91400000D01*
X124534968Y-91377164D01*
X124577164Y-91334968D01*
X124600000Y-91279837D01*
X124600000Y-91250000D01*
X124803554Y-91250000D01*
X125000000Y-91446446D01*
X125196446Y-91250000D01*
X125166609Y-91220163D01*
X125400000Y-91220163D01*
X125400000Y-91279837D01*
X125422836Y-91334968D01*
X125465032Y-91377164D01*
X125520163Y-91400000D01*
X125579837Y-91400000D01*
X125634968Y-91377164D01*
X125677164Y-91334968D01*
X125700000Y-91279837D01*
X125700000Y-91250000D01*
X125903554Y-91250000D01*
X126100000Y-91446446D01*
X126296446Y-91250000D01*
X126266609Y-91220163D01*
X126500000Y-91220163D01*
X126500000Y-91279837D01*
X126522836Y-91334968D01*
X126565032Y-91377164D01*
X126620163Y-91400000D01*
X126679837Y-91400000D01*
X126734968Y-91377164D01*
X126777164Y-91334968D01*
X126800000Y-91279837D01*
X126800000Y-91249999D01*
X127003554Y-91249999D01*
X127003554Y-91250001D01*
X127327577Y-91574024D01*
X127327578Y-91574024D01*
X127371175Y-91468775D01*
X127371179Y-91468760D01*
X127399999Y-91323873D01*
X127400000Y-91323871D01*
X127400000Y-91176128D01*
X127399999Y-91176126D01*
X127371179Y-91031240D01*
X127371178Y-91031236D01*
X127327577Y-90925975D01*
X127003554Y-91249999D01*
X126800000Y-91249999D01*
X126800000Y-91220163D01*
X126777164Y-91165032D01*
X126734968Y-91122836D01*
X126679837Y-91100000D01*
X126620163Y-91100000D01*
X126565032Y-91122836D01*
X126522836Y-91165032D01*
X126500000Y-91220163D01*
X126266609Y-91220163D01*
X126100000Y-91053554D01*
X125903554Y-91250000D01*
X125700000Y-91250000D01*
X125700000Y-91220163D01*
X125677164Y-91165032D01*
X125634968Y-91122836D01*
X125579837Y-91100000D01*
X125520163Y-91100000D01*
X125465032Y-91122836D01*
X125422836Y-91165032D01*
X125400000Y-91220163D01*
X125166609Y-91220163D01*
X125000000Y-91053554D01*
X124803554Y-91250000D01*
X124600000Y-91250000D01*
X124600000Y-91220163D01*
X124577164Y-91165032D01*
X124534968Y-91122836D01*
X124479837Y-91100000D01*
X124420163Y-91100000D01*
X124365032Y-91122836D01*
X124322836Y-91165032D01*
X124300000Y-91220163D01*
X124066609Y-91220163D01*
X123900000Y-91053554D01*
X123703554Y-91250000D01*
X123500000Y-91250000D01*
X123500000Y-91220163D01*
X123477164Y-91165032D01*
X123434968Y-91122836D01*
X123379837Y-91100000D01*
X123320163Y-91100000D01*
X123265032Y-91122836D01*
X123222836Y-91165032D01*
X123200000Y-91220163D01*
X122966610Y-91220163D01*
X122672421Y-90925974D01*
X122672420Y-90925974D01*
X122628823Y-91031228D01*
X122628820Y-91031240D01*
X122600000Y-91176126D01*
X121237494Y-91176126D01*
X120797688Y-90736319D01*
X120761369Y-90700000D01*
X123153554Y-90700000D01*
X123350000Y-90896446D01*
X123546446Y-90700000D01*
X124253554Y-90700000D01*
X124450000Y-90896446D01*
X124646446Y-90700000D01*
X125353554Y-90700000D01*
X125550000Y-90896446D01*
X125746446Y-90700000D01*
X126453554Y-90700000D01*
X126650000Y-90896446D01*
X126846446Y-90700000D01*
X126650000Y-90503554D01*
X126453554Y-90700000D01*
X125746446Y-90700000D01*
X125550000Y-90503554D01*
X125353554Y-90700000D01*
X124646446Y-90700000D01*
X124450000Y-90503554D01*
X124253554Y-90700000D01*
X123546446Y-90700000D01*
X123350000Y-90503554D01*
X123153554Y-90700000D01*
X120761369Y-90700000D01*
X120531258Y-90469889D01*
X120531254Y-90469886D01*
X120531253Y-90469885D01*
X120408331Y-90387753D01*
X120408329Y-90387752D01*
X120408327Y-90387751D01*
X120271749Y-90331179D01*
X120271743Y-90331177D01*
X120126756Y-90302337D01*
X120126754Y-90302337D01*
X119978920Y-90302337D01*
X119978918Y-90302337D01*
X119833930Y-90331177D01*
X119833924Y-90331179D01*
X119697346Y-90387751D01*
X119697339Y-90387755D01*
X119653952Y-90416745D01*
X119574421Y-90469885D01*
X119574419Y-90469886D01*
X119574416Y-90469889D01*
X119574415Y-90469889D01*
X119469889Y-90574415D01*
X119469889Y-90574416D01*
X119469886Y-90574419D01*
X119469885Y-90574421D01*
X119443476Y-90613946D01*
X119387755Y-90697339D01*
X119387751Y-90697346D01*
X119331179Y-90833924D01*
X119331177Y-90833930D01*
X119302337Y-90978917D01*
X119302337Y-90978920D01*
X119302337Y-91126754D01*
X119302337Y-91126756D01*
X119302336Y-91126756D01*
X119331177Y-91271743D01*
X119331179Y-91271749D01*
X119352768Y-91323871D01*
X119387753Y-91408331D01*
X119469885Y-91531253D01*
X119469888Y-91531256D01*
X119469889Y-91531257D01*
X119469889Y-91531258D01*
X120551685Y-92613052D01*
X120585170Y-92674375D01*
X120580186Y-92744066D01*
X120567109Y-92769619D01*
X120556665Y-92785251D01*
X120556662Y-92785256D01*
X120506559Y-92860239D01*
X120506552Y-92860251D01*
X120449983Y-92996822D01*
X120449980Y-92996832D01*
X120421140Y-93141819D01*
X120421140Y-93141822D01*
X120421140Y-94045558D01*
X120421140Y-94045560D01*
X120421139Y-94045560D01*
X120449980Y-94190547D01*
X120449983Y-94190557D01*
X120506553Y-94327130D01*
X120506558Y-94327139D01*
X120513782Y-94337950D01*
X120513784Y-94337952D01*
X120534337Y-94368713D01*
X120588691Y-94450060D01*
X120588692Y-94450061D01*
X121396580Y-95257948D01*
X121396584Y-95257951D01*
X121519498Y-95340080D01*
X121519511Y-95340087D01*
X121596436Y-95371950D01*
X121656087Y-95396658D01*
X121656091Y-95396658D01*
X121656092Y-95396659D01*
X121801079Y-95425500D01*
X121801082Y-95425500D01*
X121948917Y-95425500D01*
X122014409Y-95425500D01*
X122081448Y-95445185D01*
X122102090Y-95461819D01*
X122348090Y-95707819D01*
X122381575Y-95769142D01*
X122376591Y-95838834D01*
X122334719Y-95894767D01*
X122269255Y-95919184D01*
X122260409Y-95919500D01*
X120436351Y-95919500D01*
X120374351Y-95902887D01*
X120357961Y-95893424D01*
X120357960Y-95893423D01*
X120287666Y-95874588D01*
X120205230Y-95852499D01*
X120047116Y-95852499D01*
X120039520Y-95852499D01*
X120039504Y-95852500D01*
X119688999Y-95852500D01*
X119641547Y-95843061D01*
X119591624Y-95822382D01*
X119591614Y-95822379D01*
X119451457Y-95794500D01*
X119451455Y-95794500D01*
X119308545Y-95794500D01*
X119308543Y-95794500D01*
X119168385Y-95822379D01*
X119168379Y-95822381D01*
X119036348Y-95877069D01*
X119004124Y-95898602D01*
X118937446Y-95919480D01*
X118935233Y-95919500D01*
X115673784Y-95919500D01*
X115606745Y-95899815D01*
X115586103Y-95883181D01*
X115571819Y-95868897D01*
X115538334Y-95807574D01*
X115535500Y-95781216D01*
X115535500Y-90076126D01*
X122600000Y-90076126D01*
X122600000Y-90223873D01*
X122628820Y-90368759D01*
X122628822Y-90368767D01*
X122672421Y-90474024D01*
X122996446Y-90150000D01*
X122996446Y-90149999D01*
X122966610Y-90120163D01*
X123200000Y-90120163D01*
X123200000Y-90179837D01*
X123222836Y-90234968D01*
X123265032Y-90277164D01*
X123320163Y-90300000D01*
X123379837Y-90300000D01*
X123434968Y-90277164D01*
X123477164Y-90234968D01*
X123500000Y-90179837D01*
X123500000Y-90150000D01*
X123703554Y-90150000D01*
X123900000Y-90346446D01*
X124096446Y-90150000D01*
X124066609Y-90120163D01*
X124300000Y-90120163D01*
X124300000Y-90179837D01*
X124322836Y-90234968D01*
X124365032Y-90277164D01*
X124420163Y-90300000D01*
X124479837Y-90300000D01*
X124534968Y-90277164D01*
X124577164Y-90234968D01*
X124600000Y-90179837D01*
X124600000Y-90150000D01*
X124803554Y-90150000D01*
X125000000Y-90346446D01*
X125196446Y-90150000D01*
X125166609Y-90120163D01*
X125400000Y-90120163D01*
X125400000Y-90179837D01*
X125422836Y-90234968D01*
X125465032Y-90277164D01*
X125520163Y-90300000D01*
X125579837Y-90300000D01*
X125634968Y-90277164D01*
X125677164Y-90234968D01*
X125700000Y-90179837D01*
X125700000Y-90150000D01*
X125903554Y-90150000D01*
X126100000Y-90346446D01*
X126296446Y-90150000D01*
X126266609Y-90120163D01*
X126500000Y-90120163D01*
X126500000Y-90179837D01*
X126522836Y-90234968D01*
X126565032Y-90277164D01*
X126620163Y-90300000D01*
X126679837Y-90300000D01*
X126734968Y-90277164D01*
X126777164Y-90234968D01*
X126800000Y-90179837D01*
X126800000Y-90120163D01*
X126777164Y-90065032D01*
X126734968Y-90022836D01*
X126679837Y-90000000D01*
X126620163Y-90000000D01*
X126565032Y-90022836D01*
X126522836Y-90065032D01*
X126500000Y-90120163D01*
X126266609Y-90120163D01*
X126100000Y-89953554D01*
X125903554Y-90150000D01*
X125700000Y-90150000D01*
X125700000Y-90120163D01*
X125677164Y-90065032D01*
X125634968Y-90022836D01*
X125579837Y-90000000D01*
X125520163Y-90000000D01*
X125465032Y-90022836D01*
X125422836Y-90065032D01*
X125400000Y-90120163D01*
X125166609Y-90120163D01*
X125000000Y-89953554D01*
X124803554Y-90150000D01*
X124600000Y-90150000D01*
X124600000Y-90120163D01*
X124577164Y-90065032D01*
X124534968Y-90022836D01*
X124479837Y-90000000D01*
X124420163Y-90000000D01*
X124365032Y-90022836D01*
X124322836Y-90065032D01*
X124300000Y-90120163D01*
X124066609Y-90120163D01*
X123900000Y-89953554D01*
X123703554Y-90150000D01*
X123500000Y-90150000D01*
X123500000Y-90120163D01*
X123477164Y-90065032D01*
X123434968Y-90022836D01*
X123379837Y-90000000D01*
X123320163Y-90000000D01*
X123265032Y-90022836D01*
X123222836Y-90065032D01*
X123200000Y-90120163D01*
X122966610Y-90120163D01*
X122672421Y-89825974D01*
X122672420Y-89825974D01*
X122628823Y-89931228D01*
X122628820Y-89931240D01*
X122600000Y-90076126D01*
X115535500Y-90076126D01*
X115535500Y-89099766D01*
X115535500Y-89099764D01*
X115494577Y-88947037D01*
X115455462Y-88879287D01*
X115415524Y-88810111D01*
X115415521Y-88810107D01*
X115415520Y-88810105D01*
X115320293Y-88714878D01*
X115313072Y-88702960D01*
X115304917Y-88696154D01*
X115296180Y-88675081D01*
X115295476Y-88673919D01*
X122049499Y-88673919D01*
X122078340Y-88818906D01*
X122078342Y-88818912D01*
X122134916Y-88955494D01*
X122217048Y-89078416D01*
X122217052Y-89078420D01*
X122217052Y-89078421D01*
X122494584Y-89355952D01*
X122494586Y-89355954D01*
X122511755Y-89367425D01*
X122540820Y-89386845D01*
X122617505Y-89438084D01*
X122617506Y-89438084D01*
X122617507Y-89438085D01*
X122744312Y-89490609D01*
X122754087Y-89494658D01*
X122754091Y-89494658D01*
X122754092Y-89494659D01*
X122899079Y-89523500D01*
X122899082Y-89523500D01*
X122899083Y-89523500D01*
X123025692Y-89523500D01*
X123092731Y-89543185D01*
X123113373Y-89559819D01*
X123350000Y-89796446D01*
X123586627Y-89559819D01*
X123647950Y-89526334D01*
X123674308Y-89523500D01*
X124125692Y-89523500D01*
X124192731Y-89543185D01*
X124213373Y-89559819D01*
X124450000Y-89796446D01*
X124686627Y-89559819D01*
X124747950Y-89526334D01*
X124774308Y-89523500D01*
X125225692Y-89523500D01*
X125292731Y-89543185D01*
X125313373Y-89559819D01*
X125550000Y-89796446D01*
X125786627Y-89559819D01*
X125847950Y-89526334D01*
X125874308Y-89523500D01*
X126325692Y-89523500D01*
X126392731Y-89543185D01*
X126413373Y-89559819D01*
X126826777Y-89973223D01*
X127327577Y-90474024D01*
X127327578Y-90474024D01*
X127371175Y-90368775D01*
X127371179Y-90368760D01*
X127399999Y-90223873D01*
X127400000Y-90223871D01*
X127400000Y-90076128D01*
X127399999Y-90076126D01*
X127371179Y-89931240D01*
X127371177Y-89931232D01*
X127314642Y-89794745D01*
X127314637Y-89794735D01*
X127262289Y-89716391D01*
X127241411Y-89649713D01*
X127259895Y-89582333D01*
X127311874Y-89535643D01*
X127365391Y-89523500D01*
X127776500Y-89523500D01*
X127843539Y-89543185D01*
X127889294Y-89595989D01*
X127900500Y-89647500D01*
X127900500Y-89805242D01*
X127900500Y-89805244D01*
X127900499Y-89805244D01*
X127929340Y-89950231D01*
X127929343Y-89950241D01*
X127985914Y-90086815D01*
X127985916Y-90086819D01*
X127998406Y-90105512D01*
X128012150Y-90126082D01*
X128068049Y-90209742D01*
X128068052Y-90209745D01*
X128357855Y-90499547D01*
X128391340Y-90560870D01*
X128394174Y-90587228D01*
X128394174Y-92268095D01*
X128374489Y-92335134D01*
X128373277Y-92336984D01*
X128366915Y-92346504D01*
X128366914Y-92346506D01*
X128310343Y-92483082D01*
X128310340Y-92483092D01*
X128281500Y-92628079D01*
X128281500Y-92628082D01*
X128281500Y-93326082D01*
X128281500Y-95831918D01*
X128281500Y-95831920D01*
X128281499Y-95831920D01*
X128310340Y-95976907D01*
X128310343Y-95976917D01*
X128366912Y-96113488D01*
X128366919Y-96113501D01*
X128449048Y-96236415D01*
X128449051Y-96236419D01*
X128553580Y-96340948D01*
X128553584Y-96340951D01*
X128676498Y-96423080D01*
X128676511Y-96423087D01*
X128813082Y-96479656D01*
X128813087Y-96479658D01*
X128813091Y-96479658D01*
X128813092Y-96479659D01*
X128958079Y-96508500D01*
X128958082Y-96508500D01*
X129105920Y-96508500D01*
X129203462Y-96489096D01*
X129250913Y-96479658D01*
X129387495Y-96423084D01*
X129510416Y-96340951D01*
X129614951Y-96236416D01*
X129697084Y-96113495D01*
X129753658Y-95976913D01*
X129768994Y-95899815D01*
X129782500Y-95831920D01*
X129782500Y-94308639D01*
X129802185Y-94241600D01*
X129854989Y-94195845D01*
X129859048Y-94194078D01*
X129919559Y-94169014D01*
X130050669Y-94081409D01*
X130162169Y-93969909D01*
X130249774Y-93838799D01*
X130310117Y-93693117D01*
X130340880Y-93538462D01*
X130340880Y-93380778D01*
X130340880Y-93380775D01*
X130340879Y-93380773D01*
X130331692Y-93334588D01*
X130310117Y-93226123D01*
X130280221Y-93153946D01*
X130249777Y-93080447D01*
X130249770Y-93080434D01*
X130162169Y-92949331D01*
X130162166Y-92949327D01*
X130050672Y-92837833D01*
X130050668Y-92837830D01*
X129928914Y-92756476D01*
X129884109Y-92702864D01*
X129875402Y-92633539D01*
X129876188Y-92629182D01*
X129895174Y-92533736D01*
X129895174Y-90416745D01*
X129897557Y-90392553D01*
X129898512Y-90387755D01*
X129906729Y-90346446D01*
X129920176Y-90278844D01*
X129920176Y-90121155D01*
X129920175Y-90121153D01*
X129914494Y-90092595D01*
X129889413Y-89966503D01*
X129882677Y-89950241D01*
X129829073Y-89820827D01*
X129829066Y-89820814D01*
X129741465Y-89689711D01*
X129741462Y-89689707D01*
X129629968Y-89578213D01*
X129629964Y-89578210D01*
X129498861Y-89490609D01*
X129498852Y-89490604D01*
X129478044Y-89481985D01*
X129423642Y-89438142D01*
X129401579Y-89371847D01*
X129401500Y-89367425D01*
X129401500Y-88699079D01*
X129372659Y-88554092D01*
X129372658Y-88554091D01*
X129372658Y-88554087D01*
X129372656Y-88554082D01*
X129316087Y-88417511D01*
X129316080Y-88417498D01*
X129233951Y-88294584D01*
X129233948Y-88294580D01*
X129183819Y-88244451D01*
X129150334Y-88183128D01*
X129147500Y-88156770D01*
X129147500Y-84951369D01*
X129137341Y-84900299D01*
X129134958Y-84876107D01*
X129134958Y-84828543D01*
X129123649Y-84771693D01*
X129129876Y-84702101D01*
X129172738Y-84646923D01*
X129238628Y-84623678D01*
X129245266Y-84623500D01*
X134395903Y-84623500D01*
X134462942Y-84643185D01*
X134483584Y-84659819D01*
X135634181Y-85810416D01*
X135667666Y-85871739D01*
X135670500Y-85898097D01*
X135670500Y-87058232D01*
X135650815Y-87125271D01*
X135649603Y-87127122D01*
X135628070Y-87159348D01*
X135573381Y-87291379D01*
X135573379Y-87291385D01*
X135545500Y-87431542D01*
X135545500Y-87431545D01*
X135545500Y-87574455D01*
X135545500Y-87574457D01*
X135545499Y-87574457D01*
X135573379Y-87714614D01*
X135573381Y-87714620D01*
X135628069Y-87846650D01*
X135628074Y-87846659D01*
X135707467Y-87965478D01*
X135707470Y-87965482D01*
X135808517Y-88066529D01*
X135808521Y-88066532D01*
X135927340Y-88145925D01*
X135927346Y-88145928D01*
X135927347Y-88145929D01*
X136059380Y-88200619D01*
X136059384Y-88200619D01*
X136059385Y-88200620D01*
X136199542Y-88228500D01*
X136199545Y-88228500D01*
X136342457Y-88228500D01*
X136444845Y-88208133D01*
X136482620Y-88200619D01*
X136614653Y-88145929D01*
X136733479Y-88066532D01*
X136834532Y-87965479D01*
X136913929Y-87846653D01*
X136968619Y-87714620D01*
X136987848Y-87617951D01*
X136996500Y-87574457D01*
X136996500Y-87431542D01*
X136968620Y-87291385D01*
X136968619Y-87291384D01*
X136968619Y-87291380D01*
X136913929Y-87159347D01*
X136892396Y-87127121D01*
X136871520Y-87060444D01*
X136871500Y-87058232D01*
X136871500Y-85518945D01*
X136871500Y-85518943D01*
X136836673Y-85388966D01*
X136838336Y-85319121D01*
X136868766Y-85269196D01*
X136899485Y-85238479D01*
X136978882Y-85119653D01*
X137033572Y-84987620D01*
X137050942Y-84900299D01*
X137061453Y-84847457D01*
X137061453Y-84704542D01*
X137033573Y-84564385D01*
X137033572Y-84564384D01*
X137033572Y-84564380D01*
X136978882Y-84432347D01*
X136915595Y-84337633D01*
X136898923Y-84300835D01*
X136895530Y-84288168D01*
X136877057Y-84256173D01*
X136851824Y-84212467D01*
X136851823Y-84212466D01*
X136820732Y-84158614D01*
X136816473Y-84151237D01*
X136789417Y-84124181D01*
X136755932Y-84062858D01*
X136760916Y-83993166D01*
X136802788Y-83937233D01*
X136868252Y-83912816D01*
X136877098Y-83912500D01*
X141642500Y-83912500D01*
X141709539Y-83932185D01*
X141755294Y-83984989D01*
X141766500Y-84036500D01*
X141766500Y-87543330D01*
X141766499Y-87543348D01*
X141766499Y-87709057D01*
X141767439Y-87716197D01*
X141768500Y-87732383D01*
X141768500Y-87828455D01*
X141768500Y-87828457D01*
X141768499Y-87828457D01*
X141796379Y-87968614D01*
X141796381Y-87968619D01*
X141851069Y-88100650D01*
X141851074Y-88100659D01*
X141930467Y-88219478D01*
X141930470Y-88219482D01*
X142031517Y-88320529D01*
X142031521Y-88320532D01*
X142150340Y-88399925D01*
X142150346Y-88399928D01*
X142150347Y-88399929D01*
X142282380Y-88454619D01*
X142282384Y-88454619D01*
X142282385Y-88454620D01*
X142422542Y-88482500D01*
X142422545Y-88482500D01*
X142565457Y-88482500D01*
X142659751Y-88463742D01*
X142705620Y-88454619D01*
X142837653Y-88399929D01*
X142956479Y-88320532D01*
X143057532Y-88219479D01*
X143122009Y-88122983D01*
X153218000Y-88122983D01*
X153218000Y-89423001D01*
X153218001Y-89423018D01*
X153228500Y-89525796D01*
X153228501Y-89525799D01*
X153245869Y-89578210D01*
X153283686Y-89692334D01*
X153375788Y-89841656D01*
X153499844Y-89965712D01*
X153649166Y-90057814D01*
X153659723Y-90061312D01*
X153717168Y-90101084D01*
X153743992Y-90165600D01*
X153731677Y-90234376D01*
X153693613Y-90279330D01*
X153688719Y-90282885D01*
X153688709Y-90282894D01*
X153538390Y-90433213D01*
X153413451Y-90605179D01*
X153316944Y-90794585D01*
X153251253Y-90996760D01*
X153218000Y-91206713D01*
X153218000Y-91419286D01*
X153251253Y-91629239D01*
X153316944Y-91831414D01*
X153413451Y-92020820D01*
X153538390Y-92192786D01*
X153688713Y-92343109D01*
X153860682Y-92468050D01*
X153869446Y-92472516D01*
X153920242Y-92520491D01*
X153937036Y-92588312D01*
X153914498Y-92654447D01*
X153869446Y-92693484D01*
X153860682Y-92697949D01*
X153688713Y-92822890D01*
X153538390Y-92973213D01*
X153413451Y-93145179D01*
X153316944Y-93334585D01*
X153251253Y-93536760D01*
X153230344Y-93668775D01*
X153218000Y-93746713D01*
X153218000Y-93959287D01*
X153219683Y-93969912D01*
X153251217Y-94169014D01*
X153251254Y-94169243D01*
X153306070Y-94337950D01*
X153316944Y-94371414D01*
X153413451Y-94560820D01*
X153538390Y-94732786D01*
X153688713Y-94883109D01*
X153860682Y-95008050D01*
X153869446Y-95012516D01*
X153920242Y-95060491D01*
X153937036Y-95128312D01*
X153914498Y-95194447D01*
X153869446Y-95233484D01*
X153860682Y-95237949D01*
X153688713Y-95362890D01*
X153538390Y-95513213D01*
X153413451Y-95685179D01*
X153316944Y-95874585D01*
X153251253Y-96076760D01*
X153218000Y-96286713D01*
X153218000Y-96499286D01*
X153241927Y-96650359D01*
X153251254Y-96709243D01*
X153290752Y-96830806D01*
X153316944Y-96911414D01*
X153413451Y-97100820D01*
X153538390Y-97272786D01*
X153688713Y-97423109D01*
X153860682Y-97548050D01*
X153869446Y-97552516D01*
X153920242Y-97600491D01*
X153937036Y-97668312D01*
X153914498Y-97734447D01*
X153869446Y-97773484D01*
X153860682Y-97777949D01*
X153688713Y-97902890D01*
X153538390Y-98053213D01*
X153413451Y-98225179D01*
X153316944Y-98414585D01*
X153251253Y-98616760D01*
X153218000Y-98826713D01*
X153218000Y-99039286D01*
X153251253Y-99249239D01*
X153316944Y-99451414D01*
X153413451Y-99640820D01*
X153538390Y-99812786D01*
X153688713Y-99963109D01*
X153860679Y-100088048D01*
X153860681Y-100088049D01*
X153860684Y-100088051D01*
X153869993Y-100092794D01*
X153920790Y-100140766D01*
X153937587Y-100208587D01*
X153915052Y-100274722D01*
X153870005Y-100313760D01*
X153860946Y-100318376D01*
X153860940Y-100318380D01*
X153806782Y-100357727D01*
X153806782Y-100357728D01*
X154439091Y-100990037D01*
X154375507Y-101007075D01*
X154261493Y-101072901D01*
X154168401Y-101165993D01*
X154102575Y-101280007D01*
X154085537Y-101343590D01*
X153453228Y-100711282D01*
X153453227Y-100711282D01*
X153413880Y-100765439D01*
X153317404Y-100954782D01*
X153251742Y-101156869D01*
X153251742Y-101156872D01*
X153218500Y-101366753D01*
X153218500Y-101579246D01*
X153251742Y-101789127D01*
X153251742Y-101789130D01*
X153317404Y-101991217D01*
X153413875Y-102180550D01*
X153453228Y-102234716D01*
X154085537Y-101602408D01*
X154102575Y-101665993D01*
X154168401Y-101780007D01*
X154261493Y-101873099D01*
X154375507Y-101938925D01*
X154439090Y-101955962D01*
X153806782Y-102588269D01*
X153806782Y-102588270D01*
X153860949Y-102627624D01*
X154050282Y-102724095D01*
X154252370Y-102789757D01*
X154462254Y-102823000D01*
X154674746Y-102823000D01*
X154884627Y-102789757D01*
X154884630Y-102789757D01*
X155086717Y-102724095D01*
X155276054Y-102627622D01*
X155330216Y-102588270D01*
X155330217Y-102588270D01*
X154697908Y-101955962D01*
X154761493Y-101938925D01*
X154875507Y-101873099D01*
X154968599Y-101780007D01*
X155034425Y-101665993D01*
X155051462Y-101602408D01*
X155683770Y-102234717D01*
X155683770Y-102234716D01*
X155723122Y-102180555D01*
X155727732Y-102171507D01*
X155775705Y-102120709D01*
X155843525Y-102103912D01*
X155909661Y-102126447D01*
X155948704Y-102171504D01*
X155953449Y-102180817D01*
X156078390Y-102352786D01*
X156228713Y-102503109D01*
X156400679Y-102628048D01*
X156400681Y-102628049D01*
X156400684Y-102628051D01*
X156590088Y-102724557D01*
X156792257Y-102790246D01*
X157002213Y-102823500D01*
X157002214Y-102823500D01*
X157214786Y-102823500D01*
X157214787Y-102823500D01*
X157424743Y-102790246D01*
X157626912Y-102724557D01*
X157816316Y-102628051D01*
X157838289Y-102612086D01*
X157988286Y-102503109D01*
X157988288Y-102503106D01*
X157988292Y-102503104D01*
X158138604Y-102352792D01*
X158138606Y-102352788D01*
X158138609Y-102352786D01*
X158263548Y-102180820D01*
X158263550Y-102180817D01*
X158263551Y-102180816D01*
X158360057Y-101991412D01*
X158425746Y-101789243D01*
X158459000Y-101579287D01*
X158459000Y-101366713D01*
X158425746Y-101156757D01*
X158360057Y-100954588D01*
X158263551Y-100765184D01*
X158263549Y-100765181D01*
X158263548Y-100765179D01*
X158138609Y-100593213D01*
X157988286Y-100442890D01*
X157816320Y-100317951D01*
X157808100Y-100313763D01*
X157807554Y-100313485D01*
X157756759Y-100265512D01*
X157739963Y-100197692D01*
X157762499Y-100131556D01*
X157807554Y-100092515D01*
X157816316Y-100088051D01*
X157838289Y-100072086D01*
X157988286Y-99963109D01*
X157988288Y-99963106D01*
X157988292Y-99963104D01*
X158138604Y-99812792D01*
X158138606Y-99812788D01*
X158138609Y-99812786D01*
X158263548Y-99640820D01*
X158263547Y-99640820D01*
X158263551Y-99640816D01*
X158360057Y-99451412D01*
X158425746Y-99249243D01*
X158459000Y-99039287D01*
X158459000Y-98826713D01*
X158425746Y-98616757D01*
X158360057Y-98414588D01*
X158263551Y-98225184D01*
X158263549Y-98225181D01*
X158263548Y-98225179D01*
X158138609Y-98053213D01*
X157988286Y-97902890D01*
X157816320Y-97777951D01*
X157815615Y-97777591D01*
X157807554Y-97773485D01*
X157756759Y-97725512D01*
X157739963Y-97657692D01*
X157762499Y-97591556D01*
X157807554Y-97552515D01*
X157816316Y-97548051D01*
X157977730Y-97430778D01*
X157988286Y-97423109D01*
X157988288Y-97423106D01*
X157988292Y-97423104D01*
X158138604Y-97272792D01*
X158138606Y-97272788D01*
X158138609Y-97272786D01*
X158263548Y-97100820D01*
X158263547Y-97100820D01*
X158263551Y-97100816D01*
X158360057Y-96911412D01*
X158425746Y-96709243D01*
X158459000Y-96499287D01*
X158459000Y-96286713D01*
X158425746Y-96076757D01*
X158360057Y-95874588D01*
X158263551Y-95685184D01*
X158263549Y-95685181D01*
X158263548Y-95685179D01*
X158138609Y-95513213D01*
X157988286Y-95362890D01*
X157816320Y-95237951D01*
X157815615Y-95237591D01*
X157807554Y-95233485D01*
X157756759Y-95185512D01*
X157739963Y-95117692D01*
X157762499Y-95051556D01*
X157807554Y-95012515D01*
X157816316Y-95008051D01*
X157838289Y-94992086D01*
X157988286Y-94883109D01*
X157988288Y-94883106D01*
X157988292Y-94883104D01*
X158138604Y-94732792D01*
X158138606Y-94732788D01*
X158138609Y-94732786D01*
X158263548Y-94560820D01*
X158263547Y-94560820D01*
X158263551Y-94560816D01*
X158360057Y-94371412D01*
X158425746Y-94169243D01*
X158459000Y-93959287D01*
X158459000Y-93746713D01*
X158425746Y-93536757D01*
X158360057Y-93334588D01*
X158263551Y-93145184D01*
X158263549Y-93145181D01*
X158263548Y-93145179D01*
X158138609Y-92973213D01*
X157988286Y-92822890D01*
X157816320Y-92697951D01*
X157815615Y-92697591D01*
X157807554Y-92693485D01*
X157756759Y-92645512D01*
X157739963Y-92577692D01*
X157762499Y-92511556D01*
X157807554Y-92472515D01*
X157816316Y-92468051D01*
X157877125Y-92423871D01*
X157988286Y-92343109D01*
X157988288Y-92343106D01*
X157988292Y-92343104D01*
X158138604Y-92192792D01*
X158138606Y-92192788D01*
X158138609Y-92192786D01*
X158259803Y-92025975D01*
X158263551Y-92020816D01*
X158360057Y-91831412D01*
X158425746Y-91629243D01*
X158459000Y-91419287D01*
X158459000Y-91206713D01*
X158425746Y-90996757D01*
X158360057Y-90794588D01*
X158263551Y-90605184D01*
X158263549Y-90605181D01*
X158263548Y-90605179D01*
X158138609Y-90433213D01*
X157988286Y-90282890D01*
X157816320Y-90157951D01*
X157815615Y-90157591D01*
X157807554Y-90153485D01*
X157756759Y-90105512D01*
X157739963Y-90037692D01*
X157762499Y-89971556D01*
X157807554Y-89932515D01*
X157816316Y-89928051D01*
X157838289Y-89912086D01*
X157988286Y-89803109D01*
X157988288Y-89803106D01*
X157988292Y-89803104D01*
X158138604Y-89652792D01*
X158138606Y-89652788D01*
X158138609Y-89652786D01*
X158263548Y-89480820D01*
X158263547Y-89480820D01*
X158263551Y-89480816D01*
X158360057Y-89291412D01*
X158425746Y-89089243D01*
X158459000Y-88879287D01*
X158459000Y-88666713D01*
X158425746Y-88456757D01*
X158360057Y-88254588D01*
X158263551Y-88065184D01*
X158263549Y-88065181D01*
X158263548Y-88065179D01*
X158138609Y-87893213D01*
X157988286Y-87742890D01*
X157816320Y-87617951D01*
X157626914Y-87521444D01*
X157626913Y-87521443D01*
X157626912Y-87521443D01*
X157424743Y-87455754D01*
X157424741Y-87455753D01*
X157424740Y-87455753D01*
X157261073Y-87429831D01*
X157214787Y-87422500D01*
X157002213Y-87422500D01*
X156955927Y-87429831D01*
X156792260Y-87455753D01*
X156590085Y-87521444D01*
X156400679Y-87617951D01*
X156228713Y-87742890D01*
X156078394Y-87893209D01*
X156078385Y-87893219D01*
X156074830Y-87898113D01*
X156019497Y-87940775D01*
X155949883Y-87946748D01*
X155888091Y-87914137D01*
X155856812Y-87864223D01*
X155853315Y-87853670D01*
X155853314Y-87853666D01*
X155761212Y-87704344D01*
X155637156Y-87580288D01*
X155525666Y-87511521D01*
X155487836Y-87488187D01*
X155487831Y-87488185D01*
X155408544Y-87461912D01*
X155321297Y-87433001D01*
X155321295Y-87433000D01*
X155218510Y-87422500D01*
X153918498Y-87422500D01*
X153918481Y-87422501D01*
X153815703Y-87433000D01*
X153815700Y-87433001D01*
X153649168Y-87488185D01*
X153649163Y-87488187D01*
X153499842Y-87580289D01*
X153375789Y-87704342D01*
X153283687Y-87853663D01*
X153283685Y-87853668D01*
X153276473Y-87875432D01*
X153228501Y-88020203D01*
X153228501Y-88020204D01*
X153228500Y-88020204D01*
X153218000Y-88122983D01*
X143122009Y-88122983D01*
X143136929Y-88100653D01*
X143191619Y-87968620D01*
X143206409Y-87894267D01*
X143219500Y-87828457D01*
X143219500Y-87685542D01*
X143191620Y-87545385D01*
X143191619Y-87545384D01*
X143191619Y-87545380D01*
X143136929Y-87413347D01*
X143136928Y-87413346D01*
X143136925Y-87413340D01*
X143057532Y-87294521D01*
X143057529Y-87294517D01*
X143003819Y-87240807D01*
X142970334Y-87179484D01*
X142967500Y-87153126D01*
X142967500Y-84503500D01*
X142987185Y-84436461D01*
X143039989Y-84390706D01*
X143091500Y-84379500D01*
X149014392Y-84379500D01*
X149076391Y-84396112D01*
X149098129Y-84408663D01*
X149250856Y-84449587D01*
X149250858Y-84449587D01*
X149416567Y-84449587D01*
X149416583Y-84449586D01*
X149719590Y-84449586D01*
X149719606Y-84449587D01*
X149727202Y-84449587D01*
X149885313Y-84449587D01*
X149885316Y-84449587D01*
X150038044Y-84408663D01*
X150053049Y-84400000D01*
X150059782Y-84396113D01*
X150121782Y-84379500D01*
X153279126Y-84379500D01*
X153346165Y-84399185D01*
X153366807Y-84415819D01*
X153461517Y-84510529D01*
X153461521Y-84510532D01*
X153580340Y-84589925D01*
X153580346Y-84589928D01*
X153580347Y-84589929D01*
X153712380Y-84644619D01*
X153712384Y-84644619D01*
X153712385Y-84644620D01*
X153852542Y-84672500D01*
X153852545Y-84672500D01*
X153995457Y-84672500D01*
X154089751Y-84653742D01*
X154135620Y-84644619D01*
X154267653Y-84589929D01*
X154386479Y-84510532D01*
X154487532Y-84409479D01*
X154566929Y-84290653D01*
X154621619Y-84158620D01*
X154649500Y-84018455D01*
X154649500Y-83875545D01*
X154649500Y-83875542D01*
X154621620Y-83735385D01*
X154621619Y-83735384D01*
X154621619Y-83735380D01*
X154566929Y-83603347D01*
X154566928Y-83603346D01*
X154566925Y-83603340D01*
X154487532Y-83484521D01*
X154487529Y-83484517D01*
X154386482Y-83383470D01*
X154386478Y-83383467D01*
X154267659Y-83304074D01*
X154267650Y-83304069D01*
X154135620Y-83249381D01*
X154135614Y-83249379D01*
X153999751Y-83222354D01*
X153991849Y-83220512D01*
X153987785Y-83219423D01*
X153835057Y-83178499D01*
X153676943Y-83178499D01*
X153669347Y-83178499D01*
X153669331Y-83178500D01*
X150390550Y-83178500D01*
X150323511Y-83158815D01*
X150277756Y-83106011D01*
X150268933Y-83078692D01*
X150265706Y-83062471D01*
X150265705Y-83062470D01*
X150265705Y-83062466D01*
X150211015Y-82930433D01*
X150211014Y-82930432D01*
X150211011Y-82930426D01*
X150131618Y-82811607D01*
X150131615Y-82811603D01*
X150030565Y-82710553D01*
X149917510Y-82635013D01*
X149872705Y-82581401D01*
X149864786Y-82556110D01*
X149853036Y-82497039D01*
X149798346Y-82365006D01*
X149798345Y-82365005D01*
X149798342Y-82364999D01*
X149718949Y-82246180D01*
X149718946Y-82246176D01*
X149617899Y-82145129D01*
X149617895Y-82145126D01*
X149499076Y-82065733D01*
X149499067Y-82065728D01*
X149367035Y-82011039D01*
X149367031Y-82011038D01*
X149329025Y-82003478D01*
X149267114Y-81971092D01*
X149265536Y-81969542D01*
X149217475Y-81921481D01*
X149217474Y-81921480D01*
X149116917Y-81863424D01*
X149116916Y-81863423D01*
X149080541Y-81842422D01*
X149024639Y-81827443D01*
X148927815Y-81801499D01*
X148769701Y-81801499D01*
X148762105Y-81801499D01*
X148762089Y-81801500D01*
X135258680Y-81801500D01*
X135217765Y-81812463D01*
X135217762Y-81812465D01*
X135196081Y-81818274D01*
X135163988Y-81822500D01*
X127579197Y-81822500D01*
X127538276Y-81833464D01*
X127538276Y-81833465D01*
X127504849Y-81842422D01*
X127426471Y-81863423D01*
X127426466Y-81863426D01*
X127289547Y-81942475D01*
X127289539Y-81942481D01*
X127177735Y-82054286D01*
X123930349Y-85301673D01*
X123818544Y-85413477D01*
X123818540Y-85413482D01*
X123772429Y-85493351D01*
X123772428Y-85493350D01*
X123739487Y-85550406D01*
X123739486Y-85550410D01*
X123698562Y-85703138D01*
X123698562Y-85703140D01*
X123698562Y-85871241D01*
X123698563Y-85871254D01*
X123698563Y-86531304D01*
X123678878Y-86598343D01*
X123662244Y-86618985D01*
X122936961Y-87344268D01*
X122936959Y-87344270D01*
X122887499Y-87393730D01*
X122825154Y-87456074D01*
X122801302Y-87497387D01*
X122781598Y-87523065D01*
X122742144Y-87562519D01*
X122742140Y-87562524D01*
X122662749Y-87681340D01*
X122662744Y-87681349D01*
X122608054Y-87813383D01*
X122606412Y-87818796D01*
X122568106Y-87877229D01*
X122535210Y-87897345D01*
X122444506Y-87934916D01*
X122444502Y-87934918D01*
X122394072Y-87968614D01*
X122321584Y-88017048D01*
X122321582Y-88017049D01*
X122321579Y-88017052D01*
X122321578Y-88017052D01*
X122217052Y-88121578D01*
X122217052Y-88121579D01*
X122217049Y-88121582D01*
X122217048Y-88121584D01*
X122200782Y-88145929D01*
X122134918Y-88244502D01*
X122134914Y-88244509D01*
X122078342Y-88381087D01*
X122078340Y-88381093D01*
X122049500Y-88526080D01*
X122049500Y-88526083D01*
X122049500Y-88673917D01*
X122049500Y-88673919D01*
X122049499Y-88673919D01*
X115295476Y-88673919D01*
X115289664Y-88664326D01*
X115287664Y-88657953D01*
X115278798Y-88613380D01*
X115256240Y-88558922D01*
X115256061Y-88557251D01*
X115256020Y-88557120D01*
X115256014Y-88556814D01*
X115248774Y-88489453D01*
X115256242Y-88464020D01*
X115308749Y-88337258D01*
X115317872Y-88291389D01*
X115336630Y-88197095D01*
X115336630Y-88054180D01*
X115308750Y-87914023D01*
X115308749Y-87914022D01*
X115308749Y-87914018D01*
X115254059Y-87781985D01*
X115254058Y-87781984D01*
X115254055Y-87781978D01*
X115174662Y-87663159D01*
X115174659Y-87663155D01*
X115129989Y-87618485D01*
X115096504Y-87557162D01*
X115101488Y-87487470D01*
X115114569Y-87461912D01*
X115117529Y-87457481D01*
X115117532Y-87457479D01*
X115196929Y-87338653D01*
X115251619Y-87206620D01*
X115262260Y-87153126D01*
X115279500Y-87066457D01*
X115279500Y-86923542D01*
X115251620Y-86783385D01*
X115251619Y-86783384D01*
X115251619Y-86783380D01*
X115196929Y-86651347D01*
X115196928Y-86651346D01*
X115196925Y-86651340D01*
X115192950Y-86645391D01*
X115172072Y-86578713D01*
X115190557Y-86511333D01*
X115242535Y-86464643D01*
X115296052Y-86452500D01*
X118173233Y-86452500D01*
X118240272Y-86472185D01*
X118242124Y-86473398D01*
X118274348Y-86494930D01*
X118340363Y-86522274D01*
X118406380Y-86549619D01*
X118406384Y-86549619D01*
X118406385Y-86549620D01*
X118546542Y-86577500D01*
X118546545Y-86577500D01*
X118689457Y-86577500D01*
X118783751Y-86558742D01*
X118829620Y-86549619D01*
X118961653Y-86494929D01*
X119080479Y-86415532D01*
X119181532Y-86314479D01*
X119260929Y-86195653D01*
X119315619Y-86063620D01*
X119324742Y-86017751D01*
X119343500Y-85923457D01*
X119343500Y-85780542D01*
X119315620Y-85640385D01*
X119315619Y-85640384D01*
X119315619Y-85640380D01*
X119260929Y-85508347D01*
X119260928Y-85508346D01*
X119260925Y-85508340D01*
X119181532Y-85389521D01*
X119181529Y-85389517D01*
X119080482Y-85288470D01*
X119080478Y-85288467D01*
X118961659Y-85209074D01*
X118961650Y-85209069D01*
X118829620Y-85154381D01*
X118829614Y-85154379D01*
X118683480Y-85125311D01*
X118683805Y-85123672D01*
X118626456Y-85100501D01*
X118586108Y-85043459D01*
X118583005Y-84973659D01*
X118603099Y-84930388D01*
X118694093Y-84805147D01*
X118783418Y-84629837D01*
X118844218Y-84442716D01*
X118850984Y-84400000D01*
X118000278Y-84400000D01*
X118044333Y-84323694D01*
X118075000Y-84209244D01*
X118075000Y-84090756D01*
X118044333Y-83976306D01*
X118000278Y-83900000D01*
X118850984Y-83900000D01*
X118844218Y-83857283D01*
X118783418Y-83670162D01*
X118694095Y-83494856D01*
X118578444Y-83335678D01*
X118439321Y-83196555D01*
X118280143Y-83080904D01*
X118104835Y-82991581D01*
X117917705Y-82930778D01*
X117723382Y-82900000D01*
X116975000Y-82900000D01*
X116975000Y-83700000D01*
X116475000Y-83700000D01*
X116475000Y-82900000D01*
X115726618Y-82900000D01*
X115532294Y-82930778D01*
X115345164Y-82991581D01*
X115169856Y-83080904D01*
X115010678Y-83196555D01*
X114871555Y-83335678D01*
X114755904Y-83494856D01*
X114666581Y-83670162D01*
X114605781Y-83857283D01*
X114599016Y-83900000D01*
X115449722Y-83900000D01*
X115405667Y-83976306D01*
X115375000Y-84090756D01*
X115375000Y-84209244D01*
X115405667Y-84323694D01*
X115449722Y-84400000D01*
X114599016Y-84400000D01*
X114605781Y-84442716D01*
X114666581Y-84629837D01*
X114755904Y-84805143D01*
X114871555Y-84964321D01*
X114947053Y-85039819D01*
X114980538Y-85101142D01*
X114975554Y-85170834D01*
X114933682Y-85226767D01*
X114868218Y-85251184D01*
X114859372Y-85251500D01*
X114511655Y-85251500D01*
X114511639Y-85251499D01*
X114504043Y-85251499D01*
X114345928Y-85251499D01*
X114279887Y-85269195D01*
X114193199Y-85292423D01*
X114193194Y-85292426D01*
X114056275Y-85371475D01*
X114056267Y-85371481D01*
X111533481Y-87894267D01*
X111533477Y-87894272D01*
X111490554Y-87968619D01*
X111490554Y-87968620D01*
X111454423Y-88031199D01*
X111445318Y-88065179D01*
X111413499Y-88183928D01*
X111413499Y-88183930D01*
X111413499Y-88352031D01*
X111413500Y-88352044D01*
X111413500Y-97276000D01*
X111393815Y-97343039D01*
X111341011Y-97388794D01*
X111289500Y-97400000D01*
X111015000Y-97400000D01*
X111015000Y-98200000D01*
X110515000Y-98200000D01*
X110515000Y-97400000D01*
X110066618Y-97400000D01*
X109872294Y-97430778D01*
X109685164Y-97491581D01*
X109509856Y-97580904D01*
X109350678Y-97696555D01*
X109211555Y-97835678D01*
X109095904Y-97994856D01*
X109006581Y-98170162D01*
X108945781Y-98357283D01*
X108939016Y-98400000D01*
X109789722Y-98400000D01*
X109745667Y-98476306D01*
X109715000Y-98590756D01*
X109715000Y-98709244D01*
X109745667Y-98823694D01*
X109789722Y-98900000D01*
X108939016Y-98900000D01*
X108945781Y-98942716D01*
X109006581Y-99129837D01*
X109095904Y-99305143D01*
X109211555Y-99464321D01*
X109350678Y-99603444D01*
X109509856Y-99719095D01*
X109685164Y-99808418D01*
X109872294Y-99869221D01*
X110066618Y-99900000D01*
X110515000Y-99900000D01*
X110515000Y-99100000D01*
X111015000Y-99100000D01*
X111015000Y-99900000D01*
X111463382Y-99900000D01*
X111657699Y-99869222D01*
X111661541Y-99868300D01*
X111731324Y-99871784D01*
X111788145Y-99912442D01*
X111813965Y-99977366D01*
X111814500Y-99988871D01*
X111814500Y-105216330D01*
X111814499Y-105216348D01*
X111814499Y-105382054D01*
X111814498Y-105382054D01*
X111855423Y-105534787D01*
X111861279Y-105544929D01*
X111861281Y-105544931D01*
X111934477Y-105671712D01*
X111934481Y-105671717D01*
X112053349Y-105790585D01*
X112053355Y-105790590D01*
X114825185Y-108562420D01*
X114858670Y-108623743D01*
X114853686Y-108693435D01*
X114811814Y-108749368D01*
X114746350Y-108773785D01*
X114737981Y-108774100D01*
X108124477Y-108799521D01*
X108057362Y-108780094D01*
X108011404Y-108727467D01*
X108000000Y-108675522D01*
X108000000Y-83900000D01*
X108939016Y-83900000D01*
X109789722Y-83900000D01*
X109745667Y-83976306D01*
X109715000Y-84090756D01*
X109715000Y-84209244D01*
X109745667Y-84323694D01*
X109789722Y-84400000D01*
X108939016Y-84400000D01*
X108945781Y-84442716D01*
X109006581Y-84629837D01*
X109095904Y-84805143D01*
X109211555Y-84964321D01*
X109350678Y-85103444D01*
X109509856Y-85219095D01*
X109685164Y-85308418D01*
X109872294Y-85369221D01*
X110066618Y-85400000D01*
X110515000Y-85400000D01*
X110515000Y-84600000D01*
X111015000Y-84600000D01*
X111015000Y-85400000D01*
X111463382Y-85400000D01*
X111657705Y-85369221D01*
X111844835Y-85308418D01*
X112020143Y-85219095D01*
X112179321Y-85103444D01*
X112318444Y-84964321D01*
X112434095Y-84805143D01*
X112523418Y-84629837D01*
X112584218Y-84442716D01*
X112590984Y-84400000D01*
X111740278Y-84400000D01*
X111784333Y-84323694D01*
X111815000Y-84209244D01*
X111815000Y-84090756D01*
X111784333Y-83976306D01*
X111740278Y-83900000D01*
X112590984Y-83900000D01*
X112584218Y-83857283D01*
X112523418Y-83670162D01*
X112434095Y-83494856D01*
X112318444Y-83335678D01*
X112179321Y-83196555D01*
X112020143Y-83080904D01*
X111844835Y-82991581D01*
X111657705Y-82930778D01*
X111463382Y-82900000D01*
X111015000Y-82900000D01*
X111015000Y-83700000D01*
X110515000Y-83700000D01*
X110515000Y-82900000D01*
X110066618Y-82900000D01*
X109872294Y-82930778D01*
X109685164Y-82991581D01*
X109509856Y-83080904D01*
X109350678Y-83196555D01*
X109211555Y-83335678D01*
X109095904Y-83494856D01*
X109006581Y-83670162D01*
X108945781Y-83857283D01*
X108939016Y-83900000D01*
X108000000Y-83900000D01*
X108000000Y-81723524D01*
X108019685Y-81656485D01*
X108072489Y-81610730D01*
X108123522Y-81599525D01*
X159907524Y-81400478D01*
X159974638Y-81419905D01*
G37*
%TD.AperFunction*%
%TA.AperFunction,Conductor*%
G36*
X124589401Y-98200501D02*
G01*
X124751500Y-98200501D01*
X124818539Y-98220186D01*
X124864294Y-98272990D01*
X124875500Y-98324501D01*
X124875500Y-100901232D01*
X124855815Y-100968271D01*
X124854603Y-100970122D01*
X124833070Y-101002348D01*
X124778381Y-101134379D01*
X124778379Y-101134385D01*
X124750500Y-101274542D01*
X124750500Y-101274545D01*
X124750500Y-101417455D01*
X124750500Y-101417457D01*
X124750499Y-101417457D01*
X124778379Y-101557614D01*
X124778381Y-101557620D01*
X124833069Y-101689650D01*
X124833074Y-101689659D01*
X124912467Y-101808478D01*
X124912470Y-101808482D01*
X125013517Y-101909529D01*
X125013521Y-101909532D01*
X125132340Y-101988925D01*
X125132349Y-101988930D01*
X125138341Y-101991412D01*
X125264380Y-102043619D01*
X125264384Y-102043619D01*
X125264385Y-102043620D01*
X125404542Y-102071500D01*
X125404545Y-102071500D01*
X125547457Y-102071500D01*
X125641751Y-102052742D01*
X125687620Y-102043619D01*
X125819653Y-101988929D01*
X125938479Y-101909532D01*
X126039532Y-101808479D01*
X126118929Y-101689653D01*
X126173619Y-101557620D01*
X126190451Y-101473000D01*
X126201500Y-101417457D01*
X126201500Y-101274542D01*
X126173620Y-101134385D01*
X126173619Y-101134384D01*
X126173619Y-101134380D01*
X126118929Y-101002347D01*
X126097396Y-100970121D01*
X126076520Y-100903444D01*
X126076500Y-100901232D01*
X126076500Y-100809097D01*
X126096185Y-100742058D01*
X126148989Y-100696303D01*
X126218147Y-100686359D01*
X126281703Y-100715384D01*
X126288181Y-100721416D01*
X127520594Y-101953829D01*
X127554079Y-102015152D01*
X127556913Y-102041510D01*
X127556913Y-102167042D01*
X127556913Y-102167044D01*
X127556912Y-102167044D01*
X127584792Y-102307201D01*
X127584794Y-102307207D01*
X127639482Y-102439237D01*
X127639487Y-102439246D01*
X127718880Y-102558065D01*
X127718883Y-102558069D01*
X127819930Y-102659116D01*
X127819934Y-102659119D01*
X127938753Y-102738512D01*
X127938759Y-102738515D01*
X127938760Y-102738516D01*
X128070793Y-102793206D01*
X128070797Y-102793206D01*
X128070798Y-102793207D01*
X128210955Y-102821087D01*
X128210958Y-102821087D01*
X128353870Y-102821087D01*
X128448164Y-102802329D01*
X128494033Y-102793206D01*
X128626066Y-102738516D01*
X128626071Y-102738512D01*
X128626074Y-102738511D01*
X128676159Y-102705045D01*
X128699237Y-102689624D01*
X128765913Y-102668746D01*
X128833294Y-102687230D01*
X128855809Y-102705045D01*
X128903181Y-102752417D01*
X128936666Y-102813740D01*
X128939500Y-102840098D01*
X128939500Y-105178330D01*
X128939499Y-105178348D01*
X128939499Y-105344054D01*
X128939498Y-105344054D01*
X128949243Y-105380420D01*
X128976463Y-105482007D01*
X128980424Y-105496787D01*
X128998156Y-105527499D01*
X128998157Y-105527501D01*
X129059477Y-105633712D01*
X129059481Y-105633717D01*
X129178349Y-105752585D01*
X129178355Y-105752590D01*
X129651584Y-106225819D01*
X129685069Y-106287142D01*
X129680085Y-106356834D01*
X129638213Y-106412767D01*
X129572749Y-106437184D01*
X129563903Y-106437500D01*
X125584229Y-106437500D01*
X125517190Y-106417815D01*
X125496548Y-106401181D01*
X123414421Y-104319052D01*
X123414418Y-104319050D01*
X123414417Y-104319049D01*
X123414416Y-104319048D01*
X123291494Y-104236916D01*
X123291492Y-104236915D01*
X123291490Y-104236914D01*
X123154912Y-104180342D01*
X123154906Y-104180340D01*
X123009919Y-104151500D01*
X123009917Y-104151500D01*
X122862083Y-104151500D01*
X122862081Y-104151500D01*
X122717093Y-104180340D01*
X122717087Y-104180342D01*
X122580509Y-104236914D01*
X122580502Y-104236918D01*
X122518628Y-104278260D01*
X122457584Y-104319048D01*
X122457583Y-104319049D01*
X122457582Y-104319050D01*
X122457578Y-104319052D01*
X122353052Y-104423578D01*
X122353052Y-104423579D01*
X122353049Y-104423582D01*
X122353048Y-104423584D01*
X122333897Y-104452246D01*
X122270918Y-104546502D01*
X122270914Y-104546509D01*
X122214342Y-104683087D01*
X122214340Y-104683093D01*
X122185500Y-104828080D01*
X122185500Y-104828082D01*
X122185500Y-104828083D01*
X122185500Y-104975917D01*
X122185500Y-104975919D01*
X122185499Y-104975919D01*
X122214340Y-105120906D01*
X122214342Y-105120912D01*
X122257018Y-105223943D01*
X122270916Y-105257494D01*
X122353048Y-105380416D01*
X122353051Y-105380419D01*
X122353052Y-105380420D01*
X122353052Y-105380421D01*
X123898452Y-106925819D01*
X123931937Y-106987142D01*
X123926953Y-107056833D01*
X123885081Y-107112767D01*
X123819617Y-107137184D01*
X123810771Y-107137500D01*
X116281470Y-107137500D01*
X116214431Y-107117815D01*
X116193789Y-107101181D01*
X113851819Y-104759211D01*
X113818334Y-104697888D01*
X113815500Y-104671530D01*
X113815500Y-101441583D01*
X113835185Y-101374544D01*
X113887989Y-101328789D01*
X113915309Y-101319966D01*
X113931837Y-101316677D01*
X113957707Y-101311532D01*
X114089740Y-101256842D01*
X114208566Y-101177445D01*
X114309619Y-101076392D01*
X114389016Y-100957566D01*
X114443706Y-100825533D01*
X114455711Y-100765179D01*
X114471587Y-100685370D01*
X114471587Y-100542455D01*
X114443707Y-100402298D01*
X114443706Y-100402297D01*
X114443706Y-100402293D01*
X114389016Y-100270260D01*
X114367483Y-100238034D01*
X114346607Y-100171357D01*
X114346587Y-100169145D01*
X114346587Y-98881804D01*
X114366272Y-98814765D01*
X114419076Y-98769010D01*
X114488234Y-98759066D01*
X114551790Y-98788091D01*
X114589564Y-98846869D01*
X114593060Y-98862406D01*
X114605778Y-98942705D01*
X114666581Y-99129835D01*
X114755904Y-99305143D01*
X114871555Y-99464321D01*
X115010678Y-99603444D01*
X115169856Y-99719095D01*
X115345164Y-99808418D01*
X115532294Y-99869221D01*
X115726618Y-99900000D01*
X116475000Y-99900000D01*
X116475000Y-99100000D01*
X116975000Y-99100000D01*
X116975000Y-99900000D01*
X117723382Y-99900000D01*
X117917705Y-99869221D01*
X118104835Y-99808418D01*
X118280143Y-99719095D01*
X118439321Y-99603444D01*
X118578444Y-99464321D01*
X118694095Y-99305143D01*
X118783418Y-99129837D01*
X118844218Y-98942716D01*
X118850984Y-98900000D01*
X118000278Y-98900000D01*
X118044333Y-98823694D01*
X118075000Y-98709244D01*
X118075000Y-98590756D01*
X118044333Y-98476306D01*
X118000278Y-98400000D01*
X118850984Y-98400000D01*
X118844217Y-98357272D01*
X118843295Y-98353429D01*
X118846796Y-98283647D01*
X118887468Y-98226836D01*
X118952398Y-98201032D01*
X118963873Y-98200500D01*
X124589385Y-98200500D01*
X124589401Y-98200501D01*
G37*
%TD.AperFunction*%
%TA.AperFunction,Conductor*%
G36*
X133365270Y-103896717D02*
G01*
X133365270Y-103896716D01*
X133404622Y-103842555D01*
X133409232Y-103833507D01*
X133457205Y-103782709D01*
X133525025Y-103765912D01*
X133591161Y-103788447D01*
X133630204Y-103833504D01*
X133634949Y-103842817D01*
X133759890Y-104014786D01*
X133910213Y-104165109D01*
X134082182Y-104290050D01*
X134090946Y-104294516D01*
X134141742Y-104342491D01*
X134158536Y-104410312D01*
X134135998Y-104476447D01*
X134090946Y-104515484D01*
X134082182Y-104519949D01*
X133910215Y-104644889D01*
X133796673Y-104758431D01*
X133735350Y-104791915D01*
X133665658Y-104786931D01*
X133609725Y-104745059D01*
X133592810Y-104714082D01*
X133543797Y-104582671D01*
X133543793Y-104582664D01*
X133457547Y-104467455D01*
X133457544Y-104467452D01*
X133342335Y-104381206D01*
X133342328Y-104381202D01*
X133207482Y-104330908D01*
X133207483Y-104330908D01*
X133147883Y-104324501D01*
X133147881Y-104324500D01*
X133147873Y-104324500D01*
X133147865Y-104324500D01*
X133137309Y-104324500D01*
X133070270Y-104304815D01*
X133049628Y-104288181D01*
X132379408Y-103617962D01*
X132442993Y-103600925D01*
X132557007Y-103535099D01*
X132650099Y-103442007D01*
X132715925Y-103327993D01*
X132732962Y-103264408D01*
X133365270Y-103896717D01*
G37*
%TD.AperFunction*%
%TD*%
M02*
