%TF.GenerationSoftware,KiCad,Pcbnew,9.0.8+dfsg-1*%
%TF.CreationDate,2026-07-27T01:00:59+02:00*%
%TF.ProjectId,HDMItest,48444d49-7465-4737-942e-6b696361645f,rev?*%
%TF.SameCoordinates,Original*%
%TF.FileFunction,Soldermask,Top*%
%TF.FilePolarity,Negative*%
%FSLAX46Y46*%
G04 Gerber Fmt 4.6, Leading zero omitted, Abs format (unit mm)*
G04 Created by KiCad (PCBNEW 9.0.8+dfsg-1) date 2026-07-27 01:00:59*
%MOMM*%
%LPD*%
G01*
G04 APERTURE LIST*
G04 Aperture macros list*
%AMRoundRect*
0 Rectangle with rounded corners*
0 $1 Rounding radius*
0 $2 $3 $4 $5 $6 $7 $8 $9 X,Y pos of 4 corners*
0 Add a 4 corners polygon primitive as box body*
4,1,4,$2,$3,$4,$5,$6,$7,$8,$9,$2,$3,0*
0 Add four circle primitives for the rounded corners*
1,1,$1+$1,$2,$3*
1,1,$1+$1,$4,$5*
1,1,$1+$1,$6,$7*
1,1,$1+$1,$8,$9*
0 Add four rect primitives between the rounded corners*
20,1,$1+$1,$2,$3,$4,$5,0*
20,1,$1+$1,$4,$5,$6,$7,0*
20,1,$1+$1,$6,$7,$8,$9,0*
20,1,$1+$1,$8,$9,$2,$3,0*%
%AMFreePoly0*
4,1,23,0.500000,-0.750000,0.000000,-0.750000,0.000000,-0.745722,-0.065263,-0.745722,-0.191342,-0.711940,-0.304381,-0.646677,-0.396677,-0.554381,-0.461940,-0.441342,-0.495722,-0.315263,-0.495722,-0.250000,-0.500000,-0.250000,-0.500000,0.250000,-0.495722,0.250000,-0.495722,0.315263,-0.461940,0.441342,-0.396677,0.554381,-0.304381,0.646677,-0.191342,0.711940,-0.065263,0.745722,0.000000,0.745722,
0.000000,0.750000,0.500000,0.750000,0.500000,-0.750000,0.500000,-0.750000,$1*%
%AMFreePoly1*
4,1,23,0.000000,0.745722,0.065263,0.745722,0.191342,0.711940,0.304381,0.646677,0.396677,0.554381,0.461940,0.441342,0.495722,0.315263,0.495722,0.250000,0.500000,0.250000,0.500000,-0.250000,0.495722,-0.250000,0.495722,-0.315263,0.461940,-0.441342,0.396677,-0.554381,0.304381,-0.646677,0.191342,-0.711940,0.065263,-0.745722,0.000000,-0.745722,0.000000,-0.750000,-0.500000,-0.750000,
-0.500000,0.750000,0.000000,0.750000,0.000000,0.745722,0.000000,0.745722,$1*%
G04 Aperture macros list end*
%ADD10RoundRect,0.237500X0.237500X-0.250000X0.237500X0.250000X-0.237500X0.250000X-0.237500X-0.250000X0*%
%ADD11RoundRect,0.237500X0.250000X0.237500X-0.250000X0.237500X-0.250000X-0.237500X0.250000X-0.237500X0*%
%ADD12FreePoly0,180.000000*%
%ADD13FreePoly1,180.000000*%
%ADD14FreePoly0,0.000000*%
%ADD15FreePoly1,0.000000*%
%ADD16RoundRect,0.050000X0.325000X0.050000X-0.325000X0.050000X-0.325000X-0.050000X0.325000X-0.050000X0*%
%ADD17RoundRect,0.050000X0.050000X0.325000X-0.050000X0.325000X-0.050000X-0.325000X0.050000X-0.325000X0*%
%ADD18R,1.250000X3.500000*%
%ADD19RoundRect,0.237500X-0.237500X0.250000X-0.237500X-0.250000X0.237500X-0.250000X0.237500X0.250000X0*%
%ADD20FreePoly0,270.000000*%
%ADD21FreePoly1,270.000000*%
%ADD22RoundRect,0.237500X0.300000X0.237500X-0.300000X0.237500X-0.300000X-0.237500X0.300000X-0.237500X0*%
%ADD23RoundRect,0.250000X-0.475000X0.337500X-0.475000X-0.337500X0.475000X-0.337500X0.475000X0.337500X0*%
%ADD24R,2.600000X0.300000*%
%ADD25O,3.300000X1.500000*%
%ADD26O,2.700000X1.500000*%
%ADD27R,1.700000X1.700000*%
%ADD28C,1.700000*%
%ADD29FreePoly0,90.000000*%
%ADD30FreePoly1,90.000000*%
%ADD31RoundRect,0.237500X-0.300000X-0.237500X0.300000X-0.237500X0.300000X0.237500X-0.300000X0.237500X0*%
%ADD32RoundRect,0.237500X0.237500X-0.300000X0.237500X0.300000X-0.237500X0.300000X-0.237500X-0.300000X0*%
%ADD33RoundRect,0.250000X-0.600000X-0.600000X0.600000X-0.600000X0.600000X0.600000X-0.600000X0.600000X0*%
G04 APERTURE END LIST*
%TO.C,JP11*%
G36*
X132350000Y-85950000D02*
G01*
X132050000Y-85950000D01*
X132050000Y-84450000D01*
X132350000Y-84450000D01*
X132350000Y-85950000D01*
G37*
%TO.C,JP10*%
G36*
X132050000Y-81450000D02*
G01*
X132350000Y-81450000D01*
X132350000Y-82950000D01*
X132050000Y-82950000D01*
X132050000Y-81450000D01*
G37*
%TO.C,JP9*%
G36*
X112550000Y-106950000D02*
G01*
X112250000Y-106950000D01*
X112250000Y-105450000D01*
X112550000Y-105450000D01*
X112550000Y-106950000D01*
G37*
%TO.C,JP8*%
G36*
X112550000Y-103350000D02*
G01*
X112250000Y-103350000D01*
X112250000Y-101850000D01*
X112550000Y-101850000D01*
X112550000Y-103350000D01*
G37*
%TO.C,JP7*%
G36*
X126950000Y-86000000D02*
G01*
X125450000Y-86000000D01*
X125450000Y-86300000D01*
X126950000Y-86300000D01*
X126950000Y-86000000D01*
G37*
%TO.C,JP6*%
G36*
X121750000Y-86000000D02*
G01*
X120250000Y-86000000D01*
X120250000Y-86300000D01*
X121750000Y-86300000D01*
X121750000Y-86000000D01*
G37*
%TO.C,JP5*%
G36*
X142350000Y-86150000D02*
G01*
X142050000Y-86150000D01*
X142050000Y-84650000D01*
X142350000Y-84650000D01*
X142350000Y-86150000D01*
G37*
%TO.C,JP3*%
G36*
X142350000Y-83350000D02*
G01*
X142050000Y-83350000D01*
X142050000Y-81850000D01*
X142350000Y-81850000D01*
X142350000Y-83350000D01*
G37*
%TO.C,JP4*%
G36*
X120650000Y-100287500D02*
G01*
X122150000Y-100287500D01*
X122150000Y-99987500D01*
X120650000Y-99987500D01*
X120650000Y-100287500D01*
G37*
%TO.C,JP2*%
G36*
X124350000Y-86000000D02*
G01*
X122850000Y-86000000D01*
X122850000Y-86300000D01*
X124350000Y-86300000D01*
X124350000Y-86000000D01*
G37*
%TD*%
D10*
%TO.C,R11*%
X146200000Y-94912500D03*
X146200000Y-93087500D03*
%TD*%
D11*
%TO.C,R10*%
X136912500Y-85800000D03*
X135087500Y-85800000D03*
%TD*%
D10*
%TO.C,R9*%
X128800000Y-83512500D03*
X128800000Y-81687500D03*
%TD*%
D11*
%TO.C,R8*%
X117312500Y-105800000D03*
X115487500Y-105800000D03*
%TD*%
%TO.C,R7*%
X117262500Y-102530000D03*
X115437500Y-102530000D03*
%TD*%
D12*
%TO.C,JP11*%
X132850000Y-85200000D03*
D13*
X131550000Y-85200000D03*
%TD*%
D14*
%TO.C,JP10*%
X131550000Y-82200000D03*
D15*
X132850000Y-82200000D03*
%TD*%
D12*
%TO.C,JP9*%
X113050000Y-106200000D03*
D13*
X111750000Y-106200000D03*
%TD*%
D12*
%TO.C,JP8*%
X113050000Y-102600000D03*
D13*
X111750000Y-102600000D03*
%TD*%
D16*
%TO.C,U1*%
X125900000Y-94600000D03*
X125900000Y-94200000D03*
X125900000Y-93800000D03*
X125900000Y-93400000D03*
X125900000Y-93000000D03*
X125900000Y-92600000D03*
X125900000Y-92200000D03*
X125900000Y-91800000D03*
X125900000Y-91400000D03*
X125900000Y-91000000D03*
X125900000Y-90600000D03*
D17*
X125200000Y-89600000D03*
X124800000Y-89600000D03*
X124400000Y-89600000D03*
X124000000Y-89600000D03*
X123600000Y-89600000D03*
D16*
X122900000Y-90600000D03*
X122900000Y-91000000D03*
X122900000Y-91400000D03*
X122900000Y-91800000D03*
X122900000Y-92200000D03*
X122900000Y-92600000D03*
X122900000Y-93000000D03*
X122900000Y-93400000D03*
X122900000Y-93800000D03*
X122900000Y-94200000D03*
X122900000Y-94600000D03*
D17*
X123600000Y-95600000D03*
X124000000Y-95600000D03*
X124400000Y-95600000D03*
X124800000Y-95600000D03*
X125200000Y-95600000D03*
D18*
X124400000Y-92600000D03*
%TD*%
D19*
%TO.C,R6*%
X121000000Y-81687500D03*
X121000000Y-83512500D03*
%TD*%
D11*
%TO.C,R5*%
X146712500Y-85400000D03*
X144887500Y-85400000D03*
%TD*%
D20*
%TO.C,JP7*%
X126200000Y-85500000D03*
D21*
X126200000Y-86800000D03*
%TD*%
D20*
%TO.C,JP6*%
X121000000Y-85500000D03*
D21*
X121000000Y-86800000D03*
%TD*%
D12*
%TO.C,JP5*%
X142850000Y-85400000D03*
D13*
X141550000Y-85400000D03*
%TD*%
D22*
%TO.C,C12*%
X131462500Y-89400000D03*
X129737500Y-89400000D03*
%TD*%
%TO.C,C11*%
X131462500Y-87800000D03*
X129737500Y-87800000D03*
%TD*%
%TO.C,C10*%
X131462500Y-91000000D03*
X129737500Y-91000000D03*
%TD*%
%TO.C,C9*%
X131462500Y-92600000D03*
X129737500Y-92600000D03*
%TD*%
%TO.C,C8*%
X131462500Y-94200000D03*
X129737500Y-94200000D03*
%TD*%
%TO.C,C7*%
X131462500Y-95800000D03*
X129737500Y-95800000D03*
%TD*%
%TO.C,C6*%
X131462500Y-99000000D03*
X129737500Y-99000000D03*
%TD*%
%TO.C,C5*%
X131462500Y-97400000D03*
X129737500Y-97400000D03*
%TD*%
D23*
%TO.C,C2*%
X124200000Y-99362500D03*
X124200000Y-101437500D03*
%TD*%
D11*
%TO.C,R2*%
X146712500Y-82600000D03*
X144887500Y-82600000D03*
%TD*%
D12*
%TO.C,JP3*%
X142850000Y-82600000D03*
D13*
X141550000Y-82600000D03*
%TD*%
D24*
%TO.C,J1*%
X117485000Y-95900000D03*
X117485000Y-95400000D03*
X117485000Y-94900000D03*
X117485000Y-94400000D03*
X117485000Y-93900000D03*
X117485000Y-93400000D03*
X117485000Y-92900000D03*
X117485000Y-92400000D03*
X117485000Y-91900000D03*
X117485000Y-91400000D03*
X117485000Y-90900000D03*
X117485000Y-90400000D03*
X117485000Y-89900000D03*
X117485000Y-89400000D03*
X117485000Y-88900000D03*
X117485000Y-88400000D03*
X117485000Y-87900000D03*
X117485000Y-87400000D03*
X117485000Y-86900000D03*
D25*
X116725000Y-98650000D03*
X116725000Y-84150000D03*
D26*
X110765000Y-98650000D03*
X110765000Y-84150000D03*
%TD*%
D27*
%TO.C,P11*%
X132250000Y-105675000D03*
D28*
X132250000Y-103135000D03*
X134790000Y-105675000D03*
X134790000Y-103135000D03*
X137330000Y-105675000D03*
X137330000Y-103135000D03*
X139870000Y-105675000D03*
X139870000Y-103135000D03*
X142410000Y-105675000D03*
X142410000Y-103135000D03*
X144950000Y-105675000D03*
X144950000Y-103135000D03*
%TD*%
D27*
%TO.C,JP1*%
X138475000Y-82800000D03*
D28*
X135935000Y-82800000D03*
%TD*%
D29*
%TO.C,JP4*%
X121400000Y-100787500D03*
D30*
X121400000Y-99487500D03*
%TD*%
D23*
%TO.C,C1*%
X126800000Y-99362500D03*
X126800000Y-101437500D03*
%TD*%
D31*
%TO.C,C3*%
X125937500Y-104400000D03*
X127662500Y-104400000D03*
%TD*%
D10*
%TO.C,R3*%
X121400000Y-104800000D03*
X121400000Y-102975000D03*
%TD*%
D32*
%TO.C,C4*%
X146000000Y-100262500D03*
X146000000Y-98537500D03*
%TD*%
D20*
%TO.C,JP2*%
X123600000Y-85500000D03*
D21*
X123600000Y-86800000D03*
%TD*%
D19*
%TO.C,R4*%
X126200000Y-81687500D03*
X126200000Y-83512500D03*
%TD*%
%TO.C,R1*%
X123600000Y-81687500D03*
X123600000Y-83512500D03*
%TD*%
D33*
%TO.C,J2*%
X151647500Y-88900000D03*
D28*
X154187500Y-88900000D03*
X151647500Y-91440000D03*
X154187500Y-91440000D03*
X151647500Y-93980000D03*
X154187500Y-93980000D03*
X151647500Y-96520000D03*
X154187500Y-96520000D03*
X151647500Y-99060000D03*
X154187500Y-99060000D03*
X151647500Y-101600000D03*
X154187500Y-101600000D03*
%TD*%
M02*
