%TF.GenerationSoftware,KiCad,Pcbnew,9.0.8+dfsg-1*%
%TF.CreationDate,2026-07-27T01:00:59+02:00*%
%TF.ProjectId,HDMItest,48444d49-7465-4737-942e-6b696361645f,rev?*%
%TF.SameCoordinates,Original*%
%TF.FileFunction,Copper,L2,Bot*%
%TF.FilePolarity,Positive*%
%FSLAX46Y46*%
G04 Gerber Fmt 4.6, Leading zero omitted, Abs format (unit mm)*
G04 Created by KiCad (PCBNEW 9.0.8+dfsg-1) date 2026-07-27 01:00:59*
%MOMM*%
%LPD*%
G01*
G04 APERTURE LIST*
G04 Aperture macros list*
%AMRoundRect*
0 Rectangle with rounded corners*
0 $1 Rounding radius*
0 $2 $3 $4 $5 $6 $7 $8 $9 X,Y pos of 4 corners*
0 Add a 4 corners polygon primitive as box body*
4,1,4,$2,$3,$4,$5,$6,$7,$8,$9,$2,$3,0*
0 Add four circle primitives for the rounded corners*
1,1,$1+$1,$2,$3*
1,1,$1+$1,$4,$5*
1,1,$1+$1,$6,$7*
1,1,$1+$1,$8,$9*
0 Add four rect primitives between the rounded corners*
20,1,$1+$1,$2,$3,$4,$5,0*
20,1,$1+$1,$4,$5,$6,$7,0*
20,1,$1+$1,$6,$7,$8,$9,0*
20,1,$1+$1,$8,$9,$2,$3,0*%
G04 Aperture macros list end*
%TA.AperFunction,ComponentPad*%
%ADD10O,3.300000X1.500000*%
%TD*%
%TA.AperFunction,ComponentPad*%
%ADD11O,2.700000X1.500000*%
%TD*%
%TA.AperFunction,ComponentPad*%
%ADD12R,1.700000X1.700000*%
%TD*%
%TA.AperFunction,ComponentPad*%
%ADD13C,1.700000*%
%TD*%
%TA.AperFunction,ComponentPad*%
%ADD14RoundRect,0.250000X-0.600000X-0.600000X0.600000X-0.600000X0.600000X0.600000X-0.600000X0.600000X0*%
%TD*%
%TA.AperFunction,ViaPad*%
%ADD15C,0.600000*%
%TD*%
%TA.AperFunction,Conductor*%
%ADD16C,0.500000*%
%TD*%
%TA.AperFunction,Conductor*%
%ADD17C,0.200000*%
%TD*%
G04 APERTURE END LIST*
D10*
%TO.P,J1,SH,SH*%
%TO.N,GND*%
X116725000Y-98650000D03*
X116725000Y-84150000D03*
D11*
X110765000Y-98650000D03*
X110765000Y-84150000D03*
%TD*%
D12*
%TO.P,P11,1,VCC*%
%TO.N,Net-(JP1-A)*%
X132250000Y-105675000D03*
D13*
%TO.P,P11,2,GND*%
%TO.N,GND*%
X132250000Y-103135000D03*
%TO.P,P11,3,R*%
%TO.N,Net-(P11-R)*%
X134790000Y-105675000D03*
%TO.P,P11,4,RI*%
%TO.N,Net-(P11-RI)*%
X134790000Y-103135000D03*
%TO.P,P11,5,G*%
%TO.N,Net-(P11-G)*%
X137330000Y-105675000D03*
%TO.P,P11,6,GI*%
%TO.N,Net-(P11-GI)*%
X137330000Y-103135000D03*
%TO.P,P11,7,B*%
%TO.N,Net-(P11-B)*%
X139870000Y-105675000D03*
%TO.P,P11,8,BI*%
%TO.N,Net-(P11-BI)*%
X139870000Y-103135000D03*
%TO.P,P11,9,VSYNC*%
%TO.N,Net-(P11-VSYNC)*%
X142410000Y-105675000D03*
%TO.P,P11,10,HSYNC*%
%TO.N,Net-(P11-HSYNC)*%
X142410000Y-103135000D03*
%TO.P,P11,11,GND*%
%TO.N,GND*%
X144950000Y-105675000D03*
%TO.P,P11,12,V33*%
%TO.N,Net-(JP10-B)*%
X144950000Y-103135000D03*
%TD*%
D12*
%TO.P,JP1,1,A*%
%TO.N,Net-(JP1-A)*%
X138475000Y-82800000D03*
D13*
%TO.P,JP1,2,B*%
%TO.N,Net-(J1-+5V)*%
X135935000Y-82800000D03*
%TD*%
D14*
%TO.P,J2,1,Pin_1*%
%TO.N,Net-(J2-Pin_1)*%
X151647500Y-88900000D03*
D13*
%TO.P,J2,2,Pin_2*%
%TO.N,unconnected-(J2-Pin_2-Pad2)*%
X154187500Y-88900000D03*
%TO.P,J2,3,Pin_3*%
%TO.N,Net-(J1-UTILITY)*%
X151647500Y-91440000D03*
%TO.P,J2,4,Pin_4*%
%TO.N,unconnected-(J2-Pin_4-Pad4)*%
X154187500Y-91440000D03*
%TO.P,J2,5,Pin_5*%
%TO.N,Net-(J2-Pin_5)*%
X151647500Y-93980000D03*
%TO.P,J2,6,Pin_6*%
%TO.N,unconnected-(J2-Pin_6-Pad6)*%
X154187500Y-93980000D03*
%TO.P,J2,7,Pin_7*%
%TO.N,Net-(J2-Pin_7)*%
X151647500Y-96520000D03*
%TO.P,J2,8,Pin_8*%
%TO.N,unconnected-(J2-Pin_8-Pad8)*%
X154187500Y-96520000D03*
%TO.P,J2,9,Pin_9*%
%TO.N,Net-(J1-CEC)*%
X151647500Y-99060000D03*
%TO.P,J2,10,Pin_10*%
%TO.N,unconnected-(J2-Pin_10-Pad10)*%
X154187500Y-99060000D03*
%TO.P,J2,11,Pin_11*%
%TO.N,GND*%
X151647500Y-101600000D03*
%TO.P,J2,12,Pin_12*%
%TO.N,unconnected-(J2-Pin_12-Pad12)*%
X154187500Y-101600000D03*
%TD*%
D15*
%TO.N,GND*%
X127800000Y-83600000D03*
X128922660Y-85548052D03*
X124800000Y-97000000D03*
X127600000Y-82000000D03*
X119400000Y-82000000D03*
%TO.N,Net-(J2-Pin_1)*%
X147400000Y-95000000D03*
%TO.N,GND*%
X145800000Y-97400000D03*
%TO.N,Net-(J2-Pin_1)*%
X128000000Y-88800000D03*
%TO.N,Net-(JP10-B)*%
X147041287Y-91040640D03*
%TO.N,Net-(J2-Pin_7)*%
X128559620Y-86759620D03*
X149200000Y-87600000D03*
%TO.N,Net-(J2-Pin_5)*%
X149919683Y-88150000D03*
X136800000Y-88000000D03*
X133000000Y-87800000D03*
%TO.N,Net-(JP10-B)*%
X136200000Y-91400000D03*
%TO.N,Net-(JP1-A)*%
X144000000Y-99600000D03*
%TO.N,Net-(JP10-B)*%
X125900000Y-97100000D03*
%TO.N,Net-(J1-+5V)*%
X115400000Y-87000000D03*
%TO.N,Net-(JP3-B)*%
X141400000Y-90800000D03*
X121800000Y-90350000D03*
%TO.N,GND*%
X147600000Y-85600000D03*
X126800000Y-102600000D03*
X124200000Y-102600000D03*
X124851918Y-88074383D03*
%TO.N,Net-(J1-HPD)*%
X119600000Y-87000000D03*
X123484130Y-96484130D03*
%TO.N,Net-(J1-SDA)*%
X122600000Y-96200000D03*
X119850000Y-87884493D03*
%TO.N,GND*%
X115600000Y-95600000D03*
X115400000Y-94000000D03*
X115400000Y-92400000D03*
X115400000Y-88000000D03*
X115400000Y-91000000D03*
%TO.N,Net-(J1-CEC)*%
X148550000Y-90657712D03*
X120824407Y-90002207D03*
%TO.N,Net-(J1-UTILITY)*%
X120945450Y-89206818D03*
%TO.N,Net-(J1-SCL)*%
X122000000Y-95400000D03*
X120250000Y-88771778D03*
%TO.N,Net-(JP10-B)*%
X121000000Y-92800000D03*
%TD*%
D16*
%TO.N,Net-(J1-+5V)*%
X116792056Y-87000000D02*
X115400000Y-87000000D01*
X135935000Y-82800000D02*
X120992056Y-82800000D01*
X120992056Y-82800000D02*
X116792056Y-87000000D01*
%TO.N,Net-(JP1-A)*%
X144000000Y-99600000D02*
X131800000Y-99600000D01*
X131800000Y-99600000D02*
X129600000Y-101800000D01*
X129600000Y-101800000D02*
X129600000Y-103000000D01*
X130400000Y-103825000D02*
X132250000Y-105675000D01*
X129600000Y-103000000D02*
X130400000Y-103800000D01*
X130400000Y-103800000D02*
X130400000Y-103825000D01*
D17*
%TO.N,Net-(J2-Pin_7)*%
X137600000Y-87600000D02*
X137200000Y-87200000D01*
X137200000Y-87200000D02*
X129000000Y-87200000D01*
X149200000Y-87600000D02*
X137600000Y-87600000D01*
X129000000Y-87200000D02*
X128559620Y-86759620D01*
D16*
%TO.N,Net-(JP10-B)*%
X125900000Y-96968629D02*
X125900000Y-97100000D01*
X125131371Y-96200000D02*
X125900000Y-96968629D01*
X125000000Y-96200000D02*
X125131371Y-96200000D01*
X121600000Y-92800000D02*
X125000000Y-96200000D01*
X121000000Y-92800000D02*
X121600000Y-92800000D01*
D17*
%TO.N,Net-(J2-Pin_1)*%
X147400000Y-95000000D02*
X149600000Y-92800000D01*
X149600000Y-92800000D02*
X151913846Y-92800000D01*
X151913846Y-92800000D02*
X152797500Y-91916346D01*
X152797500Y-90050000D02*
X151647500Y-88900000D01*
X152797500Y-91916346D02*
X152797500Y-90050000D01*
%TO.N,Net-(J1-CEC)*%
X120824407Y-90002207D02*
X121028554Y-90002207D01*
X121028554Y-90002207D02*
X121330761Y-89700000D01*
X121330761Y-89700000D02*
X122069239Y-89700000D01*
X122069239Y-89700000D02*
X122369239Y-90000000D01*
X122369239Y-90000000D02*
X148234236Y-90000000D01*
X148234236Y-90000000D02*
X148550000Y-90315764D01*
X148550000Y-90315764D02*
X148550000Y-90657712D01*
%TO.N,Net-(J2-Pin_5)*%
X149669683Y-88400000D02*
X149919683Y-88150000D01*
%TO.N,Net-(JP10-B)*%
X136200000Y-91400000D02*
X146681927Y-91400000D01*
%TO.N,Net-(J2-Pin_1)*%
X128500000Y-88900000D02*
X151647500Y-88900000D01*
%TO.N,Net-(J2-Pin_5)*%
X136800000Y-88000000D02*
X137200000Y-88400000D01*
%TO.N,Net-(J1-UTILITY)*%
X151647500Y-91440000D02*
X150207500Y-90000000D01*
X150207500Y-90000000D02*
X149834314Y-90000000D01*
X127487579Y-89206818D02*
X120945450Y-89206818D01*
X149834314Y-90000000D02*
X149284314Y-89450000D01*
%TO.N,Net-(J2-Pin_1)*%
X128400000Y-88800000D02*
X128500000Y-88900000D01*
%TO.N,Net-(J1-UTILITY)*%
X127730761Y-89450000D02*
X127487579Y-89206818D01*
X149284314Y-89450000D02*
X127730761Y-89450000D01*
%TO.N,Net-(JP10-B)*%
X146681927Y-91400000D02*
X147041287Y-91040640D01*
%TO.N,Net-(J2-Pin_5)*%
X137200000Y-88400000D02*
X149669683Y-88400000D01*
%TO.N,Net-(J2-Pin_1)*%
X128000000Y-88800000D02*
X128400000Y-88800000D01*
%TO.N,Net-(J2-Pin_5)*%
X133000000Y-87800000D02*
X133200000Y-88000000D01*
X133200000Y-88000000D02*
X136800000Y-88000000D01*
%TO.N,Net-(JP10-B)*%
X136200000Y-91400000D02*
X131600000Y-91400000D01*
X131600000Y-91400000D02*
X125900000Y-97100000D01*
%TO.N,Net-(J1-HPD)*%
X119600000Y-97000000D02*
X122968260Y-97000000D01*
X119600000Y-87000000D02*
X119200000Y-87400000D01*
X119200000Y-87400000D02*
X119200000Y-96600000D01*
X122968260Y-97000000D02*
X123484130Y-96484130D01*
X119200000Y-96600000D02*
X119600000Y-97000000D01*
%TO.N,Net-(JP3-B)*%
X121850000Y-90400000D02*
X121800000Y-90350000D01*
X141400000Y-90800000D02*
X141000000Y-90400000D01*
X141000000Y-90400000D02*
X121850000Y-90400000D01*
%TO.N,Net-(J1-SDA)*%
X122600000Y-96200000D02*
X121800000Y-96200000D01*
X121800000Y-96200000D02*
X121400000Y-95800000D01*
%TO.N,Net-(J1-SCL)*%
X120000000Y-95400000D02*
X120000000Y-89021778D01*
%TO.N,Net-(J1-SDA)*%
X119600000Y-95800000D02*
X119600000Y-88134493D01*
%TO.N,Net-(J1-SCL)*%
X120000000Y-89021778D02*
X120250000Y-88771778D01*
%TO.N,Net-(J1-SDA)*%
X121400000Y-95800000D02*
X119600000Y-95800000D01*
X119600000Y-88134493D02*
X119850000Y-87884493D01*
%TO.N,Net-(J1-SCL)*%
X122000000Y-95400000D02*
X120000000Y-95400000D01*
%TD*%
%TA.AperFunction,Conductor*%
%TO.N,GND*%
G36*
X143751444Y-103788999D02*
G01*
X143790486Y-103834056D01*
X143794951Y-103842820D01*
X143919890Y-104014786D01*
X144070213Y-104165109D01*
X144242179Y-104290048D01*
X144242181Y-104290049D01*
X144242184Y-104290051D01*
X144251493Y-104294794D01*
X144302290Y-104342766D01*
X144319087Y-104410587D01*
X144296552Y-104476722D01*
X144251505Y-104515760D01*
X144242446Y-104520376D01*
X144242440Y-104520380D01*
X144188282Y-104559727D01*
X144188282Y-104559728D01*
X144820591Y-105192037D01*
X144757007Y-105209075D01*
X144642993Y-105274901D01*
X144549901Y-105367993D01*
X144484075Y-105482007D01*
X144467037Y-105545591D01*
X143834728Y-104913282D01*
X143834727Y-104913282D01*
X143795380Y-104967440D01*
X143795376Y-104967446D01*
X143790760Y-104976505D01*
X143742781Y-105027297D01*
X143674959Y-105044087D01*
X143608826Y-105021543D01*
X143569794Y-104976493D01*
X143565051Y-104967184D01*
X143565049Y-104967181D01*
X143565048Y-104967179D01*
X143440109Y-104795213D01*
X143289786Y-104644890D01*
X143117820Y-104519951D01*
X143109600Y-104515763D01*
X143109054Y-104515485D01*
X143058259Y-104467512D01*
X143041463Y-104399692D01*
X143063999Y-104333556D01*
X143109054Y-104294515D01*
X143117816Y-104290051D01*
X143200843Y-104229729D01*
X143289786Y-104165109D01*
X143289788Y-104165106D01*
X143289792Y-104165104D01*
X143440104Y-104014792D01*
X143440106Y-104014788D01*
X143440109Y-104014786D01*
X143565048Y-103842820D01*
X143565050Y-103842817D01*
X143565051Y-103842816D01*
X143569514Y-103834054D01*
X143617488Y-103783259D01*
X143685308Y-103766463D01*
X143751444Y-103788999D01*
G37*
%TD.AperFunction*%
%TA.AperFunction,Conductor*%
G36*
X133365270Y-103896717D02*
G01*
X133365270Y-103896716D01*
X133404622Y-103842555D01*
X133409232Y-103833507D01*
X133457205Y-103782709D01*
X133525025Y-103765912D01*
X133591161Y-103788447D01*
X133630204Y-103833504D01*
X133634949Y-103842817D01*
X133759890Y-104014786D01*
X133910213Y-104165109D01*
X134082182Y-104290050D01*
X134090946Y-104294516D01*
X134141742Y-104342491D01*
X134158536Y-104410312D01*
X134135998Y-104476447D01*
X134090946Y-104515484D01*
X134082182Y-104519949D01*
X133910215Y-104644889D01*
X133796673Y-104758431D01*
X133735350Y-104791915D01*
X133665658Y-104786931D01*
X133609725Y-104745059D01*
X133592810Y-104714082D01*
X133543797Y-104582671D01*
X133543793Y-104582664D01*
X133457547Y-104467455D01*
X133457544Y-104467452D01*
X133342335Y-104381206D01*
X133342328Y-104381202D01*
X133207482Y-104330908D01*
X133207483Y-104330908D01*
X133147883Y-104324501D01*
X133147881Y-104324500D01*
X133147873Y-104324500D01*
X133147865Y-104324500D01*
X133137309Y-104324500D01*
X133070270Y-104304815D01*
X133049628Y-104288181D01*
X132379408Y-103617962D01*
X132442993Y-103600925D01*
X132557007Y-103535099D01*
X132650099Y-103442007D01*
X132715925Y-103327993D01*
X132732962Y-103264408D01*
X133365270Y-103896717D01*
G37*
%TD.AperFunction*%
%TA.AperFunction,Conductor*%
G36*
X152988944Y-99713999D02*
G01*
X153027986Y-99759056D01*
X153032451Y-99767820D01*
X153157390Y-99939786D01*
X153307713Y-100090109D01*
X153479682Y-100215050D01*
X153488446Y-100219516D01*
X153539242Y-100267491D01*
X153556036Y-100335312D01*
X153533498Y-100401447D01*
X153488446Y-100440484D01*
X153479682Y-100444949D01*
X153307713Y-100569890D01*
X153157390Y-100720213D01*
X153032449Y-100892182D01*
X153027702Y-100901499D01*
X152979727Y-100952293D01*
X152911905Y-100969087D01*
X152845771Y-100946548D01*
X152806734Y-100901495D01*
X152802126Y-100892452D01*
X152762770Y-100838282D01*
X152762769Y-100838282D01*
X152130462Y-101470590D01*
X152113425Y-101407007D01*
X152047599Y-101292993D01*
X151954507Y-101199901D01*
X151840493Y-101134075D01*
X151776909Y-101117037D01*
X152409216Y-100484728D01*
X152355047Y-100445373D01*
X152355047Y-100445372D01*
X152346000Y-100440763D01*
X152295206Y-100392788D01*
X152278412Y-100324966D01*
X152300951Y-100258832D01*
X152346008Y-100219793D01*
X152355316Y-100215051D01*
X152434507Y-100157515D01*
X152527286Y-100090109D01*
X152527288Y-100090106D01*
X152527292Y-100090104D01*
X152677604Y-99939792D01*
X152677606Y-99939788D01*
X152677609Y-99939786D01*
X152802548Y-99767820D01*
X152802547Y-99767820D01*
X152802551Y-99767816D01*
X152807014Y-99759054D01*
X152854988Y-99708259D01*
X152922808Y-99691463D01*
X152988944Y-99713999D01*
G37*
%TD.AperFunction*%
%TA.AperFunction,Conductor*%
G36*
X157942622Y-81419913D02*
G01*
X157988587Y-81472534D01*
X158000000Y-81524496D01*
X158000000Y-108476495D01*
X157980315Y-108543534D01*
X157927511Y-108589289D01*
X157876496Y-108600494D01*
X108124496Y-108799502D01*
X108057378Y-108780086D01*
X108011413Y-108727465D01*
X108000000Y-108675503D01*
X108000000Y-103073920D01*
X128849499Y-103073920D01*
X128878340Y-103218907D01*
X128878343Y-103218917D01*
X128934914Y-103355492D01*
X128967812Y-103404727D01*
X128967813Y-103404730D01*
X129017046Y-103478414D01*
X129017052Y-103478421D01*
X129758071Y-104219439D01*
X129773492Y-104238230D01*
X129817046Y-104303414D01*
X129817052Y-104303421D01*
X130863181Y-105349548D01*
X130896666Y-105410871D01*
X130899500Y-105437229D01*
X130899500Y-106572870D01*
X130899501Y-106572876D01*
X130905908Y-106632483D01*
X130956202Y-106767328D01*
X130956206Y-106767335D01*
X131042452Y-106882544D01*
X131042455Y-106882547D01*
X131157664Y-106968793D01*
X131157671Y-106968797D01*
X131292517Y-107019091D01*
X131292516Y-107019091D01*
X131299444Y-107019835D01*
X131352127Y-107025500D01*
X133147872Y-107025499D01*
X133207483Y-107019091D01*
X133342331Y-106968796D01*
X133457546Y-106882546D01*
X133543796Y-106767331D01*
X133592810Y-106635916D01*
X133634681Y-106579984D01*
X133700145Y-106555566D01*
X133768418Y-106570417D01*
X133796673Y-106591569D01*
X133910213Y-106705109D01*
X134082179Y-106830048D01*
X134082181Y-106830049D01*
X134082184Y-106830051D01*
X134271588Y-106926557D01*
X134473757Y-106992246D01*
X134683713Y-107025500D01*
X134683714Y-107025500D01*
X134896286Y-107025500D01*
X134896287Y-107025500D01*
X135106243Y-106992246D01*
X135308412Y-106926557D01*
X135497816Y-106830051D01*
X135584138Y-106767335D01*
X135669786Y-106705109D01*
X135669788Y-106705106D01*
X135669792Y-106705104D01*
X135820104Y-106554792D01*
X135820106Y-106554788D01*
X135820109Y-106554786D01*
X135945048Y-106382820D01*
X135945047Y-106382820D01*
X135945051Y-106382816D01*
X135949514Y-106374054D01*
X135997488Y-106323259D01*
X136065308Y-106306463D01*
X136131444Y-106328999D01*
X136170486Y-106374056D01*
X136174951Y-106382820D01*
X136299890Y-106554786D01*
X136450213Y-106705109D01*
X136622179Y-106830048D01*
X136622181Y-106830049D01*
X136622184Y-106830051D01*
X136811588Y-106926557D01*
X137013757Y-106992246D01*
X137223713Y-107025500D01*
X137223714Y-107025500D01*
X137436286Y-107025500D01*
X137436287Y-107025500D01*
X137646243Y-106992246D01*
X137848412Y-106926557D01*
X138037816Y-106830051D01*
X138124138Y-106767335D01*
X138209786Y-106705109D01*
X138209788Y-106705106D01*
X138209792Y-106705104D01*
X138360104Y-106554792D01*
X138360106Y-106554788D01*
X138360109Y-106554786D01*
X138485048Y-106382820D01*
X138485047Y-106382820D01*
X138485051Y-106382816D01*
X138489514Y-106374054D01*
X138537488Y-106323259D01*
X138605308Y-106306463D01*
X138671444Y-106328999D01*
X138710486Y-106374056D01*
X138714951Y-106382820D01*
X138839890Y-106554786D01*
X138990213Y-106705109D01*
X139162179Y-106830048D01*
X139162181Y-106830049D01*
X139162184Y-106830051D01*
X139351588Y-106926557D01*
X139553757Y-106992246D01*
X139763713Y-107025500D01*
X139763714Y-107025500D01*
X139976286Y-107025500D01*
X139976287Y-107025500D01*
X140186243Y-106992246D01*
X140388412Y-106926557D01*
X140577816Y-106830051D01*
X140664138Y-106767335D01*
X140749786Y-106705109D01*
X140749788Y-106705106D01*
X140749792Y-106705104D01*
X140900104Y-106554792D01*
X140900106Y-106554788D01*
X140900109Y-106554786D01*
X141025048Y-106382820D01*
X141025047Y-106382820D01*
X141025051Y-106382816D01*
X141029514Y-106374054D01*
X141077488Y-106323259D01*
X141145308Y-106306463D01*
X141211444Y-106328999D01*
X141250486Y-106374056D01*
X141254951Y-106382820D01*
X141379890Y-106554786D01*
X141530213Y-106705109D01*
X141702179Y-106830048D01*
X141702181Y-106830049D01*
X141702184Y-106830051D01*
X141891588Y-106926557D01*
X142093757Y-106992246D01*
X142303713Y-107025500D01*
X142303714Y-107025500D01*
X142516286Y-107025500D01*
X142516287Y-107025500D01*
X142726243Y-106992246D01*
X142928412Y-106926557D01*
X143117816Y-106830051D01*
X143204138Y-106767335D01*
X143289786Y-106705109D01*
X143289788Y-106705106D01*
X143289792Y-106705104D01*
X143440104Y-106554792D01*
X143440106Y-106554788D01*
X143440109Y-106554786D01*
X143525890Y-106436717D01*
X143565051Y-106382816D01*
X143569793Y-106373508D01*
X143617763Y-106322711D01*
X143685583Y-106305911D01*
X143751719Y-106328445D01*
X143790763Y-106373500D01*
X143795373Y-106382547D01*
X143834728Y-106436716D01*
X144467037Y-105804408D01*
X144484075Y-105867993D01*
X144549901Y-105982007D01*
X144642993Y-106075099D01*
X144757007Y-106140925D01*
X144820590Y-106157962D01*
X144188282Y-106790269D01*
X144188282Y-106790270D01*
X144242449Y-106829624D01*
X144431782Y-106926095D01*
X144633870Y-106991757D01*
X144843754Y-107025000D01*
X145056246Y-107025000D01*
X145266127Y-106991757D01*
X145266130Y-106991757D01*
X145468217Y-106926095D01*
X145657554Y-106829622D01*
X145711716Y-106790270D01*
X145711717Y-106790270D01*
X145079408Y-106157962D01*
X145142993Y-106140925D01*
X145257007Y-106075099D01*
X145350099Y-105982007D01*
X145415925Y-105867993D01*
X145432962Y-105804408D01*
X146065270Y-106436717D01*
X146065270Y-106436716D01*
X146104622Y-106382554D01*
X146201095Y-106193217D01*
X146266757Y-105991130D01*
X146266757Y-105991127D01*
X146300000Y-105781246D01*
X146300000Y-105568753D01*
X146266757Y-105358872D01*
X146266757Y-105358869D01*
X146201095Y-105156782D01*
X146104624Y-104967449D01*
X146065270Y-104913282D01*
X146065269Y-104913282D01*
X145432962Y-105545590D01*
X145415925Y-105482007D01*
X145350099Y-105367993D01*
X145257007Y-105274901D01*
X145142993Y-105209075D01*
X145079409Y-105192037D01*
X145711716Y-104559728D01*
X145657547Y-104520373D01*
X145657547Y-104520372D01*
X145648500Y-104515763D01*
X145597706Y-104467788D01*
X145580912Y-104399966D01*
X145603451Y-104333832D01*
X145648508Y-104294793D01*
X145657816Y-104290051D01*
X145740843Y-104229729D01*
X145829786Y-104165109D01*
X145829788Y-104165106D01*
X145829792Y-104165104D01*
X145980104Y-104014792D01*
X145980106Y-104014788D01*
X145980109Y-104014786D01*
X146105048Y-103842820D01*
X146105050Y-103842817D01*
X146105051Y-103842816D01*
X146201557Y-103653412D01*
X146267246Y-103451243D01*
X146300500Y-103241287D01*
X146300500Y-103028713D01*
X146267246Y-102818757D01*
X146201557Y-102616588D01*
X146105051Y-102427184D01*
X146105049Y-102427181D01*
X146105048Y-102427179D01*
X145980109Y-102255213D01*
X145829786Y-102104890D01*
X145657820Y-101979951D01*
X145468414Y-101883444D01*
X145468413Y-101883443D01*
X145468412Y-101883443D01*
X145266243Y-101817754D01*
X145266241Y-101817753D01*
X145266240Y-101817753D01*
X145104957Y-101792208D01*
X145056287Y-101784500D01*
X144843713Y-101784500D01*
X144795042Y-101792208D01*
X144633760Y-101817753D01*
X144431585Y-101883444D01*
X144242179Y-101979951D01*
X144070213Y-102104890D01*
X143919890Y-102255213D01*
X143794949Y-102427182D01*
X143790484Y-102435946D01*
X143742509Y-102486742D01*
X143674688Y-102503536D01*
X143608553Y-102480998D01*
X143569516Y-102435946D01*
X143565050Y-102427182D01*
X143440109Y-102255213D01*
X143289786Y-102104890D01*
X143117820Y-101979951D01*
X142928414Y-101883444D01*
X142928413Y-101883443D01*
X142928412Y-101883443D01*
X142726243Y-101817754D01*
X142726241Y-101817753D01*
X142726240Y-101817753D01*
X142564957Y-101792208D01*
X142516287Y-101784500D01*
X142303713Y-101784500D01*
X142255042Y-101792208D01*
X142093760Y-101817753D01*
X141891585Y-101883444D01*
X141702179Y-101979951D01*
X141530213Y-102104890D01*
X141379890Y-102255213D01*
X141254949Y-102427182D01*
X141250484Y-102435946D01*
X141202509Y-102486742D01*
X141134688Y-102503536D01*
X141068553Y-102480998D01*
X141029516Y-102435946D01*
X141025050Y-102427182D01*
X140900109Y-102255213D01*
X140749786Y-102104890D01*
X140577820Y-101979951D01*
X140388414Y-101883444D01*
X140388413Y-101883443D01*
X140388412Y-101883443D01*
X140186243Y-101817754D01*
X140186241Y-101817753D01*
X140186240Y-101817753D01*
X140024957Y-101792208D01*
X139976287Y-101784500D01*
X139763713Y-101784500D01*
X139715042Y-101792208D01*
X139553760Y-101817753D01*
X139351585Y-101883444D01*
X139162179Y-101979951D01*
X138990213Y-102104890D01*
X138839890Y-102255213D01*
X138714949Y-102427182D01*
X138710484Y-102435946D01*
X138662509Y-102486742D01*
X138594688Y-102503536D01*
X138528553Y-102480998D01*
X138489516Y-102435946D01*
X138485050Y-102427182D01*
X138360109Y-102255213D01*
X138209786Y-102104890D01*
X138037820Y-101979951D01*
X137848414Y-101883444D01*
X137848413Y-101883443D01*
X137848412Y-101883443D01*
X137646243Y-101817754D01*
X137646241Y-101817753D01*
X137646240Y-101817753D01*
X137484957Y-101792208D01*
X137436287Y-101784500D01*
X137223713Y-101784500D01*
X137175042Y-101792208D01*
X137013760Y-101817753D01*
X136811585Y-101883444D01*
X136622179Y-101979951D01*
X136450213Y-102104890D01*
X136299890Y-102255213D01*
X136174949Y-102427182D01*
X136170484Y-102435946D01*
X136122509Y-102486742D01*
X136054688Y-102503536D01*
X135988553Y-102480998D01*
X135949516Y-102435946D01*
X135945050Y-102427182D01*
X135820109Y-102255213D01*
X135669786Y-102104890D01*
X135497820Y-101979951D01*
X135308414Y-101883444D01*
X135308413Y-101883443D01*
X135308412Y-101883443D01*
X135106243Y-101817754D01*
X135106241Y-101817753D01*
X135106240Y-101817753D01*
X134944957Y-101792208D01*
X134896287Y-101784500D01*
X134683713Y-101784500D01*
X134635042Y-101792208D01*
X134473760Y-101817753D01*
X134271585Y-101883444D01*
X134082179Y-101979951D01*
X133910213Y-102104890D01*
X133759890Y-102255213D01*
X133634949Y-102427182D01*
X133630202Y-102436499D01*
X133582227Y-102487293D01*
X133514405Y-102504087D01*
X133448271Y-102481548D01*
X133409234Y-102436495D01*
X133404626Y-102427452D01*
X133365270Y-102373282D01*
X133365269Y-102373282D01*
X132732962Y-103005590D01*
X132715925Y-102942007D01*
X132650099Y-102827993D01*
X132557007Y-102734901D01*
X132442993Y-102669075D01*
X132379409Y-102652037D01*
X133011716Y-102019728D01*
X132957550Y-101980375D01*
X132768217Y-101883904D01*
X132566129Y-101818242D01*
X132356246Y-101785000D01*
X132143754Y-101785000D01*
X131933872Y-101818242D01*
X131933869Y-101818242D01*
X131731782Y-101883904D01*
X131542439Y-101980380D01*
X131488282Y-102019727D01*
X131488282Y-102019728D01*
X132120591Y-102652037D01*
X132057007Y-102669075D01*
X131942993Y-102734901D01*
X131849901Y-102827993D01*
X131784075Y-102942007D01*
X131767037Y-103005591D01*
X131134728Y-102373282D01*
X131134727Y-102373282D01*
X131095380Y-102427439D01*
X130998904Y-102616782D01*
X130933242Y-102818869D01*
X130933242Y-102818872D01*
X130909374Y-102969569D01*
X130879445Y-103032704D01*
X130820133Y-103069635D01*
X130750271Y-103068637D01*
X130699220Y-103037852D01*
X130386819Y-102725451D01*
X130353334Y-102664128D01*
X130350500Y-102637770D01*
X130350500Y-102162230D01*
X130359144Y-102132789D01*
X130365668Y-102102803D01*
X130369422Y-102097787D01*
X130370185Y-102095191D01*
X130386819Y-102074549D01*
X132074549Y-100386819D01*
X132135872Y-100353334D01*
X132162230Y-100350500D01*
X143695396Y-100350500D01*
X143742844Y-100359937D01*
X143766503Y-100369737D01*
X143766508Y-100369738D01*
X143766511Y-100369739D01*
X143921153Y-100400499D01*
X143921156Y-100400500D01*
X143921158Y-100400500D01*
X144078844Y-100400500D01*
X144078845Y-100400499D01*
X144233497Y-100369737D01*
X144379179Y-100309394D01*
X144510289Y-100221789D01*
X144621789Y-100110289D01*
X144709394Y-99979179D01*
X144769737Y-99833497D01*
X144800500Y-99678842D01*
X144800500Y-99521158D01*
X144800500Y-99521155D01*
X144800499Y-99521153D01*
X144771674Y-99376243D01*
X144769737Y-99366503D01*
X144744321Y-99305143D01*
X144709397Y-99220827D01*
X144709390Y-99220814D01*
X144621789Y-99089711D01*
X144621786Y-99089707D01*
X144510292Y-98978213D01*
X144510288Y-98978210D01*
X144379185Y-98890609D01*
X144379172Y-98890602D01*
X144233501Y-98830264D01*
X144233489Y-98830261D01*
X144078845Y-98799500D01*
X144078842Y-98799500D01*
X143921158Y-98799500D01*
X143921155Y-98799500D01*
X143766511Y-98830260D01*
X143766506Y-98830262D01*
X143766504Y-98830262D01*
X143766503Y-98830263D01*
X143742844Y-98840062D01*
X143695396Y-98849500D01*
X131726080Y-98849500D01*
X131581092Y-98878340D01*
X131581082Y-98878343D01*
X131444509Y-98934913D01*
X131444507Y-98934914D01*
X131404781Y-98961459D01*
X131404779Y-98961460D01*
X131321589Y-99017043D01*
X131321584Y-99017047D01*
X129017050Y-101321580D01*
X129017044Y-101321588D01*
X128967812Y-101395268D01*
X128967813Y-101395269D01*
X128934921Y-101444496D01*
X128934914Y-101444508D01*
X128878342Y-101581086D01*
X128878340Y-101581092D01*
X128849500Y-101726079D01*
X128849500Y-101726082D01*
X128849500Y-103073918D01*
X128849500Y-103073920D01*
X128849499Y-103073920D01*
X108000000Y-103073920D01*
X108000000Y-98400000D01*
X108939016Y-98400000D01*
X109789722Y-98400000D01*
X109745667Y-98476306D01*
X109715000Y-98590756D01*
X109715000Y-98709244D01*
X109745667Y-98823694D01*
X109789722Y-98900000D01*
X108939016Y-98900000D01*
X108945781Y-98942716D01*
X109006581Y-99129837D01*
X109095904Y-99305143D01*
X109211555Y-99464321D01*
X109350678Y-99603444D01*
X109509856Y-99719095D01*
X109685164Y-99808418D01*
X109872294Y-99869221D01*
X110066618Y-99900000D01*
X110515000Y-99900000D01*
X110515000Y-99100000D01*
X111015000Y-99100000D01*
X111015000Y-99900000D01*
X111463382Y-99900000D01*
X111657705Y-99869221D01*
X111844835Y-99808418D01*
X112020143Y-99719095D01*
X112179321Y-99603444D01*
X112318444Y-99464321D01*
X112434095Y-99305143D01*
X112523418Y-99129837D01*
X112584218Y-98942716D01*
X112590984Y-98900000D01*
X111740278Y-98900000D01*
X111784333Y-98823694D01*
X111815000Y-98709244D01*
X111815000Y-98590756D01*
X111784333Y-98476306D01*
X111740278Y-98400000D01*
X112590984Y-98400000D01*
X114599016Y-98400000D01*
X115449722Y-98400000D01*
X115405667Y-98476306D01*
X115375000Y-98590756D01*
X115375000Y-98709244D01*
X115405667Y-98823694D01*
X115449722Y-98900000D01*
X114599016Y-98900000D01*
X114605781Y-98942716D01*
X114666581Y-99129837D01*
X114755904Y-99305143D01*
X114871555Y-99464321D01*
X115010678Y-99603444D01*
X115169856Y-99719095D01*
X115345164Y-99808418D01*
X115532294Y-99869221D01*
X115726618Y-99900000D01*
X116475000Y-99900000D01*
X116475000Y-99100000D01*
X116975000Y-99100000D01*
X116975000Y-99900000D01*
X117723382Y-99900000D01*
X117917705Y-99869221D01*
X118104835Y-99808418D01*
X118280143Y-99719095D01*
X118439321Y-99603444D01*
X118578444Y-99464321D01*
X118694095Y-99305143D01*
X118783418Y-99129837D01*
X118844218Y-98942716D01*
X118850984Y-98900000D01*
X118000278Y-98900000D01*
X118044333Y-98823694D01*
X118075000Y-98709244D01*
X118075000Y-98590756D01*
X118044333Y-98476306D01*
X118000278Y-98400000D01*
X118850984Y-98400000D01*
X118844218Y-98357283D01*
X118783418Y-98170162D01*
X118694095Y-97994856D01*
X118578444Y-97835678D01*
X118439321Y-97696555D01*
X118280143Y-97580904D01*
X118104835Y-97491581D01*
X117917705Y-97430778D01*
X117723382Y-97400000D01*
X116975000Y-97400000D01*
X116975000Y-98200000D01*
X116475000Y-98200000D01*
X116475000Y-97400000D01*
X115726618Y-97400000D01*
X115532294Y-97430778D01*
X115345164Y-97491581D01*
X115169856Y-97580904D01*
X115010678Y-97696555D01*
X114871555Y-97835678D01*
X114755904Y-97994856D01*
X114666581Y-98170162D01*
X114605781Y-98357283D01*
X114599016Y-98400000D01*
X112590984Y-98400000D01*
X112584218Y-98357283D01*
X112523418Y-98170162D01*
X112434095Y-97994856D01*
X112318444Y-97835678D01*
X112179321Y-97696555D01*
X112020143Y-97580904D01*
X111844835Y-97491581D01*
X111657705Y-97430778D01*
X111463382Y-97400000D01*
X111015000Y-97400000D01*
X111015000Y-98200000D01*
X110515000Y-98200000D01*
X110515000Y-97400000D01*
X110066618Y-97400000D01*
X109872294Y-97430778D01*
X109685164Y-97491581D01*
X109509856Y-97580904D01*
X109350678Y-97696555D01*
X109211555Y-97835678D01*
X109095904Y-97994856D01*
X109006581Y-98170162D01*
X108945781Y-98357283D01*
X108939016Y-98400000D01*
X108000000Y-98400000D01*
X108000000Y-96679054D01*
X118599498Y-96679054D01*
X118599499Y-96679057D01*
X118640423Y-96831785D01*
X118660468Y-96866503D01*
X118693827Y-96924283D01*
X118719479Y-96968715D01*
X118838349Y-97087585D01*
X118838355Y-97087590D01*
X119115139Y-97364374D01*
X119115149Y-97364385D01*
X119119479Y-97368715D01*
X119119480Y-97368716D01*
X119231284Y-97480520D01*
X119231286Y-97480521D01*
X119231290Y-97480524D01*
X119250442Y-97491581D01*
X119368216Y-97559577D01*
X119480019Y-97589534D01*
X119520942Y-97600500D01*
X119520943Y-97600500D01*
X122881591Y-97600500D01*
X122881607Y-97600501D01*
X122889203Y-97600501D01*
X123047314Y-97600501D01*
X123047317Y-97600501D01*
X123200045Y-97559577D01*
X123267728Y-97520500D01*
X123336976Y-97480520D01*
X123448780Y-97368716D01*
X123448780Y-97368714D01*
X123458985Y-97358510D01*
X123458991Y-97358503D01*
X123498792Y-97318703D01*
X123560115Y-97285218D01*
X123562281Y-97284768D01*
X123637182Y-97269868D01*
X123717627Y-97253867D01*
X123863309Y-97193524D01*
X123994419Y-97105919D01*
X124105919Y-96994419D01*
X124193524Y-96863309D01*
X124242129Y-96745963D01*
X124285968Y-96691563D01*
X124352262Y-96669497D01*
X124419961Y-96686776D01*
X124444366Y-96705733D01*
X124484600Y-96745967D01*
X124521585Y-96782952D01*
X124644498Y-96865080D01*
X124644507Y-96865085D01*
X124776352Y-96919697D01*
X124816580Y-96946577D01*
X125085479Y-97215476D01*
X125118964Y-97276799D01*
X125119415Y-97278965D01*
X125130261Y-97333491D01*
X125130263Y-97333499D01*
X125190602Y-97479172D01*
X125190609Y-97479185D01*
X125278210Y-97610288D01*
X125278213Y-97610292D01*
X125389707Y-97721786D01*
X125389711Y-97721789D01*
X125520814Y-97809390D01*
X125520827Y-97809397D01*
X125646489Y-97861447D01*
X125666503Y-97869737D01*
X125821078Y-97900484D01*
X125821153Y-97900499D01*
X125821156Y-97900500D01*
X125821158Y-97900500D01*
X125978844Y-97900500D01*
X125978845Y-97900499D01*
X126133497Y-97869737D01*
X126279179Y-97809394D01*
X126410289Y-97721789D01*
X126521789Y-97610289D01*
X126609394Y-97479179D01*
X126669737Y-97333497D01*
X126697580Y-97193524D01*
X126700638Y-97178150D01*
X126733023Y-97116239D01*
X126734518Y-97114716D01*
X131812416Y-92036819D01*
X131873739Y-92003334D01*
X131900097Y-92000500D01*
X135620234Y-92000500D01*
X135687273Y-92020185D01*
X135689125Y-92021398D01*
X135820814Y-92109390D01*
X135820827Y-92109397D01*
X135961858Y-92167813D01*
X135966503Y-92169737D01*
X136082810Y-92192872D01*
X136121153Y-92200499D01*
X136121156Y-92200500D01*
X136121158Y-92200500D01*
X136278844Y-92200500D01*
X136278845Y-92200499D01*
X136433497Y-92169737D01*
X136579179Y-92109394D01*
X136607297Y-92090606D01*
X136710875Y-92021398D01*
X136777553Y-92000520D01*
X136779766Y-92000500D01*
X146595258Y-92000500D01*
X146595274Y-92000501D01*
X146602870Y-92000501D01*
X146760981Y-92000501D01*
X146760984Y-92000501D01*
X146913712Y-91959577D01*
X146992802Y-91913914D01*
X147050643Y-91880520D01*
X147064918Y-91866244D01*
X147075505Y-91859284D01*
X147097283Y-91852641D01*
X147117266Y-91841729D01*
X147119439Y-91841277D01*
X147120128Y-91841140D01*
X147120129Y-91841140D01*
X147274784Y-91810377D01*
X147420466Y-91750034D01*
X147551576Y-91662429D01*
X147663076Y-91550929D01*
X147750681Y-91419819D01*
X147805417Y-91287672D01*
X147849255Y-91233274D01*
X147915549Y-91211208D01*
X147983248Y-91228487D01*
X148007657Y-91247448D01*
X148039707Y-91279498D01*
X148039711Y-91279501D01*
X148170814Y-91367102D01*
X148170827Y-91367109D01*
X148298082Y-91419819D01*
X148316503Y-91427449D01*
X148471153Y-91458211D01*
X148471156Y-91458212D01*
X148471158Y-91458212D01*
X148628844Y-91458212D01*
X148628845Y-91458211D01*
X148783497Y-91427449D01*
X148929179Y-91367106D01*
X149060289Y-91279501D01*
X149171789Y-91168001D01*
X149259394Y-91036891D01*
X149261717Y-91031284D01*
X149305763Y-90924946D01*
X149319737Y-90891209D01*
X149350500Y-90736554D01*
X149350500Y-90628842D01*
X149359633Y-90597737D01*
X149367451Y-90566260D01*
X149369422Y-90564400D01*
X149370185Y-90561803D01*
X149394675Y-90540581D01*
X149418279Y-90518319D01*
X149420943Y-90517820D01*
X149422989Y-90516048D01*
X149455070Y-90511435D01*
X149486957Y-90505469D01*
X149489918Y-90506424D01*
X149492147Y-90506104D01*
X149521211Y-90513976D01*
X149529108Y-90517187D01*
X149602530Y-90559577D01*
X149685412Y-90581785D01*
X149755256Y-90600500D01*
X149755257Y-90600500D01*
X149907403Y-90600500D01*
X149974442Y-90620185D01*
X149995084Y-90636819D01*
X150313741Y-90955476D01*
X150347226Y-91016799D01*
X150343992Y-91081473D01*
X150330253Y-91123757D01*
X150297000Y-91333713D01*
X150297000Y-91546286D01*
X150329270Y-91750034D01*
X150330254Y-91756243D01*
X150391159Y-91943689D01*
X150395945Y-91958417D01*
X150426918Y-92019206D01*
X150439814Y-92087875D01*
X150413537Y-92152615D01*
X150356431Y-92192872D01*
X150316433Y-92199500D01*
X149686669Y-92199500D01*
X149686653Y-92199499D01*
X149679057Y-92199499D01*
X149520943Y-92199499D01*
X149413587Y-92228265D01*
X149368210Y-92240424D01*
X149368209Y-92240425D01*
X149318096Y-92269359D01*
X149318095Y-92269360D01*
X149274689Y-92294420D01*
X149231285Y-92319479D01*
X149231282Y-92319481D01*
X147385339Y-94165425D01*
X147324016Y-94198910D01*
X147321850Y-94199361D01*
X147166508Y-94230261D01*
X147166498Y-94230264D01*
X147020827Y-94290602D01*
X147020814Y-94290609D01*
X146889711Y-94378210D01*
X146889707Y-94378213D01*
X146778213Y-94489707D01*
X146778210Y-94489711D01*
X146690609Y-94620814D01*
X146690602Y-94620827D01*
X146630264Y-94766498D01*
X146630261Y-94766510D01*
X146599500Y-94921153D01*
X146599500Y-95078846D01*
X146630261Y-95233489D01*
X146630264Y-95233501D01*
X146690602Y-95379172D01*
X146690609Y-95379185D01*
X146778210Y-95510288D01*
X146778213Y-95510292D01*
X146889707Y-95621786D01*
X146889711Y-95621789D01*
X147020814Y-95709390D01*
X147020827Y-95709397D01*
X147166498Y-95769735D01*
X147166503Y-95769737D01*
X147321153Y-95800499D01*
X147321156Y-95800500D01*
X147321158Y-95800500D01*
X147478844Y-95800500D01*
X147478845Y-95800499D01*
X147633497Y-95769737D01*
X147746166Y-95723067D01*
X147779172Y-95709397D01*
X147779172Y-95709396D01*
X147779179Y-95709394D01*
X147910289Y-95621789D01*
X148021789Y-95510289D01*
X148109394Y-95379179D01*
X148169737Y-95233497D01*
X148189320Y-95135048D01*
X148200638Y-95078150D01*
X148233023Y-95016239D01*
X148234518Y-95014716D01*
X149812416Y-93436819D01*
X149873739Y-93403334D01*
X149900097Y-93400500D01*
X150245121Y-93400500D01*
X150312160Y-93420185D01*
X150357915Y-93472989D01*
X150367859Y-93542147D01*
X150363054Y-93562807D01*
X150330254Y-93663757D01*
X150330253Y-93663760D01*
X150330253Y-93663762D01*
X150297000Y-93873713D01*
X150297000Y-94086286D01*
X150330253Y-94296239D01*
X150395944Y-94498414D01*
X150492451Y-94687820D01*
X150617390Y-94859786D01*
X150767713Y-95010109D01*
X150939682Y-95135050D01*
X150948446Y-95139516D01*
X150999242Y-95187491D01*
X151016036Y-95255312D01*
X150993498Y-95321447D01*
X150948446Y-95360484D01*
X150939682Y-95364949D01*
X150767713Y-95489890D01*
X150617390Y-95640213D01*
X150492451Y-95812179D01*
X150395944Y-96001585D01*
X150330253Y-96203760D01*
X150297000Y-96413713D01*
X150297000Y-96626287D01*
X150305358Y-96679054D01*
X150315955Y-96745967D01*
X150330254Y-96836243D01*
X150381648Y-96994418D01*
X150395944Y-97038414D01*
X150492451Y-97227820D01*
X150617390Y-97399786D01*
X150767713Y-97550109D01*
X150939682Y-97675050D01*
X150948446Y-97679516D01*
X150999242Y-97727491D01*
X151016036Y-97795312D01*
X150993498Y-97861447D01*
X150948446Y-97900484D01*
X150939682Y-97904949D01*
X150767713Y-98029890D01*
X150617390Y-98180213D01*
X150492451Y-98352179D01*
X150395944Y-98541585D01*
X150330253Y-98743760D01*
X150297000Y-98953713D01*
X150297000Y-99166286D01*
X150328710Y-99366498D01*
X150330254Y-99376243D01*
X150377338Y-99521153D01*
X150395944Y-99578414D01*
X150492451Y-99767820D01*
X150617390Y-99939786D01*
X150767713Y-100090109D01*
X150939679Y-100215048D01*
X150939681Y-100215049D01*
X150939684Y-100215051D01*
X150948993Y-100219794D01*
X150999790Y-100267766D01*
X151016587Y-100335587D01*
X150994052Y-100401722D01*
X150949005Y-100440760D01*
X150939946Y-100445376D01*
X150939940Y-100445380D01*
X150885782Y-100484727D01*
X150885782Y-100484728D01*
X151518091Y-101117037D01*
X151454507Y-101134075D01*
X151340493Y-101199901D01*
X151247401Y-101292993D01*
X151181575Y-101407007D01*
X151164537Y-101470591D01*
X150532228Y-100838282D01*
X150532227Y-100838282D01*
X150492880Y-100892439D01*
X150396404Y-101081782D01*
X150330742Y-101283869D01*
X150330742Y-101283872D01*
X150297500Y-101493753D01*
X150297500Y-101706246D01*
X150330742Y-101916127D01*
X150330742Y-101916130D01*
X150396404Y-102118217D01*
X150492875Y-102307550D01*
X150532228Y-102361716D01*
X151164537Y-101729408D01*
X151181575Y-101792993D01*
X151247401Y-101907007D01*
X151340493Y-102000099D01*
X151454507Y-102065925D01*
X151518090Y-102082962D01*
X150885782Y-102715269D01*
X150885782Y-102715270D01*
X150939949Y-102754624D01*
X151129282Y-102851095D01*
X151331370Y-102916757D01*
X151541254Y-102950000D01*
X151753746Y-102950000D01*
X151963627Y-102916757D01*
X151963630Y-102916757D01*
X152165717Y-102851095D01*
X152355054Y-102754622D01*
X152409216Y-102715270D01*
X152409217Y-102715270D01*
X151776908Y-102082962D01*
X151840493Y-102065925D01*
X151954507Y-102000099D01*
X152047599Y-101907007D01*
X152113425Y-101792993D01*
X152130462Y-101729408D01*
X152762770Y-102361717D01*
X152762770Y-102361716D01*
X152802122Y-102307555D01*
X152806732Y-102298507D01*
X152854705Y-102247709D01*
X152922525Y-102230912D01*
X152988661Y-102253447D01*
X153027704Y-102298504D01*
X153032449Y-102307817D01*
X153157390Y-102479786D01*
X153307713Y-102630109D01*
X153479679Y-102755048D01*
X153479681Y-102755049D01*
X153479684Y-102755051D01*
X153669088Y-102851557D01*
X153871257Y-102917246D01*
X154081213Y-102950500D01*
X154081214Y-102950500D01*
X154293786Y-102950500D01*
X154293787Y-102950500D01*
X154503743Y-102917246D01*
X154705912Y-102851557D01*
X154895316Y-102755051D01*
X154962378Y-102706328D01*
X155067286Y-102630109D01*
X155067288Y-102630106D01*
X155067292Y-102630104D01*
X155217604Y-102479792D01*
X155217606Y-102479788D01*
X155217609Y-102479786D01*
X155342548Y-102307820D01*
X155342550Y-102307817D01*
X155342551Y-102307816D01*
X155439057Y-102118412D01*
X155504746Y-101916243D01*
X155538000Y-101706287D01*
X155538000Y-101493713D01*
X155504746Y-101283757D01*
X155439057Y-101081588D01*
X155342551Y-100892184D01*
X155342549Y-100892181D01*
X155342548Y-100892179D01*
X155217609Y-100720213D01*
X155067286Y-100569890D01*
X154895320Y-100444951D01*
X154887100Y-100440763D01*
X154886554Y-100440485D01*
X154835759Y-100392512D01*
X154818963Y-100324692D01*
X154841499Y-100258556D01*
X154886554Y-100219515D01*
X154895316Y-100215051D01*
X154917289Y-100199086D01*
X155067286Y-100090109D01*
X155067288Y-100090106D01*
X155067292Y-100090104D01*
X155217604Y-99939792D01*
X155217606Y-99939788D01*
X155217609Y-99939786D01*
X155342548Y-99767820D01*
X155342547Y-99767820D01*
X155342551Y-99767816D01*
X155439057Y-99578412D01*
X155504746Y-99376243D01*
X155538000Y-99166287D01*
X155538000Y-98953713D01*
X155504746Y-98743757D01*
X155439057Y-98541588D01*
X155342551Y-98352184D01*
X155342549Y-98352181D01*
X155342548Y-98352179D01*
X155217609Y-98180213D01*
X155067286Y-98029890D01*
X154895320Y-97904951D01*
X154894615Y-97904591D01*
X154886554Y-97900485D01*
X154835759Y-97852512D01*
X154818963Y-97784692D01*
X154841499Y-97718556D01*
X154886554Y-97679515D01*
X154895316Y-97675051D01*
X154984454Y-97610289D01*
X155067286Y-97550109D01*
X155067288Y-97550106D01*
X155067292Y-97550104D01*
X155217604Y-97399792D01*
X155217606Y-97399788D01*
X155217609Y-97399786D01*
X155342548Y-97227820D01*
X155342547Y-97227820D01*
X155342551Y-97227816D01*
X155439057Y-97038412D01*
X155504746Y-96836243D01*
X155538000Y-96626287D01*
X155538000Y-96413713D01*
X155504746Y-96203757D01*
X155439057Y-96001588D01*
X155342551Y-95812184D01*
X155342549Y-95812181D01*
X155342548Y-95812179D01*
X155217609Y-95640213D01*
X155067286Y-95489890D01*
X154895320Y-95364951D01*
X154894615Y-95364591D01*
X154886554Y-95360485D01*
X154835759Y-95312512D01*
X154818963Y-95244692D01*
X154841499Y-95178556D01*
X154886554Y-95139515D01*
X154895316Y-95135051D01*
X155014121Y-95048735D01*
X155067286Y-95010109D01*
X155067288Y-95010106D01*
X155067292Y-95010104D01*
X155217604Y-94859792D01*
X155217606Y-94859788D01*
X155217609Y-94859786D01*
X155342548Y-94687820D01*
X155342547Y-94687820D01*
X155342551Y-94687816D01*
X155439057Y-94498412D01*
X155504746Y-94296243D01*
X155538000Y-94086287D01*
X155538000Y-93873713D01*
X155504746Y-93663757D01*
X155439057Y-93461588D01*
X155342551Y-93272184D01*
X155342549Y-93272181D01*
X155342548Y-93272179D01*
X155217609Y-93100213D01*
X155067286Y-92949890D01*
X154895320Y-92824951D01*
X154894615Y-92824591D01*
X154886554Y-92820485D01*
X154835759Y-92772512D01*
X154818963Y-92704692D01*
X154841499Y-92638556D01*
X154886554Y-92599515D01*
X154895316Y-92595051D01*
X154917289Y-92579086D01*
X155067286Y-92470109D01*
X155067288Y-92470106D01*
X155067292Y-92470104D01*
X155217604Y-92319792D01*
X155217606Y-92319788D01*
X155217609Y-92319786D01*
X155342548Y-92147820D01*
X155342547Y-92147820D01*
X155342551Y-92147816D01*
X155439057Y-91958412D01*
X155504746Y-91756243D01*
X155538000Y-91546287D01*
X155538000Y-91333713D01*
X155504746Y-91123757D01*
X155439057Y-90921588D01*
X155342551Y-90732184D01*
X155342549Y-90732181D01*
X155342548Y-90732179D01*
X155217609Y-90560213D01*
X155067286Y-90409890D01*
X154895320Y-90284951D01*
X154894615Y-90284591D01*
X154886554Y-90280485D01*
X154835759Y-90232512D01*
X154818963Y-90164692D01*
X154841499Y-90098556D01*
X154886554Y-90059515D01*
X154895316Y-90055051D01*
X154917289Y-90039086D01*
X155067286Y-89930109D01*
X155067288Y-89930106D01*
X155067292Y-89930104D01*
X155217604Y-89779792D01*
X155217606Y-89779788D01*
X155217609Y-89779786D01*
X155342548Y-89607820D01*
X155342547Y-89607820D01*
X155342551Y-89607816D01*
X155439057Y-89418412D01*
X155504746Y-89216243D01*
X155538000Y-89006287D01*
X155538000Y-88793713D01*
X155504746Y-88583757D01*
X155439057Y-88381588D01*
X155342551Y-88192184D01*
X155342549Y-88192181D01*
X155342548Y-88192179D01*
X155217609Y-88020213D01*
X155067286Y-87869890D01*
X154895320Y-87744951D01*
X154705914Y-87648444D01*
X154705913Y-87648443D01*
X154705912Y-87648443D01*
X154503743Y-87582754D01*
X154503741Y-87582753D01*
X154503740Y-87582753D01*
X154342457Y-87557208D01*
X154293787Y-87549500D01*
X154081213Y-87549500D01*
X154032542Y-87557208D01*
X153871260Y-87582753D01*
X153669085Y-87648444D01*
X153479679Y-87744951D01*
X153307713Y-87869890D01*
X153157394Y-88020209D01*
X153157385Y-88020219D01*
X153153830Y-88025113D01*
X153098497Y-88067775D01*
X153028883Y-88073748D01*
X152967091Y-88041137D01*
X152935812Y-87991223D01*
X152934224Y-87986431D01*
X152932314Y-87980666D01*
X152840212Y-87831344D01*
X152716156Y-87707288D01*
X152585072Y-87626435D01*
X152566836Y-87615187D01*
X152566831Y-87615185D01*
X152503478Y-87594192D01*
X152400297Y-87560001D01*
X152400295Y-87560000D01*
X152297510Y-87549500D01*
X150997498Y-87549500D01*
X150997481Y-87549501D01*
X150894703Y-87560000D01*
X150894700Y-87560001D01*
X150728168Y-87615185D01*
X150728166Y-87615185D01*
X150728166Y-87615186D01*
X150728162Y-87615187D01*
X150728161Y-87615189D01*
X150680973Y-87644294D01*
X150613580Y-87662733D01*
X150546917Y-87641809D01*
X150528197Y-87626435D01*
X150429975Y-87528213D01*
X150429971Y-87528210D01*
X150298868Y-87440609D01*
X150298855Y-87440602D01*
X150153184Y-87380264D01*
X150153174Y-87380261D01*
X150024481Y-87354662D01*
X149962570Y-87322277D01*
X149934114Y-87280502D01*
X149909394Y-87220821D01*
X149909391Y-87220816D01*
X149909390Y-87220814D01*
X149821789Y-87089711D01*
X149821786Y-87089707D01*
X149710292Y-86978213D01*
X149710288Y-86978210D01*
X149579185Y-86890609D01*
X149579172Y-86890602D01*
X149433501Y-86830264D01*
X149433489Y-86830261D01*
X149278845Y-86799500D01*
X149278842Y-86799500D01*
X149121158Y-86799500D01*
X149121155Y-86799500D01*
X148966510Y-86830261D01*
X148966498Y-86830264D01*
X148820827Y-86890602D01*
X148820814Y-86890609D01*
X148689125Y-86978602D01*
X148622447Y-86999480D01*
X148620234Y-86999500D01*
X137900097Y-86999500D01*
X137870656Y-86990855D01*
X137840670Y-86984332D01*
X137835654Y-86980577D01*
X137833058Y-86979815D01*
X137812416Y-86963181D01*
X137687590Y-86838355D01*
X137687588Y-86838352D01*
X137568717Y-86719481D01*
X137568716Y-86719480D01*
X137481904Y-86669360D01*
X137481904Y-86669359D01*
X137481900Y-86669358D01*
X137431785Y-86640423D01*
X137279057Y-86599499D01*
X137120943Y-86599499D01*
X137113347Y-86599499D01*
X137113331Y-86599500D01*
X129442605Y-86599500D01*
X129375566Y-86579815D01*
X129329811Y-86527011D01*
X129328044Y-86522952D01*
X129269017Y-86380447D01*
X129269010Y-86380434D01*
X129181409Y-86249331D01*
X129181406Y-86249327D01*
X129069912Y-86137833D01*
X129069908Y-86137830D01*
X128938805Y-86050229D01*
X128938792Y-86050222D01*
X128793121Y-85989884D01*
X128793109Y-85989881D01*
X128638465Y-85959120D01*
X128638462Y-85959120D01*
X128480778Y-85959120D01*
X128480775Y-85959120D01*
X128326130Y-85989881D01*
X128326118Y-85989884D01*
X128180447Y-86050222D01*
X128180434Y-86050229D01*
X128049331Y-86137830D01*
X128049327Y-86137833D01*
X127937833Y-86249327D01*
X127937830Y-86249331D01*
X127850229Y-86380434D01*
X127850222Y-86380447D01*
X127789884Y-86526118D01*
X127789881Y-86526130D01*
X127759120Y-86680773D01*
X127759120Y-86838466D01*
X127789881Y-86993109D01*
X127789884Y-86993121D01*
X127850222Y-87138792D01*
X127850229Y-87138805D01*
X127937830Y-87269908D01*
X127937833Y-87269912D01*
X128049327Y-87381406D01*
X128049331Y-87381409D01*
X128180434Y-87469010D01*
X128180447Y-87469017D01*
X128323354Y-87528210D01*
X128326123Y-87529357D01*
X128427388Y-87549500D01*
X128481466Y-87560257D01*
X128543377Y-87592642D01*
X128544956Y-87594192D01*
X128631284Y-87680520D01*
X128631286Y-87680521D01*
X128631290Y-87680524D01*
X128702539Y-87721659D01*
X128768216Y-87759577D01*
X128880019Y-87789534D01*
X128920942Y-87800500D01*
X128920943Y-87800500D01*
X132082152Y-87800500D01*
X132149191Y-87820185D01*
X132194946Y-87872989D01*
X132203769Y-87900308D01*
X132230261Y-88033491D01*
X132230263Y-88033497D01*
X132253919Y-88090609D01*
X132269427Y-88128047D01*
X132276896Y-88197517D01*
X132245621Y-88259996D01*
X132185532Y-88295648D01*
X132154866Y-88299500D01*
X128767334Y-88299500D01*
X128751843Y-88295349D01*
X128738099Y-88296004D01*
X128705334Y-88282887D01*
X128672053Y-88263672D01*
X128672051Y-88263670D01*
X128631788Y-88240424D01*
X128631783Y-88240422D01*
X128582892Y-88227321D01*
X128527307Y-88195228D01*
X128510292Y-88178213D01*
X128510288Y-88178210D01*
X128379185Y-88090609D01*
X128379172Y-88090602D01*
X128233501Y-88030264D01*
X128233489Y-88030261D01*
X128078845Y-87999500D01*
X128078842Y-87999500D01*
X127921158Y-87999500D01*
X127921155Y-87999500D01*
X127766510Y-88030261D01*
X127766498Y-88030264D01*
X127620827Y-88090602D01*
X127620814Y-88090609D01*
X127489711Y-88178210D01*
X127489707Y-88178213D01*
X127378213Y-88289707D01*
X127378210Y-88289711D01*
X127290609Y-88420814D01*
X127290602Y-88420827D01*
X127245478Y-88529770D01*
X127201638Y-88584174D01*
X127135344Y-88606239D01*
X127130917Y-88606318D01*
X121525216Y-88606318D01*
X121458177Y-88586633D01*
X121456325Y-88585420D01*
X121324635Y-88497427D01*
X121324622Y-88497420D01*
X121178951Y-88437082D01*
X121178939Y-88437079D01*
X121024291Y-88406317D01*
X121022991Y-88406189D01*
X121022354Y-88405931D01*
X121018318Y-88405129D01*
X121018470Y-88404363D01*
X120958205Y-88380024D01*
X120932052Y-88351679D01*
X120871789Y-88261489D01*
X120871787Y-88261486D01*
X120760292Y-88149991D01*
X120760288Y-88149988D01*
X120699498Y-88109369D01*
X120654693Y-88055756D01*
X120645986Y-87986431D01*
X120646773Y-87982071D01*
X120650500Y-87963338D01*
X120650500Y-87805648D01*
X120650499Y-87805646D01*
X120638426Y-87744951D01*
X120619737Y-87650996D01*
X120607638Y-87621786D01*
X120559397Y-87505320D01*
X120559390Y-87505307D01*
X120471789Y-87374204D01*
X120471786Y-87374200D01*
X120410190Y-87312604D01*
X120376705Y-87251281D01*
X120376254Y-87200733D01*
X120398339Y-87089707D01*
X120400500Y-87078844D01*
X120400500Y-86921155D01*
X120400499Y-86921153D01*
X120384051Y-86838466D01*
X120369737Y-86766503D01*
X120334227Y-86680773D01*
X120309397Y-86620827D01*
X120309390Y-86620814D01*
X120221789Y-86489711D01*
X120221786Y-86489707D01*
X120110292Y-86378213D01*
X120110288Y-86378210D01*
X119979185Y-86290609D01*
X119979172Y-86290602D01*
X119833501Y-86230264D01*
X119833489Y-86230261D01*
X119678845Y-86199500D01*
X119678842Y-86199500D01*
X119521158Y-86199500D01*
X119521155Y-86199500D01*
X119366510Y-86230261D01*
X119366498Y-86230264D01*
X119220827Y-86290602D01*
X119220814Y-86290609D01*
X119089711Y-86378210D01*
X119089707Y-86378213D01*
X118978213Y-86489707D01*
X118978210Y-86489711D01*
X118890609Y-86620814D01*
X118890602Y-86620827D01*
X118830264Y-86766498D01*
X118830261Y-86766508D01*
X118799362Y-86921848D01*
X118777707Y-86971029D01*
X118772110Y-86978653D01*
X118719480Y-87031284D01*
X118671288Y-87114756D01*
X118667892Y-87120637D01*
X118667889Y-87120642D01*
X118640423Y-87168214D01*
X118640423Y-87168215D01*
X118599499Y-87320943D01*
X118599499Y-87479057D01*
X118599499Y-87479059D01*
X118599500Y-87489053D01*
X118599500Y-96513330D01*
X118599499Y-96513348D01*
X118599499Y-96679054D01*
X118599498Y-96679054D01*
X108000000Y-96679054D01*
X108000000Y-83900000D01*
X108939016Y-83900000D01*
X109789722Y-83900000D01*
X109745667Y-83976306D01*
X109715000Y-84090756D01*
X109715000Y-84209244D01*
X109745667Y-84323694D01*
X109789722Y-84400000D01*
X108939016Y-84400000D01*
X108945781Y-84442716D01*
X109006581Y-84629837D01*
X109095904Y-84805143D01*
X109211555Y-84964321D01*
X109350678Y-85103444D01*
X109509856Y-85219095D01*
X109685164Y-85308418D01*
X109872294Y-85369221D01*
X110066618Y-85400000D01*
X110515000Y-85400000D01*
X110515000Y-84600000D01*
X111015000Y-84600000D01*
X111015000Y-85400000D01*
X111463382Y-85400000D01*
X111657705Y-85369221D01*
X111844835Y-85308418D01*
X112020143Y-85219095D01*
X112179321Y-85103444D01*
X112318444Y-84964321D01*
X112434095Y-84805143D01*
X112523418Y-84629837D01*
X112584218Y-84442716D01*
X112590984Y-84400000D01*
X111740278Y-84400000D01*
X111784333Y-84323694D01*
X111815000Y-84209244D01*
X111815000Y-84090756D01*
X111784333Y-83976306D01*
X111740278Y-83900000D01*
X112590984Y-83900000D01*
X112584218Y-83857283D01*
X112523418Y-83670162D01*
X112434095Y-83494856D01*
X112318444Y-83335678D01*
X112179321Y-83196555D01*
X112020143Y-83080904D01*
X111844835Y-82991581D01*
X111657705Y-82930778D01*
X111463382Y-82900000D01*
X111015000Y-82900000D01*
X111015000Y-83700000D01*
X110515000Y-83700000D01*
X110515000Y-82900000D01*
X110066618Y-82900000D01*
X109872294Y-82930778D01*
X109685164Y-82991581D01*
X109509856Y-83080904D01*
X109350678Y-83196555D01*
X109211555Y-83335678D01*
X109095904Y-83494856D01*
X109006581Y-83670162D01*
X108945781Y-83857283D01*
X108939016Y-83900000D01*
X108000000Y-83900000D01*
X108000000Y-81723504D01*
X108019685Y-81656465D01*
X108072489Y-81610710D01*
X108123499Y-81599506D01*
X135055880Y-81491776D01*
X135122997Y-81511192D01*
X135168962Y-81563813D01*
X135179182Y-81632931D01*
X135150412Y-81696602D01*
X135129260Y-81716093D01*
X135055214Y-81769890D01*
X135055209Y-81769894D01*
X134904892Y-81920211D01*
X134848097Y-81998385D01*
X134792767Y-82041051D01*
X134747779Y-82049500D01*
X120918136Y-82049500D01*
X120773148Y-82078340D01*
X120773138Y-82078343D01*
X120636565Y-82134913D01*
X120636563Y-82134914D01*
X120595701Y-82162218D01*
X120595699Y-82162219D01*
X120513645Y-82217043D01*
X120513640Y-82217047D01*
X118994457Y-83736229D01*
X118933134Y-83769714D01*
X118863442Y-83764730D01*
X118807509Y-83722858D01*
X118788844Y-83686864D01*
X118783417Y-83670161D01*
X118694095Y-83494856D01*
X118578444Y-83335678D01*
X118439321Y-83196555D01*
X118280143Y-83080904D01*
X118104835Y-82991581D01*
X117917705Y-82930778D01*
X117723382Y-82900000D01*
X116975000Y-82900000D01*
X116975000Y-83700000D01*
X116475000Y-83700000D01*
X116475000Y-82900000D01*
X115726618Y-82900000D01*
X115532294Y-82930778D01*
X115345164Y-82991581D01*
X115169856Y-83080904D01*
X115010678Y-83196555D01*
X114871555Y-83335678D01*
X114755904Y-83494856D01*
X114666581Y-83670162D01*
X114605781Y-83857283D01*
X114599016Y-83900000D01*
X115449722Y-83900000D01*
X115405667Y-83976306D01*
X115375000Y-84090756D01*
X115375000Y-84209244D01*
X115405667Y-84323694D01*
X115449722Y-84400000D01*
X114599016Y-84400000D01*
X114605781Y-84442716D01*
X114666581Y-84629837D01*
X114755904Y-84805143D01*
X114871555Y-84964321D01*
X115010678Y-85103444D01*
X115169856Y-85219095D01*
X115345164Y-85308418D01*
X115532294Y-85369221D01*
X115726618Y-85400000D01*
X116475000Y-85400000D01*
X116475000Y-84600000D01*
X116975000Y-84600000D01*
X116975000Y-85400000D01*
X117031326Y-85400000D01*
X117098365Y-85419685D01*
X117144120Y-85472489D01*
X117154064Y-85541647D01*
X117125039Y-85605203D01*
X117119007Y-85611681D01*
X116517507Y-86213181D01*
X116456184Y-86246666D01*
X116429826Y-86249500D01*
X115704604Y-86249500D01*
X115657155Y-86240062D01*
X115633497Y-86230263D01*
X115633493Y-86230262D01*
X115633488Y-86230260D01*
X115478845Y-86199500D01*
X115478842Y-86199500D01*
X115321158Y-86199500D01*
X115321155Y-86199500D01*
X115166510Y-86230261D01*
X115166498Y-86230264D01*
X115020827Y-86290602D01*
X115020814Y-86290609D01*
X114889711Y-86378210D01*
X114889707Y-86378213D01*
X114778213Y-86489707D01*
X114778210Y-86489711D01*
X114690609Y-86620814D01*
X114690602Y-86620827D01*
X114630264Y-86766498D01*
X114630261Y-86766510D01*
X114599500Y-86921153D01*
X114599500Y-87078846D01*
X114630261Y-87233489D01*
X114630264Y-87233501D01*
X114690602Y-87379172D01*
X114690609Y-87379185D01*
X114778210Y-87510288D01*
X114778213Y-87510292D01*
X114889707Y-87621786D01*
X114889711Y-87621789D01*
X115020814Y-87709390D01*
X115020827Y-87709397D01*
X115141972Y-87759576D01*
X115166503Y-87769737D01*
X115266029Y-87789534D01*
X115321153Y-87800499D01*
X115321156Y-87800500D01*
X115321158Y-87800500D01*
X115478844Y-87800500D01*
X115478845Y-87800499D01*
X115555152Y-87785320D01*
X115633488Y-87769739D01*
X115633489Y-87769738D01*
X115633497Y-87769737D01*
X115657155Y-87759937D01*
X115704604Y-87750500D01*
X116865976Y-87750500D01*
X116963518Y-87731096D01*
X117010969Y-87721658D01*
X117147551Y-87665084D01*
X117212347Y-87621789D01*
X117212350Y-87621786D01*
X117212352Y-87621786D01*
X117253650Y-87594192D01*
X117270472Y-87582952D01*
X117412822Y-87440602D01*
X117628291Y-87225134D01*
X121266605Y-83586819D01*
X121327928Y-83553334D01*
X121354286Y-83550500D01*
X134747779Y-83550500D01*
X134814818Y-83570185D01*
X134848097Y-83601615D01*
X134904892Y-83679788D01*
X135055213Y-83830109D01*
X135227179Y-83955048D01*
X135227181Y-83955049D01*
X135227184Y-83955051D01*
X135416588Y-84051557D01*
X135618757Y-84117246D01*
X135828713Y-84150500D01*
X135828714Y-84150500D01*
X136041286Y-84150500D01*
X136041287Y-84150500D01*
X136251243Y-84117246D01*
X136453412Y-84051557D01*
X136642816Y-83955051D01*
X136814792Y-83830104D01*
X136928329Y-83716566D01*
X136989648Y-83683084D01*
X137059340Y-83688068D01*
X137115274Y-83729939D01*
X137132189Y-83760917D01*
X137181202Y-83892328D01*
X137181206Y-83892335D01*
X137267452Y-84007544D01*
X137267455Y-84007547D01*
X137382664Y-84093793D01*
X137382671Y-84093797D01*
X137517517Y-84144091D01*
X137517516Y-84144091D01*
X137524444Y-84144835D01*
X137577127Y-84150500D01*
X139372872Y-84150499D01*
X139432483Y-84144091D01*
X139567331Y-84093796D01*
X139682546Y-84007546D01*
X139768796Y-83892331D01*
X139819091Y-83757483D01*
X139825500Y-83697873D01*
X139825499Y-81902128D01*
X139819091Y-81842517D01*
X139792004Y-81769894D01*
X139768797Y-81707671D01*
X139768795Y-81707668D01*
X139741308Y-81670950D01*
X139716890Y-81605485D01*
X139731741Y-81537212D01*
X139781146Y-81487806D01*
X139840075Y-81472639D01*
X157875507Y-81400497D01*
X157942622Y-81419913D01*
G37*
%TD.AperFunction*%
%TD*%
M02*
