M48
; DRILL file {KiCad 9.0.8+dfsg-1} date 2026-07-27T01:00:59+0200
; FORMAT={-:-/ absolute / inch / decimal}
; #@! TF.CreationDate,2026-07-27T01:00:59+02:00
; #@! TF.GenerationSoftware,Kicad,Pcbnew,9.0.8+dfsg-1
; #@! TF.FileFunction,Plated,1,2,PTH
FMAT,2
INCH
; #@! TA.AperFunction,Plated,PTH,ViaDrill
T1C0.0118
; #@! TA.AperFunction,Plated,PTH,ComponentDrill
T2C0.0354
; #@! TA.AperFunction,Plated,PTH,ComponentDrill
T3C0.0394
%
G90
G05
T1
X4.5433Y-3.4252
X4.5433Y-3.4646
X4.5433Y-3.5827
X4.5433Y-3.6378
X4.5433Y-3.7008
X4.5512Y-3.7638
X4.7008Y-3.2283
X4.7087Y-3.4252
X4.7185Y-3.46
X4.7343Y-3.495
X4.7569Y-3.5434
X4.7616Y-3.5121
X4.7638Y-3.6535
X4.7953Y-3.5571
X4.8031Y-3.7559
X4.8268Y-3.7874
X4.8616Y-3.7986
X4.8898Y-4.0394
X4.9134Y-3.8189
X4.9154Y-3.4675
X4.9567Y-3.8228
X4.9921Y-4.0394
X5.0236Y-3.2283
X5.0315Y-3.2913
X5.0394Y-3.4961
X5.0614Y-3.4157
X5.0757Y-3.368
X5.2362Y-3.4567
X5.3622Y-3.5984
X5.3858Y-3.4646
X5.5669Y-3.5748
X5.6693Y-3.9213
X5.7402Y-3.8346
X5.789Y-3.5843
X5.8031Y-3.7402
X5.811Y-3.3701
X5.8484Y-3.5692
X5.874Y-3.4488
X5.9023Y-3.4705
T3
X5.2067Y-4.0604
X5.2067Y-4.1604
X5.3067Y-4.0604
X5.3067Y-4.1604
X5.3518Y-3.2598
X5.4067Y-4.0604
X5.4067Y-4.1604
X5.4518Y-3.2598
X5.5067Y-4.0604
X5.5067Y-4.1604
X5.6067Y-4.0604
X5.6067Y-4.1604
X5.7067Y-4.0604
X5.7067Y-4.1604
X5.9704Y-3.5
X5.9704Y-3.6
X5.9704Y-3.7
X5.9704Y-3.8
X5.9704Y-3.9
X5.9704Y-4.0
X6.0704Y-3.5
X6.0704Y-3.6
X6.0704Y-3.7
X6.0704Y-3.8
X6.0704Y-3.9
X6.0704Y-4.0
T2
G00X4.3844Y-3.313
M15
G01X4.3372Y-3.313
M16
G05
G00X4.3844Y-3.8839
M15
G01X4.3372Y-3.8839
M16
G05
G00X4.6309Y-3.313
M15
G01X4.56Y-3.313
M16
G05
G00X4.6309Y-3.8839
M15
G01X4.56Y-3.8839
M16
G05
M30
