M48
; DRILL file {KiCad 9.0.8+dfsg-1} date 2026-07-08T00:02:06+0200
; FORMAT={-:-/ absolute / inch / decimal}
; #@! TF.CreationDate,2026-07-08T00:02:06+02:00
; #@! TF.GenerationSoftware,Kicad,Pcbnew,9.0.8+dfsg-1
; #@! TF.FileFunction,Plated,1,2,PTH
FMAT,2
INCH
; #@! TA.AperFunction,Plated,PTH,ViaDrill
T1C0.0118
; #@! TA.AperFunction,Plated,PTH,ComponentDrill
T2C0.0354
; #@! TA.AperFunction,Plated,PTH,ComponentDrill
T3C0.0394
%
G90
G05
T1
X4.7402Y-4.0472
X4.9193Y-3.5915
X4.9213Y-3.4409
X4.9723Y-3.4132
X4.9764Y-3.4685
X4.991Y-3.6729
X4.9921Y-3.4961
X5.0011Y-3.5318
X5.004Y-3.7037
X5.1452Y-3.6028
X5.1465Y-3.4807
X5.149Y-3.6791
X5.1496Y-3.3465
X5.1574Y-3.5116
X5.1575Y-3.7303
X5.1654Y-3.2992
X5.1696Y-3.5627
X5.189Y-3.8819
X5.1935Y-3.6485
X5.1947Y-3.6094
X5.1998Y-3.6979
X5.2206Y-3.6299
X5.238Y-3.7321
X5.2382Y-3.5013
X5.2382Y-3.5348
X5.2704Y-3.7237
X5.2931Y-3.4508
X5.3028Y-3.502
X5.3165Y-3.7892
X5.3454Y-3.8061
X5.3684Y-3.8622
X5.378Y-3.4488
X5.378Y-3.8976
X5.3859Y-3.7559
X5.4067Y-3.4791
X5.4252Y-3.4173
X5.4481Y-3.7423
X5.4512Y-3.6906
X5.4934Y-3.4902
X5.5494Y-3.5591
X5.5708Y-3.5335
X5.6362Y-3.4902
X5.685Y-3.7008
X5.685Y-3.748
X5.7087Y-3.622
X5.7165Y-3.3307
X5.7402Y-3.4331
X5.7559Y-3.9449
X5.7786Y-3.4902
X5.8988Y-3.4731
X5.9171Y-3.5231
X6.0236Y-3.4094
T3
X5.2067Y-4.0604
X5.2067Y-4.1604
X5.2543Y-3.2598
X5.3067Y-4.0604
X5.3067Y-4.1604
X5.3543Y-3.2598
X5.4067Y-4.0604
X5.4067Y-4.1604
X5.5067Y-4.0604
X5.5067Y-4.1604
X5.6067Y-4.0604
X5.6067Y-4.1604
X5.7067Y-4.0604
X5.7067Y-4.1604
X5.9704Y-3.5
X5.9704Y-3.6
X5.9704Y-3.7
X5.9704Y-3.8
X5.9704Y-3.9
X5.9704Y-4.0
X6.0704Y-3.5
X6.0704Y-3.6
X6.0704Y-3.7
X6.0704Y-3.8
X6.0704Y-3.9
X6.0704Y-4.0
T2
G00X4.8346Y-3.2953
M15
G01X4.7874Y-3.2953
M16
G05
G00X4.8346Y-3.8661
M15
G01X4.7874Y-3.8661
M16
G05
G00X5.0811Y-3.2953
M15
G01X5.0102Y-3.2953
M16
G05
G00X5.0811Y-3.8661
M15
G01X5.0102Y-3.8661
M16
G05
M30
