%TF.GenerationSoftware,KiCad,Pcbnew,9.0.8+dfsg-1*%
%TF.CreationDate,2026-07-08T00:02:06+02:00*%
%TF.ProjectId,HDMItest,48444d49-7465-4737-942e-6b696361645f,rev?*%
%TF.SameCoordinates,Original*%
%TF.FileFunction,Legend,Top*%
%TF.FilePolarity,Positive*%
%FSLAX46Y46*%
G04 Gerber Fmt 4.6, Leading zero omitted, Abs format (unit mm)*
G04 Created by KiCad (PCBNEW 9.0.8+dfsg-1) date 2026-07-08 00:02:06*
%MOMM*%
%LPD*%
G01*
G04 APERTURE LIST*
G04 Aperture macros list*
%AMRoundRect*
0 Rectangle with rounded corners*
0 $1 Rounding radius*
0 $2 $3 $4 $5 $6 $7 $8 $9 X,Y pos of 4 corners*
0 Add a 4 corners polygon primitive as box body*
4,1,4,$2,$3,$4,$5,$6,$7,$8,$9,$2,$3,0*
0 Add four circle primitives for the rounded corners*
1,1,$1+$1,$2,$3*
1,1,$1+$1,$4,$5*
1,1,$1+$1,$6,$7*
1,1,$1+$1,$8,$9*
0 Add four rect primitives between the rounded corners*
20,1,$1+$1,$2,$3,$4,$5,0*
20,1,$1+$1,$4,$5,$6,$7,0*
20,1,$1+$1,$6,$7,$8,$9,0*
20,1,$1+$1,$8,$9,$2,$3,0*%
%AMFreePoly0*
4,1,23,0.500000,-0.750000,0.000000,-0.750000,0.000000,-0.745722,-0.065263,-0.745722,-0.191342,-0.711940,-0.304381,-0.646677,-0.396677,-0.554381,-0.461940,-0.441342,-0.495722,-0.315263,-0.495722,-0.250000,-0.500000,-0.250000,-0.500000,0.250000,-0.495722,0.250000,-0.495722,0.315263,-0.461940,0.441342,-0.396677,0.554381,-0.304381,0.646677,-0.191342,0.711940,-0.065263,0.745722,0.000000,0.745722,
0.000000,0.750000,0.500000,0.750000,0.500000,-0.750000,0.500000,-0.750000,$1*%
%AMFreePoly1*
4,1,23,0.000000,0.745722,0.065263,0.745722,0.191342,0.711940,0.304381,0.646677,0.396677,0.554381,0.461940,0.441342,0.495722,0.315263,0.495722,0.250000,0.500000,0.250000,0.500000,-0.250000,0.495722,-0.250000,0.495722,-0.315263,0.461940,-0.441342,0.396677,-0.554381,0.304381,-0.646677,0.191342,-0.711940,0.065263,-0.745722,0.000000,-0.745722,0.000000,-0.750000,-0.500000,-0.750000,
-0.500000,0.750000,0.000000,0.750000,0.000000,0.745722,0.000000,0.745722,$1*%
G04 Aperture macros list end*
%ADD10C,0.150000*%
%ADD11C,0.120000*%
%ADD12RoundRect,0.237500X-0.237500X0.250000X-0.237500X-0.250000X0.237500X-0.250000X0.237500X0.250000X0*%
%ADD13RoundRect,0.237500X-0.250000X-0.237500X0.250000X-0.237500X0.250000X0.237500X-0.250000X0.237500X0*%
%ADD14RoundRect,0.237500X0.250000X0.237500X-0.250000X0.237500X-0.250000X-0.237500X0.250000X-0.237500X0*%
%ADD15FreePoly0,0.000000*%
%ADD16FreePoly1,0.000000*%
%ADD17FreePoly0,180.000000*%
%ADD18FreePoly1,180.000000*%
%ADD19R,1.250000X3.500000*%
%ADD20RoundRect,0.050000X0.050000X0.325000X-0.050000X0.325000X-0.050000X-0.325000X0.050000X-0.325000X0*%
%ADD21RoundRect,0.050000X0.325000X0.050000X-0.325000X0.050000X-0.325000X-0.050000X0.325000X-0.050000X0*%
%ADD22RoundRect,0.237500X-0.300000X-0.237500X0.300000X-0.237500X0.300000X0.237500X-0.300000X0.237500X0*%
%ADD23RoundRect,0.237500X-0.237500X0.300000X-0.237500X-0.300000X0.237500X-0.300000X0.237500X0.300000X0*%
%ADD24RoundRect,0.250000X-0.337500X-0.475000X0.337500X-0.475000X0.337500X0.475000X-0.337500X0.475000X0*%
%ADD25RoundRect,0.250000X-0.475000X0.337500X-0.475000X-0.337500X0.475000X-0.337500X0.475000X0.337500X0*%
%ADD26R,2.600000X0.300000*%
%ADD27O,3.300000X1.500000*%
%ADD28O,2.700000X1.500000*%
%ADD29R,1.700000X1.700000*%
%ADD30C,1.700000*%
%ADD31RoundRect,0.250000X-0.600000X-0.600000X0.600000X-0.600000X0.600000X0.600000X-0.600000X0.600000X0*%
G04 APERTURE END LIST*
D10*
X133884819Y-88366666D02*
X133408628Y-88699999D01*
X133884819Y-88938094D02*
X132884819Y-88938094D01*
X132884819Y-88938094D02*
X132884819Y-88557142D01*
X132884819Y-88557142D02*
X132932438Y-88461904D01*
X132932438Y-88461904D02*
X132980057Y-88414285D01*
X132980057Y-88414285D02*
X133075295Y-88366666D01*
X133075295Y-88366666D02*
X133218152Y-88366666D01*
X133218152Y-88366666D02*
X133313390Y-88414285D01*
X133313390Y-88414285D02*
X133361009Y-88461904D01*
X133361009Y-88461904D02*
X133408628Y-88557142D01*
X133408628Y-88557142D02*
X133408628Y-88938094D01*
X133218152Y-87509523D02*
X133884819Y-87509523D01*
X132837200Y-87747618D02*
X133551485Y-87985713D01*
X133551485Y-87985713D02*
X133551485Y-87366666D01*
X122633333Y-101024819D02*
X122300000Y-100548628D01*
X122061905Y-101024819D02*
X122061905Y-100024819D01*
X122061905Y-100024819D02*
X122442857Y-100024819D01*
X122442857Y-100024819D02*
X122538095Y-100072438D01*
X122538095Y-100072438D02*
X122585714Y-100120057D01*
X122585714Y-100120057D02*
X122633333Y-100215295D01*
X122633333Y-100215295D02*
X122633333Y-100358152D01*
X122633333Y-100358152D02*
X122585714Y-100453390D01*
X122585714Y-100453390D02*
X122538095Y-100501009D01*
X122538095Y-100501009D02*
X122442857Y-100548628D01*
X122442857Y-100548628D02*
X122061905Y-100548628D01*
X122966667Y-100024819D02*
X123585714Y-100024819D01*
X123585714Y-100024819D02*
X123252381Y-100405771D01*
X123252381Y-100405771D02*
X123395238Y-100405771D01*
X123395238Y-100405771D02*
X123490476Y-100453390D01*
X123490476Y-100453390D02*
X123538095Y-100501009D01*
X123538095Y-100501009D02*
X123585714Y-100596247D01*
X123585714Y-100596247D02*
X123585714Y-100834342D01*
X123585714Y-100834342D02*
X123538095Y-100929580D01*
X123538095Y-100929580D02*
X123490476Y-100977200D01*
X123490476Y-100977200D02*
X123395238Y-101024819D01*
X123395238Y-101024819D02*
X123109524Y-101024819D01*
X123109524Y-101024819D02*
X123014286Y-100977200D01*
X123014286Y-100977200D02*
X122966667Y-100929580D01*
X144233333Y-84684819D02*
X143900000Y-84208628D01*
X143661905Y-84684819D02*
X143661905Y-83684819D01*
X143661905Y-83684819D02*
X144042857Y-83684819D01*
X144042857Y-83684819D02*
X144138095Y-83732438D01*
X144138095Y-83732438D02*
X144185714Y-83780057D01*
X144185714Y-83780057D02*
X144233333Y-83875295D01*
X144233333Y-83875295D02*
X144233333Y-84018152D01*
X144233333Y-84018152D02*
X144185714Y-84113390D01*
X144185714Y-84113390D02*
X144138095Y-84161009D01*
X144138095Y-84161009D02*
X144042857Y-84208628D01*
X144042857Y-84208628D02*
X143661905Y-84208628D01*
X144614286Y-83780057D02*
X144661905Y-83732438D01*
X144661905Y-83732438D02*
X144757143Y-83684819D01*
X144757143Y-83684819D02*
X144995238Y-83684819D01*
X144995238Y-83684819D02*
X145090476Y-83732438D01*
X145090476Y-83732438D02*
X145138095Y-83780057D01*
X145138095Y-83780057D02*
X145185714Y-83875295D01*
X145185714Y-83875295D02*
X145185714Y-83970533D01*
X145185714Y-83970533D02*
X145138095Y-84113390D01*
X145138095Y-84113390D02*
X144566667Y-84684819D01*
X144566667Y-84684819D02*
X145185714Y-84684819D01*
X144233333Y-87484819D02*
X143900000Y-87008628D01*
X143661905Y-87484819D02*
X143661905Y-86484819D01*
X143661905Y-86484819D02*
X144042857Y-86484819D01*
X144042857Y-86484819D02*
X144138095Y-86532438D01*
X144138095Y-86532438D02*
X144185714Y-86580057D01*
X144185714Y-86580057D02*
X144233333Y-86675295D01*
X144233333Y-86675295D02*
X144233333Y-86818152D01*
X144233333Y-86818152D02*
X144185714Y-86913390D01*
X144185714Y-86913390D02*
X144138095Y-86961009D01*
X144138095Y-86961009D02*
X144042857Y-87008628D01*
X144042857Y-87008628D02*
X143661905Y-87008628D01*
X145185714Y-87484819D02*
X144614286Y-87484819D01*
X144900000Y-87484819D02*
X144900000Y-86484819D01*
X144900000Y-86484819D02*
X144804762Y-86627676D01*
X144804762Y-86627676D02*
X144709524Y-86722914D01*
X144709524Y-86722914D02*
X144614286Y-86770533D01*
X125766666Y-99654819D02*
X125766666Y-100369104D01*
X125766666Y-100369104D02*
X125719047Y-100511961D01*
X125719047Y-100511961D02*
X125623809Y-100607200D01*
X125623809Y-100607200D02*
X125480952Y-100654819D01*
X125480952Y-100654819D02*
X125385714Y-100654819D01*
X126242857Y-100654819D02*
X126242857Y-99654819D01*
X126242857Y-99654819D02*
X126623809Y-99654819D01*
X126623809Y-99654819D02*
X126719047Y-99702438D01*
X126719047Y-99702438D02*
X126766666Y-99750057D01*
X126766666Y-99750057D02*
X126814285Y-99845295D01*
X126814285Y-99845295D02*
X126814285Y-99988152D01*
X126814285Y-99988152D02*
X126766666Y-100083390D01*
X126766666Y-100083390D02*
X126719047Y-100131009D01*
X126719047Y-100131009D02*
X126623809Y-100178628D01*
X126623809Y-100178628D02*
X126242857Y-100178628D01*
X127671428Y-99988152D02*
X127671428Y-100654819D01*
X127433333Y-99607200D02*
X127195238Y-100321485D01*
X127195238Y-100321485D02*
X127814285Y-100321485D01*
X141766666Y-80854819D02*
X141766666Y-81569104D01*
X141766666Y-81569104D02*
X141719047Y-81711961D01*
X141719047Y-81711961D02*
X141623809Y-81807200D01*
X141623809Y-81807200D02*
X141480952Y-81854819D01*
X141480952Y-81854819D02*
X141385714Y-81854819D01*
X142242857Y-81854819D02*
X142242857Y-80854819D01*
X142242857Y-80854819D02*
X142623809Y-80854819D01*
X142623809Y-80854819D02*
X142719047Y-80902438D01*
X142719047Y-80902438D02*
X142766666Y-80950057D01*
X142766666Y-80950057D02*
X142814285Y-81045295D01*
X142814285Y-81045295D02*
X142814285Y-81188152D01*
X142814285Y-81188152D02*
X142766666Y-81283390D01*
X142766666Y-81283390D02*
X142719047Y-81331009D01*
X142719047Y-81331009D02*
X142623809Y-81378628D01*
X142623809Y-81378628D02*
X142242857Y-81378628D01*
X143147619Y-80854819D02*
X143766666Y-80854819D01*
X143766666Y-80854819D02*
X143433333Y-81235771D01*
X143433333Y-81235771D02*
X143576190Y-81235771D01*
X143576190Y-81235771D02*
X143671428Y-81283390D01*
X143671428Y-81283390D02*
X143719047Y-81331009D01*
X143719047Y-81331009D02*
X143766666Y-81426247D01*
X143766666Y-81426247D02*
X143766666Y-81664342D01*
X143766666Y-81664342D02*
X143719047Y-81759580D01*
X143719047Y-81759580D02*
X143671428Y-81807200D01*
X143671428Y-81807200D02*
X143576190Y-81854819D01*
X143576190Y-81854819D02*
X143290476Y-81854819D01*
X143290476Y-81854819D02*
X143195238Y-81807200D01*
X143195238Y-81807200D02*
X143147619Y-81759580D01*
X140166666Y-86854819D02*
X140166666Y-87569104D01*
X140166666Y-87569104D02*
X140119047Y-87711961D01*
X140119047Y-87711961D02*
X140023809Y-87807200D01*
X140023809Y-87807200D02*
X139880952Y-87854819D01*
X139880952Y-87854819D02*
X139785714Y-87854819D01*
X140642857Y-87854819D02*
X140642857Y-86854819D01*
X140642857Y-86854819D02*
X141023809Y-86854819D01*
X141023809Y-86854819D02*
X141119047Y-86902438D01*
X141119047Y-86902438D02*
X141166666Y-86950057D01*
X141166666Y-86950057D02*
X141214285Y-87045295D01*
X141214285Y-87045295D02*
X141214285Y-87188152D01*
X141214285Y-87188152D02*
X141166666Y-87283390D01*
X141166666Y-87283390D02*
X141119047Y-87331009D01*
X141119047Y-87331009D02*
X141023809Y-87378628D01*
X141023809Y-87378628D02*
X140642857Y-87378628D01*
X141595238Y-86950057D02*
X141642857Y-86902438D01*
X141642857Y-86902438D02*
X141738095Y-86854819D01*
X141738095Y-86854819D02*
X141976190Y-86854819D01*
X141976190Y-86854819D02*
X142071428Y-86902438D01*
X142071428Y-86902438D02*
X142119047Y-86950057D01*
X142119047Y-86950057D02*
X142166666Y-87045295D01*
X142166666Y-87045295D02*
X142166666Y-87140533D01*
X142166666Y-87140533D02*
X142119047Y-87283390D01*
X142119047Y-87283390D02*
X141547619Y-87854819D01*
X141547619Y-87854819D02*
X142166666Y-87854819D01*
X135148095Y-95664819D02*
X135148095Y-96474342D01*
X135148095Y-96474342D02*
X135195714Y-96569580D01*
X135195714Y-96569580D02*
X135243333Y-96617200D01*
X135243333Y-96617200D02*
X135338571Y-96664819D01*
X135338571Y-96664819D02*
X135529047Y-96664819D01*
X135529047Y-96664819D02*
X135624285Y-96617200D01*
X135624285Y-96617200D02*
X135671904Y-96569580D01*
X135671904Y-96569580D02*
X135719523Y-96474342D01*
X135719523Y-96474342D02*
X135719523Y-95664819D01*
X136148095Y-95760057D02*
X136195714Y-95712438D01*
X136195714Y-95712438D02*
X136290952Y-95664819D01*
X136290952Y-95664819D02*
X136529047Y-95664819D01*
X136529047Y-95664819D02*
X136624285Y-95712438D01*
X136624285Y-95712438D02*
X136671904Y-95760057D01*
X136671904Y-95760057D02*
X136719523Y-95855295D01*
X136719523Y-95855295D02*
X136719523Y-95950533D01*
X136719523Y-95950533D02*
X136671904Y-96093390D01*
X136671904Y-96093390D02*
X136100476Y-96664819D01*
X136100476Y-96664819D02*
X136719523Y-96664819D01*
X134433333Y-85729580D02*
X134385714Y-85777200D01*
X134385714Y-85777200D02*
X134242857Y-85824819D01*
X134242857Y-85824819D02*
X134147619Y-85824819D01*
X134147619Y-85824819D02*
X134004762Y-85777200D01*
X134004762Y-85777200D02*
X133909524Y-85681961D01*
X133909524Y-85681961D02*
X133861905Y-85586723D01*
X133861905Y-85586723D02*
X133814286Y-85396247D01*
X133814286Y-85396247D02*
X133814286Y-85253390D01*
X133814286Y-85253390D02*
X133861905Y-85062914D01*
X133861905Y-85062914D02*
X133909524Y-84967676D01*
X133909524Y-84967676D02*
X134004762Y-84872438D01*
X134004762Y-84872438D02*
X134147619Y-84824819D01*
X134147619Y-84824819D02*
X134242857Y-84824819D01*
X134242857Y-84824819D02*
X134385714Y-84872438D01*
X134385714Y-84872438D02*
X134433333Y-84920057D01*
X135290476Y-85158152D02*
X135290476Y-85824819D01*
X135052381Y-84777200D02*
X134814286Y-85491485D01*
X134814286Y-85491485D02*
X135433333Y-85491485D01*
X147989580Y-97166666D02*
X148037200Y-97214285D01*
X148037200Y-97214285D02*
X148084819Y-97357142D01*
X148084819Y-97357142D02*
X148084819Y-97452380D01*
X148084819Y-97452380D02*
X148037200Y-97595237D01*
X148037200Y-97595237D02*
X147941961Y-97690475D01*
X147941961Y-97690475D02*
X147846723Y-97738094D01*
X147846723Y-97738094D02*
X147656247Y-97785713D01*
X147656247Y-97785713D02*
X147513390Y-97785713D01*
X147513390Y-97785713D02*
X147322914Y-97738094D01*
X147322914Y-97738094D02*
X147227676Y-97690475D01*
X147227676Y-97690475D02*
X147132438Y-97595237D01*
X147132438Y-97595237D02*
X147084819Y-97452380D01*
X147084819Y-97452380D02*
X147084819Y-97357142D01*
X147084819Y-97357142D02*
X147132438Y-97214285D01*
X147132438Y-97214285D02*
X147180057Y-97166666D01*
X147084819Y-96833332D02*
X147084819Y-96214285D01*
X147084819Y-96214285D02*
X147465771Y-96547618D01*
X147465771Y-96547618D02*
X147465771Y-96404761D01*
X147465771Y-96404761D02*
X147513390Y-96309523D01*
X147513390Y-96309523D02*
X147561009Y-96261904D01*
X147561009Y-96261904D02*
X147656247Y-96214285D01*
X147656247Y-96214285D02*
X147894342Y-96214285D01*
X147894342Y-96214285D02*
X147989580Y-96261904D01*
X147989580Y-96261904D02*
X148037200Y-96309523D01*
X148037200Y-96309523D02*
X148084819Y-96404761D01*
X148084819Y-96404761D02*
X148084819Y-96690475D01*
X148084819Y-96690475D02*
X148037200Y-96785713D01*
X148037200Y-96785713D02*
X147989580Y-96833332D01*
X123433333Y-105159580D02*
X123385714Y-105207200D01*
X123385714Y-105207200D02*
X123242857Y-105254819D01*
X123242857Y-105254819D02*
X123147619Y-105254819D01*
X123147619Y-105254819D02*
X123004762Y-105207200D01*
X123004762Y-105207200D02*
X122909524Y-105111961D01*
X122909524Y-105111961D02*
X122861905Y-105016723D01*
X122861905Y-105016723D02*
X122814286Y-104826247D01*
X122814286Y-104826247D02*
X122814286Y-104683390D01*
X122814286Y-104683390D02*
X122861905Y-104492914D01*
X122861905Y-104492914D02*
X122909524Y-104397676D01*
X122909524Y-104397676D02*
X123004762Y-104302438D01*
X123004762Y-104302438D02*
X123147619Y-104254819D01*
X123147619Y-104254819D02*
X123242857Y-104254819D01*
X123242857Y-104254819D02*
X123385714Y-104302438D01*
X123385714Y-104302438D02*
X123433333Y-104350057D01*
X123814286Y-104350057D02*
X123861905Y-104302438D01*
X123861905Y-104302438D02*
X123957143Y-104254819D01*
X123957143Y-104254819D02*
X124195238Y-104254819D01*
X124195238Y-104254819D02*
X124290476Y-104302438D01*
X124290476Y-104302438D02*
X124338095Y-104350057D01*
X124338095Y-104350057D02*
X124385714Y-104445295D01*
X124385714Y-104445295D02*
X124385714Y-104540533D01*
X124385714Y-104540533D02*
X124338095Y-104683390D01*
X124338095Y-104683390D02*
X123766667Y-105254819D01*
X123766667Y-105254819D02*
X124385714Y-105254819D01*
X148039580Y-93166666D02*
X148087200Y-93214285D01*
X148087200Y-93214285D02*
X148134819Y-93357142D01*
X148134819Y-93357142D02*
X148134819Y-93452380D01*
X148134819Y-93452380D02*
X148087200Y-93595237D01*
X148087200Y-93595237D02*
X147991961Y-93690475D01*
X147991961Y-93690475D02*
X147896723Y-93738094D01*
X147896723Y-93738094D02*
X147706247Y-93785713D01*
X147706247Y-93785713D02*
X147563390Y-93785713D01*
X147563390Y-93785713D02*
X147372914Y-93738094D01*
X147372914Y-93738094D02*
X147277676Y-93690475D01*
X147277676Y-93690475D02*
X147182438Y-93595237D01*
X147182438Y-93595237D02*
X147134819Y-93452380D01*
X147134819Y-93452380D02*
X147134819Y-93357142D01*
X147134819Y-93357142D02*
X147182438Y-93214285D01*
X147182438Y-93214285D02*
X147230057Y-93166666D01*
X148134819Y-92214285D02*
X148134819Y-92785713D01*
X148134819Y-92499999D02*
X147134819Y-92499999D01*
X147134819Y-92499999D02*
X147277676Y-92595237D01*
X147277676Y-92595237D02*
X147372914Y-92690475D01*
X147372914Y-92690475D02*
X147420533Y-92785713D01*
X119466666Y-99404819D02*
X119466666Y-100119104D01*
X119466666Y-100119104D02*
X119419047Y-100261961D01*
X119419047Y-100261961D02*
X119323809Y-100357200D01*
X119323809Y-100357200D02*
X119180952Y-100404819D01*
X119180952Y-100404819D02*
X119085714Y-100404819D01*
X120466666Y-100404819D02*
X119895238Y-100404819D01*
X120180952Y-100404819D02*
X120180952Y-99404819D01*
X120180952Y-99404819D02*
X120085714Y-99547676D01*
X120085714Y-99547676D02*
X119990476Y-99642914D01*
X119990476Y-99642914D02*
X119895238Y-99690533D01*
X130324819Y-105619285D02*
X129324819Y-105619285D01*
X129324819Y-105619285D02*
X129324819Y-105238333D01*
X129324819Y-105238333D02*
X129372438Y-105143095D01*
X129372438Y-105143095D02*
X129420057Y-105095476D01*
X129420057Y-105095476D02*
X129515295Y-105047857D01*
X129515295Y-105047857D02*
X129658152Y-105047857D01*
X129658152Y-105047857D02*
X129753390Y-105095476D01*
X129753390Y-105095476D02*
X129801009Y-105143095D01*
X129801009Y-105143095D02*
X129848628Y-105238333D01*
X129848628Y-105238333D02*
X129848628Y-105619285D01*
X130324819Y-104095476D02*
X130324819Y-104666904D01*
X130324819Y-104381190D02*
X129324819Y-104381190D01*
X129324819Y-104381190D02*
X129467676Y-104476428D01*
X129467676Y-104476428D02*
X129562914Y-104571666D01*
X129562914Y-104571666D02*
X129610533Y-104666904D01*
X130324819Y-103143095D02*
X130324819Y-103714523D01*
X130324819Y-103428809D02*
X129324819Y-103428809D01*
X129324819Y-103428809D02*
X129467676Y-103524047D01*
X129467676Y-103524047D02*
X129562914Y-103619285D01*
X129562914Y-103619285D02*
X129610533Y-103714523D01*
X137834819Y-83633333D02*
X138549104Y-83633333D01*
X138549104Y-83633333D02*
X138691961Y-83680952D01*
X138691961Y-83680952D02*
X138787200Y-83776190D01*
X138787200Y-83776190D02*
X138834819Y-83919047D01*
X138834819Y-83919047D02*
X138834819Y-84014285D01*
X138834819Y-83157142D02*
X137834819Y-83157142D01*
X137834819Y-83157142D02*
X137834819Y-82776190D01*
X137834819Y-82776190D02*
X137882438Y-82680952D01*
X137882438Y-82680952D02*
X137930057Y-82633333D01*
X137930057Y-82633333D02*
X138025295Y-82585714D01*
X138025295Y-82585714D02*
X138168152Y-82585714D01*
X138168152Y-82585714D02*
X138263390Y-82633333D01*
X138263390Y-82633333D02*
X138311009Y-82680952D01*
X138311009Y-82680952D02*
X138358628Y-82776190D01*
X138358628Y-82776190D02*
X138358628Y-83157142D01*
X138834819Y-81633333D02*
X138834819Y-82204761D01*
X138834819Y-81919047D02*
X137834819Y-81919047D01*
X137834819Y-81919047D02*
X137977676Y-82014285D01*
X137977676Y-82014285D02*
X138072914Y-82109523D01*
X138072914Y-82109523D02*
X138120533Y-82204761D01*
X152584166Y-82254819D02*
X152584166Y-82969104D01*
X152584166Y-82969104D02*
X152536547Y-83111961D01*
X152536547Y-83111961D02*
X152441309Y-83207200D01*
X152441309Y-83207200D02*
X152298452Y-83254819D01*
X152298452Y-83254819D02*
X152203214Y-83254819D01*
X153012738Y-82350057D02*
X153060357Y-82302438D01*
X153060357Y-82302438D02*
X153155595Y-82254819D01*
X153155595Y-82254819D02*
X153393690Y-82254819D01*
X153393690Y-82254819D02*
X153488928Y-82302438D01*
X153488928Y-82302438D02*
X153536547Y-82350057D01*
X153536547Y-82350057D02*
X153584166Y-82445295D01*
X153584166Y-82445295D02*
X153584166Y-82540533D01*
X153584166Y-82540533D02*
X153536547Y-82683390D01*
X153536547Y-82683390D02*
X152965119Y-83254819D01*
X152965119Y-83254819D02*
X153584166Y-83254819D01*
D11*
%TO.C,R4*%
X132522500Y-87945276D02*
X132522500Y-88454724D01*
X131477500Y-87945276D02*
X131477500Y-88454724D01*
%TO.C,R3*%
X122545276Y-101477500D02*
X123054724Y-101477500D01*
X122545276Y-102522500D02*
X123054724Y-102522500D01*
%TO.C,R2*%
X144654724Y-83322500D02*
X144145276Y-83322500D01*
X144654724Y-82277500D02*
X144145276Y-82277500D01*
%TO.C,R1*%
X144654724Y-86122500D02*
X144145276Y-86122500D01*
X144654724Y-85077500D02*
X144145276Y-85077500D01*
%TO.C,JP4*%
X125200000Y-102300000D02*
X125200000Y-101700000D01*
X125900000Y-101000000D02*
X127300000Y-101000000D01*
X127300000Y-103000000D02*
X125900000Y-103000000D01*
X128000000Y-101700000D02*
X128000000Y-102300000D01*
X125200000Y-101700000D02*
G75*
G02*
X125900000Y-101000000I699999J1D01*
G01*
X125900000Y-103000000D02*
G75*
G02*
X125200000Y-102300000I-1J699999D01*
G01*
X127300000Y-101000000D02*
G75*
G02*
X128000000Y-101700000I0J-700000D01*
G01*
X128000000Y-102300000D02*
G75*
G02*
X127300000Y-103000000I-700000J0D01*
G01*
%TO.C,JP3*%
X142400000Y-82700000D02*
X142400000Y-83300000D01*
X141700000Y-84000000D02*
X140300000Y-84000000D01*
X140300000Y-82000000D02*
X141700000Y-82000000D01*
X139600000Y-83300000D02*
X139600000Y-82700000D01*
X142400000Y-83300000D02*
G75*
G02*
X141700000Y-84000000I-699999J-1D01*
G01*
X141700000Y-82000000D02*
G75*
G02*
X142400000Y-82700000I1J-699999D01*
G01*
X140300000Y-84000000D02*
G75*
G02*
X139600000Y-83300000I0J700000D01*
G01*
X139600000Y-82700000D02*
G75*
G02*
X140300000Y-82000000I700000J0D01*
G01*
%TO.C,JP2*%
X142400000Y-85300000D02*
X142400000Y-85900000D01*
X141700000Y-86600000D02*
X140300000Y-86600000D01*
X140300000Y-84600000D02*
X141700000Y-84600000D01*
X139600000Y-85900000D02*
X139600000Y-85300000D01*
X142400000Y-85900000D02*
G75*
G02*
X141700000Y-86600000I-699999J-1D01*
G01*
X141700000Y-84600000D02*
G75*
G02*
X142400000Y-85300000I1J-699999D01*
G01*
X140300000Y-86600000D02*
G75*
G02*
X139600000Y-85900000I0J700000D01*
G01*
X139600000Y-85300000D02*
G75*
G02*
X140300000Y-84600000I700000J0D01*
G01*
%TO.C,U2*%
X138380000Y-94120000D02*
X138050000Y-93880000D01*
X138380000Y-93640000D01*
X138380000Y-94120000D01*
G36*
X138380000Y-94120000D02*
G01*
X138050000Y-93880000D01*
X138380000Y-93640000D01*
X138380000Y-94120000D01*
G37*
X134300000Y-88770000D02*
X134750000Y-88770000D01*
X134300000Y-89520000D02*
X134300000Y-88770000D01*
X134300000Y-94990000D02*
X134300000Y-94240000D01*
X134750000Y-94990000D02*
X134300000Y-94990000D01*
X137070000Y-88770000D02*
X137520000Y-88770000D01*
X137520000Y-88770000D02*
X137520000Y-89520000D01*
X137520000Y-94240000D02*
X137520000Y-94990000D01*
X137520000Y-94990000D02*
X137070000Y-94990000D01*
%TO.C,C4*%
X134453733Y-86290000D02*
X134746267Y-86290000D01*
X134453733Y-87310000D02*
X134746267Y-87310000D01*
%TO.C,C3*%
X146710000Y-96853733D02*
X146710000Y-97146267D01*
X145690000Y-96853733D02*
X145690000Y-97146267D01*
%TO.C,C2*%
X126338748Y-105535000D02*
X126861252Y-105535000D01*
X126338748Y-104065000D02*
X126861252Y-104065000D01*
%TO.C,C1*%
X146735000Y-92738748D02*
X146735000Y-93261252D01*
X145265000Y-92738748D02*
X145265000Y-93261252D01*
%TO.C,J1*%
X120820000Y-98560000D02*
X118720000Y-98560000D01*
X126320000Y-98560000D02*
X123520000Y-98560000D01*
X129870000Y-95850000D02*
X129870000Y-97650000D01*
X130620000Y-95850000D02*
X129870000Y-95850000D01*
X129870000Y-84250000D02*
X129870000Y-86050000D01*
X120820000Y-83340000D02*
X118720000Y-83340000D01*
X126320000Y-83340000D02*
X123520000Y-83340000D01*
%TO.C,P11*%
X130870000Y-101755000D02*
X146330000Y-101755000D01*
X130870000Y-104405000D02*
X130870000Y-101755000D01*
X130870000Y-107055000D02*
X130870000Y-105675000D01*
X132250000Y-107055000D02*
X130870000Y-107055000D01*
X133520000Y-104405000D02*
X130870000Y-104405000D01*
X133520000Y-107055000D02*
X133520000Y-104405000D01*
X133520000Y-107055000D02*
X146330000Y-107055000D01*
X146330000Y-107055000D02*
X146330000Y-101755000D01*
%TO.C,JP1*%
X134730000Y-84180000D02*
X132080000Y-84180000D01*
X132080000Y-81420000D02*
X132080000Y-84180000D01*
X134730000Y-81420000D02*
X134730000Y-84180000D01*
X134730000Y-81420000D02*
X132080000Y-81420000D01*
X136000000Y-81420000D02*
X137380000Y-81420000D01*
X137380000Y-81420000D02*
X137380000Y-82800000D01*
%TO.C,J2*%
X146967500Y-88400000D02*
X146967500Y-89400000D01*
X146967500Y-89400000D02*
X147967500Y-88900000D01*
X147967500Y-88900000D02*
X146967500Y-88400000D01*
X148357500Y-83690000D02*
X157477500Y-83690000D01*
X148357500Y-93200000D02*
X149667500Y-93200000D01*
X148357500Y-106810000D02*
X148357500Y-83690000D01*
X149667500Y-84990000D02*
X156167500Y-84990000D01*
X149667500Y-93200000D02*
X149667500Y-84990000D01*
X149667500Y-97300000D02*
X148357500Y-97300000D01*
X149667500Y-105510000D02*
X149667500Y-97300000D01*
X156167500Y-84990000D02*
X156167500Y-105510000D01*
X156167500Y-105510000D02*
X149667500Y-105510000D01*
X157477500Y-83690000D02*
X157477500Y-106810000D01*
X157477500Y-106810000D02*
X148357500Y-106810000D01*
%TD*%
%LPC*%
%TO.C,JP4*%
G36*
X126450000Y-101250000D02*
G01*
X126750000Y-101250000D01*
X126750000Y-102750000D01*
X126450000Y-102750000D01*
X126450000Y-101250000D01*
G37*
%TO.C,JP3*%
G36*
X141150000Y-83750000D02*
G01*
X140850000Y-83750000D01*
X140850000Y-82250000D01*
X141150000Y-82250000D01*
X141150000Y-83750000D01*
G37*
%TO.C,JP2*%
G36*
X141150000Y-86350000D02*
G01*
X140850000Y-86350000D01*
X140850000Y-84850000D01*
X141150000Y-84850000D01*
X141150000Y-86350000D01*
G37*
%TD*%
D12*
%TO.C,R4*%
X132000000Y-87287500D03*
X132000000Y-89112500D03*
%TD*%
D13*
%TO.C,R3*%
X121887500Y-102000000D03*
X123712500Y-102000000D03*
%TD*%
D14*
%TO.C,R2*%
X145312500Y-82800000D03*
X143487500Y-82800000D03*
%TD*%
%TO.C,R1*%
X145312500Y-85600000D03*
X143487500Y-85600000D03*
%TD*%
D15*
%TO.C,JP4*%
X125950000Y-102000000D03*
D16*
X127250000Y-102000000D03*
%TD*%
D17*
%TO.C,JP3*%
X141650000Y-83000000D03*
D18*
X140350000Y-83000000D03*
%TD*%
D17*
%TO.C,JP2*%
X141650000Y-85600000D03*
D18*
X140350000Y-85600000D03*
%TD*%
D19*
%TO.C,U2*%
X135910000Y-91880000D03*
D20*
X136710000Y-94880000D03*
X136310000Y-94880000D03*
X135910000Y-94880000D03*
X135510000Y-94880000D03*
X135110000Y-94880000D03*
D21*
X134410000Y-93880000D03*
X134410000Y-93480000D03*
X134410000Y-93080000D03*
X134410000Y-92680000D03*
X134410000Y-92280000D03*
X134410000Y-91880000D03*
X134410000Y-91480000D03*
X134410000Y-91080000D03*
X134410000Y-90680000D03*
X134410000Y-90280000D03*
X134410000Y-89880000D03*
D20*
X135110000Y-88880000D03*
X135510000Y-88880000D03*
X135910000Y-88880000D03*
X136310000Y-88880000D03*
X136710000Y-88880000D03*
D21*
X137410000Y-89880000D03*
X137410000Y-90280000D03*
X137410000Y-90680000D03*
X137410000Y-91080000D03*
X137410000Y-91480000D03*
X137410000Y-91880000D03*
X137410000Y-92280000D03*
X137410000Y-92680000D03*
X137410000Y-93080000D03*
X137410000Y-93480000D03*
X137410000Y-93880000D03*
%TD*%
D22*
%TO.C,C4*%
X133737500Y-86800000D03*
X135462500Y-86800000D03*
%TD*%
D23*
%TO.C,C3*%
X146200000Y-96137500D03*
X146200000Y-97862500D03*
%TD*%
D24*
%TO.C,C2*%
X127637500Y-104800000D03*
X125562500Y-104800000D03*
%TD*%
D25*
%TO.C,C1*%
X146000000Y-91962500D03*
X146000000Y-94037500D03*
%TD*%
D26*
%TO.C,J1*%
X128920000Y-95450000D03*
X128920000Y-94950000D03*
X128920000Y-94450000D03*
X128920000Y-93950000D03*
X128920000Y-93450000D03*
X128920000Y-92950000D03*
X128920000Y-92450000D03*
X128920000Y-91950000D03*
X128920000Y-91450000D03*
X128920000Y-90950000D03*
X128920000Y-90450000D03*
X128920000Y-89950000D03*
X128920000Y-89450000D03*
X128920000Y-88950000D03*
X128920000Y-88450000D03*
X128920000Y-87950000D03*
X128920000Y-87450000D03*
X128920000Y-86950000D03*
X128920000Y-86450000D03*
D27*
X128160000Y-98200000D03*
X128160000Y-83700000D03*
D28*
X122200000Y-98200000D03*
X122200000Y-83700000D03*
%TD*%
D29*
%TO.C,P11*%
X132250000Y-105675000D03*
D30*
X132250000Y-103135000D03*
X134790000Y-105675000D03*
X134790000Y-103135000D03*
X137330000Y-105675000D03*
X137330000Y-103135000D03*
X139870000Y-105675000D03*
X139870000Y-103135000D03*
X142410000Y-105675000D03*
X142410000Y-103135000D03*
X144950000Y-105675000D03*
X144950000Y-103135000D03*
%TD*%
D29*
%TO.C,JP1*%
X136000000Y-82800000D03*
D30*
X133460000Y-82800000D03*
%TD*%
D31*
%TO.C,J2*%
X151647500Y-88900000D03*
D30*
X154187500Y-88900000D03*
X151647500Y-91440000D03*
X154187500Y-91440000D03*
X151647500Y-93980000D03*
X154187500Y-93980000D03*
X151647500Y-96520000D03*
X154187500Y-96520000D03*
X151647500Y-99060000D03*
X154187500Y-99060000D03*
X151647500Y-101600000D03*
X154187500Y-101600000D03*
%TD*%
%LPD*%
M02*
