%TF.GenerationSoftware,KiCad,Pcbnew,9.0.8+dfsg-1*%
%TF.CreationDate,2026-07-27T01:00:59+02:00*%
%TF.ProjectId,HDMItest,48444d49-7465-4737-942e-6b696361645f,rev?*%
%TF.SameCoordinates,Original*%
%TF.FileFunction,Copper,L1,Top*%
%TF.FilePolarity,Positive*%
%FSLAX46Y46*%
G04 Gerber Fmt 4.6, Leading zero omitted, Abs format (unit mm)*
G04 Created by KiCad (PCBNEW 9.0.8+dfsg-1) date 2026-07-27 01:00:59*
%MOMM*%
%LPD*%
G01*
G04 APERTURE LIST*
G04 Aperture macros list*
%AMRoundRect*
0 Rectangle with rounded corners*
0 $1 Rounding radius*
0 $2 $3 $4 $5 $6 $7 $8 $9 X,Y pos of 4 corners*
0 Add a 4 corners polygon primitive as box body*
4,1,4,$2,$3,$4,$5,$6,$7,$8,$9,$2,$3,0*
0 Add four circle primitives for the rounded corners*
1,1,$1+$1,$2,$3*
1,1,$1+$1,$4,$5*
1,1,$1+$1,$6,$7*
1,1,$1+$1,$8,$9*
0 Add four rect primitives between the rounded corners*
20,1,$1+$1,$2,$3,$4,$5,0*
20,1,$1+$1,$4,$5,$6,$7,0*
20,1,$1+$1,$6,$7,$8,$9,0*
20,1,$1+$1,$8,$9,$2,$3,0*%
%AMFreePoly0*
4,1,23,0.500000,-0.750000,0.000000,-0.750000,0.000000,-0.745722,-0.065263,-0.745722,-0.191342,-0.711940,-0.304381,-0.646677,-0.396677,-0.554381,-0.461940,-0.441342,-0.495722,-0.315263,-0.495722,-0.250000,-0.500000,-0.250000,-0.500000,0.250000,-0.495722,0.250000,-0.495722,0.315263,-0.461940,0.441342,-0.396677,0.554381,-0.304381,0.646677,-0.191342,0.711940,-0.065263,0.745722,0.000000,0.745722,
0.000000,0.750000,0.500000,0.750000,0.500000,-0.750000,0.500000,-0.750000,$1*%
%AMFreePoly1*
4,1,23,0.000000,0.745722,0.065263,0.745722,0.191342,0.711940,0.304381,0.646677,0.396677,0.554381,0.461940,0.441342,0.495722,0.315263,0.495722,0.250000,0.500000,0.250000,0.500000,-0.250000,0.495722,-0.250000,0.495722,-0.315263,0.461940,-0.441342,0.396677,-0.554381,0.304381,-0.646677,0.191342,-0.711940,0.065263,-0.745722,0.000000,-0.745722,0.000000,-0.750000,-0.500000,-0.750000,
-0.500000,0.750000,0.000000,0.750000,0.000000,0.745722,0.000000,0.745722,$1*%
G04 Aperture macros list end*
%TA.AperFunction,SMDPad,CuDef*%
%ADD10RoundRect,0.237500X0.237500X-0.250000X0.237500X0.250000X-0.237500X0.250000X-0.237500X-0.250000X0*%
%TD*%
%TA.AperFunction,SMDPad,CuDef*%
%ADD11RoundRect,0.237500X0.250000X0.237500X-0.250000X0.237500X-0.250000X-0.237500X0.250000X-0.237500X0*%
%TD*%
%TA.AperFunction,SMDPad,CuDef*%
%ADD12FreePoly0,180.000000*%
%TD*%
%TA.AperFunction,SMDPad,CuDef*%
%ADD13FreePoly1,180.000000*%
%TD*%
%TA.AperFunction,SMDPad,CuDef*%
%ADD14FreePoly0,0.000000*%
%TD*%
%TA.AperFunction,SMDPad,CuDef*%
%ADD15FreePoly1,0.000000*%
%TD*%
%TA.AperFunction,SMDPad,CuDef*%
%ADD16RoundRect,0.050000X0.325000X0.050000X-0.325000X0.050000X-0.325000X-0.050000X0.325000X-0.050000X0*%
%TD*%
%TA.AperFunction,SMDPad,CuDef*%
%ADD17RoundRect,0.050000X0.050000X0.325000X-0.050000X0.325000X-0.050000X-0.325000X0.050000X-0.325000X0*%
%TD*%
%TA.AperFunction,HeatsinkPad*%
%ADD18R,1.250000X3.500000*%
%TD*%
%TA.AperFunction,SMDPad,CuDef*%
%ADD19RoundRect,0.237500X-0.237500X0.250000X-0.237500X-0.250000X0.237500X-0.250000X0.237500X0.250000X0*%
%TD*%
%TA.AperFunction,SMDPad,CuDef*%
%ADD20FreePoly0,270.000000*%
%TD*%
%TA.AperFunction,SMDPad,CuDef*%
%ADD21FreePoly1,270.000000*%
%TD*%
%TA.AperFunction,SMDPad,CuDef*%
%ADD22RoundRect,0.237500X0.300000X0.237500X-0.300000X0.237500X-0.300000X-0.237500X0.300000X-0.237500X0*%
%TD*%
%TA.AperFunction,SMDPad,CuDef*%
%ADD23RoundRect,0.250000X-0.475000X0.337500X-0.475000X-0.337500X0.475000X-0.337500X0.475000X0.337500X0*%
%TD*%
%TA.AperFunction,SMDPad,CuDef*%
%ADD24R,2.600000X0.300000*%
%TD*%
%TA.AperFunction,ComponentPad*%
%ADD25O,3.300000X1.500000*%
%TD*%
%TA.AperFunction,ComponentPad*%
%ADD26O,2.700000X1.500000*%
%TD*%
%TA.AperFunction,ComponentPad*%
%ADD27R,1.700000X1.700000*%
%TD*%
%TA.AperFunction,ComponentPad*%
%ADD28C,1.700000*%
%TD*%
%TA.AperFunction,SMDPad,CuDef*%
%ADD29FreePoly0,90.000000*%
%TD*%
%TA.AperFunction,SMDPad,CuDef*%
%ADD30FreePoly1,90.000000*%
%TD*%
%TA.AperFunction,SMDPad,CuDef*%
%ADD31RoundRect,0.237500X-0.300000X-0.237500X0.300000X-0.237500X0.300000X0.237500X-0.300000X0.237500X0*%
%TD*%
%TA.AperFunction,SMDPad,CuDef*%
%ADD32RoundRect,0.237500X0.237500X-0.300000X0.237500X0.300000X-0.237500X0.300000X-0.237500X-0.300000X0*%
%TD*%
%TA.AperFunction,ComponentPad*%
%ADD33RoundRect,0.250000X-0.600000X-0.600000X0.600000X-0.600000X0.600000X0.600000X-0.600000X0.600000X0*%
%TD*%
%TA.AperFunction,ViaPad*%
%ADD34C,0.600000*%
%TD*%
%TA.AperFunction,Conductor*%
%ADD35C,0.200000*%
%TD*%
%TA.AperFunction,Conductor*%
%ADD36C,0.500000*%
%TD*%
G04 APERTURE END LIST*
D10*
%TO.P,R11,1*%
%TO.N,Net-(J2-Pin_1)*%
X146200000Y-94912500D03*
%TO.P,R11,2*%
%TO.N,Net-(JP10-B)*%
X146200000Y-93087500D03*
%TD*%
D11*
%TO.P,R10,1*%
%TO.N,Net-(J2-Pin_5)*%
X136912500Y-85800000D03*
%TO.P,R10,2*%
%TO.N,Net-(JP11-A)*%
X135087500Y-85800000D03*
%TD*%
D10*
%TO.P,R9,1*%
%TO.N,Net-(J2-Pin_7)*%
X128800000Y-83512500D03*
%TO.P,R9,2*%
%TO.N,Net-(JP10-A)*%
X128800000Y-81687500D03*
%TD*%
D11*
%TO.P,R8,1*%
%TO.N,Net-(J1-SDA)*%
X117312500Y-105800000D03*
%TO.P,R8,2*%
%TO.N,Net-(JP9-A)*%
X115487500Y-105800000D03*
%TD*%
%TO.P,R7,1*%
%TO.N,Net-(J1-SCL)*%
X117262500Y-102530000D03*
%TO.P,R7,2*%
%TO.N,Net-(JP8-A)*%
X115437500Y-102530000D03*
%TD*%
D12*
%TO.P,JP11,1,A*%
%TO.N,Net-(JP11-A)*%
X132850000Y-85200000D03*
D13*
%TO.P,JP11,2,B*%
%TO.N,Net-(JP10-B)*%
X131550000Y-85200000D03*
%TD*%
D14*
%TO.P,JP10,1,A*%
%TO.N,Net-(JP10-A)*%
X131550000Y-82200000D03*
D15*
%TO.P,JP10,2,B*%
%TO.N,Net-(JP10-B)*%
X132850000Y-82200000D03*
%TD*%
D12*
%TO.P,JP9,1,A*%
%TO.N,Net-(JP9-A)*%
X113050000Y-106200000D03*
D13*
%TO.P,JP9,2,B*%
%TO.N,Net-(J1-+5V)*%
X111750000Y-106200000D03*
%TD*%
D12*
%TO.P,JP8,1,A*%
%TO.N,Net-(JP8-A)*%
X113050000Y-102600000D03*
D13*
%TO.P,JP8,2,B*%
%TO.N,Net-(J1-+5V)*%
X111750000Y-102600000D03*
%TD*%
D16*
%TO.P,U1,1,VCC*%
%TO.N,Net-(JP10-B)*%
X125900000Y-94600000D03*
%TO.P,U1,2,CEXT*%
%TO.N,Net-(U1-CEXT)*%
X125900000Y-94200000D03*
%TO.P,U1,3,RD2_N*%
%TO.N,Net-(U1-RD2_N)*%
X125900000Y-93800000D03*
%TO.P,U1,4,RD2_P*%
%TO.N,Net-(U1-RD2_P)*%
X125900000Y-93400000D03*
%TO.P,U1,5,RD1_N*%
%TO.N,Net-(U1-RD1_N)*%
X125900000Y-93000000D03*
%TO.P,U1,6,RD1_P*%
%TO.N,Net-(U1-RD1_P)*%
X125900000Y-92600000D03*
%TO.P,U1,7,RD0_N*%
%TO.N,Net-(U1-RD0_N)*%
X125900000Y-92200000D03*
%TO.P,U1,8,RD0_P*%
%TO.N,Net-(U1-RD0_P)*%
X125900000Y-91800000D03*
%TO.P,U1,9,RCK_N*%
%TO.N,Net-(U1-RCK_N)*%
X125900000Y-91400000D03*
%TO.P,U1,10,RCK_P*%
%TO.N,Net-(U1-RCK_P)*%
X125900000Y-91000000D03*
%TO.P,U1,11,HPD_SRC*%
%TO.N,Net-(J2-Pin_1)*%
X125900000Y-90600000D03*
D17*
%TO.P,U1,12,SDA_SRC*%
%TO.N,Net-(J2-Pin_5)*%
X125200000Y-89600000D03*
%TO.P,U1,13,SCL_SRC*%
%TO.N,Net-(J2-Pin_7)*%
X124800000Y-89600000D03*
%TO.P,U1,14,GND*%
%TO.N,GND*%
X124400000Y-89600000D03*
%TO.P,U1,15,ROUT_S0*%
%TO.N,Net-(JP7-B)*%
X124000000Y-89600000D03*
%TO.P,U1,16,OC_S0*%
%TO.N,Net-(JP2-B)*%
X123600000Y-89600000D03*
D16*
%TO.P,U1,17,EQ_S0*%
%TO.N,Net-(JP3-B)*%
X122900000Y-90600000D03*
%TO.P,U1,18,TCK_P*%
%TO.N,Net-(J1-CK-)*%
X122900000Y-91000000D03*
%TO.P,U1,19,TCK_N*%
%TO.N,Net-(J1-CK+)*%
X122900000Y-91400000D03*
%TO.P,U1,20,TD0_P*%
%TO.N,Net-(J1-D0-)*%
X122900000Y-91800000D03*
%TO.P,U1,21,TD0_N*%
%TO.N,Net-(J1-D0+)*%
X122900000Y-92200000D03*
%TO.P,U1,22,VCC*%
%TO.N,Net-(JP10-B)*%
X122900000Y-92600000D03*
%TO.P,U1,23,TD1_P*%
%TO.N,Net-(J1-D1-)*%
X122900000Y-93000000D03*
%TO.P,U1,24,TD1_N*%
%TO.N,Net-(J1-D1+)*%
X122900000Y-93400000D03*
%TO.P,U1,25,TD2_P*%
%TO.N,Net-(J1-D2-)*%
X122900000Y-93800000D03*
%TO.P,U1,26,TD2_N*%
%TO.N,Net-(J1-D2+)*%
X122900000Y-94200000D03*
%TO.P,U1,27,SCL_SINK*%
%TO.N,Net-(J1-SCL)*%
X122900000Y-94600000D03*
D17*
%TO.P,U1,28,SDA_SINK*%
%TO.N,Net-(J1-SDA)*%
X123600000Y-95600000D03*
%TO.P,U1,29,HPD_SINK*%
%TO.N,Net-(J1-HPD)*%
X124000000Y-95600000D03*
%TO.P,U1,30,/OE*%
%TO.N,Net-(JP4-B)*%
X124400000Y-95600000D03*
%TO.P,U1,31,GND*%
%TO.N,GND*%
X124800000Y-95600000D03*
%TO.P,U1,32,GND*%
X125200000Y-95600000D03*
D18*
%TO.P,U1,33,HGND*%
X124400000Y-92600000D03*
%TD*%
D19*
%TO.P,R6,1*%
%TO.N,GND*%
X121000000Y-81687500D03*
%TO.P,R6,2*%
%TO.N,Net-(JP6-A)*%
X121000000Y-83512500D03*
%TD*%
D11*
%TO.P,R5,1*%
%TO.N,GND*%
X146712500Y-85400000D03*
%TO.P,R5,2*%
%TO.N,Net-(JP5-A)*%
X144887500Y-85400000D03*
%TD*%
D20*
%TO.P,JP7,1,A*%
%TO.N,Net-(JP7-A)*%
X126200000Y-85500000D03*
D21*
%TO.P,JP7,2,B*%
%TO.N,Net-(JP7-B)*%
X126200000Y-86800000D03*
%TD*%
D20*
%TO.P,JP6,1,A*%
%TO.N,Net-(JP6-A)*%
X121000000Y-85500000D03*
D21*
%TO.P,JP6,2,B*%
%TO.N,Net-(JP2-B)*%
X121000000Y-86800000D03*
%TD*%
D12*
%TO.P,JP5,1,A*%
%TO.N,Net-(JP5-A)*%
X142850000Y-85400000D03*
D13*
%TO.P,JP5,2,B*%
%TO.N,Net-(JP3-B)*%
X141550000Y-85400000D03*
%TD*%
D22*
%TO.P,C12,1*%
%TO.N,Net-(P11-VSYNC)*%
X131462500Y-89400000D03*
%TO.P,C12,2*%
%TO.N,Net-(U1-RCK_N)*%
X129737500Y-89400000D03*
%TD*%
%TO.P,C11,1*%
%TO.N,Net-(P11-HSYNC)*%
X131462500Y-87800000D03*
%TO.P,C11,2*%
%TO.N,Net-(U1-RCK_P)*%
X129737500Y-87800000D03*
%TD*%
%TO.P,C10,1*%
%TO.N,Net-(P11-BI)*%
X131462500Y-91000000D03*
%TO.P,C10,2*%
%TO.N,Net-(U1-RD0_P)*%
X129737500Y-91000000D03*
%TD*%
%TO.P,C9,1*%
%TO.N,Net-(P11-B)*%
X131462500Y-92600000D03*
%TO.P,C9,2*%
%TO.N,Net-(U1-RD0_N)*%
X129737500Y-92600000D03*
%TD*%
%TO.P,C8,1*%
%TO.N,Net-(P11-GI)*%
X131462500Y-94200000D03*
%TO.P,C8,2*%
%TO.N,Net-(U1-RD1_P)*%
X129737500Y-94200000D03*
%TD*%
%TO.P,C7,1*%
%TO.N,Net-(P11-G)*%
X131462500Y-95800000D03*
%TO.P,C7,2*%
%TO.N,Net-(U1-RD1_N)*%
X129737500Y-95800000D03*
%TD*%
%TO.P,C6,1*%
%TO.N,Net-(P11-R)*%
X131462500Y-99000000D03*
%TO.P,C6,2*%
%TO.N,Net-(U1-RD2_N)*%
X129737500Y-99000000D03*
%TD*%
%TO.P,C5,1*%
%TO.N,Net-(P11-RI)*%
X131462500Y-97400000D03*
%TO.P,C5,2*%
%TO.N,Net-(U1-RD2_P)*%
X129737500Y-97400000D03*
%TD*%
D23*
%TO.P,C2,1*%
%TO.N,Net-(JP10-B)*%
X124200000Y-99362500D03*
%TO.P,C2,2*%
%TO.N,GND*%
X124200000Y-101437500D03*
%TD*%
D11*
%TO.P,R2,1*%
%TO.N,Net-(JP10-B)*%
X146712500Y-82600000D03*
%TO.P,R2,2*%
%TO.N,Net-(JP3-A)*%
X144887500Y-82600000D03*
%TD*%
D12*
%TO.P,JP3,1,A*%
%TO.N,Net-(JP3-A)*%
X142850000Y-82600000D03*
D13*
%TO.P,JP3,2,B*%
%TO.N,Net-(JP3-B)*%
X141550000Y-82600000D03*
%TD*%
D24*
%TO.P,J1,1,D2+*%
%TO.N,Net-(J1-D2+)*%
X117485000Y-95900000D03*
%TO.P,J1,2,D2S*%
%TO.N,GND*%
X117485000Y-95400000D03*
%TO.P,J1,3,D2-*%
%TO.N,Net-(J1-D2-)*%
X117485000Y-94900000D03*
%TO.P,J1,4,D1+*%
%TO.N,Net-(J1-D1+)*%
X117485000Y-94400000D03*
%TO.P,J1,5,D1S*%
%TO.N,GND*%
X117485000Y-93900000D03*
%TO.P,J1,6,D1-*%
%TO.N,Net-(J1-D1-)*%
X117485000Y-93400000D03*
%TO.P,J1,7,D0+*%
%TO.N,Net-(J1-D0+)*%
X117485000Y-92900000D03*
%TO.P,J1,8,D0S*%
%TO.N,GND*%
X117485000Y-92400000D03*
%TO.P,J1,9,D0-*%
%TO.N,Net-(J1-D0-)*%
X117485000Y-91900000D03*
%TO.P,J1,10,CK+*%
%TO.N,Net-(J1-CK+)*%
X117485000Y-91400000D03*
%TO.P,J1,11,CKS*%
%TO.N,GND*%
X117485000Y-90900000D03*
%TO.P,J1,12,CK-*%
%TO.N,Net-(J1-CK-)*%
X117485000Y-90400000D03*
%TO.P,J1,13,CEC*%
%TO.N,Net-(J1-CEC)*%
X117485000Y-89900000D03*
%TO.P,J1,14,UTILITY*%
%TO.N,Net-(J1-UTILITY)*%
X117485000Y-89400000D03*
%TO.P,J1,15,SCL*%
%TO.N,Net-(J1-SCL)*%
X117485000Y-88900000D03*
%TO.P,J1,16,SDA*%
%TO.N,Net-(J1-SDA)*%
X117485000Y-88400000D03*
%TO.P,J1,17,GND*%
%TO.N,GND*%
X117485000Y-87900000D03*
%TO.P,J1,18,+5V*%
%TO.N,Net-(J1-+5V)*%
X117485000Y-87400000D03*
%TO.P,J1,19,HPD*%
%TO.N,Net-(J1-HPD)*%
X117485000Y-86900000D03*
D25*
%TO.P,J1,SH,SH*%
%TO.N,GND*%
X116725000Y-98650000D03*
X116725000Y-84150000D03*
D26*
X110765000Y-98650000D03*
X110765000Y-84150000D03*
%TD*%
D27*
%TO.P,P11,1,VCC*%
%TO.N,Net-(JP1-A)*%
X132250000Y-105675000D03*
D28*
%TO.P,P11,2,GND*%
%TO.N,GND*%
X132250000Y-103135000D03*
%TO.P,P11,3,R*%
%TO.N,Net-(P11-R)*%
X134790000Y-105675000D03*
%TO.P,P11,4,RI*%
%TO.N,Net-(P11-RI)*%
X134790000Y-103135000D03*
%TO.P,P11,5,G*%
%TO.N,Net-(P11-G)*%
X137330000Y-105675000D03*
%TO.P,P11,6,GI*%
%TO.N,Net-(P11-GI)*%
X137330000Y-103135000D03*
%TO.P,P11,7,B*%
%TO.N,Net-(P11-B)*%
X139870000Y-105675000D03*
%TO.P,P11,8,BI*%
%TO.N,Net-(P11-BI)*%
X139870000Y-103135000D03*
%TO.P,P11,9,VSYNC*%
%TO.N,Net-(P11-VSYNC)*%
X142410000Y-105675000D03*
%TO.P,P11,10,HSYNC*%
%TO.N,Net-(P11-HSYNC)*%
X142410000Y-103135000D03*
%TO.P,P11,11,GND*%
%TO.N,GND*%
X144950000Y-105675000D03*
%TO.P,P11,12,V33*%
%TO.N,Net-(JP10-B)*%
X144950000Y-103135000D03*
%TD*%
D27*
%TO.P,JP1,1,A*%
%TO.N,Net-(JP1-A)*%
X138475000Y-82800000D03*
D28*
%TO.P,JP1,2,B*%
%TO.N,Net-(J1-+5V)*%
X135935000Y-82800000D03*
%TD*%
D29*
%TO.P,JP4,1,A*%
%TO.N,Net-(JP4-A)*%
X121400000Y-100787500D03*
D30*
%TO.P,JP4,2,B*%
%TO.N,Net-(JP4-B)*%
X121400000Y-99487500D03*
%TD*%
D23*
%TO.P,C1,1*%
%TO.N,Net-(U1-CEXT)*%
X126800000Y-99362500D03*
%TO.P,C1,2*%
%TO.N,GND*%
X126800000Y-101437500D03*
%TD*%
D31*
%TO.P,C3,1*%
%TO.N,Net-(JP10-B)*%
X125937500Y-104400000D03*
%TO.P,C3,2*%
%TO.N,GND*%
X127662500Y-104400000D03*
%TD*%
D10*
%TO.P,R3,1*%
%TO.N,Net-(JP10-B)*%
X121400000Y-104800000D03*
%TO.P,R3,2*%
%TO.N,Net-(JP4-A)*%
X121400000Y-102975000D03*
%TD*%
D32*
%TO.P,C4,1*%
%TO.N,Net-(JP10-B)*%
X146000000Y-100262500D03*
%TO.P,C4,2*%
%TO.N,GND*%
X146000000Y-98537500D03*
%TD*%
D20*
%TO.P,JP2,1,A*%
%TO.N,Net-(JP2-A)*%
X123600000Y-85500000D03*
D21*
%TO.P,JP2,2,B*%
%TO.N,Net-(JP2-B)*%
X123600000Y-86800000D03*
%TD*%
D19*
%TO.P,R4,1*%
%TO.N,GND*%
X126200000Y-81687500D03*
%TO.P,R4,2*%
%TO.N,Net-(JP7-A)*%
X126200000Y-83512500D03*
%TD*%
%TO.P,R1,1*%
%TO.N,Net-(JP10-B)*%
X123600000Y-81687500D03*
%TO.P,R1,2*%
%TO.N,Net-(JP2-A)*%
X123600000Y-83512500D03*
%TD*%
D33*
%TO.P,J2,1,Pin_1*%
%TO.N,Net-(J2-Pin_1)*%
X151647500Y-88900000D03*
D28*
%TO.P,J2,2,Pin_2*%
%TO.N,unconnected-(J2-Pin_2-Pad2)*%
X154187500Y-88900000D03*
%TO.P,J2,3,Pin_3*%
%TO.N,Net-(J1-UTILITY)*%
X151647500Y-91440000D03*
%TO.P,J2,4,Pin_4*%
%TO.N,unconnected-(J2-Pin_4-Pad4)*%
X154187500Y-91440000D03*
%TO.P,J2,5,Pin_5*%
%TO.N,Net-(J2-Pin_5)*%
X151647500Y-93980000D03*
%TO.P,J2,6,Pin_6*%
%TO.N,unconnected-(J2-Pin_6-Pad6)*%
X154187500Y-93980000D03*
%TO.P,J2,7,Pin_7*%
%TO.N,Net-(J2-Pin_7)*%
X151647500Y-96520000D03*
%TO.P,J2,8,Pin_8*%
%TO.N,unconnected-(J2-Pin_8-Pad8)*%
X154187500Y-96520000D03*
%TO.P,J2,9,Pin_9*%
%TO.N,Net-(J1-CEC)*%
X151647500Y-99060000D03*
%TO.P,J2,10,Pin_10*%
%TO.N,unconnected-(J2-Pin_10-Pad10)*%
X154187500Y-99060000D03*
%TO.P,J2,11,Pin_11*%
%TO.N,GND*%
X151647500Y-101600000D03*
%TO.P,J2,12,Pin_12*%
%TO.N,unconnected-(J2-Pin_12-Pad12)*%
X154187500Y-101600000D03*
%TD*%
D34*
%TO.N,GND*%
X127800000Y-83600000D03*
X128922660Y-85548052D03*
X124800000Y-97000000D03*
X127600000Y-82000000D03*
X119400000Y-82000000D03*
%TO.N,Net-(J2-Pin_1)*%
X147400000Y-95000000D03*
%TO.N,GND*%
X145800000Y-97400000D03*
%TO.N,Net-(J2-Pin_1)*%
X128000000Y-88800000D03*
%TO.N,Net-(JP10-B)*%
X147041287Y-91040640D03*
%TO.N,Net-(J2-Pin_7)*%
X128559620Y-86759620D03*
X149200000Y-87600000D03*
%TO.N,Net-(J2-Pin_5)*%
X149919683Y-88150000D03*
X136800000Y-88000000D03*
X133000000Y-87800000D03*
%TO.N,Net-(JP10-B)*%
X136200000Y-91400000D03*
%TO.N,Net-(JP1-A)*%
X144000000Y-99600000D03*
%TO.N,Net-(JP10-B)*%
X125900000Y-97100000D03*
%TO.N,Net-(J1-+5V)*%
X115400000Y-87000000D03*
%TO.N,Net-(JP3-B)*%
X141400000Y-90800000D03*
X121800000Y-90350000D03*
%TO.N,GND*%
X147600000Y-85600000D03*
X126800000Y-102600000D03*
X124200000Y-102600000D03*
X124851918Y-88074383D03*
%TO.N,Net-(J1-HPD)*%
X119600000Y-87000000D03*
X123484130Y-96484130D03*
%TO.N,Net-(J1-SDA)*%
X122600000Y-96200000D03*
X119850000Y-87884493D03*
%TO.N,GND*%
X115600000Y-95600000D03*
X115400000Y-94000000D03*
X115400000Y-92400000D03*
X115400000Y-88000000D03*
X115400000Y-91000000D03*
%TO.N,Net-(J1-CEC)*%
X148550000Y-90657712D03*
X120824407Y-90002207D03*
%TO.N,Net-(J1-UTILITY)*%
X120945450Y-89206818D03*
%TO.N,Net-(J1-SCL)*%
X122000000Y-95400000D03*
X120250000Y-88771778D03*
%TO.N,Net-(JP10-B)*%
X121000000Y-92800000D03*
%TD*%
D35*
%TO.N,Net-(P11-HSYNC)*%
X131462500Y-87800000D02*
X131462500Y-88062500D01*
X131462500Y-88062500D02*
X142410000Y-99010000D01*
X142410000Y-99010000D02*
X142410000Y-103135000D01*
%TO.N,Net-(P11-B)*%
X138480000Y-104285000D02*
X139870000Y-105675000D01*
X138480000Y-98245686D02*
X138480000Y-104285000D01*
X132834314Y-92600000D02*
X138480000Y-98245686D01*
X131462500Y-92600000D02*
X132834314Y-92600000D01*
%TO.N,Net-(P11-BI)*%
X131800000Y-91000000D02*
X139870000Y-99070000D01*
X131462500Y-91000000D02*
X131800000Y-91000000D01*
X139870000Y-99070000D02*
X139870000Y-103135000D01*
%TO.N,Net-(P11-G)*%
X133234314Y-95800000D02*
X136180000Y-98745686D01*
%TO.N,Net-(P11-GI)*%
X132200000Y-94200000D02*
X137330000Y-99330000D01*
%TO.N,Net-(P11-G)*%
X131462500Y-95800000D02*
X133234314Y-95800000D01*
%TO.N,Net-(P11-GI)*%
X131462500Y-94200000D02*
X132200000Y-94200000D01*
%TO.N,Net-(P11-G)*%
X136180000Y-98745686D02*
X136180000Y-104525000D01*
X136180000Y-104525000D02*
X137330000Y-105675000D01*
%TO.N,Net-(P11-GI)*%
X137330000Y-99330000D02*
X137330000Y-103135000D01*
%TO.N,Net-(P11-RI)*%
X131462500Y-97400000D02*
X132400000Y-97400000D01*
X132400000Y-97400000D02*
X134790000Y-99790000D01*
X134790000Y-99790000D02*
X134790000Y-103135000D01*
%TO.N,Net-(P11-VSYNC)*%
X131462500Y-89400000D02*
X132200000Y-89400000D01*
X132200000Y-89400000D02*
X141020000Y-98220000D01*
X141020000Y-98220000D02*
X141020000Y-104285000D01*
X141020000Y-104285000D02*
X142410000Y-105675000D01*
%TO.N,Net-(P11-R)*%
X131462500Y-99000000D02*
X133200000Y-99000000D01*
X133200000Y-99000000D02*
X133640000Y-99440000D01*
X133640000Y-99440000D02*
X133640000Y-104525000D01*
X133640000Y-104525000D02*
X134790000Y-105675000D01*
%TO.N,GND*%
X124800000Y-95600000D02*
X124800000Y-93000000D01*
X124800000Y-93000000D02*
X124400000Y-92600000D01*
X124400000Y-89600000D02*
X124400000Y-92600000D01*
%TO.N,Net-(J1-UTILITY)*%
X117485000Y-89400000D02*
X120752268Y-89400000D01*
%TO.N,GND*%
X117485000Y-87900000D02*
X115500000Y-87900000D01*
%TO.N,Net-(J1-CEC)*%
X120722200Y-89900000D02*
X120824407Y-90002207D01*
%TO.N,Net-(J1-CK-)*%
X122900000Y-91000000D02*
X120700000Y-91000000D01*
%TO.N,Net-(J1-CK+)*%
X122900000Y-91400000D02*
X117485000Y-91400000D01*
%TO.N,Net-(J1-D0-)*%
X120300000Y-91900000D02*
X117485000Y-91900000D01*
X120400000Y-91800000D02*
X120300000Y-91900000D01*
%TO.N,Net-(J1-D1-)*%
X121331584Y-93400000D02*
X121731585Y-93000000D01*
%TO.N,GND*%
X115400000Y-92400000D02*
X117485000Y-92400000D01*
%TO.N,Net-(J1-D0+)*%
X117485000Y-92900000D02*
X119900000Y-92900000D01*
%TO.N,Net-(J1-+5V)*%
X117485000Y-87400000D02*
X115800000Y-87400000D01*
%TO.N,GND*%
X117485000Y-93900000D02*
X115500000Y-93900000D01*
%TO.N,Net-(J1-D1+)*%
X121897270Y-93400000D02*
X122900000Y-93400000D01*
X120897268Y-94400000D02*
X121897270Y-93400000D01*
%TO.N,Net-(J1-D1-)*%
X121731585Y-93000000D02*
X122900000Y-93000000D01*
%TO.N,Net-(J1-D2-)*%
X117485000Y-94900000D02*
X120962954Y-94900000D01*
%TO.N,Net-(J1-D1+)*%
X117485000Y-94400000D02*
X120897268Y-94400000D01*
%TO.N,GND*%
X115800000Y-95400000D02*
X115600000Y-95600000D01*
X115500000Y-93900000D02*
X115400000Y-94000000D01*
X117485000Y-95400000D02*
X115800000Y-95400000D01*
X115500000Y-87900000D02*
X115400000Y-88000000D01*
X115500000Y-90900000D02*
X115400000Y-91000000D01*
X117485000Y-90900000D02*
X115500000Y-90900000D01*
%TO.N,Net-(J1-CK-)*%
X120100000Y-90400000D02*
X117485000Y-90400000D01*
%TO.N,Net-(J1-D0+)*%
X119900000Y-92900000D02*
X120600000Y-92200000D01*
%TO.N,Net-(J1-CEC)*%
X117485000Y-89900000D02*
X120722200Y-89900000D01*
%TO.N,Net-(J1-CK-)*%
X120700000Y-91000000D02*
X120100000Y-90400000D01*
%TO.N,Net-(J1-D0-)*%
X122900000Y-91800000D02*
X120400000Y-91800000D01*
%TO.N,Net-(J1-D0+)*%
X120600000Y-92200000D02*
X122900000Y-92200000D01*
%TO.N,Net-(J1-D2-)*%
X122062955Y-93800000D02*
X122900000Y-93800000D01*
%TO.N,Net-(J1-D1-)*%
X117485000Y-93400000D02*
X121331584Y-93400000D01*
%TO.N,Net-(J1-D2+)*%
X122228640Y-94200000D02*
X122900000Y-94200000D01*
%TO.N,Net-(J1-SCL)*%
X117485000Y-88900000D02*
X120121778Y-88900000D01*
%TO.N,Net-(J1-UTILITY)*%
X120752268Y-89400000D02*
X120945450Y-89206818D01*
%TO.N,Net-(J1-D2+)*%
X117485000Y-95900000D02*
X120528640Y-95900000D01*
%TO.N,Net-(J1-D2-)*%
X120962954Y-94900000D02*
X122062955Y-93800000D01*
%TO.N,Net-(J1-D2+)*%
X120528640Y-95900000D02*
X122228640Y-94200000D01*
%TO.N,Net-(J1-SCL)*%
X120121778Y-88900000D02*
X120250000Y-88771778D01*
%TO.N,Net-(J1-SDA)*%
X117485000Y-88400000D02*
X119334493Y-88400000D01*
X119334493Y-88400000D02*
X119850000Y-87884493D01*
%TO.N,Net-(J1-+5V)*%
X115800000Y-87400000D02*
X115400000Y-87000000D01*
%TO.N,Net-(J1-HPD)*%
X119600000Y-87000000D02*
X119500000Y-86900000D01*
X119500000Y-86900000D02*
X117485000Y-86900000D01*
%TO.N,Net-(J1-+5V)*%
X108200000Y-99050000D02*
X108200000Y-94200000D01*
X108200000Y-94200000D02*
X115400000Y-87000000D01*
X111750000Y-102600000D02*
X108200000Y-99050000D01*
%TO.N,Net-(J2-Pin_7)*%
X129600000Y-85719240D02*
X128559620Y-86759620D01*
X128800000Y-83512500D02*
X129600000Y-84312500D01*
X129600000Y-84312500D02*
X129600000Y-85719240D01*
%TO.N,Net-(JP10-A)*%
X128800000Y-81687500D02*
X131237500Y-81687500D01*
X131237500Y-81687500D02*
X131550000Y-82000000D01*
%TO.N,GND*%
X126800000Y-102600000D02*
X127662500Y-103462500D01*
X127662500Y-103462500D02*
X127662500Y-104400000D01*
X128922660Y-85548052D02*
X127800000Y-84425392D01*
X127800000Y-84425392D02*
X127800000Y-83600000D01*
%TO.N,Net-(J2-Pin_7)*%
X124800000Y-89600000D02*
X124800000Y-89034315D01*
X124800000Y-89034315D02*
X125234315Y-88600000D01*
X125234315Y-88600000D02*
X126519240Y-88600000D01*
%TO.N,Net-(J2-Pin_5)*%
X126200000Y-89600000D02*
X128390380Y-87409620D01*
X128390380Y-87409620D02*
X128800000Y-87409620D01*
X128800000Y-87409620D02*
X129209620Y-87000000D01*
X129209620Y-87000000D02*
X132200000Y-87000000D01*
X125200000Y-89600000D02*
X126200000Y-89600000D01*
X132200000Y-87000000D02*
X133000000Y-87800000D01*
%TO.N,Net-(J2-Pin_7)*%
X126519240Y-88600000D02*
X128359620Y-86759620D01*
X128359620Y-86759620D02*
X128559620Y-86759620D01*
%TO.N,GND*%
X124851918Y-88074383D02*
X126396329Y-88074383D01*
X126396329Y-88074383D02*
X128922660Y-85548052D01*
X125200000Y-95600000D02*
X125200000Y-96600000D01*
X125200000Y-96600000D02*
X124800000Y-97000000D01*
X124800000Y-95600000D02*
X124800000Y-97000000D01*
%TO.N,Net-(JP10-B)*%
X132850000Y-83518664D02*
X132084332Y-84284332D01*
X123600000Y-81687500D02*
X124637500Y-82725000D01*
X124637500Y-82725000D02*
X130525000Y-82725000D01*
X130525000Y-82725000D02*
X132084332Y-84284332D01*
%TO.N,GND*%
X126200000Y-81687500D02*
X127287500Y-81687500D01*
X127287500Y-81687500D02*
X127600000Y-82000000D01*
X121000000Y-81687500D02*
X119712500Y-81687500D01*
X119712500Y-81687500D02*
X119400000Y-82000000D01*
%TO.N,Net-(J1-SCL)*%
X117262500Y-101371814D02*
X122000000Y-96634314D01*
X117262500Y-102530000D02*
X117262500Y-101371814D01*
X122000000Y-96634314D02*
X122000000Y-95400000D01*
%TO.N,Net-(J1-SDA)*%
X119000000Y-104112500D02*
X119000000Y-100200000D01*
X119000000Y-100200000D02*
X122600000Y-96600000D01*
X122600000Y-96600000D02*
X122600000Y-96200000D01*
X117312500Y-105800000D02*
X119000000Y-104112500D01*
%TO.N,Net-(J2-Pin_1)*%
X146200000Y-94912500D02*
X147312500Y-94912500D01*
X147312500Y-94912500D02*
X147400000Y-95000000D01*
%TO.N,Net-(JP10-B)*%
X146200000Y-93087500D02*
X146200000Y-91881927D01*
X146200000Y-91881927D02*
X147041287Y-91040640D01*
%TO.N,GND*%
X146000000Y-98537500D02*
X146000000Y-97600000D01*
X146000000Y-97600000D02*
X145800000Y-97400000D01*
%TO.N,Net-(JP10-B)*%
X146000000Y-100262500D02*
X146000000Y-102085000D01*
X146000000Y-102085000D02*
X144950000Y-103135000D01*
%TO.N,Net-(U1-RCK_P)*%
X128634315Y-89084924D02*
X128634315Y-88365685D01*
%TO.N,Net-(J2-Pin_1)*%
X127700000Y-88800000D02*
X128000000Y-88800000D01*
%TO.N,Net-(U1-RCK_N)*%
X127737500Y-91400000D02*
X129737500Y-89400000D01*
%TO.N,Net-(U1-RCK_P)*%
X128634315Y-88365685D02*
X129200000Y-87800000D01*
%TO.N,Net-(U1-RCK_N)*%
X125900000Y-91400000D02*
X127737500Y-91400000D01*
%TO.N,Net-(JP10-B)*%
X148400000Y-89400000D02*
X147041287Y-90758713D01*
%TO.N,Net-(J2-Pin_5)*%
X149919683Y-92252183D02*
X149919683Y-88150000D01*
%TO.N,Net-(U1-RCK_P)*%
X126719239Y-91000000D02*
X128634315Y-89084924D01*
%TO.N,Net-(JP10-B)*%
X148400000Y-83800000D02*
X148400000Y-89400000D01*
%TO.N,Net-(J2-Pin_5)*%
X151647500Y-93980000D02*
X149919683Y-92252183D01*
%TO.N,Net-(JP10-B)*%
X146712500Y-82600000D02*
X147200000Y-82600000D01*
X147041287Y-90758713D02*
X147041287Y-91040640D01*
%TO.N,Net-(U1-RCK_P)*%
X125900000Y-91000000D02*
X126719239Y-91000000D01*
X129200000Y-87800000D02*
X129737500Y-87800000D01*
%TO.N,Net-(J2-Pin_1)*%
X125900000Y-90600000D02*
X127700000Y-88800000D01*
%TO.N,Net-(JP10-B)*%
X147200000Y-82600000D02*
X148400000Y-83800000D01*
%TO.N,Net-(J1-CEC)*%
X148550000Y-95962500D02*
X148550000Y-90657712D01*
%TO.N,Net-(J2-Pin_7)*%
X149200000Y-94072500D02*
X149200000Y-87600000D01*
X151647500Y-96520000D02*
X149200000Y-94072500D01*
%TO.N,Net-(J1-CEC)*%
X151647500Y-99060000D02*
X148550000Y-95962500D01*
%TO.N,GND*%
X124400000Y-88526301D02*
X124851918Y-88074383D01*
%TO.N,Net-(JP7-B)*%
X124000000Y-88007062D02*
X125207062Y-86800000D01*
%TO.N,Net-(JP10-B)*%
X133650000Y-87850000D02*
X136200000Y-90400000D01*
X133269239Y-87150000D02*
X133650000Y-87530761D01*
X133650000Y-87530761D02*
X133650000Y-87850000D01*
X132950000Y-87150000D02*
X133269239Y-87150000D01*
X136200000Y-90400000D02*
X136200000Y-91400000D01*
X131550000Y-85200000D02*
X131550000Y-85750000D01*
%TO.N,Net-(J2-Pin_5)*%
X136912500Y-87887500D02*
X136912500Y-85800000D01*
X136800000Y-88000000D02*
X136912500Y-87887500D01*
%TO.N,GND*%
X124400000Y-89600000D02*
X124400000Y-88526301D01*
%TO.N,Net-(JP7-B)*%
X125207062Y-86800000D02*
X126200000Y-86800000D01*
%TO.N,Net-(JP10-B)*%
X131550000Y-85750000D02*
X132950000Y-87150000D01*
%TO.N,Net-(JP7-B)*%
X124000000Y-89600000D02*
X124000000Y-88007062D01*
%TO.N,Net-(JP10-B)*%
X132850000Y-82200000D02*
X132850000Y-83518664D01*
X132084332Y-84284332D02*
X131550000Y-84818664D01*
X131550000Y-84818664D02*
X131550000Y-85200000D01*
%TO.N,Net-(JP11-A)*%
X132850000Y-85200000D02*
X133450000Y-85800000D01*
X133450000Y-85800000D02*
X135087500Y-85800000D01*
D36*
%TO.N,Net-(JP1-A)*%
X138475000Y-82800000D02*
X138475000Y-93675000D01*
X138475000Y-93675000D02*
X144000000Y-99200000D01*
X144000000Y-99200000D02*
X144000000Y-99600000D01*
D35*
%TO.N,Net-(J1-+5V)*%
X111750000Y-106200000D02*
X111750000Y-102600000D01*
%TO.N,Net-(JP9-A)*%
X115487500Y-105800000D02*
X113450000Y-105800000D01*
X113450000Y-105800000D02*
X113050000Y-106200000D01*
%TO.N,Net-(JP8-A)*%
X115437500Y-102530000D02*
X113120000Y-102530000D01*
X113120000Y-102530000D02*
X113050000Y-102600000D01*
%TO.N,Net-(J1-HPD)*%
X123715870Y-96484130D02*
X123484130Y-96484130D01*
%TO.N,Net-(JP4-B)*%
X124400000Y-95600000D02*
X124400000Y-96487500D01*
%TO.N,Net-(J1-HPD)*%
X124000000Y-96200000D02*
X123715870Y-96484130D01*
%TO.N,Net-(J1-SDA)*%
X122600000Y-96200000D02*
X123200000Y-95600000D01*
%TO.N,Net-(J1-HPD)*%
X124000000Y-95600000D02*
X124000000Y-96200000D01*
%TO.N,Net-(J1-SDA)*%
X123200000Y-95600000D02*
X123600000Y-95600000D01*
%TO.N,Net-(JP4-B)*%
X124400000Y-96487500D02*
X121400000Y-99487500D01*
D36*
%TO.N,Net-(JP10-B)*%
X125937500Y-104400000D02*
X128512500Y-106975000D01*
X128512500Y-106975000D02*
X145488478Y-106975000D01*
X145488478Y-106975000D02*
X146250000Y-106213478D01*
X146250000Y-106213478D02*
X146250000Y-104435000D01*
X146250000Y-104435000D02*
X144950000Y-103135000D01*
X124200000Y-99362500D02*
X125375000Y-100537500D01*
X125375000Y-100537500D02*
X125375000Y-103837500D01*
X125375000Y-103837500D02*
X125937500Y-104400000D01*
X121400000Y-104800000D02*
X122800000Y-103400000D01*
X122800000Y-103400000D02*
X122800000Y-100762500D01*
X122800000Y-100762500D02*
X124200000Y-99362500D01*
X124200000Y-98800000D02*
X125900000Y-97100000D01*
D35*
%TO.N,Net-(JP3-B)*%
X122900000Y-90600000D02*
X122050000Y-90600000D01*
X122050000Y-90600000D02*
X121800000Y-90350000D01*
X141550000Y-85400000D02*
X141550000Y-90650000D01*
X141550000Y-90650000D02*
X141400000Y-90800000D01*
X141550000Y-82600000D02*
X141550000Y-85400000D01*
%TO.N,GND*%
X146712500Y-85400000D02*
X147400000Y-85400000D01*
X147400000Y-85400000D02*
X147600000Y-85600000D01*
%TO.N,Net-(JP5-A)*%
X142850000Y-85400000D02*
X144887500Y-85400000D01*
%TO.N,Net-(JP3-A)*%
X142850000Y-82600000D02*
X144887500Y-82600000D01*
%TO.N,GND*%
X126800000Y-101437500D02*
X126800000Y-102600000D01*
X124200000Y-101437500D02*
X124200000Y-102600000D01*
%TO.N,Net-(JP4-A)*%
X121400000Y-100787500D02*
X121400000Y-102975000D01*
%TO.N,Net-(U1-CEXT)*%
X125900000Y-94200000D02*
X126400000Y-94200000D01*
X126400000Y-94200000D02*
X126800000Y-94600000D01*
X126800000Y-94600000D02*
X126800000Y-99362500D01*
D36*
%TO.N,Net-(JP10-B)*%
X124200000Y-99362500D02*
X124200000Y-98800000D01*
D35*
X125900000Y-97100000D02*
X126400000Y-96600000D01*
X125900000Y-94600000D02*
X126200000Y-94600000D01*
X126200000Y-94600000D02*
X126400000Y-94800000D01*
X123800000Y-99200000D02*
X123800000Y-99362500D01*
X126400000Y-94800000D02*
X126400000Y-96600000D01*
%TO.N,Net-(U1-RD2_P)*%
X125900000Y-93400000D02*
X126731372Y-93400000D01*
X128800000Y-97400000D02*
X129737500Y-97400000D01*
%TO.N,Net-(U1-RD2_N)*%
X127200000Y-96462500D02*
X129737500Y-99000000D01*
%TO.N,Net-(U1-RD2_P)*%
X127600000Y-96200000D02*
X128800000Y-97400000D01*
X127600000Y-94268629D02*
X127600000Y-96200000D01*
%TO.N,Net-(U1-RD2_N)*%
X126565686Y-93800000D02*
X127200000Y-94434314D01*
X125900000Y-93800000D02*
X126565686Y-93800000D01*
X127200000Y-94434314D02*
X127200000Y-96462500D01*
%TO.N,Net-(U1-RD2_P)*%
X126731372Y-93400000D02*
X127600000Y-94268629D01*
%TO.N,Net-(JP7-A)*%
X126200000Y-85500000D02*
X126200000Y-83512500D01*
%TO.N,Net-(JP2-A)*%
X123600000Y-85500000D02*
X123600000Y-83512500D01*
%TO.N,Net-(JP6-A)*%
X121000000Y-85500000D02*
X121000000Y-83512500D01*
%TO.N,Net-(JP2-B)*%
X123600000Y-86800000D02*
X121000000Y-86800000D01*
X123600000Y-89600000D02*
X123600000Y-86800000D01*
%TO.N,Net-(J1-SCL)*%
X122900000Y-94600000D02*
X122800000Y-94600000D01*
X122800000Y-94600000D02*
X122000000Y-95400000D01*
%TO.N,Net-(JP10-B)*%
X122900000Y-92600000D02*
X121200000Y-92600000D01*
X121200000Y-92600000D02*
X121000000Y-92800000D01*
%TO.N,Net-(U1-RD0_P)*%
X125900000Y-91800000D02*
X128368750Y-91800000D01*
X128368750Y-91800000D02*
X129168750Y-91000000D01*
X129168750Y-91000000D02*
X129737500Y-91000000D01*
%TO.N,Net-(U1-RD0_N)*%
X125900000Y-92200000D02*
X128382843Y-92200000D01*
X128382843Y-92200000D02*
X128782843Y-92600000D01*
X128782843Y-92600000D02*
X129737500Y-92600000D01*
%TO.N,Net-(U1-RD1_P)*%
X125900000Y-92600000D02*
X127200000Y-92600000D01*
X127200000Y-92600000D02*
X128800000Y-94200000D01*
X128800000Y-94200000D02*
X129737500Y-94200000D01*
%TO.N,Net-(U1-RD1_N)*%
X125900000Y-93000000D02*
X126937500Y-93000000D01*
X126937500Y-93000000D02*
X129737500Y-95800000D01*
%TD*%
M02*
