%TF.GenerationSoftware,KiCad,Pcbnew,8.0.6*%
%TF.CreationDate,2024-11-28T12:35:29+01:00*%
%TF.ProjectId,OscillatorFootprintAdapter,4f736369-6c6c-4617-946f-72466f6f7470,rev?*%
%TF.SameCoordinates,Original*%
%TF.FileFunction,Copper,L2,Bot*%
%TF.FilePolarity,Positive*%
%FSLAX46Y46*%
G04 Gerber Fmt 4.6, Leading zero omitted, Abs format (unit mm)*
G04 Created by KiCad (PCBNEW 8.0.6) date 2024-11-28 12:35:29*
%MOMM*%
%LPD*%
G01*
G04 APERTURE LIST*
%TA.AperFunction,ViaPad*%
%ADD10C,0.600000*%
%TD*%
%TA.AperFunction,ViaPad*%
%ADD11C,1.000000*%
%TD*%
%TA.AperFunction,Conductor*%
%ADD12C,0.200000*%
%TD*%
G04 APERTURE END LIST*
D10*
%TO.N,Net-(U1-VDD)*%
X167397136Y-98054800D03*
D11*
%TO.N,unconnected-(U1-NC-Pad2)*%
X164484200Y-100594800D03*
D10*
%TO.N,Net-(U1-OUT)*%
X166404200Y-101737800D03*
D11*
%TO.N,Net-(U1-VDD)*%
X167532200Y-99324800D03*
D10*
%TO.N,Net-(U1-OUT)*%
X162213200Y-101737800D03*
D11*
X167532200Y-101864800D03*
D10*
%TO.N,Net-(U1-GND)*%
X161436198Y-98054800D03*
%TO.N,Net-(U1-E{slash}D)*%
X161055200Y-95615798D03*
D11*
%TO.N,Net-(U1-OUT)*%
X163341200Y-101864800D03*
D10*
%TO.N,Net-(U1-GND)*%
X165627198Y-98054800D03*
%TO.N,Net-(U1-VDD)*%
X162579200Y-95615798D03*
D11*
%TO.N,unconnected-(U1-OUT2-Pad5)*%
X167532200Y-100594800D03*
%TO.N,Net-(U1-VDD)*%
X163341200Y-99324800D03*
D10*
X163206136Y-98054800D03*
D11*
%TO.N,unconnected-(U1-OUT2-Pad5)*%
X163341200Y-100594800D03*
D10*
%TO.N,Net-(U1-E{slash}D)*%
X160610695Y-98118305D03*
%TO.N,Net-(U1-OUT)*%
X166587542Y-98049836D03*
%TO.N,Net-(U1-E{slash}D)*%
X165246200Y-95615798D03*
X164801695Y-98118305D03*
%TO.N,Net-(U1-VDD)*%
X166770200Y-95615798D03*
D11*
%TO.N,Net-(U1-GND)*%
X160293200Y-101864800D03*
D10*
X161563200Y-102372800D03*
D11*
X164484200Y-101864800D03*
%TO.N,Net-(U1-E{slash}D)*%
X164484200Y-99324800D03*
D10*
%TO.N,Net-(U1-OUT)*%
X162396542Y-98049836D03*
D11*
%TO.N,unconnected-(U1-NC-Pad2)*%
X160293200Y-100594800D03*
D10*
%TO.N,Net-(U1-GND)*%
X165754200Y-102372800D03*
D11*
%TO.N,Net-(U1-E{slash}D)*%
X160293200Y-99324800D03*
D10*
%TO.N,Net-(U1-OUT)*%
X158003000Y-101727000D03*
%TO.N,Net-(U1-GND)*%
X157225998Y-98044000D03*
%TO.N,Net-(U1-E{slash}D)*%
X156845000Y-95604998D03*
D11*
%TO.N,Net-(U1-OUT)*%
X159131000Y-101854000D03*
D10*
%TO.N,Net-(U1-VDD)*%
X158369000Y-95604998D03*
D11*
X159131000Y-99314000D03*
D10*
X158995936Y-98044000D03*
D11*
%TO.N,unconnected-(U1-OUT2-Pad5)*%
X159131000Y-100584000D03*
D10*
%TO.N,Net-(U1-E{slash}D)*%
X156400495Y-98107505D03*
D11*
%TO.N,Net-(U1-GND)*%
X156083000Y-101854000D03*
D10*
X157353000Y-102362000D03*
%TO.N,Net-(U1-OUT)*%
X158186342Y-98039036D03*
D11*
%TO.N,unconnected-(U1-NC-Pad2)*%
X156083000Y-100584000D03*
%TO.N,Net-(U1-E{slash}D)*%
X156083000Y-99314000D03*
X151892000Y-99314000D03*
%TO.N,unconnected-(U1-NC-Pad2)*%
X151892000Y-100584000D03*
%TO.N,Net-(U1-GND)*%
X151892000Y-101854000D03*
%TO.N,Net-(U1-OUT)*%
X154940000Y-101854000D03*
%TO.N,Net-(U1-VDD)*%
X154940000Y-99314000D03*
%TO.N,unconnected-(U1-OUT2-Pad5)*%
X154940000Y-100584000D03*
D10*
%TO.N,Net-(U1-VDD)*%
X154804936Y-98044000D03*
X154178000Y-95604998D03*
%TO.N,Net-(U1-E{slash}D)*%
X152654000Y-95604998D03*
X152209495Y-98107505D03*
%TO.N,Net-(U1-GND)*%
X153162000Y-102362000D03*
X153034998Y-98044000D03*
%TO.N,Net-(U1-OUT)*%
X153812000Y-101727000D03*
X153995342Y-98039036D03*
%TD*%
D12*
%TO.N,Net-(U1-OUT)*%
X166296198Y-101629798D02*
X166296198Y-98341180D01*
%TO.N,Net-(U1-VDD)*%
X166770200Y-95615798D02*
X167397136Y-96242734D01*
%TO.N,Net-(U1-GND)*%
X161563200Y-98181802D02*
X161436198Y-98054800D01*
X165754200Y-98181802D02*
X165627198Y-98054800D01*
%TO.N,Net-(U1-VDD)*%
X163206136Y-96242734D02*
X163206136Y-98054800D01*
%TO.N,Net-(U1-OUT)*%
X162105198Y-101629798D02*
X162105198Y-98341180D01*
X162105198Y-98341180D02*
X162396542Y-98049836D01*
%TO.N,Net-(U1-E{slash}D)*%
X160610695Y-96060303D02*
X160610695Y-98118305D01*
%TO.N,Net-(U1-GND)*%
X165754200Y-102372800D02*
X165754200Y-98181802D01*
%TO.N,Net-(U1-OUT)*%
X162213200Y-101737800D02*
X162105198Y-101629798D01*
%TO.N,Net-(U1-E{slash}D)*%
X164801695Y-96060303D02*
X164801695Y-98118305D01*
X161055200Y-95615798D02*
X160610695Y-96060303D01*
%TO.N,Net-(U1-VDD)*%
X162579200Y-95615798D02*
X163206136Y-96242734D01*
%TO.N,Net-(U1-GND)*%
X161563200Y-102372800D02*
X161563200Y-98181802D01*
%TO.N,Net-(U1-VDD)*%
X167397136Y-96242734D02*
X167397136Y-98054800D01*
%TO.N,Net-(U1-OUT)*%
X166296198Y-98341180D02*
X166587542Y-98049836D01*
X166404200Y-101737800D02*
X166296198Y-101629798D01*
%TO.N,Net-(U1-E{slash}D)*%
X165246200Y-95615798D02*
X164801695Y-96060303D01*
%TO.N,Net-(U1-GND)*%
X157353000Y-98171002D02*
X157225998Y-98044000D01*
%TO.N,Net-(U1-VDD)*%
X158995936Y-96231934D02*
X158995936Y-98044000D01*
%TO.N,Net-(U1-OUT)*%
X157894998Y-101618998D02*
X157894998Y-98330380D01*
X157894998Y-98330380D02*
X158186342Y-98039036D01*
%TO.N,Net-(U1-E{slash}D)*%
X156400495Y-96049503D02*
X156400495Y-98107505D01*
%TO.N,Net-(U1-OUT)*%
X158003000Y-101727000D02*
X157894998Y-101618998D01*
%TO.N,Net-(U1-E{slash}D)*%
X156845000Y-95604998D02*
X156400495Y-96049503D01*
%TO.N,Net-(U1-VDD)*%
X158369000Y-95604998D02*
X158995936Y-96231934D01*
%TO.N,Net-(U1-GND)*%
X157353000Y-102362000D02*
X157353000Y-98171002D01*
%TO.N,Net-(U1-OUT)*%
X153812000Y-101727000D02*
X153703998Y-101618998D01*
X153703998Y-101618998D02*
X153703998Y-98330380D01*
X153703998Y-98330380D02*
X153995342Y-98039036D01*
%TO.N,Net-(U1-VDD)*%
X154804936Y-96231934D02*
X154804936Y-98044000D01*
X154178000Y-95604998D02*
X154804936Y-96231934D01*
%TO.N,Net-(U1-GND)*%
X153162000Y-102362000D02*
X153162000Y-98171002D01*
%TO.N,Net-(U1-E{slash}D)*%
X152654000Y-95604998D02*
X152209495Y-96049503D01*
%TO.N,Net-(U1-GND)*%
X153162000Y-98171002D02*
X153034998Y-98044000D01*
%TO.N,Net-(U1-E{slash}D)*%
X152209495Y-96049503D02*
X152209495Y-98107505D01*
%TD*%
M02*
