%TF.GenerationSoftware,KiCad,Pcbnew,8.0.6*%
%TF.CreationDate,2024-11-28T12:35:29+01:00*%
%TF.ProjectId,OscillatorFootprintAdapter,4f736369-6c6c-4617-946f-72466f6f7470,rev?*%
%TF.SameCoordinates,Original*%
%TF.FileFunction,Copper,L1,Top*%
%TF.FilePolarity,Positive*%
%FSLAX46Y46*%
G04 Gerber Fmt 4.6, Leading zero omitted, Abs format (unit mm)*
G04 Created by KiCad (PCBNEW 8.0.6) date 2024-11-28 12:35:29*
%MOMM*%
%LPD*%
G01*
G04 APERTURE LIST*
%TA.AperFunction,SMDPad,CuDef*%
%ADD10R,1.290000X0.890000*%
%TD*%
%TA.AperFunction,SMDPad,CuDef*%
%ADD11R,1.100000X1.300000*%
%TD*%
%TA.AperFunction,ViaPad*%
%ADD12C,0.600000*%
%TD*%
%TA.AperFunction,ViaPad*%
%ADD13C,1.000000*%
%TD*%
%TA.AperFunction,Conductor*%
%ADD14C,0.200000*%
%TD*%
G04 APERTURE END LIST*
D10*
%TO.P,U1,1,E/D*%
%TO.N,Net-(U1-E{slash}D)*%
X160705200Y-99305800D03*
%TO.P,U1,2,NC*%
%TO.N,unconnected-(U1-NC-Pad2)*%
X160705200Y-100575800D03*
%TO.P,U1,3,GND*%
%TO.N,Net-(U1-GND)*%
X160705200Y-101845800D03*
%TO.P,U1,4,OUT*%
%TO.N,Net-(U1-OUT)*%
X162955200Y-101845800D03*
%TO.P,U1,5,OUT2*%
%TO.N,unconnected-(U1-OUT2-Pad5)*%
X162955200Y-100575800D03*
%TO.P,U1,6,VDD*%
%TO.N,Net-(U1-VDD)*%
X162955200Y-99305800D03*
%TD*%
%TO.P,U1,1,E/D*%
%TO.N,Net-(U1-E{slash}D)*%
X164896200Y-99305800D03*
%TO.P,U1,2,NC*%
%TO.N,unconnected-(U1-NC-Pad2)*%
X164896200Y-100575800D03*
%TO.P,U1,3,GND*%
%TO.N,Net-(U1-GND)*%
X164896200Y-101845800D03*
%TO.P,U1,4,OUT*%
%TO.N,Net-(U1-OUT)*%
X167146200Y-101845800D03*
%TO.P,U1,5,OUT2*%
%TO.N,unconnected-(U1-OUT2-Pad5)*%
X167146200Y-100575800D03*
%TO.P,U1,6,VDD*%
%TO.N,Net-(U1-VDD)*%
X167146200Y-99305800D03*
%TD*%
D11*
%TO.P,X1,1,EN*%
%TO.N,Net-(U1-E{slash}D)*%
X165176200Y-94665800D03*
%TO.P,X1,2,GND*%
%TO.N,Net-(U1-GND)*%
X165176200Y-96765800D03*
%TO.P,X1,3,OUT*%
%TO.N,Net-(U1-OUT)*%
X166826200Y-96765800D03*
%TO.P,X1,4,Vdd*%
%TO.N,Net-(U1-VDD)*%
X166826200Y-94665800D03*
%TD*%
%TO.P,X1,1,EN*%
%TO.N,Net-(U1-E{slash}D)*%
X160985200Y-94665800D03*
%TO.P,X1,2,GND*%
%TO.N,Net-(U1-GND)*%
X160985200Y-96765800D03*
%TO.P,X1,3,OUT*%
%TO.N,Net-(U1-OUT)*%
X162635200Y-96765800D03*
%TO.P,X1,4,Vdd*%
%TO.N,Net-(U1-VDD)*%
X162635200Y-94665800D03*
%TD*%
D10*
%TO.P,U1,1,E/D*%
%TO.N,Net-(U1-E{slash}D)*%
X156495000Y-99295000D03*
%TO.P,U1,2,NC*%
%TO.N,unconnected-(U1-NC-Pad2)*%
X156495000Y-100565000D03*
%TO.P,U1,3,GND*%
%TO.N,Net-(U1-GND)*%
X156495000Y-101835000D03*
%TO.P,U1,4,OUT*%
%TO.N,Net-(U1-OUT)*%
X158745000Y-101835000D03*
%TO.P,U1,5,OUT2*%
%TO.N,unconnected-(U1-OUT2-Pad5)*%
X158745000Y-100565000D03*
%TO.P,U1,6,VDD*%
%TO.N,Net-(U1-VDD)*%
X158745000Y-99295000D03*
%TD*%
D11*
%TO.P,X1,1,EN*%
%TO.N,Net-(U1-E{slash}D)*%
X156775000Y-94655000D03*
%TO.P,X1,2,GND*%
%TO.N,Net-(U1-GND)*%
X156775000Y-96755000D03*
%TO.P,X1,3,OUT*%
%TO.N,Net-(U1-OUT)*%
X158425000Y-96755000D03*
%TO.P,X1,4,Vdd*%
%TO.N,Net-(U1-VDD)*%
X158425000Y-94655000D03*
%TD*%
D10*
%TO.P,U1,1,E/D*%
%TO.N,Net-(U1-E{slash}D)*%
X152304000Y-99295000D03*
%TO.P,U1,2,NC*%
%TO.N,unconnected-(U1-NC-Pad2)*%
X152304000Y-100565000D03*
%TO.P,U1,3,GND*%
%TO.N,Net-(U1-GND)*%
X152304000Y-101835000D03*
%TO.P,U1,4,OUT*%
%TO.N,Net-(U1-OUT)*%
X154554000Y-101835000D03*
%TO.P,U1,5,OUT2*%
%TO.N,unconnected-(U1-OUT2-Pad5)*%
X154554000Y-100565000D03*
%TO.P,U1,6,VDD*%
%TO.N,Net-(U1-VDD)*%
X154554000Y-99295000D03*
%TD*%
D11*
%TO.P,X1,1,EN*%
%TO.N,Net-(U1-E{slash}D)*%
X152584000Y-94655000D03*
%TO.P,X1,2,GND*%
%TO.N,Net-(U1-GND)*%
X152584000Y-96755000D03*
%TO.P,X1,3,OUT*%
%TO.N,Net-(U1-OUT)*%
X154234000Y-96755000D03*
%TO.P,X1,4,Vdd*%
%TO.N,Net-(U1-VDD)*%
X154234000Y-94655000D03*
%TD*%
D12*
%TO.N,Net-(U1-VDD)*%
X167397136Y-98054800D03*
D13*
%TO.N,unconnected-(U1-NC-Pad2)*%
X164484200Y-100594800D03*
D12*
%TO.N,Net-(U1-OUT)*%
X166404200Y-101737800D03*
D13*
%TO.N,Net-(U1-VDD)*%
X167532200Y-99324800D03*
D12*
%TO.N,Net-(U1-OUT)*%
X162213200Y-101737800D03*
D13*
X167532200Y-101864800D03*
D12*
%TO.N,Net-(U1-GND)*%
X161436198Y-98054800D03*
%TO.N,Net-(U1-E{slash}D)*%
X161055200Y-95615798D03*
D13*
%TO.N,Net-(U1-OUT)*%
X163341200Y-101864800D03*
D12*
%TO.N,Net-(U1-GND)*%
X165627198Y-98054800D03*
%TO.N,Net-(U1-VDD)*%
X162579200Y-95615798D03*
D13*
%TO.N,unconnected-(U1-OUT2-Pad5)*%
X167532200Y-100594800D03*
%TO.N,Net-(U1-VDD)*%
X163341200Y-99324800D03*
D12*
X163206136Y-98054800D03*
D13*
%TO.N,unconnected-(U1-OUT2-Pad5)*%
X163341200Y-100594800D03*
D12*
%TO.N,Net-(U1-E{slash}D)*%
X160610695Y-98118305D03*
%TO.N,Net-(U1-OUT)*%
X166587542Y-98049836D03*
%TO.N,Net-(U1-E{slash}D)*%
X165246200Y-95615798D03*
X164801695Y-98118305D03*
%TO.N,Net-(U1-VDD)*%
X166770200Y-95615798D03*
D13*
%TO.N,Net-(U1-GND)*%
X160293200Y-101864800D03*
D12*
X161563200Y-102372800D03*
D13*
X164484200Y-101864800D03*
%TO.N,Net-(U1-E{slash}D)*%
X164484200Y-99324800D03*
D12*
%TO.N,Net-(U1-OUT)*%
X162396542Y-98049836D03*
D13*
%TO.N,unconnected-(U1-NC-Pad2)*%
X160293200Y-100594800D03*
D12*
%TO.N,Net-(U1-GND)*%
X165754200Y-102372800D03*
D13*
%TO.N,Net-(U1-E{slash}D)*%
X160293200Y-99324800D03*
D12*
%TO.N,Net-(U1-OUT)*%
X158003000Y-101727000D03*
%TO.N,Net-(U1-GND)*%
X157225998Y-98044000D03*
%TO.N,Net-(U1-E{slash}D)*%
X156845000Y-95604998D03*
D13*
%TO.N,Net-(U1-OUT)*%
X159131000Y-101854000D03*
D12*
%TO.N,Net-(U1-VDD)*%
X158369000Y-95604998D03*
D13*
X159131000Y-99314000D03*
D12*
X158995936Y-98044000D03*
D13*
%TO.N,unconnected-(U1-OUT2-Pad5)*%
X159131000Y-100584000D03*
D12*
%TO.N,Net-(U1-E{slash}D)*%
X156400495Y-98107505D03*
D13*
%TO.N,Net-(U1-GND)*%
X156083000Y-101854000D03*
D12*
X157353000Y-102362000D03*
%TO.N,Net-(U1-OUT)*%
X158186342Y-98039036D03*
D13*
%TO.N,unconnected-(U1-NC-Pad2)*%
X156083000Y-100584000D03*
%TO.N,Net-(U1-E{slash}D)*%
X156083000Y-99314000D03*
X151892000Y-99314000D03*
%TO.N,unconnected-(U1-NC-Pad2)*%
X151892000Y-100584000D03*
%TO.N,Net-(U1-GND)*%
X151892000Y-101854000D03*
%TO.N,Net-(U1-OUT)*%
X154940000Y-101854000D03*
%TO.N,Net-(U1-VDD)*%
X154940000Y-99314000D03*
%TO.N,unconnected-(U1-OUT2-Pad5)*%
X154940000Y-100584000D03*
D12*
%TO.N,Net-(U1-VDD)*%
X154804936Y-98044000D03*
X154178000Y-95604998D03*
%TO.N,Net-(U1-E{slash}D)*%
X152654000Y-95604998D03*
X152209495Y-98107505D03*
%TO.N,Net-(U1-GND)*%
X153162000Y-102362000D03*
X153034998Y-98044000D03*
%TO.N,Net-(U1-OUT)*%
X153812000Y-101727000D03*
X153995342Y-98039036D03*
%TD*%
D14*
%TO.N,Net-(U1-GND)*%
X161436198Y-97216798D02*
X161436198Y-98054800D01*
%TO.N,Net-(U1-E{slash}D)*%
X161055200Y-95615798D02*
X161055200Y-94735800D01*
%TO.N,Net-(U1-GND)*%
X160985200Y-96765800D02*
X161436198Y-97216798D01*
%TO.N,Net-(U1-OUT)*%
X162635200Y-97811178D02*
X162396542Y-98049836D01*
%TO.N,Net-(U1-E{slash}D)*%
X164896200Y-99305800D02*
X164896200Y-98212810D01*
%TO.N,Net-(U1-GND)*%
X164896200Y-101845800D02*
X165227200Y-101845800D01*
%TO.N,Net-(U1-VDD)*%
X162579200Y-95615798D02*
X162579200Y-94721800D01*
%TO.N,Net-(U1-E{slash}D)*%
X165246200Y-94735800D02*
X165176200Y-94665800D01*
X164896200Y-98212810D02*
X164801695Y-98118305D01*
%TO.N,Net-(U1-OUT)*%
X166512200Y-101845800D02*
X166404200Y-101737800D01*
%TO.N,Net-(U1-VDD)*%
X162579200Y-94721800D02*
X162635200Y-94665800D01*
%TO.N,Net-(U1-OUT)*%
X162635200Y-96765800D02*
X162635200Y-97811178D01*
X162321200Y-101845800D02*
X162213200Y-101737800D01*
%TO.N,Net-(U1-VDD)*%
X166770200Y-95615798D02*
X166770200Y-94721800D01*
%TO.N,Net-(U1-E{slash}D)*%
X160705200Y-99305800D02*
X160705200Y-98212810D01*
X160705200Y-98212810D02*
X160610695Y-98118305D01*
%TO.N,Net-(U1-OUT)*%
X162955200Y-101845800D02*
X162321200Y-101845800D01*
%TO.N,Net-(U1-VDD)*%
X162955200Y-99305800D02*
X162955200Y-98305736D01*
%TO.N,Net-(U1-E{slash}D)*%
X165246200Y-95615798D02*
X165246200Y-94735800D01*
%TO.N,Net-(U1-GND)*%
X165176200Y-96765800D02*
X165627198Y-97216798D01*
X165627198Y-97216798D02*
X165627198Y-98054800D01*
%TO.N,Net-(U1-OUT)*%
X167146200Y-101845800D02*
X166512200Y-101845800D01*
%TO.N,Net-(U1-GND)*%
X165227200Y-101845800D02*
X165754200Y-102372800D01*
%TO.N,Net-(U1-VDD)*%
X167146200Y-99305800D02*
X167146200Y-98305736D01*
X166770200Y-94721800D02*
X166826200Y-94665800D01*
%TO.N,Net-(U1-E{slash}D)*%
X161055200Y-94735800D02*
X160985200Y-94665800D01*
%TO.N,Net-(U1-OUT)*%
X166826200Y-97811178D02*
X166587542Y-98049836D01*
%TO.N,Net-(U1-VDD)*%
X162955200Y-98305736D02*
X163206136Y-98054800D01*
%TO.N,Net-(U1-GND)*%
X161036200Y-101845800D02*
X161563200Y-102372800D01*
%TO.N,Net-(U1-VDD)*%
X167146200Y-98305736D02*
X167397136Y-98054800D01*
%TO.N,Net-(U1-OUT)*%
X166826200Y-96765800D02*
X166826200Y-97811178D01*
%TO.N,Net-(U1-GND)*%
X160705200Y-101845800D02*
X161036200Y-101845800D01*
X157225998Y-97205998D02*
X157225998Y-98044000D01*
%TO.N,Net-(U1-E{slash}D)*%
X156845000Y-95604998D02*
X156845000Y-94725000D01*
%TO.N,Net-(U1-GND)*%
X156775000Y-96755000D02*
X157225998Y-97205998D01*
%TO.N,Net-(U1-OUT)*%
X158425000Y-97800378D02*
X158186342Y-98039036D01*
%TO.N,Net-(U1-VDD)*%
X158369000Y-95604998D02*
X158369000Y-94711000D01*
X158369000Y-94711000D02*
X158425000Y-94655000D01*
%TO.N,Net-(U1-OUT)*%
X158425000Y-96755000D02*
X158425000Y-97800378D01*
X158111000Y-101835000D02*
X158003000Y-101727000D01*
%TO.N,Net-(U1-E{slash}D)*%
X156495000Y-99295000D02*
X156495000Y-98202010D01*
X156495000Y-98202010D02*
X156400495Y-98107505D01*
%TO.N,Net-(U1-OUT)*%
X158745000Y-101835000D02*
X158111000Y-101835000D01*
%TO.N,Net-(U1-VDD)*%
X158745000Y-99295000D02*
X158745000Y-98294936D01*
%TO.N,Net-(U1-E{slash}D)*%
X156845000Y-94725000D02*
X156775000Y-94655000D01*
%TO.N,Net-(U1-VDD)*%
X158745000Y-98294936D02*
X158995936Y-98044000D01*
%TO.N,Net-(U1-GND)*%
X156826000Y-101835000D02*
X157353000Y-102362000D01*
X156495000Y-101835000D02*
X156826000Y-101835000D01*
%TO.N,Net-(U1-VDD)*%
X154554000Y-98294936D02*
X154804936Y-98044000D01*
%TO.N,Net-(U1-OUT)*%
X154234000Y-96755000D02*
X154234000Y-97800378D01*
X154234000Y-97800378D02*
X153995342Y-98039036D01*
%TO.N,Net-(U1-VDD)*%
X154554000Y-99295000D02*
X154554000Y-98294936D01*
X154178000Y-95604998D02*
X154178000Y-94711000D01*
X154178000Y-94711000D02*
X154234000Y-94655000D01*
%TO.N,Net-(U1-E{slash}D)*%
X152654000Y-95604998D02*
X152654000Y-94725000D01*
X152654000Y-94725000D02*
X152584000Y-94655000D01*
%TO.N,Net-(U1-GND)*%
X152635000Y-101835000D02*
X153162000Y-102362000D01*
%TO.N,Net-(U1-OUT)*%
X154554000Y-101835000D02*
X153920000Y-101835000D01*
%TO.N,Net-(U1-GND)*%
X152304000Y-101835000D02*
X152635000Y-101835000D01*
%TO.N,Net-(U1-OUT)*%
X153920000Y-101835000D02*
X153812000Y-101727000D01*
%TO.N,Net-(U1-GND)*%
X152584000Y-96755000D02*
X153034998Y-97205998D01*
X153034998Y-97205998D02*
X153034998Y-98044000D01*
%TO.N,Net-(U1-E{slash}D)*%
X152304000Y-99295000D02*
X152304000Y-98202010D01*
X152304000Y-98202010D02*
X152209495Y-98107505D01*
%TD*%
M02*
