%TF.GenerationSoftware,KiCad,Pcbnew,8.0.6*%
%TF.CreationDate,2024-11-28T12:35:29+01:00*%
%TF.ProjectId,OscillatorFootprintAdapter,4f736369-6c6c-4617-946f-72466f6f7470,rev?*%
%TF.SameCoordinates,Original*%
%TF.FileFunction,Legend,Top*%
%TF.FilePolarity,Positive*%
%FSLAX46Y46*%
G04 Gerber Fmt 4.6, Leading zero omitted, Abs format (unit mm)*
G04 Created by KiCad (PCBNEW 8.0.6) date 2024-11-28 12:35:29*
%MOMM*%
%LPD*%
G01*
G04 APERTURE LIST*
%ADD10C,0.120000*%
G04 APERTURE END LIST*
D10*
%TO.C,U1*%
X160120200Y-103185800D02*
X160120200Y-102555800D01*
X161830200Y-97965800D02*
X163540200Y-97965800D01*
X163540200Y-97965800D02*
X163540200Y-98595800D01*
X163540200Y-102555800D02*
X163540200Y-103185800D01*
X163540200Y-103185800D02*
X160120200Y-103185800D01*
X164311200Y-103185800D02*
X164311200Y-102555800D01*
X166021200Y-97965800D02*
X167731200Y-97965800D01*
X167731200Y-97965800D02*
X167731200Y-98595800D01*
X167731200Y-102555800D02*
X167731200Y-103185800D01*
X167731200Y-103185800D02*
X164311200Y-103185800D01*
%TO.C,X1*%
X164426200Y-93815800D02*
X164426200Y-97615800D01*
X167576200Y-93815800D02*
X164426200Y-93815800D01*
X160235200Y-93815800D02*
X160235200Y-97615800D01*
X163385200Y-93815800D02*
X160235200Y-93815800D01*
%TO.C,U1*%
X155910000Y-103175000D02*
X155910000Y-102545000D01*
X157620000Y-97955000D02*
X159330000Y-97955000D01*
X159330000Y-97955000D02*
X159330000Y-98585000D01*
X159330000Y-102545000D02*
X159330000Y-103175000D01*
X159330000Y-103175000D02*
X155910000Y-103175000D01*
%TO.C,X1*%
X156025000Y-93805000D02*
X156025000Y-97605000D01*
X159175000Y-93805000D02*
X156025000Y-93805000D01*
%TO.C,U1*%
X151719000Y-103175000D02*
X151719000Y-102545000D01*
X153429000Y-97955000D02*
X155139000Y-97955000D01*
X155139000Y-97955000D02*
X155139000Y-98585000D01*
X155139000Y-102545000D02*
X155139000Y-103175000D01*
X155139000Y-103175000D02*
X151719000Y-103175000D01*
%TO.C,X1*%
X154984000Y-93805000D02*
X151834000Y-93805000D01*
X151834000Y-93805000D02*
X151834000Y-97605000D01*
%TD*%
M02*
