%TF.GenerationSoftware,KiCad,Pcbnew,8.0.6*%
%TF.CreationDate,2024-11-28T12:35:29+01:00*%
%TF.ProjectId,OscillatorFootprintAdapter,4f736369-6c6c-4617-946f-72466f6f7470,rev?*%
%TF.SameCoordinates,Original*%
%TF.FileFunction,Paste,Top*%
%TF.FilePolarity,Positive*%
%FSLAX46Y46*%
G04 Gerber Fmt 4.6, Leading zero omitted, Abs format (unit mm)*
G04 Created by KiCad (PCBNEW 8.0.6) date 2024-11-28 12:35:29*
%MOMM*%
%LPD*%
G01*
G04 APERTURE LIST*
%ADD10R,1.290000X0.890000*%
%ADD11R,1.100000X1.300000*%
G04 APERTURE END LIST*
D10*
%TO.C,U1*%
X160705200Y-99305800D03*
X160705200Y-100575800D03*
X160705200Y-101845800D03*
X162955200Y-101845800D03*
X162955200Y-100575800D03*
X162955200Y-99305800D03*
%TD*%
%TO.C,U1*%
X164896200Y-99305800D03*
X164896200Y-100575800D03*
X164896200Y-101845800D03*
X167146200Y-101845800D03*
X167146200Y-100575800D03*
X167146200Y-99305800D03*
%TD*%
D11*
%TO.C,X1*%
X165176200Y-94665800D03*
X165176200Y-96765800D03*
X166826200Y-96765800D03*
X166826200Y-94665800D03*
%TD*%
%TO.C,X1*%
X160985200Y-94665800D03*
X160985200Y-96765800D03*
X162635200Y-96765800D03*
X162635200Y-94665800D03*
%TD*%
D10*
%TO.C,U1*%
X156495000Y-99295000D03*
X156495000Y-100565000D03*
X156495000Y-101835000D03*
X158745000Y-101835000D03*
X158745000Y-100565000D03*
X158745000Y-99295000D03*
%TD*%
D11*
%TO.C,X1*%
X156775000Y-94655000D03*
X156775000Y-96755000D03*
X158425000Y-96755000D03*
X158425000Y-94655000D03*
%TD*%
D10*
%TO.C,U1*%
X152304000Y-99295000D03*
X152304000Y-100565000D03*
X152304000Y-101835000D03*
X154554000Y-101835000D03*
X154554000Y-100565000D03*
X154554000Y-99295000D03*
%TD*%
D11*
%TO.C,X1*%
X152584000Y-94655000D03*
X152584000Y-96755000D03*
X154234000Y-96755000D03*
X154234000Y-94655000D03*
%TD*%
M02*
