%TF.GenerationSoftware,KiCad,Pcbnew,8.0.6*%
%TF.CreationDate,2024-11-28T12:35:30+01:00*%
%TF.ProjectId,OscillatorFootprintAdapter,4f736369-6c6c-4617-946f-72466f6f7470,rev?*%
%TF.SameCoordinates,Original*%
%TF.FileFunction,Profile,NP*%
%FSLAX46Y46*%
G04 Gerber Fmt 4.6, Leading zero omitted, Abs format (unit mm)*
G04 Created by KiCad (PCBNEW 8.0.6) date 2024-11-28 12:35:30*
%MOMM*%
%LPD*%
G01*
G04 APERTURE LIST*
%TA.AperFunction,Profile*%
%ADD10C,0.050000*%
%TD*%
G04 APERTURE END LIST*
D10*
X167817800Y-93675200D02*
X167817800Y-93726000D01*
X164261800Y-93675200D02*
X167817800Y-93675200D01*
X164261800Y-98628200D02*
X164261800Y-93675200D01*
X163677600Y-98628200D02*
X164261800Y-98628200D01*
X163677600Y-93675200D02*
X163677600Y-98628200D01*
X160096200Y-93675200D02*
X163677600Y-93675200D01*
X160096200Y-98628200D02*
X160096200Y-93675200D01*
X159486600Y-98628200D02*
X160096200Y-98628200D01*
X159486600Y-93675200D02*
X159486600Y-98628200D01*
X155879800Y-93675200D02*
X159486600Y-93675200D01*
X155879800Y-98602800D02*
X155879800Y-93675200D01*
X155270200Y-98602800D02*
X155879800Y-98602800D01*
X155270200Y-93675200D02*
X155270200Y-98602800D01*
X155117800Y-93675200D02*
X155270200Y-93675200D01*
X151688800Y-93675200D02*
X155117800Y-93675200D01*
X167817800Y-98577400D02*
X167817800Y-93726000D01*
X168910000Y-98577400D02*
X167817800Y-98577400D01*
X168910000Y-102565200D02*
X168910000Y-98577400D01*
X167767000Y-102565200D02*
X168910000Y-102565200D01*
X167767000Y-103327200D02*
X167767000Y-102565200D01*
X164312600Y-103327200D02*
X167767000Y-103327200D01*
X164312600Y-102565200D02*
X164312600Y-103327200D01*
X163550600Y-102565200D02*
X164312600Y-102565200D01*
X163550600Y-103327200D02*
X163550600Y-102565200D01*
X160121600Y-103327200D02*
X163550600Y-103327200D01*
X160121600Y-102590600D02*
X160121600Y-103327200D01*
X159308800Y-102590600D02*
X160121600Y-102590600D01*
X159308800Y-103327200D02*
X159308800Y-102590600D01*
X155905200Y-103327200D02*
X159308800Y-103327200D01*
X155905200Y-102565200D02*
X155905200Y-103327200D01*
X155143200Y-102565200D02*
X155905200Y-102565200D01*
X155143200Y-103327200D02*
X155143200Y-102565200D01*
X151688800Y-103327200D02*
X155143200Y-103327200D01*
X151688800Y-102590600D02*
X151688800Y-103327200D01*
X150444200Y-102590600D02*
X151688800Y-102590600D01*
X150444200Y-98602800D02*
X150444200Y-102590600D01*
X151663400Y-98602800D02*
X150444200Y-98602800D01*
X151663400Y-97942400D02*
X151663400Y-98602800D01*
X151663400Y-93726000D02*
X151663400Y-97917000D01*
M02*
