M48
; DRILL file {KiCad 8.0.6} date 2024-11-28T12:35:39+0100
; FORMAT={-:-/ absolute / metric / decimal}
; #@! TF.CreationDate,2024-11-28T12:35:39+01:00
; #@! TF.GenerationSoftware,Kicad,Pcbnew,8.0.6
; #@! TF.FileFunction,Plated,1,2,PTH
FMAT,2
METRIC
; #@! TA.AperFunction,Plated,PTH,ViaDrill
T1C0.300
; #@! TA.AperFunction,Plated,PTH,ViaDrill
T2C0.800
%
G90
G05
T1
X152.209Y-98.108
X152.654Y-95.605
X153.035Y-98.044
X153.162Y-102.362
X153.812Y-101.727
X153.995Y-98.039
X154.178Y-95.605
X154.805Y-98.044
X156.4Y-98.108
X156.845Y-95.605
X157.226Y-98.044
X157.353Y-102.362
X158.003Y-101.727
X158.186Y-98.039
X158.369Y-95.605
X158.996Y-98.044
X160.611Y-98.118
X161.055Y-95.616
X161.436Y-98.055
X161.563Y-102.373
X162.213Y-101.738
X162.397Y-98.05
X162.579Y-95.616
X163.206Y-98.055
X164.802Y-98.118
X165.246Y-95.616
X165.627Y-98.055
X165.754Y-102.373
X166.404Y-101.738
X166.588Y-98.05
X166.77Y-95.616
X167.397Y-98.055
T2
X151.892Y-99.314
X151.892Y-100.584
X151.892Y-101.854
X154.94Y-99.314
X154.94Y-100.584
X154.94Y-101.854
X156.083Y-99.314
X156.083Y-100.584
X156.083Y-101.854
X159.131Y-99.314
X159.131Y-100.584
X159.131Y-101.854
X160.293Y-99.325
X160.293Y-100.595
X160.293Y-101.865
X163.341Y-99.325
X163.341Y-100.595
X163.341Y-101.865
X164.484Y-99.325
X164.484Y-100.595
X164.484Y-101.865
X167.532Y-99.325
X167.532Y-100.595
X167.532Y-101.865
M30
